%TF.GenerationSoftware,KiCad,Pcbnew,8.0.2*%
%TF.CreationDate,2024-07-19T14:35:33-04:00*%
%TF.ProjectId,StepperMotorDriver,53746570-7065-4724-9d6f-746f72447269,rev?*%
%TF.SameCoordinates,Original*%
%TF.FileFunction,Copper,L2,Inr*%
%TF.FilePolarity,Positive*%
%FSLAX46Y46*%
G04 Gerber Fmt 4.6, Leading zero omitted, Abs format (unit mm)*
G04 Created by KiCad (PCBNEW 8.0.2) date 2024-07-19 14:35:33*
%MOMM*%
%LPD*%
G01*
G04 APERTURE LIST*
G04 Aperture macros list*
%AMRoundRect*
0 Rectangle with rounded corners*
0 $1 Rounding radius*
0 $2 $3 $4 $5 $6 $7 $8 $9 X,Y pos of 4 corners*
0 Add a 4 corners polygon primitive as box body*
4,1,4,$2,$3,$4,$5,$6,$7,$8,$9,$2,$3,0*
0 Add four circle primitives for the rounded corners*
1,1,$1+$1,$2,$3*
1,1,$1+$1,$4,$5*
1,1,$1+$1,$6,$7*
1,1,$1+$1,$8,$9*
0 Add four rect primitives between the rounded corners*
20,1,$1+$1,$2,$3,$4,$5,0*
20,1,$1+$1,$4,$5,$6,$7,0*
20,1,$1+$1,$6,$7,$8,$9,0*
20,1,$1+$1,$8,$9,$2,$3,0*%
G04 Aperture macros list end*
%TA.AperFunction,ComponentPad*%
%ADD10C,1.400000*%
%TD*%
%TA.AperFunction,ComponentPad*%
%ADD11RoundRect,0.250000X-0.750000X0.600000X-0.750000X-0.600000X0.750000X-0.600000X0.750000X0.600000X0*%
%TD*%
%TA.AperFunction,ComponentPad*%
%ADD12O,2.000000X1.700000*%
%TD*%
%TA.AperFunction,ComponentPad*%
%ADD13C,5.600000*%
%TD*%
%TA.AperFunction,ComponentPad*%
%ADD14RoundRect,0.250000X0.750000X-0.600000X0.750000X0.600000X-0.750000X0.600000X-0.750000X-0.600000X0*%
%TD*%
%TA.AperFunction,ComponentPad*%
%ADD15R,1.500000X1.500000*%
%TD*%
%TA.AperFunction,ComponentPad*%
%ADD16C,1.500000*%
%TD*%
%TA.AperFunction,ComponentPad*%
%ADD17R,1.700000X1.700000*%
%TD*%
%TA.AperFunction,ComponentPad*%
%ADD18O,1.700000X1.700000*%
%TD*%
%TA.AperFunction,ComponentPad*%
%ADD19O,1.000000X2.100000*%
%TD*%
%TA.AperFunction,ComponentPad*%
%ADD20O,1.000000X1.800000*%
%TD*%
%TA.AperFunction,ViaPad*%
%ADD21C,0.600000*%
%TD*%
%TA.AperFunction,ViaPad*%
%ADD22C,0.700000*%
%TD*%
G04 APERTURE END LIST*
D10*
%TO.N,/CANL*%
%TO.C,JP1*%
X146750000Y-110000000D03*
%TO.N,Net-(JP1-B)*%
X146750000Y-112540000D03*
%TD*%
D11*
%TO.N,/CANH*%
%TO.C,J7*%
X149217500Y-103000000D03*
D12*
%TO.N,/CANL*%
X149217500Y-105500000D03*
%TD*%
D13*
%TO.N,GND*%
%TO.C,H3*%
X121000000Y-90500000D03*
%TD*%
%TO.N,GND*%
%TO.C,H4*%
X121000000Y-117000000D03*
%TD*%
%TO.N,GND*%
%TO.C,H2*%
X147000000Y-117000000D03*
%TD*%
D14*
%TO.N,/CANL*%
%TO.C,J1*%
X118750000Y-105500000D03*
D12*
%TO.N,/CANH*%
X118750000Y-103000000D03*
%TD*%
D13*
%TO.N,GND*%
%TO.C,H1*%
X147000000Y-90500000D03*
%TD*%
D15*
%TO.N,VCC*%
%TO.C,U5*%
X141750000Y-100290000D03*
D16*
%TO.N,GND*%
X141750000Y-97750000D03*
%TO.N,+3V3*%
X141750000Y-95210000D03*
%TD*%
D17*
%TO.N,/OB2*%
%TO.C,J4*%
X126460000Y-119000000D03*
D18*
%TO.N,/OB1*%
X129000000Y-119000000D03*
%TO.N,/OA1*%
X131540000Y-119000000D03*
%TO.N,/OA2*%
X134080000Y-119000000D03*
%TD*%
D19*
%TO.N,unconnected-(J5-SHIELD-PadS1)*%
%TO.C,J5*%
X138320000Y-90000000D03*
D20*
%TO.N,unconnected-(J5-SHIELD-PadS1)_2*%
X138320000Y-85820000D03*
D19*
%TO.N,unconnected-(J5-SHIELD-PadS1)_0*%
X129680000Y-90000000D03*
D20*
%TO.N,unconnected-(J5-SHIELD-PadS1)_1*%
X129680000Y-85820000D03*
%TD*%
D17*
%TO.N,+3V3*%
%TO.C,J6*%
X134040000Y-115250000D03*
D18*
%TO.N,/SWDIO*%
X131500000Y-115250000D03*
%TO.N,/SWDCLK*%
X128960000Y-115250000D03*
%TO.N,GND*%
X126420000Y-115250000D03*
%TD*%
D21*
%TO.N,GND*%
X129750000Y-92000000D03*
D22*
X123150002Y-101900000D03*
X124661894Y-98161894D03*
X136500000Y-92050000D03*
D21*
X137500000Y-92000000D03*
D22*
X141500000Y-103300000D03*
X122369975Y-109130025D03*
X136500000Y-97000000D03*
X140253920Y-104003920D03*
D21*
X130750000Y-92000000D03*
D22*
X143250000Y-97250000D03*
X131000000Y-112220000D03*
X131978553Y-112021447D03*
X123556191Y-100450000D03*
D21*
X132233771Y-109295565D03*
D22*
X139750000Y-103300000D03*
X121000000Y-94500000D03*
X144250000Y-106500000D03*
X135500000Y-114750000D03*
X123500000Y-109500000D03*
X128276844Y-96526844D03*
X143250000Y-98250000D03*
X147250000Y-99500000D03*
X129000000Y-104750000D03*
X150750000Y-117000000D03*
X121750000Y-108000000D03*
X147250000Y-100500000D03*
X142500000Y-103300000D03*
X125000000Y-114500000D03*
X118750000Y-112000000D03*
D21*
X132500000Y-94000000D03*
D22*
X136499831Y-99999059D03*
X117250000Y-117000000D03*
X149750000Y-113000000D03*
X143250000Y-119500000D03*
X136249999Y-108500000D03*
D21*
X137500000Y-93750000D03*
D22*
X144085070Y-98643932D03*
X143250000Y-90500000D03*
D21*
%TO.N,+3V3*%
X132980873Y-111900111D03*
D22*
X148499975Y-111749975D03*
X134040000Y-114040000D03*
X135500000Y-115800000D03*
X136250000Y-99000000D03*
X137519975Y-117969975D03*
X127250000Y-100750000D03*
X145699999Y-111060051D03*
X136500000Y-95050000D03*
X128000000Y-112220000D03*
%TO.N,VCC*%
X149500000Y-96750000D03*
X144539949Y-103299999D03*
X118500000Y-96750000D03*
X143500000Y-100250000D03*
%TO.N,/OB1*%
X138050000Y-115815543D03*
X140480806Y-105029324D03*
%TO.N,/OA2*%
X143250000Y-106500000D03*
X141124176Y-114514556D03*
D21*
%TO.N,/MOT_STBY*%
X144850000Y-107250000D03*
X138290379Y-106040381D03*
%TO.N,/MOT_DIR*%
X144750000Y-101950000D03*
X144577541Y-108091699D03*
D22*
%TO.N,/MOT_ENABLE*%
X128999360Y-99000000D03*
X135000000Y-111500000D03*
D21*
%TO.N,/MOT_DIAG*%
X139250000Y-101450000D03*
X139150000Y-113400000D03*
%TO.N,/MOT_MS1*%
X139625000Y-115850000D03*
X132750000Y-95750000D03*
D22*
%TO.N,/OA1*%
X141130295Y-104406295D03*
X138750000Y-116500000D03*
D21*
%TO.N,/MOT_MS2*%
X140490380Y-115340380D03*
X133127370Y-96455405D03*
D22*
%TO.N,/OB2*%
X136940379Y-107049570D03*
X135975001Y-113337146D03*
D21*
%TO.N,/MOT_UART_RX*%
X128250000Y-108750000D03*
X144250000Y-112500000D03*
%TO.N,/SWDCLK*%
X134500000Y-99750000D03*
%TO.N,/SWDIO*%
X136650000Y-100835691D03*
D22*
%TO.N,/BOOT0*%
X124630025Y-95630025D03*
X127000000Y-95750000D03*
%TO.N,/ESCL*%
X130711290Y-95931606D03*
X130900000Y-98795388D03*
%TO.N,/ESDA*%
X130400001Y-98047055D03*
X129759999Y-95820000D03*
D21*
%TO.N,/CAN_TX*%
X134540381Y-107459619D03*
%TO.N,/CAN_RX*%
X135625762Y-106455000D03*
%TD*%
%TA.AperFunction,Conductor*%
%TO.N,GND*%
G36*
X129274280Y-84519685D02*
G01*
X129320035Y-84572489D01*
X129329979Y-84641647D01*
X129300954Y-84705203D01*
X129276132Y-84727102D01*
X129169711Y-84798210D01*
X129169707Y-84798213D01*
X129058213Y-84909707D01*
X129058210Y-84909711D01*
X128970609Y-85040814D01*
X128970602Y-85040827D01*
X128910264Y-85186498D01*
X128910261Y-85186510D01*
X128879500Y-85341153D01*
X128879500Y-86298846D01*
X128910261Y-86453489D01*
X128910264Y-86453501D01*
X128970602Y-86599172D01*
X128970609Y-86599185D01*
X129058210Y-86730288D01*
X129058213Y-86730292D01*
X129169707Y-86841786D01*
X129169711Y-86841789D01*
X129300814Y-86929390D01*
X129300827Y-86929397D01*
X129446498Y-86989735D01*
X129446503Y-86989737D01*
X129601153Y-87020499D01*
X129601156Y-87020500D01*
X129601158Y-87020500D01*
X129758844Y-87020500D01*
X129758845Y-87020499D01*
X129913497Y-86989737D01*
X130059179Y-86929394D01*
X130190289Y-86841789D01*
X130301789Y-86730289D01*
X130389394Y-86599179D01*
X130449737Y-86453497D01*
X130480500Y-86298842D01*
X130480500Y-85341158D01*
X130480500Y-85341155D01*
X130480499Y-85341153D01*
X130468888Y-85282782D01*
X130449737Y-85186503D01*
X130428790Y-85135932D01*
X130389397Y-85040827D01*
X130389390Y-85040814D01*
X130301789Y-84909711D01*
X130301786Y-84909707D01*
X130190292Y-84798213D01*
X130190288Y-84798210D01*
X130083868Y-84727102D01*
X130039063Y-84673490D01*
X130030356Y-84604165D01*
X130060511Y-84541137D01*
X130119954Y-84504418D01*
X130152759Y-84500000D01*
X137847241Y-84500000D01*
X137914280Y-84519685D01*
X137960035Y-84572489D01*
X137969979Y-84641647D01*
X137940954Y-84705203D01*
X137916132Y-84727102D01*
X137809711Y-84798210D01*
X137809707Y-84798213D01*
X137698213Y-84909707D01*
X137698210Y-84909711D01*
X137610609Y-85040814D01*
X137610602Y-85040827D01*
X137550264Y-85186498D01*
X137550261Y-85186510D01*
X137519500Y-85341153D01*
X137519500Y-86298846D01*
X137550261Y-86453489D01*
X137550264Y-86453501D01*
X137610602Y-86599172D01*
X137610609Y-86599185D01*
X137698210Y-86730288D01*
X137698213Y-86730292D01*
X137809707Y-86841786D01*
X137809711Y-86841789D01*
X137940814Y-86929390D01*
X137940827Y-86929397D01*
X138086498Y-86989735D01*
X138086503Y-86989737D01*
X138241153Y-87020499D01*
X138241156Y-87020500D01*
X138241158Y-87020500D01*
X138398844Y-87020500D01*
X138398845Y-87020499D01*
X138553497Y-86989737D01*
X138699179Y-86929394D01*
X138830289Y-86841789D01*
X138941789Y-86730289D01*
X139029394Y-86599179D01*
X139089737Y-86453497D01*
X139120500Y-86298842D01*
X139120500Y-85341158D01*
X139120500Y-85341155D01*
X139120499Y-85341153D01*
X139108888Y-85282782D01*
X139089737Y-85186503D01*
X139068790Y-85135932D01*
X139029397Y-85040827D01*
X139029390Y-85040814D01*
X138941789Y-84909711D01*
X138941786Y-84909707D01*
X138830292Y-84798213D01*
X138830288Y-84798210D01*
X138723868Y-84727102D01*
X138679063Y-84673490D01*
X138670356Y-84604165D01*
X138700511Y-84541137D01*
X138759954Y-84504418D01*
X138792759Y-84500000D01*
X138923409Y-84500000D01*
X138931038Y-84500500D01*
X138935333Y-84500500D01*
X147934108Y-84500500D01*
X147995933Y-84500500D01*
X148004043Y-84500765D01*
X148252895Y-84517075D01*
X148268953Y-84519190D01*
X148476105Y-84560395D01*
X148509535Y-84567045D01*
X148525202Y-84571243D01*
X148694947Y-84628863D01*
X148757481Y-84650091D01*
X148772458Y-84656294D01*
X148981799Y-84759529D01*
X148992460Y-84764787D01*
X149006508Y-84772897D01*
X149210464Y-84909177D01*
X149223328Y-84919048D01*
X149407749Y-85080781D01*
X149419218Y-85092250D01*
X149580951Y-85276671D01*
X149590825Y-85289539D01*
X149727102Y-85493492D01*
X149735212Y-85507539D01*
X149843702Y-85727534D01*
X149849909Y-85742520D01*
X149928756Y-85974797D01*
X149932954Y-85990464D01*
X149980807Y-86231035D01*
X149982925Y-86247116D01*
X149999235Y-86495956D01*
X149999500Y-86504066D01*
X149999500Y-87434108D01*
X149999500Y-87500000D01*
X149999500Y-87657250D01*
X150032374Y-87970026D01*
X150032375Y-87970031D01*
X150097760Y-88277647D01*
X150097761Y-88277649D01*
X150170003Y-88499991D01*
X150194947Y-88576759D01*
X150241031Y-88680264D01*
X150322866Y-88864068D01*
X150322869Y-88864075D01*
X150480112Y-89136428D01*
X150480115Y-89136433D01*
X150664967Y-89390860D01*
X150664974Y-89390869D01*
X150747384Y-89482394D01*
X150875414Y-89624586D01*
X150983755Y-89722136D01*
X151109130Y-89835025D01*
X151109139Y-89835032D01*
X151363566Y-90019884D01*
X151363571Y-90019887D01*
X151635924Y-90177130D01*
X151635928Y-90177131D01*
X151635932Y-90177134D01*
X151923241Y-90305053D01*
X152222348Y-90402238D01*
X152222351Y-90402238D01*
X152222352Y-90402239D01*
X152264737Y-90411248D01*
X152529974Y-90467626D01*
X152842750Y-90500500D01*
X152934108Y-90500500D01*
X153934108Y-90500500D01*
X153995933Y-90500500D01*
X154004043Y-90500765D01*
X154252895Y-90517075D01*
X154268953Y-90519190D01*
X154476105Y-90560395D01*
X154509535Y-90567045D01*
X154525202Y-90571243D01*
X154686285Y-90625923D01*
X154757481Y-90650091D01*
X154772458Y-90656294D01*
X154981799Y-90759529D01*
X154992460Y-90764787D01*
X155006508Y-90772897D01*
X155210464Y-90909177D01*
X155223328Y-90919048D01*
X155407749Y-91080781D01*
X155419218Y-91092250D01*
X155580951Y-91276671D01*
X155590825Y-91289539D01*
X155727102Y-91493492D01*
X155735212Y-91507539D01*
X155843702Y-91727534D01*
X155849909Y-91742520D01*
X155928756Y-91974797D01*
X155932954Y-91990464D01*
X155980807Y-92231035D01*
X155982925Y-92247116D01*
X155999235Y-92495956D01*
X155999500Y-92504066D01*
X155999500Y-114995933D01*
X155999235Y-115004043D01*
X155982925Y-115252883D01*
X155980807Y-115268964D01*
X155932954Y-115509535D01*
X155928756Y-115525202D01*
X155849909Y-115757479D01*
X155843702Y-115772465D01*
X155735212Y-115992460D01*
X155727102Y-116006507D01*
X155590825Y-116210460D01*
X155580951Y-116223328D01*
X155419218Y-116407749D01*
X155407749Y-116419218D01*
X155223328Y-116580951D01*
X155210460Y-116590825D01*
X155006507Y-116727102D01*
X154992460Y-116735212D01*
X154772465Y-116843702D01*
X154757479Y-116849909D01*
X154525202Y-116928756D01*
X154509535Y-116932954D01*
X154268964Y-116980807D01*
X154252883Y-116982925D01*
X154004043Y-116999235D01*
X153995933Y-116999500D01*
X153065892Y-116999500D01*
X153000000Y-116999500D01*
X152842750Y-116999500D01*
X152529974Y-117032374D01*
X152529970Y-117032374D01*
X152529968Y-117032375D01*
X152222352Y-117097760D01*
X152222350Y-117097761D01*
X151923248Y-117194944D01*
X151635931Y-117322866D01*
X151635924Y-117322869D01*
X151363571Y-117480112D01*
X151363566Y-117480115D01*
X151109139Y-117664967D01*
X151109130Y-117664974D01*
X150875414Y-117875414D01*
X150664974Y-118109130D01*
X150664967Y-118109139D01*
X150480115Y-118363566D01*
X150480112Y-118363571D01*
X150322869Y-118635924D01*
X150322866Y-118635931D01*
X150194944Y-118923248D01*
X150097761Y-119222350D01*
X150097760Y-119222352D01*
X150034741Y-119518836D01*
X150032374Y-119529974D01*
X150002515Y-119814071D01*
X149999500Y-119842754D01*
X149999500Y-119994598D01*
X149999028Y-120005406D01*
X149985261Y-120162754D01*
X149981508Y-120184039D01*
X149942031Y-120331370D01*
X149934638Y-120351682D01*
X149870178Y-120489916D01*
X149859371Y-120508634D01*
X149771881Y-120633583D01*
X149757987Y-120650141D01*
X149650141Y-120757987D01*
X149633583Y-120771881D01*
X149508634Y-120859371D01*
X149489916Y-120870178D01*
X149351682Y-120934638D01*
X149331370Y-120942031D01*
X149184039Y-120981508D01*
X149162754Y-120985261D01*
X149008494Y-120998757D01*
X149005476Y-120999022D01*
X149005407Y-120999028D01*
X148994599Y-120999500D01*
X119005452Y-120999500D01*
X118994573Y-120999022D01*
X118832545Y-120984751D01*
X118811120Y-120980947D01*
X118659369Y-120939999D01*
X118638939Y-120932509D01*
X118496681Y-120865664D01*
X118477875Y-120854718D01*
X118349491Y-120764035D01*
X118332889Y-120749971D01*
X118222332Y-120638242D01*
X118208443Y-120621491D01*
X118119122Y-120492160D01*
X118108375Y-120473240D01*
X118043035Y-120330284D01*
X118035761Y-120309777D01*
X118004448Y-120188667D01*
X118000500Y-120157627D01*
X118000500Y-119842754D01*
X118000500Y-119842750D01*
X117967626Y-119529974D01*
X117902238Y-119222348D01*
X117805053Y-118923241D01*
X117677134Y-118635932D01*
X117677131Y-118635928D01*
X117677130Y-118635924D01*
X117519887Y-118363571D01*
X117519884Y-118363566D01*
X117335032Y-118109139D01*
X117335025Y-118109130D01*
X117205881Y-117965702D01*
X117124586Y-117875414D01*
X117000885Y-117764033D01*
X116890869Y-117664974D01*
X116890860Y-117664967D01*
X116636433Y-117480115D01*
X116636428Y-117480112D01*
X116364075Y-117322869D01*
X116364068Y-117322866D01*
X116356452Y-117319475D01*
X116076759Y-117194947D01*
X116076754Y-117194945D01*
X116076751Y-117194944D01*
X115777649Y-117097761D01*
X115777647Y-117097760D01*
X115502530Y-117039283D01*
X115470026Y-117032374D01*
X115161979Y-116999997D01*
X117695153Y-116999997D01*
X117695153Y-117000002D01*
X117714526Y-117357314D01*
X117714527Y-117357331D01*
X117772415Y-117710431D01*
X117772421Y-117710457D01*
X117868147Y-118055232D01*
X117868149Y-118055239D01*
X118000597Y-118387659D01*
X118000606Y-118387677D01*
X118168218Y-118703827D01*
X118369024Y-118999994D01*
X118369035Y-119000008D01*
X118496441Y-119150002D01*
X118496442Y-119150002D01*
X119705747Y-117940697D01*
X119779588Y-118042330D01*
X119957670Y-118220412D01*
X120059300Y-118294251D01*
X118847257Y-119506294D01*
X118860495Y-119518836D01*
X119145367Y-119735388D01*
X119145370Y-119735390D01*
X119451990Y-119919876D01*
X119776739Y-120070122D01*
X119776744Y-120070123D01*
X120115855Y-120184383D01*
X120465339Y-120261311D01*
X120821075Y-120299999D01*
X120821085Y-120300000D01*
X121178915Y-120300000D01*
X121178924Y-120299999D01*
X121534660Y-120261311D01*
X121884144Y-120184383D01*
X122223255Y-120070123D01*
X122223260Y-120070122D01*
X122548009Y-119919876D01*
X122854629Y-119735390D01*
X122854632Y-119735388D01*
X123139509Y-119518831D01*
X123152742Y-119506295D01*
X123152742Y-119506294D01*
X121940699Y-118294251D01*
X122042330Y-118220412D01*
X122220412Y-118042330D01*
X122294251Y-117940698D01*
X123503556Y-119150002D01*
X123630972Y-118999998D01*
X123630975Y-118999994D01*
X123831781Y-118703827D01*
X123999393Y-118387677D01*
X123999402Y-118387659D01*
X124111971Y-118105131D01*
X125309500Y-118105131D01*
X125309500Y-119894856D01*
X125309502Y-119894882D01*
X125312413Y-119919987D01*
X125312415Y-119919991D01*
X125357793Y-120022764D01*
X125357794Y-120022765D01*
X125437235Y-120102206D01*
X125540009Y-120147585D01*
X125565135Y-120150500D01*
X127354864Y-120150499D01*
X127354879Y-120150497D01*
X127354882Y-120150497D01*
X127379987Y-120147586D01*
X127379988Y-120147585D01*
X127379991Y-120147585D01*
X127482765Y-120102206D01*
X127562206Y-120022765D01*
X127607585Y-119919991D01*
X127610500Y-119894865D01*
X127610499Y-119156046D01*
X127630183Y-119089009D01*
X127682987Y-119043254D01*
X127752146Y-119033310D01*
X127815702Y-119062335D01*
X127853476Y-119121113D01*
X127857970Y-119144606D01*
X127864244Y-119212310D01*
X127922596Y-119417392D01*
X127922596Y-119417394D01*
X128017632Y-119608253D01*
X128146127Y-119778406D01*
X128146128Y-119778407D01*
X128303698Y-119922052D01*
X128484981Y-120034298D01*
X128683802Y-120111321D01*
X128893390Y-120150500D01*
X128893392Y-120150500D01*
X129106608Y-120150500D01*
X129106610Y-120150500D01*
X129316198Y-120111321D01*
X129515019Y-120034298D01*
X129696302Y-119922052D01*
X129853872Y-119778407D01*
X129982366Y-119608255D01*
X130006264Y-119560261D01*
X130077403Y-119417394D01*
X130077403Y-119417393D01*
X130077405Y-119417389D01*
X130135756Y-119212310D01*
X130146529Y-119096047D01*
X130172315Y-119031111D01*
X130214622Y-119000804D01*
X130323130Y-119000804D01*
X130359503Y-119021668D01*
X130391693Y-119083681D01*
X130393471Y-119096048D01*
X130404244Y-119212310D01*
X130462596Y-119417392D01*
X130462596Y-119417394D01*
X130557632Y-119608253D01*
X130686127Y-119778406D01*
X130686128Y-119778407D01*
X130843698Y-119922052D01*
X131024981Y-120034298D01*
X131223802Y-120111321D01*
X131433390Y-120150500D01*
X131433392Y-120150500D01*
X131646608Y-120150500D01*
X131646610Y-120150500D01*
X131856198Y-120111321D01*
X132055019Y-120034298D01*
X132236302Y-119922052D01*
X132393872Y-119778407D01*
X132522366Y-119608255D01*
X132546264Y-119560261D01*
X132617403Y-119417394D01*
X132617403Y-119417393D01*
X132617405Y-119417389D01*
X132675756Y-119212310D01*
X132686529Y-119096047D01*
X132712315Y-119031111D01*
X132754622Y-119000804D01*
X132863130Y-119000804D01*
X132899503Y-119021668D01*
X132931693Y-119083681D01*
X132933471Y-119096048D01*
X132944244Y-119212310D01*
X133002596Y-119417392D01*
X133002596Y-119417394D01*
X133097632Y-119608253D01*
X133226127Y-119778406D01*
X133226128Y-119778407D01*
X133383698Y-119922052D01*
X133564981Y-120034298D01*
X133763802Y-120111321D01*
X133973390Y-120150500D01*
X133973392Y-120150500D01*
X134186608Y-120150500D01*
X134186610Y-120150500D01*
X134396198Y-120111321D01*
X134595019Y-120034298D01*
X134776302Y-119922052D01*
X134894751Y-119814071D01*
X139599499Y-119814071D01*
X139624497Y-119939738D01*
X139624499Y-119939744D01*
X139673533Y-120058124D01*
X139673538Y-120058133D01*
X139744723Y-120164668D01*
X139744726Y-120164672D01*
X139835327Y-120255273D01*
X139835331Y-120255276D01*
X139941866Y-120326461D01*
X139941875Y-120326466D01*
X139963285Y-120335334D01*
X140060256Y-120375501D01*
X140060260Y-120375501D01*
X140060261Y-120375502D01*
X140185928Y-120400500D01*
X140185931Y-120400500D01*
X140314071Y-120400500D01*
X140398615Y-120383682D01*
X140439744Y-120375501D01*
X140558127Y-120326465D01*
X140664669Y-120255276D01*
X140755276Y-120164669D01*
X140826465Y-120058127D01*
X140875501Y-119939744D01*
X140900500Y-119814069D01*
X140900500Y-119685931D01*
X140900500Y-119685928D01*
X140875502Y-119560261D01*
X140875501Y-119560260D01*
X140875501Y-119560256D01*
X140826465Y-119441873D01*
X140826464Y-119441872D01*
X140826461Y-119441866D01*
X140755276Y-119335331D01*
X140755273Y-119335327D01*
X140664672Y-119244726D01*
X140664668Y-119244723D01*
X140558133Y-119173538D01*
X140558124Y-119173533D01*
X140439744Y-119124499D01*
X140439738Y-119124497D01*
X140314071Y-119099500D01*
X140314069Y-119099500D01*
X140185931Y-119099500D01*
X140185929Y-119099500D01*
X140060261Y-119124497D01*
X140060255Y-119124499D01*
X139941875Y-119173533D01*
X139941866Y-119173538D01*
X139835331Y-119244723D01*
X139835327Y-119244726D01*
X139744726Y-119335327D01*
X139744723Y-119335331D01*
X139673538Y-119441866D01*
X139673533Y-119441875D01*
X139624499Y-119560255D01*
X139624497Y-119560261D01*
X139599500Y-119685928D01*
X139599500Y-119685931D01*
X139599500Y-119814069D01*
X139599500Y-119814071D01*
X139599499Y-119814071D01*
X134894751Y-119814071D01*
X134933872Y-119778407D01*
X135062366Y-119608255D01*
X135086264Y-119560261D01*
X135157403Y-119417394D01*
X135157403Y-119417393D01*
X135157405Y-119417389D01*
X135215756Y-119212310D01*
X135235429Y-119000000D01*
X135235428Y-118999994D01*
X135231817Y-118961018D01*
X135215756Y-118787690D01*
X135157405Y-118582611D01*
X135157403Y-118582606D01*
X135157403Y-118582605D01*
X135062367Y-118391746D01*
X134933872Y-118221593D01*
X134932577Y-118220412D01*
X134776302Y-118077948D01*
X134601918Y-117969974D01*
X136864697Y-117969974D01*
X136864697Y-117969975D01*
X136883737Y-118126793D01*
X136939755Y-118274498D01*
X137029492Y-118404505D01*
X137147735Y-118509258D01*
X137147737Y-118509259D01*
X137287609Y-118582671D01*
X137440989Y-118620475D01*
X137440990Y-118620475D01*
X137598960Y-118620475D01*
X137752340Y-118582671D01*
X137752466Y-118582605D01*
X137892215Y-118509258D01*
X138010458Y-118404505D01*
X138100195Y-118274498D01*
X138156212Y-118126793D01*
X138175253Y-117969975D01*
X138156212Y-117813157D01*
X138100195Y-117665452D01*
X138010458Y-117535445D01*
X137892215Y-117430692D01*
X137892213Y-117430691D01*
X137892212Y-117430690D01*
X137752340Y-117357278D01*
X137598961Y-117319475D01*
X137598960Y-117319475D01*
X137440990Y-117319475D01*
X137440989Y-117319475D01*
X137287609Y-117357278D01*
X137147737Y-117430690D01*
X137029491Y-117535446D01*
X136939756Y-117665450D01*
X136939755Y-117665451D01*
X136883737Y-117813156D01*
X136864697Y-117969974D01*
X134601918Y-117969974D01*
X134595019Y-117965702D01*
X134595017Y-117965701D01*
X134431198Y-117902238D01*
X134396198Y-117888679D01*
X134186610Y-117849500D01*
X133973390Y-117849500D01*
X133763802Y-117888679D01*
X133763799Y-117888679D01*
X133763799Y-117888680D01*
X133564982Y-117965701D01*
X133564980Y-117965702D01*
X133383699Y-118077947D01*
X133226127Y-118221593D01*
X133097632Y-118391746D01*
X133002596Y-118582605D01*
X133002596Y-118582607D01*
X132944244Y-118787689D01*
X132933471Y-118903951D01*
X132907685Y-118968888D01*
X132863130Y-119000804D01*
X132754622Y-119000804D01*
X132756869Y-118999194D01*
X132720497Y-118978331D01*
X132688307Y-118916318D01*
X132686529Y-118903951D01*
X132683175Y-118867759D01*
X132675756Y-118787690D01*
X132617405Y-118582611D01*
X132617403Y-118582606D01*
X132617403Y-118582605D01*
X132522367Y-118391746D01*
X132393872Y-118221593D01*
X132392577Y-118220412D01*
X132236302Y-118077948D01*
X132055019Y-117965702D01*
X132055017Y-117965701D01*
X131891198Y-117902238D01*
X131856198Y-117888679D01*
X131646610Y-117849500D01*
X131433390Y-117849500D01*
X131223802Y-117888679D01*
X131223799Y-117888679D01*
X131223799Y-117888680D01*
X131024982Y-117965701D01*
X131024980Y-117965702D01*
X130843699Y-118077947D01*
X130686127Y-118221593D01*
X130557632Y-118391746D01*
X130462596Y-118582605D01*
X130462596Y-118582607D01*
X130404244Y-118787689D01*
X130393471Y-118903951D01*
X130367685Y-118968888D01*
X130323130Y-119000804D01*
X130214622Y-119000804D01*
X130216869Y-118999194D01*
X130180497Y-118978331D01*
X130148307Y-118916318D01*
X130146529Y-118903951D01*
X130143175Y-118867759D01*
X130135756Y-118787690D01*
X130077405Y-118582611D01*
X130077403Y-118582606D01*
X130077403Y-118582605D01*
X129982367Y-118391746D01*
X129853872Y-118221593D01*
X129852577Y-118220412D01*
X129696302Y-118077948D01*
X129515019Y-117965702D01*
X129515017Y-117965701D01*
X129351198Y-117902238D01*
X129316198Y-117888679D01*
X129106610Y-117849500D01*
X128893390Y-117849500D01*
X128683802Y-117888679D01*
X128683799Y-117888679D01*
X128683799Y-117888680D01*
X128484982Y-117965701D01*
X128484980Y-117965702D01*
X128303699Y-118077947D01*
X128146127Y-118221593D01*
X128017632Y-118391746D01*
X127922596Y-118582605D01*
X127922596Y-118582607D01*
X127864244Y-118787689D01*
X127857970Y-118855394D01*
X127832183Y-118920331D01*
X127775383Y-118961018D01*
X127705602Y-118964538D01*
X127644995Y-118929772D01*
X127612806Y-118867759D01*
X127610499Y-118843952D01*
X127610499Y-118105143D01*
X127610499Y-118105136D01*
X127610497Y-118105117D01*
X127607586Y-118080012D01*
X127607585Y-118080010D01*
X127607585Y-118080009D01*
X127562206Y-117977235D01*
X127482765Y-117897794D01*
X127462124Y-117888680D01*
X127379992Y-117852415D01*
X127354865Y-117849500D01*
X125565143Y-117849500D01*
X125565117Y-117849502D01*
X125540012Y-117852413D01*
X125540008Y-117852415D01*
X125437235Y-117897793D01*
X125357794Y-117977234D01*
X125312415Y-118080006D01*
X125312415Y-118080008D01*
X125309500Y-118105131D01*
X124111971Y-118105131D01*
X124131850Y-118055239D01*
X124131852Y-118055232D01*
X124227578Y-117710457D01*
X124227584Y-117710431D01*
X124285472Y-117357331D01*
X124285473Y-117357314D01*
X124304847Y-117000002D01*
X124304847Y-116999997D01*
X124285473Y-116642685D01*
X124285472Y-116642668D01*
X124227584Y-116289568D01*
X124227578Y-116289542D01*
X124131852Y-115944767D01*
X124131850Y-115944760D01*
X123999402Y-115612340D01*
X123999393Y-115612322D01*
X123831781Y-115296172D01*
X123630972Y-115000000D01*
X123630971Y-114999999D01*
X125089364Y-114999999D01*
X125089364Y-115000000D01*
X125986988Y-115000000D01*
X125954075Y-115057007D01*
X125920000Y-115184174D01*
X125920000Y-115315826D01*
X125954075Y-115442993D01*
X125986988Y-115500000D01*
X125089364Y-115500000D01*
X125146567Y-115713486D01*
X125146570Y-115713492D01*
X125246399Y-115927578D01*
X125381894Y-116121082D01*
X125548917Y-116288105D01*
X125742421Y-116423600D01*
X125956507Y-116523429D01*
X125956516Y-116523433D01*
X126170000Y-116580634D01*
X126170000Y-115683012D01*
X126227007Y-115715925D01*
X126354174Y-115750000D01*
X126485826Y-115750000D01*
X126612993Y-115715925D01*
X126670000Y-115683012D01*
X126670000Y-116580633D01*
X126883483Y-116523433D01*
X126883492Y-116523429D01*
X127097578Y-116423600D01*
X127291082Y-116288105D01*
X127458105Y-116121082D01*
X127593600Y-115927578D01*
X127687294Y-115726651D01*
X127733466Y-115674212D01*
X127800660Y-115655060D01*
X127867541Y-115675276D01*
X127910676Y-115723785D01*
X127977632Y-115858253D01*
X128089782Y-116006762D01*
X128106128Y-116028407D01*
X128263698Y-116172052D01*
X128444981Y-116284298D01*
X128643802Y-116361321D01*
X128853390Y-116400500D01*
X128853392Y-116400500D01*
X129066608Y-116400500D01*
X129066610Y-116400500D01*
X129276198Y-116361321D01*
X129475019Y-116284298D01*
X129656302Y-116172052D01*
X129813872Y-116028407D01*
X129942366Y-115858255D01*
X129982501Y-115777652D01*
X130037403Y-115667394D01*
X130037403Y-115667393D01*
X130037405Y-115667389D01*
X130095756Y-115462310D01*
X130106529Y-115346047D01*
X130132315Y-115281111D01*
X130174622Y-115250804D01*
X130283130Y-115250804D01*
X130319503Y-115271668D01*
X130351693Y-115333681D01*
X130353470Y-115346047D01*
X130364244Y-115462310D01*
X130417675Y-115650099D01*
X130422596Y-115667392D01*
X130422596Y-115667394D01*
X130517632Y-115858253D01*
X130629782Y-116006762D01*
X130646128Y-116028407D01*
X130803698Y-116172052D01*
X130984981Y-116284298D01*
X131183802Y-116361321D01*
X131393390Y-116400500D01*
X131393392Y-116400500D01*
X131606608Y-116400500D01*
X131606610Y-116400500D01*
X131816198Y-116361321D01*
X132015019Y-116284298D01*
X132196302Y-116172052D01*
X132353872Y-116028407D01*
X132482366Y-115858255D01*
X132522501Y-115777652D01*
X132577403Y-115667394D01*
X132577403Y-115667393D01*
X132577405Y-115667389D01*
X132635756Y-115462310D01*
X132642029Y-115394605D01*
X132667814Y-115329669D01*
X132724614Y-115288981D01*
X132794395Y-115285461D01*
X132855002Y-115320225D01*
X132887193Y-115382238D01*
X132889500Y-115406047D01*
X132889500Y-116144856D01*
X132889502Y-116144882D01*
X132892413Y-116169987D01*
X132892415Y-116169991D01*
X132937793Y-116272764D01*
X132937794Y-116272765D01*
X133017235Y-116352206D01*
X133120009Y-116397585D01*
X133145135Y-116400500D01*
X134934864Y-116400499D01*
X134934879Y-116400497D01*
X134934882Y-116400497D01*
X134959987Y-116397586D01*
X134959991Y-116397585D01*
X135056702Y-116354883D01*
X135125980Y-116345811D01*
X135164414Y-116358521D01*
X135267634Y-116412696D01*
X135421014Y-116450500D01*
X135421015Y-116450500D01*
X135578985Y-116450500D01*
X135732365Y-116412696D01*
X135761158Y-116397584D01*
X135872240Y-116339283D01*
X135990483Y-116234530D01*
X136080220Y-116104523D01*
X136136237Y-115956818D01*
X136153391Y-115815542D01*
X137394722Y-115815542D01*
X137394722Y-115815543D01*
X137413762Y-115972361D01*
X137435018Y-116028407D01*
X137469780Y-116120066D01*
X137559517Y-116250073D01*
X137677760Y-116354826D01*
X137677762Y-116354827D01*
X137817634Y-116428239D01*
X137971014Y-116466043D01*
X137971015Y-116466043D01*
X137980744Y-116466043D01*
X138047783Y-116485728D01*
X138093538Y-116538532D01*
X138103840Y-116575096D01*
X138113763Y-116656818D01*
X138169780Y-116804523D01*
X138259517Y-116934530D01*
X138377760Y-117039283D01*
X138377762Y-117039284D01*
X138517634Y-117112696D01*
X138671014Y-117150500D01*
X138671015Y-117150500D01*
X138828985Y-117150500D01*
X138982365Y-117112696D01*
X139010823Y-117097760D01*
X139122240Y-117039283D01*
X139166585Y-116999997D01*
X143695153Y-116999997D01*
X143695153Y-117000002D01*
X143714526Y-117357314D01*
X143714527Y-117357331D01*
X143772415Y-117710431D01*
X143772421Y-117710457D01*
X143868147Y-118055232D01*
X143868149Y-118055239D01*
X144000597Y-118387659D01*
X144000606Y-118387677D01*
X144168218Y-118703827D01*
X144369024Y-118999994D01*
X144369035Y-119000008D01*
X144496441Y-119150002D01*
X144496442Y-119150002D01*
X145705747Y-117940697D01*
X145779588Y-118042330D01*
X145957670Y-118220412D01*
X146059300Y-118294251D01*
X144847257Y-119506294D01*
X144860495Y-119518836D01*
X145145367Y-119735388D01*
X145145370Y-119735390D01*
X145451990Y-119919876D01*
X145776739Y-120070122D01*
X145776744Y-120070123D01*
X146115855Y-120184383D01*
X146465339Y-120261311D01*
X146821075Y-120299999D01*
X146821085Y-120300000D01*
X147178915Y-120300000D01*
X147178924Y-120299999D01*
X147534660Y-120261311D01*
X147884144Y-120184383D01*
X148223255Y-120070123D01*
X148223260Y-120070122D01*
X148548009Y-119919876D01*
X148854629Y-119735390D01*
X148854632Y-119735388D01*
X149139509Y-119518831D01*
X149152742Y-119506295D01*
X149152742Y-119506294D01*
X147940699Y-118294251D01*
X148042330Y-118220412D01*
X148220412Y-118042330D01*
X148294251Y-117940698D01*
X149503556Y-119150002D01*
X149630972Y-118999998D01*
X149630975Y-118999994D01*
X149831781Y-118703827D01*
X149999393Y-118387677D01*
X149999402Y-118387659D01*
X150131850Y-118055239D01*
X150131852Y-118055232D01*
X150227578Y-117710457D01*
X150227584Y-117710431D01*
X150285472Y-117357331D01*
X150285473Y-117357314D01*
X150304847Y-117000002D01*
X150304847Y-116999997D01*
X150285473Y-116642685D01*
X150285472Y-116642668D01*
X150227584Y-116289568D01*
X150227578Y-116289542D01*
X150131852Y-115944767D01*
X150131850Y-115944760D01*
X149999402Y-115612340D01*
X149999393Y-115612322D01*
X149831781Y-115296172D01*
X149630972Y-115000000D01*
X149630964Y-114999991D01*
X149503556Y-114849996D01*
X148294251Y-116059301D01*
X148220412Y-115957670D01*
X148042330Y-115779588D01*
X147940698Y-115705748D01*
X149152742Y-114493704D01*
X149139504Y-114481163D01*
X148854632Y-114264611D01*
X148854629Y-114264609D01*
X148548009Y-114080123D01*
X148223260Y-113929877D01*
X148223255Y-113929876D01*
X147884144Y-113815616D01*
X147534661Y-113738688D01*
X147181875Y-113700321D01*
X147117357Y-113673504D01*
X147077580Y-113616062D01*
X147075172Y-113546234D01*
X147110898Y-113486189D01*
X147136820Y-113467694D01*
X147308538Y-113375910D01*
X147460883Y-113250883D01*
X147585910Y-113098538D01*
X147676914Y-112928282D01*
X147678811Y-112924733D01*
X147678811Y-112924732D01*
X147678814Y-112924727D01*
X147736024Y-112736132D01*
X147755341Y-112540000D01*
X147736024Y-112343868D01*
X147678814Y-112155273D01*
X147678811Y-112155269D01*
X147678811Y-112155266D01*
X147585913Y-111981467D01*
X147585909Y-111981460D01*
X147460883Y-111829116D01*
X147364449Y-111749974D01*
X147844697Y-111749974D01*
X147844697Y-111749975D01*
X147863737Y-111906793D01*
X147892056Y-111981462D01*
X147919755Y-112054498D01*
X148009492Y-112184505D01*
X148127735Y-112289258D01*
X148127737Y-112289259D01*
X148267609Y-112362671D01*
X148420989Y-112400475D01*
X148420990Y-112400475D01*
X148578960Y-112400475D01*
X148732340Y-112362671D01*
X148768162Y-112343870D01*
X148872215Y-112289258D01*
X148990458Y-112184505D01*
X149080195Y-112054498D01*
X149136212Y-111906793D01*
X149155253Y-111749975D01*
X149154449Y-111743349D01*
X149136212Y-111593156D01*
X149090198Y-111471829D01*
X149080195Y-111445452D01*
X148990458Y-111315445D01*
X148872215Y-111210692D01*
X148872213Y-111210691D01*
X148872212Y-111210690D01*
X148732340Y-111137278D01*
X148578961Y-111099475D01*
X148578960Y-111099475D01*
X148420990Y-111099475D01*
X148420989Y-111099475D01*
X148267609Y-111137278D01*
X148127737Y-111210690D01*
X148009491Y-111315446D01*
X147919756Y-111445450D01*
X147919755Y-111445451D01*
X147863737Y-111593156D01*
X147844697Y-111749974D01*
X147364449Y-111749974D01*
X147308539Y-111704090D01*
X147308532Y-111704086D01*
X147134733Y-111611188D01*
X147134727Y-111611186D01*
X147008997Y-111573046D01*
X146946129Y-111553975D01*
X146750000Y-111534659D01*
X146553869Y-111553975D01*
X146382087Y-111606085D01*
X146312220Y-111606708D01*
X146253107Y-111569460D01*
X146223516Y-111506165D01*
X146232842Y-111436921D01*
X146244039Y-111416989D01*
X146280219Y-111364574D01*
X146336236Y-111216869D01*
X146353203Y-111077125D01*
X146380824Y-111012949D01*
X146438758Y-110973892D01*
X146508611Y-110972357D01*
X146512295Y-110973413D01*
X146553868Y-110986024D01*
X146750000Y-111005341D01*
X146946132Y-110986024D01*
X147134727Y-110928814D01*
X147308538Y-110835910D01*
X147460883Y-110710883D01*
X147585910Y-110558538D01*
X147665545Y-110409551D01*
X147678811Y-110384733D01*
X147678811Y-110384732D01*
X147678814Y-110384727D01*
X147736024Y-110196132D01*
X147755341Y-110000000D01*
X147736024Y-109803868D01*
X147678814Y-109615273D01*
X147678811Y-109615269D01*
X147678811Y-109615266D01*
X147585913Y-109441467D01*
X147585909Y-109441460D01*
X147460883Y-109289116D01*
X147308539Y-109164090D01*
X147308532Y-109164086D01*
X147134733Y-109071188D01*
X147134727Y-109071186D01*
X146946132Y-109013976D01*
X146946129Y-109013975D01*
X146750000Y-108994659D01*
X146553870Y-109013975D01*
X146365266Y-109071188D01*
X146191467Y-109164086D01*
X146191460Y-109164090D01*
X146039116Y-109289116D01*
X145914090Y-109441460D01*
X145914086Y-109441467D01*
X145821188Y-109615266D01*
X145763975Y-109803870D01*
X145744659Y-110000000D01*
X145763975Y-110196130D01*
X145780182Y-110249556D01*
X145780805Y-110319423D01*
X145743557Y-110378536D01*
X145680262Y-110408127D01*
X145661521Y-110409551D01*
X145621013Y-110409551D01*
X145467633Y-110447354D01*
X145327761Y-110520766D01*
X145209515Y-110625522D01*
X145119780Y-110755526D01*
X145119779Y-110755527D01*
X145063761Y-110903232D01*
X145044721Y-111060050D01*
X145044721Y-111060051D01*
X145063761Y-111216869D01*
X145101147Y-111315445D01*
X145119779Y-111364574D01*
X145209516Y-111494581D01*
X145327759Y-111599334D01*
X145327761Y-111599335D01*
X145467633Y-111672747D01*
X145621013Y-111710551D01*
X145621014Y-111710551D01*
X145778984Y-111710551D01*
X145864907Y-111689373D01*
X145934708Y-111692442D01*
X145991770Y-111732762D01*
X146017976Y-111797531D01*
X146005004Y-111866186D01*
X145990435Y-111888434D01*
X145914090Y-111981461D01*
X145914086Y-111981467D01*
X145821188Y-112155266D01*
X145763975Y-112343870D01*
X145744659Y-112540000D01*
X145763975Y-112736129D01*
X145821188Y-112924733D01*
X145914086Y-113098532D01*
X145914090Y-113098539D01*
X146039116Y-113250883D01*
X146191460Y-113375909D01*
X146191467Y-113375913D01*
X146365266Y-113468811D01*
X146365269Y-113468811D01*
X146365273Y-113468814D01*
X146468804Y-113500220D01*
X146527241Y-113538517D01*
X146555698Y-113602329D01*
X146545137Y-113671396D01*
X146498913Y-113723790D01*
X146459464Y-113739981D01*
X146115855Y-113815616D01*
X145776744Y-113929876D01*
X145776739Y-113929877D01*
X145451990Y-114080123D01*
X145145370Y-114264609D01*
X145145367Y-114264611D01*
X144860486Y-114481170D01*
X144860485Y-114481171D01*
X144847257Y-114493702D01*
X144847256Y-114493703D01*
X146059301Y-115705748D01*
X145957670Y-115779588D01*
X145779588Y-115957670D01*
X145705748Y-116059301D01*
X144496442Y-114849995D01*
X144496441Y-114849996D01*
X144369033Y-114999992D01*
X144168218Y-115296172D01*
X144000606Y-115612322D01*
X144000597Y-115612340D01*
X143868149Y-115944760D01*
X143868147Y-115944767D01*
X143772421Y-116289542D01*
X143772415Y-116289568D01*
X143714527Y-116642668D01*
X143714526Y-116642685D01*
X143695153Y-116999997D01*
X139166585Y-116999997D01*
X139240483Y-116934530D01*
X139330220Y-116804523D01*
X139386237Y-116656818D01*
X139398934Y-116552247D01*
X139426554Y-116488071D01*
X139484488Y-116449014D01*
X139538212Y-116444256D01*
X139625000Y-116455682D01*
X139625001Y-116455682D01*
X139677254Y-116448802D01*
X139781762Y-116435044D01*
X139927841Y-116374536D01*
X140053282Y-116278282D01*
X140149536Y-116152841D01*
X140210044Y-116006762D01*
X140210044Y-116006759D01*
X140211971Y-116002108D01*
X140255811Y-115947704D01*
X140322105Y-115925639D01*
X140342705Y-115926620D01*
X140490380Y-115946062D01*
X140490381Y-115946062D01*
X140542634Y-115939182D01*
X140647142Y-115925424D01*
X140793221Y-115864916D01*
X140918662Y-115768662D01*
X141014916Y-115643221D01*
X141075424Y-115497142D01*
X141096062Y-115340380D01*
X141091377Y-115304796D01*
X141102142Y-115235763D01*
X141148521Y-115183507D01*
X141199374Y-115165516D01*
X141203159Y-115165056D01*
X141203161Y-115165056D01*
X141356541Y-115127252D01*
X141496416Y-115053839D01*
X141614659Y-114949086D01*
X141704396Y-114819079D01*
X141760413Y-114671374D01*
X141779454Y-114514556D01*
X141775400Y-114481163D01*
X141760413Y-114357737D01*
X141739168Y-114301720D01*
X141704396Y-114210033D01*
X141614659Y-114080026D01*
X141496416Y-113975273D01*
X141496414Y-113975272D01*
X141496413Y-113975271D01*
X141356541Y-113901859D01*
X141203162Y-113864056D01*
X141203161Y-113864056D01*
X141045191Y-113864056D01*
X141045190Y-113864056D01*
X140891810Y-113901859D01*
X140751938Y-113975271D01*
X140633692Y-114080027D01*
X140543957Y-114210031D01*
X140543956Y-114210032D01*
X140487938Y-114357737D01*
X140468898Y-114514555D01*
X140468898Y-114514556D01*
X140480748Y-114612156D01*
X140469287Y-114681080D01*
X140422383Y-114732865D01*
X140373838Y-114750041D01*
X140333618Y-114755336D01*
X140333617Y-114755336D01*
X140187540Y-114815843D01*
X140062098Y-114912098D01*
X139965843Y-115037540D01*
X139903408Y-115188272D01*
X139859567Y-115242675D01*
X139793273Y-115264740D01*
X139772662Y-115263758D01*
X139625001Y-115244318D01*
X139624999Y-115244318D01*
X139468239Y-115264955D01*
X139468237Y-115264956D01*
X139322160Y-115325463D01*
X139196718Y-115421718D01*
X139100463Y-115547160D01*
X139039956Y-115693237D01*
X139039956Y-115693238D01*
X139031484Y-115757585D01*
X139003217Y-115821481D01*
X138944892Y-115859951D01*
X138878871Y-115861795D01*
X138828986Y-115849500D01*
X138828985Y-115849500D01*
X138819256Y-115849500D01*
X138752217Y-115829815D01*
X138706462Y-115777011D01*
X138696160Y-115740447D01*
X138692886Y-115713486D01*
X138686237Y-115658725D01*
X138630220Y-115511020D01*
X138540483Y-115381013D01*
X138422240Y-115276260D01*
X138422238Y-115276259D01*
X138422237Y-115276258D01*
X138282365Y-115202846D01*
X138128986Y-115165043D01*
X138128985Y-115165043D01*
X137971015Y-115165043D01*
X137971014Y-115165043D01*
X137817634Y-115202846D01*
X137677762Y-115276258D01*
X137617473Y-115329669D01*
X137577061Y-115365471D01*
X137559516Y-115381014D01*
X137469781Y-115511018D01*
X137469780Y-115511019D01*
X137413762Y-115658724D01*
X137394722Y-115815542D01*
X136153391Y-115815542D01*
X136155278Y-115800000D01*
X136152565Y-115777652D01*
X136136237Y-115643181D01*
X136103555Y-115557007D01*
X136080220Y-115495477D01*
X135990483Y-115365470D01*
X135872240Y-115260717D01*
X135872238Y-115260716D01*
X135872237Y-115260715D01*
X135732365Y-115187303D01*
X135578986Y-115149500D01*
X135578985Y-115149500D01*
X135421015Y-115149500D01*
X135421014Y-115149500D01*
X135344173Y-115168439D01*
X135274371Y-115165369D01*
X135217309Y-115125049D01*
X135191104Y-115060280D01*
X135190499Y-115048042D01*
X135190499Y-114355143D01*
X135190499Y-114355136D01*
X135190497Y-114355117D01*
X135187586Y-114330012D01*
X135187585Y-114330010D01*
X135187585Y-114330009D01*
X135142206Y-114227235D01*
X135062765Y-114147794D01*
X135042124Y-114138680D01*
X134959992Y-114102415D01*
X134934868Y-114099500D01*
X134934865Y-114099500D01*
X134812357Y-114099500D01*
X134745318Y-114079815D01*
X134699563Y-114027011D01*
X134689261Y-113990446D01*
X134687419Y-113975273D01*
X134676237Y-113883182D01*
X134620220Y-113735477D01*
X134530483Y-113605470D01*
X134412240Y-113500717D01*
X134412238Y-113500716D01*
X134412237Y-113500715D01*
X134272365Y-113427303D01*
X134118986Y-113389500D01*
X134118985Y-113389500D01*
X133961015Y-113389500D01*
X133961014Y-113389500D01*
X133807634Y-113427303D01*
X133667762Y-113500715D01*
X133667760Y-113500717D01*
X133553063Y-113602329D01*
X133549516Y-113605471D01*
X133459781Y-113735475D01*
X133459780Y-113735476D01*
X133403763Y-113883180D01*
X133390738Y-113990447D01*
X133363116Y-114054625D01*
X133305181Y-114093681D01*
X133267643Y-114099500D01*
X133145142Y-114099500D01*
X133145119Y-114099502D01*
X133120011Y-114102414D01*
X133120008Y-114102415D01*
X133017235Y-114147793D01*
X132937794Y-114227234D01*
X132892415Y-114330006D01*
X132892415Y-114330008D01*
X132889500Y-114355131D01*
X132889500Y-115093951D01*
X132869815Y-115160990D01*
X132817011Y-115206745D01*
X132747853Y-115216689D01*
X132684297Y-115187664D01*
X132646523Y-115128886D01*
X132642029Y-115105391D01*
X132635756Y-115037689D01*
X132621273Y-114986789D01*
X132577405Y-114832611D01*
X132577403Y-114832606D01*
X132577403Y-114832605D01*
X132482367Y-114641746D01*
X132353872Y-114471593D01*
X132196302Y-114327948D01*
X132015019Y-114215702D01*
X132015017Y-114215701D01*
X131915608Y-114177190D01*
X131816198Y-114138679D01*
X131606610Y-114099500D01*
X131393390Y-114099500D01*
X131183802Y-114138679D01*
X131183799Y-114138679D01*
X131183799Y-114138680D01*
X130984982Y-114215701D01*
X130984980Y-114215702D01*
X130803699Y-114327947D01*
X130646127Y-114471593D01*
X130517632Y-114641746D01*
X130422596Y-114832605D01*
X130422596Y-114832607D01*
X130364244Y-115037689D01*
X130353471Y-115153951D01*
X130327685Y-115218888D01*
X130283130Y-115250804D01*
X130174622Y-115250804D01*
X130176869Y-115249194D01*
X130140497Y-115228331D01*
X130108307Y-115166318D01*
X130106529Y-115153951D01*
X130097849Y-115060280D01*
X130095756Y-115037690D01*
X130037405Y-114832611D01*
X130037403Y-114832606D01*
X130037403Y-114832605D01*
X129942367Y-114641746D01*
X129813872Y-114471593D01*
X129656302Y-114327948D01*
X129475019Y-114215702D01*
X129475017Y-114215701D01*
X129375608Y-114177190D01*
X129276198Y-114138679D01*
X129066610Y-114099500D01*
X128853390Y-114099500D01*
X128643802Y-114138679D01*
X128643799Y-114138679D01*
X128643799Y-114138680D01*
X128444982Y-114215701D01*
X128444980Y-114215702D01*
X128263699Y-114327947D01*
X128106127Y-114471593D01*
X127977634Y-114641744D01*
X127910676Y-114776215D01*
X127863173Y-114827452D01*
X127795510Y-114844873D01*
X127729170Y-114822947D01*
X127687294Y-114773348D01*
X127593600Y-114572422D01*
X127593599Y-114572420D01*
X127458113Y-114378926D01*
X127458108Y-114378920D01*
X127291082Y-114211894D01*
X127097578Y-114076399D01*
X126883492Y-113976570D01*
X126883486Y-113976567D01*
X126670000Y-113919364D01*
X126670000Y-114816988D01*
X126612993Y-114784075D01*
X126485826Y-114750000D01*
X126354174Y-114750000D01*
X126227007Y-114784075D01*
X126170000Y-114816988D01*
X126170000Y-113919364D01*
X126169999Y-113919364D01*
X125956513Y-113976567D01*
X125956507Y-113976570D01*
X125742422Y-114076399D01*
X125742420Y-114076400D01*
X125548926Y-114211886D01*
X125548920Y-114211891D01*
X125381891Y-114378920D01*
X125381886Y-114378926D01*
X125246400Y-114572420D01*
X125246399Y-114572422D01*
X125146570Y-114786507D01*
X125146567Y-114786513D01*
X125089364Y-114999999D01*
X123630971Y-114999999D01*
X123630964Y-114999991D01*
X123503556Y-114849996D01*
X122294251Y-116059301D01*
X122220412Y-115957670D01*
X122042330Y-115779588D01*
X121940698Y-115705748D01*
X123152742Y-114493704D01*
X123139504Y-114481163D01*
X122854632Y-114264611D01*
X122854629Y-114264609D01*
X122548009Y-114080123D01*
X122223260Y-113929877D01*
X122223255Y-113929876D01*
X121884144Y-113815616D01*
X121534660Y-113738688D01*
X121178924Y-113700000D01*
X120821075Y-113700000D01*
X120465339Y-113738688D01*
X120115855Y-113815616D01*
X119776744Y-113929876D01*
X119776739Y-113929877D01*
X119451990Y-114080123D01*
X119145370Y-114264609D01*
X119145367Y-114264611D01*
X118860486Y-114481170D01*
X118860485Y-114481171D01*
X118847257Y-114493702D01*
X118847256Y-114493703D01*
X120059301Y-115705748D01*
X119957670Y-115779588D01*
X119779588Y-115957670D01*
X119705748Y-116059301D01*
X118496442Y-114849995D01*
X118496441Y-114849996D01*
X118369033Y-114999992D01*
X118168218Y-115296172D01*
X118000606Y-115612322D01*
X118000597Y-115612340D01*
X117868149Y-115944760D01*
X117868147Y-115944767D01*
X117772421Y-116289542D01*
X117772415Y-116289568D01*
X117714527Y-116642668D01*
X117714526Y-116642685D01*
X117695153Y-116999997D01*
X115161979Y-116999997D01*
X115157250Y-116999500D01*
X115157245Y-116999500D01*
X114254067Y-116999500D01*
X114245957Y-116999235D01*
X113997116Y-116982925D01*
X113981035Y-116980807D01*
X113740464Y-116932954D01*
X113724797Y-116928756D01*
X113492520Y-116849909D01*
X113477534Y-116843702D01*
X113257539Y-116735212D01*
X113243492Y-116727102D01*
X113039539Y-116590825D01*
X113026671Y-116580951D01*
X113026308Y-116580633D01*
X112918090Y-116485728D01*
X112842250Y-116419218D01*
X112830781Y-116407749D01*
X112722517Y-116284298D01*
X112669045Y-116223325D01*
X112659174Y-116210460D01*
X112632133Y-116169991D01*
X112522897Y-116006507D01*
X112514787Y-115992460D01*
X112482319Y-115926621D01*
X112406294Y-115772458D01*
X112400090Y-115757479D01*
X112394308Y-115740447D01*
X112366567Y-115658723D01*
X112321243Y-115525202D01*
X112317045Y-115509535D01*
X112291724Y-115382238D01*
X112269190Y-115268953D01*
X112267075Y-115252895D01*
X112250765Y-115004043D01*
X112250500Y-114995933D01*
X112250500Y-113337145D01*
X135319723Y-113337145D01*
X135319723Y-113337146D01*
X135338763Y-113493964D01*
X135394781Y-113641669D01*
X135484518Y-113771676D01*
X135602761Y-113876429D01*
X135602763Y-113876430D01*
X135742635Y-113949842D01*
X135896015Y-113987646D01*
X135896016Y-113987646D01*
X136053986Y-113987646D01*
X136207366Y-113949842D01*
X136347241Y-113876429D01*
X136465484Y-113771676D01*
X136555221Y-113641669D01*
X136611238Y-113493964D01*
X136622647Y-113399998D01*
X138544318Y-113399998D01*
X138544318Y-113400001D01*
X138564955Y-113556760D01*
X138564956Y-113556762D01*
X138585131Y-113605470D01*
X138625464Y-113702841D01*
X138721718Y-113828282D01*
X138847159Y-113924536D01*
X138993238Y-113985044D01*
X139071619Y-113995363D01*
X139149999Y-114005682D01*
X139150000Y-114005682D01*
X139150001Y-114005682D01*
X139202254Y-113998802D01*
X139306762Y-113985044D01*
X139452841Y-113924536D01*
X139578282Y-113828282D01*
X139674536Y-113702841D01*
X139735044Y-113556762D01*
X139755682Y-113400000D01*
X139752510Y-113375909D01*
X139735044Y-113243239D01*
X139735044Y-113243238D01*
X139674536Y-113097159D01*
X139578282Y-112971718D01*
X139452841Y-112875464D01*
X139306762Y-112814956D01*
X139306760Y-112814955D01*
X139150001Y-112794318D01*
X139149999Y-112794318D01*
X138993239Y-112814955D01*
X138993237Y-112814956D01*
X138847160Y-112875463D01*
X138721718Y-112971718D01*
X138625463Y-113097160D01*
X138564956Y-113243237D01*
X138564955Y-113243239D01*
X138544318Y-113399998D01*
X136622647Y-113399998D01*
X136630279Y-113337146D01*
X136618877Y-113243237D01*
X136611238Y-113180327D01*
X136589993Y-113124310D01*
X136555221Y-113032623D01*
X136465484Y-112902616D01*
X136347241Y-112797863D01*
X136347239Y-112797862D01*
X136347238Y-112797861D01*
X136207366Y-112724449D01*
X136053987Y-112686646D01*
X136053986Y-112686646D01*
X135896016Y-112686646D01*
X135896015Y-112686646D01*
X135742635Y-112724449D01*
X135602763Y-112797861D01*
X135484517Y-112902617D01*
X135394782Y-113032621D01*
X135394781Y-113032622D01*
X135338763Y-113180327D01*
X135319723Y-113337145D01*
X112250500Y-113337145D01*
X112250500Y-112219999D01*
X127344722Y-112219999D01*
X127344722Y-112220000D01*
X127363762Y-112376818D01*
X127410479Y-112499998D01*
X127419780Y-112524523D01*
X127509517Y-112654530D01*
X127627760Y-112759283D01*
X127627762Y-112759284D01*
X127767634Y-112832696D01*
X127921014Y-112870500D01*
X127921015Y-112870500D01*
X128078985Y-112870500D01*
X128232365Y-112832696D01*
X128289252Y-112802839D01*
X128372240Y-112759283D01*
X128490483Y-112654530D01*
X128580220Y-112524523D01*
X128636237Y-112376818D01*
X128655278Y-112220000D01*
X128637274Y-112071718D01*
X128636237Y-112063181D01*
X128614992Y-112007164D01*
X128580220Y-111915477D01*
X128569612Y-111900109D01*
X132375191Y-111900109D01*
X132375191Y-111900112D01*
X132395828Y-112056871D01*
X132395829Y-112056873D01*
X132456337Y-112202952D01*
X132552591Y-112328393D01*
X132678032Y-112424647D01*
X132824111Y-112485155D01*
X132902492Y-112495474D01*
X132980872Y-112505793D01*
X132980873Y-112505793D01*
X132980874Y-112505793D01*
X133024887Y-112499998D01*
X143644318Y-112499998D01*
X143644318Y-112500001D01*
X143664955Y-112656760D01*
X143664956Y-112656762D01*
X143721933Y-112794318D01*
X143725464Y-112802841D01*
X143821718Y-112928282D01*
X143947159Y-113024536D01*
X144093238Y-113085044D01*
X144171619Y-113095363D01*
X144249999Y-113105682D01*
X144250000Y-113105682D01*
X144250001Y-113105682D01*
X144314739Y-113097159D01*
X144406762Y-113085044D01*
X144552841Y-113024536D01*
X144678282Y-112928282D01*
X144774536Y-112802841D01*
X144835044Y-112656762D01*
X144855682Y-112500000D01*
X144853727Y-112485154D01*
X144835044Y-112343239D01*
X144835044Y-112343238D01*
X144774536Y-112197159D01*
X144678282Y-112071718D01*
X144552841Y-111975464D01*
X144406762Y-111914956D01*
X144406760Y-111914955D01*
X144250001Y-111894318D01*
X144249999Y-111894318D01*
X144093239Y-111914955D01*
X144093237Y-111914956D01*
X143947160Y-111975463D01*
X143821718Y-112071718D01*
X143725463Y-112197160D01*
X143664956Y-112343237D01*
X143664955Y-112343239D01*
X143644318Y-112499998D01*
X133024887Y-112499998D01*
X133033127Y-112498913D01*
X133137635Y-112485155D01*
X133283714Y-112424647D01*
X133409155Y-112328393D01*
X133505409Y-112202952D01*
X133565917Y-112056873D01*
X133586555Y-111900111D01*
X133585792Y-111894318D01*
X133565917Y-111743350D01*
X133565917Y-111743349D01*
X133505409Y-111597270D01*
X133430771Y-111499999D01*
X134344722Y-111499999D01*
X134344722Y-111500000D01*
X134363762Y-111656818D01*
X134417128Y-111797531D01*
X134419780Y-111804523D01*
X134509517Y-111934530D01*
X134627760Y-112039283D01*
X134627762Y-112039284D01*
X134767634Y-112112696D01*
X134921014Y-112150500D01*
X134921015Y-112150500D01*
X135078985Y-112150500D01*
X135232365Y-112112696D01*
X135372240Y-112039283D01*
X135490483Y-111934530D01*
X135580220Y-111804523D01*
X135636237Y-111656818D01*
X135655278Y-111500000D01*
X135651858Y-111471829D01*
X135636237Y-111343181D01*
X135614992Y-111287164D01*
X135580220Y-111195477D01*
X135490483Y-111065470D01*
X135372240Y-110960717D01*
X135372238Y-110960716D01*
X135372237Y-110960715D01*
X135232365Y-110887303D01*
X135078986Y-110849500D01*
X135078985Y-110849500D01*
X134921015Y-110849500D01*
X134921014Y-110849500D01*
X134767634Y-110887303D01*
X134627762Y-110960715D01*
X134509516Y-111065471D01*
X134419781Y-111195475D01*
X134419780Y-111195476D01*
X134363762Y-111343181D01*
X134344722Y-111499999D01*
X133430771Y-111499999D01*
X133409155Y-111471829D01*
X133283714Y-111375575D01*
X133257155Y-111364574D01*
X133137635Y-111315067D01*
X133137633Y-111315066D01*
X132980874Y-111294429D01*
X132980872Y-111294429D01*
X132824112Y-111315066D01*
X132824110Y-111315067D01*
X132678033Y-111375574D01*
X132552591Y-111471829D01*
X132456336Y-111597271D01*
X132395829Y-111743348D01*
X132395828Y-111743350D01*
X132375191Y-111900109D01*
X128569612Y-111900109D01*
X128490483Y-111785470D01*
X128372240Y-111680717D01*
X128372238Y-111680716D01*
X128372237Y-111680715D01*
X128232365Y-111607303D01*
X128078986Y-111569500D01*
X128078985Y-111569500D01*
X127921015Y-111569500D01*
X127921014Y-111569500D01*
X127767634Y-111607303D01*
X127627762Y-111680715D01*
X127509516Y-111785471D01*
X127419781Y-111915475D01*
X127419780Y-111915476D01*
X127363762Y-112063181D01*
X127344722Y-112219999D01*
X112250500Y-112219999D01*
X112250500Y-108749998D01*
X127644318Y-108749998D01*
X127644318Y-108750001D01*
X127664955Y-108906760D01*
X127664956Y-108906762D01*
X127709365Y-109013976D01*
X127725464Y-109052841D01*
X127821718Y-109178282D01*
X127947159Y-109274536D01*
X128093238Y-109335044D01*
X128171619Y-109345363D01*
X128249999Y-109355682D01*
X128250000Y-109355682D01*
X128250001Y-109355682D01*
X128302254Y-109348802D01*
X128406762Y-109335044D01*
X128552841Y-109274536D01*
X128678282Y-109178282D01*
X128774536Y-109052841D01*
X128835044Y-108906762D01*
X128855682Y-108750000D01*
X128846037Y-108676742D01*
X128835044Y-108593239D01*
X128835044Y-108593238D01*
X128774536Y-108447159D01*
X128678282Y-108321718D01*
X128552841Y-108225464D01*
X128406762Y-108164956D01*
X128406760Y-108164955D01*
X128250001Y-108144318D01*
X128249999Y-108144318D01*
X128093239Y-108164955D01*
X128093237Y-108164956D01*
X127947160Y-108225463D01*
X127821718Y-108321718D01*
X127725463Y-108447160D01*
X127664956Y-108593237D01*
X127664955Y-108593239D01*
X127644318Y-108749998D01*
X112250500Y-108749998D01*
X112250500Y-108091697D01*
X143971859Y-108091697D01*
X143971859Y-108091700D01*
X143992496Y-108248459D01*
X143992497Y-108248461D01*
X144053005Y-108394540D01*
X144149259Y-108519981D01*
X144274700Y-108616235D01*
X144420779Y-108676743D01*
X144499160Y-108687062D01*
X144577540Y-108697381D01*
X144577541Y-108697381D01*
X144577542Y-108697381D01*
X144629795Y-108690501D01*
X144734303Y-108676743D01*
X144880382Y-108616235D01*
X145005823Y-108519981D01*
X145102077Y-108394540D01*
X145162585Y-108248461D01*
X145183223Y-108091699D01*
X145177030Y-108044662D01*
X145162585Y-107934938D01*
X145162585Y-107934937D01*
X145146229Y-107895452D01*
X145138761Y-107825985D01*
X145170036Y-107763506D01*
X145185301Y-107749628D01*
X145278282Y-107678282D01*
X145374536Y-107552841D01*
X145435044Y-107406762D01*
X145455682Y-107250000D01*
X145449940Y-107206388D01*
X145435044Y-107093239D01*
X145435044Y-107093238D01*
X145374536Y-106947159D01*
X145278282Y-106821718D01*
X145152841Y-106725464D01*
X145006762Y-106664956D01*
X145006760Y-106664955D01*
X144850001Y-106644318D01*
X144849999Y-106644318D01*
X144693239Y-106664955D01*
X144693237Y-106664956D01*
X144547160Y-106725463D01*
X144421718Y-106821718D01*
X144325463Y-106947160D01*
X144264956Y-107093237D01*
X144264955Y-107093239D01*
X144244318Y-107249998D01*
X144244318Y-107250001D01*
X144264955Y-107406760D01*
X144264957Y-107406765D01*
X144281310Y-107446245D01*
X144288779Y-107515714D01*
X144257503Y-107578193D01*
X144242236Y-107592072D01*
X144149261Y-107663414D01*
X144053004Y-107788859D01*
X143992497Y-107934936D01*
X143992496Y-107934938D01*
X143971859Y-108091697D01*
X112250500Y-108091697D01*
X112250500Y-107459617D01*
X133934699Y-107459617D01*
X133934699Y-107459620D01*
X133955336Y-107616379D01*
X133955337Y-107616381D01*
X134010528Y-107749625D01*
X134015845Y-107762460D01*
X134112099Y-107887901D01*
X134237540Y-107984155D01*
X134383619Y-108044663D01*
X134462000Y-108054982D01*
X134540380Y-108065301D01*
X134540381Y-108065301D01*
X134540382Y-108065301D01*
X134592635Y-108058421D01*
X134697143Y-108044663D01*
X134843222Y-107984155D01*
X134968663Y-107887901D01*
X135064917Y-107762460D01*
X135125425Y-107616381D01*
X135146063Y-107459619D01*
X135144302Y-107446245D01*
X135125425Y-107302858D01*
X135125425Y-107302857D01*
X135064917Y-107156778D01*
X134968663Y-107031337D01*
X134843222Y-106935083D01*
X134841882Y-106934528D01*
X134697143Y-106874575D01*
X134697141Y-106874574D01*
X134540382Y-106853937D01*
X134540380Y-106853937D01*
X134383620Y-106874574D01*
X134383618Y-106874575D01*
X134237541Y-106935082D01*
X134112099Y-107031337D01*
X134015844Y-107156779D01*
X133955337Y-107302856D01*
X133955336Y-107302858D01*
X133934699Y-107459617D01*
X112250500Y-107459617D01*
X112250500Y-102909448D01*
X117449500Y-102909448D01*
X117449500Y-103090551D01*
X117477829Y-103269410D01*
X117533787Y-103441636D01*
X117533788Y-103441639D01*
X117616006Y-103602997D01*
X117722441Y-103749494D01*
X117722445Y-103749499D01*
X117850500Y-103877554D01*
X117850505Y-103877558D01*
X117898868Y-103912695D01*
X117997006Y-103983996D01*
X118102484Y-104037740D01*
X118158360Y-104066211D01*
X118158363Y-104066212D01*
X118285649Y-104107569D01*
X118343324Y-104147006D01*
X118370523Y-104211364D01*
X118358609Y-104280211D01*
X118311365Y-104331687D01*
X118247331Y-104349500D01*
X117956898Y-104349500D01*
X117917853Y-104354188D01*
X117868438Y-104360122D01*
X117727656Y-104415639D01*
X117607077Y-104507077D01*
X117515639Y-104627656D01*
X117460122Y-104768438D01*
X117454188Y-104817853D01*
X117449500Y-104856898D01*
X117449500Y-106143102D01*
X117450588Y-106152159D01*
X117460122Y-106231561D01*
X117460122Y-106231563D01*
X117460123Y-106231564D01*
X117477722Y-106276192D01*
X117515639Y-106372343D01*
X117607077Y-106492922D01*
X117727656Y-106584360D01*
X117727657Y-106584360D01*
X117727658Y-106584361D01*
X117868436Y-106639877D01*
X117956898Y-106650500D01*
X117956903Y-106650500D01*
X119543097Y-106650500D01*
X119543102Y-106650500D01*
X119631564Y-106639877D01*
X119772342Y-106584361D01*
X119892922Y-106492922D01*
X119921681Y-106454998D01*
X135020080Y-106454998D01*
X135020080Y-106455001D01*
X135040717Y-106611760D01*
X135040718Y-106611762D01*
X135095926Y-106745047D01*
X135101226Y-106757841D01*
X135197480Y-106883282D01*
X135322921Y-106979536D01*
X135469000Y-107040044D01*
X135541350Y-107049569D01*
X135625761Y-107060682D01*
X135625762Y-107060682D01*
X135625763Y-107060682D01*
X135710166Y-107049570D01*
X135782524Y-107040044D01*
X135928603Y-106979536D01*
X136054044Y-106883282D01*
X136076374Y-106854180D01*
X136132798Y-106812980D01*
X136202544Y-106808824D01*
X136263465Y-106843035D01*
X136296219Y-106904752D01*
X136297844Y-106944614D01*
X136285101Y-107049569D01*
X136285101Y-107049570D01*
X136304141Y-107206388D01*
X136340728Y-107302858D01*
X136360159Y-107354093D01*
X136449896Y-107484100D01*
X136568139Y-107588853D01*
X136568141Y-107588854D01*
X136708013Y-107662266D01*
X136861393Y-107700070D01*
X136861394Y-107700070D01*
X137019364Y-107700070D01*
X137172744Y-107662266D01*
X137260173Y-107616379D01*
X137312619Y-107588853D01*
X137430862Y-107484100D01*
X137520599Y-107354093D01*
X137576616Y-107206388D01*
X137595657Y-107049570D01*
X137587154Y-106979536D01*
X137576616Y-106892751D01*
X137549676Y-106821718D01*
X137520599Y-106745047D01*
X137430862Y-106615040D01*
X137312619Y-106510287D01*
X137312617Y-106510286D01*
X137312616Y-106510285D01*
X137172744Y-106436873D01*
X137019365Y-106399070D01*
X137019364Y-106399070D01*
X136861394Y-106399070D01*
X136861393Y-106399070D01*
X136708013Y-106436873D01*
X136568141Y-106510285D01*
X136449893Y-106615042D01*
X136446027Y-106620644D01*
X136391743Y-106664632D01*
X136322294Y-106672289D01*
X136259730Y-106641183D01*
X136223915Y-106581191D01*
X136221041Y-106534017D01*
X136231444Y-106455000D01*
X136210806Y-106298238D01*
X136150298Y-106152159D01*
X136064526Y-106040379D01*
X137684697Y-106040379D01*
X137684697Y-106040382D01*
X137705334Y-106197141D01*
X137705335Y-106197143D01*
X137747209Y-106298237D01*
X137765843Y-106343222D01*
X137862097Y-106468663D01*
X137987538Y-106564917D01*
X138133617Y-106625425D01*
X138211998Y-106635744D01*
X138290378Y-106646063D01*
X138290379Y-106646063D01*
X138290380Y-106646063D01*
X138342633Y-106639183D01*
X138447141Y-106625425D01*
X138593220Y-106564917D01*
X138677823Y-106499999D01*
X142594722Y-106499999D01*
X142594722Y-106500000D01*
X142613762Y-106656818D01*
X142652075Y-106757839D01*
X142669780Y-106804523D01*
X142759517Y-106934530D01*
X142877760Y-107039283D01*
X142877762Y-107039284D01*
X143017634Y-107112696D01*
X143171014Y-107150500D01*
X143171015Y-107150500D01*
X143328985Y-107150500D01*
X143482365Y-107112696D01*
X143622240Y-107039283D01*
X143740483Y-106934530D01*
X143830220Y-106804523D01*
X143886237Y-106656818D01*
X143905278Y-106500000D01*
X143903335Y-106483993D01*
X143886237Y-106343181D01*
X143864992Y-106287164D01*
X143830220Y-106195477D01*
X143740483Y-106065470D01*
X143622240Y-105960717D01*
X143622238Y-105960716D01*
X143622237Y-105960715D01*
X143482365Y-105887303D01*
X143328986Y-105849500D01*
X143328985Y-105849500D01*
X143171015Y-105849500D01*
X143171014Y-105849500D01*
X143017634Y-105887303D01*
X142877762Y-105960715D01*
X142759516Y-106065471D01*
X142669781Y-106195475D01*
X142669780Y-106195476D01*
X142613762Y-106343181D01*
X142594722Y-106499999D01*
X138677823Y-106499999D01*
X138718661Y-106468663D01*
X138814915Y-106343222D01*
X138875423Y-106197143D01*
X138896061Y-106040381D01*
X138875423Y-105883619D01*
X138814915Y-105737540D01*
X138718661Y-105612099D01*
X138593220Y-105515845D01*
X138447141Y-105455337D01*
X138447139Y-105455336D01*
X138290380Y-105434699D01*
X138290378Y-105434699D01*
X138133618Y-105455336D01*
X138133616Y-105455337D01*
X137987539Y-105515844D01*
X137862097Y-105612099D01*
X137765842Y-105737541D01*
X137705335Y-105883618D01*
X137705334Y-105883620D01*
X137684697Y-106040379D01*
X136064526Y-106040379D01*
X136054044Y-106026718D01*
X135928603Y-105930464D01*
X135782524Y-105869956D01*
X135782522Y-105869955D01*
X135625763Y-105849318D01*
X135625761Y-105849318D01*
X135469001Y-105869955D01*
X135468999Y-105869956D01*
X135322922Y-105930463D01*
X135197480Y-106026718D01*
X135101225Y-106152160D01*
X135040718Y-106298237D01*
X135040717Y-106298239D01*
X135020080Y-106454998D01*
X119921681Y-106454998D01*
X119984361Y-106372342D01*
X120039877Y-106231564D01*
X120050500Y-106143102D01*
X120050500Y-105029323D01*
X139825528Y-105029323D01*
X139825528Y-105029324D01*
X139844568Y-105186142D01*
X139861425Y-105230589D01*
X139900586Y-105333847D01*
X139990323Y-105463854D01*
X140108566Y-105568607D01*
X140108568Y-105568608D01*
X140248440Y-105642020D01*
X140401820Y-105679824D01*
X140401821Y-105679824D01*
X140559791Y-105679824D01*
X140713171Y-105642020D01*
X140770180Y-105612099D01*
X140853046Y-105568607D01*
X140971289Y-105463854D01*
X141061026Y-105333847D01*
X141117043Y-105186142D01*
X141120070Y-105161208D01*
X141147690Y-105097031D01*
X141205623Y-105057973D01*
X141213467Y-105055762D01*
X141362660Y-105018991D01*
X141502535Y-104945578D01*
X141620778Y-104840825D01*
X141710515Y-104710818D01*
X141766532Y-104563113D01*
X141785573Y-104406295D01*
X141782364Y-104379862D01*
X141766532Y-104249476D01*
X141745287Y-104193459D01*
X141710515Y-104101772D01*
X141620778Y-103971765D01*
X141502535Y-103867012D01*
X141502533Y-103867011D01*
X141502532Y-103867010D01*
X141362660Y-103793598D01*
X141209281Y-103755795D01*
X141209280Y-103755795D01*
X141051310Y-103755795D01*
X141051309Y-103755795D01*
X140897929Y-103793598D01*
X140758057Y-103867010D01*
X140639811Y-103971766D01*
X140550076Y-104101770D01*
X140550075Y-104101771D01*
X140494058Y-104249475D01*
X140491030Y-104274413D01*
X140463407Y-104338591D01*
X140405473Y-104377646D01*
X140397609Y-104379862D01*
X140248439Y-104416628D01*
X140108568Y-104490039D01*
X139990322Y-104594795D01*
X139900587Y-104724799D01*
X139900586Y-104724800D01*
X139844568Y-104872505D01*
X139825528Y-105029323D01*
X120050500Y-105029323D01*
X120050500Y-104856898D01*
X120039877Y-104768436D01*
X119984361Y-104627658D01*
X119984360Y-104627657D01*
X119984360Y-104627656D01*
X119892922Y-104507077D01*
X119772343Y-104415639D01*
X119631561Y-104360122D01*
X119585926Y-104354642D01*
X119543102Y-104349500D01*
X119252669Y-104349500D01*
X119185630Y-104329815D01*
X119139875Y-104277011D01*
X119129931Y-104207853D01*
X119158956Y-104144297D01*
X119214351Y-104107569D01*
X119341636Y-104066212D01*
X119341639Y-104066211D01*
X119502994Y-103983996D01*
X119649501Y-103877553D01*
X119777553Y-103749501D01*
X119883996Y-103602994D01*
X119966211Y-103441639D01*
X120012232Y-103299998D01*
X143884671Y-103299998D01*
X143884671Y-103299999D01*
X143903711Y-103456817D01*
X143959151Y-103602997D01*
X143959729Y-103604522D01*
X144049466Y-103734529D01*
X144167709Y-103839282D01*
X144167711Y-103839283D01*
X144307583Y-103912695D01*
X144460963Y-103950499D01*
X144460964Y-103950499D01*
X144618934Y-103950499D01*
X144772314Y-103912695D01*
X144839261Y-103877558D01*
X144912189Y-103839282D01*
X145030432Y-103734529D01*
X145120169Y-103604522D01*
X145176186Y-103456817D01*
X145195227Y-103299999D01*
X145176186Y-103143181D01*
X145120169Y-102995476D01*
X145030432Y-102865469D01*
X144912189Y-102760716D01*
X144903907Y-102756369D01*
X144853695Y-102707786D01*
X144837720Y-102639767D01*
X144861054Y-102573909D01*
X144914080Y-102532012D01*
X145052841Y-102474536D01*
X145178282Y-102378282D01*
X145194690Y-102356898D01*
X147917000Y-102356898D01*
X147917000Y-103643102D01*
X147922626Y-103689954D01*
X147927622Y-103731561D01*
X147927622Y-103731563D01*
X147927623Y-103731564D01*
X147937179Y-103755795D01*
X147983139Y-103872343D01*
X148074577Y-103992922D01*
X148195156Y-104084360D01*
X148195157Y-104084360D01*
X148195158Y-104084361D01*
X148335936Y-104139877D01*
X148424398Y-104150500D01*
X148424403Y-104150500D01*
X148714831Y-104150500D01*
X148781870Y-104170185D01*
X148827625Y-104222989D01*
X148837569Y-104292147D01*
X148808544Y-104355703D01*
X148753149Y-104392431D01*
X148625863Y-104433787D01*
X148625860Y-104433788D01*
X148464502Y-104516006D01*
X148318005Y-104622441D01*
X148318000Y-104622445D01*
X148189945Y-104750500D01*
X148189941Y-104750505D01*
X148083506Y-104897002D01*
X148001288Y-105058360D01*
X148001287Y-105058363D01*
X147945329Y-105230589D01*
X147917000Y-105409448D01*
X147917000Y-105590551D01*
X147945329Y-105769410D01*
X148001287Y-105941636D01*
X148001288Y-105941639D01*
X148044639Y-106026718D01*
X148064384Y-106065470D01*
X148083506Y-106102997D01*
X148189941Y-106249494D01*
X148189945Y-106249499D01*
X148318000Y-106377554D01*
X148318005Y-106377558D01*
X148443400Y-106468662D01*
X148464506Y-106483996D01*
X148562671Y-106534014D01*
X148625860Y-106566211D01*
X148625863Y-106566212D01*
X148711976Y-106594191D01*
X148798091Y-106622171D01*
X148880929Y-106635291D01*
X148976949Y-106650500D01*
X148976954Y-106650500D01*
X149458051Y-106650500D01*
X149544759Y-106636765D01*
X149636909Y-106622171D01*
X149809139Y-106566211D01*
X149970494Y-106483996D01*
X150117001Y-106377553D01*
X150245053Y-106249501D01*
X150351496Y-106102994D01*
X150433711Y-105941639D01*
X150489671Y-105769409D01*
X150504265Y-105677259D01*
X150518000Y-105590551D01*
X150518000Y-105409448D01*
X150501519Y-105305397D01*
X150489671Y-105230591D01*
X150461691Y-105144476D01*
X150433712Y-105058363D01*
X150433711Y-105058360D01*
X150376245Y-104945579D01*
X150351496Y-104897006D01*
X150322356Y-104856898D01*
X150245058Y-104750505D01*
X150245054Y-104750500D01*
X150116999Y-104622445D01*
X150116994Y-104622441D01*
X149970497Y-104516006D01*
X149970496Y-104516005D01*
X149970494Y-104516004D01*
X149918800Y-104489664D01*
X149809139Y-104433788D01*
X149809136Y-104433787D01*
X149681851Y-104392431D01*
X149624176Y-104352994D01*
X149596977Y-104288636D01*
X149608891Y-104219789D01*
X149656135Y-104168313D01*
X149720169Y-104150500D01*
X150010597Y-104150500D01*
X150010602Y-104150500D01*
X150099064Y-104139877D01*
X150239842Y-104084361D01*
X150360422Y-103992922D01*
X150451861Y-103872342D01*
X150507377Y-103731564D01*
X150518000Y-103643102D01*
X150518000Y-102356898D01*
X150507377Y-102268436D01*
X150451861Y-102127658D01*
X150451860Y-102127657D01*
X150451860Y-102127656D01*
X150360422Y-102007077D01*
X150239843Y-101915639D01*
X150099061Y-101860122D01*
X150053426Y-101854642D01*
X150010602Y-101849500D01*
X148424398Y-101849500D01*
X148385353Y-101854188D01*
X148335938Y-101860122D01*
X148195156Y-101915639D01*
X148074577Y-102007077D01*
X147983139Y-102127656D01*
X147927622Y-102268438D01*
X147921688Y-102317853D01*
X147917000Y-102356898D01*
X145194690Y-102356898D01*
X145274536Y-102252841D01*
X145335044Y-102106762D01*
X145355682Y-101950000D01*
X145335044Y-101793238D01*
X145274536Y-101647159D01*
X145178282Y-101521718D01*
X145052841Y-101425464D01*
X145041424Y-101420735D01*
X144906762Y-101364956D01*
X144906760Y-101364955D01*
X144750001Y-101344318D01*
X144749999Y-101344318D01*
X144593239Y-101364955D01*
X144593237Y-101364956D01*
X144447160Y-101425463D01*
X144321718Y-101521718D01*
X144225463Y-101647160D01*
X144164956Y-101793237D01*
X144164955Y-101793239D01*
X144144318Y-101949998D01*
X144144318Y-101950001D01*
X144164955Y-102106760D01*
X144164956Y-102106762D01*
X144225464Y-102252841D01*
X144321718Y-102378282D01*
X144418439Y-102452498D01*
X144459641Y-102508926D01*
X144463796Y-102578672D01*
X144429583Y-102639593D01*
X144372628Y-102671271D01*
X144307581Y-102687303D01*
X144167711Y-102760714D01*
X144049465Y-102865470D01*
X143959730Y-102995474D01*
X143959729Y-102995475D01*
X143903711Y-103143180D01*
X143884671Y-103299998D01*
X120012232Y-103299998D01*
X120022171Y-103269409D01*
X120036765Y-103177259D01*
X120050500Y-103090551D01*
X120050500Y-102909448D01*
X120026254Y-102756370D01*
X120022171Y-102730591D01*
X119992604Y-102639593D01*
X119966212Y-102558363D01*
X119966211Y-102558360D01*
X119923500Y-102474536D01*
X119883996Y-102397006D01*
X119854856Y-102356898D01*
X119777558Y-102250505D01*
X119777554Y-102250500D01*
X119649499Y-102122445D01*
X119649494Y-102122441D01*
X119502997Y-102016006D01*
X119502996Y-102016005D01*
X119502994Y-102016004D01*
X119451300Y-101989664D01*
X119341639Y-101933788D01*
X119341636Y-101933787D01*
X119169410Y-101877829D01*
X118990551Y-101849500D01*
X118990546Y-101849500D01*
X118509454Y-101849500D01*
X118509449Y-101849500D01*
X118330589Y-101877829D01*
X118158363Y-101933787D01*
X118158360Y-101933788D01*
X117997002Y-102016006D01*
X117850505Y-102122441D01*
X117850500Y-102122445D01*
X117722445Y-102250500D01*
X117722441Y-102250505D01*
X117616006Y-102397002D01*
X117533788Y-102558360D01*
X117533787Y-102558363D01*
X117477829Y-102730589D01*
X117449500Y-102909448D01*
X112250500Y-102909448D01*
X112250500Y-101449998D01*
X138644318Y-101449998D01*
X138644318Y-101450001D01*
X138664955Y-101606760D01*
X138664956Y-101606762D01*
X138725464Y-101752841D01*
X138821718Y-101878282D01*
X138947159Y-101974536D01*
X139093238Y-102035044D01*
X139171619Y-102045363D01*
X139249999Y-102055682D01*
X139250000Y-102055682D01*
X139250001Y-102055682D01*
X139302254Y-102048802D01*
X139406762Y-102035044D01*
X139552841Y-101974536D01*
X139678282Y-101878282D01*
X139774536Y-101752841D01*
X139835044Y-101606762D01*
X139855682Y-101450000D01*
X139835044Y-101293238D01*
X139774536Y-101147159D01*
X139678282Y-101021718D01*
X139552841Y-100925464D01*
X139406762Y-100864956D01*
X139406760Y-100864955D01*
X139250001Y-100844318D01*
X139249999Y-100844318D01*
X139093239Y-100864955D01*
X139093237Y-100864956D01*
X138947160Y-100925463D01*
X138821718Y-101021718D01*
X138725463Y-101147160D01*
X138664956Y-101293237D01*
X138664955Y-101293239D01*
X138644318Y-101449998D01*
X112250500Y-101449998D01*
X112250500Y-100749999D01*
X126594722Y-100749999D01*
X126594722Y-100750000D01*
X126613762Y-100906818D01*
X126620834Y-100925464D01*
X126669780Y-101054523D01*
X126759517Y-101184530D01*
X126877760Y-101289283D01*
X126877762Y-101289284D01*
X127017634Y-101362696D01*
X127171014Y-101400500D01*
X127171015Y-101400500D01*
X127328985Y-101400500D01*
X127482365Y-101362696D01*
X127530211Y-101337584D01*
X127622240Y-101289283D01*
X127740483Y-101184530D01*
X127830220Y-101054523D01*
X127886237Y-100906818D01*
X127894874Y-100835689D01*
X136044318Y-100835689D01*
X136044318Y-100835692D01*
X136064955Y-100992451D01*
X136064956Y-100992453D01*
X136103235Y-101084868D01*
X136125464Y-101138532D01*
X136221718Y-101263973D01*
X136347159Y-101360227D01*
X136493238Y-101420735D01*
X136529151Y-101425463D01*
X136649999Y-101441373D01*
X136650000Y-101441373D01*
X136650001Y-101441373D01*
X136702254Y-101434493D01*
X136806762Y-101420735D01*
X136952841Y-101360227D01*
X137078282Y-101263973D01*
X137174536Y-101138532D01*
X137235044Y-100992453D01*
X137255682Y-100835691D01*
X137249572Y-100789284D01*
X137235044Y-100678930D01*
X137235044Y-100678929D01*
X137174536Y-100532850D01*
X137078282Y-100407409D01*
X136952841Y-100311155D01*
X136806762Y-100250647D01*
X136806760Y-100250646D01*
X136650001Y-100230009D01*
X136649999Y-100230009D01*
X136493239Y-100250646D01*
X136493237Y-100250647D01*
X136347160Y-100311154D01*
X136221718Y-100407409D01*
X136125463Y-100532851D01*
X136064956Y-100678928D01*
X136064955Y-100678930D01*
X136044318Y-100835689D01*
X127894874Y-100835689D01*
X127905278Y-100750000D01*
X127896649Y-100678929D01*
X127886237Y-100593181D01*
X127864992Y-100537164D01*
X127830220Y-100445477D01*
X127740483Y-100315470D01*
X127622240Y-100210717D01*
X127622238Y-100210716D01*
X127622237Y-100210715D01*
X127482365Y-100137303D01*
X127328986Y-100099500D01*
X127328985Y-100099500D01*
X127171015Y-100099500D01*
X127171014Y-100099500D01*
X127017634Y-100137303D01*
X126877762Y-100210715D01*
X126759516Y-100315471D01*
X126669781Y-100445475D01*
X126669780Y-100445476D01*
X126613762Y-100593181D01*
X126594722Y-100749999D01*
X112250500Y-100749999D01*
X112250500Y-99749998D01*
X133894318Y-99749998D01*
X133894318Y-99750001D01*
X133914955Y-99906760D01*
X133914956Y-99906762D01*
X133975464Y-100052841D01*
X134071718Y-100178282D01*
X134197159Y-100274536D01*
X134343238Y-100335044D01*
X134421619Y-100345363D01*
X134499999Y-100355682D01*
X134500000Y-100355682D01*
X134500001Y-100355682D01*
X134552254Y-100348802D01*
X134656762Y-100335044D01*
X134802841Y-100274536D01*
X134928282Y-100178282D01*
X135024536Y-100052841D01*
X135085044Y-99906762D01*
X135105682Y-99750000D01*
X135102586Y-99726487D01*
X135085044Y-99593239D01*
X135085044Y-99593238D01*
X135024536Y-99447159D01*
X134928282Y-99321718D01*
X134802841Y-99225464D01*
X134789203Y-99219815D01*
X134656762Y-99164956D01*
X134656760Y-99164955D01*
X134500001Y-99144318D01*
X134499999Y-99144318D01*
X134343239Y-99164955D01*
X134343237Y-99164956D01*
X134197160Y-99225463D01*
X134071718Y-99321718D01*
X133975463Y-99447160D01*
X133914956Y-99593237D01*
X133914955Y-99593239D01*
X133894318Y-99749998D01*
X112250500Y-99749998D01*
X112250500Y-98999999D01*
X128344082Y-98999999D01*
X128344082Y-99000000D01*
X128363122Y-99156818D01*
X128419140Y-99304523D01*
X128508877Y-99434530D01*
X128627120Y-99539283D01*
X128627122Y-99539284D01*
X128766994Y-99612696D01*
X128920374Y-99650500D01*
X128920375Y-99650500D01*
X129078345Y-99650500D01*
X129231725Y-99612696D01*
X129371600Y-99539283D01*
X129489843Y-99434530D01*
X129579580Y-99304523D01*
X129635597Y-99156818D01*
X129654638Y-99000000D01*
X129635597Y-98843182D01*
X129579580Y-98695477D01*
X129489843Y-98565470D01*
X129371600Y-98460717D01*
X129371598Y-98460716D01*
X129371597Y-98460715D01*
X129231725Y-98387303D01*
X129078346Y-98349500D01*
X129078345Y-98349500D01*
X128920375Y-98349500D01*
X128920374Y-98349500D01*
X128766994Y-98387303D01*
X128627122Y-98460715D01*
X128508876Y-98565471D01*
X128419141Y-98695475D01*
X128419140Y-98695476D01*
X128363122Y-98843181D01*
X128344082Y-98999999D01*
X112250500Y-98999999D01*
X112250500Y-98047054D01*
X129744723Y-98047054D01*
X129744723Y-98047055D01*
X129763763Y-98203873D01*
X129818993Y-98349500D01*
X129819781Y-98351578D01*
X129909518Y-98481585D01*
X130027761Y-98586338D01*
X130167636Y-98659751D01*
X130174278Y-98663237D01*
X130173499Y-98664720D01*
X130221935Y-98701390D01*
X130245997Y-98766986D01*
X130245363Y-98790106D01*
X130244722Y-98795385D01*
X130244722Y-98795388D01*
X130263762Y-98952206D01*
X130319780Y-99099911D01*
X130409517Y-99229918D01*
X130527760Y-99334671D01*
X130527762Y-99334672D01*
X130667634Y-99408084D01*
X130821014Y-99445888D01*
X130821015Y-99445888D01*
X130978985Y-99445888D01*
X131132365Y-99408084D01*
X131210197Y-99367234D01*
X131272240Y-99334671D01*
X131390483Y-99229918D01*
X131480220Y-99099911D01*
X131518112Y-98999999D01*
X135594722Y-98999999D01*
X135594722Y-99000000D01*
X135613762Y-99156818D01*
X135669780Y-99304523D01*
X135759517Y-99434530D01*
X135877760Y-99539283D01*
X135877762Y-99539284D01*
X136017634Y-99612696D01*
X136171014Y-99650500D01*
X136171015Y-99650500D01*
X136328985Y-99650500D01*
X136482365Y-99612696D01*
X136622240Y-99539283D01*
X136740483Y-99434530D01*
X136830220Y-99304523D01*
X136886237Y-99156818D01*
X136905278Y-99000000D01*
X136886237Y-98843182D01*
X136830220Y-98695477D01*
X136740483Y-98565470D01*
X136622240Y-98460717D01*
X136622238Y-98460716D01*
X136622237Y-98460715D01*
X136482365Y-98387303D01*
X136328986Y-98349500D01*
X136328985Y-98349500D01*
X136171015Y-98349500D01*
X136171014Y-98349500D01*
X136017634Y-98387303D01*
X135877762Y-98460715D01*
X135759516Y-98565471D01*
X135669781Y-98695475D01*
X135669780Y-98695476D01*
X135613762Y-98843181D01*
X135594722Y-98999999D01*
X131518112Y-98999999D01*
X131536237Y-98952206D01*
X131555278Y-98795388D01*
X131551830Y-98766986D01*
X131536237Y-98638569D01*
X131508514Y-98565470D01*
X131480220Y-98490865D01*
X131390483Y-98360858D01*
X131272240Y-98256105D01*
X131272238Y-98256104D01*
X131272237Y-98256103D01*
X131125724Y-98179206D01*
X131126501Y-98177724D01*
X131078059Y-98141042D01*
X131054003Y-98075444D01*
X131054638Y-98052333D01*
X131055279Y-98047055D01*
X131036238Y-97890237D01*
X130983053Y-97749999D01*
X140495225Y-97749999D01*
X140495225Y-97750000D01*
X140514287Y-97967884D01*
X140514289Y-97967894D01*
X140570894Y-98179150D01*
X140570898Y-98179159D01*
X140663333Y-98377387D01*
X140706874Y-98439571D01*
X141267037Y-97879408D01*
X141284075Y-97942993D01*
X141349901Y-98057007D01*
X141442993Y-98150099D01*
X141557007Y-98215925D01*
X141620590Y-98232962D01*
X141060427Y-98793124D01*
X141122612Y-98836666D01*
X141320840Y-98929101D01*
X141320849Y-98929105D01*
X141532105Y-98985710D01*
X141532115Y-98985712D01*
X141603669Y-98991972D01*
X141668738Y-99017424D01*
X141709716Y-99074015D01*
X141713595Y-99143777D01*
X141679142Y-99204561D01*
X141617295Y-99237069D01*
X141592862Y-99239500D01*
X140955143Y-99239500D01*
X140955117Y-99239502D01*
X140930012Y-99242413D01*
X140930008Y-99242415D01*
X140827235Y-99287793D01*
X140747794Y-99367234D01*
X140702415Y-99470006D01*
X140702415Y-99470008D01*
X140699500Y-99495131D01*
X140699500Y-101084856D01*
X140699502Y-101084882D01*
X140702413Y-101109987D01*
X140702415Y-101109991D01*
X140747793Y-101212764D01*
X140747794Y-101212765D01*
X140827235Y-101292206D01*
X140930009Y-101337585D01*
X140955135Y-101340500D01*
X142544864Y-101340499D01*
X142544879Y-101340497D01*
X142544882Y-101340497D01*
X142569987Y-101337586D01*
X142569988Y-101337585D01*
X142569991Y-101337585D01*
X142672765Y-101292206D01*
X142752206Y-101212765D01*
X142797585Y-101109991D01*
X142800500Y-101084865D01*
X142800499Y-100774870D01*
X142820183Y-100707834D01*
X142872987Y-100662079D01*
X142942146Y-100652135D01*
X143005701Y-100681160D01*
X143006726Y-100682057D01*
X143009516Y-100684528D01*
X143009517Y-100684530D01*
X143127760Y-100789283D01*
X143127762Y-100789284D01*
X143267634Y-100862696D01*
X143421014Y-100900500D01*
X143421015Y-100900500D01*
X143578985Y-100900500D01*
X143732365Y-100862696D01*
X143783818Y-100835691D01*
X143872240Y-100789283D01*
X143990483Y-100684530D01*
X144080220Y-100554523D01*
X144136237Y-100406818D01*
X144155278Y-100250000D01*
X144136237Y-100093182D01*
X144080220Y-99945477D01*
X143990483Y-99815470D01*
X143872240Y-99710717D01*
X143872238Y-99710716D01*
X143872237Y-99710715D01*
X143732365Y-99637303D01*
X143578986Y-99599500D01*
X143578985Y-99599500D01*
X143421015Y-99599500D01*
X143421014Y-99599500D01*
X143267634Y-99637303D01*
X143127761Y-99710715D01*
X143127759Y-99710717D01*
X143006725Y-99817942D01*
X142943492Y-99847663D01*
X142874228Y-99838479D01*
X142820926Y-99793306D01*
X142800506Y-99726487D01*
X142800499Y-99725126D01*
X142800499Y-99495143D01*
X142800499Y-99495136D01*
X142800497Y-99495117D01*
X142797586Y-99470012D01*
X142797585Y-99470010D01*
X142797585Y-99470009D01*
X142752206Y-99367235D01*
X142672765Y-99287794D01*
X142672763Y-99287793D01*
X142569992Y-99242415D01*
X142544868Y-99239500D01*
X141907139Y-99239500D01*
X141840100Y-99219815D01*
X141794345Y-99167011D01*
X141784401Y-99097853D01*
X141813426Y-99034297D01*
X141872204Y-98996523D01*
X141896332Y-98991972D01*
X141967883Y-98985712D01*
X141967894Y-98985710D01*
X142179150Y-98929105D01*
X142179164Y-98929100D01*
X142377383Y-98836669D01*
X142377385Y-98836668D01*
X142439571Y-98793124D01*
X141879410Y-98232962D01*
X141942993Y-98215925D01*
X142057007Y-98150099D01*
X142150099Y-98057007D01*
X142215925Y-97942993D01*
X142232962Y-97879409D01*
X142793124Y-98439570D01*
X142836668Y-98377385D01*
X142836669Y-98377383D01*
X142929100Y-98179164D01*
X142929105Y-98179150D01*
X142985710Y-97967894D01*
X142985712Y-97967884D01*
X143004775Y-97750000D01*
X143004775Y-97749999D01*
X142985712Y-97532115D01*
X142985710Y-97532105D01*
X142929105Y-97320849D01*
X142929101Y-97320840D01*
X142836667Y-97122614D01*
X142836666Y-97122612D01*
X142793124Y-97060428D01*
X142793124Y-97060427D01*
X142232962Y-97620589D01*
X142215925Y-97557007D01*
X142150099Y-97442993D01*
X142057007Y-97349901D01*
X141942993Y-97284075D01*
X141879409Y-97267037D01*
X142396446Y-96749999D01*
X148844722Y-96749999D01*
X148844722Y-96750000D01*
X148863762Y-96906818D01*
X148914442Y-97040448D01*
X148919780Y-97054523D01*
X149009517Y-97184530D01*
X149127760Y-97289283D01*
X149127762Y-97289284D01*
X149267634Y-97362696D01*
X149421014Y-97400500D01*
X149421015Y-97400500D01*
X149578985Y-97400500D01*
X149732365Y-97362696D01*
X149872240Y-97289283D01*
X149990483Y-97184530D01*
X150080220Y-97054523D01*
X150136237Y-96906818D01*
X150155278Y-96750000D01*
X150136237Y-96593182D01*
X150132036Y-96582106D01*
X150101550Y-96501720D01*
X150080220Y-96445477D01*
X149990483Y-96315470D01*
X149872240Y-96210717D01*
X149872238Y-96210716D01*
X149872237Y-96210715D01*
X149732365Y-96137303D01*
X149578986Y-96099500D01*
X149578985Y-96099500D01*
X149421015Y-96099500D01*
X149421014Y-96099500D01*
X149267634Y-96137303D01*
X149127762Y-96210715D01*
X149009516Y-96315471D01*
X148919781Y-96445475D01*
X148919780Y-96445476D01*
X148863762Y-96593181D01*
X148844722Y-96749999D01*
X142396446Y-96749999D01*
X142439571Y-96706874D01*
X142377387Y-96663333D01*
X142179159Y-96570898D01*
X142179150Y-96570894D01*
X141967894Y-96514289D01*
X141967884Y-96514287D01*
X141843673Y-96503420D01*
X141778604Y-96477967D01*
X141749494Y-96437766D01*
X141730821Y-96469889D01*
X141668623Y-96501720D01*
X141656326Y-96503420D01*
X141532115Y-96514287D01*
X141532105Y-96514289D01*
X141320849Y-96570894D01*
X141320840Y-96570898D01*
X141122613Y-96663333D01*
X141060428Y-96706874D01*
X141620591Y-97267037D01*
X141557007Y-97284075D01*
X141442993Y-97349901D01*
X141349901Y-97442993D01*
X141284075Y-97557007D01*
X141267037Y-97620591D01*
X140706874Y-97060428D01*
X140663333Y-97122613D01*
X140570898Y-97320840D01*
X140570894Y-97320849D01*
X140514289Y-97532105D01*
X140514287Y-97532115D01*
X140495225Y-97749999D01*
X130983053Y-97749999D01*
X130980221Y-97742532D01*
X130890484Y-97612525D01*
X130772241Y-97507772D01*
X130772239Y-97507771D01*
X130772238Y-97507770D01*
X130632366Y-97434358D01*
X130478987Y-97396555D01*
X130478986Y-97396555D01*
X130321016Y-97396555D01*
X130321015Y-97396555D01*
X130167635Y-97434358D01*
X130027763Y-97507770D01*
X129909517Y-97612526D01*
X129819782Y-97742530D01*
X129819781Y-97742531D01*
X129763763Y-97890236D01*
X129744723Y-98047054D01*
X112250500Y-98047054D01*
X112250500Y-96749999D01*
X117844722Y-96749999D01*
X117844722Y-96750000D01*
X117863762Y-96906818D01*
X117914442Y-97040448D01*
X117919780Y-97054523D01*
X118009517Y-97184530D01*
X118127760Y-97289283D01*
X118127762Y-97289284D01*
X118267634Y-97362696D01*
X118421014Y-97400500D01*
X118421015Y-97400500D01*
X118578985Y-97400500D01*
X118732365Y-97362696D01*
X118872240Y-97289283D01*
X118990483Y-97184530D01*
X119080220Y-97054523D01*
X119136237Y-96906818D01*
X119155278Y-96750000D01*
X119136237Y-96593182D01*
X119132036Y-96582106D01*
X119101550Y-96501720D01*
X119080220Y-96445477D01*
X118990483Y-96315470D01*
X118872240Y-96210717D01*
X118872238Y-96210716D01*
X118872237Y-96210715D01*
X118732365Y-96137303D01*
X118578986Y-96099500D01*
X118578985Y-96099500D01*
X118421015Y-96099500D01*
X118421014Y-96099500D01*
X118267634Y-96137303D01*
X118127762Y-96210715D01*
X118009516Y-96315471D01*
X117919781Y-96445475D01*
X117919780Y-96445476D01*
X117863762Y-96593181D01*
X117844722Y-96749999D01*
X112250500Y-96749999D01*
X112250500Y-95630024D01*
X123974747Y-95630024D01*
X123974747Y-95630025D01*
X123993787Y-95786843D01*
X124030942Y-95884810D01*
X124049805Y-95934548D01*
X124139542Y-96064555D01*
X124257785Y-96169308D01*
X124257787Y-96169309D01*
X124397659Y-96242721D01*
X124551039Y-96280525D01*
X124551040Y-96280525D01*
X124709010Y-96280525D01*
X124862390Y-96242721D01*
X124874950Y-96236129D01*
X125002265Y-96169308D01*
X125120508Y-96064555D01*
X125210245Y-95934548D01*
X125266262Y-95786843D01*
X125270736Y-95749999D01*
X126344722Y-95749999D01*
X126344722Y-95750000D01*
X126363762Y-95906818D01*
X126419141Y-96052839D01*
X126419780Y-96054523D01*
X126509517Y-96184530D01*
X126627760Y-96289283D01*
X126627762Y-96289284D01*
X126767634Y-96362696D01*
X126921014Y-96400500D01*
X126921015Y-96400500D01*
X127078985Y-96400500D01*
X127232365Y-96362696D01*
X127239994Y-96358692D01*
X127372240Y-96289283D01*
X127490483Y-96184530D01*
X127580220Y-96054523D01*
X127636237Y-95906818D01*
X127646779Y-95819999D01*
X129104721Y-95819999D01*
X129104721Y-95820000D01*
X129123761Y-95976818D01*
X129157035Y-96064553D01*
X129179779Y-96124523D01*
X129269516Y-96254530D01*
X129387759Y-96359283D01*
X129387761Y-96359284D01*
X129527633Y-96432696D01*
X129681013Y-96470500D01*
X129681014Y-96470500D01*
X129838984Y-96470500D01*
X129992364Y-96432696D01*
X130107213Y-96372417D01*
X130175719Y-96358692D01*
X130240773Y-96384184D01*
X130247059Y-96389393D01*
X130339050Y-96470889D01*
X130339052Y-96470890D01*
X130478924Y-96544302D01*
X130632304Y-96582106D01*
X130632305Y-96582106D01*
X130790275Y-96582106D01*
X130943655Y-96544302D01*
X131024787Y-96501720D01*
X131083530Y-96470889D01*
X131201773Y-96366136D01*
X131291510Y-96236129D01*
X131347527Y-96088424D01*
X131366568Y-95931606D01*
X131363552Y-95906762D01*
X131347527Y-95774787D01*
X131338126Y-95749998D01*
X132144318Y-95749998D01*
X132144318Y-95750001D01*
X132164955Y-95906760D01*
X132164956Y-95906762D01*
X132225464Y-96052841D01*
X132321718Y-96178282D01*
X132447159Y-96274536D01*
X132452506Y-96276750D01*
X132506909Y-96320588D01*
X132528976Y-96386882D01*
X132527994Y-96407495D01*
X132521688Y-96455400D01*
X132521688Y-96455406D01*
X132542325Y-96612165D01*
X132542326Y-96612167D01*
X132602834Y-96758246D01*
X132699088Y-96883687D01*
X132824529Y-96979941D01*
X132970608Y-97040449D01*
X133048989Y-97050768D01*
X133127369Y-97061087D01*
X133127370Y-97061087D01*
X133127371Y-97061087D01*
X133179624Y-97054207D01*
X133284132Y-97040449D01*
X133430211Y-96979941D01*
X133555652Y-96883687D01*
X133651906Y-96758246D01*
X133712414Y-96612167D01*
X133733052Y-96455405D01*
X133733051Y-96455400D01*
X133714629Y-96315470D01*
X133712414Y-96298643D01*
X133651906Y-96152564D01*
X133555652Y-96027123D01*
X133430211Y-95930869D01*
X133430208Y-95930868D01*
X133430206Y-95930866D01*
X133424859Y-95928651D01*
X133370456Y-95884810D01*
X133348392Y-95818515D01*
X133349373Y-95797917D01*
X133355682Y-95750000D01*
X133335044Y-95593238D01*
X133274536Y-95447159D01*
X133178282Y-95321718D01*
X133052841Y-95225464D01*
X132906762Y-95164956D01*
X132906760Y-95164955D01*
X132750001Y-95144318D01*
X132749999Y-95144318D01*
X132593239Y-95164955D01*
X132593237Y-95164956D01*
X132447160Y-95225463D01*
X132321718Y-95321718D01*
X132225463Y-95447160D01*
X132164956Y-95593237D01*
X132164955Y-95593239D01*
X132144318Y-95749998D01*
X131338126Y-95749998D01*
X131319353Y-95700500D01*
X131291510Y-95627083D01*
X131201773Y-95497076D01*
X131083530Y-95392323D01*
X131083528Y-95392322D01*
X131083527Y-95392321D01*
X130943655Y-95318909D01*
X130790276Y-95281106D01*
X130790275Y-95281106D01*
X130632305Y-95281106D01*
X130632304Y-95281106D01*
X130478924Y-95318909D01*
X130364076Y-95379187D01*
X130295567Y-95392913D01*
X130230514Y-95367420D01*
X130224223Y-95362207D01*
X130215551Y-95354524D01*
X130132239Y-95280717D01*
X130132237Y-95280716D01*
X130132236Y-95280715D01*
X129992364Y-95207303D01*
X129838985Y-95169500D01*
X129838984Y-95169500D01*
X129681014Y-95169500D01*
X129681013Y-95169500D01*
X129527633Y-95207303D01*
X129387761Y-95280715D01*
X129341478Y-95321718D01*
X129289891Y-95367420D01*
X129269515Y-95385471D01*
X129179780Y-95515475D01*
X129179779Y-95515476D01*
X129123761Y-95663181D01*
X129104721Y-95819999D01*
X127646779Y-95819999D01*
X127655278Y-95750000D01*
X127644737Y-95663182D01*
X127636237Y-95593181D01*
X127599789Y-95497076D01*
X127580220Y-95445477D01*
X127490483Y-95315470D01*
X127372240Y-95210717D01*
X127372238Y-95210716D01*
X127372237Y-95210715D01*
X127232365Y-95137303D01*
X127078986Y-95099500D01*
X127078985Y-95099500D01*
X126921015Y-95099500D01*
X126921014Y-95099500D01*
X126767634Y-95137303D01*
X126627762Y-95210715D01*
X126509516Y-95315471D01*
X126419781Y-95445475D01*
X126419780Y-95445476D01*
X126363762Y-95593181D01*
X126344722Y-95749999D01*
X125270736Y-95749999D01*
X125285303Y-95630025D01*
X125280837Y-95593239D01*
X125266262Y-95473206D01*
X125244541Y-95415934D01*
X125210245Y-95325502D01*
X125120508Y-95195495D01*
X125002265Y-95090742D01*
X125002263Y-95090741D01*
X125002262Y-95090740D01*
X124924638Y-95049999D01*
X135844722Y-95049999D01*
X135844722Y-95050000D01*
X135863762Y-95206818D01*
X135906273Y-95318909D01*
X135919780Y-95354523D01*
X136009517Y-95484530D01*
X136127760Y-95589283D01*
X136127762Y-95589284D01*
X136267634Y-95662696D01*
X136421014Y-95700500D01*
X136421015Y-95700500D01*
X136578985Y-95700500D01*
X136732365Y-95662696D01*
X136872240Y-95589283D01*
X136990483Y-95484530D01*
X137080220Y-95354523D01*
X137135030Y-95210000D01*
X140694417Y-95210000D01*
X140714699Y-95415932D01*
X140735508Y-95484530D01*
X140774768Y-95613954D01*
X140872315Y-95796450D01*
X140890423Y-95818515D01*
X141003589Y-95956410D01*
X141100209Y-96035702D01*
X141163550Y-96087685D01*
X141346046Y-96185232D01*
X141544066Y-96245300D01*
X141544065Y-96245300D01*
X141568255Y-96247682D01*
X141657673Y-96256489D01*
X141722459Y-96282650D01*
X141750431Y-96322180D01*
X141768202Y-96290830D01*
X141830049Y-96258323D01*
X141842317Y-96256490D01*
X141955934Y-96245300D01*
X142153954Y-96185232D01*
X142336450Y-96087685D01*
X142496410Y-95956410D01*
X142627685Y-95796450D01*
X142725232Y-95613954D01*
X142785300Y-95415934D01*
X142805583Y-95210000D01*
X142785300Y-95004066D01*
X142725232Y-94806046D01*
X142627685Y-94623550D01*
X142535086Y-94510717D01*
X142496410Y-94463589D01*
X142336452Y-94332317D01*
X142336453Y-94332317D01*
X142336450Y-94332315D01*
X142153954Y-94234768D01*
X141955934Y-94174700D01*
X141955932Y-94174699D01*
X141955934Y-94174699D01*
X141750000Y-94154417D01*
X141544067Y-94174699D01*
X141346043Y-94234769D01*
X141235898Y-94293643D01*
X141163550Y-94332315D01*
X141163548Y-94332316D01*
X141163547Y-94332317D01*
X141003589Y-94463589D01*
X140872317Y-94623547D01*
X140774769Y-94806043D01*
X140714699Y-95004067D01*
X140694417Y-95210000D01*
X137135030Y-95210000D01*
X137136237Y-95206818D01*
X137155278Y-95050000D01*
X137136237Y-94893182D01*
X137080220Y-94745477D01*
X136990483Y-94615470D01*
X136872240Y-94510717D01*
X136872238Y-94510716D01*
X136872237Y-94510715D01*
X136732365Y-94437303D01*
X136578986Y-94399500D01*
X136578985Y-94399500D01*
X136421015Y-94399500D01*
X136421014Y-94399500D01*
X136267634Y-94437303D01*
X136127762Y-94510715D01*
X136009516Y-94615471D01*
X135919781Y-94745475D01*
X135919780Y-94745476D01*
X135863762Y-94893181D01*
X135844722Y-95049999D01*
X124924638Y-95049999D01*
X124862390Y-95017328D01*
X124709011Y-94979525D01*
X124709010Y-94979525D01*
X124551040Y-94979525D01*
X124551039Y-94979525D01*
X124397659Y-95017328D01*
X124257787Y-95090740D01*
X124139541Y-95195496D01*
X124049806Y-95325500D01*
X124049805Y-95325501D01*
X123993787Y-95473206D01*
X123974747Y-95630024D01*
X112250500Y-95630024D01*
X112250500Y-92504066D01*
X112250765Y-92495956D01*
X112254819Y-92434108D01*
X112267075Y-92247102D01*
X112269190Y-92231048D01*
X112317045Y-91990462D01*
X112321243Y-91974797D01*
X112357345Y-91868443D01*
X112400093Y-91742512D01*
X112406291Y-91727547D01*
X112514790Y-91507533D01*
X112522893Y-91493498D01*
X112659182Y-91289527D01*
X112669039Y-91276681D01*
X112830786Y-91092244D01*
X112842244Y-91080786D01*
X113026681Y-90919039D01*
X113039527Y-90909182D01*
X113243498Y-90772893D01*
X113257533Y-90764790D01*
X113477547Y-90656291D01*
X113492512Y-90650093D01*
X113656762Y-90594337D01*
X113724797Y-90571243D01*
X113740464Y-90567045D01*
X113981048Y-90519190D01*
X113997102Y-90517075D01*
X114245957Y-90500765D01*
X114254067Y-90500500D01*
X115157245Y-90500500D01*
X115157250Y-90500500D01*
X115162036Y-90499997D01*
X117695153Y-90499997D01*
X117695153Y-90500002D01*
X117714526Y-90857314D01*
X117714527Y-90857331D01*
X117772415Y-91210431D01*
X117772421Y-91210457D01*
X117868147Y-91555232D01*
X117868149Y-91555239D01*
X118000597Y-91887659D01*
X118000606Y-91887677D01*
X118168218Y-92203827D01*
X118369024Y-92499994D01*
X118369035Y-92500008D01*
X118496441Y-92650002D01*
X118496442Y-92650002D01*
X119705747Y-91440697D01*
X119779588Y-91542330D01*
X119957670Y-91720412D01*
X120059300Y-91794251D01*
X118847257Y-93006294D01*
X118860495Y-93018836D01*
X119145367Y-93235388D01*
X119145370Y-93235390D01*
X119451990Y-93419876D01*
X119776739Y-93570122D01*
X119776744Y-93570123D01*
X120115855Y-93684383D01*
X120465339Y-93761311D01*
X120821075Y-93799999D01*
X120821085Y-93800000D01*
X121178915Y-93800000D01*
X121178924Y-93799999D01*
X121534660Y-93761311D01*
X121884144Y-93684383D01*
X122223255Y-93570123D01*
X122223260Y-93570122D01*
X122548009Y-93419876D01*
X122854629Y-93235390D01*
X122854632Y-93235388D01*
X123139509Y-93018831D01*
X123152742Y-93006295D01*
X123152742Y-93006294D01*
X121940699Y-91794251D01*
X122042330Y-91720412D01*
X122220412Y-91542330D01*
X122294251Y-91440698D01*
X123503556Y-92650002D01*
X123630972Y-92499998D01*
X123630975Y-92499994D01*
X123831781Y-92203827D01*
X123999393Y-91887677D01*
X123999402Y-91887659D01*
X124131850Y-91555239D01*
X124131852Y-91555232D01*
X124227578Y-91210457D01*
X124227584Y-91210431D01*
X124285472Y-90857331D01*
X124285473Y-90857314D01*
X124304847Y-90500002D01*
X124304847Y-90499997D01*
X124285473Y-90142685D01*
X124285472Y-90142668D01*
X124227584Y-89789568D01*
X124227578Y-89789542D01*
X124131852Y-89444767D01*
X124131850Y-89444760D01*
X124102522Y-89371153D01*
X128879500Y-89371153D01*
X128879500Y-90628846D01*
X128910261Y-90783489D01*
X128910264Y-90783501D01*
X128970602Y-90929172D01*
X128970609Y-90929185D01*
X129058210Y-91060288D01*
X129058213Y-91060292D01*
X129169707Y-91171786D01*
X129169711Y-91171789D01*
X129300814Y-91259390D01*
X129300827Y-91259397D01*
X129446498Y-91319735D01*
X129446503Y-91319737D01*
X129541248Y-91338583D01*
X129601153Y-91350499D01*
X129601156Y-91350500D01*
X129601158Y-91350500D01*
X129758844Y-91350500D01*
X129758845Y-91350499D01*
X129913497Y-91319737D01*
X130059179Y-91259394D01*
X130190289Y-91171789D01*
X130301789Y-91060289D01*
X130389394Y-90929179D01*
X130449737Y-90783497D01*
X130480500Y-90628842D01*
X130480500Y-89983742D01*
X130500185Y-89916703D01*
X130552989Y-89870948D01*
X130622147Y-89861004D01*
X130685703Y-89890029D01*
X130692181Y-89896061D01*
X130756635Y-89960515D01*
X130887865Y-90036281D01*
X131034234Y-90075500D01*
X131034236Y-90075500D01*
X131185764Y-90075500D01*
X131185766Y-90075500D01*
X131332135Y-90036281D01*
X131463365Y-89960515D01*
X131570515Y-89853365D01*
X131646281Y-89722135D01*
X131685500Y-89575766D01*
X131685500Y-89424234D01*
X136314500Y-89424234D01*
X136314500Y-89575765D01*
X136353719Y-89722136D01*
X136391602Y-89787750D01*
X136429485Y-89853365D01*
X136536635Y-89960515D01*
X136667865Y-90036281D01*
X136814234Y-90075500D01*
X136814236Y-90075500D01*
X136965764Y-90075500D01*
X136965766Y-90075500D01*
X137112135Y-90036281D01*
X137243365Y-89960515D01*
X137307819Y-89896061D01*
X137369142Y-89862576D01*
X137438834Y-89867560D01*
X137494767Y-89909432D01*
X137519184Y-89974896D01*
X137519500Y-89983742D01*
X137519500Y-90628846D01*
X137550261Y-90783489D01*
X137550264Y-90783501D01*
X137610602Y-90929172D01*
X137610609Y-90929185D01*
X137698210Y-91060288D01*
X137698213Y-91060292D01*
X137809707Y-91171786D01*
X137809711Y-91171789D01*
X137940814Y-91259390D01*
X137940827Y-91259397D01*
X138086498Y-91319735D01*
X138086503Y-91319737D01*
X138181248Y-91338583D01*
X138241153Y-91350499D01*
X138241156Y-91350500D01*
X138241158Y-91350500D01*
X138398844Y-91350500D01*
X138398845Y-91350499D01*
X138553497Y-91319737D01*
X138699179Y-91259394D01*
X138830289Y-91171789D01*
X138941789Y-91060289D01*
X139029394Y-90929179D01*
X139089737Y-90783497D01*
X139120500Y-90628842D01*
X139120500Y-90499997D01*
X143695153Y-90499997D01*
X143695153Y-90500002D01*
X143714526Y-90857314D01*
X143714527Y-90857331D01*
X143772415Y-91210431D01*
X143772421Y-91210457D01*
X143868147Y-91555232D01*
X143868149Y-91555239D01*
X144000597Y-91887659D01*
X144000606Y-91887677D01*
X144168218Y-92203827D01*
X144369024Y-92499994D01*
X144369035Y-92500008D01*
X144496441Y-92650002D01*
X144496442Y-92650002D01*
X145705747Y-91440697D01*
X145779588Y-91542330D01*
X145957670Y-91720412D01*
X146059300Y-91794251D01*
X144847257Y-93006294D01*
X144860495Y-93018836D01*
X145145367Y-93235388D01*
X145145370Y-93235390D01*
X145451990Y-93419876D01*
X145776739Y-93570122D01*
X145776744Y-93570123D01*
X146115855Y-93684383D01*
X146465339Y-93761311D01*
X146821075Y-93799999D01*
X146821085Y-93800000D01*
X147178915Y-93800000D01*
X147178924Y-93799999D01*
X147534660Y-93761311D01*
X147884144Y-93684383D01*
X148223255Y-93570123D01*
X148223260Y-93570122D01*
X148548009Y-93419876D01*
X148854629Y-93235390D01*
X148854632Y-93235388D01*
X149139509Y-93018831D01*
X149152742Y-93006295D01*
X149152742Y-93006294D01*
X147940699Y-91794251D01*
X148042330Y-91720412D01*
X148220412Y-91542330D01*
X148294251Y-91440698D01*
X149503556Y-92650002D01*
X149630972Y-92499998D01*
X149630975Y-92499994D01*
X149831781Y-92203827D01*
X149999393Y-91887677D01*
X149999402Y-91887659D01*
X150131850Y-91555239D01*
X150131852Y-91555232D01*
X150227578Y-91210457D01*
X150227584Y-91210431D01*
X150285472Y-90857331D01*
X150285473Y-90857314D01*
X150304847Y-90500002D01*
X150304847Y-90499997D01*
X150285473Y-90142685D01*
X150285472Y-90142668D01*
X150227584Y-89789568D01*
X150227578Y-89789542D01*
X150131852Y-89444767D01*
X150131850Y-89444760D01*
X149999402Y-89112340D01*
X149999393Y-89112322D01*
X149831781Y-88796172D01*
X149630975Y-88500005D01*
X149630964Y-88499991D01*
X149503556Y-88349996D01*
X148294251Y-89559301D01*
X148220412Y-89457670D01*
X148042330Y-89279588D01*
X147940698Y-89205748D01*
X149152742Y-87993704D01*
X149139504Y-87981163D01*
X148854632Y-87764611D01*
X148854629Y-87764609D01*
X148548009Y-87580123D01*
X148223260Y-87429877D01*
X148223255Y-87429876D01*
X147884144Y-87315616D01*
X147534660Y-87238688D01*
X147178924Y-87200000D01*
X146821075Y-87200000D01*
X146465339Y-87238688D01*
X146115855Y-87315616D01*
X145776744Y-87429876D01*
X145776739Y-87429877D01*
X145451990Y-87580123D01*
X145145370Y-87764609D01*
X145145367Y-87764611D01*
X144860486Y-87981170D01*
X144860485Y-87981171D01*
X144847257Y-87993702D01*
X144847256Y-87993703D01*
X146059301Y-89205748D01*
X145957670Y-89279588D01*
X145779588Y-89457670D01*
X145705748Y-89559301D01*
X144496442Y-88349995D01*
X144496441Y-88349996D01*
X144369033Y-88499992D01*
X144168218Y-88796172D01*
X144000606Y-89112322D01*
X144000597Y-89112340D01*
X143868149Y-89444760D01*
X143868147Y-89444767D01*
X143772421Y-89789542D01*
X143772415Y-89789568D01*
X143714527Y-90142668D01*
X143714526Y-90142685D01*
X143695153Y-90499997D01*
X139120500Y-90499997D01*
X139120500Y-89371158D01*
X139120500Y-89371155D01*
X139120499Y-89371153D01*
X139101942Y-89277863D01*
X139089737Y-89216503D01*
X139056569Y-89136428D01*
X139029397Y-89070827D01*
X139029390Y-89070814D01*
X138941789Y-88939711D01*
X138941786Y-88939707D01*
X138830292Y-88828213D01*
X138830288Y-88828210D01*
X138699185Y-88740609D01*
X138699172Y-88740602D01*
X138553501Y-88680264D01*
X138553489Y-88680261D01*
X138398845Y-88649500D01*
X138398842Y-88649500D01*
X138241158Y-88649500D01*
X138241155Y-88649500D01*
X138086510Y-88680261D01*
X138086498Y-88680264D01*
X137940827Y-88740602D01*
X137940814Y-88740609D01*
X137809711Y-88828210D01*
X137809707Y-88828213D01*
X137698213Y-88939707D01*
X137698210Y-88939711D01*
X137610609Y-89070814D01*
X137610604Y-89070824D01*
X137579895Y-89144962D01*
X137536053Y-89199366D01*
X137469759Y-89221430D01*
X137402060Y-89204150D01*
X137357947Y-89159508D01*
X137350515Y-89146635D01*
X137243365Y-89039485D01*
X137177750Y-89001602D01*
X137112136Y-88963719D01*
X137021363Y-88939397D01*
X136965766Y-88924500D01*
X136814234Y-88924500D01*
X136667863Y-88963719D01*
X136536635Y-89039485D01*
X136536632Y-89039487D01*
X136429487Y-89146632D01*
X136429485Y-89146635D01*
X136353719Y-89277863D01*
X136314500Y-89424234D01*
X131685500Y-89424234D01*
X131646281Y-89277865D01*
X131570515Y-89146635D01*
X131463365Y-89039485D01*
X131397750Y-89001602D01*
X131332136Y-88963719D01*
X131241363Y-88939397D01*
X131185766Y-88924500D01*
X131034234Y-88924500D01*
X130887863Y-88963719D01*
X130756635Y-89039485D01*
X130756632Y-89039487D01*
X130649487Y-89146632D01*
X130649485Y-89146635D01*
X130642052Y-89159510D01*
X130591484Y-89207725D01*
X130522877Y-89220947D01*
X130458012Y-89194979D01*
X130420104Y-89144961D01*
X130389397Y-89070827D01*
X130389390Y-89070814D01*
X130301789Y-88939711D01*
X130301786Y-88939707D01*
X130190292Y-88828213D01*
X130190288Y-88828210D01*
X130059185Y-88740609D01*
X130059172Y-88740602D01*
X129913501Y-88680264D01*
X129913489Y-88680261D01*
X129758845Y-88649500D01*
X129758842Y-88649500D01*
X129601158Y-88649500D01*
X129601155Y-88649500D01*
X129446510Y-88680261D01*
X129446498Y-88680264D01*
X129300827Y-88740602D01*
X129300814Y-88740609D01*
X129169711Y-88828210D01*
X129169707Y-88828213D01*
X129058213Y-88939707D01*
X129058210Y-88939711D01*
X128970609Y-89070814D01*
X128970602Y-89070827D01*
X128910264Y-89216498D01*
X128910261Y-89216510D01*
X128879500Y-89371153D01*
X124102522Y-89371153D01*
X123999402Y-89112340D01*
X123999393Y-89112322D01*
X123831781Y-88796172D01*
X123630975Y-88500005D01*
X123630964Y-88499991D01*
X123503556Y-88349996D01*
X122294251Y-89559301D01*
X122220412Y-89457670D01*
X122042330Y-89279588D01*
X121940698Y-89205748D01*
X123152742Y-87993704D01*
X123139504Y-87981163D01*
X122854632Y-87764611D01*
X122854629Y-87764609D01*
X122548009Y-87580123D01*
X122223260Y-87429877D01*
X122223255Y-87429876D01*
X121884144Y-87315616D01*
X121534660Y-87238688D01*
X121178924Y-87200000D01*
X120821075Y-87200000D01*
X120465339Y-87238688D01*
X120115855Y-87315616D01*
X119776744Y-87429876D01*
X119776739Y-87429877D01*
X119451990Y-87580123D01*
X119145370Y-87764609D01*
X119145367Y-87764611D01*
X118860486Y-87981170D01*
X118860485Y-87981171D01*
X118847257Y-87993702D01*
X118847256Y-87993703D01*
X120059301Y-89205748D01*
X119957670Y-89279588D01*
X119779588Y-89457670D01*
X119705748Y-89559301D01*
X118496442Y-88349995D01*
X118496441Y-88349996D01*
X118369033Y-88499992D01*
X118168218Y-88796172D01*
X118000606Y-89112322D01*
X118000597Y-89112340D01*
X117868149Y-89444760D01*
X117868147Y-89444767D01*
X117772421Y-89789542D01*
X117772415Y-89789568D01*
X117714527Y-90142668D01*
X117714526Y-90142685D01*
X117695153Y-90499997D01*
X115162036Y-90499997D01*
X115470026Y-90467626D01*
X115777652Y-90402238D01*
X116076759Y-90305053D01*
X116364068Y-90177134D01*
X116636432Y-90019885D01*
X116890867Y-89835027D01*
X117124586Y-89624586D01*
X117335027Y-89390867D01*
X117519885Y-89136432D01*
X117677134Y-88864068D01*
X117805053Y-88576759D01*
X117902238Y-88277652D01*
X117967626Y-87970026D01*
X118000500Y-87657250D01*
X118000500Y-87500000D01*
X118000500Y-87434108D01*
X118000500Y-86504066D01*
X118000765Y-86495956D01*
X118004819Y-86434108D01*
X118017075Y-86247102D01*
X118019190Y-86231048D01*
X118067045Y-85990462D01*
X118071243Y-85974797D01*
X118094337Y-85906762D01*
X118150093Y-85742512D01*
X118156291Y-85727547D01*
X118264790Y-85507533D01*
X118272893Y-85493498D01*
X118409182Y-85289527D01*
X118419039Y-85276681D01*
X118580786Y-85092244D01*
X118592244Y-85080786D01*
X118776681Y-84919039D01*
X118789527Y-84909182D01*
X118993498Y-84772893D01*
X119007533Y-84764790D01*
X119227547Y-84656291D01*
X119242512Y-84650093D01*
X119471126Y-84572489D01*
X119474797Y-84571243D01*
X119490464Y-84567045D01*
X119731048Y-84519190D01*
X119747102Y-84517075D01*
X119995957Y-84500765D01*
X120004067Y-84500500D01*
X120065892Y-84500500D01*
X128935871Y-84500500D01*
X128961072Y-84503087D01*
X128962798Y-84503446D01*
X129010775Y-84500701D01*
X129017855Y-84500500D01*
X129070187Y-84500500D01*
X129077816Y-84500000D01*
X129207241Y-84500000D01*
X129274280Y-84519685D01*
G37*
%TD.AperFunction*%
%TD*%
M02*
