%TF.GenerationSoftware,KiCad,Pcbnew,8.0.2*%
%TF.CreationDate,2024-07-19T14:35:33-04:00*%
%TF.ProjectId,StepperMotorDriver,53746570-7065-4724-9d6f-746f72447269,rev?*%
%TF.SameCoordinates,Original*%
%TF.FileFunction,Legend,Top*%
%TF.FilePolarity,Positive*%
%FSLAX46Y46*%
G04 Gerber Fmt 4.6, Leading zero omitted, Abs format (unit mm)*
G04 Created by KiCad (PCBNEW 8.0.2) date 2024-07-19 14:35:33*
%MOMM*%
%LPD*%
G01*
G04 APERTURE LIST*
%ADD10C,0.150000*%
%ADD11C,0.254000*%
%ADD12C,0.120000*%
%ADD13C,0.250000*%
G04 APERTURE END LIST*
D10*
X125528628Y-103086190D02*
X126004819Y-103086190D01*
X125004819Y-103419523D02*
X125528628Y-103086190D01*
X125528628Y-103086190D02*
X125004819Y-102752857D01*
X125100057Y-102467142D02*
X125052438Y-102419523D01*
X125052438Y-102419523D02*
X125004819Y-102324285D01*
X125004819Y-102324285D02*
X125004819Y-102086190D01*
X125004819Y-102086190D02*
X125052438Y-101990952D01*
X125052438Y-101990952D02*
X125100057Y-101943333D01*
X125100057Y-101943333D02*
X125195295Y-101895714D01*
X125195295Y-101895714D02*
X125290533Y-101895714D01*
X125290533Y-101895714D02*
X125433390Y-101943333D01*
X125433390Y-101943333D02*
X126004819Y-102514761D01*
X126004819Y-102514761D02*
X126004819Y-101895714D01*
X132333333Y-111109580D02*
X132285714Y-111157200D01*
X132285714Y-111157200D02*
X132142857Y-111204819D01*
X132142857Y-111204819D02*
X132047619Y-111204819D01*
X132047619Y-111204819D02*
X131904762Y-111157200D01*
X131904762Y-111157200D02*
X131809524Y-111061961D01*
X131809524Y-111061961D02*
X131761905Y-110966723D01*
X131761905Y-110966723D02*
X131714286Y-110776247D01*
X131714286Y-110776247D02*
X131714286Y-110633390D01*
X131714286Y-110633390D02*
X131761905Y-110442914D01*
X131761905Y-110442914D02*
X131809524Y-110347676D01*
X131809524Y-110347676D02*
X131904762Y-110252438D01*
X131904762Y-110252438D02*
X132047619Y-110204819D01*
X132047619Y-110204819D02*
X132142857Y-110204819D01*
X132142857Y-110204819D02*
X132285714Y-110252438D01*
X132285714Y-110252438D02*
X132333333Y-110300057D01*
X132714286Y-110300057D02*
X132761905Y-110252438D01*
X132761905Y-110252438D02*
X132857143Y-110204819D01*
X132857143Y-110204819D02*
X133095238Y-110204819D01*
X133095238Y-110204819D02*
X133190476Y-110252438D01*
X133190476Y-110252438D02*
X133238095Y-110300057D01*
X133238095Y-110300057D02*
X133285714Y-110395295D01*
X133285714Y-110395295D02*
X133285714Y-110490533D01*
X133285714Y-110490533D02*
X133238095Y-110633390D01*
X133238095Y-110633390D02*
X132666667Y-111204819D01*
X132666667Y-111204819D02*
X133285714Y-111204819D01*
X140833333Y-102704819D02*
X140500000Y-102228628D01*
X140261905Y-102704819D02*
X140261905Y-101704819D01*
X140261905Y-101704819D02*
X140642857Y-101704819D01*
X140642857Y-101704819D02*
X140738095Y-101752438D01*
X140738095Y-101752438D02*
X140785714Y-101800057D01*
X140785714Y-101800057D02*
X140833333Y-101895295D01*
X140833333Y-101895295D02*
X140833333Y-102038152D01*
X140833333Y-102038152D02*
X140785714Y-102133390D01*
X140785714Y-102133390D02*
X140738095Y-102181009D01*
X140738095Y-102181009D02*
X140642857Y-102228628D01*
X140642857Y-102228628D02*
X140261905Y-102228628D01*
X141690476Y-101704819D02*
X141500000Y-101704819D01*
X141500000Y-101704819D02*
X141404762Y-101752438D01*
X141404762Y-101752438D02*
X141357143Y-101800057D01*
X141357143Y-101800057D02*
X141261905Y-101942914D01*
X141261905Y-101942914D02*
X141214286Y-102133390D01*
X141214286Y-102133390D02*
X141214286Y-102514342D01*
X141214286Y-102514342D02*
X141261905Y-102609580D01*
X141261905Y-102609580D02*
X141309524Y-102657200D01*
X141309524Y-102657200D02*
X141404762Y-102704819D01*
X141404762Y-102704819D02*
X141595238Y-102704819D01*
X141595238Y-102704819D02*
X141690476Y-102657200D01*
X141690476Y-102657200D02*
X141738095Y-102609580D01*
X141738095Y-102609580D02*
X141785714Y-102514342D01*
X141785714Y-102514342D02*
X141785714Y-102276247D01*
X141785714Y-102276247D02*
X141738095Y-102181009D01*
X141738095Y-102181009D02*
X141690476Y-102133390D01*
X141690476Y-102133390D02*
X141595238Y-102085771D01*
X141595238Y-102085771D02*
X141404762Y-102085771D01*
X141404762Y-102085771D02*
X141309524Y-102133390D01*
X141309524Y-102133390D02*
X141261905Y-102181009D01*
X141261905Y-102181009D02*
X141214286Y-102276247D01*
X150416666Y-114704819D02*
X150416666Y-115419104D01*
X150416666Y-115419104D02*
X150369047Y-115561961D01*
X150369047Y-115561961D02*
X150273809Y-115657200D01*
X150273809Y-115657200D02*
X150130952Y-115704819D01*
X150130952Y-115704819D02*
X150035714Y-115704819D01*
X150892857Y-115704819D02*
X150892857Y-114704819D01*
X150892857Y-114704819D02*
X151273809Y-114704819D01*
X151273809Y-114704819D02*
X151369047Y-114752438D01*
X151369047Y-114752438D02*
X151416666Y-114800057D01*
X151416666Y-114800057D02*
X151464285Y-114895295D01*
X151464285Y-114895295D02*
X151464285Y-115038152D01*
X151464285Y-115038152D02*
X151416666Y-115133390D01*
X151416666Y-115133390D02*
X151369047Y-115181009D01*
X151369047Y-115181009D02*
X151273809Y-115228628D01*
X151273809Y-115228628D02*
X150892857Y-115228628D01*
X152416666Y-115704819D02*
X151845238Y-115704819D01*
X152130952Y-115704819D02*
X152130952Y-114704819D01*
X152130952Y-114704819D02*
X152035714Y-114847676D01*
X152035714Y-114847676D02*
X151940476Y-114942914D01*
X151940476Y-114942914D02*
X151845238Y-114990533D01*
X129107142Y-113704819D02*
X128773809Y-113228628D01*
X128535714Y-113704819D02*
X128535714Y-112704819D01*
X128535714Y-112704819D02*
X128916666Y-112704819D01*
X128916666Y-112704819D02*
X129011904Y-112752438D01*
X129011904Y-112752438D02*
X129059523Y-112800057D01*
X129059523Y-112800057D02*
X129107142Y-112895295D01*
X129107142Y-112895295D02*
X129107142Y-113038152D01*
X129107142Y-113038152D02*
X129059523Y-113133390D01*
X129059523Y-113133390D02*
X129011904Y-113181009D01*
X129011904Y-113181009D02*
X128916666Y-113228628D01*
X128916666Y-113228628D02*
X128535714Y-113228628D01*
X130059523Y-113704819D02*
X129488095Y-113704819D01*
X129773809Y-113704819D02*
X129773809Y-112704819D01*
X129773809Y-112704819D02*
X129678571Y-112847676D01*
X129678571Y-112847676D02*
X129583333Y-112942914D01*
X129583333Y-112942914D02*
X129488095Y-112990533D01*
X130678571Y-112704819D02*
X130773809Y-112704819D01*
X130773809Y-112704819D02*
X130869047Y-112752438D01*
X130869047Y-112752438D02*
X130916666Y-112800057D01*
X130916666Y-112800057D02*
X130964285Y-112895295D01*
X130964285Y-112895295D02*
X131011904Y-113085771D01*
X131011904Y-113085771D02*
X131011904Y-113323866D01*
X131011904Y-113323866D02*
X130964285Y-113514342D01*
X130964285Y-113514342D02*
X130916666Y-113609580D01*
X130916666Y-113609580D02*
X130869047Y-113657200D01*
X130869047Y-113657200D02*
X130773809Y-113704819D01*
X130773809Y-113704819D02*
X130678571Y-113704819D01*
X130678571Y-113704819D02*
X130583333Y-113657200D01*
X130583333Y-113657200D02*
X130535714Y-113609580D01*
X130535714Y-113609580D02*
X130488095Y-113514342D01*
X130488095Y-113514342D02*
X130440476Y-113323866D01*
X130440476Y-113323866D02*
X130440476Y-113085771D01*
X130440476Y-113085771D02*
X130488095Y-112895295D01*
X130488095Y-112895295D02*
X130535714Y-112800057D01*
X130535714Y-112800057D02*
X130583333Y-112752438D01*
X130583333Y-112752438D02*
X130678571Y-112704819D01*
X153166666Y-108556819D02*
X153166666Y-109271104D01*
X153166666Y-109271104D02*
X153119047Y-109413961D01*
X153119047Y-109413961D02*
X153023809Y-109509200D01*
X153023809Y-109509200D02*
X152880952Y-109556819D01*
X152880952Y-109556819D02*
X152785714Y-109556819D01*
X153595238Y-108652057D02*
X153642857Y-108604438D01*
X153642857Y-108604438D02*
X153738095Y-108556819D01*
X153738095Y-108556819D02*
X153976190Y-108556819D01*
X153976190Y-108556819D02*
X154071428Y-108604438D01*
X154071428Y-108604438D02*
X154119047Y-108652057D01*
X154119047Y-108652057D02*
X154166666Y-108747295D01*
X154166666Y-108747295D02*
X154166666Y-108842533D01*
X154166666Y-108842533D02*
X154119047Y-108985390D01*
X154119047Y-108985390D02*
X153547619Y-109556819D01*
X153547619Y-109556819D02*
X154166666Y-109556819D01*
X121107142Y-110609580D02*
X121059523Y-110657200D01*
X121059523Y-110657200D02*
X120916666Y-110704819D01*
X120916666Y-110704819D02*
X120821428Y-110704819D01*
X120821428Y-110704819D02*
X120678571Y-110657200D01*
X120678571Y-110657200D02*
X120583333Y-110561961D01*
X120583333Y-110561961D02*
X120535714Y-110466723D01*
X120535714Y-110466723D02*
X120488095Y-110276247D01*
X120488095Y-110276247D02*
X120488095Y-110133390D01*
X120488095Y-110133390D02*
X120535714Y-109942914D01*
X120535714Y-109942914D02*
X120583333Y-109847676D01*
X120583333Y-109847676D02*
X120678571Y-109752438D01*
X120678571Y-109752438D02*
X120821428Y-109704819D01*
X120821428Y-109704819D02*
X120916666Y-109704819D01*
X120916666Y-109704819D02*
X121059523Y-109752438D01*
X121059523Y-109752438D02*
X121107142Y-109800057D01*
X122059523Y-110704819D02*
X121488095Y-110704819D01*
X121773809Y-110704819D02*
X121773809Y-109704819D01*
X121773809Y-109704819D02*
X121678571Y-109847676D01*
X121678571Y-109847676D02*
X121583333Y-109942914D01*
X121583333Y-109942914D02*
X121488095Y-109990533D01*
X122535714Y-110704819D02*
X122726190Y-110704819D01*
X122726190Y-110704819D02*
X122821428Y-110657200D01*
X122821428Y-110657200D02*
X122869047Y-110609580D01*
X122869047Y-110609580D02*
X122964285Y-110466723D01*
X122964285Y-110466723D02*
X123011904Y-110276247D01*
X123011904Y-110276247D02*
X123011904Y-109895295D01*
X123011904Y-109895295D02*
X122964285Y-109800057D01*
X122964285Y-109800057D02*
X122916666Y-109752438D01*
X122916666Y-109752438D02*
X122821428Y-109704819D01*
X122821428Y-109704819D02*
X122630952Y-109704819D01*
X122630952Y-109704819D02*
X122535714Y-109752438D01*
X122535714Y-109752438D02*
X122488095Y-109800057D01*
X122488095Y-109800057D02*
X122440476Y-109895295D01*
X122440476Y-109895295D02*
X122440476Y-110133390D01*
X122440476Y-110133390D02*
X122488095Y-110228628D01*
X122488095Y-110228628D02*
X122535714Y-110276247D01*
X122535714Y-110276247D02*
X122630952Y-110323866D01*
X122630952Y-110323866D02*
X122821428Y-110323866D01*
X122821428Y-110323866D02*
X122916666Y-110276247D01*
X122916666Y-110276247D02*
X122964285Y-110228628D01*
X122964285Y-110228628D02*
X123011904Y-110133390D01*
X126583333Y-109204819D02*
X126250000Y-108728628D01*
X126011905Y-109204819D02*
X126011905Y-108204819D01*
X126011905Y-108204819D02*
X126392857Y-108204819D01*
X126392857Y-108204819D02*
X126488095Y-108252438D01*
X126488095Y-108252438D02*
X126535714Y-108300057D01*
X126535714Y-108300057D02*
X126583333Y-108395295D01*
X126583333Y-108395295D02*
X126583333Y-108538152D01*
X126583333Y-108538152D02*
X126535714Y-108633390D01*
X126535714Y-108633390D02*
X126488095Y-108681009D01*
X126488095Y-108681009D02*
X126392857Y-108728628D01*
X126392857Y-108728628D02*
X126011905Y-108728628D01*
X127440476Y-108538152D02*
X127440476Y-109204819D01*
X127202381Y-108157200D02*
X126964286Y-108871485D01*
X126964286Y-108871485D02*
X127583333Y-108871485D01*
X152916666Y-99204819D02*
X152916666Y-99919104D01*
X152916666Y-99919104D02*
X152869047Y-100061961D01*
X152869047Y-100061961D02*
X152773809Y-100157200D01*
X152773809Y-100157200D02*
X152630952Y-100204819D01*
X152630952Y-100204819D02*
X152535714Y-100204819D01*
X153297619Y-99204819D02*
X153964285Y-99204819D01*
X153964285Y-99204819D02*
X153535714Y-100204819D01*
X148011905Y-101454819D02*
X148011905Y-100454819D01*
X148011905Y-100454819D02*
X148250000Y-100454819D01*
X148250000Y-100454819D02*
X148392857Y-100502438D01*
X148392857Y-100502438D02*
X148488095Y-100597676D01*
X148488095Y-100597676D02*
X148535714Y-100692914D01*
X148535714Y-100692914D02*
X148583333Y-100883390D01*
X148583333Y-100883390D02*
X148583333Y-101026247D01*
X148583333Y-101026247D02*
X148535714Y-101216723D01*
X148535714Y-101216723D02*
X148488095Y-101311961D01*
X148488095Y-101311961D02*
X148392857Y-101407200D01*
X148392857Y-101407200D02*
X148250000Y-101454819D01*
X148250000Y-101454819D02*
X148011905Y-101454819D01*
X148964286Y-100550057D02*
X149011905Y-100502438D01*
X149011905Y-100502438D02*
X149107143Y-100454819D01*
X149107143Y-100454819D02*
X149345238Y-100454819D01*
X149345238Y-100454819D02*
X149440476Y-100502438D01*
X149440476Y-100502438D02*
X149488095Y-100550057D01*
X149488095Y-100550057D02*
X149535714Y-100645295D01*
X149535714Y-100645295D02*
X149535714Y-100740533D01*
X149535714Y-100740533D02*
X149488095Y-100883390D01*
X149488095Y-100883390D02*
X148916667Y-101454819D01*
X148916667Y-101454819D02*
X149535714Y-101454819D01*
X142833333Y-113109580D02*
X142785714Y-113157200D01*
X142785714Y-113157200D02*
X142642857Y-113204819D01*
X142642857Y-113204819D02*
X142547619Y-113204819D01*
X142547619Y-113204819D02*
X142404762Y-113157200D01*
X142404762Y-113157200D02*
X142309524Y-113061961D01*
X142309524Y-113061961D02*
X142261905Y-112966723D01*
X142261905Y-112966723D02*
X142214286Y-112776247D01*
X142214286Y-112776247D02*
X142214286Y-112633390D01*
X142214286Y-112633390D02*
X142261905Y-112442914D01*
X142261905Y-112442914D02*
X142309524Y-112347676D01*
X142309524Y-112347676D02*
X142404762Y-112252438D01*
X142404762Y-112252438D02*
X142547619Y-112204819D01*
X142547619Y-112204819D02*
X142642857Y-112204819D01*
X142642857Y-112204819D02*
X142785714Y-112252438D01*
X142785714Y-112252438D02*
X142833333Y-112300057D01*
X143738095Y-112204819D02*
X143261905Y-112204819D01*
X143261905Y-112204819D02*
X143214286Y-112681009D01*
X143214286Y-112681009D02*
X143261905Y-112633390D01*
X143261905Y-112633390D02*
X143357143Y-112585771D01*
X143357143Y-112585771D02*
X143595238Y-112585771D01*
X143595238Y-112585771D02*
X143690476Y-112633390D01*
X143690476Y-112633390D02*
X143738095Y-112681009D01*
X143738095Y-112681009D02*
X143785714Y-112776247D01*
X143785714Y-112776247D02*
X143785714Y-113014342D01*
X143785714Y-113014342D02*
X143738095Y-113109580D01*
X143738095Y-113109580D02*
X143690476Y-113157200D01*
X143690476Y-113157200D02*
X143595238Y-113204819D01*
X143595238Y-113204819D02*
X143357143Y-113204819D01*
X143357143Y-113204819D02*
X143261905Y-113157200D01*
X143261905Y-113157200D02*
X143214286Y-113109580D01*
X123333333Y-95204819D02*
X123000000Y-94728628D01*
X122761905Y-95204819D02*
X122761905Y-94204819D01*
X122761905Y-94204819D02*
X123142857Y-94204819D01*
X123142857Y-94204819D02*
X123238095Y-94252438D01*
X123238095Y-94252438D02*
X123285714Y-94300057D01*
X123285714Y-94300057D02*
X123333333Y-94395295D01*
X123333333Y-94395295D02*
X123333333Y-94538152D01*
X123333333Y-94538152D02*
X123285714Y-94633390D01*
X123285714Y-94633390D02*
X123238095Y-94681009D01*
X123238095Y-94681009D02*
X123142857Y-94728628D01*
X123142857Y-94728628D02*
X122761905Y-94728628D01*
X124285714Y-95204819D02*
X123714286Y-95204819D01*
X124000000Y-95204819D02*
X124000000Y-94204819D01*
X124000000Y-94204819D02*
X123904762Y-94347676D01*
X123904762Y-94347676D02*
X123809524Y-94442914D01*
X123809524Y-94442914D02*
X123714286Y-94490533D01*
X137357142Y-98859580D02*
X137309523Y-98907200D01*
X137309523Y-98907200D02*
X137166666Y-98954819D01*
X137166666Y-98954819D02*
X137071428Y-98954819D01*
X137071428Y-98954819D02*
X136928571Y-98907200D01*
X136928571Y-98907200D02*
X136833333Y-98811961D01*
X136833333Y-98811961D02*
X136785714Y-98716723D01*
X136785714Y-98716723D02*
X136738095Y-98526247D01*
X136738095Y-98526247D02*
X136738095Y-98383390D01*
X136738095Y-98383390D02*
X136785714Y-98192914D01*
X136785714Y-98192914D02*
X136833333Y-98097676D01*
X136833333Y-98097676D02*
X136928571Y-98002438D01*
X136928571Y-98002438D02*
X137071428Y-97954819D01*
X137071428Y-97954819D02*
X137166666Y-97954819D01*
X137166666Y-97954819D02*
X137309523Y-98002438D01*
X137309523Y-98002438D02*
X137357142Y-98050057D01*
X138309523Y-98954819D02*
X137738095Y-98954819D01*
X138023809Y-98954819D02*
X138023809Y-97954819D01*
X138023809Y-97954819D02*
X137928571Y-98097676D01*
X137928571Y-98097676D02*
X137833333Y-98192914D01*
X137833333Y-98192914D02*
X137738095Y-98240533D01*
X138642857Y-97954819D02*
X139261904Y-97954819D01*
X139261904Y-97954819D02*
X138928571Y-98335771D01*
X138928571Y-98335771D02*
X139071428Y-98335771D01*
X139071428Y-98335771D02*
X139166666Y-98383390D01*
X139166666Y-98383390D02*
X139214285Y-98431009D01*
X139214285Y-98431009D02*
X139261904Y-98526247D01*
X139261904Y-98526247D02*
X139261904Y-98764342D01*
X139261904Y-98764342D02*
X139214285Y-98859580D01*
X139214285Y-98859580D02*
X139166666Y-98907200D01*
X139166666Y-98907200D02*
X139071428Y-98954819D01*
X139071428Y-98954819D02*
X138785714Y-98954819D01*
X138785714Y-98954819D02*
X138690476Y-98907200D01*
X138690476Y-98907200D02*
X138642857Y-98859580D01*
X122607142Y-99359580D02*
X122559523Y-99407200D01*
X122559523Y-99407200D02*
X122416666Y-99454819D01*
X122416666Y-99454819D02*
X122321428Y-99454819D01*
X122321428Y-99454819D02*
X122178571Y-99407200D01*
X122178571Y-99407200D02*
X122083333Y-99311961D01*
X122083333Y-99311961D02*
X122035714Y-99216723D01*
X122035714Y-99216723D02*
X121988095Y-99026247D01*
X121988095Y-99026247D02*
X121988095Y-98883390D01*
X121988095Y-98883390D02*
X122035714Y-98692914D01*
X122035714Y-98692914D02*
X122083333Y-98597676D01*
X122083333Y-98597676D02*
X122178571Y-98502438D01*
X122178571Y-98502438D02*
X122321428Y-98454819D01*
X122321428Y-98454819D02*
X122416666Y-98454819D01*
X122416666Y-98454819D02*
X122559523Y-98502438D01*
X122559523Y-98502438D02*
X122607142Y-98550057D01*
X123559523Y-99454819D02*
X122988095Y-99454819D01*
X123273809Y-99454819D02*
X123273809Y-98454819D01*
X123273809Y-98454819D02*
X123178571Y-98597676D01*
X123178571Y-98597676D02*
X123083333Y-98692914D01*
X123083333Y-98692914D02*
X122988095Y-98740533D01*
X123940476Y-98550057D02*
X123988095Y-98502438D01*
X123988095Y-98502438D02*
X124083333Y-98454819D01*
X124083333Y-98454819D02*
X124321428Y-98454819D01*
X124321428Y-98454819D02*
X124416666Y-98502438D01*
X124416666Y-98502438D02*
X124464285Y-98550057D01*
X124464285Y-98550057D02*
X124511904Y-98645295D01*
X124511904Y-98645295D02*
X124511904Y-98740533D01*
X124511904Y-98740533D02*
X124464285Y-98883390D01*
X124464285Y-98883390D02*
X123892857Y-99454819D01*
X123892857Y-99454819D02*
X124511904Y-99454819D01*
X142666667Y-121157200D02*
X142809524Y-121204819D01*
X142809524Y-121204819D02*
X143047619Y-121204819D01*
X143047619Y-121204819D02*
X143142857Y-121157200D01*
X143142857Y-121157200D02*
X143190476Y-121109580D01*
X143190476Y-121109580D02*
X143238095Y-121014342D01*
X143238095Y-121014342D02*
X143238095Y-120919104D01*
X143238095Y-120919104D02*
X143190476Y-120823866D01*
X143190476Y-120823866D02*
X143142857Y-120776247D01*
X143142857Y-120776247D02*
X143047619Y-120728628D01*
X143047619Y-120728628D02*
X142857143Y-120681009D01*
X142857143Y-120681009D02*
X142761905Y-120633390D01*
X142761905Y-120633390D02*
X142714286Y-120585771D01*
X142714286Y-120585771D02*
X142666667Y-120490533D01*
X142666667Y-120490533D02*
X142666667Y-120395295D01*
X142666667Y-120395295D02*
X142714286Y-120300057D01*
X142714286Y-120300057D02*
X142761905Y-120252438D01*
X142761905Y-120252438D02*
X142857143Y-120204819D01*
X142857143Y-120204819D02*
X143095238Y-120204819D01*
X143095238Y-120204819D02*
X143238095Y-120252438D01*
X143571429Y-120204819D02*
X143809524Y-121204819D01*
X143809524Y-121204819D02*
X144000000Y-120490533D01*
X144000000Y-120490533D02*
X144190476Y-121204819D01*
X144190476Y-121204819D02*
X144428572Y-120204819D01*
X145333333Y-121204819D02*
X144761905Y-121204819D01*
X145047619Y-121204819D02*
X145047619Y-120204819D01*
X145047619Y-120204819D02*
X144952381Y-120347676D01*
X144952381Y-120347676D02*
X144857143Y-120442914D01*
X144857143Y-120442914D02*
X144761905Y-120490533D01*
X146874819Y-98416666D02*
X146398628Y-98749999D01*
X146874819Y-98988094D02*
X145874819Y-98988094D01*
X145874819Y-98988094D02*
X145874819Y-98607142D01*
X145874819Y-98607142D02*
X145922438Y-98511904D01*
X145922438Y-98511904D02*
X145970057Y-98464285D01*
X145970057Y-98464285D02*
X146065295Y-98416666D01*
X146065295Y-98416666D02*
X146208152Y-98416666D01*
X146208152Y-98416666D02*
X146303390Y-98464285D01*
X146303390Y-98464285D02*
X146351009Y-98511904D01*
X146351009Y-98511904D02*
X146398628Y-98607142D01*
X146398628Y-98607142D02*
X146398628Y-98988094D01*
X146874819Y-97940475D02*
X146874819Y-97749999D01*
X146874819Y-97749999D02*
X146827200Y-97654761D01*
X146827200Y-97654761D02*
X146779580Y-97607142D01*
X146779580Y-97607142D02*
X146636723Y-97511904D01*
X146636723Y-97511904D02*
X146446247Y-97464285D01*
X146446247Y-97464285D02*
X146065295Y-97464285D01*
X146065295Y-97464285D02*
X145970057Y-97511904D01*
X145970057Y-97511904D02*
X145922438Y-97559523D01*
X145922438Y-97559523D02*
X145874819Y-97654761D01*
X145874819Y-97654761D02*
X145874819Y-97845237D01*
X145874819Y-97845237D02*
X145922438Y-97940475D01*
X145922438Y-97940475D02*
X145970057Y-97988094D01*
X145970057Y-97988094D02*
X146065295Y-98035713D01*
X146065295Y-98035713D02*
X146303390Y-98035713D01*
X146303390Y-98035713D02*
X146398628Y-97988094D01*
X146398628Y-97988094D02*
X146446247Y-97940475D01*
X146446247Y-97940475D02*
X146493866Y-97845237D01*
X146493866Y-97845237D02*
X146493866Y-97654761D01*
X146493866Y-97654761D02*
X146446247Y-97559523D01*
X146446247Y-97559523D02*
X146398628Y-97511904D01*
X146398628Y-97511904D02*
X146303390Y-97464285D01*
X145833333Y-106859580D02*
X145785714Y-106907200D01*
X145785714Y-106907200D02*
X145642857Y-106954819D01*
X145642857Y-106954819D02*
X145547619Y-106954819D01*
X145547619Y-106954819D02*
X145404762Y-106907200D01*
X145404762Y-106907200D02*
X145309524Y-106811961D01*
X145309524Y-106811961D02*
X145261905Y-106716723D01*
X145261905Y-106716723D02*
X145214286Y-106526247D01*
X145214286Y-106526247D02*
X145214286Y-106383390D01*
X145214286Y-106383390D02*
X145261905Y-106192914D01*
X145261905Y-106192914D02*
X145309524Y-106097676D01*
X145309524Y-106097676D02*
X145404762Y-106002438D01*
X145404762Y-106002438D02*
X145547619Y-105954819D01*
X145547619Y-105954819D02*
X145642857Y-105954819D01*
X145642857Y-105954819D02*
X145785714Y-106002438D01*
X145785714Y-106002438D02*
X145833333Y-106050057D01*
X146404762Y-106383390D02*
X146309524Y-106335771D01*
X146309524Y-106335771D02*
X146261905Y-106288152D01*
X146261905Y-106288152D02*
X146214286Y-106192914D01*
X146214286Y-106192914D02*
X146214286Y-106145295D01*
X146214286Y-106145295D02*
X146261905Y-106050057D01*
X146261905Y-106050057D02*
X146309524Y-106002438D01*
X146309524Y-106002438D02*
X146404762Y-105954819D01*
X146404762Y-105954819D02*
X146595238Y-105954819D01*
X146595238Y-105954819D02*
X146690476Y-106002438D01*
X146690476Y-106002438D02*
X146738095Y-106050057D01*
X146738095Y-106050057D02*
X146785714Y-106145295D01*
X146785714Y-106145295D02*
X146785714Y-106192914D01*
X146785714Y-106192914D02*
X146738095Y-106288152D01*
X146738095Y-106288152D02*
X146690476Y-106335771D01*
X146690476Y-106335771D02*
X146595238Y-106383390D01*
X146595238Y-106383390D02*
X146404762Y-106383390D01*
X146404762Y-106383390D02*
X146309524Y-106431009D01*
X146309524Y-106431009D02*
X146261905Y-106478628D01*
X146261905Y-106478628D02*
X146214286Y-106573866D01*
X146214286Y-106573866D02*
X146214286Y-106764342D01*
X146214286Y-106764342D02*
X146261905Y-106859580D01*
X146261905Y-106859580D02*
X146309524Y-106907200D01*
X146309524Y-106907200D02*
X146404762Y-106954819D01*
X146404762Y-106954819D02*
X146595238Y-106954819D01*
X146595238Y-106954819D02*
X146690476Y-106907200D01*
X146690476Y-106907200D02*
X146738095Y-106859580D01*
X146738095Y-106859580D02*
X146785714Y-106764342D01*
X146785714Y-106764342D02*
X146785714Y-106573866D01*
X146785714Y-106573866D02*
X146738095Y-106478628D01*
X146738095Y-106478628D02*
X146690476Y-106431009D01*
X146690476Y-106431009D02*
X146595238Y-106383390D01*
X124166666Y-110431009D02*
X123833333Y-110431009D01*
X123833333Y-110954819D02*
X123833333Y-109954819D01*
X123833333Y-109954819D02*
X124309523Y-109954819D01*
X125023809Y-110431009D02*
X125166666Y-110478628D01*
X125166666Y-110478628D02*
X125214285Y-110526247D01*
X125214285Y-110526247D02*
X125261904Y-110621485D01*
X125261904Y-110621485D02*
X125261904Y-110764342D01*
X125261904Y-110764342D02*
X125214285Y-110859580D01*
X125214285Y-110859580D02*
X125166666Y-110907200D01*
X125166666Y-110907200D02*
X125071428Y-110954819D01*
X125071428Y-110954819D02*
X124690476Y-110954819D01*
X124690476Y-110954819D02*
X124690476Y-109954819D01*
X124690476Y-109954819D02*
X125023809Y-109954819D01*
X125023809Y-109954819D02*
X125119047Y-110002438D01*
X125119047Y-110002438D02*
X125166666Y-110050057D01*
X125166666Y-110050057D02*
X125214285Y-110145295D01*
X125214285Y-110145295D02*
X125214285Y-110240533D01*
X125214285Y-110240533D02*
X125166666Y-110335771D01*
X125166666Y-110335771D02*
X125119047Y-110383390D01*
X125119047Y-110383390D02*
X125023809Y-110431009D01*
X125023809Y-110431009D02*
X124690476Y-110431009D01*
X125595238Y-109954819D02*
X126214285Y-109954819D01*
X126214285Y-109954819D02*
X125880952Y-110335771D01*
X125880952Y-110335771D02*
X126023809Y-110335771D01*
X126023809Y-110335771D02*
X126119047Y-110383390D01*
X126119047Y-110383390D02*
X126166666Y-110431009D01*
X126166666Y-110431009D02*
X126214285Y-110526247D01*
X126214285Y-110526247D02*
X126214285Y-110764342D01*
X126214285Y-110764342D02*
X126166666Y-110859580D01*
X126166666Y-110859580D02*
X126119047Y-110907200D01*
X126119047Y-110907200D02*
X126023809Y-110954819D01*
X126023809Y-110954819D02*
X125738095Y-110954819D01*
X125738095Y-110954819D02*
X125642857Y-110907200D01*
X125642857Y-110907200D02*
X125595238Y-110859580D01*
X136833333Y-105359580D02*
X136785714Y-105407200D01*
X136785714Y-105407200D02*
X136642857Y-105454819D01*
X136642857Y-105454819D02*
X136547619Y-105454819D01*
X136547619Y-105454819D02*
X136404762Y-105407200D01*
X136404762Y-105407200D02*
X136309524Y-105311961D01*
X136309524Y-105311961D02*
X136261905Y-105216723D01*
X136261905Y-105216723D02*
X136214286Y-105026247D01*
X136214286Y-105026247D02*
X136214286Y-104883390D01*
X136214286Y-104883390D02*
X136261905Y-104692914D01*
X136261905Y-104692914D02*
X136309524Y-104597676D01*
X136309524Y-104597676D02*
X136404762Y-104502438D01*
X136404762Y-104502438D02*
X136547619Y-104454819D01*
X136547619Y-104454819D02*
X136642857Y-104454819D01*
X136642857Y-104454819D02*
X136785714Y-104502438D01*
X136785714Y-104502438D02*
X136833333Y-104550057D01*
X137166667Y-104454819D02*
X137833333Y-104454819D01*
X137833333Y-104454819D02*
X137404762Y-105454819D01*
X112916666Y-114954819D02*
X112916666Y-115669104D01*
X112916666Y-115669104D02*
X112869047Y-115811961D01*
X112869047Y-115811961D02*
X112773809Y-115907200D01*
X112773809Y-115907200D02*
X112630952Y-115954819D01*
X112630952Y-115954819D02*
X112535714Y-115954819D01*
X113440476Y-115954819D02*
X113630952Y-115954819D01*
X113630952Y-115954819D02*
X113726190Y-115907200D01*
X113726190Y-115907200D02*
X113773809Y-115859580D01*
X113773809Y-115859580D02*
X113869047Y-115716723D01*
X113869047Y-115716723D02*
X113916666Y-115526247D01*
X113916666Y-115526247D02*
X113916666Y-115145295D01*
X113916666Y-115145295D02*
X113869047Y-115050057D01*
X113869047Y-115050057D02*
X113821428Y-115002438D01*
X113821428Y-115002438D02*
X113726190Y-114954819D01*
X113726190Y-114954819D02*
X113535714Y-114954819D01*
X113535714Y-114954819D02*
X113440476Y-115002438D01*
X113440476Y-115002438D02*
X113392857Y-115050057D01*
X113392857Y-115050057D02*
X113345238Y-115145295D01*
X113345238Y-115145295D02*
X113345238Y-115383390D01*
X113345238Y-115383390D02*
X113392857Y-115478628D01*
X113392857Y-115478628D02*
X113440476Y-115526247D01*
X113440476Y-115526247D02*
X113535714Y-115573866D01*
X113535714Y-115573866D02*
X113726190Y-115573866D01*
X113726190Y-115573866D02*
X113821428Y-115526247D01*
X113821428Y-115526247D02*
X113869047Y-115478628D01*
X113869047Y-115478628D02*
X113916666Y-115383390D01*
X152916666Y-93306819D02*
X152916666Y-94021104D01*
X152916666Y-94021104D02*
X152869047Y-94163961D01*
X152869047Y-94163961D02*
X152773809Y-94259200D01*
X152773809Y-94259200D02*
X152630952Y-94306819D01*
X152630952Y-94306819D02*
X152535714Y-94306819D01*
X153535714Y-93735390D02*
X153440476Y-93687771D01*
X153440476Y-93687771D02*
X153392857Y-93640152D01*
X153392857Y-93640152D02*
X153345238Y-93544914D01*
X153345238Y-93544914D02*
X153345238Y-93497295D01*
X153345238Y-93497295D02*
X153392857Y-93402057D01*
X153392857Y-93402057D02*
X153440476Y-93354438D01*
X153440476Y-93354438D02*
X153535714Y-93306819D01*
X153535714Y-93306819D02*
X153726190Y-93306819D01*
X153726190Y-93306819D02*
X153821428Y-93354438D01*
X153821428Y-93354438D02*
X153869047Y-93402057D01*
X153869047Y-93402057D02*
X153916666Y-93497295D01*
X153916666Y-93497295D02*
X153916666Y-93544914D01*
X153916666Y-93544914D02*
X153869047Y-93640152D01*
X153869047Y-93640152D02*
X153821428Y-93687771D01*
X153821428Y-93687771D02*
X153726190Y-93735390D01*
X153726190Y-93735390D02*
X153535714Y-93735390D01*
X153535714Y-93735390D02*
X153440476Y-93783009D01*
X153440476Y-93783009D02*
X153392857Y-93830628D01*
X153392857Y-93830628D02*
X153345238Y-93925866D01*
X153345238Y-93925866D02*
X153345238Y-94116342D01*
X153345238Y-94116342D02*
X153392857Y-94211580D01*
X153392857Y-94211580D02*
X153440476Y-94259200D01*
X153440476Y-94259200D02*
X153535714Y-94306819D01*
X153535714Y-94306819D02*
X153726190Y-94306819D01*
X153726190Y-94306819D02*
X153821428Y-94259200D01*
X153821428Y-94259200D02*
X153869047Y-94211580D01*
X153869047Y-94211580D02*
X153916666Y-94116342D01*
X153916666Y-94116342D02*
X153916666Y-93925866D01*
X153916666Y-93925866D02*
X153869047Y-93830628D01*
X153869047Y-93830628D02*
X153821428Y-93783009D01*
X153821428Y-93783009D02*
X153726190Y-93735390D01*
X118666666Y-108704819D02*
X118666666Y-109419104D01*
X118666666Y-109419104D02*
X118619047Y-109561961D01*
X118619047Y-109561961D02*
X118523809Y-109657200D01*
X118523809Y-109657200D02*
X118380952Y-109704819D01*
X118380952Y-109704819D02*
X118285714Y-109704819D01*
X119666666Y-109704819D02*
X119095238Y-109704819D01*
X119380952Y-109704819D02*
X119380952Y-108704819D01*
X119380952Y-108704819D02*
X119285714Y-108847676D01*
X119285714Y-108847676D02*
X119190476Y-108942914D01*
X119190476Y-108942914D02*
X119095238Y-108990533D01*
X137083333Y-111319580D02*
X137035714Y-111367200D01*
X137035714Y-111367200D02*
X136892857Y-111414819D01*
X136892857Y-111414819D02*
X136797619Y-111414819D01*
X136797619Y-111414819D02*
X136654762Y-111367200D01*
X136654762Y-111367200D02*
X136559524Y-111271961D01*
X136559524Y-111271961D02*
X136511905Y-111176723D01*
X136511905Y-111176723D02*
X136464286Y-110986247D01*
X136464286Y-110986247D02*
X136464286Y-110843390D01*
X136464286Y-110843390D02*
X136511905Y-110652914D01*
X136511905Y-110652914D02*
X136559524Y-110557676D01*
X136559524Y-110557676D02*
X136654762Y-110462438D01*
X136654762Y-110462438D02*
X136797619Y-110414819D01*
X136797619Y-110414819D02*
X136892857Y-110414819D01*
X136892857Y-110414819D02*
X137035714Y-110462438D01*
X137035714Y-110462438D02*
X137083333Y-110510057D01*
X137940476Y-110414819D02*
X137750000Y-110414819D01*
X137750000Y-110414819D02*
X137654762Y-110462438D01*
X137654762Y-110462438D02*
X137607143Y-110510057D01*
X137607143Y-110510057D02*
X137511905Y-110652914D01*
X137511905Y-110652914D02*
X137464286Y-110843390D01*
X137464286Y-110843390D02*
X137464286Y-111224342D01*
X137464286Y-111224342D02*
X137511905Y-111319580D01*
X137511905Y-111319580D02*
X137559524Y-111367200D01*
X137559524Y-111367200D02*
X137654762Y-111414819D01*
X137654762Y-111414819D02*
X137845238Y-111414819D01*
X137845238Y-111414819D02*
X137940476Y-111367200D01*
X137940476Y-111367200D02*
X137988095Y-111319580D01*
X137988095Y-111319580D02*
X138035714Y-111224342D01*
X138035714Y-111224342D02*
X138035714Y-110986247D01*
X138035714Y-110986247D02*
X137988095Y-110891009D01*
X137988095Y-110891009D02*
X137940476Y-110843390D01*
X137940476Y-110843390D02*
X137845238Y-110795771D01*
X137845238Y-110795771D02*
X137654762Y-110795771D01*
X137654762Y-110795771D02*
X137559524Y-110843390D01*
X137559524Y-110843390D02*
X137511905Y-110891009D01*
X137511905Y-110891009D02*
X137464286Y-110986247D01*
X135083333Y-95224819D02*
X134750000Y-94748628D01*
X134511905Y-95224819D02*
X134511905Y-94224819D01*
X134511905Y-94224819D02*
X134892857Y-94224819D01*
X134892857Y-94224819D02*
X134988095Y-94272438D01*
X134988095Y-94272438D02*
X135035714Y-94320057D01*
X135035714Y-94320057D02*
X135083333Y-94415295D01*
X135083333Y-94415295D02*
X135083333Y-94558152D01*
X135083333Y-94558152D02*
X135035714Y-94653390D01*
X135035714Y-94653390D02*
X134988095Y-94701009D01*
X134988095Y-94701009D02*
X134892857Y-94748628D01*
X134892857Y-94748628D02*
X134511905Y-94748628D01*
X135416667Y-94224819D02*
X136083333Y-94224819D01*
X136083333Y-94224819D02*
X135654762Y-95224819D01*
X138333333Y-102954819D02*
X138000000Y-102478628D01*
X137761905Y-102954819D02*
X137761905Y-101954819D01*
X137761905Y-101954819D02*
X138142857Y-101954819D01*
X138142857Y-101954819D02*
X138238095Y-102002438D01*
X138238095Y-102002438D02*
X138285714Y-102050057D01*
X138285714Y-102050057D02*
X138333333Y-102145295D01*
X138333333Y-102145295D02*
X138333333Y-102288152D01*
X138333333Y-102288152D02*
X138285714Y-102383390D01*
X138285714Y-102383390D02*
X138238095Y-102431009D01*
X138238095Y-102431009D02*
X138142857Y-102478628D01*
X138142857Y-102478628D02*
X137761905Y-102478628D01*
X139238095Y-101954819D02*
X138761905Y-101954819D01*
X138761905Y-101954819D02*
X138714286Y-102431009D01*
X138714286Y-102431009D02*
X138761905Y-102383390D01*
X138761905Y-102383390D02*
X138857143Y-102335771D01*
X138857143Y-102335771D02*
X139095238Y-102335771D01*
X139095238Y-102335771D02*
X139190476Y-102383390D01*
X139190476Y-102383390D02*
X139238095Y-102431009D01*
X139238095Y-102431009D02*
X139285714Y-102526247D01*
X139285714Y-102526247D02*
X139285714Y-102764342D01*
X139285714Y-102764342D02*
X139238095Y-102859580D01*
X139238095Y-102859580D02*
X139190476Y-102907200D01*
X139190476Y-102907200D02*
X139095238Y-102954819D01*
X139095238Y-102954819D02*
X138857143Y-102954819D01*
X138857143Y-102954819D02*
X138761905Y-102907200D01*
X138761905Y-102907200D02*
X138714286Y-102859580D01*
X124600000Y-100572842D02*
X124557143Y-100615700D01*
X124557143Y-100615700D02*
X124428571Y-100658557D01*
X124428571Y-100658557D02*
X124342857Y-100658557D01*
X124342857Y-100658557D02*
X124214286Y-100615700D01*
X124214286Y-100615700D02*
X124128571Y-100529985D01*
X124128571Y-100529985D02*
X124085714Y-100444271D01*
X124085714Y-100444271D02*
X124042857Y-100272842D01*
X124042857Y-100272842D02*
X124042857Y-100144271D01*
X124042857Y-100144271D02*
X124085714Y-99972842D01*
X124085714Y-99972842D02*
X124128571Y-99887128D01*
X124128571Y-99887128D02*
X124214286Y-99801414D01*
X124214286Y-99801414D02*
X124342857Y-99758557D01*
X124342857Y-99758557D02*
X124428571Y-99758557D01*
X124428571Y-99758557D02*
X124557143Y-99801414D01*
X124557143Y-99801414D02*
X124600000Y-99844271D01*
X124900000Y-99758557D02*
X125457143Y-99758557D01*
X125457143Y-99758557D02*
X125157143Y-100101414D01*
X125157143Y-100101414D02*
X125285714Y-100101414D01*
X125285714Y-100101414D02*
X125371429Y-100144271D01*
X125371429Y-100144271D02*
X125414286Y-100187128D01*
X125414286Y-100187128D02*
X125457143Y-100272842D01*
X125457143Y-100272842D02*
X125457143Y-100487128D01*
X125457143Y-100487128D02*
X125414286Y-100572842D01*
X125414286Y-100572842D02*
X125371429Y-100615700D01*
X125371429Y-100615700D02*
X125285714Y-100658557D01*
X125285714Y-100658557D02*
X125028571Y-100658557D01*
X125028571Y-100658557D02*
X124942857Y-100615700D01*
X124942857Y-100615700D02*
X124900000Y-100572842D01*
X114666666Y-92954819D02*
X114666666Y-93669104D01*
X114666666Y-93669104D02*
X114619047Y-93811961D01*
X114619047Y-93811961D02*
X114523809Y-93907200D01*
X114523809Y-93907200D02*
X114380952Y-93954819D01*
X114380952Y-93954819D02*
X114285714Y-93954819D01*
X115047619Y-92954819D02*
X115666666Y-92954819D01*
X115666666Y-92954819D02*
X115333333Y-93335771D01*
X115333333Y-93335771D02*
X115476190Y-93335771D01*
X115476190Y-93335771D02*
X115571428Y-93383390D01*
X115571428Y-93383390D02*
X115619047Y-93431009D01*
X115619047Y-93431009D02*
X115666666Y-93526247D01*
X115666666Y-93526247D02*
X115666666Y-93764342D01*
X115666666Y-93764342D02*
X115619047Y-93859580D01*
X115619047Y-93859580D02*
X115571428Y-93907200D01*
X115571428Y-93907200D02*
X115476190Y-93954819D01*
X115476190Y-93954819D02*
X115190476Y-93954819D01*
X115190476Y-93954819D02*
X115095238Y-93907200D01*
X115095238Y-93907200D02*
X115047619Y-93859580D01*
X115857142Y-109359580D02*
X115809523Y-109407200D01*
X115809523Y-109407200D02*
X115666666Y-109454819D01*
X115666666Y-109454819D02*
X115571428Y-109454819D01*
X115571428Y-109454819D02*
X115428571Y-109407200D01*
X115428571Y-109407200D02*
X115333333Y-109311961D01*
X115333333Y-109311961D02*
X115285714Y-109216723D01*
X115285714Y-109216723D02*
X115238095Y-109026247D01*
X115238095Y-109026247D02*
X115238095Y-108883390D01*
X115238095Y-108883390D02*
X115285714Y-108692914D01*
X115285714Y-108692914D02*
X115333333Y-108597676D01*
X115333333Y-108597676D02*
X115428571Y-108502438D01*
X115428571Y-108502438D02*
X115571428Y-108454819D01*
X115571428Y-108454819D02*
X115666666Y-108454819D01*
X115666666Y-108454819D02*
X115809523Y-108502438D01*
X115809523Y-108502438D02*
X115857142Y-108550057D01*
X116809523Y-109454819D02*
X116238095Y-109454819D01*
X116523809Y-109454819D02*
X116523809Y-108454819D01*
X116523809Y-108454819D02*
X116428571Y-108597676D01*
X116428571Y-108597676D02*
X116333333Y-108692914D01*
X116333333Y-108692914D02*
X116238095Y-108740533D01*
X117380952Y-108883390D02*
X117285714Y-108835771D01*
X117285714Y-108835771D02*
X117238095Y-108788152D01*
X117238095Y-108788152D02*
X117190476Y-108692914D01*
X117190476Y-108692914D02*
X117190476Y-108645295D01*
X117190476Y-108645295D02*
X117238095Y-108550057D01*
X117238095Y-108550057D02*
X117285714Y-108502438D01*
X117285714Y-108502438D02*
X117380952Y-108454819D01*
X117380952Y-108454819D02*
X117571428Y-108454819D01*
X117571428Y-108454819D02*
X117666666Y-108502438D01*
X117666666Y-108502438D02*
X117714285Y-108550057D01*
X117714285Y-108550057D02*
X117761904Y-108645295D01*
X117761904Y-108645295D02*
X117761904Y-108692914D01*
X117761904Y-108692914D02*
X117714285Y-108788152D01*
X117714285Y-108788152D02*
X117666666Y-108835771D01*
X117666666Y-108835771D02*
X117571428Y-108883390D01*
X117571428Y-108883390D02*
X117380952Y-108883390D01*
X117380952Y-108883390D02*
X117285714Y-108931009D01*
X117285714Y-108931009D02*
X117238095Y-108978628D01*
X117238095Y-108978628D02*
X117190476Y-109073866D01*
X117190476Y-109073866D02*
X117190476Y-109264342D01*
X117190476Y-109264342D02*
X117238095Y-109359580D01*
X117238095Y-109359580D02*
X117285714Y-109407200D01*
X117285714Y-109407200D02*
X117380952Y-109454819D01*
X117380952Y-109454819D02*
X117571428Y-109454819D01*
X117571428Y-109454819D02*
X117666666Y-109407200D01*
X117666666Y-109407200D02*
X117714285Y-109359580D01*
X117714285Y-109359580D02*
X117761904Y-109264342D01*
X117761904Y-109264342D02*
X117761904Y-109073866D01*
X117761904Y-109073866D02*
X117714285Y-108978628D01*
X117714285Y-108978628D02*
X117666666Y-108931009D01*
X117666666Y-108931009D02*
X117571428Y-108883390D01*
X150607142Y-109454819D02*
X150273809Y-108978628D01*
X150035714Y-109454819D02*
X150035714Y-108454819D01*
X150035714Y-108454819D02*
X150416666Y-108454819D01*
X150416666Y-108454819D02*
X150511904Y-108502438D01*
X150511904Y-108502438D02*
X150559523Y-108550057D01*
X150559523Y-108550057D02*
X150607142Y-108645295D01*
X150607142Y-108645295D02*
X150607142Y-108788152D01*
X150607142Y-108788152D02*
X150559523Y-108883390D01*
X150559523Y-108883390D02*
X150511904Y-108931009D01*
X150511904Y-108931009D02*
X150416666Y-108978628D01*
X150416666Y-108978628D02*
X150035714Y-108978628D01*
X151559523Y-109454819D02*
X150988095Y-109454819D01*
X151273809Y-109454819D02*
X151273809Y-108454819D01*
X151273809Y-108454819D02*
X151178571Y-108597676D01*
X151178571Y-108597676D02*
X151083333Y-108692914D01*
X151083333Y-108692914D02*
X150988095Y-108740533D01*
X152511904Y-109454819D02*
X151940476Y-109454819D01*
X152226190Y-109454819D02*
X152226190Y-108454819D01*
X152226190Y-108454819D02*
X152130952Y-108597676D01*
X152130952Y-108597676D02*
X152035714Y-108692914D01*
X152035714Y-108692914D02*
X151940476Y-108740533D01*
X133333333Y-94214819D02*
X133000000Y-93738628D01*
X132761905Y-94214819D02*
X132761905Y-93214819D01*
X132761905Y-93214819D02*
X133142857Y-93214819D01*
X133142857Y-93214819D02*
X133238095Y-93262438D01*
X133238095Y-93262438D02*
X133285714Y-93310057D01*
X133285714Y-93310057D02*
X133333333Y-93405295D01*
X133333333Y-93405295D02*
X133333333Y-93548152D01*
X133333333Y-93548152D02*
X133285714Y-93643390D01*
X133285714Y-93643390D02*
X133238095Y-93691009D01*
X133238095Y-93691009D02*
X133142857Y-93738628D01*
X133142857Y-93738628D02*
X132761905Y-93738628D01*
X133904762Y-93643390D02*
X133809524Y-93595771D01*
X133809524Y-93595771D02*
X133761905Y-93548152D01*
X133761905Y-93548152D02*
X133714286Y-93452914D01*
X133714286Y-93452914D02*
X133714286Y-93405295D01*
X133714286Y-93405295D02*
X133761905Y-93310057D01*
X133761905Y-93310057D02*
X133809524Y-93262438D01*
X133809524Y-93262438D02*
X133904762Y-93214819D01*
X133904762Y-93214819D02*
X134095238Y-93214819D01*
X134095238Y-93214819D02*
X134190476Y-93262438D01*
X134190476Y-93262438D02*
X134238095Y-93310057D01*
X134238095Y-93310057D02*
X134285714Y-93405295D01*
X134285714Y-93405295D02*
X134285714Y-93452914D01*
X134285714Y-93452914D02*
X134238095Y-93548152D01*
X134238095Y-93548152D02*
X134190476Y-93595771D01*
X134190476Y-93595771D02*
X134095238Y-93643390D01*
X134095238Y-93643390D02*
X133904762Y-93643390D01*
X133904762Y-93643390D02*
X133809524Y-93691009D01*
X133809524Y-93691009D02*
X133761905Y-93738628D01*
X133761905Y-93738628D02*
X133714286Y-93833866D01*
X133714286Y-93833866D02*
X133714286Y-94024342D01*
X133714286Y-94024342D02*
X133761905Y-94119580D01*
X133761905Y-94119580D02*
X133809524Y-94167200D01*
X133809524Y-94167200D02*
X133904762Y-94214819D01*
X133904762Y-94214819D02*
X134095238Y-94214819D01*
X134095238Y-94214819D02*
X134190476Y-94167200D01*
X134190476Y-94167200D02*
X134238095Y-94119580D01*
X134238095Y-94119580D02*
X134285714Y-94024342D01*
X134285714Y-94024342D02*
X134285714Y-93833866D01*
X134285714Y-93833866D02*
X134238095Y-93738628D01*
X134238095Y-93738628D02*
X134190476Y-93691009D01*
X134190476Y-93691009D02*
X134095238Y-93643390D01*
X121357142Y-105359580D02*
X121309523Y-105407200D01*
X121309523Y-105407200D02*
X121166666Y-105454819D01*
X121166666Y-105454819D02*
X121071428Y-105454819D01*
X121071428Y-105454819D02*
X120928571Y-105407200D01*
X120928571Y-105407200D02*
X120833333Y-105311961D01*
X120833333Y-105311961D02*
X120785714Y-105216723D01*
X120785714Y-105216723D02*
X120738095Y-105026247D01*
X120738095Y-105026247D02*
X120738095Y-104883390D01*
X120738095Y-104883390D02*
X120785714Y-104692914D01*
X120785714Y-104692914D02*
X120833333Y-104597676D01*
X120833333Y-104597676D02*
X120928571Y-104502438D01*
X120928571Y-104502438D02*
X121071428Y-104454819D01*
X121071428Y-104454819D02*
X121166666Y-104454819D01*
X121166666Y-104454819D02*
X121309523Y-104502438D01*
X121309523Y-104502438D02*
X121357142Y-104550057D01*
X121738095Y-104550057D02*
X121785714Y-104502438D01*
X121785714Y-104502438D02*
X121880952Y-104454819D01*
X121880952Y-104454819D02*
X122119047Y-104454819D01*
X122119047Y-104454819D02*
X122214285Y-104502438D01*
X122214285Y-104502438D02*
X122261904Y-104550057D01*
X122261904Y-104550057D02*
X122309523Y-104645295D01*
X122309523Y-104645295D02*
X122309523Y-104740533D01*
X122309523Y-104740533D02*
X122261904Y-104883390D01*
X122261904Y-104883390D02*
X121690476Y-105454819D01*
X121690476Y-105454819D02*
X122309523Y-105454819D01*
X122928571Y-104454819D02*
X123023809Y-104454819D01*
X123023809Y-104454819D02*
X123119047Y-104502438D01*
X123119047Y-104502438D02*
X123166666Y-104550057D01*
X123166666Y-104550057D02*
X123214285Y-104645295D01*
X123214285Y-104645295D02*
X123261904Y-104835771D01*
X123261904Y-104835771D02*
X123261904Y-105073866D01*
X123261904Y-105073866D02*
X123214285Y-105264342D01*
X123214285Y-105264342D02*
X123166666Y-105359580D01*
X123166666Y-105359580D02*
X123119047Y-105407200D01*
X123119047Y-105407200D02*
X123023809Y-105454819D01*
X123023809Y-105454819D02*
X122928571Y-105454819D01*
X122928571Y-105454819D02*
X122833333Y-105407200D01*
X122833333Y-105407200D02*
X122785714Y-105359580D01*
X122785714Y-105359580D02*
X122738095Y-105264342D01*
X122738095Y-105264342D02*
X122690476Y-105073866D01*
X122690476Y-105073866D02*
X122690476Y-104835771D01*
X122690476Y-104835771D02*
X122738095Y-104645295D01*
X122738095Y-104645295D02*
X122785714Y-104550057D01*
X122785714Y-104550057D02*
X122833333Y-104502438D01*
X122833333Y-104502438D02*
X122928571Y-104454819D01*
X138738095Y-99204819D02*
X138738095Y-100014342D01*
X138738095Y-100014342D02*
X138785714Y-100109580D01*
X138785714Y-100109580D02*
X138833333Y-100157200D01*
X138833333Y-100157200D02*
X138928571Y-100204819D01*
X138928571Y-100204819D02*
X139119047Y-100204819D01*
X139119047Y-100204819D02*
X139214285Y-100157200D01*
X139214285Y-100157200D02*
X139261904Y-100109580D01*
X139261904Y-100109580D02*
X139309523Y-100014342D01*
X139309523Y-100014342D02*
X139309523Y-99204819D01*
X140261904Y-99204819D02*
X139785714Y-99204819D01*
X139785714Y-99204819D02*
X139738095Y-99681009D01*
X139738095Y-99681009D02*
X139785714Y-99633390D01*
X139785714Y-99633390D02*
X139880952Y-99585771D01*
X139880952Y-99585771D02*
X140119047Y-99585771D01*
X140119047Y-99585771D02*
X140214285Y-99633390D01*
X140214285Y-99633390D02*
X140261904Y-99681009D01*
X140261904Y-99681009D02*
X140309523Y-99776247D01*
X140309523Y-99776247D02*
X140309523Y-100014342D01*
X140309523Y-100014342D02*
X140261904Y-100109580D01*
X140261904Y-100109580D02*
X140214285Y-100157200D01*
X140214285Y-100157200D02*
X140119047Y-100204819D01*
X140119047Y-100204819D02*
X139880952Y-100204819D01*
X139880952Y-100204819D02*
X139785714Y-100157200D01*
X139785714Y-100157200D02*
X139738095Y-100109580D01*
X125921428Y-108072842D02*
X125878571Y-108115700D01*
X125878571Y-108115700D02*
X125749999Y-108158557D01*
X125749999Y-108158557D02*
X125664285Y-108158557D01*
X125664285Y-108158557D02*
X125535714Y-108115700D01*
X125535714Y-108115700D02*
X125449999Y-108029985D01*
X125449999Y-108029985D02*
X125407142Y-107944271D01*
X125407142Y-107944271D02*
X125364285Y-107772842D01*
X125364285Y-107772842D02*
X125364285Y-107644271D01*
X125364285Y-107644271D02*
X125407142Y-107472842D01*
X125407142Y-107472842D02*
X125449999Y-107387128D01*
X125449999Y-107387128D02*
X125535714Y-107301414D01*
X125535714Y-107301414D02*
X125664285Y-107258557D01*
X125664285Y-107258557D02*
X125749999Y-107258557D01*
X125749999Y-107258557D02*
X125878571Y-107301414D01*
X125878571Y-107301414D02*
X125921428Y-107344271D01*
X126778571Y-108158557D02*
X126264285Y-108158557D01*
X126521428Y-108158557D02*
X126521428Y-107258557D01*
X126521428Y-107258557D02*
X126435714Y-107387128D01*
X126435714Y-107387128D02*
X126349999Y-107472842D01*
X126349999Y-107472842D02*
X126264285Y-107515700D01*
X127078571Y-107258557D02*
X127678571Y-107258557D01*
X127678571Y-107258557D02*
X127292857Y-108158557D01*
X125607142Y-93109580D02*
X125559523Y-93157200D01*
X125559523Y-93157200D02*
X125416666Y-93204819D01*
X125416666Y-93204819D02*
X125321428Y-93204819D01*
X125321428Y-93204819D02*
X125178571Y-93157200D01*
X125178571Y-93157200D02*
X125083333Y-93061961D01*
X125083333Y-93061961D02*
X125035714Y-92966723D01*
X125035714Y-92966723D02*
X124988095Y-92776247D01*
X124988095Y-92776247D02*
X124988095Y-92633390D01*
X124988095Y-92633390D02*
X125035714Y-92442914D01*
X125035714Y-92442914D02*
X125083333Y-92347676D01*
X125083333Y-92347676D02*
X125178571Y-92252438D01*
X125178571Y-92252438D02*
X125321428Y-92204819D01*
X125321428Y-92204819D02*
X125416666Y-92204819D01*
X125416666Y-92204819D02*
X125559523Y-92252438D01*
X125559523Y-92252438D02*
X125607142Y-92300057D01*
X126559523Y-93204819D02*
X125988095Y-93204819D01*
X126273809Y-93204819D02*
X126273809Y-92204819D01*
X126273809Y-92204819D02*
X126178571Y-92347676D01*
X126178571Y-92347676D02*
X126083333Y-92442914D01*
X126083333Y-92442914D02*
X125988095Y-92490533D01*
X127464285Y-92204819D02*
X126988095Y-92204819D01*
X126988095Y-92204819D02*
X126940476Y-92681009D01*
X126940476Y-92681009D02*
X126988095Y-92633390D01*
X126988095Y-92633390D02*
X127083333Y-92585771D01*
X127083333Y-92585771D02*
X127321428Y-92585771D01*
X127321428Y-92585771D02*
X127416666Y-92633390D01*
X127416666Y-92633390D02*
X127464285Y-92681009D01*
X127464285Y-92681009D02*
X127511904Y-92776247D01*
X127511904Y-92776247D02*
X127511904Y-93014342D01*
X127511904Y-93014342D02*
X127464285Y-93109580D01*
X127464285Y-93109580D02*
X127416666Y-93157200D01*
X127416666Y-93157200D02*
X127321428Y-93204819D01*
X127321428Y-93204819D02*
X127083333Y-93204819D01*
X127083333Y-93204819D02*
X126988095Y-93157200D01*
X126988095Y-93157200D02*
X126940476Y-93109580D01*
X123584819Y-119333333D02*
X124299104Y-119333333D01*
X124299104Y-119333333D02*
X124441961Y-119380952D01*
X124441961Y-119380952D02*
X124537200Y-119476190D01*
X124537200Y-119476190D02*
X124584819Y-119619047D01*
X124584819Y-119619047D02*
X124584819Y-119714285D01*
X123918152Y-118428571D02*
X124584819Y-118428571D01*
X123537200Y-118666666D02*
X124251485Y-118904761D01*
X124251485Y-118904761D02*
X124251485Y-118285714D01*
X142833333Y-102609580D02*
X142785714Y-102657200D01*
X142785714Y-102657200D02*
X142642857Y-102704819D01*
X142642857Y-102704819D02*
X142547619Y-102704819D01*
X142547619Y-102704819D02*
X142404762Y-102657200D01*
X142404762Y-102657200D02*
X142309524Y-102561961D01*
X142309524Y-102561961D02*
X142261905Y-102466723D01*
X142261905Y-102466723D02*
X142214286Y-102276247D01*
X142214286Y-102276247D02*
X142214286Y-102133390D01*
X142214286Y-102133390D02*
X142261905Y-101942914D01*
X142261905Y-101942914D02*
X142309524Y-101847676D01*
X142309524Y-101847676D02*
X142404762Y-101752438D01*
X142404762Y-101752438D02*
X142547619Y-101704819D01*
X142547619Y-101704819D02*
X142642857Y-101704819D01*
X142642857Y-101704819D02*
X142785714Y-101752438D01*
X142785714Y-101752438D02*
X142833333Y-101800057D01*
X143309524Y-102704819D02*
X143500000Y-102704819D01*
X143500000Y-102704819D02*
X143595238Y-102657200D01*
X143595238Y-102657200D02*
X143642857Y-102609580D01*
X143642857Y-102609580D02*
X143738095Y-102466723D01*
X143738095Y-102466723D02*
X143785714Y-102276247D01*
X143785714Y-102276247D02*
X143785714Y-101895295D01*
X143785714Y-101895295D02*
X143738095Y-101800057D01*
X143738095Y-101800057D02*
X143690476Y-101752438D01*
X143690476Y-101752438D02*
X143595238Y-101704819D01*
X143595238Y-101704819D02*
X143404762Y-101704819D01*
X143404762Y-101704819D02*
X143309524Y-101752438D01*
X143309524Y-101752438D02*
X143261905Y-101800057D01*
X143261905Y-101800057D02*
X143214286Y-101895295D01*
X143214286Y-101895295D02*
X143214286Y-102133390D01*
X143214286Y-102133390D02*
X143261905Y-102228628D01*
X143261905Y-102228628D02*
X143309524Y-102276247D01*
X143309524Y-102276247D02*
X143404762Y-102323866D01*
X143404762Y-102323866D02*
X143595238Y-102323866D01*
X143595238Y-102323866D02*
X143690476Y-102276247D01*
X143690476Y-102276247D02*
X143738095Y-102228628D01*
X143738095Y-102228628D02*
X143785714Y-102133390D01*
X133921428Y-112822842D02*
X133878571Y-112865700D01*
X133878571Y-112865700D02*
X133749999Y-112908557D01*
X133749999Y-112908557D02*
X133664285Y-112908557D01*
X133664285Y-112908557D02*
X133535714Y-112865700D01*
X133535714Y-112865700D02*
X133449999Y-112779985D01*
X133449999Y-112779985D02*
X133407142Y-112694271D01*
X133407142Y-112694271D02*
X133364285Y-112522842D01*
X133364285Y-112522842D02*
X133364285Y-112394271D01*
X133364285Y-112394271D02*
X133407142Y-112222842D01*
X133407142Y-112222842D02*
X133449999Y-112137128D01*
X133449999Y-112137128D02*
X133535714Y-112051414D01*
X133535714Y-112051414D02*
X133664285Y-112008557D01*
X133664285Y-112008557D02*
X133749999Y-112008557D01*
X133749999Y-112008557D02*
X133878571Y-112051414D01*
X133878571Y-112051414D02*
X133921428Y-112094271D01*
X134778571Y-112908557D02*
X134264285Y-112908557D01*
X134521428Y-112908557D02*
X134521428Y-112008557D01*
X134521428Y-112008557D02*
X134435714Y-112137128D01*
X134435714Y-112137128D02*
X134349999Y-112222842D01*
X134349999Y-112222842D02*
X134264285Y-112265700D01*
X135550000Y-112308557D02*
X135550000Y-112908557D01*
X135335714Y-111965700D02*
X135121428Y-112608557D01*
X135121428Y-112608557D02*
X135678571Y-112608557D01*
X144204819Y-95988094D02*
X143204819Y-95988094D01*
X143204819Y-95988094D02*
X143204819Y-95749999D01*
X143204819Y-95749999D02*
X143252438Y-95607142D01*
X143252438Y-95607142D02*
X143347676Y-95511904D01*
X143347676Y-95511904D02*
X143442914Y-95464285D01*
X143442914Y-95464285D02*
X143633390Y-95416666D01*
X143633390Y-95416666D02*
X143776247Y-95416666D01*
X143776247Y-95416666D02*
X143966723Y-95464285D01*
X143966723Y-95464285D02*
X144061961Y-95511904D01*
X144061961Y-95511904D02*
X144157200Y-95607142D01*
X144157200Y-95607142D02*
X144204819Y-95749999D01*
X144204819Y-95749999D02*
X144204819Y-95988094D01*
X143204819Y-95083332D02*
X143204819Y-94464285D01*
X143204819Y-94464285D02*
X143585771Y-94797618D01*
X143585771Y-94797618D02*
X143585771Y-94654761D01*
X143585771Y-94654761D02*
X143633390Y-94559523D01*
X143633390Y-94559523D02*
X143681009Y-94511904D01*
X143681009Y-94511904D02*
X143776247Y-94464285D01*
X143776247Y-94464285D02*
X144014342Y-94464285D01*
X144014342Y-94464285D02*
X144109580Y-94511904D01*
X144109580Y-94511904D02*
X144157200Y-94559523D01*
X144157200Y-94559523D02*
X144204819Y-94654761D01*
X144204819Y-94654761D02*
X144204819Y-94940475D01*
X144204819Y-94940475D02*
X144157200Y-95035713D01*
X144157200Y-95035713D02*
X144109580Y-95083332D01*
X124399580Y-103646666D02*
X124447200Y-103694285D01*
X124447200Y-103694285D02*
X124494819Y-103837142D01*
X124494819Y-103837142D02*
X124494819Y-103932380D01*
X124494819Y-103932380D02*
X124447200Y-104075237D01*
X124447200Y-104075237D02*
X124351961Y-104170475D01*
X124351961Y-104170475D02*
X124256723Y-104218094D01*
X124256723Y-104218094D02*
X124066247Y-104265713D01*
X124066247Y-104265713D02*
X123923390Y-104265713D01*
X123923390Y-104265713D02*
X123732914Y-104218094D01*
X123732914Y-104218094D02*
X123637676Y-104170475D01*
X123637676Y-104170475D02*
X123542438Y-104075237D01*
X123542438Y-104075237D02*
X123494819Y-103932380D01*
X123494819Y-103932380D02*
X123494819Y-103837142D01*
X123494819Y-103837142D02*
X123542438Y-103694285D01*
X123542438Y-103694285D02*
X123590057Y-103646666D01*
X123828152Y-102789523D02*
X124494819Y-102789523D01*
X123447200Y-103027618D02*
X124161485Y-103265713D01*
X124161485Y-103265713D02*
X124161485Y-102646666D01*
X138607142Y-114859580D02*
X138559523Y-114907200D01*
X138559523Y-114907200D02*
X138416666Y-114954819D01*
X138416666Y-114954819D02*
X138321428Y-114954819D01*
X138321428Y-114954819D02*
X138178571Y-114907200D01*
X138178571Y-114907200D02*
X138083333Y-114811961D01*
X138083333Y-114811961D02*
X138035714Y-114716723D01*
X138035714Y-114716723D02*
X137988095Y-114526247D01*
X137988095Y-114526247D02*
X137988095Y-114383390D01*
X137988095Y-114383390D02*
X138035714Y-114192914D01*
X138035714Y-114192914D02*
X138083333Y-114097676D01*
X138083333Y-114097676D02*
X138178571Y-114002438D01*
X138178571Y-114002438D02*
X138321428Y-113954819D01*
X138321428Y-113954819D02*
X138416666Y-113954819D01*
X138416666Y-113954819D02*
X138559523Y-114002438D01*
X138559523Y-114002438D02*
X138607142Y-114050057D01*
X139559523Y-114954819D02*
X138988095Y-114954819D01*
X139273809Y-114954819D02*
X139273809Y-113954819D01*
X139273809Y-113954819D02*
X139178571Y-114097676D01*
X139178571Y-114097676D02*
X139083333Y-114192914D01*
X139083333Y-114192914D02*
X138988095Y-114240533D01*
X140511904Y-114954819D02*
X139940476Y-114954819D01*
X140226190Y-114954819D02*
X140226190Y-113954819D01*
X140226190Y-113954819D02*
X140130952Y-114097676D01*
X140130952Y-114097676D02*
X140035714Y-114192914D01*
X140035714Y-114192914D02*
X139940476Y-114240533D01*
X125607142Y-94359580D02*
X125559523Y-94407200D01*
X125559523Y-94407200D02*
X125416666Y-94454819D01*
X125416666Y-94454819D02*
X125321428Y-94454819D01*
X125321428Y-94454819D02*
X125178571Y-94407200D01*
X125178571Y-94407200D02*
X125083333Y-94311961D01*
X125083333Y-94311961D02*
X125035714Y-94216723D01*
X125035714Y-94216723D02*
X124988095Y-94026247D01*
X124988095Y-94026247D02*
X124988095Y-93883390D01*
X124988095Y-93883390D02*
X125035714Y-93692914D01*
X125035714Y-93692914D02*
X125083333Y-93597676D01*
X125083333Y-93597676D02*
X125178571Y-93502438D01*
X125178571Y-93502438D02*
X125321428Y-93454819D01*
X125321428Y-93454819D02*
X125416666Y-93454819D01*
X125416666Y-93454819D02*
X125559523Y-93502438D01*
X125559523Y-93502438D02*
X125607142Y-93550057D01*
X126559523Y-94454819D02*
X125988095Y-94454819D01*
X126273809Y-94454819D02*
X126273809Y-93454819D01*
X126273809Y-93454819D02*
X126178571Y-93597676D01*
X126178571Y-93597676D02*
X126083333Y-93692914D01*
X126083333Y-93692914D02*
X125988095Y-93740533D01*
X127416666Y-93454819D02*
X127226190Y-93454819D01*
X127226190Y-93454819D02*
X127130952Y-93502438D01*
X127130952Y-93502438D02*
X127083333Y-93550057D01*
X127083333Y-93550057D02*
X126988095Y-93692914D01*
X126988095Y-93692914D02*
X126940476Y-93883390D01*
X126940476Y-93883390D02*
X126940476Y-94264342D01*
X126940476Y-94264342D02*
X126988095Y-94359580D01*
X126988095Y-94359580D02*
X127035714Y-94407200D01*
X127035714Y-94407200D02*
X127130952Y-94454819D01*
X127130952Y-94454819D02*
X127321428Y-94454819D01*
X127321428Y-94454819D02*
X127416666Y-94407200D01*
X127416666Y-94407200D02*
X127464285Y-94359580D01*
X127464285Y-94359580D02*
X127511904Y-94264342D01*
X127511904Y-94264342D02*
X127511904Y-94026247D01*
X127511904Y-94026247D02*
X127464285Y-93931009D01*
X127464285Y-93931009D02*
X127416666Y-93883390D01*
X127416666Y-93883390D02*
X127321428Y-93835771D01*
X127321428Y-93835771D02*
X127130952Y-93835771D01*
X127130952Y-93835771D02*
X127035714Y-93883390D01*
X127035714Y-93883390D02*
X126988095Y-93931009D01*
X126988095Y-93931009D02*
X126940476Y-94026247D01*
X139416666Y-87599819D02*
X139416666Y-88314104D01*
X139416666Y-88314104D02*
X139369047Y-88456961D01*
X139369047Y-88456961D02*
X139273809Y-88552200D01*
X139273809Y-88552200D02*
X139130952Y-88599819D01*
X139130952Y-88599819D02*
X139035714Y-88599819D01*
X140369047Y-87599819D02*
X139892857Y-87599819D01*
X139892857Y-87599819D02*
X139845238Y-88076009D01*
X139845238Y-88076009D02*
X139892857Y-88028390D01*
X139892857Y-88028390D02*
X139988095Y-87980771D01*
X139988095Y-87980771D02*
X140226190Y-87980771D01*
X140226190Y-87980771D02*
X140321428Y-88028390D01*
X140321428Y-88028390D02*
X140369047Y-88076009D01*
X140369047Y-88076009D02*
X140416666Y-88171247D01*
X140416666Y-88171247D02*
X140416666Y-88409342D01*
X140416666Y-88409342D02*
X140369047Y-88504580D01*
X140369047Y-88504580D02*
X140321428Y-88552200D01*
X140321428Y-88552200D02*
X140226190Y-88599819D01*
X140226190Y-88599819D02*
X139988095Y-88599819D01*
X139988095Y-88599819D02*
X139892857Y-88552200D01*
X139892857Y-88552200D02*
X139845238Y-88504580D01*
X127011905Y-111454819D02*
X127011905Y-110454819D01*
X127011905Y-110454819D02*
X127250000Y-110454819D01*
X127250000Y-110454819D02*
X127392857Y-110502438D01*
X127392857Y-110502438D02*
X127488095Y-110597676D01*
X127488095Y-110597676D02*
X127535714Y-110692914D01*
X127535714Y-110692914D02*
X127583333Y-110883390D01*
X127583333Y-110883390D02*
X127583333Y-111026247D01*
X127583333Y-111026247D02*
X127535714Y-111216723D01*
X127535714Y-111216723D02*
X127488095Y-111311961D01*
X127488095Y-111311961D02*
X127392857Y-111407200D01*
X127392857Y-111407200D02*
X127250000Y-111454819D01*
X127250000Y-111454819D02*
X127011905Y-111454819D01*
X128440476Y-110788152D02*
X128440476Y-111454819D01*
X128202381Y-110407200D02*
X127964286Y-111121485D01*
X127964286Y-111121485D02*
X128583333Y-111121485D01*
D11*
X140010237Y-106824318D02*
X140010237Y-105554318D01*
X141340714Y-106703365D02*
X141280238Y-106763842D01*
X141280238Y-106763842D02*
X141098809Y-106824318D01*
X141098809Y-106824318D02*
X140977857Y-106824318D01*
X140977857Y-106824318D02*
X140796428Y-106763842D01*
X140796428Y-106763842D02*
X140675476Y-106642889D01*
X140675476Y-106642889D02*
X140614999Y-106521937D01*
X140614999Y-106521937D02*
X140554523Y-106280032D01*
X140554523Y-106280032D02*
X140554523Y-106098603D01*
X140554523Y-106098603D02*
X140614999Y-105856699D01*
X140614999Y-105856699D02*
X140675476Y-105735746D01*
X140675476Y-105735746D02*
X140796428Y-105614794D01*
X140796428Y-105614794D02*
X140977857Y-105554318D01*
X140977857Y-105554318D02*
X141098809Y-105554318D01*
X141098809Y-105554318D02*
X141280238Y-105614794D01*
X141280238Y-105614794D02*
X141340714Y-105675270D01*
X141824523Y-105675270D02*
X141884999Y-105614794D01*
X141884999Y-105614794D02*
X142005952Y-105554318D01*
X142005952Y-105554318D02*
X142308333Y-105554318D01*
X142308333Y-105554318D02*
X142429285Y-105614794D01*
X142429285Y-105614794D02*
X142489761Y-105675270D01*
X142489761Y-105675270D02*
X142550238Y-105796222D01*
X142550238Y-105796222D02*
X142550238Y-105917175D01*
X142550238Y-105917175D02*
X142489761Y-106098603D01*
X142489761Y-106098603D02*
X141764047Y-106824318D01*
X141764047Y-106824318D02*
X142550238Y-106824318D01*
D10*
X133238095Y-97704819D02*
X133238095Y-98514342D01*
X133238095Y-98514342D02*
X133285714Y-98609580D01*
X133285714Y-98609580D02*
X133333333Y-98657200D01*
X133333333Y-98657200D02*
X133428571Y-98704819D01*
X133428571Y-98704819D02*
X133619047Y-98704819D01*
X133619047Y-98704819D02*
X133714285Y-98657200D01*
X133714285Y-98657200D02*
X133761904Y-98609580D01*
X133761904Y-98609580D02*
X133809523Y-98514342D01*
X133809523Y-98514342D02*
X133809523Y-97704819D01*
X134190476Y-97704819D02*
X134809523Y-97704819D01*
X134809523Y-97704819D02*
X134476190Y-98085771D01*
X134476190Y-98085771D02*
X134619047Y-98085771D01*
X134619047Y-98085771D02*
X134714285Y-98133390D01*
X134714285Y-98133390D02*
X134761904Y-98181009D01*
X134761904Y-98181009D02*
X134809523Y-98276247D01*
X134809523Y-98276247D02*
X134809523Y-98514342D01*
X134809523Y-98514342D02*
X134761904Y-98609580D01*
X134761904Y-98609580D02*
X134714285Y-98657200D01*
X134714285Y-98657200D02*
X134619047Y-98704819D01*
X134619047Y-98704819D02*
X134333333Y-98704819D01*
X134333333Y-98704819D02*
X134238095Y-98657200D01*
X134238095Y-98657200D02*
X134190476Y-98609580D01*
X135824819Y-115583333D02*
X136539104Y-115583333D01*
X136539104Y-115583333D02*
X136681961Y-115630952D01*
X136681961Y-115630952D02*
X136777200Y-115726190D01*
X136777200Y-115726190D02*
X136824819Y-115869047D01*
X136824819Y-115869047D02*
X136824819Y-115964285D01*
X135824819Y-114678571D02*
X135824819Y-114869047D01*
X135824819Y-114869047D02*
X135872438Y-114964285D01*
X135872438Y-114964285D02*
X135920057Y-115011904D01*
X135920057Y-115011904D02*
X136062914Y-115107142D01*
X136062914Y-115107142D02*
X136253390Y-115154761D01*
X136253390Y-115154761D02*
X136634342Y-115154761D01*
X136634342Y-115154761D02*
X136729580Y-115107142D01*
X136729580Y-115107142D02*
X136777200Y-115059523D01*
X136777200Y-115059523D02*
X136824819Y-114964285D01*
X136824819Y-114964285D02*
X136824819Y-114773809D01*
X136824819Y-114773809D02*
X136777200Y-114678571D01*
X136777200Y-114678571D02*
X136729580Y-114630952D01*
X136729580Y-114630952D02*
X136634342Y-114583333D01*
X136634342Y-114583333D02*
X136396247Y-114583333D01*
X136396247Y-114583333D02*
X136301009Y-114630952D01*
X136301009Y-114630952D02*
X136253390Y-114678571D01*
X136253390Y-114678571D02*
X136205771Y-114773809D01*
X136205771Y-114773809D02*
X136205771Y-114964285D01*
X136205771Y-114964285D02*
X136253390Y-115059523D01*
X136253390Y-115059523D02*
X136301009Y-115107142D01*
X136301009Y-115107142D02*
X136396247Y-115154761D01*
D12*
%TO.C,Y2*%
X121200000Y-100610000D02*
X121200000Y-104610000D01*
X124500000Y-100610000D02*
X121200000Y-100610000D01*
%TO.C,C2*%
X130490000Y-109884420D02*
X130490000Y-110165580D01*
X131510000Y-109884420D02*
X131510000Y-110165580D01*
%TO.C,R6*%
X141620000Y-104596359D02*
X141620000Y-104903641D01*
X142380000Y-104596359D02*
X142380000Y-104903641D01*
D10*
%TO.C,JP1*%
X145850000Y-109470000D02*
X146350000Y-108970000D01*
X145850000Y-113070000D02*
X145850000Y-109470000D01*
X146350000Y-108970000D02*
X147150000Y-108970000D01*
X146350000Y-113570000D02*
X145850000Y-113070000D01*
X147150000Y-108970000D02*
X147650000Y-109470000D01*
X147150000Y-113570000D02*
X146350000Y-113570000D01*
X147650000Y-109470000D02*
X147650000Y-113070000D01*
X147650000Y-113070000D02*
X147150000Y-113570000D01*
D12*
%TO.C,R10*%
X129596359Y-111870000D02*
X129903641Y-111870000D01*
X129596359Y-112630000D02*
X129903641Y-112630000D01*
%TO.C,J2*%
X151050000Y-109800000D02*
X155450000Y-109800000D01*
X151050000Y-114200000D02*
X151050000Y-109800000D01*
X155450000Y-109800000D02*
X155450000Y-114200000D01*
X155450000Y-114200000D02*
X151050000Y-114200000D01*
%TO.C,C19*%
X123087836Y-107890000D02*
X122872164Y-107890000D01*
X123087836Y-108610000D02*
X122872164Y-108610000D01*
%TO.C,R4*%
X127903641Y-109370000D02*
X127596359Y-109370000D01*
X127903641Y-110130000D02*
X127596359Y-110130000D01*
%TO.C,J7*%
X147117500Y-102700000D02*
X147117500Y-103300000D01*
X147117500Y-103300000D02*
X147717500Y-103000000D01*
X147607500Y-100390000D02*
X156027500Y-100390000D01*
X147607500Y-101610000D02*
X147607500Y-100390000D01*
X147607500Y-106890000D02*
X149807500Y-106890000D01*
X147607500Y-108110000D02*
X147607500Y-106890000D01*
X147717500Y-103000000D02*
X147117500Y-102700000D01*
X149807500Y-101610000D02*
X147607500Y-101610000D01*
X149807500Y-101610000D02*
X149807500Y-100390000D01*
X149807500Y-104170000D02*
X149807500Y-104330000D01*
X149807500Y-106890000D02*
X149807500Y-108110000D01*
X150807500Y-101610000D02*
X150807500Y-106890000D01*
X150807500Y-102680000D02*
X154227500Y-102680000D01*
X150807500Y-103000000D02*
X150807500Y-102680000D01*
X150807500Y-103320000D02*
X150807500Y-103000000D01*
X150807500Y-105180000D02*
X154227500Y-105180000D01*
X150807500Y-105500000D02*
X150807500Y-105180000D01*
X150807500Y-105820000D02*
X150807500Y-105500000D01*
X154227500Y-102680000D02*
X154307500Y-103000000D01*
X154227500Y-103320000D02*
X150807500Y-103320000D01*
X154227500Y-105180000D02*
X154307500Y-105500000D01*
X154227500Y-105820000D02*
X150807500Y-105820000D01*
X154307500Y-103000000D02*
X154227500Y-103320000D01*
X154307500Y-105500000D02*
X154227500Y-105820000D01*
X154807500Y-100390000D02*
X154807500Y-101610000D01*
X154807500Y-101610000D02*
X149807500Y-101610000D01*
X154807500Y-106890000D02*
X149807500Y-106890000D01*
X154807500Y-108110000D02*
X154807500Y-106890000D01*
X156027500Y-100390000D02*
X156027500Y-108110000D01*
X156027500Y-108110000D02*
X147607500Y-108110000D01*
%TO.C,D2*%
X144750000Y-104110000D02*
X144750000Y-100100000D01*
X144750000Y-104110000D02*
X146750000Y-104110000D01*
X146750000Y-104110000D02*
X146750000Y-100100000D01*
%TO.C,C5*%
X144140000Y-110892164D02*
X144140000Y-111107836D01*
X144860000Y-110892164D02*
X144860000Y-111107836D01*
%TO.C,R1*%
X123120000Y-96403641D02*
X123120000Y-96096359D01*
X123880000Y-96403641D02*
X123880000Y-96096359D01*
%TO.C,C13*%
X135140000Y-100372164D02*
X135140000Y-100587836D01*
X135860000Y-100372164D02*
X135860000Y-100587836D01*
%TO.C,C12*%
X125640000Y-99627836D02*
X125640000Y-99412164D01*
X126360000Y-99627836D02*
X126360000Y-99412164D01*
%TO.C,SW1*%
X138600000Y-118360000D02*
X138600000Y-118650000D01*
X138600000Y-118360000D02*
X139600000Y-118360000D01*
X138600000Y-121150000D02*
X138600000Y-120860000D01*
X141900000Y-118360000D02*
X140900000Y-118360000D01*
X141900000Y-118650000D02*
X141900000Y-118360000D01*
X141900000Y-120860000D02*
X141900000Y-121150000D01*
X141900000Y-121150000D02*
X138600000Y-121150000D01*
%TO.C,R9*%
X144870000Y-98096359D02*
X144870000Y-98403641D01*
X145630000Y-98096359D02*
X145630000Y-98403641D01*
%TO.C,C10*%
X133990000Y-109609420D02*
X133990000Y-109890580D01*
X135010000Y-109609420D02*
X135010000Y-109890580D01*
%TO.C,C8*%
X144859420Y-104490000D02*
X145140580Y-104490000D01*
X144859420Y-105510000D02*
X145140580Y-105510000D01*
%TO.C,FB3*%
X124240000Y-108124721D02*
X124240000Y-108450279D01*
X125260000Y-108124721D02*
X125260000Y-108450279D01*
%TO.C,C7*%
X138140000Y-104877836D02*
X138140000Y-104662164D01*
X138860000Y-104877836D02*
X138860000Y-104662164D01*
%TO.C,J9*%
X112800000Y-109800000D02*
X117200000Y-109800000D01*
X112800000Y-114200000D02*
X112800000Y-109800000D01*
X117200000Y-109800000D02*
X117200000Y-114200000D01*
X117200000Y-114200000D02*
X112800000Y-114200000D01*
%TO.C,J8*%
X151050000Y-94550000D02*
X155450000Y-94550000D01*
X151050000Y-98950000D02*
X151050000Y-94550000D01*
X155450000Y-94550000D02*
X155450000Y-98950000D01*
X155450000Y-98950000D02*
X151050000Y-98950000D01*
%TO.C,J1*%
X111940000Y-100390000D02*
X120360000Y-100390000D01*
X111940000Y-108110000D02*
X111940000Y-100390000D01*
X113160000Y-100390000D02*
X113160000Y-101610000D01*
X113160000Y-101610000D02*
X118160000Y-101610000D01*
X113160000Y-106890000D02*
X118160000Y-106890000D01*
X113160000Y-108110000D02*
X113160000Y-106890000D01*
X113660000Y-103000000D02*
X113740000Y-102680000D01*
X113660000Y-105500000D02*
X113740000Y-105180000D01*
X113740000Y-102680000D02*
X117160000Y-102680000D01*
X113740000Y-103320000D02*
X113660000Y-103000000D01*
X113740000Y-105180000D02*
X117160000Y-105180000D01*
X113740000Y-105820000D02*
X113660000Y-105500000D01*
X117160000Y-102680000D02*
X117160000Y-103000000D01*
X117160000Y-103000000D02*
X117160000Y-103320000D01*
X117160000Y-103320000D02*
X113740000Y-103320000D01*
X117160000Y-105180000D02*
X117160000Y-105500000D01*
X117160000Y-105500000D02*
X117160000Y-105820000D01*
X117160000Y-105820000D02*
X113740000Y-105820000D01*
X117160000Y-106890000D02*
X117160000Y-101610000D01*
X118160000Y-101610000D02*
X118160000Y-100390000D01*
X118160000Y-104330000D02*
X118160000Y-104170000D01*
X118160000Y-106890000D02*
X118160000Y-108110000D01*
X118160000Y-106890000D02*
X120360000Y-106890000D01*
X120250000Y-105500000D02*
X120850000Y-105800000D01*
X120360000Y-100390000D02*
X120360000Y-101610000D01*
X120360000Y-101610000D02*
X118160000Y-101610000D01*
X120360000Y-106890000D02*
X120360000Y-108110000D01*
X120360000Y-108110000D02*
X111940000Y-108110000D01*
X120850000Y-105200000D02*
X120250000Y-105500000D01*
X120850000Y-105800000D02*
X120850000Y-105200000D01*
%TO.C,C6*%
X135640000Y-109872164D02*
X135640000Y-110087836D01*
X136360000Y-109872164D02*
X136360000Y-110087836D01*
%TO.C,R7*%
X135120000Y-92856359D02*
X135120000Y-93163641D01*
X135880000Y-92856359D02*
X135880000Y-93163641D01*
%TO.C,R5*%
X139120000Y-104596359D02*
X139120000Y-104903641D01*
X139880000Y-104596359D02*
X139880000Y-104903641D01*
%TO.C,C3*%
X124890000Y-101372164D02*
X124890000Y-101587836D01*
X125610000Y-101372164D02*
X125610000Y-101587836D01*
%TO.C,J3*%
X112800000Y-94550000D02*
X117200000Y-94550000D01*
X112800000Y-98950000D02*
X112800000Y-94550000D01*
X117200000Y-94550000D02*
X117200000Y-98950000D01*
X117200000Y-98950000D02*
X112800000Y-98950000D01*
%TO.C,C18*%
X123087836Y-106890000D02*
X122872164Y-106890000D01*
X123087836Y-107610000D02*
X122872164Y-107610000D01*
%TO.C,R11*%
X148870000Y-109653641D02*
X148870000Y-109346359D01*
X149630000Y-109653641D02*
X149630000Y-109346359D01*
%TO.C,R8*%
X131870000Y-92596359D02*
X131870000Y-92903641D01*
X132630000Y-92596359D02*
X132630000Y-92903641D01*
%TO.C,C20*%
X122392164Y-105390000D02*
X122607836Y-105390000D01*
X122392164Y-106110000D02*
X122607836Y-106110000D01*
%TO.C,U5*%
X136180000Y-103670000D02*
X136180000Y-91830000D01*
X143920000Y-91830000D02*
X136180000Y-91830000D01*
X143920000Y-103670000D02*
X136180000Y-103670000D01*
X143920000Y-103670000D02*
X143920000Y-91830000D01*
X144300000Y-101550000D02*
X144300000Y-104050000D01*
X144300000Y-104050000D02*
X141800000Y-104050000D01*
%TO.C,C17*%
X124857836Y-105640000D02*
X124642164Y-105640000D01*
X124857836Y-106360000D02*
X124642164Y-106360000D01*
%TO.C,C15*%
X127109420Y-97240000D02*
X127390580Y-97240000D01*
X127109420Y-98260000D02*
X127390580Y-98260000D01*
%TO.C,J4*%
X125130000Y-120330000D02*
X125130000Y-119000000D01*
X126460000Y-120330000D02*
X125130000Y-120330000D01*
X127730000Y-117670000D02*
X135410000Y-117670000D01*
X127730000Y-120330000D02*
X127730000Y-117670000D01*
X127730000Y-120330000D02*
X135410000Y-120330000D01*
X135410000Y-120330000D02*
X135410000Y-117670000D01*
%TO.C,C9*%
X142640000Y-104857836D02*
X142640000Y-104642164D01*
X143360000Y-104857836D02*
X143360000Y-104642164D01*
%TO.C,C14*%
X132640000Y-109357836D02*
X132640000Y-109142164D01*
X133360000Y-109357836D02*
X133360000Y-109142164D01*
%TO.C,D3*%
X144515000Y-94700000D02*
X144515000Y-96985000D01*
X144515000Y-96985000D02*
X145985000Y-96985000D01*
X145985000Y-96985000D02*
X145985000Y-94700000D01*
%TO.C,C4*%
X124840000Y-103587836D02*
X124840000Y-103372164D01*
X125560000Y-103587836D02*
X125560000Y-103372164D01*
%TO.C,C11*%
X136490000Y-114415580D02*
X136490000Y-114134420D01*
X137510000Y-114415580D02*
X137510000Y-114134420D01*
%TO.C,C16*%
X127392164Y-98890000D02*
X127607836Y-98890000D01*
X127392164Y-99610000D02*
X127607836Y-99610000D01*
%TO.C,J5*%
X129330000Y-86995000D02*
X129330000Y-88695000D01*
X138670000Y-86995000D02*
X138670000Y-88695000D01*
%TO.C,D4*%
X128765000Y-109237500D02*
X128765000Y-111522500D01*
X128765000Y-111522500D02*
X130235000Y-111522500D01*
X130235000Y-111522500D02*
X130235000Y-109237500D01*
D13*
%TO.C,IC2*%
X137725000Y-106750000D02*
G75*
G02*
X137475000Y-106750000I-125000J0D01*
G01*
X137475000Y-106750000D02*
G75*
G02*
X137725000Y-106750000I125000J0D01*
G01*
D12*
%TO.C,U3*%
X127240000Y-100915000D02*
X127240000Y-100680000D01*
X127240000Y-107660000D02*
X127240000Y-107185000D01*
X127715000Y-100440000D02*
X127540000Y-100440000D01*
X127715000Y-107660000D02*
X127240000Y-107660000D01*
X133985000Y-100440000D02*
X134460000Y-100440000D01*
X133985000Y-107660000D02*
X134460000Y-107660000D01*
X134460000Y-100440000D02*
X134460000Y-100915000D01*
X134460000Y-107660000D02*
X134460000Y-107185000D01*
X127240000Y-100440000D02*
X127000000Y-100110000D01*
X127480000Y-100110000D01*
X127240000Y-100440000D01*
G36*
X127240000Y-100440000D02*
G01*
X127000000Y-100110000D01*
X127480000Y-100110000D01*
X127240000Y-100440000D01*
G37*
%TO.C,J6*%
X125090000Y-113920000D02*
X125090000Y-116580000D01*
X132770000Y-113920000D02*
X125090000Y-113920000D01*
X132770000Y-113920000D02*
X132770000Y-116580000D01*
X132770000Y-116580000D02*
X125090000Y-116580000D01*
X134040000Y-113920000D02*
X135370000Y-113920000D01*
X135370000Y-113920000D02*
X135370000Y-115250000D01*
%TD*%
M02*
