%TF.GenerationSoftware,KiCad,Pcbnew,8.0.2*%
%TF.CreationDate,2024-07-19T14:35:34-04:00*%
%TF.ProjectId,StepperMotorDriver,53746570-7065-4724-9d6f-746f72447269,rev?*%
%TF.SameCoordinates,Original*%
%TF.FileFunction,Legend,Bot*%
%TF.FilePolarity,Positive*%
%FSLAX46Y46*%
G04 Gerber Fmt 4.6, Leading zero omitted, Abs format (unit mm)*
G04 Created by KiCad (PCBNEW 8.0.2) date 2024-07-19 14:35:34*
%MOMM*%
%LPD*%
G01*
G04 APERTURE LIST*
%ADD10C,0.150000*%
%ADD11C,0.120000*%
G04 APERTURE END LIST*
D10*
X137238094Y-96454819D02*
X137238094Y-95454819D01*
X137238094Y-95454819D02*
X136999999Y-95454819D01*
X136999999Y-95454819D02*
X136857142Y-95502438D01*
X136857142Y-95502438D02*
X136761904Y-95597676D01*
X136761904Y-95597676D02*
X136714285Y-95692914D01*
X136714285Y-95692914D02*
X136666666Y-95883390D01*
X136666666Y-95883390D02*
X136666666Y-96026247D01*
X136666666Y-96026247D02*
X136714285Y-96216723D01*
X136714285Y-96216723D02*
X136761904Y-96311961D01*
X136761904Y-96311961D02*
X136857142Y-96407200D01*
X136857142Y-96407200D02*
X136999999Y-96454819D01*
X136999999Y-96454819D02*
X137238094Y-96454819D01*
X135714285Y-96454819D02*
X136285713Y-96454819D01*
X135999999Y-96454819D02*
X135999999Y-95454819D01*
X135999999Y-95454819D02*
X136095237Y-95597676D01*
X136095237Y-95597676D02*
X136190475Y-95692914D01*
X136190475Y-95692914D02*
X136285713Y-95740533D01*
X136949580Y-102853333D02*
X136997200Y-102805714D01*
X136997200Y-102805714D02*
X137044819Y-102662857D01*
X137044819Y-102662857D02*
X137044819Y-102567619D01*
X137044819Y-102567619D02*
X136997200Y-102424762D01*
X136997200Y-102424762D02*
X136901961Y-102329524D01*
X136901961Y-102329524D02*
X136806723Y-102281905D01*
X136806723Y-102281905D02*
X136616247Y-102234286D01*
X136616247Y-102234286D02*
X136473390Y-102234286D01*
X136473390Y-102234286D02*
X136282914Y-102281905D01*
X136282914Y-102281905D02*
X136187676Y-102329524D01*
X136187676Y-102329524D02*
X136092438Y-102424762D01*
X136092438Y-102424762D02*
X136044819Y-102567619D01*
X136044819Y-102567619D02*
X136044819Y-102662857D01*
X136044819Y-102662857D02*
X136092438Y-102805714D01*
X136092438Y-102805714D02*
X136140057Y-102853333D01*
X137044819Y-103805714D02*
X137044819Y-103234286D01*
X137044819Y-103520000D02*
X136044819Y-103520000D01*
X136044819Y-103520000D02*
X136187676Y-103424762D01*
X136187676Y-103424762D02*
X136282914Y-103329524D01*
X136282914Y-103329524D02*
X136330533Y-103234286D01*
X125536904Y-100709819D02*
X125536904Y-101519342D01*
X125536904Y-101519342D02*
X125489285Y-101614580D01*
X125489285Y-101614580D02*
X125441666Y-101662200D01*
X125441666Y-101662200D02*
X125346428Y-101709819D01*
X125346428Y-101709819D02*
X125155952Y-101709819D01*
X125155952Y-101709819D02*
X125060714Y-101662200D01*
X125060714Y-101662200D02*
X125013095Y-101614580D01*
X125013095Y-101614580D02*
X124965476Y-101519342D01*
X124965476Y-101519342D02*
X124965476Y-100709819D01*
X124536904Y-100805057D02*
X124489285Y-100757438D01*
X124489285Y-100757438D02*
X124394047Y-100709819D01*
X124394047Y-100709819D02*
X124155952Y-100709819D01*
X124155952Y-100709819D02*
X124060714Y-100757438D01*
X124060714Y-100757438D02*
X124013095Y-100805057D01*
X124013095Y-100805057D02*
X123965476Y-100900295D01*
X123965476Y-100900295D02*
X123965476Y-100995533D01*
X123965476Y-100995533D02*
X124013095Y-101138390D01*
X124013095Y-101138390D02*
X124584523Y-101709819D01*
X124584523Y-101709819D02*
X123965476Y-101709819D01*
X130666666Y-93204819D02*
X130999999Y-92728628D01*
X131238094Y-93204819D02*
X131238094Y-92204819D01*
X131238094Y-92204819D02*
X130857142Y-92204819D01*
X130857142Y-92204819D02*
X130761904Y-92252438D01*
X130761904Y-92252438D02*
X130714285Y-92300057D01*
X130714285Y-92300057D02*
X130666666Y-92395295D01*
X130666666Y-92395295D02*
X130666666Y-92538152D01*
X130666666Y-92538152D02*
X130714285Y-92633390D01*
X130714285Y-92633390D02*
X130761904Y-92681009D01*
X130761904Y-92681009D02*
X130857142Y-92728628D01*
X130857142Y-92728628D02*
X131238094Y-92728628D01*
X130285713Y-92300057D02*
X130238094Y-92252438D01*
X130238094Y-92252438D02*
X130142856Y-92204819D01*
X130142856Y-92204819D02*
X129904761Y-92204819D01*
X129904761Y-92204819D02*
X129809523Y-92252438D01*
X129809523Y-92252438D02*
X129761904Y-92300057D01*
X129761904Y-92300057D02*
X129714285Y-92395295D01*
X129714285Y-92395295D02*
X129714285Y-92490533D01*
X129714285Y-92490533D02*
X129761904Y-92633390D01*
X129761904Y-92633390D02*
X130333332Y-93204819D01*
X130333332Y-93204819D02*
X129714285Y-93204819D01*
X128916666Y-93204819D02*
X129249999Y-92728628D01*
X129488094Y-93204819D02*
X129488094Y-92204819D01*
X129488094Y-92204819D02*
X129107142Y-92204819D01*
X129107142Y-92204819D02*
X129011904Y-92252438D01*
X129011904Y-92252438D02*
X128964285Y-92300057D01*
X128964285Y-92300057D02*
X128916666Y-92395295D01*
X128916666Y-92395295D02*
X128916666Y-92538152D01*
X128916666Y-92538152D02*
X128964285Y-92633390D01*
X128964285Y-92633390D02*
X129011904Y-92681009D01*
X129011904Y-92681009D02*
X129107142Y-92728628D01*
X129107142Y-92728628D02*
X129488094Y-92728628D01*
X128583332Y-92204819D02*
X127964285Y-92204819D01*
X127964285Y-92204819D02*
X128297618Y-92585771D01*
X128297618Y-92585771D02*
X128154761Y-92585771D01*
X128154761Y-92585771D02*
X128059523Y-92633390D01*
X128059523Y-92633390D02*
X128011904Y-92681009D01*
X128011904Y-92681009D02*
X127964285Y-92776247D01*
X127964285Y-92776247D02*
X127964285Y-93014342D01*
X127964285Y-93014342D02*
X128011904Y-93109580D01*
X128011904Y-93109580D02*
X128059523Y-93157200D01*
X128059523Y-93157200D02*
X128154761Y-93204819D01*
X128154761Y-93204819D02*
X128440475Y-93204819D01*
X128440475Y-93204819D02*
X128535713Y-93157200D01*
X128535713Y-93157200D02*
X128583332Y-93109580D01*
X134761904Y-99804819D02*
X134761904Y-100614342D01*
X134761904Y-100614342D02*
X134714285Y-100709580D01*
X134714285Y-100709580D02*
X134666666Y-100757200D01*
X134666666Y-100757200D02*
X134571428Y-100804819D01*
X134571428Y-100804819D02*
X134380952Y-100804819D01*
X134380952Y-100804819D02*
X134285714Y-100757200D01*
X134285714Y-100757200D02*
X134238095Y-100709580D01*
X134238095Y-100709580D02*
X134190476Y-100614342D01*
X134190476Y-100614342D02*
X134190476Y-99804819D01*
X133285714Y-99804819D02*
X133476190Y-99804819D01*
X133476190Y-99804819D02*
X133571428Y-99852438D01*
X133571428Y-99852438D02*
X133619047Y-99900057D01*
X133619047Y-99900057D02*
X133714285Y-100042914D01*
X133714285Y-100042914D02*
X133761904Y-100233390D01*
X133761904Y-100233390D02*
X133761904Y-100614342D01*
X133761904Y-100614342D02*
X133714285Y-100709580D01*
X133714285Y-100709580D02*
X133666666Y-100757200D01*
X133666666Y-100757200D02*
X133571428Y-100804819D01*
X133571428Y-100804819D02*
X133380952Y-100804819D01*
X133380952Y-100804819D02*
X133285714Y-100757200D01*
X133285714Y-100757200D02*
X133238095Y-100709580D01*
X133238095Y-100709580D02*
X133190476Y-100614342D01*
X133190476Y-100614342D02*
X133190476Y-100376247D01*
X133190476Y-100376247D02*
X133238095Y-100281009D01*
X133238095Y-100281009D02*
X133285714Y-100233390D01*
X133285714Y-100233390D02*
X133380952Y-100185771D01*
X133380952Y-100185771D02*
X133571428Y-100185771D01*
X133571428Y-100185771D02*
X133666666Y-100233390D01*
X133666666Y-100233390D02*
X133714285Y-100281009D01*
X133714285Y-100281009D02*
X133761904Y-100376247D01*
D11*
%TO.C,D1*%
X135100000Y-96990000D02*
X138860000Y-96990000D01*
X135100000Y-99010000D02*
X138860000Y-99010000D01*
X138860000Y-99010000D02*
X138860000Y-96990000D01*
%TO.C,C1*%
X137390000Y-103127836D02*
X137390000Y-102912164D01*
X138110000Y-103127836D02*
X138110000Y-102912164D01*
%TO.C,U2*%
X122825000Y-102095000D02*
X124775000Y-102095000D01*
X122825000Y-107215000D02*
X124775000Y-107215000D01*
X126725000Y-102095000D02*
X124775000Y-102095000D01*
X126725000Y-107215000D02*
X124775000Y-107215000D01*
X127475000Y-102190000D02*
X127235000Y-101860000D01*
X127715000Y-101860000D01*
X127475000Y-102190000D01*
G36*
X127475000Y-102190000D02*
G01*
X127235000Y-101860000D01*
X127715000Y-101860000D01*
X127475000Y-102190000D01*
G37*
%TO.C,R2*%
X130620000Y-94116359D02*
X130620000Y-94423641D01*
X131380000Y-94116359D02*
X131380000Y-94423641D01*
%TO.C,R3*%
X129620000Y-94106359D02*
X129620000Y-94413641D01*
X130380000Y-94106359D02*
X130380000Y-94413641D01*
%TO.C,U6*%
X132050000Y-101190000D02*
X134000000Y-101190000D01*
X132050000Y-106310000D02*
X134000000Y-106310000D01*
X135950000Y-101190000D02*
X134000000Y-101190000D01*
X135950000Y-106310000D02*
X134000000Y-106310000D01*
X136700000Y-101285000D02*
X136460000Y-100955000D01*
X136940000Y-100955000D01*
X136700000Y-101285000D01*
G36*
X136700000Y-101285000D02*
G01*
X136460000Y-100955000D01*
X136940000Y-100955000D01*
X136700000Y-101285000D01*
G37*
%TD*%
M02*
