M48
; DRILL file {KiCad 8.0.2} date 2024-07-19T14:34:50-0400
; FORMAT={-:-/ absolute / metric / decimal}
; #@! TF.CreationDate,2024-07-19T14:34:50-04:00
; #@! TF.GenerationSoftware,Kicad,Pcbnew,8.0.2
; #@! TF.FileFunction,MixedPlating,1,4
FMAT,2
METRIC
; #@! TA.AperFunction,Plated,PTH,ViaDrill
T1C0.300
; #@! TA.AperFunction,Plated,PTH,ComponentDrill
T2C0.600
; #@! TA.AperFunction,Plated,PTH,ComponentDrill
T3C0.800
; #@! TA.AperFunction,Plated,PTH,ComponentDrill
T4C1.000
; #@! TA.AperFunction,Plated,PTH,ComponentDrill
T5C3.200
; #@! TA.AperFunction,NonPlated,NPTH,ComponentDrill
T6C0.650
; #@! TA.AperFunction,NonPlated,NPTH,ComponentDrill
T7C0.800
%
G90
G05
T1
X117.25Y-117.0
X118.5Y-96.75
X118.75Y-112.0
X121.0Y-94.5
X121.75Y-108.0
X122.37Y-109.13
X123.15Y-101.9
X123.5Y-109.5
X123.556Y-100.45
X124.63Y-95.63
X124.662Y-98.162
X125.0Y-114.5
X127.0Y-95.75
X127.25Y-100.75
X128.0Y-112.22
X128.25Y-108.75
X128.277Y-96.527
X128.999Y-99.0
X129.0Y-104.75
X129.75Y-92.0
X129.76Y-95.82
X130.4Y-98.047
X130.711Y-95.932
X130.75Y-92.0
X130.9Y-98.795
X131.0Y-112.22
X131.979Y-112.021
X132.234Y-109.296
X132.5Y-94.0
X132.75Y-95.75
X132.981Y-111.9
X133.127Y-96.455
X134.04Y-114.04
X134.5Y-99.75
X134.54Y-107.46
X135.0Y-111.5
X135.5Y-114.75
X135.5Y-115.8
X135.626Y-106.455
X135.975Y-113.337
X136.25Y-108.5
X136.25Y-99.0
X136.5Y-99.999
X136.5Y-92.05
X136.5Y-95.05
X136.5Y-97.0
X136.65Y-100.836
X136.94Y-107.05
X137.5Y-92.0
X137.5Y-93.75
X137.52Y-117.97
X138.05Y-115.816
X138.29Y-106.04
X138.75Y-116.5
X139.15Y-113.4
X139.25Y-101.45
X139.625Y-115.85
X139.75Y-103.3
X140.254Y-104.004
X140.481Y-105.029
X140.49Y-115.34
X141.124Y-114.515
X141.13Y-104.406
X141.5Y-103.3
X142.5Y-103.3
X143.25Y-90.5
X143.25Y-97.25
X143.25Y-98.25
X143.25Y-106.5
X143.25Y-119.5
X143.5Y-100.25
X144.085Y-98.644
X144.25Y-106.5
X144.25Y-112.5
X144.54Y-103.3
X144.578Y-108.092
X144.75Y-101.95
X144.85Y-107.25
X145.7Y-111.06
X147.25Y-99.5
X147.25Y-100.5
X148.5Y-111.75
X149.5Y-96.75
X149.75Y-113.0
X150.75Y-117.0
T3
X146.75Y-110.0
X146.75Y-112.54
T4
X118.75Y-103.0
X118.75Y-105.5
X126.42Y-115.25
X126.46Y-119.0
X128.96Y-115.25
X129.0Y-119.0
X131.5Y-115.25
X131.54Y-119.0
X134.04Y-115.25
X134.08Y-119.0
X141.75Y-95.21
X141.75Y-97.75
X141.75Y-100.29
X149.218Y-103.0
X149.218Y-105.5
T5
X121.0Y-90.5
X121.0Y-117.0
X147.0Y-90.5
X147.0Y-117.0
T6
X131.11Y-89.5
X136.89Y-89.5
T7
X140.25Y-119.75
T2
G00X129.68Y-86.22
M15
G01X129.68Y-85.42
M16
G05
G00X129.68Y-90.55
M15
G01X129.68Y-89.45
M16
G05
G00X138.32Y-86.22
M15
G01X138.32Y-85.42
M16
G05
G00X138.32Y-90.55
M15
G01X138.32Y-89.45
M16
G05
M30
