%TF.GenerationSoftware,KiCad,Pcbnew,8.0.2*%
%TF.CreationDate,2024-07-19T14:35:33-04:00*%
%TF.ProjectId,StepperMotorDriver,53746570-7065-4724-9d6f-746f72447269,rev?*%
%TF.SameCoordinates,Original*%
%TF.FileFunction,Copper,L4,Bot*%
%TF.FilePolarity,Positive*%
%FSLAX46Y46*%
G04 Gerber Fmt 4.6, Leading zero omitted, Abs format (unit mm)*
G04 Created by KiCad (PCBNEW 8.0.2) date 2024-07-19 14:35:33*
%MOMM*%
%LPD*%
G01*
G04 APERTURE LIST*
G04 Aperture macros list*
%AMRoundRect*
0 Rectangle with rounded corners*
0 $1 Rounding radius*
0 $2 $3 $4 $5 $6 $7 $8 $9 X,Y pos of 4 corners*
0 Add a 4 corners polygon primitive as box body*
4,1,4,$2,$3,$4,$5,$6,$7,$8,$9,$2,$3,0*
0 Add four circle primitives for the rounded corners*
1,1,$1+$1,$2,$3*
1,1,$1+$1,$4,$5*
1,1,$1+$1,$6,$7*
1,1,$1+$1,$8,$9*
0 Add four rect primitives between the rounded corners*
20,1,$1+$1,$2,$3,$4,$5,0*
20,1,$1+$1,$4,$5,$6,$7,0*
20,1,$1+$1,$6,$7,$8,$9,0*
20,1,$1+$1,$8,$9,$2,$3,0*%
G04 Aperture macros list end*
%TA.AperFunction,ComponentPad*%
%ADD10C,1.400000*%
%TD*%
%TA.AperFunction,ComponentPad*%
%ADD11RoundRect,0.250000X-0.750000X0.600000X-0.750000X-0.600000X0.750000X-0.600000X0.750000X0.600000X0*%
%TD*%
%TA.AperFunction,ComponentPad*%
%ADD12O,2.000000X1.700000*%
%TD*%
%TA.AperFunction,ComponentPad*%
%ADD13C,5.600000*%
%TD*%
%TA.AperFunction,ComponentPad*%
%ADD14RoundRect,0.250000X0.750000X-0.600000X0.750000X0.600000X-0.750000X0.600000X-0.750000X-0.600000X0*%
%TD*%
%TA.AperFunction,ComponentPad*%
%ADD15R,1.500000X1.500000*%
%TD*%
%TA.AperFunction,ComponentPad*%
%ADD16C,1.500000*%
%TD*%
%TA.AperFunction,ComponentPad*%
%ADD17R,1.700000X1.700000*%
%TD*%
%TA.AperFunction,ComponentPad*%
%ADD18O,1.700000X1.700000*%
%TD*%
%TA.AperFunction,ComponentPad*%
%ADD19O,1.000000X2.100000*%
%TD*%
%TA.AperFunction,ComponentPad*%
%ADD20O,1.000000X1.800000*%
%TD*%
%TA.AperFunction,SMDPad,CuDef*%
%ADD21RoundRect,0.250000X0.400000X0.450000X-0.400000X0.450000X-0.400000X-0.450000X0.400000X-0.450000X0*%
%TD*%
%TA.AperFunction,SMDPad,CuDef*%
%ADD22RoundRect,0.140000X-0.170000X0.140000X-0.170000X-0.140000X0.170000X-0.140000X0.170000X0.140000X0*%
%TD*%
%TA.AperFunction,SMDPad,CuDef*%
%ADD23RoundRect,0.150000X0.825000X0.150000X-0.825000X0.150000X-0.825000X-0.150000X0.825000X-0.150000X0*%
%TD*%
%TA.AperFunction,SMDPad,CuDef*%
%ADD24RoundRect,0.135000X0.185000X-0.135000X0.185000X0.135000X-0.185000X0.135000X-0.185000X-0.135000X0*%
%TD*%
%TA.AperFunction,SMDPad,CuDef*%
%ADD25RoundRect,0.150000X0.725000X0.150000X-0.725000X0.150000X-0.725000X-0.150000X0.725000X-0.150000X0*%
%TD*%
%TA.AperFunction,ViaPad*%
%ADD26C,0.600000*%
%TD*%
%TA.AperFunction,ViaPad*%
%ADD27C,0.700000*%
%TD*%
%TA.AperFunction,Conductor*%
%ADD28C,0.500000*%
%TD*%
%TA.AperFunction,Conductor*%
%ADD29C,0.300000*%
%TD*%
G04 APERTURE END LIST*
D10*
%TO.P,JP1,1,A*%
%TO.N,/CANL*%
X146750000Y-110000000D03*
%TO.P,JP1,2,B*%
%TO.N,Net-(JP1-B)*%
X146750000Y-112540000D03*
%TD*%
D11*
%TO.P,J7,1,Pin_1*%
%TO.N,/CANH*%
X149217500Y-103000000D03*
D12*
%TO.P,J7,2,Pin_2*%
%TO.N,/CANL*%
X149217500Y-105500000D03*
%TD*%
D13*
%TO.P,H3,1,1*%
%TO.N,GND*%
X121000000Y-90500000D03*
%TD*%
%TO.P,H4,1,1*%
%TO.N,GND*%
X121000000Y-117000000D03*
%TD*%
%TO.P,H2,1,1*%
%TO.N,GND*%
X147000000Y-117000000D03*
%TD*%
D14*
%TO.P,J1,1,Pin_1*%
%TO.N,/CANL*%
X118750000Y-105500000D03*
D12*
%TO.P,J1,2,Pin_2*%
%TO.N,/CANH*%
X118750000Y-103000000D03*
%TD*%
D13*
%TO.P,H1,1,1*%
%TO.N,GND*%
X147000000Y-90500000D03*
%TD*%
D15*
%TO.P,U5,1,Vin*%
%TO.N,VCC*%
X141750000Y-100290000D03*
D16*
%TO.P,U5,2,GND*%
%TO.N,GND*%
X141750000Y-97750000D03*
%TO.P,U5,3,Vout*%
%TO.N,+3V3*%
X141750000Y-95210000D03*
%TD*%
D17*
%TO.P,J4,1,Pin_1*%
%TO.N,/OB2*%
X126460000Y-119000000D03*
D18*
%TO.P,J4,2,Pin_2*%
%TO.N,/OB1*%
X129000000Y-119000000D03*
%TO.P,J4,3,Pin_3*%
%TO.N,/OA1*%
X131540000Y-119000000D03*
%TO.P,J4,4,Pin_4*%
%TO.N,/OA2*%
X134080000Y-119000000D03*
%TD*%
D19*
%TO.P,J5,S1,SHIELD*%
%TO.N,unconnected-(J5-SHIELD-PadS1)*%
X138320000Y-90000000D03*
D20*
%TO.N,unconnected-(J5-SHIELD-PadS1)_2*%
X138320000Y-85820000D03*
D19*
%TO.N,unconnected-(J5-SHIELD-PadS1)_0*%
X129680000Y-90000000D03*
D20*
%TO.N,unconnected-(J5-SHIELD-PadS1)_1*%
X129680000Y-85820000D03*
%TD*%
D17*
%TO.P,J6,1,Pin_1*%
%TO.N,+3V3*%
X134040000Y-115250000D03*
D18*
%TO.P,J6,2,Pin_2*%
%TO.N,/SWDIO*%
X131500000Y-115250000D03*
%TO.P,J6,3,Pin_3*%
%TO.N,/SWDCLK*%
X128960000Y-115250000D03*
%TO.P,J6,4,Pin_4*%
%TO.N,GND*%
X126420000Y-115250000D03*
%TD*%
D21*
%TO.P,D1,1,A1*%
%TO.N,+3V3*%
X137950000Y-98000000D03*
%TO.P,D1,2,A2*%
%TO.N,GND*%
X135050000Y-98000000D03*
%TD*%
D22*
%TO.P,C1,1*%
%TO.N,+3V3*%
X137750000Y-102540000D03*
%TO.P,C1,2*%
%TO.N,GND*%
X137750000Y-103500000D03*
%TD*%
D23*
%TO.P,U2,1,D*%
%TO.N,/CAN_TX*%
X127250000Y-102750000D03*
%TO.P,U2,2,GND*%
%TO.N,GND*%
X127250000Y-104020000D03*
%TO.P,U2,3,VCC*%
%TO.N,+3V3*%
X127250000Y-105290000D03*
%TO.P,U2,4,R*%
%TO.N,/CAN_RX*%
X127250000Y-106560000D03*
%TO.P,U2,5,NC*%
%TO.N,unconnected-(U2-NC-Pad5)*%
X122300000Y-106560000D03*
%TO.P,U2,6,CANL*%
%TO.N,/CANL*%
X122300000Y-105290000D03*
%TO.P,U2,7,CANH*%
%TO.N,/CANH*%
X122300000Y-104020000D03*
%TO.P,U2,8,NC*%
%TO.N,unconnected-(U2-NC-Pad8)*%
X122300000Y-102750000D03*
%TD*%
D24*
%TO.P,R2,1*%
%TO.N,/ESCL*%
X131000000Y-94780000D03*
%TO.P,R2,2*%
%TO.N,+3V3*%
X131000000Y-93760000D03*
%TD*%
%TO.P,R3,1*%
%TO.N,/ESDA*%
X130000000Y-94770000D03*
%TO.P,R3,2*%
%TO.N,+3V3*%
X130000000Y-93750000D03*
%TD*%
D25*
%TO.P,U6,1,VDD*%
%TO.N,+3V3*%
X136575000Y-101845000D03*
%TO.P,U6,2,MODE*%
X136575000Y-103115000D03*
%TO.P,U6,3,OUT*%
%TO.N,unconnected-(U6-OUT-Pad3)*%
X136575000Y-104385000D03*
%TO.P,U6,4,GND*%
%TO.N,GND*%
X136575000Y-105655000D03*
%TO.P,U6,5,PUSH*%
%TO.N,unconnected-(U6-PUSH-Pad5)*%
X131425000Y-105655000D03*
%TO.P,U6,6,A*%
%TO.N,/ESDA*%
X131425000Y-104385000D03*
%TO.P,U6,7,B*%
%TO.N,/ESCL*%
X131425000Y-103115000D03*
%TO.P,U6,8,Z*%
%TO.N,+3V3*%
X131425000Y-101845000D03*
%TD*%
D26*
%TO.N,GND*%
X129750000Y-92000000D03*
D27*
X123150002Y-101900000D03*
X124661894Y-98161894D03*
X136500000Y-92050000D03*
D26*
X137500000Y-92000000D03*
D27*
X141500000Y-103300000D03*
X122369975Y-109130025D03*
X136500000Y-97000000D03*
X140253920Y-104003920D03*
D26*
X130750000Y-92000000D03*
D27*
X143250000Y-97250000D03*
X131000000Y-112220000D03*
X131978553Y-112021447D03*
X123556191Y-100450000D03*
D26*
X132233771Y-109295565D03*
D27*
X139750000Y-103300000D03*
X121000000Y-94500000D03*
X144250000Y-106500000D03*
X135500000Y-114750000D03*
X123500000Y-109500000D03*
X128276844Y-96526844D03*
X143250000Y-98250000D03*
X147250000Y-99500000D03*
X129000000Y-104750000D03*
X150750000Y-117000000D03*
X121750000Y-108000000D03*
X147250000Y-100500000D03*
X142500000Y-103300000D03*
X125000000Y-114500000D03*
X118750000Y-112000000D03*
D26*
X132500000Y-94000000D03*
D27*
X136499831Y-99999059D03*
X117250000Y-117000000D03*
X149750000Y-113000000D03*
X143250000Y-119500000D03*
X136249999Y-108500000D03*
D26*
X137500000Y-93750000D03*
D27*
X144085070Y-98643932D03*
X143250000Y-90500000D03*
D26*
%TO.N,+3V3*%
X132980873Y-111900111D03*
D27*
X148499975Y-111749975D03*
X134040000Y-114040000D03*
X135500000Y-115800000D03*
X136250000Y-99000000D03*
X137519975Y-117969975D03*
X127250000Y-100750000D03*
X145699999Y-111060051D03*
X136500000Y-95050000D03*
X128000000Y-112220000D03*
%TO.N,VCC*%
X149500000Y-96750000D03*
X144539949Y-103299999D03*
X118500000Y-96750000D03*
X143500000Y-100250000D03*
%TO.N,/OB1*%
X138050000Y-115815543D03*
X140480806Y-105029324D03*
%TO.N,/OA2*%
X143250000Y-106500000D03*
X141124176Y-114514556D03*
D26*
%TO.N,/MOT_STBY*%
X144850000Y-107250000D03*
X138290379Y-106040381D03*
%TO.N,/MOT_DIR*%
X144750000Y-101950000D03*
X144577541Y-108091699D03*
D27*
%TO.N,/MOT_ENABLE*%
X128999360Y-99000000D03*
X135000000Y-111500000D03*
D26*
%TO.N,/MOT_DIAG*%
X139250000Y-101450000D03*
X139150000Y-113400000D03*
%TO.N,/MOT_MS1*%
X139625000Y-115850000D03*
X132750000Y-95750000D03*
D27*
%TO.N,/OA1*%
X141130295Y-104406295D03*
X138750000Y-116500000D03*
D26*
%TO.N,/MOT_MS2*%
X140490380Y-115340380D03*
X133127370Y-96455405D03*
D27*
%TO.N,/OB2*%
X136940379Y-107049570D03*
X135975001Y-113337146D03*
D26*
%TO.N,/MOT_UART_RX*%
X128250000Y-108750000D03*
X144250000Y-112500000D03*
%TO.N,/SWDCLK*%
X134500000Y-99750000D03*
%TO.N,/SWDIO*%
X136650000Y-100835691D03*
D27*
%TO.N,/BOOT0*%
X124630025Y-95630025D03*
X127000000Y-95750000D03*
%TO.N,/ESCL*%
X130711290Y-95931606D03*
X130900000Y-98795388D03*
%TO.N,/ESDA*%
X130400001Y-98047055D03*
X129759999Y-95820000D03*
D26*
%TO.N,/CAN_TX*%
X134540381Y-107459619D03*
%TO.N,/CAN_RX*%
X135625762Y-106455000D03*
%TD*%
D28*
%TO.N,GND*%
X127250000Y-104020000D02*
X128270000Y-104020000D01*
X135500000Y-98000000D02*
X136500000Y-97000000D01*
D29*
X137750000Y-103500000D02*
X137750000Y-104335788D01*
D28*
X128270000Y-104020000D02*
X129000000Y-104750000D01*
D29*
X137750000Y-104335788D02*
X136430788Y-105655000D01*
D28*
X135050000Y-98000000D02*
X135500000Y-98000000D01*
X135050000Y-98034926D02*
X135050000Y-98000000D01*
D29*
X136430788Y-105655000D02*
X136075000Y-105655000D01*
%TO.N,+3V3*%
X128973738Y-106000000D02*
X129278738Y-106305000D01*
X128263738Y-105290000D02*
X128973738Y-106000000D01*
X127250000Y-100750000D02*
X128700000Y-102200000D01*
D28*
X131598629Y-113950000D02*
X129868629Y-112220000D01*
X133950000Y-113950000D02*
X131598629Y-113950000D01*
D29*
X129700000Y-104460050D02*
X129700000Y-105326262D01*
D28*
X135500000Y-115800000D02*
X135800000Y-115800000D01*
X131000000Y-93760000D02*
X130010000Y-93760000D01*
D29*
X127700000Y-105290000D02*
X128263738Y-105290000D01*
D28*
X135800000Y-115800000D02*
X137519975Y-117519975D01*
D29*
X128700000Y-102864213D02*
X129200000Y-103364213D01*
X129000000Y-106026262D02*
X128973738Y-106000000D01*
D28*
X131131056Y-93760000D02*
X131000000Y-93760000D01*
X137950000Y-98000000D02*
X137250000Y-98000000D01*
D29*
X148499975Y-111749975D02*
X148000000Y-111250000D01*
D28*
X134040000Y-114040000D02*
X132980873Y-112980873D01*
X134000000Y-94750000D02*
X133950000Y-94800000D01*
D29*
X129200000Y-104050000D02*
X129289950Y-104050000D01*
X128700000Y-102200000D02*
X128700000Y-102864213D01*
X129200000Y-103364213D02*
X129200000Y-104050000D01*
D28*
X133950000Y-94800000D02*
X132171056Y-94800000D01*
X137519975Y-117519975D02*
X137519975Y-117969975D01*
X132980873Y-112980873D02*
X132980873Y-111900111D01*
X136500000Y-95050000D02*
X136200000Y-94750000D01*
X136200000Y-94750000D02*
X134000000Y-94750000D01*
D29*
X132695000Y-106305000D02*
X135885000Y-103115000D01*
X148000000Y-111250000D02*
X145889948Y-111250000D01*
X129278738Y-106305000D02*
X132695000Y-106305000D01*
D28*
X134040000Y-114040000D02*
X133950000Y-113950000D01*
X130010000Y-93760000D02*
X130000000Y-93750000D01*
D29*
X145889948Y-111250000D02*
X145699999Y-111060051D01*
D28*
X141750000Y-95210000D02*
X141750000Y-95250000D01*
X130925000Y-101845000D02*
X137055000Y-101845000D01*
D29*
X129289950Y-104050000D02*
X129700000Y-104460050D01*
X129700000Y-105326262D02*
X129000000Y-106026262D01*
D28*
X132171056Y-94800000D02*
X131131056Y-93760000D01*
X137055000Y-101845000D02*
X137750000Y-102540000D01*
X129868629Y-112220000D02*
X128000000Y-112220000D01*
D29*
X135885000Y-103115000D02*
X136075000Y-103115000D01*
D28*
X137250000Y-98000000D02*
X136250000Y-99000000D01*
D29*
%TO.N,/OB1*%
X138050000Y-115815543D02*
X138050000Y-115419239D01*
X140480806Y-112988433D02*
X140480806Y-105029324D01*
X138050000Y-115419239D02*
X140480806Y-112988433D01*
%TO.N,/OA2*%
X142500000Y-113421576D02*
X141407020Y-114514556D01*
X143250000Y-106500000D02*
X142500000Y-107250000D01*
X142500000Y-107250000D02*
X142500000Y-113421576D01*
X141407020Y-114514556D02*
X141124176Y-114514556D01*
%TO.N,/MOT_STBY*%
X145000000Y-107100000D02*
X144850000Y-107250000D01*
X142750000Y-102500000D02*
X145000000Y-104750000D01*
X138290379Y-105209621D02*
X139000000Y-104500000D01*
X138290379Y-106040381D02*
X138290379Y-105209621D01*
X139000000Y-104500000D02*
X139000000Y-103000000D01*
X145000000Y-104750000D02*
X145000000Y-107100000D01*
X141250000Y-102500000D02*
X142750000Y-102500000D01*
X140250000Y-101750000D02*
X140500000Y-101750000D01*
X140500000Y-101750000D02*
X141250000Y-102500000D01*
X139000000Y-103000000D02*
X140250000Y-101750000D01*
%TO.N,/MOT_DIR*%
X144577541Y-108091699D02*
X144769240Y-107900000D01*
X144769240Y-107900000D02*
X145119239Y-107900000D01*
X145500000Y-102700000D02*
X144750000Y-101950000D01*
X145119239Y-107900000D02*
X145500000Y-107519239D01*
X145500000Y-107519239D02*
X145500000Y-102700000D01*
%TO.N,/MOT_ENABLE*%
X125350000Y-108100000D02*
X125250000Y-108000000D01*
X135000000Y-111500000D02*
X134250000Y-111500000D01*
X125250000Y-101000000D02*
X127250000Y-99000000D01*
X132914668Y-110164668D02*
X132914668Y-108995429D01*
X125250000Y-108000000D02*
X125250000Y-101000000D01*
X132019239Y-108100000D02*
X125350000Y-108100000D01*
X132914668Y-108995429D02*
X132019239Y-108100000D01*
X127250000Y-99000000D02*
X128999360Y-99000000D01*
X134250000Y-111500000D02*
X132914668Y-110164668D01*
%TO.N,/MOT_DIAG*%
X138500000Y-102200000D02*
X139250000Y-101450000D01*
X137640379Y-110240379D02*
X137640379Y-105152515D01*
X137640379Y-105152515D02*
X138500000Y-104292894D01*
X138500000Y-104292894D02*
X138500000Y-102200000D01*
X139150000Y-111750000D02*
X137640379Y-110240379D01*
X139150000Y-113400000D02*
X139150000Y-111750000D01*
%TO.N,/MOT_MS1*%
X141335788Y-116000000D02*
X139775000Y-116000000D01*
X138500000Y-95750000D02*
X141000000Y-93250000D01*
X146500000Y-108500000D02*
X143500000Y-111500000D01*
X143500000Y-111500000D02*
X143500000Y-113835788D01*
X139775000Y-116000000D02*
X139625000Y-115850000D01*
X146500000Y-97500000D02*
X146500000Y-108500000D01*
X132750000Y-95750000D02*
X138500000Y-95750000D01*
X143500000Y-113835788D02*
X141335788Y-116000000D01*
X142250000Y-93250000D02*
X146500000Y-97500000D01*
X141000000Y-93250000D02*
X142250000Y-93250000D01*
%TO.N,/OA1*%
X141300000Y-111950000D02*
X141300000Y-104576000D01*
X138750000Y-116500000D02*
X138750000Y-115426345D01*
X141000000Y-113176345D02*
X141000000Y-112250000D01*
X141000000Y-112250000D02*
X141300000Y-111950000D01*
X141300000Y-104576000D02*
X141130295Y-104406295D01*
X138750000Y-115426345D02*
X141000000Y-113176345D01*
%TO.N,/MOT_MS2*%
X138750000Y-96250000D02*
X141250000Y-93750000D01*
X142000000Y-93750000D02*
X146000000Y-97750000D01*
X143000000Y-111250000D02*
X143000000Y-113628682D01*
X141250000Y-93750000D02*
X142000000Y-93750000D01*
X141288302Y-115340380D02*
X140490380Y-115340380D01*
X133127370Y-96455405D02*
X133332775Y-96250000D01*
X143000000Y-113628682D02*
X141288302Y-115340380D01*
X133332775Y-96250000D02*
X138750000Y-96250000D01*
X146000000Y-108250000D02*
X143000000Y-111250000D01*
X146000000Y-97750000D02*
X146000000Y-108250000D01*
%TO.N,/OB2*%
X135750000Y-113112145D02*
X135975001Y-113337146D01*
X135500000Y-108250000D02*
X135500000Y-108750000D01*
X135500000Y-108750000D02*
X135750000Y-109000000D01*
X136700430Y-107049570D02*
X135500000Y-108250000D01*
X135750000Y-109000000D02*
X135750000Y-113112145D01*
X136940379Y-107049570D02*
X136700430Y-107049570D01*
%TO.N,/MOT_UART_RX*%
X141042894Y-117000000D02*
X139239950Y-117000000D01*
X137350000Y-115600000D02*
X135787146Y-114037146D01*
X139039950Y-117200000D02*
X138444507Y-117200000D01*
X135787146Y-114037146D02*
X135685051Y-114037146D01*
X130750000Y-108750000D02*
X128250000Y-108750000D01*
X137350000Y-116105493D02*
X137350000Y-115600000D01*
X144250000Y-113792894D02*
X141042894Y-117000000D01*
X135685051Y-114037146D02*
X134857006Y-113209101D01*
X144250000Y-112500000D02*
X144250000Y-113792894D01*
X134857006Y-112857006D02*
X130750000Y-108750000D01*
X139239950Y-117000000D02*
X139039950Y-117200000D01*
X138444507Y-117200000D02*
X137350000Y-116105493D01*
X134857006Y-113209101D02*
X134857006Y-112857006D01*
%TO.N,/CANH*%
X129250000Y-92750000D02*
X142457107Y-92750000D01*
X124951844Y-98861894D02*
X128750000Y-95063738D01*
X121500000Y-103500000D02*
X119500000Y-103500000D01*
X120750000Y-102250000D02*
X124138106Y-98861894D01*
X119500000Y-103500000D02*
X119000000Y-103000000D01*
X128750000Y-95063738D02*
X128750000Y-93250000D01*
X122750000Y-104020000D02*
X122020000Y-104020000D01*
X124138106Y-98861894D02*
X124951844Y-98861894D01*
X122020000Y-104020000D02*
X121500000Y-103500000D01*
X149217500Y-99510393D02*
X149217500Y-103000000D01*
X120500000Y-103000000D02*
X120750000Y-102750000D01*
X119000000Y-103000000D02*
X120500000Y-103000000D01*
X120750000Y-102750000D02*
X120750000Y-102250000D01*
X142457107Y-92750000D02*
X149217500Y-99510393D01*
X128750000Y-93250000D02*
X129250000Y-92750000D01*
%TO.N,/CANL*%
X149217500Y-105500000D02*
X149217500Y-106489606D01*
X122750000Y-105290000D02*
X119210000Y-105290000D01*
X126730000Y-117750000D02*
X119000000Y-110020000D01*
X145000000Y-114000000D02*
X141500000Y-117500000D01*
X141500000Y-118250000D02*
X141000000Y-118750000D01*
X119210000Y-105290000D02*
X119000000Y-105500000D01*
X149217500Y-106532500D02*
X147000000Y-108750000D01*
X149217500Y-106489606D02*
X145000000Y-110707106D01*
X147000000Y-108750000D02*
X147000000Y-110000000D01*
X141500000Y-117500000D02*
X141500000Y-118250000D01*
X145000000Y-110707106D02*
X145000000Y-114000000D01*
X149217500Y-105500000D02*
X149217500Y-106532500D01*
X149197500Y-105520000D02*
X149217500Y-105500000D01*
X119000000Y-110020000D02*
X119000000Y-105500000D01*
X136000000Y-118750000D02*
X135000000Y-117750000D01*
X141000000Y-118750000D02*
X136000000Y-118750000D01*
X135000000Y-117750000D02*
X126730000Y-117750000D01*
%TO.N,/SWDCLK*%
X127584620Y-113874620D02*
X128960000Y-115250000D01*
X127294000Y-97226844D02*
X125292893Y-99227951D01*
X131000000Y-96750000D02*
X128976844Y-96750000D01*
X125292893Y-99500000D02*
X124250000Y-100542893D01*
X132590000Y-99326846D02*
X132590000Y-98340000D01*
X124250000Y-112000000D02*
X126124620Y-113874620D01*
X128976844Y-96750000D02*
X128976844Y-96816794D01*
X125292893Y-99227951D02*
X125292893Y-99500000D01*
X126124620Y-113874620D02*
X127584620Y-113874620D01*
X128976844Y-96816794D02*
X128566794Y-97226844D01*
X134500000Y-99750000D02*
X133013154Y-99750000D01*
X132590000Y-98340000D02*
X131000000Y-96750000D01*
X124250000Y-100542893D02*
X124250000Y-112000000D01*
X133013154Y-99750000D02*
X132590000Y-99326846D01*
X128566794Y-97226844D02*
X127294000Y-97226844D01*
%TO.N,/SWDIO*%
X129250745Y-97250000D02*
X128773901Y-97726844D01*
X124750000Y-100750000D02*
X124750000Y-111750000D01*
X128000000Y-113250000D02*
X128750000Y-114000000D01*
X126250000Y-113250000D02*
X128000000Y-113250000D01*
X125792893Y-99435057D02*
X125792893Y-99707107D01*
X127501106Y-97726844D02*
X125792893Y-99435057D01*
X128773901Y-97726844D02*
X127501106Y-97726844D01*
X130250000Y-114000000D02*
X131500000Y-115250000D01*
X132806047Y-100250000D02*
X132090000Y-99533953D01*
X124750000Y-111750000D02*
X126250000Y-113250000D01*
X133330761Y-100250000D02*
X132806047Y-100250000D01*
X132090000Y-98590000D02*
X130750000Y-97250000D01*
X133916452Y-100835691D02*
X133330761Y-100250000D01*
X132090000Y-99000000D02*
X132090000Y-98547106D01*
X132090000Y-99533953D02*
X132090000Y-99000000D01*
X136650000Y-100835691D02*
X133916452Y-100835691D01*
X125792893Y-99707107D02*
X124750000Y-100750000D01*
X132090000Y-99000000D02*
X132090000Y-98590000D01*
X128750000Y-114000000D02*
X130250000Y-114000000D01*
X130750000Y-97250000D02*
X129250745Y-97250000D01*
%TO.N,/BOOT0*%
X124750000Y-95750000D02*
X124630025Y-95630025D01*
X127000000Y-95750000D02*
X124750000Y-95750000D01*
%TO.N,/ESCL*%
X130365000Y-103115000D02*
X130925000Y-103115000D01*
X131000000Y-95642896D02*
X130711290Y-95931606D01*
X130250000Y-100933738D02*
X129700000Y-101483738D01*
X130900000Y-99150000D02*
X130250000Y-99800000D01*
X130250000Y-99800000D02*
X130250000Y-100933738D01*
X130900000Y-98795388D02*
X130900000Y-99150000D01*
X131000000Y-94780000D02*
X131000000Y-95642896D01*
X129700000Y-102450000D02*
X130365000Y-103115000D01*
X129700000Y-101483738D02*
X129700000Y-102450000D01*
%TO.N,/ESDA*%
X130000000Y-95579999D02*
X129759999Y-95820000D01*
X129699360Y-98747696D02*
X129699360Y-100777272D01*
X129700000Y-103157107D02*
X129700000Y-103476262D01*
X129200000Y-101276632D02*
X129200000Y-102657107D01*
X129200000Y-102657107D02*
X129700000Y-103157107D01*
X130000000Y-94770000D02*
X130000000Y-95579999D01*
X129700000Y-103476262D02*
X130608738Y-104385000D01*
X130608738Y-104385000D02*
X130925000Y-104385000D01*
X129699360Y-100777272D02*
X129200000Y-101276632D01*
X130400001Y-98047055D02*
X129699360Y-98747696D01*
%TO.N,/CAN_TX*%
X125750000Y-107000000D02*
X125750000Y-103500000D01*
X125750000Y-103500000D02*
X126500000Y-102750000D01*
X134540381Y-107459619D02*
X134430762Y-107350000D01*
X126100000Y-107350000D02*
X125750000Y-107000000D01*
X126500000Y-102750000D02*
X127500000Y-102750000D01*
X134430762Y-107350000D02*
X126100000Y-107350000D01*
%TO.N,/CAN_RX*%
X135275762Y-106805000D02*
X127745000Y-106805000D01*
X135625762Y-106455000D02*
X135275762Y-106805000D01*
X127745000Y-106805000D02*
X127500000Y-106560000D01*
%TD*%
%TA.AperFunction,Conductor*%
%TO.N,+3V3*%
G36*
X141746231Y-94420185D02*
G01*
X141766873Y-94436819D01*
X142863792Y-95533738D01*
X142897277Y-95595061D01*
X142892293Y-95664753D01*
X142850421Y-95720686D01*
X142836331Y-95729815D01*
X141336688Y-96562950D01*
X141325529Y-96568043D01*
X141325574Y-96568138D01*
X141122361Y-96662898D01*
X141122357Y-96662900D01*
X140943121Y-96788402D01*
X140788402Y-96943121D01*
X140662900Y-97122357D01*
X140662898Y-97122361D01*
X140570426Y-97320668D01*
X140570422Y-97320677D01*
X140513794Y-97532017D01*
X140513791Y-97532034D01*
X140513382Y-97536711D01*
X140496184Y-97589691D01*
X137428431Y-102702611D01*
X137377060Y-102749970D01*
X137356702Y-102757889D01*
X137323607Y-102767505D01*
X137323599Y-102767508D01*
X137184316Y-102849880D01*
X137184307Y-102849887D01*
X137069887Y-102964307D01*
X137069881Y-102964315D01*
X136987505Y-103103606D01*
X136987504Y-103103609D01*
X136942357Y-103259002D01*
X136942356Y-103259008D01*
X136939500Y-103295302D01*
X136939500Y-103376000D01*
X136919815Y-103443039D01*
X136867011Y-103488794D01*
X136815500Y-103500000D01*
X135624000Y-103500000D01*
X135556961Y-103480315D01*
X135511206Y-103427511D01*
X135500000Y-103376000D01*
X135500000Y-101610191D01*
X135519685Y-101543152D01*
X135572489Y-101497397D01*
X135624000Y-101486191D01*
X136144932Y-101486191D01*
X136210904Y-101505197D01*
X136300477Y-101561480D01*
X136300481Y-101561481D01*
X136470737Y-101621057D01*
X136470743Y-101621058D01*
X136470745Y-101621059D01*
X136470746Y-101621059D01*
X136470750Y-101621060D01*
X136649996Y-101641256D01*
X136650000Y-101641256D01*
X136650004Y-101641256D01*
X136829249Y-101621060D01*
X136829252Y-101621059D01*
X136829255Y-101621059D01*
X136999522Y-101561480D01*
X137152262Y-101465507D01*
X137279816Y-101337953D01*
X137375789Y-101185213D01*
X137435368Y-101014946D01*
X137438110Y-100990612D01*
X137455565Y-100835694D01*
X137455565Y-100835687D01*
X137435369Y-100656441D01*
X137435368Y-100656436D01*
X137431169Y-100644435D01*
X137375789Y-100486169D01*
X137314395Y-100388462D01*
X137295396Y-100321227D01*
X137301457Y-100284180D01*
X137336328Y-100176862D01*
X137355016Y-99999059D01*
X137336328Y-99821256D01*
X137281081Y-99651224D01*
X137191690Y-99496394D01*
X137134175Y-99432517D01*
X137072066Y-99363537D01*
X137072061Y-99363533D01*
X137051113Y-99348313D01*
X137008448Y-99292982D01*
X137000000Y-99247996D01*
X137000000Y-97751184D01*
X137019685Y-97684145D01*
X137051112Y-97650869D01*
X137072230Y-97635526D01*
X137191859Y-97502665D01*
X137281250Y-97347835D01*
X137336497Y-97177803D01*
X137343514Y-97111036D01*
X137370099Y-97046423D01*
X137427397Y-97006439D01*
X137466835Y-97000000D01*
X138999999Y-97000000D01*
X139000000Y-97000000D01*
X139207770Y-96714315D01*
X139220344Y-96699601D01*
X141483127Y-94436819D01*
X141544450Y-94403334D01*
X141570808Y-94400500D01*
X141679192Y-94400500D01*
X141746231Y-94420185D01*
G37*
%TD.AperFunction*%
%TD*%
M02*
