%TF.GenerationSoftware,KiCad,Pcbnew,8.0.2*%
%TF.CreationDate,2024-07-19T14:35:34-04:00*%
%TF.ProjectId,StepperMotorDriver,53746570-7065-4724-9d6f-746f72447269,rev?*%
%TF.SameCoordinates,Original*%
%TF.FileFunction,Profile,NP*%
%FSLAX46Y46*%
G04 Gerber Fmt 4.6, Leading zero omitted, Abs format (unit mm)*
G04 Created by KiCad (PCBNEW 8.0.2) date 2024-07-19 14:35:34*
%MOMM*%
%LPD*%
G01*
G04 APERTURE LIST*
%TA.AperFunction,Profile*%
%ADD10C,0.050000*%
%TD*%
G04 APERTURE END LIST*
D10*
X111750000Y-92500000D02*
G75*
G02*
X114250000Y-90000000I2500000J0D01*
G01*
X150500000Y-120000000D02*
G75*
G02*
X153000000Y-117500000I2500000J0D01*
G01*
X156500000Y-92500000D02*
X156500000Y-115000000D01*
X154000000Y-90000000D02*
G75*
G02*
X156500000Y-92500000I0J-2500000D01*
G01*
X117500001Y-120229310D02*
X117500000Y-120000000D01*
X117500000Y-87500000D02*
G75*
G02*
X115000000Y-90000000I-2500000J0D01*
G01*
X111750000Y-92500000D02*
X111750000Y-115000000D01*
X150500000Y-86500000D02*
X150500000Y-87500000D01*
X117500000Y-86500000D02*
G75*
G02*
X120000000Y-84000000I2500000J0D01*
G01*
X138207106Y-83250001D02*
G75*
G02*
X139001225Y-84000000I42894J-749999D01*
G01*
X156500000Y-115000000D02*
G75*
G02*
X154000000Y-117500000I-2500000J0D01*
G01*
X153000000Y-117500000D02*
X154000000Y-117500000D01*
X150500001Y-120000001D02*
G75*
G02*
X149000001Y-121500001I-1500001J1D01*
G01*
X117500000Y-87500000D02*
X117500000Y-86500000D01*
X119000000Y-121500000D02*
X149000000Y-121500000D01*
X115000000Y-117500000D02*
G75*
G02*
X117500000Y-120000000I0J-2500000D01*
G01*
X148000000Y-84000000D02*
G75*
G02*
X150500000Y-86500000I0J-2500000D01*
G01*
X139001225Y-84000000D02*
X148000000Y-84000000D01*
X138207106Y-83250001D02*
X129750000Y-83205881D01*
X114250000Y-117500000D02*
G75*
G02*
X111750000Y-115000000I0J2500000D01*
G01*
X129000001Y-84000000D02*
G75*
G02*
X129750000Y-83205875I749999J42900D01*
G01*
X153000000Y-90000000D02*
X154000000Y-90000000D01*
X120000000Y-84000000D02*
X129000000Y-84000000D01*
X119000000Y-121500000D02*
G75*
G02*
X117499992Y-120229311I0J1520700D01*
G01*
X153000000Y-90000000D02*
G75*
G02*
X150500000Y-87500000I0J2500000D01*
G01*
X114250000Y-90000000D02*
X115000000Y-90000000D01*
X114250000Y-117500000D02*
X115000000Y-117500000D01*
M02*
