%TF.GenerationSoftware,KiCad,Pcbnew,8.0.2*%
%TF.CreationDate,2024-07-19T14:35:33-04:00*%
%TF.ProjectId,StepperMotorDriver,53746570-7065-4724-9d6f-746f72447269,rev?*%
%TF.SameCoordinates,Original*%
%TF.FileFunction,Copper,L3,Inr*%
%TF.FilePolarity,Positive*%
%FSLAX46Y46*%
G04 Gerber Fmt 4.6, Leading zero omitted, Abs format (unit mm)*
G04 Created by KiCad (PCBNEW 8.0.2) date 2024-07-19 14:35:33*
%MOMM*%
%LPD*%
G01*
G04 APERTURE LIST*
G04 Aperture macros list*
%AMRoundRect*
0 Rectangle with rounded corners*
0 $1 Rounding radius*
0 $2 $3 $4 $5 $6 $7 $8 $9 X,Y pos of 4 corners*
0 Add a 4 corners polygon primitive as box body*
4,1,4,$2,$3,$4,$5,$6,$7,$8,$9,$2,$3,0*
0 Add four circle primitives for the rounded corners*
1,1,$1+$1,$2,$3*
1,1,$1+$1,$4,$5*
1,1,$1+$1,$6,$7*
1,1,$1+$1,$8,$9*
0 Add four rect primitives between the rounded corners*
20,1,$1+$1,$2,$3,$4,$5,0*
20,1,$1+$1,$4,$5,$6,$7,0*
20,1,$1+$1,$6,$7,$8,$9,0*
20,1,$1+$1,$8,$9,$2,$3,0*%
G04 Aperture macros list end*
%TA.AperFunction,ComponentPad*%
%ADD10C,1.400000*%
%TD*%
%TA.AperFunction,ComponentPad*%
%ADD11RoundRect,0.250000X-0.750000X0.600000X-0.750000X-0.600000X0.750000X-0.600000X0.750000X0.600000X0*%
%TD*%
%TA.AperFunction,ComponentPad*%
%ADD12O,2.000000X1.700000*%
%TD*%
%TA.AperFunction,ComponentPad*%
%ADD13C,5.600000*%
%TD*%
%TA.AperFunction,ComponentPad*%
%ADD14RoundRect,0.250000X0.750000X-0.600000X0.750000X0.600000X-0.750000X0.600000X-0.750000X-0.600000X0*%
%TD*%
%TA.AperFunction,ComponentPad*%
%ADD15R,1.500000X1.500000*%
%TD*%
%TA.AperFunction,ComponentPad*%
%ADD16C,1.500000*%
%TD*%
%TA.AperFunction,ComponentPad*%
%ADD17R,1.700000X1.700000*%
%TD*%
%TA.AperFunction,ComponentPad*%
%ADD18O,1.700000X1.700000*%
%TD*%
%TA.AperFunction,ComponentPad*%
%ADD19O,1.000000X2.100000*%
%TD*%
%TA.AperFunction,ComponentPad*%
%ADD20O,1.000000X1.800000*%
%TD*%
%TA.AperFunction,ViaPad*%
%ADD21C,0.600000*%
%TD*%
%TA.AperFunction,ViaPad*%
%ADD22C,0.700000*%
%TD*%
G04 APERTURE END LIST*
D10*
%TO.N,/CANL*%
%TO.C,JP1*%
X146750000Y-110000000D03*
%TO.N,Net-(JP1-B)*%
X146750000Y-112540000D03*
%TD*%
D11*
%TO.N,/CANH*%
%TO.C,J7*%
X149217500Y-103000000D03*
D12*
%TO.N,/CANL*%
X149217500Y-105500000D03*
%TD*%
D13*
%TO.N,GND*%
%TO.C,H3*%
X121000000Y-90500000D03*
%TD*%
%TO.N,GND*%
%TO.C,H4*%
X121000000Y-117000000D03*
%TD*%
%TO.N,GND*%
%TO.C,H2*%
X147000000Y-117000000D03*
%TD*%
D14*
%TO.N,/CANL*%
%TO.C,J1*%
X118750000Y-105500000D03*
D12*
%TO.N,/CANH*%
X118750000Y-103000000D03*
%TD*%
D13*
%TO.N,GND*%
%TO.C,H1*%
X147000000Y-90500000D03*
%TD*%
D15*
%TO.N,VCC*%
%TO.C,U5*%
X141750000Y-100290000D03*
D16*
%TO.N,GND*%
X141750000Y-97750000D03*
%TO.N,+3V3*%
X141750000Y-95210000D03*
%TD*%
D17*
%TO.N,/OB2*%
%TO.C,J4*%
X126460000Y-119000000D03*
D18*
%TO.N,/OB1*%
X129000000Y-119000000D03*
%TO.N,/OA1*%
X131540000Y-119000000D03*
%TO.N,/OA2*%
X134080000Y-119000000D03*
%TD*%
D19*
%TO.N,unconnected-(J5-SHIELD-PadS1)*%
%TO.C,J5*%
X138320000Y-90000000D03*
D20*
%TO.N,unconnected-(J5-SHIELD-PadS1)_2*%
X138320000Y-85820000D03*
D19*
%TO.N,unconnected-(J5-SHIELD-PadS1)_0*%
X129680000Y-90000000D03*
D20*
%TO.N,unconnected-(J5-SHIELD-PadS1)_1*%
X129680000Y-85820000D03*
%TD*%
D17*
%TO.N,+3V3*%
%TO.C,J6*%
X134040000Y-115250000D03*
D18*
%TO.N,/SWDIO*%
X131500000Y-115250000D03*
%TO.N,/SWDCLK*%
X128960000Y-115250000D03*
%TO.N,GND*%
X126420000Y-115250000D03*
%TD*%
D21*
%TO.N,GND*%
X129750000Y-92000000D03*
D22*
X123150002Y-101900000D03*
X124661894Y-98161894D03*
X136500000Y-92050000D03*
D21*
X137500000Y-92000000D03*
D22*
X141500000Y-103300000D03*
X122369975Y-109130025D03*
X136500000Y-97000000D03*
X140253920Y-104003920D03*
D21*
X130750000Y-92000000D03*
D22*
X143250000Y-97250000D03*
X131000000Y-112220000D03*
X131978553Y-112021447D03*
X123556191Y-100450000D03*
D21*
X132233771Y-109295565D03*
D22*
X139750000Y-103300000D03*
X121000000Y-94500000D03*
X144250000Y-106500000D03*
X135500000Y-114750000D03*
X123500000Y-109500000D03*
X128276844Y-96526844D03*
X143250000Y-98250000D03*
X147250000Y-99500000D03*
X129000000Y-104750000D03*
X150750000Y-117000000D03*
X121750000Y-108000000D03*
X147250000Y-100500000D03*
X142500000Y-103300000D03*
X125000000Y-114500000D03*
X118750000Y-112000000D03*
D21*
X132500000Y-94000000D03*
D22*
X136499831Y-99999059D03*
X117250000Y-117000000D03*
X149750000Y-113000000D03*
X143250000Y-119500000D03*
X136249999Y-108500000D03*
D21*
X137500000Y-93750000D03*
D22*
X144085070Y-98643932D03*
X143250000Y-90500000D03*
D21*
%TO.N,+3V3*%
X132980873Y-111900111D03*
D22*
X148499975Y-111749975D03*
X134040000Y-114040000D03*
X135500000Y-115800000D03*
X136250000Y-99000000D03*
X137519975Y-117969975D03*
X127250000Y-100750000D03*
X145699999Y-111060051D03*
X136500000Y-95050000D03*
X128000000Y-112220000D03*
%TO.N,VCC*%
X149500000Y-96750000D03*
X144539949Y-103299999D03*
X118500000Y-96750000D03*
X143500000Y-100250000D03*
%TO.N,/OB1*%
X138050000Y-115815543D03*
X140480806Y-105029324D03*
%TO.N,/OA2*%
X143250000Y-106500000D03*
X141124176Y-114514556D03*
D21*
%TO.N,/MOT_STBY*%
X144850000Y-107250000D03*
X138290379Y-106040381D03*
%TO.N,/MOT_DIR*%
X144750000Y-101950000D03*
X144577541Y-108091699D03*
D22*
%TO.N,/MOT_ENABLE*%
X128999360Y-99000000D03*
X135000000Y-111500000D03*
D21*
%TO.N,/MOT_DIAG*%
X139250000Y-101450000D03*
X139150000Y-113400000D03*
%TO.N,/MOT_MS1*%
X139625000Y-115850000D03*
X132750000Y-95750000D03*
D22*
%TO.N,/OA1*%
X141130295Y-104406295D03*
X138750000Y-116500000D03*
D21*
%TO.N,/MOT_MS2*%
X140490380Y-115340380D03*
X133127370Y-96455405D03*
D22*
%TO.N,/OB2*%
X136940379Y-107049570D03*
X135975001Y-113337146D03*
D21*
%TO.N,/MOT_UART_RX*%
X128250000Y-108750000D03*
X144250000Y-112500000D03*
%TO.N,/SWDCLK*%
X134500000Y-99750000D03*
%TO.N,/SWDIO*%
X136650000Y-100835691D03*
D22*
%TO.N,/BOOT0*%
X124630025Y-95630025D03*
X127000000Y-95750000D03*
%TO.N,/ESCL*%
X130711290Y-95931606D03*
X130900000Y-98795388D03*
%TO.N,/ESDA*%
X130400001Y-98047055D03*
X129759999Y-95820000D03*
D21*
%TO.N,/CAN_TX*%
X134540381Y-107459619D03*
%TO.N,/CAN_RX*%
X135625762Y-106455000D03*
%TD*%
%TA.AperFunction,Conductor*%
%TO.N,VCC*%
G36*
X137592755Y-84519685D02*
G01*
X137638510Y-84572489D01*
X137648454Y-84641647D01*
X137619429Y-84705203D01*
X137613397Y-84711681D01*
X137542863Y-84782214D01*
X137542860Y-84782218D01*
X137433371Y-84946079D01*
X137433364Y-84946092D01*
X137357950Y-85128160D01*
X137357947Y-85128170D01*
X137319500Y-85321456D01*
X137319500Y-85321459D01*
X137319500Y-86318541D01*
X137319500Y-86318543D01*
X137319499Y-86318543D01*
X137357947Y-86511829D01*
X137357950Y-86511839D01*
X137433364Y-86693907D01*
X137433371Y-86693920D01*
X137542860Y-86857781D01*
X137542863Y-86857785D01*
X137682214Y-86997136D01*
X137682218Y-86997139D01*
X137846079Y-87106628D01*
X137846092Y-87106635D01*
X138028160Y-87182049D01*
X138028165Y-87182051D01*
X138028169Y-87182051D01*
X138028170Y-87182052D01*
X138221456Y-87220500D01*
X138221459Y-87220500D01*
X138418543Y-87220500D01*
X138548582Y-87194632D01*
X138611835Y-87182051D01*
X138793914Y-87106632D01*
X138957782Y-86997139D01*
X139097139Y-86857782D01*
X139206632Y-86693914D01*
X139282051Y-86511835D01*
X139297512Y-86434108D01*
X139320500Y-86318543D01*
X139320500Y-85321456D01*
X139282052Y-85128170D01*
X139282051Y-85128169D01*
X139282051Y-85128165D01*
X139262424Y-85080781D01*
X139206635Y-84946092D01*
X139206628Y-84946079D01*
X139097139Y-84782218D01*
X139097136Y-84782214D01*
X139027103Y-84712181D01*
X138993618Y-84650858D01*
X138998602Y-84581166D01*
X139040474Y-84525233D01*
X139105938Y-84500816D01*
X139114784Y-84500500D01*
X147934108Y-84500500D01*
X147995933Y-84500500D01*
X148004043Y-84500765D01*
X148252895Y-84517075D01*
X148268953Y-84519190D01*
X148476105Y-84560395D01*
X148509535Y-84567045D01*
X148525202Y-84571243D01*
X148694947Y-84628863D01*
X148757481Y-84650091D01*
X148772458Y-84656294D01*
X148884772Y-84711681D01*
X148992460Y-84764787D01*
X149006508Y-84772897D01*
X149210464Y-84909177D01*
X149223325Y-84919045D01*
X149338040Y-85019648D01*
X149407749Y-85080781D01*
X149419218Y-85092250D01*
X149580951Y-85276671D01*
X149590825Y-85289539D01*
X149727102Y-85493492D01*
X149735212Y-85507539D01*
X149843702Y-85727534D01*
X149849909Y-85742520D01*
X149928756Y-85974797D01*
X149932954Y-85990464D01*
X149980807Y-86231035D01*
X149982925Y-86247116D01*
X149999235Y-86495956D01*
X149999500Y-86504066D01*
X149999500Y-87434108D01*
X149999500Y-87500000D01*
X149999500Y-87657250D01*
X150010741Y-87764199D01*
X150032375Y-87970031D01*
X150097760Y-88277647D01*
X150097761Y-88277649D01*
X150190594Y-88563364D01*
X150194947Y-88576759D01*
X150237735Y-88672861D01*
X150322866Y-88864068D01*
X150322869Y-88864075D01*
X150480112Y-89136428D01*
X150480115Y-89136433D01*
X150664967Y-89390860D01*
X150664974Y-89390869D01*
X150747384Y-89482394D01*
X150875414Y-89624586D01*
X150983755Y-89722136D01*
X151109130Y-89835025D01*
X151109139Y-89835032D01*
X151363566Y-90019884D01*
X151363571Y-90019887D01*
X151635924Y-90177130D01*
X151635928Y-90177131D01*
X151635932Y-90177134D01*
X151923241Y-90305053D01*
X152222348Y-90402238D01*
X152222351Y-90402238D01*
X152222352Y-90402239D01*
X152264737Y-90411248D01*
X152529974Y-90467626D01*
X152842750Y-90500500D01*
X152934108Y-90500500D01*
X153934108Y-90500500D01*
X153995933Y-90500500D01*
X154004043Y-90500765D01*
X154252895Y-90517075D01*
X154268953Y-90519190D01*
X154476105Y-90560395D01*
X154509535Y-90567045D01*
X154525202Y-90571243D01*
X154694947Y-90628863D01*
X154757481Y-90650091D01*
X154772458Y-90656294D01*
X154981799Y-90759529D01*
X154992460Y-90764787D01*
X155006508Y-90772897D01*
X155210464Y-90909177D01*
X155223328Y-90919048D01*
X155407749Y-91080781D01*
X155419218Y-91092250D01*
X155457170Y-91135526D01*
X155578793Y-91274211D01*
X155580951Y-91276671D01*
X155590824Y-91289537D01*
X155610935Y-91319636D01*
X155727102Y-91493492D01*
X155735212Y-91507539D01*
X155843702Y-91727534D01*
X155849909Y-91742520D01*
X155928756Y-91974797D01*
X155932954Y-91990464D01*
X155980807Y-92231035D01*
X155982925Y-92247116D01*
X155999235Y-92495956D01*
X155999500Y-92504066D01*
X155999500Y-114995933D01*
X155999235Y-115004043D01*
X155982925Y-115252883D01*
X155980807Y-115268964D01*
X155932954Y-115509535D01*
X155928756Y-115525202D01*
X155849909Y-115757479D01*
X155843702Y-115772465D01*
X155735212Y-115992460D01*
X155727102Y-116006507D01*
X155590825Y-116210460D01*
X155580951Y-116223328D01*
X155419218Y-116407749D01*
X155407749Y-116419218D01*
X155223328Y-116580951D01*
X155210460Y-116590825D01*
X155006507Y-116727102D01*
X154992460Y-116735212D01*
X154772465Y-116843702D01*
X154757479Y-116849909D01*
X154525202Y-116928756D01*
X154509535Y-116932954D01*
X154268964Y-116980807D01*
X154252883Y-116982925D01*
X154004043Y-116999235D01*
X153995933Y-116999500D01*
X153065892Y-116999500D01*
X153000000Y-116999500D01*
X152842750Y-116999500D01*
X152529974Y-117032374D01*
X152529970Y-117032374D01*
X152529968Y-117032375D01*
X152222352Y-117097760D01*
X152222350Y-117097761D01*
X151923248Y-117194944D01*
X151764280Y-117265721D01*
X151695030Y-117275005D01*
X151631754Y-117245376D01*
X151594541Y-117186241D01*
X151590524Y-117139484D01*
X151605185Y-117000000D01*
X151586497Y-116822197D01*
X151554104Y-116722501D01*
X151531252Y-116652170D01*
X151531249Y-116652164D01*
X151530887Y-116651537D01*
X151441859Y-116497335D01*
X151386201Y-116435521D01*
X151322235Y-116364478D01*
X151322232Y-116364476D01*
X151322231Y-116364475D01*
X151322230Y-116364474D01*
X151177593Y-116259388D01*
X151014267Y-116186671D01*
X151014265Y-116186670D01*
X150862815Y-116154479D01*
X150839391Y-116149500D01*
X150660609Y-116149500D01*
X150637185Y-116154479D01*
X150485733Y-116186670D01*
X150485732Y-116186670D01*
X150362449Y-116241560D01*
X150293199Y-116250844D01*
X150229923Y-116221215D01*
X150192710Y-116162080D01*
X150192534Y-116161453D01*
X150132327Y-115944607D01*
X150132325Y-115944600D01*
X150108587Y-115885023D01*
X150040312Y-115713664D01*
X149999857Y-115612129D01*
X149999848Y-115612111D01*
X149985690Y-115585407D01*
X149884990Y-115395467D01*
X149832215Y-115295922D01*
X149832213Y-115295919D01*
X149832211Y-115295915D01*
X149631365Y-114999689D01*
X149631361Y-114999684D01*
X149631358Y-114999680D01*
X149399668Y-114726914D01*
X149139837Y-114480789D01*
X149139830Y-114480783D01*
X149139827Y-114480781D01*
X149036409Y-114402165D01*
X148854919Y-114264200D01*
X148548253Y-114079685D01*
X148548252Y-114079684D01*
X148548248Y-114079682D01*
X148548244Y-114079680D01*
X148223447Y-113929414D01*
X148223441Y-113929411D01*
X148223435Y-113929409D01*
X148053854Y-113872270D01*
X147884273Y-113815131D01*
X147534746Y-113738195D01*
X147519247Y-113736509D01*
X147454729Y-113709689D01*
X147414953Y-113652247D01*
X147412548Y-113582419D01*
X147448276Y-113522375D01*
X147467380Y-113507808D01*
X147476562Y-113502124D01*
X147588583Y-113400003D01*
X147640979Y-113352238D01*
X147680890Y-113299388D01*
X147775058Y-113174689D01*
X147874229Y-112975528D01*
X147935115Y-112761536D01*
X147948712Y-112614789D01*
X147974498Y-112549855D01*
X148031298Y-112509167D01*
X148101079Y-112505647D01*
X148122614Y-112512951D01*
X148235708Y-112563304D01*
X148410584Y-112600475D01*
X148410585Y-112600475D01*
X148589364Y-112600475D01*
X148589366Y-112600475D01*
X148764242Y-112563304D01*
X148782662Y-112555102D01*
X148851911Y-112545816D01*
X148915188Y-112575443D01*
X148952403Y-112634578D01*
X148951739Y-112704444D01*
X148951030Y-112706699D01*
X148913504Y-112822192D01*
X148913503Y-112822194D01*
X148894815Y-113000000D01*
X148913503Y-113177805D01*
X148913504Y-113177807D01*
X148968747Y-113347829D01*
X148968750Y-113347835D01*
X149058141Y-113502665D01*
X149075888Y-113522375D01*
X149177764Y-113635521D01*
X149177767Y-113635523D01*
X149177770Y-113635526D01*
X149322407Y-113740612D01*
X149485733Y-113813329D01*
X149660609Y-113850500D01*
X149660610Y-113850500D01*
X149839389Y-113850500D01*
X149839391Y-113850500D01*
X150014267Y-113813329D01*
X150177593Y-113740612D01*
X150322230Y-113635526D01*
X150441859Y-113502665D01*
X150531250Y-113347835D01*
X150586497Y-113177803D01*
X150605185Y-113000000D01*
X150586497Y-112822197D01*
X150542075Y-112685480D01*
X150531252Y-112652170D01*
X150531249Y-112652164D01*
X150521643Y-112635526D01*
X150441859Y-112497335D01*
X150356355Y-112402373D01*
X150322235Y-112364478D01*
X150322232Y-112364476D01*
X150322231Y-112364475D01*
X150322230Y-112364474D01*
X150177593Y-112259388D01*
X150014267Y-112186671D01*
X150014265Y-112186670D01*
X149886594Y-112159533D01*
X149839391Y-112149500D01*
X149660609Y-112149500D01*
X149629954Y-112156015D01*
X149485733Y-112186670D01*
X149485728Y-112186672D01*
X149467309Y-112194873D01*
X149398059Y-112204157D01*
X149334783Y-112174528D01*
X149297570Y-112115392D01*
X149298236Y-112045526D01*
X149298917Y-112043359D01*
X149336472Y-111927778D01*
X149355160Y-111749975D01*
X149336472Y-111572172D01*
X149295437Y-111445880D01*
X149281227Y-111402145D01*
X149281224Y-111402139D01*
X149191834Y-111247310D01*
X149137233Y-111186670D01*
X149072210Y-111114453D01*
X149072207Y-111114451D01*
X149072206Y-111114450D01*
X149072205Y-111114449D01*
X148927568Y-111009363D01*
X148764242Y-110936646D01*
X148764240Y-110936645D01*
X148636569Y-110909508D01*
X148589366Y-110899475D01*
X148410584Y-110899475D01*
X148379929Y-110905990D01*
X148235708Y-110936645D01*
X148235703Y-110936647D01*
X148072383Y-111009362D01*
X147927743Y-111114450D01*
X147808115Y-111247311D01*
X147718725Y-111402139D01*
X147718722Y-111402146D01*
X147678739Y-111525202D01*
X147639301Y-111582878D01*
X147574943Y-111610076D01*
X147506096Y-111598161D01*
X147481222Y-111581215D01*
X147481136Y-111581330D01*
X147478779Y-111579550D01*
X147477272Y-111578523D01*
X147476562Y-111577876D01*
X147476559Y-111577874D01*
X147476558Y-111577873D01*
X147287404Y-111460754D01*
X147287395Y-111460750D01*
X147193956Y-111424552D01*
X147093475Y-111385625D01*
X147038075Y-111343054D01*
X147014484Y-111277288D01*
X147030195Y-111209207D01*
X147080219Y-111160428D01*
X147093466Y-111154377D01*
X147287401Y-111079247D01*
X147476562Y-110962124D01*
X147640981Y-110812236D01*
X147775058Y-110634689D01*
X147874229Y-110435528D01*
X147935115Y-110221536D01*
X147955643Y-110000000D01*
X147935115Y-109778464D01*
X147874229Y-109564472D01*
X147869794Y-109555565D01*
X147775061Y-109365316D01*
X147775056Y-109365308D01*
X147640979Y-109187761D01*
X147476562Y-109037876D01*
X147476560Y-109037874D01*
X147287404Y-108920754D01*
X147287398Y-108920752D01*
X147079940Y-108840382D01*
X146861243Y-108799500D01*
X146638757Y-108799500D01*
X146420060Y-108840382D01*
X146325363Y-108877068D01*
X146212601Y-108920752D01*
X146212595Y-108920754D01*
X146023439Y-109037874D01*
X146023437Y-109037876D01*
X145859020Y-109187761D01*
X145724943Y-109365308D01*
X145724938Y-109365316D01*
X145625775Y-109564461D01*
X145625769Y-109564476D01*
X145564885Y-109778462D01*
X145564884Y-109778464D01*
X145544357Y-109999999D01*
X145544357Y-110000001D01*
X145554504Y-110109509D01*
X145541089Y-110178079D01*
X145492732Y-110228511D01*
X145456817Y-110242240D01*
X145445660Y-110244611D01*
X145435732Y-110246722D01*
X145435731Y-110246722D01*
X145435728Y-110246723D01*
X145435727Y-110246723D01*
X145272407Y-110319438D01*
X145127767Y-110424526D01*
X145008139Y-110557387D01*
X144918749Y-110712215D01*
X144918746Y-110712221D01*
X144863503Y-110882243D01*
X144863502Y-110882245D01*
X144844814Y-111060051D01*
X144863502Y-111237856D01*
X144863503Y-111237858D01*
X144918746Y-111407880D01*
X144918749Y-111407886D01*
X145008140Y-111562716D01*
X145026294Y-111582878D01*
X145127763Y-111695572D01*
X145127766Y-111695574D01*
X145127769Y-111695577D01*
X145272406Y-111800663D01*
X145435732Y-111873380D01*
X145555078Y-111898747D01*
X145616555Y-111931938D01*
X145650332Y-111993100D01*
X145645680Y-112062815D01*
X145640296Y-112075300D01*
X145629088Y-112097810D01*
X145625770Y-112104474D01*
X145625769Y-112104476D01*
X145564885Y-112318462D01*
X145564884Y-112318464D01*
X145544357Y-112539999D01*
X145544357Y-112540000D01*
X145564884Y-112761535D01*
X145564885Y-112761537D01*
X145625769Y-112975523D01*
X145625775Y-112975538D01*
X145724938Y-113174683D01*
X145724943Y-113174691D01*
X145859020Y-113352238D01*
X146023437Y-113502123D01*
X146023439Y-113502125D01*
X146160810Y-113587181D01*
X146207446Y-113639209D01*
X146218550Y-113708190D01*
X146190597Y-113772225D01*
X146132462Y-113810981D01*
X146122192Y-113813708D01*
X146115729Y-113815130D01*
X145860656Y-113901075D01*
X145776565Y-113929409D01*
X145776563Y-113929410D01*
X145776552Y-113929414D01*
X145451755Y-114079680D01*
X145451751Y-114079682D01*
X145276099Y-114185369D01*
X145145081Y-114264200D01*
X145068794Y-114322192D01*
X144860172Y-114480781D01*
X144860163Y-114480789D01*
X144600331Y-114726914D01*
X144368641Y-114999680D01*
X144368634Y-114999690D01*
X144167790Y-115295913D01*
X144167784Y-115295922D01*
X144000151Y-115612111D01*
X144000142Y-115612129D01*
X143867674Y-115944600D01*
X143867672Y-115944607D01*
X143771932Y-116289434D01*
X143771926Y-116289460D01*
X143714029Y-116642614D01*
X143714028Y-116642627D01*
X143714028Y-116642629D01*
X143709448Y-116727102D01*
X143695607Y-116982394D01*
X143694652Y-117000000D01*
X143713655Y-117350500D01*
X143714028Y-117357368D01*
X143714029Y-117357385D01*
X143771926Y-117710539D01*
X143771932Y-117710565D01*
X143867672Y-118055392D01*
X143867674Y-118055399D01*
X144000142Y-118387870D01*
X144000151Y-118387888D01*
X144167784Y-118704077D01*
X144167787Y-118704082D01*
X144167789Y-118704085D01*
X144368423Y-118999999D01*
X144368634Y-119000309D01*
X144368641Y-119000319D01*
X144515775Y-119173538D01*
X144600332Y-119273086D01*
X144860163Y-119519211D01*
X144860170Y-119519216D01*
X144860172Y-119519218D01*
X144874321Y-119529974D01*
X145145081Y-119735800D01*
X145451747Y-119920315D01*
X145451749Y-119920316D01*
X145451751Y-119920317D01*
X145451755Y-119920319D01*
X145635669Y-120005406D01*
X145776565Y-120070591D01*
X146115726Y-120184868D01*
X146465254Y-120261805D01*
X146821052Y-120300500D01*
X146821058Y-120300500D01*
X147178942Y-120300500D01*
X147178948Y-120300500D01*
X147534746Y-120261805D01*
X147884274Y-120184868D01*
X148223435Y-120070591D01*
X148548253Y-119920315D01*
X148854919Y-119735800D01*
X149139837Y-119519211D01*
X149399668Y-119273086D01*
X149631365Y-119000311D01*
X149832211Y-118704085D01*
X149999853Y-118387880D01*
X150132324Y-118055403D01*
X150169889Y-117920106D01*
X150192534Y-117838546D01*
X150229436Y-117779216D01*
X150292555Y-117749255D01*
X150361853Y-117758176D01*
X150362260Y-117758355D01*
X150485733Y-117813329D01*
X150485735Y-117813329D01*
X150485736Y-117813330D01*
X150545190Y-117825967D01*
X150649655Y-117848171D01*
X150711136Y-117881363D01*
X150744913Y-117942526D01*
X150740261Y-118012240D01*
X150716025Y-118052432D01*
X150664974Y-118109130D01*
X150664967Y-118109139D01*
X150480115Y-118363566D01*
X150480112Y-118363571D01*
X150322869Y-118635924D01*
X150322866Y-118635931D01*
X150194944Y-118923248D01*
X150097761Y-119222350D01*
X150097760Y-119222352D01*
X150034660Y-119519218D01*
X150032374Y-119529974D01*
X150002515Y-119814071D01*
X149999500Y-119842754D01*
X149999500Y-119994598D01*
X149999028Y-120005406D01*
X149985261Y-120162754D01*
X149981508Y-120184039D01*
X149942031Y-120331370D01*
X149934638Y-120351682D01*
X149870178Y-120489916D01*
X149859371Y-120508634D01*
X149771881Y-120633583D01*
X149757987Y-120650141D01*
X149650141Y-120757987D01*
X149633583Y-120771881D01*
X149508634Y-120859371D01*
X149489916Y-120870178D01*
X149351682Y-120934638D01*
X149331370Y-120942031D01*
X149184039Y-120981508D01*
X149162754Y-120985261D01*
X149008494Y-120998757D01*
X149005476Y-120999022D01*
X149005407Y-120999028D01*
X148994599Y-120999500D01*
X119005452Y-120999500D01*
X118994573Y-120999022D01*
X118832545Y-120984751D01*
X118811120Y-120980947D01*
X118659369Y-120939999D01*
X118638939Y-120932509D01*
X118496681Y-120865664D01*
X118477875Y-120854718D01*
X118349491Y-120764035D01*
X118332889Y-120749971D01*
X118222332Y-120638242D01*
X118208443Y-120621491D01*
X118119122Y-120492160D01*
X118108375Y-120473240D01*
X118043035Y-120330284D01*
X118035761Y-120309777D01*
X118004448Y-120188667D01*
X118000500Y-120157627D01*
X118000500Y-119842754D01*
X118000500Y-119842750D01*
X117967626Y-119529974D01*
X117913023Y-119273086D01*
X117902239Y-119222352D01*
X117902238Y-119222350D01*
X117902238Y-119222348D01*
X117805053Y-118923241D01*
X117677134Y-118635932D01*
X117677131Y-118635928D01*
X117677130Y-118635924D01*
X117519887Y-118363571D01*
X117519884Y-118363566D01*
X117335032Y-118109139D01*
X117335024Y-118109130D01*
X117283975Y-118052433D01*
X117253745Y-117989441D01*
X117262371Y-117920106D01*
X117307112Y-117866440D01*
X117350341Y-117848172D01*
X117483870Y-117819790D01*
X117514263Y-117813330D01*
X117514263Y-117813329D01*
X117514267Y-117813329D01*
X117637551Y-117758439D01*
X117706799Y-117749155D01*
X117770076Y-117778783D01*
X117807289Y-117837918D01*
X117807465Y-117838545D01*
X117867673Y-118055397D01*
X117867674Y-118055399D01*
X118000142Y-118387870D01*
X118000151Y-118387888D01*
X118167784Y-118704077D01*
X118167787Y-118704082D01*
X118167789Y-118704085D01*
X118368423Y-118999999D01*
X118368634Y-119000309D01*
X118368641Y-119000319D01*
X118515775Y-119173538D01*
X118600332Y-119273086D01*
X118860163Y-119519211D01*
X118860170Y-119519216D01*
X118860172Y-119519218D01*
X118874321Y-119529974D01*
X119145081Y-119735800D01*
X119451747Y-119920315D01*
X119451749Y-119920316D01*
X119451751Y-119920317D01*
X119451755Y-119920319D01*
X119635669Y-120005406D01*
X119776565Y-120070591D01*
X120115726Y-120184868D01*
X120465254Y-120261805D01*
X120821052Y-120300500D01*
X120821058Y-120300500D01*
X121178942Y-120300500D01*
X121178948Y-120300500D01*
X121534746Y-120261805D01*
X121884274Y-120184868D01*
X122223435Y-120070591D01*
X122548253Y-119920315D01*
X122854919Y-119735800D01*
X123139837Y-119519211D01*
X123399668Y-119273086D01*
X123631365Y-119000311D01*
X123832211Y-118704085D01*
X123999853Y-118387880D01*
X124113704Y-118102135D01*
X125109500Y-118102135D01*
X125109500Y-119897870D01*
X125109501Y-119897876D01*
X125115908Y-119957483D01*
X125166202Y-120092328D01*
X125166206Y-120092335D01*
X125252452Y-120207544D01*
X125252455Y-120207547D01*
X125367664Y-120293793D01*
X125367671Y-120293797D01*
X125502517Y-120344091D01*
X125502516Y-120344091D01*
X125509444Y-120344835D01*
X125562127Y-120350500D01*
X127357872Y-120350499D01*
X127417483Y-120344091D01*
X127552331Y-120293796D01*
X127667546Y-120207546D01*
X127753796Y-120092331D01*
X127802810Y-119960916D01*
X127844681Y-119904984D01*
X127910145Y-119880566D01*
X127978418Y-119895417D01*
X128006673Y-119916569D01*
X128128599Y-120038495D01*
X128225384Y-120106265D01*
X128322165Y-120174032D01*
X128322167Y-120174033D01*
X128322170Y-120174035D01*
X128536337Y-120273903D01*
X128764592Y-120335063D01*
X128941034Y-120350500D01*
X128999999Y-120355659D01*
X129000000Y-120355659D01*
X129000001Y-120355659D01*
X129058966Y-120350500D01*
X129235408Y-120335063D01*
X129463663Y-120273903D01*
X129677830Y-120174035D01*
X129871401Y-120038495D01*
X130038495Y-119871401D01*
X130168425Y-119685842D01*
X130223002Y-119642217D01*
X130292500Y-119635023D01*
X130354855Y-119666546D01*
X130371575Y-119685842D01*
X130501500Y-119871395D01*
X130501505Y-119871401D01*
X130668599Y-120038495D01*
X130765384Y-120106265D01*
X130862165Y-120174032D01*
X130862167Y-120174033D01*
X130862170Y-120174035D01*
X131076337Y-120273903D01*
X131304592Y-120335063D01*
X131481034Y-120350500D01*
X131539999Y-120355659D01*
X131540000Y-120355659D01*
X131540001Y-120355659D01*
X131598966Y-120350500D01*
X131775408Y-120335063D01*
X132003663Y-120273903D01*
X132217830Y-120174035D01*
X132411401Y-120038495D01*
X132578495Y-119871401D01*
X132708425Y-119685842D01*
X132763002Y-119642217D01*
X132832500Y-119635023D01*
X132894855Y-119666546D01*
X132911575Y-119685842D01*
X133041500Y-119871395D01*
X133041505Y-119871401D01*
X133208599Y-120038495D01*
X133305384Y-120106265D01*
X133402165Y-120174032D01*
X133402167Y-120174033D01*
X133402170Y-120174035D01*
X133616337Y-120273903D01*
X133844592Y-120335063D01*
X134021034Y-120350500D01*
X134079999Y-120355659D01*
X134080000Y-120355659D01*
X134080001Y-120355659D01*
X134138966Y-120350500D01*
X134315408Y-120335063D01*
X134543663Y-120273903D01*
X134757830Y-120174035D01*
X134951401Y-120038495D01*
X135118495Y-119871401D01*
X135158638Y-119814071D01*
X139599499Y-119814071D01*
X139624497Y-119939738D01*
X139624499Y-119939744D01*
X139673533Y-120058124D01*
X139673538Y-120058133D01*
X139744723Y-120164668D01*
X139744726Y-120164672D01*
X139835327Y-120255273D01*
X139835331Y-120255276D01*
X139941866Y-120326461D01*
X139941875Y-120326466D01*
X139962630Y-120335063D01*
X140060256Y-120375501D01*
X140060260Y-120375501D01*
X140060261Y-120375502D01*
X140185928Y-120400500D01*
X140185931Y-120400500D01*
X140314071Y-120400500D01*
X140398615Y-120383682D01*
X140439744Y-120375501D01*
X140558127Y-120326465D01*
X140664669Y-120255276D01*
X140755276Y-120164669D01*
X140826465Y-120058127D01*
X140875501Y-119939744D01*
X140887273Y-119880566D01*
X140900500Y-119814071D01*
X140900500Y-119685928D01*
X140875502Y-119560261D01*
X140875501Y-119560260D01*
X140875501Y-119560256D01*
X140850542Y-119500000D01*
X142394815Y-119500000D01*
X142413503Y-119677805D01*
X142413504Y-119677807D01*
X142468747Y-119847829D01*
X142468750Y-119847835D01*
X142558141Y-120002665D01*
X142590401Y-120038493D01*
X142677764Y-120135521D01*
X142677767Y-120135523D01*
X142677770Y-120135526D01*
X142822407Y-120240612D01*
X142985733Y-120313329D01*
X143160609Y-120350500D01*
X143160610Y-120350500D01*
X143339389Y-120350500D01*
X143339391Y-120350500D01*
X143514267Y-120313329D01*
X143677593Y-120240612D01*
X143822230Y-120135526D01*
X143826197Y-120131121D01*
X143861126Y-120092328D01*
X143941859Y-120002665D01*
X144031250Y-119847835D01*
X144086497Y-119677803D01*
X144105185Y-119500000D01*
X144086497Y-119322197D01*
X144031250Y-119152165D01*
X143941859Y-118997335D01*
X143875151Y-118923248D01*
X143822235Y-118864478D01*
X143822232Y-118864476D01*
X143822231Y-118864475D01*
X143822230Y-118864474D01*
X143677593Y-118759388D01*
X143514267Y-118686671D01*
X143514265Y-118686670D01*
X143386594Y-118659533D01*
X143339391Y-118649500D01*
X143160609Y-118649500D01*
X143129954Y-118656015D01*
X142985733Y-118686670D01*
X142985728Y-118686672D01*
X142822408Y-118759387D01*
X142677768Y-118864475D01*
X142558140Y-118997336D01*
X142468750Y-119152164D01*
X142468747Y-119152170D01*
X142413504Y-119322192D01*
X142413503Y-119322194D01*
X142394815Y-119500000D01*
X140850542Y-119500000D01*
X140826465Y-119441873D01*
X140826464Y-119441872D01*
X140826461Y-119441866D01*
X140755276Y-119335331D01*
X140755273Y-119335327D01*
X140664672Y-119244726D01*
X140664668Y-119244723D01*
X140558133Y-119173538D01*
X140558124Y-119173533D01*
X140439744Y-119124499D01*
X140439738Y-119124497D01*
X140314071Y-119099500D01*
X140314069Y-119099500D01*
X140185931Y-119099500D01*
X140185929Y-119099500D01*
X140060261Y-119124497D01*
X140060255Y-119124499D01*
X139941875Y-119173533D01*
X139941866Y-119173538D01*
X139835331Y-119244723D01*
X139835327Y-119244726D01*
X139744726Y-119335327D01*
X139744723Y-119335331D01*
X139673538Y-119441866D01*
X139673533Y-119441875D01*
X139624499Y-119560255D01*
X139624497Y-119560261D01*
X139599500Y-119685928D01*
X139599500Y-119685931D01*
X139599500Y-119814069D01*
X139599500Y-119814071D01*
X139599499Y-119814071D01*
X135158638Y-119814071D01*
X135254035Y-119677830D01*
X135353903Y-119463663D01*
X135415063Y-119235408D01*
X135435659Y-119000000D01*
X135415063Y-118764592D01*
X135353903Y-118536337D01*
X135254035Y-118322171D01*
X135250982Y-118317810D01*
X135118494Y-118128597D01*
X134959871Y-117969975D01*
X136664790Y-117969975D01*
X136683478Y-118147780D01*
X136683479Y-118147782D01*
X136738722Y-118317804D01*
X136738725Y-118317810D01*
X136828116Y-118472640D01*
X136869787Y-118518921D01*
X136947739Y-118605496D01*
X136947742Y-118605498D01*
X136947745Y-118605501D01*
X137092382Y-118710587D01*
X137255708Y-118783304D01*
X137430584Y-118820475D01*
X137430585Y-118820475D01*
X137609364Y-118820475D01*
X137609366Y-118820475D01*
X137784242Y-118783304D01*
X137947568Y-118710587D01*
X138092205Y-118605501D01*
X138211834Y-118472640D01*
X138301225Y-118317810D01*
X138356472Y-118147778D01*
X138375160Y-117969975D01*
X138356472Y-117792172D01*
X138315131Y-117664937D01*
X138301227Y-117622145D01*
X138301224Y-117622139D01*
X138242188Y-117519885D01*
X138211834Y-117467310D01*
X138187496Y-117440280D01*
X138157266Y-117377289D01*
X138165891Y-117307953D01*
X138210633Y-117254288D01*
X138277285Y-117233330D01*
X138330078Y-117244027D01*
X138485733Y-117313329D01*
X138660609Y-117350500D01*
X138660610Y-117350500D01*
X138839389Y-117350500D01*
X138839391Y-117350500D01*
X139014267Y-117313329D01*
X139177593Y-117240612D01*
X139322230Y-117135526D01*
X139332081Y-117124586D01*
X139360803Y-117092686D01*
X139441859Y-117002665D01*
X139531250Y-116847835D01*
X139567853Y-116735182D01*
X139607289Y-116677508D01*
X139671646Y-116650309D01*
X139671744Y-116650298D01*
X139671900Y-116650281D01*
X139804249Y-116635369D01*
X139804252Y-116635368D01*
X139804255Y-116635368D01*
X139974522Y-116575789D01*
X140127262Y-116479816D01*
X140254816Y-116352262D01*
X140350005Y-116200768D01*
X140402339Y-116154479D01*
X140468882Y-116143522D01*
X140490380Y-116145945D01*
X140610731Y-116132384D01*
X140669629Y-116125749D01*
X140669632Y-116125748D01*
X140669635Y-116125748D01*
X140839902Y-116066169D01*
X140992642Y-115970196D01*
X141120196Y-115842642D01*
X141216169Y-115689902D01*
X141275748Y-115519635D01*
X141285109Y-115436541D01*
X141312174Y-115372131D01*
X141369768Y-115332575D01*
X141382543Y-115329138D01*
X141388443Y-115327885D01*
X141551769Y-115255168D01*
X141696406Y-115150082D01*
X141709513Y-115135526D01*
X141722324Y-115121297D01*
X141816035Y-115017221D01*
X141905426Y-114862391D01*
X141960673Y-114692359D01*
X141979361Y-114514556D01*
X141960673Y-114336753D01*
X141911485Y-114185368D01*
X141905428Y-114166726D01*
X141905425Y-114166720D01*
X141816035Y-114011891D01*
X141749707Y-113938226D01*
X141696411Y-113879034D01*
X141696408Y-113879032D01*
X141696407Y-113879031D01*
X141696406Y-113879030D01*
X141551769Y-113773944D01*
X141388443Y-113701227D01*
X141388441Y-113701226D01*
X141260770Y-113674089D01*
X141213567Y-113664056D01*
X141034785Y-113664056D01*
X141004130Y-113670571D01*
X140859909Y-113701226D01*
X140859904Y-113701228D01*
X140696584Y-113773943D01*
X140551944Y-113879031D01*
X140432316Y-114011892D01*
X140342926Y-114166720D01*
X140342923Y-114166726D01*
X140287680Y-114336748D01*
X140287679Y-114336750D01*
X140271180Y-114493731D01*
X140244595Y-114558346D01*
X140188815Y-114597810D01*
X140140856Y-114614591D01*
X140140855Y-114614592D01*
X139988117Y-114710564D01*
X139860564Y-114838117D01*
X139765376Y-114989609D01*
X139713041Y-115035900D01*
X139646498Y-115046857D01*
X139625003Y-115044435D01*
X139624996Y-115044435D01*
X139445750Y-115064630D01*
X139445745Y-115064631D01*
X139275476Y-115124211D01*
X139122737Y-115220184D01*
X138995184Y-115347737D01*
X138995183Y-115347739D01*
X138983138Y-115366908D01*
X138930802Y-115413197D01*
X138861749Y-115423844D01*
X138797901Y-115395467D01*
X138770759Y-115362934D01*
X138750523Y-115327885D01*
X138741859Y-115312878D01*
X138726584Y-115295913D01*
X138622235Y-115180021D01*
X138622232Y-115180019D01*
X138622231Y-115180018D01*
X138622230Y-115180017D01*
X138477593Y-115074931D01*
X138314267Y-115002214D01*
X138314265Y-115002213D01*
X138186594Y-114975076D01*
X138139391Y-114965043D01*
X137960609Y-114965043D01*
X137929954Y-114971558D01*
X137785733Y-115002213D01*
X137785728Y-115002215D01*
X137622408Y-115074930D01*
X137477768Y-115180018D01*
X137358140Y-115312879D01*
X137268750Y-115467707D01*
X137268747Y-115467713D01*
X137213504Y-115637735D01*
X137213503Y-115637737D01*
X137194815Y-115815543D01*
X137213503Y-115993348D01*
X137213504Y-115993350D01*
X137268747Y-116163372D01*
X137268750Y-116163378D01*
X137358141Y-116318208D01*
X137399434Y-116364068D01*
X137477764Y-116451064D01*
X137477767Y-116451066D01*
X137477770Y-116451069D01*
X137622407Y-116556155D01*
X137785733Y-116628872D01*
X137835878Y-116639530D01*
X137897356Y-116672720D01*
X137928026Y-116722501D01*
X137968747Y-116847828D01*
X137968750Y-116847835D01*
X138058141Y-117002665D01*
X138079632Y-117026534D01*
X138082478Y-117029694D01*
X138112708Y-117092686D01*
X138104083Y-117162021D01*
X138059341Y-117215686D01*
X137992689Y-117236644D01*
X137939893Y-117225946D01*
X137784242Y-117156646D01*
X137784240Y-117156645D01*
X137633411Y-117124586D01*
X137609366Y-117119475D01*
X137430584Y-117119475D01*
X137406539Y-117124586D01*
X137255708Y-117156645D01*
X137255703Y-117156647D01*
X137092383Y-117229362D01*
X136947743Y-117334450D01*
X136828115Y-117467311D01*
X136738725Y-117622139D01*
X136738722Y-117622145D01*
X136683479Y-117792167D01*
X136683478Y-117792169D01*
X136664790Y-117969975D01*
X134959871Y-117969975D01*
X134951402Y-117961506D01*
X134951395Y-117961501D01*
X134757834Y-117825967D01*
X134757830Y-117825965D01*
X134712984Y-117805053D01*
X134543663Y-117726097D01*
X134543659Y-117726096D01*
X134543655Y-117726094D01*
X134315413Y-117664938D01*
X134315403Y-117664936D01*
X134080001Y-117644341D01*
X134079999Y-117644341D01*
X133844596Y-117664936D01*
X133844586Y-117664938D01*
X133616344Y-117726094D01*
X133616335Y-117726098D01*
X133402171Y-117825964D01*
X133402169Y-117825965D01*
X133208597Y-117961505D01*
X133041505Y-118128597D01*
X132911575Y-118314158D01*
X132856998Y-118357783D01*
X132787500Y-118364977D01*
X132725145Y-118333454D01*
X132708425Y-118314158D01*
X132578494Y-118128597D01*
X132411402Y-117961506D01*
X132411395Y-117961501D01*
X132217834Y-117825967D01*
X132217830Y-117825965D01*
X132172984Y-117805053D01*
X132003663Y-117726097D01*
X132003659Y-117726096D01*
X132003655Y-117726094D01*
X131775413Y-117664938D01*
X131775403Y-117664936D01*
X131540001Y-117644341D01*
X131539999Y-117644341D01*
X131304596Y-117664936D01*
X131304586Y-117664938D01*
X131076344Y-117726094D01*
X131076335Y-117726098D01*
X130862171Y-117825964D01*
X130862169Y-117825965D01*
X130668597Y-117961505D01*
X130501505Y-118128597D01*
X130371575Y-118314158D01*
X130316998Y-118357783D01*
X130247500Y-118364977D01*
X130185145Y-118333454D01*
X130168425Y-118314158D01*
X130038494Y-118128597D01*
X129871402Y-117961506D01*
X129871395Y-117961501D01*
X129677834Y-117825967D01*
X129677830Y-117825965D01*
X129632984Y-117805053D01*
X129463663Y-117726097D01*
X129463659Y-117726096D01*
X129463655Y-117726094D01*
X129235413Y-117664938D01*
X129235403Y-117664936D01*
X129000001Y-117644341D01*
X128999999Y-117644341D01*
X128764596Y-117664936D01*
X128764586Y-117664938D01*
X128536344Y-117726094D01*
X128536335Y-117726098D01*
X128322171Y-117825964D01*
X128322169Y-117825965D01*
X128128600Y-117961503D01*
X128006673Y-118083430D01*
X127945350Y-118116914D01*
X127875658Y-118111930D01*
X127819725Y-118070058D01*
X127802810Y-118039081D01*
X127753797Y-117907671D01*
X127753793Y-117907664D01*
X127667547Y-117792455D01*
X127667544Y-117792452D01*
X127552335Y-117706206D01*
X127552328Y-117706202D01*
X127417482Y-117655908D01*
X127417483Y-117655908D01*
X127357883Y-117649501D01*
X127357881Y-117649500D01*
X127357873Y-117649500D01*
X127357864Y-117649500D01*
X125562129Y-117649500D01*
X125562123Y-117649501D01*
X125502516Y-117655908D01*
X125367671Y-117706202D01*
X125367664Y-117706206D01*
X125252455Y-117792452D01*
X125252452Y-117792455D01*
X125166206Y-117907664D01*
X125166202Y-117907671D01*
X125115908Y-118042517D01*
X125109501Y-118102116D01*
X125109500Y-118102135D01*
X124113704Y-118102135D01*
X124132324Y-118055403D01*
X124228071Y-117710552D01*
X124267948Y-117467311D01*
X124285970Y-117357385D01*
X124285970Y-117357382D01*
X124285972Y-117357371D01*
X124305348Y-117000000D01*
X124304393Y-116982394D01*
X124297098Y-116847835D01*
X124285972Y-116642629D01*
X124284956Y-116636432D01*
X124228073Y-116289460D01*
X124228072Y-116289459D01*
X124228071Y-116289448D01*
X124188228Y-116145945D01*
X124132327Y-115944607D01*
X124132325Y-115944600D01*
X124108587Y-115885023D01*
X124040312Y-115713664D01*
X123999857Y-115612129D01*
X123999848Y-115612111D01*
X123985690Y-115585407D01*
X123884990Y-115395467D01*
X123832215Y-115295922D01*
X123832213Y-115295919D01*
X123832211Y-115295915D01*
X123631365Y-114999689D01*
X123631361Y-114999684D01*
X123631358Y-114999680D01*
X123399668Y-114726914D01*
X123160118Y-114500000D01*
X124144815Y-114500000D01*
X124163503Y-114677805D01*
X124163504Y-114677807D01*
X124218747Y-114847829D01*
X124218750Y-114847835D01*
X124308141Y-115002665D01*
X124338066Y-115035900D01*
X124427764Y-115135521D01*
X124427767Y-115135523D01*
X124427770Y-115135526D01*
X124572407Y-115240612D01*
X124735733Y-115313329D01*
X124910609Y-115350500D01*
X124959509Y-115350500D01*
X125026548Y-115370185D01*
X125072303Y-115422989D01*
X125083037Y-115463691D01*
X125084936Y-115485404D01*
X125084938Y-115485413D01*
X125146094Y-115713655D01*
X125146096Y-115713659D01*
X125146097Y-115713663D01*
X125150000Y-115722032D01*
X125245965Y-115927830D01*
X125245967Y-115927834D01*
X125296324Y-115999750D01*
X125381505Y-116121401D01*
X125548599Y-116288495D01*
X125639668Y-116352262D01*
X125742165Y-116424032D01*
X125742167Y-116424033D01*
X125742170Y-116424035D01*
X125956337Y-116523903D01*
X126184592Y-116585063D01*
X126361034Y-116600500D01*
X126419999Y-116605659D01*
X126420000Y-116605659D01*
X126420001Y-116605659D01*
X126478966Y-116600500D01*
X126655408Y-116585063D01*
X126883663Y-116523903D01*
X127097830Y-116424035D01*
X127291401Y-116288495D01*
X127458495Y-116121401D01*
X127588425Y-115935842D01*
X127643002Y-115892217D01*
X127712500Y-115885023D01*
X127774855Y-115916546D01*
X127791575Y-115935842D01*
X127921500Y-116121395D01*
X127921505Y-116121401D01*
X128088599Y-116288495D01*
X128179668Y-116352262D01*
X128282165Y-116424032D01*
X128282167Y-116424033D01*
X128282170Y-116424035D01*
X128496337Y-116523903D01*
X128724592Y-116585063D01*
X128901034Y-116600500D01*
X128959999Y-116605659D01*
X128960000Y-116605659D01*
X128960001Y-116605659D01*
X129018966Y-116600500D01*
X129195408Y-116585063D01*
X129423663Y-116523903D01*
X129637830Y-116424035D01*
X129831401Y-116288495D01*
X129998495Y-116121401D01*
X130128425Y-115935842D01*
X130183002Y-115892217D01*
X130252500Y-115885023D01*
X130314855Y-115916546D01*
X130331575Y-115935842D01*
X130461500Y-116121395D01*
X130461505Y-116121401D01*
X130628599Y-116288495D01*
X130719668Y-116352262D01*
X130822165Y-116424032D01*
X130822167Y-116424033D01*
X130822170Y-116424035D01*
X131036337Y-116523903D01*
X131264592Y-116585063D01*
X131441034Y-116600500D01*
X131499999Y-116605659D01*
X131500000Y-116605659D01*
X131500001Y-116605659D01*
X131558966Y-116600500D01*
X131735408Y-116585063D01*
X131963663Y-116523903D01*
X132177830Y-116424035D01*
X132371401Y-116288495D01*
X132493329Y-116166566D01*
X132554648Y-116133084D01*
X132624340Y-116138068D01*
X132680274Y-116179939D01*
X132697189Y-116210917D01*
X132746202Y-116342328D01*
X132746206Y-116342335D01*
X132832452Y-116457544D01*
X132832455Y-116457547D01*
X132947664Y-116543793D01*
X132947671Y-116543797D01*
X133082517Y-116594091D01*
X133082516Y-116594091D01*
X133089444Y-116594835D01*
X133142127Y-116600500D01*
X134937872Y-116600499D01*
X134997483Y-116594091D01*
X135056137Y-116572213D01*
X135125828Y-116567230D01*
X135149904Y-116575115D01*
X135235733Y-116613329D01*
X135410609Y-116650500D01*
X135410610Y-116650500D01*
X135589389Y-116650500D01*
X135589391Y-116650500D01*
X135764267Y-116613329D01*
X135927593Y-116540612D01*
X136072230Y-116435526D01*
X136082578Y-116424034D01*
X136098148Y-116406741D01*
X136191859Y-116302665D01*
X136281250Y-116147835D01*
X136336497Y-115977803D01*
X136355185Y-115800000D01*
X136336497Y-115622197D01*
X136304981Y-115525202D01*
X136281252Y-115452170D01*
X136281249Y-115452164D01*
X136272232Y-115436546D01*
X136214758Y-115336998D01*
X136198286Y-115269100D01*
X136214758Y-115213001D01*
X136281250Y-115097835D01*
X136336497Y-114927803D01*
X136355185Y-114750000D01*
X136336497Y-114572197D01*
X136281250Y-114402165D01*
X136225923Y-114306336D01*
X136209451Y-114238438D01*
X136232304Y-114172411D01*
X136282873Y-114131060D01*
X136402594Y-114077758D01*
X136547231Y-113972672D01*
X136666860Y-113839811D01*
X136756251Y-113684981D01*
X136811498Y-113514949D01*
X136823580Y-113399996D01*
X138344435Y-113399996D01*
X138344435Y-113400003D01*
X138364630Y-113579249D01*
X138364631Y-113579254D01*
X138424211Y-113749523D01*
X138505586Y-113879030D01*
X138520184Y-113902262D01*
X138647738Y-114029816D01*
X138800478Y-114125789D01*
X138875871Y-114152170D01*
X138970745Y-114185368D01*
X138970750Y-114185369D01*
X139149996Y-114205565D01*
X139150000Y-114205565D01*
X139150004Y-114205565D01*
X139329249Y-114185369D01*
X139329252Y-114185368D01*
X139329255Y-114185368D01*
X139499522Y-114125789D01*
X139652262Y-114029816D01*
X139779816Y-113902262D01*
X139875789Y-113749522D01*
X139935368Y-113579255D01*
X139940091Y-113537336D01*
X139955565Y-113400003D01*
X139955565Y-113399996D01*
X139935369Y-113220750D01*
X139935368Y-113220745D01*
X139919250Y-113174683D01*
X139875789Y-113050478D01*
X139779816Y-112897738D01*
X139652262Y-112770184D01*
X139638497Y-112761535D01*
X139499523Y-112674211D01*
X139329254Y-112614631D01*
X139329249Y-112614630D01*
X139150004Y-112594435D01*
X139149996Y-112594435D01*
X138970750Y-112614630D01*
X138970745Y-112614631D01*
X138800476Y-112674211D01*
X138647737Y-112770184D01*
X138520184Y-112897737D01*
X138424211Y-113050476D01*
X138364631Y-113220745D01*
X138364630Y-113220750D01*
X138344435Y-113399996D01*
X136823580Y-113399996D01*
X136830186Y-113337146D01*
X136811498Y-113159343D01*
X136782631Y-113070500D01*
X136756253Y-112989316D01*
X136756250Y-112989310D01*
X136748293Y-112975528D01*
X136666860Y-112834481D01*
X136582340Y-112740612D01*
X136547236Y-112701624D01*
X136547233Y-112701622D01*
X136547232Y-112701621D01*
X136547231Y-112701620D01*
X136402594Y-112596534D01*
X136239268Y-112523817D01*
X136239266Y-112523816D01*
X136127200Y-112499996D01*
X143444435Y-112499996D01*
X143444435Y-112500003D01*
X143464630Y-112679249D01*
X143464631Y-112679254D01*
X143524211Y-112849523D01*
X143603383Y-112975523D01*
X143620184Y-113002262D01*
X143747738Y-113129816D01*
X143794722Y-113159338D01*
X143892450Y-113220745D01*
X143900478Y-113225789D01*
X144070745Y-113285368D01*
X144070750Y-113285369D01*
X144249996Y-113305565D01*
X144250000Y-113305565D01*
X144250004Y-113305565D01*
X144429249Y-113285369D01*
X144429252Y-113285368D01*
X144429255Y-113285368D01*
X144599522Y-113225789D01*
X144752262Y-113129816D01*
X144879816Y-113002262D01*
X144975789Y-112849522D01*
X145035368Y-112679255D01*
X145035369Y-112679249D01*
X145055565Y-112500003D01*
X145055565Y-112499996D01*
X145035369Y-112320750D01*
X145035368Y-112320745D01*
X145032773Y-112313329D01*
X144975789Y-112150478D01*
X144975174Y-112149500D01*
X144907751Y-112042197D01*
X144879816Y-111997738D01*
X144752262Y-111870184D01*
X144716684Y-111847829D01*
X144599523Y-111774211D01*
X144429254Y-111714631D01*
X144429249Y-111714630D01*
X144250004Y-111694435D01*
X144249996Y-111694435D01*
X144070750Y-111714630D01*
X144070745Y-111714631D01*
X143900476Y-111774211D01*
X143747737Y-111870184D01*
X143620184Y-111997737D01*
X143524211Y-112150476D01*
X143464631Y-112320745D01*
X143464630Y-112320750D01*
X143444435Y-112499996D01*
X136127200Y-112499996D01*
X136111595Y-112496679D01*
X136064392Y-112486646D01*
X135885610Y-112486646D01*
X135867069Y-112490587D01*
X135710734Y-112523816D01*
X135710729Y-112523818D01*
X135547409Y-112596533D01*
X135402769Y-112701621D01*
X135283141Y-112834482D01*
X135193751Y-112989310D01*
X135193748Y-112989316D01*
X135138505Y-113159338D01*
X135138504Y-113159340D01*
X135119816Y-113337146D01*
X135138504Y-113514951D01*
X135138505Y-113514953D01*
X135193748Y-113684975D01*
X135193750Y-113684978D01*
X135193751Y-113684981D01*
X135207151Y-113708190D01*
X135237703Y-113761109D01*
X135254174Y-113829010D01*
X135231322Y-113895036D01*
X135176400Y-113938226D01*
X135106846Y-113944867D01*
X135086982Y-113939290D01*
X134997482Y-113905908D01*
X134997484Y-113905908D01*
X134966690Y-113902598D01*
X134902139Y-113875860D01*
X134862291Y-113818467D01*
X134862038Y-113817698D01*
X134839887Y-113749522D01*
X134821252Y-113692170D01*
X134821249Y-113692164D01*
X134731859Y-113537335D01*
X134685003Y-113485296D01*
X134612235Y-113404478D01*
X134612232Y-113404476D01*
X134612231Y-113404475D01*
X134612230Y-113404474D01*
X134467593Y-113299388D01*
X134304267Y-113226671D01*
X134304265Y-113226670D01*
X134176594Y-113199533D01*
X134129391Y-113189500D01*
X133950609Y-113189500D01*
X133919954Y-113196015D01*
X133775733Y-113226670D01*
X133775728Y-113226672D01*
X133612408Y-113299387D01*
X133467768Y-113404475D01*
X133348140Y-113537336D01*
X133258750Y-113692164D01*
X133258748Y-113692168D01*
X133217984Y-113817628D01*
X133178546Y-113875303D01*
X133114187Y-113902501D01*
X133113307Y-113902599D01*
X133082516Y-113905909D01*
X132947671Y-113956202D01*
X132947664Y-113956206D01*
X132832455Y-114042452D01*
X132832452Y-114042455D01*
X132746206Y-114157664D01*
X132746203Y-114157669D01*
X132697189Y-114289083D01*
X132655317Y-114345016D01*
X132589853Y-114369433D01*
X132521580Y-114354581D01*
X132493326Y-114333430D01*
X132371402Y-114211506D01*
X132371395Y-114211501D01*
X132177834Y-114075967D01*
X132177830Y-114075965D01*
X132177828Y-114075964D01*
X131963663Y-113976097D01*
X131963659Y-113976096D01*
X131963655Y-113976094D01*
X131735413Y-113914938D01*
X131735403Y-113914936D01*
X131500001Y-113894341D01*
X131499999Y-113894341D01*
X131264596Y-113914936D01*
X131264586Y-113914938D01*
X131036344Y-113976094D01*
X131036335Y-113976098D01*
X130822171Y-114075964D01*
X130822169Y-114075965D01*
X130628597Y-114211505D01*
X130461505Y-114378597D01*
X130331575Y-114564158D01*
X130276998Y-114607783D01*
X130207500Y-114614977D01*
X130145145Y-114583454D01*
X130128425Y-114564158D01*
X129998494Y-114378597D01*
X129831402Y-114211506D01*
X129831395Y-114211501D01*
X129637834Y-114075967D01*
X129637830Y-114075965D01*
X129637828Y-114075964D01*
X129423663Y-113976097D01*
X129423659Y-113976096D01*
X129423655Y-113976094D01*
X129195413Y-113914938D01*
X129195403Y-113914936D01*
X128960001Y-113894341D01*
X128959999Y-113894341D01*
X128724596Y-113914936D01*
X128724586Y-113914938D01*
X128496344Y-113976094D01*
X128496335Y-113976098D01*
X128282171Y-114075964D01*
X128282169Y-114075965D01*
X128088597Y-114211505D01*
X127921505Y-114378597D01*
X127791575Y-114564158D01*
X127736998Y-114607783D01*
X127667500Y-114614977D01*
X127605145Y-114583454D01*
X127588425Y-114564158D01*
X127458494Y-114378597D01*
X127291402Y-114211506D01*
X127291395Y-114211501D01*
X127097834Y-114075967D01*
X127097830Y-114075965D01*
X127097828Y-114075964D01*
X126883663Y-113976097D01*
X126883659Y-113976096D01*
X126883655Y-113976094D01*
X126655413Y-113914938D01*
X126655403Y-113914936D01*
X126420001Y-113894341D01*
X126419999Y-113894341D01*
X126184596Y-113914936D01*
X126184586Y-113914938D01*
X125956344Y-113976094D01*
X125956339Y-113976096D01*
X125839756Y-114030459D01*
X125770678Y-114040950D01*
X125706894Y-114012429D01*
X125695202Y-114001048D01*
X125572235Y-113864478D01*
X125572232Y-113864476D01*
X125572231Y-113864475D01*
X125572230Y-113864474D01*
X125427593Y-113759388D01*
X125264267Y-113686671D01*
X125264265Y-113686670D01*
X125136594Y-113659533D01*
X125089391Y-113649500D01*
X124910609Y-113649500D01*
X124879954Y-113656015D01*
X124735733Y-113686670D01*
X124735728Y-113686672D01*
X124572408Y-113759387D01*
X124427768Y-113864475D01*
X124308140Y-113997336D01*
X124218750Y-114152164D01*
X124218747Y-114152170D01*
X124163504Y-114322192D01*
X124163503Y-114322194D01*
X124144815Y-114500000D01*
X123160118Y-114500000D01*
X123139837Y-114480789D01*
X123139830Y-114480783D01*
X123139827Y-114480781D01*
X123036409Y-114402165D01*
X122854919Y-114264200D01*
X122548253Y-114079685D01*
X122548252Y-114079684D01*
X122548248Y-114079682D01*
X122548244Y-114079680D01*
X122223447Y-113929414D01*
X122223441Y-113929411D01*
X122223435Y-113929409D01*
X122053854Y-113872270D01*
X121884273Y-113815131D01*
X121534744Y-113738194D01*
X121178949Y-113699500D01*
X121178948Y-113699500D01*
X120821052Y-113699500D01*
X120821050Y-113699500D01*
X120465255Y-113738194D01*
X120115726Y-113815131D01*
X119859970Y-113901306D01*
X119776565Y-113929409D01*
X119776563Y-113929410D01*
X119776552Y-113929414D01*
X119451755Y-114079680D01*
X119451751Y-114079682D01*
X119276099Y-114185369D01*
X119145081Y-114264200D01*
X119068794Y-114322192D01*
X118860172Y-114480781D01*
X118860163Y-114480789D01*
X118600331Y-114726914D01*
X118368641Y-114999680D01*
X118368634Y-114999690D01*
X118167790Y-115295913D01*
X118167784Y-115295922D01*
X118000151Y-115612111D01*
X118000142Y-115612129D01*
X117867674Y-115944600D01*
X117867673Y-115944602D01*
X117807465Y-116161454D01*
X117770563Y-116220783D01*
X117707443Y-116250744D01*
X117638145Y-116241823D01*
X117637550Y-116241560D01*
X117596600Y-116223328D01*
X117514267Y-116186671D01*
X117514265Y-116186670D01*
X117362815Y-116154479D01*
X117339391Y-116149500D01*
X117160609Y-116149500D01*
X117137185Y-116154479D01*
X116985733Y-116186670D01*
X116985728Y-116186672D01*
X116822408Y-116259387D01*
X116677768Y-116364475D01*
X116558140Y-116497336D01*
X116468750Y-116652164D01*
X116468747Y-116652170D01*
X116413504Y-116822192D01*
X116413503Y-116822194D01*
X116394815Y-117000000D01*
X116409475Y-117139480D01*
X116396905Y-117208209D01*
X116349173Y-117259233D01*
X116281433Y-117276351D01*
X116235719Y-117265721D01*
X116210040Y-117254288D01*
X116076759Y-117194947D01*
X116076754Y-117194945D01*
X116076751Y-117194944D01*
X115777649Y-117097761D01*
X115777647Y-117097760D01*
X115512415Y-117041384D01*
X115470026Y-117032374D01*
X115157250Y-116999500D01*
X115157245Y-116999500D01*
X114254067Y-116999500D01*
X114245957Y-116999235D01*
X113997116Y-116982925D01*
X113981035Y-116980807D01*
X113740464Y-116932954D01*
X113724797Y-116928756D01*
X113492520Y-116849909D01*
X113477534Y-116843702D01*
X113257539Y-116735212D01*
X113243492Y-116727102D01*
X113039539Y-116590825D01*
X113026671Y-116580951D01*
X113020017Y-116575116D01*
X112911349Y-116479816D01*
X112842250Y-116419218D01*
X112830781Y-116407749D01*
X112727034Y-116289448D01*
X112669045Y-116223325D01*
X112659174Y-116210460D01*
X112652699Y-116200770D01*
X112522897Y-116006507D01*
X112514787Y-115992460D01*
X112503807Y-115970195D01*
X112406294Y-115772458D01*
X112400090Y-115757479D01*
X112388057Y-115722032D01*
X112359443Y-115637737D01*
X112321243Y-115525202D01*
X112317045Y-115509535D01*
X112305633Y-115452164D01*
X112269190Y-115268953D01*
X112267075Y-115252895D01*
X112250765Y-115004043D01*
X112250500Y-114995933D01*
X112250500Y-112000000D01*
X117894815Y-112000000D01*
X117913503Y-112177805D01*
X117913504Y-112177807D01*
X117968747Y-112347829D01*
X117968750Y-112347835D01*
X118058141Y-112502665D01*
X118099812Y-112548946D01*
X118177764Y-112635521D01*
X118177767Y-112635523D01*
X118177770Y-112635526D01*
X118322407Y-112740612D01*
X118485733Y-112813329D01*
X118660609Y-112850500D01*
X118660610Y-112850500D01*
X118839389Y-112850500D01*
X118839391Y-112850500D01*
X119014267Y-112813329D01*
X119177593Y-112740612D01*
X119322230Y-112635526D01*
X119330898Y-112625900D01*
X119357339Y-112596534D01*
X119441859Y-112502665D01*
X119531250Y-112347835D01*
X119572786Y-112220000D01*
X127144815Y-112220000D01*
X127163503Y-112397805D01*
X127163504Y-112397807D01*
X127218747Y-112567829D01*
X127218750Y-112567835D01*
X127308141Y-112722665D01*
X127324299Y-112740610D01*
X127427764Y-112855521D01*
X127427767Y-112855523D01*
X127427770Y-112855526D01*
X127572407Y-112960612D01*
X127735733Y-113033329D01*
X127910609Y-113070500D01*
X127910610Y-113070500D01*
X128089389Y-113070500D01*
X128089391Y-113070500D01*
X128264267Y-113033329D01*
X128427593Y-112960612D01*
X128572230Y-112855526D01*
X128574318Y-112853208D01*
X128626218Y-112795566D01*
X128691859Y-112722665D01*
X128781250Y-112567835D01*
X128836497Y-112397803D01*
X128855185Y-112220000D01*
X130144815Y-112220000D01*
X130163503Y-112397805D01*
X130163504Y-112397807D01*
X130218747Y-112567829D01*
X130218750Y-112567835D01*
X130308141Y-112722665D01*
X130324299Y-112740610D01*
X130427764Y-112855521D01*
X130427767Y-112855523D01*
X130427770Y-112855526D01*
X130572407Y-112960612D01*
X130735733Y-113033329D01*
X130910609Y-113070500D01*
X130910610Y-113070500D01*
X131089389Y-113070500D01*
X131089391Y-113070500D01*
X131264267Y-113033329D01*
X131427593Y-112960612D01*
X131572230Y-112855526D01*
X131572238Y-112855517D01*
X131574803Y-112853208D01*
X131576620Y-112852335D01*
X131577487Y-112851706D01*
X131577602Y-112851864D01*
X131637793Y-112822975D01*
X131707129Y-112831595D01*
X131708217Y-112832074D01*
X131714286Y-112834776D01*
X131889162Y-112871947D01*
X131889163Y-112871947D01*
X132067942Y-112871947D01*
X132067944Y-112871947D01*
X132242820Y-112834776D01*
X132406146Y-112762059D01*
X132550783Y-112656973D01*
X132550784Y-112656971D01*
X132553297Y-112655146D01*
X132619103Y-112631666D01*
X132667138Y-112638423D01*
X132801610Y-112685477D01*
X132801616Y-112685478D01*
X132801618Y-112685479D01*
X132801619Y-112685479D01*
X132801623Y-112685480D01*
X132980869Y-112705676D01*
X132980873Y-112705676D01*
X132980877Y-112705676D01*
X133160122Y-112685480D01*
X133160125Y-112685479D01*
X133160128Y-112685479D01*
X133330395Y-112625900D01*
X133483135Y-112529927D01*
X133610689Y-112402373D01*
X133706662Y-112249633D01*
X133766241Y-112079366D01*
X133766242Y-112079360D01*
X133786438Y-111900114D01*
X133786438Y-111900107D01*
X133766242Y-111720861D01*
X133766241Y-111720856D01*
X133756996Y-111694435D01*
X133706662Y-111550589D01*
X133674875Y-111500000D01*
X134144815Y-111500000D01*
X134163503Y-111677805D01*
X134163504Y-111677807D01*
X134218747Y-111847829D01*
X134218750Y-111847835D01*
X134308139Y-112002662D01*
X134308139Y-112002663D01*
X134427764Y-112135521D01*
X134427767Y-112135523D01*
X134427770Y-112135526D01*
X134572407Y-112240612D01*
X134735733Y-112313329D01*
X134910609Y-112350500D01*
X134910610Y-112350500D01*
X135089389Y-112350500D01*
X135089391Y-112350500D01*
X135264267Y-112313329D01*
X135427593Y-112240612D01*
X135572230Y-112135526D01*
X135600190Y-112104474D01*
X135626452Y-112075307D01*
X135691859Y-112002665D01*
X135697382Y-111993100D01*
X135735095Y-111927778D01*
X135781250Y-111847835D01*
X135836497Y-111677803D01*
X135855185Y-111500000D01*
X135836497Y-111322197D01*
X135792462Y-111186671D01*
X135781252Y-111152170D01*
X135781249Y-111152164D01*
X135759644Y-111114743D01*
X135691859Y-110997335D01*
X135637213Y-110936645D01*
X135572235Y-110864478D01*
X135572232Y-110864476D01*
X135572231Y-110864475D01*
X135572230Y-110864474D01*
X135427593Y-110759388D01*
X135264267Y-110686671D01*
X135264265Y-110686670D01*
X135136594Y-110659533D01*
X135089391Y-110649500D01*
X134910609Y-110649500D01*
X134879954Y-110656015D01*
X134735733Y-110686670D01*
X134735728Y-110686672D01*
X134572408Y-110759387D01*
X134427768Y-110864475D01*
X134308140Y-110997336D01*
X134218750Y-111152164D01*
X134218747Y-111152170D01*
X134163504Y-111322192D01*
X134163503Y-111322194D01*
X134144815Y-111500000D01*
X133674875Y-111500000D01*
X133610689Y-111397849D01*
X133483135Y-111270295D01*
X133431509Y-111237856D01*
X133330396Y-111174322D01*
X133160127Y-111114742D01*
X133160122Y-111114741D01*
X132980877Y-111094546D01*
X132980869Y-111094546D01*
X132801623Y-111114741D01*
X132801618Y-111114742D01*
X132631349Y-111174322D01*
X132494735Y-111260163D01*
X132427498Y-111279163D01*
X132378329Y-111268449D01*
X132242821Y-111208118D01*
X132242818Y-111208117D01*
X132115147Y-111180980D01*
X132067944Y-111170947D01*
X131889162Y-111170947D01*
X131873284Y-111174322D01*
X131714286Y-111208117D01*
X131714281Y-111208119D01*
X131550961Y-111280835D01*
X131550956Y-111280837D01*
X131406318Y-111385922D01*
X131403735Y-111388249D01*
X131401915Y-111389121D01*
X131401065Y-111389740D01*
X131400951Y-111389584D01*
X131340742Y-111418474D01*
X131271407Y-111409844D01*
X131270471Y-111409433D01*
X131264267Y-111406671D01*
X131264263Y-111406670D01*
X131177598Y-111388249D01*
X131089391Y-111369500D01*
X130910609Y-111369500D01*
X130879954Y-111376015D01*
X130735733Y-111406670D01*
X130735728Y-111406672D01*
X130572408Y-111479387D01*
X130427768Y-111584475D01*
X130308140Y-111717336D01*
X130218750Y-111872164D01*
X130218747Y-111872170D01*
X130163504Y-112042192D01*
X130163503Y-112042194D01*
X130144815Y-112220000D01*
X128855185Y-112220000D01*
X128836497Y-112042197D01*
X128799320Y-111927778D01*
X128781252Y-111872170D01*
X128781249Y-111872164D01*
X128767203Y-111847835D01*
X128691859Y-111717335D01*
X128633184Y-111652170D01*
X128572235Y-111584478D01*
X128572232Y-111584476D01*
X128572231Y-111584475D01*
X128572230Y-111584474D01*
X128427593Y-111479388D01*
X128264267Y-111406671D01*
X128264265Y-111406670D01*
X128136594Y-111379533D01*
X128089391Y-111369500D01*
X127910609Y-111369500D01*
X127879954Y-111376015D01*
X127735733Y-111406670D01*
X127735728Y-111406672D01*
X127572408Y-111479387D01*
X127427768Y-111584475D01*
X127308140Y-111717336D01*
X127218750Y-111872164D01*
X127218747Y-111872170D01*
X127163504Y-112042192D01*
X127163503Y-112042194D01*
X127144815Y-112220000D01*
X119572786Y-112220000D01*
X119586497Y-112177803D01*
X119605185Y-112000000D01*
X119586497Y-111822197D01*
X119553569Y-111720856D01*
X119531252Y-111652170D01*
X119531249Y-111652164D01*
X119441859Y-111497335D01*
X119370852Y-111418474D01*
X119322235Y-111364478D01*
X119322232Y-111364476D01*
X119322231Y-111364475D01*
X119322230Y-111364474D01*
X119177593Y-111259388D01*
X119014267Y-111186671D01*
X119014265Y-111186670D01*
X118886594Y-111159533D01*
X118839391Y-111149500D01*
X118660609Y-111149500D01*
X118629954Y-111156015D01*
X118485733Y-111186670D01*
X118485728Y-111186672D01*
X118322408Y-111259387D01*
X118177768Y-111364475D01*
X118058140Y-111497336D01*
X117968750Y-111652164D01*
X117968747Y-111652170D01*
X117913504Y-111822192D01*
X117913503Y-111822194D01*
X117894815Y-112000000D01*
X112250500Y-112000000D01*
X112250500Y-108000000D01*
X120894815Y-108000000D01*
X120913503Y-108177805D01*
X120913504Y-108177807D01*
X120968747Y-108347829D01*
X120968750Y-108347835D01*
X121058141Y-108502665D01*
X121099812Y-108548946D01*
X121177764Y-108635521D01*
X121177767Y-108635523D01*
X121177770Y-108635526D01*
X121322407Y-108740612D01*
X121464874Y-108804042D01*
X121518109Y-108849290D01*
X121538431Y-108916139D01*
X121533900Y-108945666D01*
X121534830Y-108945864D01*
X121533478Y-108952220D01*
X121514790Y-109130025D01*
X121533478Y-109307830D01*
X121533479Y-109307832D01*
X121588722Y-109477854D01*
X121588725Y-109477860D01*
X121678116Y-109632690D01*
X121718736Y-109677803D01*
X121797739Y-109765546D01*
X121797742Y-109765548D01*
X121797745Y-109765551D01*
X121942382Y-109870637D01*
X122105708Y-109943354D01*
X122280584Y-109980525D01*
X122280585Y-109980525D01*
X122459364Y-109980525D01*
X122459366Y-109980525D01*
X122634242Y-109943354D01*
X122643338Y-109939303D01*
X122712588Y-109930017D01*
X122775865Y-109959644D01*
X122801163Y-109990580D01*
X122808140Y-110002663D01*
X122808139Y-110002663D01*
X122927764Y-110135521D01*
X122927767Y-110135523D01*
X122927770Y-110135526D01*
X123072407Y-110240612D01*
X123235733Y-110313329D01*
X123410609Y-110350500D01*
X123410610Y-110350500D01*
X123589389Y-110350500D01*
X123589391Y-110350500D01*
X123764267Y-110313329D01*
X123927593Y-110240612D01*
X124072230Y-110135526D01*
X124191859Y-110002665D01*
X124281250Y-109847835D01*
X124336497Y-109677803D01*
X124355185Y-109500000D01*
X124336497Y-109322197D01*
X124281250Y-109152165D01*
X124191859Y-108997335D01*
X124145003Y-108945296D01*
X124072235Y-108864478D01*
X124072232Y-108864476D01*
X124072231Y-108864475D01*
X124072230Y-108864474D01*
X123927593Y-108759388D01*
X123906498Y-108749996D01*
X127444435Y-108749996D01*
X127444435Y-108750003D01*
X127464630Y-108929249D01*
X127464631Y-108929254D01*
X127524211Y-109099523D01*
X127557292Y-109152170D01*
X127620184Y-109252262D01*
X127747738Y-109379816D01*
X127838080Y-109436582D01*
X127898935Y-109474820D01*
X127900478Y-109475789D01*
X128070745Y-109535368D01*
X128070750Y-109535369D01*
X128249996Y-109555565D01*
X128250000Y-109555565D01*
X128250004Y-109555565D01*
X128429249Y-109535369D01*
X128429252Y-109535368D01*
X128429255Y-109535368D01*
X128599522Y-109475789D01*
X128752262Y-109379816D01*
X128836517Y-109295561D01*
X131428206Y-109295561D01*
X131428206Y-109295568D01*
X131448401Y-109474814D01*
X131448402Y-109474819D01*
X131507982Y-109645088D01*
X131591787Y-109778462D01*
X131603955Y-109797827D01*
X131731509Y-109925381D01*
X131760113Y-109943354D01*
X131854505Y-110002665D01*
X131884249Y-110021354D01*
X132054516Y-110080933D01*
X132054521Y-110080934D01*
X132233767Y-110101130D01*
X132233771Y-110101130D01*
X132233775Y-110101130D01*
X132413020Y-110080934D01*
X132413023Y-110080933D01*
X132413026Y-110080933D01*
X132583293Y-110021354D01*
X132736033Y-109925381D01*
X132863587Y-109797827D01*
X132959560Y-109645087D01*
X133019139Y-109474820D01*
X133019140Y-109474814D01*
X133039336Y-109295568D01*
X133039336Y-109295561D01*
X133019140Y-109116315D01*
X133019139Y-109116310D01*
X132959559Y-108946041D01*
X132893169Y-108840382D01*
X132863587Y-108793303D01*
X132736033Y-108665749D01*
X132694164Y-108639441D01*
X132583294Y-108569776D01*
X132413025Y-108510196D01*
X132413020Y-108510195D01*
X132233775Y-108490000D01*
X132233767Y-108490000D01*
X132054521Y-108510195D01*
X132054516Y-108510196D01*
X131884247Y-108569776D01*
X131731508Y-108665749D01*
X131603955Y-108793302D01*
X131507982Y-108946041D01*
X131448402Y-109116310D01*
X131448401Y-109116315D01*
X131428206Y-109295561D01*
X128836517Y-109295561D01*
X128879816Y-109252262D01*
X128975789Y-109099522D01*
X129035368Y-108929255D01*
X129036846Y-108916139D01*
X129055565Y-108750003D01*
X129055565Y-108749996D01*
X129035369Y-108570748D01*
X129035368Y-108570745D01*
X128990046Y-108441222D01*
X128975789Y-108400478D01*
X128968836Y-108389413D01*
X128900548Y-108280733D01*
X128879816Y-108247738D01*
X128752262Y-108120184D01*
X128706933Y-108091702D01*
X128599523Y-108024211D01*
X128429254Y-107964631D01*
X128429249Y-107964630D01*
X128250004Y-107944435D01*
X128249996Y-107944435D01*
X128070750Y-107964630D01*
X128070745Y-107964631D01*
X127900476Y-108024211D01*
X127747737Y-108120184D01*
X127620184Y-108247737D01*
X127524211Y-108400476D01*
X127464631Y-108570745D01*
X127464631Y-108570748D01*
X127444435Y-108749996D01*
X123906498Y-108749996D01*
X123764267Y-108686671D01*
X123764265Y-108686670D01*
X123636594Y-108659533D01*
X123589391Y-108649500D01*
X123410609Y-108649500D01*
X123373439Y-108657400D01*
X123235734Y-108686670D01*
X123235733Y-108686670D01*
X123226630Y-108690724D01*
X123157380Y-108700007D01*
X123094104Y-108670377D01*
X123068809Y-108639441D01*
X123061834Y-108627360D01*
X122942210Y-108494503D01*
X122942207Y-108494501D01*
X122942206Y-108494500D01*
X122942205Y-108494499D01*
X122797568Y-108389413D01*
X122655102Y-108325983D01*
X122601865Y-108280733D01*
X122581544Y-108213884D01*
X122586077Y-108184360D01*
X122585145Y-108184162D01*
X122586496Y-108177805D01*
X122586497Y-108177803D01*
X122605185Y-108000000D01*
X122586497Y-107822197D01*
X122542462Y-107686671D01*
X122531252Y-107652170D01*
X122531249Y-107652164D01*
X122523576Y-107638874D01*
X122441859Y-107497335D01*
X122407896Y-107459615D01*
X133734816Y-107459615D01*
X133734816Y-107459622D01*
X133755011Y-107638868D01*
X133755012Y-107638873D01*
X133814592Y-107809142D01*
X133879505Y-107912449D01*
X133910565Y-107961881D01*
X134038119Y-108089435D01*
X134041727Y-108091702D01*
X134178755Y-108177803D01*
X134190859Y-108185408D01*
X134272239Y-108213884D01*
X134361126Y-108244987D01*
X134361131Y-108244988D01*
X134540377Y-108265184D01*
X134540381Y-108265184D01*
X134540385Y-108265184D01*
X134719630Y-108244988D01*
X134719633Y-108244987D01*
X134719636Y-108244987D01*
X134889903Y-108185408D01*
X135042643Y-108089435D01*
X135170197Y-107961881D01*
X135266170Y-107809141D01*
X135325749Y-107638874D01*
X135339790Y-107514256D01*
X135345946Y-107459622D01*
X135345946Y-107459616D01*
X135338936Y-107397401D01*
X135337041Y-107380585D01*
X135349095Y-107311764D01*
X135396444Y-107260385D01*
X135464054Y-107242760D01*
X135474145Y-107243482D01*
X135625759Y-107260565D01*
X135625762Y-107260565D01*
X135625766Y-107260565D01*
X135805011Y-107240369D01*
X135805013Y-107240368D01*
X135805017Y-107240368D01*
X135805020Y-107240366D01*
X135805024Y-107240366D01*
X135957464Y-107187025D01*
X136027243Y-107183463D01*
X136087870Y-107218191D01*
X136116350Y-107265747D01*
X136159127Y-107397401D01*
X136159129Y-107397405D01*
X136203593Y-107474419D01*
X136220066Y-107542320D01*
X136197213Y-107608346D01*
X136142292Y-107651537D01*
X136121987Y-107657709D01*
X135985732Y-107686670D01*
X135985727Y-107686672D01*
X135822407Y-107759387D01*
X135677767Y-107864475D01*
X135558139Y-107997336D01*
X135468749Y-108152164D01*
X135468746Y-108152170D01*
X135413503Y-108322192D01*
X135413502Y-108322194D01*
X135394814Y-108500000D01*
X135413502Y-108677805D01*
X135413503Y-108677807D01*
X135468746Y-108847829D01*
X135468749Y-108847835D01*
X135558140Y-109002665D01*
X135589844Y-109037876D01*
X135677763Y-109135521D01*
X135677766Y-109135523D01*
X135677769Y-109135526D01*
X135822406Y-109240612D01*
X135985732Y-109313329D01*
X136160608Y-109350500D01*
X136160609Y-109350500D01*
X136339388Y-109350500D01*
X136339390Y-109350500D01*
X136514266Y-109313329D01*
X136677592Y-109240612D01*
X136822229Y-109135526D01*
X136827183Y-109130025D01*
X136854647Y-109099522D01*
X136941858Y-109002665D01*
X137031249Y-108847835D01*
X137086496Y-108677803D01*
X137105184Y-108500000D01*
X137086496Y-108322197D01*
X137051303Y-108213884D01*
X137031251Y-108152170D01*
X137031248Y-108152164D01*
X136986783Y-108075148D01*
X136970311Y-108007250D01*
X136993164Y-107941223D01*
X137048085Y-107898032D01*
X137068370Y-107891865D01*
X137204646Y-107862899D01*
X137367972Y-107790182D01*
X137512609Y-107685096D01*
X137632238Y-107552235D01*
X137721629Y-107397405D01*
X137776876Y-107227373D01*
X137795564Y-107049570D01*
X137779549Y-106897207D01*
X137792118Y-106828483D01*
X137839850Y-106777458D01*
X137907590Y-106760340D01*
X137943825Y-106767209D01*
X138111116Y-106825747D01*
X138111122Y-106825748D01*
X138111124Y-106825749D01*
X138111125Y-106825749D01*
X138111129Y-106825750D01*
X138290375Y-106845946D01*
X138290379Y-106845946D01*
X138290383Y-106845946D01*
X138469628Y-106825750D01*
X138469631Y-106825749D01*
X138469634Y-106825749D01*
X138639901Y-106766170D01*
X138792641Y-106670197D01*
X138920195Y-106542643D01*
X138946989Y-106500000D01*
X142394815Y-106500000D01*
X142413503Y-106677805D01*
X142413504Y-106677807D01*
X142468747Y-106847829D01*
X142468750Y-106847835D01*
X142558141Y-107002665D01*
X142599812Y-107048946D01*
X142677764Y-107135521D01*
X142677767Y-107135523D01*
X142677770Y-107135526D01*
X142822407Y-107240612D01*
X142985733Y-107313329D01*
X143160609Y-107350500D01*
X143160610Y-107350500D01*
X143339389Y-107350500D01*
X143339391Y-107350500D01*
X143514267Y-107313329D01*
X143677593Y-107240612D01*
X143677597Y-107240608D01*
X143683224Y-107237361D01*
X143683904Y-107238539D01*
X143742911Y-107217480D01*
X143810966Y-107233300D01*
X143821783Y-107240252D01*
X143822402Y-107240609D01*
X143822404Y-107240610D01*
X143822407Y-107240612D01*
X143985661Y-107313297D01*
X144038896Y-107358545D01*
X144059218Y-107425394D01*
X144040173Y-107492618D01*
X144022906Y-107514256D01*
X143947724Y-107589438D01*
X143851752Y-107742175D01*
X143792172Y-107912444D01*
X143792171Y-107912449D01*
X143771976Y-108091695D01*
X143771976Y-108091702D01*
X143792171Y-108270948D01*
X143792172Y-108270953D01*
X143851752Y-108441222D01*
X143933137Y-108570745D01*
X143947725Y-108593961D01*
X144075279Y-108721515D01*
X144135555Y-108759389D01*
X144206616Y-108804040D01*
X144228019Y-108817488D01*
X144314729Y-108847829D01*
X144398286Y-108877067D01*
X144398291Y-108877068D01*
X144577537Y-108897264D01*
X144577541Y-108897264D01*
X144577545Y-108897264D01*
X144756790Y-108877068D01*
X144756793Y-108877067D01*
X144756796Y-108877067D01*
X144927063Y-108817488D01*
X145079803Y-108721515D01*
X145207357Y-108593961D01*
X145303330Y-108441221D01*
X145362909Y-108270954D01*
X145365835Y-108244987D01*
X145383106Y-108091702D01*
X145383106Y-108091695D01*
X145365213Y-107932889D01*
X145377267Y-107864068D01*
X145400746Y-107831331D01*
X145479816Y-107752262D01*
X145575789Y-107599522D01*
X145635368Y-107429255D01*
X145635368Y-107429254D01*
X145635369Y-107429252D01*
X145635369Y-107429249D01*
X145655565Y-107250003D01*
X145655565Y-107249996D01*
X145635369Y-107070748D01*
X145635368Y-107070745D01*
X145575788Y-106900476D01*
X145492050Y-106767209D01*
X145479816Y-106747738D01*
X145352262Y-106620184D01*
X145324683Y-106602855D01*
X145199521Y-106524210D01*
X145178376Y-106516811D01*
X145121600Y-106476089D01*
X145096012Y-106412734D01*
X145086497Y-106322197D01*
X145050530Y-106211503D01*
X145031252Y-106152170D01*
X145031249Y-106152164D01*
X145030005Y-106150009D01*
X144941859Y-105997335D01*
X144895003Y-105945296D01*
X144822235Y-105864478D01*
X144822232Y-105864476D01*
X144822231Y-105864475D01*
X144822230Y-105864474D01*
X144677593Y-105759388D01*
X144514267Y-105686671D01*
X144514265Y-105686670D01*
X144386594Y-105659533D01*
X144339391Y-105649500D01*
X144160609Y-105649500D01*
X144129954Y-105656015D01*
X143985733Y-105686670D01*
X143985728Y-105686672D01*
X143822408Y-105759388D01*
X143816775Y-105762640D01*
X143816097Y-105761465D01*
X143757064Y-105782521D01*
X143689012Y-105766687D01*
X143678207Y-105759742D01*
X143677597Y-105759390D01*
X143677593Y-105759388D01*
X143514267Y-105686671D01*
X143514265Y-105686670D01*
X143386594Y-105659533D01*
X143339391Y-105649500D01*
X143160609Y-105649500D01*
X143129954Y-105656015D01*
X142985733Y-105686670D01*
X142985728Y-105686672D01*
X142822408Y-105759387D01*
X142677768Y-105864475D01*
X142558140Y-105997336D01*
X142468750Y-106152164D01*
X142468747Y-106152170D01*
X142413504Y-106322192D01*
X142413503Y-106322194D01*
X142394815Y-106500000D01*
X138946989Y-106500000D01*
X139016168Y-106389903D01*
X139075747Y-106219636D01*
X139076095Y-106216549D01*
X139095944Y-106040384D01*
X139095944Y-106040377D01*
X139075748Y-105861131D01*
X139075747Y-105861126D01*
X139043838Y-105769936D01*
X139016168Y-105690859D01*
X138999825Y-105664850D01*
X138959392Y-105600500D01*
X138920195Y-105538119D01*
X138792641Y-105410565D01*
X138752784Y-105385521D01*
X138639902Y-105314592D01*
X138469633Y-105255012D01*
X138469628Y-105255011D01*
X138290383Y-105234816D01*
X138290375Y-105234816D01*
X138111129Y-105255011D01*
X138111124Y-105255012D01*
X137940855Y-105314592D01*
X137788116Y-105410565D01*
X137660563Y-105538118D01*
X137564590Y-105690857D01*
X137505010Y-105861126D01*
X137505009Y-105861131D01*
X137484814Y-106040377D01*
X137484814Y-106040385D01*
X137498587Y-106162633D01*
X137486532Y-106231455D01*
X137439183Y-106282834D01*
X137371572Y-106300458D01*
X137324934Y-106289796D01*
X137204646Y-106236241D01*
X137204644Y-106236240D01*
X137076973Y-106209103D01*
X137029770Y-106199070D01*
X136850988Y-106199070D01*
X136820333Y-106205585D01*
X136676112Y-106236240D01*
X136676111Y-106236240D01*
X136557893Y-106288875D01*
X136488643Y-106298159D01*
X136425367Y-106268530D01*
X136390416Y-106216549D01*
X136387360Y-106207816D01*
X136351551Y-106105478D01*
X136255578Y-105952738D01*
X136128024Y-105825184D01*
X135975285Y-105729211D01*
X135805016Y-105669631D01*
X135805011Y-105669630D01*
X135625766Y-105649435D01*
X135625758Y-105649435D01*
X135446512Y-105669630D01*
X135446507Y-105669631D01*
X135276238Y-105729211D01*
X135123499Y-105825184D01*
X134995946Y-105952737D01*
X134899973Y-106105476D01*
X134840393Y-106275745D01*
X134840392Y-106275750D01*
X134820197Y-106454996D01*
X134820197Y-106455004D01*
X134829101Y-106534033D01*
X134817046Y-106602855D01*
X134769697Y-106654234D01*
X134702087Y-106671858D01*
X134691998Y-106671136D01*
X134540385Y-106654054D01*
X134540377Y-106654054D01*
X134361131Y-106674249D01*
X134361126Y-106674250D01*
X134190857Y-106733830D01*
X134038118Y-106829803D01*
X133910565Y-106957356D01*
X133814592Y-107110095D01*
X133755012Y-107280364D01*
X133755011Y-107280369D01*
X133734816Y-107459615D01*
X122407896Y-107459615D01*
X122395003Y-107445296D01*
X122322235Y-107364478D01*
X122322232Y-107364476D01*
X122322231Y-107364475D01*
X122322230Y-107364474D01*
X122177593Y-107259388D01*
X122014267Y-107186671D01*
X122014265Y-107186670D01*
X121886594Y-107159533D01*
X121839391Y-107149500D01*
X121660609Y-107149500D01*
X121629954Y-107156015D01*
X121485733Y-107186670D01*
X121485728Y-107186672D01*
X121322408Y-107259387D01*
X121177768Y-107364475D01*
X121058140Y-107497336D01*
X120968750Y-107652164D01*
X120968747Y-107652170D01*
X120913504Y-107822192D01*
X120913503Y-107822194D01*
X120894815Y-108000000D01*
X112250500Y-108000000D01*
X112250500Y-102893713D01*
X117249500Y-102893713D01*
X117249500Y-103106287D01*
X117282754Y-103316243D01*
X117335248Y-103477803D01*
X117348444Y-103518414D01*
X117444951Y-103707820D01*
X117569890Y-103879786D01*
X117708705Y-104018601D01*
X117742190Y-104079924D01*
X117737206Y-104149616D01*
X117695334Y-104205549D01*
X117686121Y-104211821D01*
X117531342Y-104307289D01*
X117407289Y-104431342D01*
X117315187Y-104580663D01*
X117315185Y-104580668D01*
X117314048Y-104584100D01*
X117260001Y-104747203D01*
X117260001Y-104747204D01*
X117260000Y-104747204D01*
X117249500Y-104849983D01*
X117249500Y-106150001D01*
X117249501Y-106150018D01*
X117260000Y-106252796D01*
X117260001Y-106252799D01*
X117305434Y-106389904D01*
X117315186Y-106419334D01*
X117407288Y-106568656D01*
X117531344Y-106692712D01*
X117680666Y-106784814D01*
X117847203Y-106839999D01*
X117949991Y-106850500D01*
X119550008Y-106850499D01*
X119652797Y-106839999D01*
X119819334Y-106784814D01*
X119968656Y-106692712D01*
X120092712Y-106568656D01*
X120184814Y-106419334D01*
X120239999Y-106252797D01*
X120250500Y-106150009D01*
X120250499Y-104849992D01*
X120240285Y-104750000D01*
X128144815Y-104750000D01*
X128163503Y-104927805D01*
X128163504Y-104927807D01*
X128218747Y-105097829D01*
X128218750Y-105097835D01*
X128308141Y-105252665D01*
X128349812Y-105298946D01*
X128427764Y-105385521D01*
X128427767Y-105385523D01*
X128427770Y-105385526D01*
X128572407Y-105490612D01*
X128735733Y-105563329D01*
X128910609Y-105600500D01*
X128910610Y-105600500D01*
X129089389Y-105600500D01*
X129089391Y-105600500D01*
X129264267Y-105563329D01*
X129427593Y-105490612D01*
X129572230Y-105385526D01*
X129691859Y-105252665D01*
X129781250Y-105097835D01*
X129836497Y-104927803D01*
X129855185Y-104750000D01*
X129836497Y-104572197D01*
X129808873Y-104487181D01*
X129781252Y-104402170D01*
X129781249Y-104402164D01*
X129691859Y-104247335D01*
X129632785Y-104181727D01*
X129572235Y-104114478D01*
X129572232Y-104114476D01*
X129572231Y-104114475D01*
X129572230Y-104114474D01*
X129427593Y-104009388D01*
X129264267Y-103936671D01*
X129264265Y-103936670D01*
X129136594Y-103909533D01*
X129089391Y-103899500D01*
X128910609Y-103899500D01*
X128879954Y-103906015D01*
X128735733Y-103936670D01*
X128735728Y-103936672D01*
X128572408Y-104009387D01*
X128427768Y-104114475D01*
X128308140Y-104247336D01*
X128218750Y-104402164D01*
X128218747Y-104402170D01*
X128163504Y-104572192D01*
X128163503Y-104572194D01*
X128144815Y-104750000D01*
X120240285Y-104750000D01*
X120239999Y-104747203D01*
X120184814Y-104580666D01*
X120092712Y-104431344D01*
X119968656Y-104307288D01*
X119819334Y-104215186D01*
X119819333Y-104215185D01*
X119813878Y-104211821D01*
X119767154Y-104159873D01*
X119755931Y-104090910D01*
X119783775Y-104026828D01*
X119791272Y-104018623D01*
X119930104Y-103879792D01*
X120055051Y-103707816D01*
X120151557Y-103518412D01*
X120217246Y-103316243D01*
X120219819Y-103300000D01*
X138894815Y-103300000D01*
X138913503Y-103477805D01*
X138913504Y-103477807D01*
X138968747Y-103647829D01*
X138968750Y-103647835D01*
X139058141Y-103802665D01*
X139099812Y-103848946D01*
X139177764Y-103935521D01*
X139177767Y-103935523D01*
X139177770Y-103935526D01*
X139322407Y-104040612D01*
X139341124Y-104048945D01*
X139394361Y-104094193D01*
X139414010Y-104149260D01*
X139417422Y-104181717D01*
X139417424Y-104181727D01*
X139472667Y-104351749D01*
X139472670Y-104351755D01*
X139562061Y-104506585D01*
X139621134Y-104572192D01*
X139656952Y-104611972D01*
X139687182Y-104674963D01*
X139682733Y-104733262D01*
X139644310Y-104851516D01*
X139644309Y-104851518D01*
X139625621Y-105029324D01*
X139644309Y-105207129D01*
X139644310Y-105207131D01*
X139699553Y-105377153D01*
X139699556Y-105377158D01*
X139699556Y-105377159D01*
X139788947Y-105531989D01*
X139817166Y-105563329D01*
X139908570Y-105664845D01*
X139908573Y-105664847D01*
X139908576Y-105664850D01*
X140053213Y-105769936D01*
X140216539Y-105842653D01*
X140391415Y-105879824D01*
X140391416Y-105879824D01*
X140570195Y-105879824D01*
X140570197Y-105879824D01*
X140745073Y-105842653D01*
X140908399Y-105769936D01*
X141053036Y-105664850D01*
X141172665Y-105531989D01*
X141262056Y-105377159D01*
X141285086Y-105306278D01*
X141324523Y-105248603D01*
X141377236Y-105223306D01*
X141394562Y-105219624D01*
X141557888Y-105146907D01*
X141702525Y-105041821D01*
X141713778Y-105029324D01*
X141756759Y-104981588D01*
X141822154Y-104908960D01*
X141911545Y-104754130D01*
X141966792Y-104584098D01*
X141985480Y-104406295D01*
X141966792Y-104228492D01*
X141963621Y-104218735D01*
X141961627Y-104148895D01*
X141997707Y-104089062D01*
X142060408Y-104058234D01*
X142129822Y-104066198D01*
X142131946Y-104067120D01*
X142235733Y-104113329D01*
X142410609Y-104150500D01*
X142410610Y-104150500D01*
X142589389Y-104150500D01*
X142589391Y-104150500D01*
X142764267Y-104113329D01*
X142927593Y-104040612D01*
X143072230Y-103935526D01*
X143086810Y-103919334D01*
X143122413Y-103879792D01*
X143191859Y-103802665D01*
X143281250Y-103647835D01*
X143336497Y-103477803D01*
X143355185Y-103300000D01*
X143336497Y-103122197D01*
X143293538Y-102989984D01*
X143281252Y-102952170D01*
X143281249Y-102952164D01*
X143267613Y-102928545D01*
X143191859Y-102797335D01*
X143145003Y-102745296D01*
X143072235Y-102664478D01*
X143072232Y-102664476D01*
X143072231Y-102664475D01*
X143072230Y-102664474D01*
X142927593Y-102559388D01*
X142764267Y-102486671D01*
X142764265Y-102486670D01*
X142636594Y-102459533D01*
X142589391Y-102449500D01*
X142410609Y-102449500D01*
X142397615Y-102452262D01*
X142235733Y-102486670D01*
X142235728Y-102486672D01*
X142072408Y-102559388D01*
X142066775Y-102562640D01*
X142066097Y-102561465D01*
X142007064Y-102582521D01*
X141939012Y-102566687D01*
X141928207Y-102559742D01*
X141927597Y-102559390D01*
X141927593Y-102559388D01*
X141764267Y-102486671D01*
X141764265Y-102486670D01*
X141636594Y-102459533D01*
X141589391Y-102449500D01*
X141410609Y-102449500D01*
X141397615Y-102452262D01*
X141235733Y-102486670D01*
X141235728Y-102486672D01*
X141072408Y-102559387D01*
X140927768Y-102664475D01*
X140808140Y-102797336D01*
X140732387Y-102928545D01*
X140681820Y-102976760D01*
X140613213Y-102989984D01*
X140548349Y-102964016D01*
X140517613Y-102928545D01*
X140497503Y-102893713D01*
X140441859Y-102797335D01*
X140395003Y-102745296D01*
X140322235Y-102664478D01*
X140322232Y-102664476D01*
X140322231Y-102664475D01*
X140322230Y-102664474D01*
X140177593Y-102559388D01*
X140014267Y-102486671D01*
X140014265Y-102486670D01*
X139886594Y-102459533D01*
X139839391Y-102449500D01*
X139660609Y-102449500D01*
X139647615Y-102452262D01*
X139485733Y-102486670D01*
X139485728Y-102486672D01*
X139322408Y-102559387D01*
X139177768Y-102664475D01*
X139058140Y-102797336D01*
X138968750Y-102952164D01*
X138968747Y-102952170D01*
X138913504Y-103122192D01*
X138913503Y-103122194D01*
X138894815Y-103300000D01*
X120219819Y-103300000D01*
X120250500Y-103106287D01*
X120250500Y-102893713D01*
X120217246Y-102683757D01*
X120151557Y-102481588D01*
X120055051Y-102292184D01*
X120055049Y-102292181D01*
X120055048Y-102292179D01*
X119930109Y-102120213D01*
X119779786Y-101969890D01*
X119683589Y-101900000D01*
X122294817Y-101900000D01*
X122313505Y-102077805D01*
X122313506Y-102077807D01*
X122368749Y-102247829D01*
X122368752Y-102247835D01*
X122458143Y-102402665D01*
X122499814Y-102448946D01*
X122577766Y-102535521D01*
X122577769Y-102535523D01*
X122577772Y-102535526D01*
X122722409Y-102640612D01*
X122885735Y-102713329D01*
X123060611Y-102750500D01*
X123060612Y-102750500D01*
X123239391Y-102750500D01*
X123239393Y-102750500D01*
X123414269Y-102713329D01*
X123577595Y-102640612D01*
X123722232Y-102535526D01*
X123841861Y-102402665D01*
X123931252Y-102247835D01*
X123986499Y-102077803D01*
X124005187Y-101900000D01*
X123986499Y-101722197D01*
X123956298Y-101629249D01*
X123931254Y-101552170D01*
X123931251Y-101552164D01*
X123924228Y-101540000D01*
X123881220Y-101465507D01*
X123844795Y-101402416D01*
X123828322Y-101334515D01*
X123851175Y-101268488D01*
X123901744Y-101227138D01*
X123983784Y-101190612D01*
X124128421Y-101085526D01*
X124132037Y-101081511D01*
X124191972Y-101014946D01*
X124248050Y-100952665D01*
X124337441Y-100797835D01*
X124352984Y-100750000D01*
X126394815Y-100750000D01*
X126413503Y-100927805D01*
X126413504Y-100927807D01*
X126468747Y-101097829D01*
X126468750Y-101097835D01*
X126558141Y-101252665D01*
X126584632Y-101282086D01*
X126677764Y-101385521D01*
X126677767Y-101385523D01*
X126677770Y-101385526D01*
X126822407Y-101490612D01*
X126985733Y-101563329D01*
X127160609Y-101600500D01*
X127160610Y-101600500D01*
X127339389Y-101600500D01*
X127339391Y-101600500D01*
X127514267Y-101563329D01*
X127677593Y-101490612D01*
X127822230Y-101385526D01*
X127941859Y-101252665D01*
X128031250Y-101097835D01*
X128086497Y-100927803D01*
X128105185Y-100750000D01*
X128086497Y-100572197D01*
X128031250Y-100402165D01*
X127941859Y-100247335D01*
X127895003Y-100195296D01*
X127822235Y-100114478D01*
X127822232Y-100114476D01*
X127822231Y-100114475D01*
X127822230Y-100114474D01*
X127677593Y-100009388D01*
X127514267Y-99936671D01*
X127514265Y-99936670D01*
X127386594Y-99909533D01*
X127339391Y-99899500D01*
X127160609Y-99899500D01*
X127129954Y-99906015D01*
X126985733Y-99936670D01*
X126985728Y-99936672D01*
X126822408Y-100009387D01*
X126677768Y-100114475D01*
X126558140Y-100247336D01*
X126468750Y-100402164D01*
X126468747Y-100402170D01*
X126413504Y-100572192D01*
X126413503Y-100572194D01*
X126394815Y-100750000D01*
X124352984Y-100750000D01*
X124392688Y-100627803D01*
X124411376Y-100450000D01*
X124392688Y-100272197D01*
X124353689Y-100152170D01*
X124337443Y-100102170D01*
X124337440Y-100102164D01*
X124248050Y-99947335D01*
X124196336Y-99889901D01*
X124128426Y-99814478D01*
X124128423Y-99814476D01*
X124128422Y-99814475D01*
X124128421Y-99814474D01*
X123983784Y-99709388D01*
X123820458Y-99636671D01*
X123820456Y-99636670D01*
X123688945Y-99608717D01*
X123645582Y-99599500D01*
X123466800Y-99599500D01*
X123436145Y-99606015D01*
X123291924Y-99636670D01*
X123291919Y-99636672D01*
X123128599Y-99709387D01*
X122983959Y-99814475D01*
X122864331Y-99947336D01*
X122774941Y-100102164D01*
X122774938Y-100102170D01*
X122719695Y-100272192D01*
X122719694Y-100272194D01*
X122701006Y-100450000D01*
X122719694Y-100627805D01*
X122719695Y-100627807D01*
X122774938Y-100797829D01*
X122774940Y-100797832D01*
X122774941Y-100797835D01*
X122826818Y-100887689D01*
X122861398Y-100947584D01*
X122877870Y-101015484D01*
X122855017Y-101081511D01*
X122804447Y-101122862D01*
X122722408Y-101159388D01*
X122577770Y-101264475D01*
X122458142Y-101397336D01*
X122368752Y-101552164D01*
X122368749Y-101552170D01*
X122313506Y-101722192D01*
X122313505Y-101722194D01*
X122294817Y-101900000D01*
X119683589Y-101900000D01*
X119607820Y-101844951D01*
X119418414Y-101748444D01*
X119418413Y-101748443D01*
X119418412Y-101748443D01*
X119216243Y-101682754D01*
X119216241Y-101682753D01*
X119216240Y-101682753D01*
X119054957Y-101657208D01*
X119006287Y-101649500D01*
X118493713Y-101649500D01*
X118445042Y-101657208D01*
X118283760Y-101682753D01*
X118081585Y-101748444D01*
X117892179Y-101844951D01*
X117720213Y-101969890D01*
X117569890Y-102120213D01*
X117444951Y-102292179D01*
X117348444Y-102481585D01*
X117282753Y-102683760D01*
X117249500Y-102893713D01*
X112250500Y-102893713D01*
X112250500Y-98161894D01*
X123806709Y-98161894D01*
X123825397Y-98339699D01*
X123825398Y-98339701D01*
X123880641Y-98509723D01*
X123880644Y-98509729D01*
X123970035Y-98664559D01*
X123989944Y-98686670D01*
X124089658Y-98797415D01*
X124089661Y-98797417D01*
X124089664Y-98797420D01*
X124234301Y-98902506D01*
X124397627Y-98975223D01*
X124572503Y-99012394D01*
X124572504Y-99012394D01*
X124751283Y-99012394D01*
X124751285Y-99012394D01*
X124809594Y-99000000D01*
X128144175Y-99000000D01*
X128162863Y-99177805D01*
X128162864Y-99177807D01*
X128218107Y-99347829D01*
X128218110Y-99347835D01*
X128307501Y-99502665D01*
X128337514Y-99535998D01*
X128427124Y-99635521D01*
X128427127Y-99635523D01*
X128427130Y-99635526D01*
X128571767Y-99740612D01*
X128735093Y-99813329D01*
X128909969Y-99850500D01*
X128909970Y-99850500D01*
X129088749Y-99850500D01*
X129088751Y-99850500D01*
X129263627Y-99813329D01*
X129405876Y-99749996D01*
X133694435Y-99749996D01*
X133694435Y-99750003D01*
X133714630Y-99929249D01*
X133714631Y-99929252D01*
X133774211Y-100099523D01*
X133852535Y-100224174D01*
X133870184Y-100252262D01*
X133997738Y-100379816D01*
X134150478Y-100475789D01*
X134320745Y-100535368D01*
X134320750Y-100535369D01*
X134499996Y-100555565D01*
X134500000Y-100555565D01*
X134500004Y-100555565D01*
X134679249Y-100535369D01*
X134679252Y-100535368D01*
X134679255Y-100535368D01*
X134849522Y-100475789D01*
X135002262Y-100379816D01*
X135129816Y-100252262D01*
X135225789Y-100099522D01*
X135285368Y-99929255D01*
X135285368Y-99929254D01*
X135285369Y-99929252D01*
X135285369Y-99929249D01*
X135305565Y-99750003D01*
X135305565Y-99749996D01*
X135285369Y-99570750D01*
X135285368Y-99570745D01*
X135241967Y-99446712D01*
X135240763Y-99423122D01*
X135236633Y-99419745D01*
X135227273Y-99403559D01*
X135225790Y-99400481D01*
X135225789Y-99400478D01*
X135129816Y-99247738D01*
X135002262Y-99120184D01*
X134970935Y-99100500D01*
X134849523Y-99024211D01*
X134780332Y-99000000D01*
X135394815Y-99000000D01*
X135413503Y-99177805D01*
X135413504Y-99177807D01*
X135456923Y-99311436D01*
X135457502Y-99331715D01*
X135459771Y-99333487D01*
X135466396Y-99343757D01*
X135468749Y-99347833D01*
X135468750Y-99347835D01*
X135558141Y-99502665D01*
X135645332Y-99599500D01*
X135663603Y-99619792D01*
X135693833Y-99682783D01*
X135689384Y-99741082D01*
X135663335Y-99821251D01*
X135663334Y-99821253D01*
X135644646Y-99999059D01*
X135663334Y-100176864D01*
X135663335Y-100176866D01*
X135718578Y-100346888D01*
X135718581Y-100346894D01*
X135807970Y-100501722D01*
X135807975Y-100501729D01*
X135838606Y-100535748D01*
X135868836Y-100598740D01*
X135864417Y-100649244D01*
X135866181Y-100649647D01*
X135864631Y-100656437D01*
X135844435Y-100835687D01*
X135844435Y-100835694D01*
X135864630Y-101014940D01*
X135864631Y-101014945D01*
X135924211Y-101185214D01*
X135984421Y-101281037D01*
X136020184Y-101337953D01*
X136147738Y-101465507D01*
X136238080Y-101522273D01*
X136285651Y-101552164D01*
X136300478Y-101561480D01*
X136411922Y-101600476D01*
X136470745Y-101621059D01*
X136470750Y-101621060D01*
X136649996Y-101641256D01*
X136650000Y-101641256D01*
X136650004Y-101641256D01*
X136829249Y-101621060D01*
X136829252Y-101621059D01*
X136829255Y-101621059D01*
X136999522Y-101561480D01*
X137152262Y-101465507D01*
X137167773Y-101449996D01*
X138444435Y-101449996D01*
X138444435Y-101450003D01*
X138464630Y-101629249D01*
X138464631Y-101629254D01*
X138524211Y-101799523D01*
X138607039Y-101931342D01*
X138620184Y-101952262D01*
X138747738Y-102079816D01*
X138900478Y-102175789D01*
X139070745Y-102235368D01*
X139070750Y-102235369D01*
X139249996Y-102255565D01*
X139250000Y-102255565D01*
X139250004Y-102255565D01*
X139429249Y-102235369D01*
X139429252Y-102235368D01*
X139429255Y-102235368D01*
X139599522Y-102175789D01*
X139752262Y-102079816D01*
X139879816Y-101952262D01*
X139881240Y-101949996D01*
X143944435Y-101949996D01*
X143944435Y-101950003D01*
X143964630Y-102129249D01*
X143964631Y-102129254D01*
X144024211Y-102299523D01*
X144055923Y-102349992D01*
X144120184Y-102452262D01*
X144247738Y-102579816D01*
X144298951Y-102611995D01*
X144382476Y-102664478D01*
X144400478Y-102675789D01*
X144507761Y-102713329D01*
X144570745Y-102735368D01*
X144570750Y-102735369D01*
X144749996Y-102755565D01*
X144750000Y-102755565D01*
X144750004Y-102755565D01*
X144929249Y-102735369D01*
X144929252Y-102735368D01*
X144929255Y-102735368D01*
X145099522Y-102675789D01*
X145252262Y-102579816D01*
X145379816Y-102452262D01*
X145444082Y-102349983D01*
X147717000Y-102349983D01*
X147717000Y-103650001D01*
X147717001Y-103650018D01*
X147727500Y-103752796D01*
X147727501Y-103752799D01*
X147769580Y-103879784D01*
X147782686Y-103919334D01*
X147874788Y-104068656D01*
X147998844Y-104192712D01*
X148041037Y-104218737D01*
X148153620Y-104288178D01*
X148200345Y-104340126D01*
X148211568Y-104409088D01*
X148183724Y-104473171D01*
X148176206Y-104481398D01*
X148037389Y-104620215D01*
X147912451Y-104792179D01*
X147815944Y-104981585D01*
X147750253Y-105183760D01*
X147717000Y-105393713D01*
X147717000Y-105606286D01*
X147742919Y-105769936D01*
X147750254Y-105816243D01*
X147765925Y-105864474D01*
X147815944Y-106018414D01*
X147912451Y-106207820D01*
X148037390Y-106379786D01*
X148187713Y-106530109D01*
X148359679Y-106655048D01*
X148359681Y-106655049D01*
X148359684Y-106655051D01*
X148549088Y-106751557D01*
X148751257Y-106817246D01*
X148961213Y-106850500D01*
X148961214Y-106850500D01*
X149473786Y-106850500D01*
X149473787Y-106850500D01*
X149683743Y-106817246D01*
X149885912Y-106751557D01*
X150075316Y-106655051D01*
X150147158Y-106602855D01*
X150247286Y-106530109D01*
X150247288Y-106530106D01*
X150247292Y-106530104D01*
X150397604Y-106379792D01*
X150397606Y-106379788D01*
X150397609Y-106379786D01*
X150522548Y-106207820D01*
X150522547Y-106207820D01*
X150522551Y-106207816D01*
X150619057Y-106018412D01*
X150684746Y-105816243D01*
X150718000Y-105606287D01*
X150718000Y-105393713D01*
X150684746Y-105183757D01*
X150619057Y-104981588D01*
X150522551Y-104792184D01*
X150522549Y-104792181D01*
X150522548Y-104792179D01*
X150397609Y-104620213D01*
X150258794Y-104481398D01*
X150225309Y-104420075D01*
X150230293Y-104350383D01*
X150272165Y-104294450D01*
X150281379Y-104288178D01*
X150286831Y-104284814D01*
X150286834Y-104284814D01*
X150436156Y-104192712D01*
X150560212Y-104068656D01*
X150652314Y-103919334D01*
X150707499Y-103752797D01*
X150718000Y-103650009D01*
X150717999Y-102349992D01*
X150712843Y-102299522D01*
X150707499Y-102247203D01*
X150707498Y-102247200D01*
X150703577Y-102235368D01*
X150652314Y-102080666D01*
X150560212Y-101931344D01*
X150436156Y-101807288D01*
X150286834Y-101715186D01*
X150120297Y-101660001D01*
X150120295Y-101660000D01*
X150017510Y-101649500D01*
X148417498Y-101649500D01*
X148417481Y-101649501D01*
X148314703Y-101660000D01*
X148314700Y-101660001D01*
X148148168Y-101715185D01*
X148148163Y-101715187D01*
X147998842Y-101807289D01*
X147874789Y-101931342D01*
X147782687Y-102080663D01*
X147782685Y-102080668D01*
X147766585Y-102129255D01*
X147727501Y-102247203D01*
X147727501Y-102247204D01*
X147727500Y-102247204D01*
X147717000Y-102349983D01*
X145444082Y-102349983D01*
X145475789Y-102299522D01*
X145535368Y-102129255D01*
X145536387Y-102120213D01*
X145555565Y-101950003D01*
X145555565Y-101949996D01*
X145535369Y-101770750D01*
X145535368Y-101770745D01*
X145518379Y-101722194D01*
X145475789Y-101600478D01*
X145379816Y-101447738D01*
X145252262Y-101320184D01*
X145191641Y-101282093D01*
X145099523Y-101224211D01*
X144929254Y-101164631D01*
X144929249Y-101164630D01*
X144750004Y-101144435D01*
X144749996Y-101144435D01*
X144570750Y-101164630D01*
X144570745Y-101164631D01*
X144400476Y-101224211D01*
X144247737Y-101320184D01*
X144120184Y-101447737D01*
X144024211Y-101600476D01*
X143964631Y-101770745D01*
X143964630Y-101770750D01*
X143944435Y-101949996D01*
X139881240Y-101949996D01*
X139975789Y-101799522D01*
X140035368Y-101629255D01*
X140035369Y-101629249D01*
X140055565Y-101450003D01*
X140055565Y-101449996D01*
X140035369Y-101270750D01*
X140035368Y-101270745D01*
X140024823Y-101240610D01*
X139975789Y-101100478D01*
X139974128Y-101097835D01*
X139914328Y-101002663D01*
X139879816Y-100947738D01*
X139752262Y-100820184D01*
X139716684Y-100797829D01*
X139599523Y-100724211D01*
X139429254Y-100664631D01*
X139429249Y-100664630D01*
X139250004Y-100644435D01*
X139249996Y-100644435D01*
X139070750Y-100664630D01*
X139070745Y-100664631D01*
X138900476Y-100724211D01*
X138747737Y-100820184D01*
X138620184Y-100947737D01*
X138524211Y-101100476D01*
X138464631Y-101270745D01*
X138464630Y-101270750D01*
X138444435Y-101449996D01*
X137167773Y-101449996D01*
X137279816Y-101337953D01*
X137375789Y-101185213D01*
X137435368Y-101014946D01*
X137436752Y-101002663D01*
X137455565Y-100835694D01*
X137455565Y-100835687D01*
X137435369Y-100656441D01*
X137435368Y-100656436D01*
X137425350Y-100627807D01*
X137375789Y-100486169D01*
X137314395Y-100388462D01*
X137295396Y-100321227D01*
X137301457Y-100284180D01*
X137336328Y-100176862D01*
X137355016Y-99999059D01*
X137336328Y-99821256D01*
X137299980Y-99709388D01*
X137281083Y-99651229D01*
X137281080Y-99651223D01*
X137272679Y-99636672D01*
X137191690Y-99496394D01*
X137132727Y-99430909D01*
X137086227Y-99379265D01*
X137055997Y-99316273D01*
X137060446Y-99257975D01*
X137086497Y-99177803D01*
X137105185Y-99000000D01*
X137086497Y-98822197D01*
X137050561Y-98711598D01*
X137031252Y-98652170D01*
X137031249Y-98652164D01*
X137029711Y-98649500D01*
X136941859Y-98497335D01*
X136895003Y-98445296D01*
X136822235Y-98364478D01*
X136822232Y-98364476D01*
X136822231Y-98364475D01*
X136822230Y-98364474D01*
X136677593Y-98259388D01*
X136514267Y-98186671D01*
X136514265Y-98186670D01*
X136386594Y-98159533D01*
X136339391Y-98149500D01*
X136160609Y-98149500D01*
X136129954Y-98156015D01*
X135985733Y-98186670D01*
X135985728Y-98186672D01*
X135822408Y-98259387D01*
X135677768Y-98364475D01*
X135558140Y-98497336D01*
X135468750Y-98652164D01*
X135468747Y-98652170D01*
X135413504Y-98822192D01*
X135413503Y-98822194D01*
X135394815Y-99000000D01*
X134780332Y-99000000D01*
X134679254Y-98964631D01*
X134679249Y-98964630D01*
X134500004Y-98944435D01*
X134499996Y-98944435D01*
X134320750Y-98964630D01*
X134320745Y-98964631D01*
X134150476Y-99024211D01*
X133997737Y-99120184D01*
X133870184Y-99247737D01*
X133774211Y-99400476D01*
X133714631Y-99570745D01*
X133714630Y-99570750D01*
X133694435Y-99749996D01*
X129405876Y-99749996D01*
X129426953Y-99740612D01*
X129571590Y-99635526D01*
X129691219Y-99502665D01*
X129780610Y-99347835D01*
X129835857Y-99177803D01*
X129846767Y-99073996D01*
X129873350Y-99009385D01*
X129930647Y-98969400D01*
X130000466Y-98966740D01*
X130060640Y-99002249D01*
X130088018Y-99048642D01*
X130118748Y-99143219D01*
X130118750Y-99143223D01*
X130208141Y-99298053D01*
X130249293Y-99343757D01*
X130327764Y-99430909D01*
X130327767Y-99430911D01*
X130327770Y-99430914D01*
X130472407Y-99536000D01*
X130635733Y-99608717D01*
X130810609Y-99645888D01*
X130810610Y-99645888D01*
X130989389Y-99645888D01*
X130989391Y-99645888D01*
X131164267Y-99608717D01*
X131327593Y-99536000D01*
X131472230Y-99430914D01*
X131591859Y-99298053D01*
X131681250Y-99143223D01*
X131736497Y-98973191D01*
X131755185Y-98795388D01*
X131736497Y-98617585D01*
X131681250Y-98447553D01*
X131591859Y-98292723D01*
X131530753Y-98224858D01*
X131472235Y-98159866D01*
X131472232Y-98159864D01*
X131472231Y-98159863D01*
X131472230Y-98159862D01*
X131327593Y-98054776D01*
X131327592Y-98054775D01*
X131327590Y-98054774D01*
X131317881Y-98050451D01*
X131264645Y-98005200D01*
X131244999Y-97950137D01*
X131236498Y-97869252D01*
X131197751Y-97750002D01*
X131181253Y-97699225D01*
X131181250Y-97699219D01*
X131091860Y-97544390D01*
X131045004Y-97492351D01*
X130972236Y-97411533D01*
X130972233Y-97411531D01*
X130972232Y-97411530D01*
X130972231Y-97411529D01*
X130827594Y-97306443D01*
X130664268Y-97233726D01*
X130664266Y-97233725D01*
X130536595Y-97206588D01*
X130489392Y-97196555D01*
X130310610Y-97196555D01*
X130279955Y-97203070D01*
X130135734Y-97233725D01*
X130135729Y-97233727D01*
X129972409Y-97306442D01*
X129827769Y-97411530D01*
X129708141Y-97544391D01*
X129618751Y-97699219D01*
X129618748Y-97699225D01*
X129563505Y-97869247D01*
X129563504Y-97869249D01*
X129544816Y-98047055D01*
X129551565Y-98111267D01*
X129538995Y-98179996D01*
X129491263Y-98231020D01*
X129423523Y-98248138D01*
X129377809Y-98237508D01*
X129363237Y-98231020D01*
X129263627Y-98186671D01*
X129263625Y-98186670D01*
X129135954Y-98159533D01*
X129088751Y-98149500D01*
X128909969Y-98149500D01*
X128879314Y-98156015D01*
X128735093Y-98186670D01*
X128735088Y-98186672D01*
X128571768Y-98259387D01*
X128427128Y-98364475D01*
X128307500Y-98497336D01*
X128218110Y-98652164D01*
X128218107Y-98652170D01*
X128162864Y-98822192D01*
X128162863Y-98822194D01*
X128144175Y-99000000D01*
X124809594Y-99000000D01*
X124926161Y-98975223D01*
X125089487Y-98902506D01*
X125234124Y-98797420D01*
X125353753Y-98664559D01*
X125443144Y-98509729D01*
X125498391Y-98339697D01*
X125517079Y-98161894D01*
X125498391Y-97984091D01*
X125470767Y-97899075D01*
X125443146Y-97814064D01*
X125443143Y-97814058D01*
X125353753Y-97659229D01*
X125306897Y-97607190D01*
X125234129Y-97526372D01*
X125234126Y-97526370D01*
X125234125Y-97526369D01*
X125234124Y-97526368D01*
X125089487Y-97421282D01*
X124926161Y-97348565D01*
X124926159Y-97348564D01*
X124794916Y-97320668D01*
X124751285Y-97311394D01*
X124572503Y-97311394D01*
X124541848Y-97317909D01*
X124397627Y-97348564D01*
X124397622Y-97348566D01*
X124234302Y-97421281D01*
X124089662Y-97526369D01*
X123970034Y-97659230D01*
X123880644Y-97814058D01*
X123880641Y-97814064D01*
X123825398Y-97984086D01*
X123825397Y-97984088D01*
X123806709Y-98161894D01*
X112250500Y-98161894D01*
X112250500Y-95630025D01*
X123774840Y-95630025D01*
X123793528Y-95807830D01*
X123793529Y-95807832D01*
X123848772Y-95977854D01*
X123848775Y-95977860D01*
X123938166Y-96132690D01*
X123953302Y-96149500D01*
X124057789Y-96265546D01*
X124057792Y-96265548D01*
X124057795Y-96265551D01*
X124202432Y-96370637D01*
X124365758Y-96443354D01*
X124540634Y-96480525D01*
X124540635Y-96480525D01*
X124719414Y-96480525D01*
X124719416Y-96480525D01*
X124894292Y-96443354D01*
X125057618Y-96370637D01*
X125202255Y-96265551D01*
X125207804Y-96259389D01*
X125228173Y-96236766D01*
X125321884Y-96132690D01*
X125411275Y-95977860D01*
X125466522Y-95807828D01*
X125472600Y-95750000D01*
X126144815Y-95750000D01*
X126163503Y-95927805D01*
X126163504Y-95927807D01*
X126218747Y-96097829D01*
X126218750Y-96097835D01*
X126308141Y-96252665D01*
X126348152Y-96297102D01*
X126427764Y-96385521D01*
X126427767Y-96385523D01*
X126427770Y-96385526D01*
X126572407Y-96490612D01*
X126735733Y-96563329D01*
X126910609Y-96600500D01*
X126910610Y-96600500D01*
X127089389Y-96600500D01*
X127089391Y-96600500D01*
X127264267Y-96563329D01*
X127264269Y-96563327D01*
X127270451Y-96561320D01*
X127271002Y-96563017D01*
X127331614Y-96554888D01*
X127394892Y-96584513D01*
X127432108Y-96643646D01*
X127436125Y-96664484D01*
X127436939Y-96672218D01*
X127440347Y-96704649D01*
X127440348Y-96704651D01*
X127495591Y-96874673D01*
X127495594Y-96874679D01*
X127584985Y-97029509D01*
X127623417Y-97072192D01*
X127704608Y-97162365D01*
X127704611Y-97162367D01*
X127704614Y-97162370D01*
X127849251Y-97267456D01*
X128012577Y-97340173D01*
X128187453Y-97377344D01*
X128187454Y-97377344D01*
X128366233Y-97377344D01*
X128366235Y-97377344D01*
X128541111Y-97340173D01*
X128704437Y-97267456D01*
X128849074Y-97162370D01*
X128968703Y-97029509D01*
X129058094Y-96874679D01*
X129113341Y-96704647D01*
X129120497Y-96636557D01*
X129147082Y-96571944D01*
X129204380Y-96531960D01*
X129274199Y-96529300D01*
X129316703Y-96549203D01*
X129332406Y-96560612D01*
X129495732Y-96633329D01*
X129670608Y-96670500D01*
X129670609Y-96670500D01*
X129849388Y-96670500D01*
X129849390Y-96670500D01*
X130024266Y-96633329D01*
X130086533Y-96605605D01*
X130155781Y-96596320D01*
X130209851Y-96618566D01*
X130263968Y-96657884D01*
X130283698Y-96672219D01*
X130346393Y-96700132D01*
X130447023Y-96744935D01*
X130621899Y-96782106D01*
X130621900Y-96782106D01*
X130800679Y-96782106D01*
X130800681Y-96782106D01*
X130975557Y-96744935D01*
X131138883Y-96672218D01*
X131283520Y-96567132D01*
X131286945Y-96563329D01*
X131317584Y-96529300D01*
X131403149Y-96434271D01*
X131492540Y-96279441D01*
X131547787Y-96109409D01*
X131566475Y-95931606D01*
X131547787Y-95753803D01*
X131492540Y-95583771D01*
X131403149Y-95428941D01*
X131356293Y-95376902D01*
X131283525Y-95296084D01*
X131283522Y-95296082D01*
X131283521Y-95296081D01*
X131283520Y-95296080D01*
X131138883Y-95190994D01*
X130975557Y-95118277D01*
X130975555Y-95118276D01*
X130847884Y-95091139D01*
X130800681Y-95081106D01*
X130621899Y-95081106D01*
X130584729Y-95089006D01*
X130447024Y-95118276D01*
X130447021Y-95118277D01*
X130384754Y-95146000D01*
X130315504Y-95155284D01*
X130261434Y-95133038D01*
X130243742Y-95120184D01*
X130187592Y-95079388D01*
X130024266Y-95006671D01*
X130024264Y-95006670D01*
X129896593Y-94979533D01*
X129849390Y-94969500D01*
X129670608Y-94969500D01*
X129639953Y-94976015D01*
X129495732Y-95006670D01*
X129495727Y-95006672D01*
X129332407Y-95079387D01*
X129187767Y-95184475D01*
X129068139Y-95317336D01*
X128978749Y-95472164D01*
X128978746Y-95472170D01*
X128923503Y-95642192D01*
X128923502Y-95642195D01*
X128923502Y-95642197D01*
X128918949Y-95685521D01*
X128916346Y-95710284D01*
X128889761Y-95774899D01*
X128832463Y-95814883D01*
X128762644Y-95817543D01*
X128720141Y-95797641D01*
X128704440Y-95786234D01*
X128704441Y-95786234D01*
X128704437Y-95786232D01*
X128541111Y-95713515D01*
X128541109Y-95713514D01*
X128409409Y-95685521D01*
X128366235Y-95676344D01*
X128187453Y-95676344D01*
X128150283Y-95684244D01*
X128012578Y-95713514D01*
X128006394Y-95715524D01*
X128005843Y-95713830D01*
X127945207Y-95721953D01*
X127881934Y-95692316D01*
X127844728Y-95633176D01*
X127840718Y-95612364D01*
X127836497Y-95572197D01*
X127803996Y-95472170D01*
X127781252Y-95402170D01*
X127781249Y-95402164D01*
X127780276Y-95400478D01*
X127691859Y-95247335D01*
X127641129Y-95190994D01*
X127572235Y-95114478D01*
X127572232Y-95114476D01*
X127572231Y-95114475D01*
X127572230Y-95114474D01*
X127427593Y-95009388D01*
X127264267Y-94936671D01*
X127264265Y-94936670D01*
X127136594Y-94909533D01*
X127089391Y-94899500D01*
X126910609Y-94899500D01*
X126879954Y-94906015D01*
X126735733Y-94936670D01*
X126735728Y-94936672D01*
X126572408Y-95009387D01*
X126427768Y-95114475D01*
X126308140Y-95247336D01*
X126218750Y-95402164D01*
X126218747Y-95402170D01*
X126163504Y-95572192D01*
X126163503Y-95572194D01*
X126144815Y-95750000D01*
X125472600Y-95750000D01*
X125485210Y-95630025D01*
X125466522Y-95452222D01*
X125422695Y-95317336D01*
X125411277Y-95282195D01*
X125411274Y-95282189D01*
X125391384Y-95247738D01*
X125321884Y-95127360D01*
X125275028Y-95075321D01*
X125202260Y-94994503D01*
X125202257Y-94994501D01*
X125202256Y-94994500D01*
X125202255Y-94994499D01*
X125057618Y-94889413D01*
X124894292Y-94816696D01*
X124894290Y-94816695D01*
X124746900Y-94785367D01*
X124719416Y-94779525D01*
X124540634Y-94779525D01*
X124513150Y-94785367D01*
X124365758Y-94816695D01*
X124365753Y-94816697D01*
X124202433Y-94889412D01*
X124057793Y-94994500D01*
X123938165Y-95127361D01*
X123848775Y-95282189D01*
X123848772Y-95282195D01*
X123793529Y-95452217D01*
X123793528Y-95452219D01*
X123774840Y-95630025D01*
X112250500Y-95630025D01*
X112250500Y-92504066D01*
X112250765Y-92495956D01*
X112257196Y-92397835D01*
X112267075Y-92247102D01*
X112269190Y-92231048D01*
X112317045Y-91990462D01*
X112321243Y-91974797D01*
X112344337Y-91906762D01*
X112400093Y-91742512D01*
X112406291Y-91727547D01*
X112514790Y-91507533D01*
X112522893Y-91493498D01*
X112659182Y-91289527D01*
X112669039Y-91276681D01*
X112830786Y-91092244D01*
X112842244Y-91080786D01*
X113026681Y-90919039D01*
X113039527Y-90909182D01*
X113243498Y-90772893D01*
X113257533Y-90764790D01*
X113477547Y-90656291D01*
X113492512Y-90650093D01*
X113656762Y-90594337D01*
X113724797Y-90571243D01*
X113740464Y-90567045D01*
X113981048Y-90519190D01*
X113997102Y-90517075D01*
X114245957Y-90500765D01*
X114254067Y-90500500D01*
X115157245Y-90500500D01*
X115157250Y-90500500D01*
X115162036Y-90499997D01*
X117694652Y-90499997D01*
X117694652Y-90500002D01*
X117714028Y-90857368D01*
X117714029Y-90857385D01*
X117771926Y-91210539D01*
X117771932Y-91210565D01*
X117867672Y-91555392D01*
X117867674Y-91555399D01*
X118000142Y-91887870D01*
X118000151Y-91887888D01*
X118167784Y-92204077D01*
X118167787Y-92204082D01*
X118167789Y-92204085D01*
X118365682Y-92495956D01*
X118368634Y-92500309D01*
X118368641Y-92500319D01*
X118587482Y-92757958D01*
X118600332Y-92773086D01*
X118860163Y-93019211D01*
X119145081Y-93235800D01*
X119451747Y-93420315D01*
X119451749Y-93420316D01*
X119451751Y-93420317D01*
X119451755Y-93420319D01*
X119619095Y-93497738D01*
X119776565Y-93570591D01*
X120115726Y-93684868D01*
X120303109Y-93726114D01*
X120364347Y-93759749D01*
X120397682Y-93821154D01*
X120392526Y-93890833D01*
X120368602Y-93930185D01*
X120308140Y-93997336D01*
X120218750Y-94152164D01*
X120218747Y-94152170D01*
X120163504Y-94322192D01*
X120163503Y-94322194D01*
X120144815Y-94500000D01*
X120163503Y-94677805D01*
X120163504Y-94677807D01*
X120218747Y-94847829D01*
X120218750Y-94847835D01*
X120308141Y-95002665D01*
X120349812Y-95048946D01*
X120427764Y-95135521D01*
X120427767Y-95135523D01*
X120427770Y-95135526D01*
X120572407Y-95240612D01*
X120735733Y-95313329D01*
X120910609Y-95350500D01*
X120910610Y-95350500D01*
X121089389Y-95350500D01*
X121089391Y-95350500D01*
X121264267Y-95313329D01*
X121427593Y-95240612D01*
X121572230Y-95135526D01*
X121574471Y-95133038D01*
X121622777Y-95079388D01*
X121691859Y-95002665D01*
X121781250Y-94847835D01*
X121836497Y-94677803D01*
X121855185Y-94500000D01*
X121836497Y-94322197D01*
X121781250Y-94152165D01*
X121693395Y-93999996D01*
X131694435Y-93999996D01*
X131694435Y-94000003D01*
X131714630Y-94179249D01*
X131714631Y-94179254D01*
X131774211Y-94349523D01*
X131853549Y-94475788D01*
X131870184Y-94502262D01*
X131997738Y-94629816D01*
X132010225Y-94637662D01*
X132112888Y-94702170D01*
X132150478Y-94725789D01*
X132320745Y-94785368D01*
X132359577Y-94789743D01*
X132423989Y-94816808D01*
X132463545Y-94874402D01*
X132465684Y-94944239D01*
X132429727Y-95004146D01*
X132406156Y-95020160D01*
X132406374Y-95020506D01*
X132247737Y-95120184D01*
X132120184Y-95247737D01*
X132024211Y-95400476D01*
X131964631Y-95570745D01*
X131964630Y-95570750D01*
X131944435Y-95749996D01*
X131944435Y-95750003D01*
X131964630Y-95929249D01*
X131964631Y-95929254D01*
X132024211Y-96099523D01*
X132120184Y-96252262D01*
X132247742Y-96379820D01*
X132267717Y-96392370D01*
X132314010Y-96444703D01*
X132324968Y-96483482D01*
X132342000Y-96634654D01*
X132342001Y-96634659D01*
X132401581Y-96804928D01*
X132412432Y-96822197D01*
X132497554Y-96957667D01*
X132625108Y-97085221D01*
X132684210Y-97122357D01*
X132772457Y-97177807D01*
X132777848Y-97181194D01*
X132927973Y-97233725D01*
X132948115Y-97240773D01*
X132948120Y-97240774D01*
X133127366Y-97260970D01*
X133127370Y-97260970D01*
X133127374Y-97260970D01*
X133306619Y-97240774D01*
X133306622Y-97240773D01*
X133306625Y-97240773D01*
X133476892Y-97181194D01*
X133629632Y-97085221D01*
X133714853Y-97000000D01*
X135644815Y-97000000D01*
X135663503Y-97177805D01*
X135663504Y-97177807D01*
X135718747Y-97347829D01*
X135718750Y-97347835D01*
X135808141Y-97502665D01*
X135845711Y-97544391D01*
X135927764Y-97635521D01*
X135927767Y-97635523D01*
X135927770Y-97635526D01*
X136072407Y-97740612D01*
X136235733Y-97813329D01*
X136410609Y-97850500D01*
X136410610Y-97850500D01*
X136589389Y-97850500D01*
X136589391Y-97850500D01*
X136764267Y-97813329D01*
X136927593Y-97740612D01*
X137072230Y-97635526D01*
X137191859Y-97502665D01*
X137281250Y-97347835D01*
X137336497Y-97177803D01*
X137355185Y-97000000D01*
X137336497Y-96822197D01*
X137287765Y-96672216D01*
X137281252Y-96652170D01*
X137281249Y-96652164D01*
X137191859Y-96497335D01*
X137129678Y-96428276D01*
X137072235Y-96364478D01*
X137072232Y-96364476D01*
X137072231Y-96364475D01*
X137072230Y-96364474D01*
X136927593Y-96259388D01*
X136764267Y-96186671D01*
X136764265Y-96186670D01*
X136636594Y-96159533D01*
X136589391Y-96149500D01*
X136410609Y-96149500D01*
X136379954Y-96156015D01*
X136235733Y-96186670D01*
X136235728Y-96186672D01*
X136072408Y-96259387D01*
X135927768Y-96364475D01*
X135808140Y-96497336D01*
X135718750Y-96652164D01*
X135718747Y-96652170D01*
X135663504Y-96822192D01*
X135663503Y-96822194D01*
X135644815Y-97000000D01*
X133714853Y-97000000D01*
X133757186Y-96957667D01*
X133853159Y-96804927D01*
X133912738Y-96634660D01*
X133912888Y-96633329D01*
X133932935Y-96455408D01*
X133932935Y-96455401D01*
X133912739Y-96276155D01*
X133912738Y-96276150D01*
X133881428Y-96186671D01*
X133853159Y-96105883D01*
X133848098Y-96097829D01*
X133797233Y-96016877D01*
X133757186Y-95953143D01*
X133629632Y-95825589D01*
X133629630Y-95825587D01*
X133609648Y-95813032D01*
X133563357Y-95760697D01*
X133552401Y-95721922D01*
X133551680Y-95715524D01*
X133543419Y-95642197D01*
X133535369Y-95570749D01*
X133535368Y-95570745D01*
X133485749Y-95428942D01*
X133475789Y-95400478D01*
X133474128Y-95397835D01*
X133423547Y-95317335D01*
X133379816Y-95247738D01*
X133252262Y-95120184D01*
X133190070Y-95081106D01*
X133099523Y-95024211D01*
X132929254Y-94964631D01*
X132929250Y-94964630D01*
X132890422Y-94960256D01*
X132826008Y-94933190D01*
X132786453Y-94875595D01*
X132784316Y-94805758D01*
X132820274Y-94745851D01*
X132843844Y-94729841D01*
X132843626Y-94729494D01*
X132887121Y-94702164D01*
X133002262Y-94629816D01*
X133129816Y-94502262D01*
X133225789Y-94349522D01*
X133285368Y-94179255D01*
X133285369Y-94179249D01*
X133305565Y-94000003D01*
X133305565Y-93999996D01*
X133285369Y-93820750D01*
X133285368Y-93820745D01*
X133277360Y-93797859D01*
X133225789Y-93650478D01*
X133129816Y-93497738D01*
X133002262Y-93370184D01*
X132849523Y-93274211D01*
X132679254Y-93214631D01*
X132679249Y-93214630D01*
X132500004Y-93194435D01*
X132499996Y-93194435D01*
X132320750Y-93214630D01*
X132320745Y-93214631D01*
X132150476Y-93274211D01*
X131997737Y-93370184D01*
X131870184Y-93497737D01*
X131774211Y-93650476D01*
X131714631Y-93820745D01*
X131714630Y-93820750D01*
X131694435Y-93999996D01*
X121693395Y-93999996D01*
X121691859Y-93997335D01*
X121631398Y-93930186D01*
X121601168Y-93867194D01*
X121609793Y-93797859D01*
X121654535Y-93744194D01*
X121696887Y-93726114D01*
X121884274Y-93684868D01*
X122223435Y-93570591D01*
X122548253Y-93420315D01*
X122854919Y-93235800D01*
X123139837Y-93019211D01*
X123399668Y-92773086D01*
X123631365Y-92500311D01*
X123832211Y-92204085D01*
X123999853Y-91887880D01*
X124132324Y-91555403D01*
X124228071Y-91210552D01*
X124276739Y-90913690D01*
X124285970Y-90857385D01*
X124285970Y-90857382D01*
X124285972Y-90857371D01*
X124297294Y-90648543D01*
X128679499Y-90648543D01*
X128717947Y-90841829D01*
X128717950Y-90841839D01*
X128793364Y-91023907D01*
X128793371Y-91023920D01*
X128902860Y-91187781D01*
X128902863Y-91187785D01*
X129042214Y-91327136D01*
X129042218Y-91327139D01*
X129072375Y-91347289D01*
X129117181Y-91400900D01*
X129125890Y-91470225D01*
X129108480Y-91516364D01*
X129024211Y-91650476D01*
X128964631Y-91820745D01*
X128964630Y-91820750D01*
X128944435Y-91999996D01*
X128944435Y-92000003D01*
X128964630Y-92179249D01*
X128964631Y-92179254D01*
X129024211Y-92349523D01*
X129054564Y-92397829D01*
X129120184Y-92502262D01*
X129247738Y-92629816D01*
X129315973Y-92672691D01*
X129395068Y-92722390D01*
X129400478Y-92725789D01*
X129492412Y-92757958D01*
X129570745Y-92785368D01*
X129570750Y-92785369D01*
X129749996Y-92805565D01*
X129750000Y-92805565D01*
X129750004Y-92805565D01*
X129929249Y-92785369D01*
X129929252Y-92785368D01*
X129929255Y-92785368D01*
X130099522Y-92725789D01*
X130104932Y-92722390D01*
X130184027Y-92672691D01*
X130251264Y-92653690D01*
X130315973Y-92672691D01*
X130400475Y-92725788D01*
X130570745Y-92785368D01*
X130570750Y-92785369D01*
X130749996Y-92805565D01*
X130750000Y-92805565D01*
X130750004Y-92805565D01*
X130929249Y-92785369D01*
X130929252Y-92785368D01*
X130929255Y-92785368D01*
X131099522Y-92725789D01*
X131252262Y-92629816D01*
X131379816Y-92502262D01*
X131475789Y-92349522D01*
X131535368Y-92179255D01*
X131535369Y-92179249D01*
X131549932Y-92050000D01*
X135644815Y-92050000D01*
X135663503Y-92227805D01*
X135663504Y-92227807D01*
X135718747Y-92397829D01*
X135718750Y-92397835D01*
X135808141Y-92552665D01*
X135849812Y-92598946D01*
X135927764Y-92685521D01*
X135927767Y-92685523D01*
X135927770Y-92685526D01*
X136072407Y-92790612D01*
X136235733Y-92863329D01*
X136410609Y-92900500D01*
X136410610Y-92900500D01*
X136589389Y-92900500D01*
X136589391Y-92900500D01*
X136764267Y-92863329D01*
X136927593Y-92790612D01*
X137010955Y-92730045D01*
X137076760Y-92706565D01*
X137144814Y-92722390D01*
X137149784Y-92725353D01*
X137150478Y-92725789D01*
X137150483Y-92725790D01*
X137150485Y-92725792D01*
X137242411Y-92757959D01*
X137299187Y-92798680D01*
X137324934Y-92863633D01*
X137311478Y-92932195D01*
X137263090Y-92982597D01*
X137242411Y-92992041D01*
X137150480Y-93024209D01*
X136997737Y-93120184D01*
X136870184Y-93247737D01*
X136774211Y-93400476D01*
X136714631Y-93570745D01*
X136714630Y-93570750D01*
X136694435Y-93749996D01*
X136694435Y-93750003D01*
X136714630Y-93929249D01*
X136714632Y-93929257D01*
X136754046Y-94041896D01*
X136757607Y-94111675D01*
X136722878Y-94172302D01*
X136660885Y-94204529D01*
X136611226Y-94204141D01*
X136605057Y-94202829D01*
X136589391Y-94199500D01*
X136410609Y-94199500D01*
X136379954Y-94206015D01*
X136235733Y-94236670D01*
X136235728Y-94236672D01*
X136072408Y-94309387D01*
X135927768Y-94414475D01*
X135808140Y-94547336D01*
X135718750Y-94702164D01*
X135718747Y-94702170D01*
X135663504Y-94872192D01*
X135663503Y-94872194D01*
X135644815Y-95050000D01*
X135663503Y-95227805D01*
X135663504Y-95227807D01*
X135718747Y-95397829D01*
X135718750Y-95397835D01*
X135808141Y-95552665D01*
X135825727Y-95572196D01*
X135927764Y-95685521D01*
X135927767Y-95685523D01*
X135927770Y-95685526D01*
X136072407Y-95790612D01*
X136235733Y-95863329D01*
X136410609Y-95900500D01*
X136410610Y-95900500D01*
X136589389Y-95900500D01*
X136589391Y-95900500D01*
X136764267Y-95863329D01*
X136927593Y-95790612D01*
X137072230Y-95685526D01*
X137191859Y-95552665D01*
X137281250Y-95397835D01*
X137336497Y-95227803D01*
X137338369Y-95209997D01*
X140494723Y-95209997D01*
X140494723Y-95210002D01*
X140501039Y-95282190D01*
X140511155Y-95397829D01*
X140513793Y-95427975D01*
X140513793Y-95427979D01*
X140570422Y-95639322D01*
X140570424Y-95639326D01*
X140570425Y-95639330D01*
X140605018Y-95713514D01*
X140662897Y-95837638D01*
X140662898Y-95837639D01*
X140788402Y-96016877D01*
X140943123Y-96171598D01*
X141092446Y-96276155D01*
X141122361Y-96297102D01*
X141273583Y-96367618D01*
X141326022Y-96413790D01*
X141345174Y-96480984D01*
X141324958Y-96547865D01*
X141273583Y-96592382D01*
X141122361Y-96662898D01*
X141122357Y-96662900D01*
X140943121Y-96788402D01*
X140788402Y-96943121D01*
X140662900Y-97122357D01*
X140662898Y-97122361D01*
X140635464Y-97181194D01*
X140574751Y-97311394D01*
X140570426Y-97320668D01*
X140570422Y-97320677D01*
X140513793Y-97532020D01*
X140513793Y-97532024D01*
X140494723Y-97749997D01*
X140494723Y-97750002D01*
X140498523Y-97793432D01*
X140508136Y-97903321D01*
X140513793Y-97967975D01*
X140513793Y-97967979D01*
X140570422Y-98179322D01*
X140570424Y-98179326D01*
X140570425Y-98179330D01*
X140597554Y-98237508D01*
X140662897Y-98377638D01*
X140662898Y-98377639D01*
X140788402Y-98556877D01*
X140943123Y-98711598D01*
X141089977Y-98814426D01*
X141133601Y-98869002D01*
X141140793Y-98938501D01*
X141109271Y-99000855D01*
X141049041Y-99036269D01*
X141018852Y-99040000D01*
X140952155Y-99040000D01*
X140892627Y-99046401D01*
X140892620Y-99046403D01*
X140757913Y-99096645D01*
X140757906Y-99096649D01*
X140642812Y-99182809D01*
X140642809Y-99182812D01*
X140556649Y-99297906D01*
X140556645Y-99297913D01*
X140506403Y-99432620D01*
X140506401Y-99432627D01*
X140500000Y-99492155D01*
X140500000Y-100040000D01*
X141316988Y-100040000D01*
X141284075Y-100097007D01*
X141250000Y-100224174D01*
X141250000Y-100355826D01*
X141284075Y-100482993D01*
X141316988Y-100540000D01*
X140500000Y-100540000D01*
X140500000Y-101087844D01*
X140506401Y-101147372D01*
X140506403Y-101147379D01*
X140556645Y-101282086D01*
X140556649Y-101282093D01*
X140642809Y-101397187D01*
X140642812Y-101397190D01*
X140757906Y-101483350D01*
X140757913Y-101483354D01*
X140892620Y-101533596D01*
X140892627Y-101533598D01*
X140952155Y-101539999D01*
X140952172Y-101540000D01*
X141500000Y-101540000D01*
X141500000Y-100723012D01*
X141557007Y-100755925D01*
X141684174Y-100790000D01*
X141815826Y-100790000D01*
X141942993Y-100755925D01*
X142000000Y-100723012D01*
X142000000Y-101540000D01*
X142547828Y-101540000D01*
X142547844Y-101539999D01*
X142607372Y-101533598D01*
X142607379Y-101533596D01*
X142742086Y-101483354D01*
X142742093Y-101483350D01*
X142857187Y-101397190D01*
X142857190Y-101397187D01*
X142943350Y-101282093D01*
X142943354Y-101282086D01*
X142993596Y-101147379D01*
X142993598Y-101147372D01*
X142999999Y-101087844D01*
X143000000Y-101087827D01*
X143000000Y-100540000D01*
X142183012Y-100540000D01*
X142215925Y-100482993D01*
X142250000Y-100355826D01*
X142250000Y-100224174D01*
X142215925Y-100097007D01*
X142183012Y-100040000D01*
X143000000Y-100040000D01*
X143000000Y-99500000D01*
X146394815Y-99500000D01*
X146413503Y-99677805D01*
X146413504Y-99677807D01*
X146468750Y-99847836D01*
X146520806Y-99938000D01*
X146537279Y-100005900D01*
X146520806Y-100062000D01*
X146468750Y-100152163D01*
X146413504Y-100322192D01*
X146413503Y-100322194D01*
X146394815Y-100500000D01*
X146413503Y-100677805D01*
X146413504Y-100677807D01*
X146468747Y-100847829D01*
X146468750Y-100847835D01*
X146558141Y-101002665D01*
X146599812Y-101048946D01*
X146677764Y-101135521D01*
X146677767Y-101135523D01*
X146677770Y-101135526D01*
X146822407Y-101240612D01*
X146985733Y-101313329D01*
X147160609Y-101350500D01*
X147160610Y-101350500D01*
X147339389Y-101350500D01*
X147339391Y-101350500D01*
X147514267Y-101313329D01*
X147677593Y-101240612D01*
X147822230Y-101135526D01*
X147941859Y-101002665D01*
X148031250Y-100847835D01*
X148086497Y-100677803D01*
X148105185Y-100500000D01*
X148086497Y-100322197D01*
X148039275Y-100176862D01*
X148031252Y-100152170D01*
X148031251Y-100152169D01*
X148031250Y-100152165D01*
X147979190Y-100061996D01*
X147962719Y-99994101D01*
X147979190Y-99938004D01*
X148031250Y-99847835D01*
X148086497Y-99677803D01*
X148105185Y-99500000D01*
X148086497Y-99322197D01*
X148041207Y-99182809D01*
X148031252Y-99152170D01*
X148031249Y-99152164D01*
X148026085Y-99143219D01*
X147941859Y-98997335D01*
X147894227Y-98944435D01*
X147822235Y-98864478D01*
X147822232Y-98864476D01*
X147822231Y-98864475D01*
X147822230Y-98864474D01*
X147677593Y-98759388D01*
X147514267Y-98686671D01*
X147514265Y-98686670D01*
X147351952Y-98652170D01*
X147339391Y-98649500D01*
X147160609Y-98649500D01*
X147148048Y-98652170D01*
X146985733Y-98686670D01*
X146985728Y-98686672D01*
X146822408Y-98759387D01*
X146677768Y-98864475D01*
X146558140Y-98997336D01*
X146468750Y-99152164D01*
X146468747Y-99152170D01*
X146413504Y-99322192D01*
X146413503Y-99322194D01*
X146394815Y-99500000D01*
X143000000Y-99500000D01*
X143000000Y-99492172D01*
X142999999Y-99492155D01*
X142993598Y-99432627D01*
X142993596Y-99432620D01*
X142943354Y-99297913D01*
X142943352Y-99297909D01*
X142924294Y-99272452D01*
X142899875Y-99206988D01*
X142914725Y-99138715D01*
X142964130Y-99089308D01*
X143032402Y-99074455D01*
X143049339Y-99076848D01*
X143160609Y-99100500D01*
X143160610Y-99100500D01*
X143296539Y-99100500D01*
X143363578Y-99120185D01*
X143387605Y-99142900D01*
X143388863Y-99141768D01*
X143512834Y-99279453D01*
X143512837Y-99279455D01*
X143512840Y-99279458D01*
X143657477Y-99384544D01*
X143820803Y-99457261D01*
X143995679Y-99494432D01*
X143995680Y-99494432D01*
X144174459Y-99494432D01*
X144174461Y-99494432D01*
X144349337Y-99457261D01*
X144512663Y-99384544D01*
X144657300Y-99279458D01*
X144663609Y-99272452D01*
X144685862Y-99247737D01*
X144776929Y-99146597D01*
X144866320Y-98991767D01*
X144921567Y-98821735D01*
X144940255Y-98643932D01*
X144921567Y-98466129D01*
X144892814Y-98377638D01*
X144866322Y-98296102D01*
X144866319Y-98296096D01*
X144776929Y-98141267D01*
X144699052Y-98054776D01*
X144657305Y-98008410D01*
X144657302Y-98008408D01*
X144657301Y-98008407D01*
X144657300Y-98008406D01*
X144512663Y-97903320D01*
X144349337Y-97830603D01*
X144349335Y-97830602D01*
X144221664Y-97803465D01*
X144174461Y-97793432D01*
X144133096Y-97793432D01*
X144066057Y-97773747D01*
X144020302Y-97720943D01*
X144010358Y-97651785D01*
X144025707Y-97607435D01*
X144031250Y-97597835D01*
X144086497Y-97427803D01*
X144105185Y-97250000D01*
X144086497Y-97072197D01*
X144044558Y-96943123D01*
X144031252Y-96902170D01*
X144031249Y-96902164D01*
X144015381Y-96874679D01*
X143941859Y-96747335D01*
X143874224Y-96672219D01*
X143822235Y-96614478D01*
X143822232Y-96614476D01*
X143822231Y-96614475D01*
X143822230Y-96614474D01*
X143677593Y-96509388D01*
X143514267Y-96436671D01*
X143514265Y-96436670D01*
X143386594Y-96409533D01*
X143339391Y-96399500D01*
X143160609Y-96399500D01*
X143129954Y-96406015D01*
X142985733Y-96436670D01*
X142985728Y-96436672D01*
X142822408Y-96509387D01*
X142677768Y-96614475D01*
X142608380Y-96691538D01*
X142548893Y-96728186D01*
X142479036Y-96726855D01*
X142445108Y-96710140D01*
X142377643Y-96662900D01*
X142377639Y-96662898D01*
X142336353Y-96643646D01*
X142226414Y-96592381D01*
X142173977Y-96546210D01*
X142154825Y-96479016D01*
X142175041Y-96412135D01*
X142226414Y-96367618D01*
X142377639Y-96297102D01*
X142556877Y-96171598D01*
X142711598Y-96016877D01*
X142837102Y-95837639D01*
X142929575Y-95639330D01*
X142986207Y-95427977D01*
X143003719Y-95227805D01*
X143005277Y-95210002D01*
X143005277Y-95209997D01*
X142999678Y-95146000D01*
X142986207Y-94992023D01*
X142929575Y-94780670D01*
X142837102Y-94582362D01*
X142837100Y-94582359D01*
X142837099Y-94582357D01*
X142711599Y-94403124D01*
X142657997Y-94349522D01*
X142556877Y-94248402D01*
X142377639Y-94122898D01*
X142377640Y-94122898D01*
X142377638Y-94122897D01*
X142278484Y-94076661D01*
X142179330Y-94030425D01*
X142179326Y-94030424D01*
X142179322Y-94030422D01*
X141967977Y-93973793D01*
X141750002Y-93954723D01*
X141749998Y-93954723D01*
X141604682Y-93967436D01*
X141532023Y-93973793D01*
X141532020Y-93973793D01*
X141320677Y-94030422D01*
X141320668Y-94030426D01*
X141122361Y-94122898D01*
X141122357Y-94122900D01*
X140943121Y-94248402D01*
X140788402Y-94403121D01*
X140662900Y-94582357D01*
X140662898Y-94582361D01*
X140570426Y-94780668D01*
X140570422Y-94780677D01*
X140513793Y-94992020D01*
X140513793Y-94992024D01*
X140494723Y-95209997D01*
X137338369Y-95209997D01*
X137355185Y-95050000D01*
X137336497Y-94872197D01*
X137309706Y-94789742D01*
X137282985Y-94707503D01*
X137280990Y-94637662D01*
X137317070Y-94577829D01*
X137379771Y-94547001D01*
X137414797Y-94545965D01*
X137466904Y-94551836D01*
X137499998Y-94555565D01*
X137500000Y-94555565D01*
X137500004Y-94555565D01*
X137679249Y-94535369D01*
X137679252Y-94535368D01*
X137679255Y-94535368D01*
X137849522Y-94475789D01*
X138002262Y-94379816D01*
X138129816Y-94252262D01*
X138225789Y-94099522D01*
X138285368Y-93929255D01*
X138297548Y-93821154D01*
X138305565Y-93750003D01*
X138305565Y-93749996D01*
X138285369Y-93570750D01*
X138285368Y-93570745D01*
X138259821Y-93497737D01*
X138225789Y-93400478D01*
X138129816Y-93247738D01*
X138002262Y-93120184D01*
X137849523Y-93024211D01*
X137757588Y-92992042D01*
X137700812Y-92951320D01*
X137675065Y-92886367D01*
X137688521Y-92817806D01*
X137736908Y-92767403D01*
X137757588Y-92757958D01*
X137849522Y-92725789D01*
X138002262Y-92629816D01*
X138129816Y-92502262D01*
X138225789Y-92349522D01*
X138285368Y-92179255D01*
X138285369Y-92179249D01*
X138305565Y-92000003D01*
X138305565Y-91999996D01*
X138285369Y-91820750D01*
X138285366Y-91820737D01*
X138248526Y-91715455D01*
X138244964Y-91645676D01*
X138279692Y-91585049D01*
X138341686Y-91552821D01*
X138365567Y-91550500D01*
X138418543Y-91550500D01*
X138590152Y-91516364D01*
X138611835Y-91512051D01*
X138793914Y-91436632D01*
X138957782Y-91327139D01*
X139097139Y-91187782D01*
X139206632Y-91023914D01*
X139282051Y-90841835D01*
X139314679Y-90677805D01*
X139320500Y-90648543D01*
X139320500Y-90500000D01*
X142394815Y-90500000D01*
X142413503Y-90677805D01*
X142413504Y-90677807D01*
X142468747Y-90847829D01*
X142468750Y-90847835D01*
X142558141Y-91002665D01*
X142583151Y-91030441D01*
X142677764Y-91135521D01*
X142677767Y-91135523D01*
X142677770Y-91135526D01*
X142822407Y-91240612D01*
X142985733Y-91313329D01*
X143160609Y-91350500D01*
X143160610Y-91350500D01*
X143339389Y-91350500D01*
X143339391Y-91350500D01*
X143514267Y-91313329D01*
X143637551Y-91258439D01*
X143706799Y-91249155D01*
X143770076Y-91278783D01*
X143807289Y-91337918D01*
X143807465Y-91338545D01*
X143867673Y-91555397D01*
X143867674Y-91555399D01*
X144000142Y-91887870D01*
X144000151Y-91887888D01*
X144167784Y-92204077D01*
X144167787Y-92204082D01*
X144167789Y-92204085D01*
X144365682Y-92495956D01*
X144368634Y-92500309D01*
X144368641Y-92500319D01*
X144587482Y-92757958D01*
X144600332Y-92773086D01*
X144860163Y-93019211D01*
X145145081Y-93235800D01*
X145451747Y-93420315D01*
X145451749Y-93420316D01*
X145451751Y-93420317D01*
X145451755Y-93420319D01*
X145619095Y-93497738D01*
X145776565Y-93570591D01*
X146115726Y-93684868D01*
X146465254Y-93761805D01*
X146821052Y-93800500D01*
X146821058Y-93800500D01*
X147178942Y-93800500D01*
X147178948Y-93800500D01*
X147534746Y-93761805D01*
X147884274Y-93684868D01*
X148223435Y-93570591D01*
X148548253Y-93420315D01*
X148854919Y-93235800D01*
X149139837Y-93019211D01*
X149399668Y-92773086D01*
X149631365Y-92500311D01*
X149832211Y-92204085D01*
X149999853Y-91887880D01*
X150132324Y-91555403D01*
X150228071Y-91210552D01*
X150276739Y-90913690D01*
X150285970Y-90857385D01*
X150285970Y-90857382D01*
X150285972Y-90857371D01*
X150305348Y-90500000D01*
X150285972Y-90142629D01*
X150284120Y-90131333D01*
X150228073Y-89789460D01*
X150228072Y-89789459D01*
X150228071Y-89789448D01*
X150189215Y-89649500D01*
X150132327Y-89444607D01*
X150132325Y-89444600D01*
X150124210Y-89424234D01*
X150065891Y-89277863D01*
X149999857Y-89112129D01*
X149999848Y-89112111D01*
X149832215Y-88795922D01*
X149832213Y-88795919D01*
X149832211Y-88795915D01*
X149631365Y-88499689D01*
X149631361Y-88499684D01*
X149631358Y-88499680D01*
X149399668Y-88226914D01*
X149139837Y-87980789D01*
X149139830Y-87980783D01*
X149139827Y-87980781D01*
X149072245Y-87929407D01*
X148854919Y-87764200D01*
X148548253Y-87579685D01*
X148548252Y-87579684D01*
X148548248Y-87579682D01*
X148548244Y-87579680D01*
X148223447Y-87429414D01*
X148223441Y-87429411D01*
X148223435Y-87429409D01*
X148053854Y-87372270D01*
X147884273Y-87315131D01*
X147534744Y-87238194D01*
X147178949Y-87199500D01*
X147178948Y-87199500D01*
X146821052Y-87199500D01*
X146821050Y-87199500D01*
X146465255Y-87238194D01*
X146115726Y-87315131D01*
X145859970Y-87401306D01*
X145776565Y-87429409D01*
X145776563Y-87429410D01*
X145776552Y-87429414D01*
X145451755Y-87579680D01*
X145451751Y-87579682D01*
X145322841Y-87657245D01*
X145145081Y-87764200D01*
X145056768Y-87831333D01*
X144860172Y-87980781D01*
X144860163Y-87980789D01*
X144600331Y-88226914D01*
X144368641Y-88499680D01*
X144368634Y-88499690D01*
X144167790Y-88795913D01*
X144167784Y-88795922D01*
X144000151Y-89112111D01*
X144000142Y-89112129D01*
X143867674Y-89444600D01*
X143867673Y-89444602D01*
X143807465Y-89661454D01*
X143770563Y-89720783D01*
X143707443Y-89750744D01*
X143638145Y-89741823D01*
X143637550Y-89741560D01*
X143593923Y-89722136D01*
X143514267Y-89686671D01*
X143514265Y-89686670D01*
X143386594Y-89659533D01*
X143339391Y-89649500D01*
X143160609Y-89649500D01*
X143129954Y-89656015D01*
X142985733Y-89686670D01*
X142985728Y-89686672D01*
X142822408Y-89759387D01*
X142677768Y-89864475D01*
X142558140Y-89997336D01*
X142468750Y-90152164D01*
X142468747Y-90152170D01*
X142413504Y-90322192D01*
X142413503Y-90322194D01*
X142394815Y-90500000D01*
X139320500Y-90500000D01*
X139320500Y-89351456D01*
X139282052Y-89158170D01*
X139282051Y-89158169D01*
X139282051Y-89158165D01*
X139277274Y-89146632D01*
X139206635Y-88976092D01*
X139206628Y-88976079D01*
X139097139Y-88812218D01*
X139097136Y-88812214D01*
X138957785Y-88672863D01*
X138957781Y-88672860D01*
X138793920Y-88563371D01*
X138793907Y-88563364D01*
X138611839Y-88487950D01*
X138611829Y-88487947D01*
X138418543Y-88449500D01*
X138418541Y-88449500D01*
X138221459Y-88449500D01*
X138221457Y-88449500D01*
X138028170Y-88487947D01*
X138028160Y-88487950D01*
X137846092Y-88563364D01*
X137846079Y-88563371D01*
X137682218Y-88672860D01*
X137682214Y-88672863D01*
X137542863Y-88812214D01*
X137542860Y-88812218D01*
X137433371Y-88976079D01*
X137433363Y-88976094D01*
X137429456Y-88985528D01*
X137385615Y-89039931D01*
X137319320Y-89061995D01*
X137251621Y-89044715D01*
X137246968Y-89041566D01*
X137243366Y-89039486D01*
X137243365Y-89039485D01*
X137149899Y-88985522D01*
X137112136Y-88963719D01*
X137038950Y-88944109D01*
X136965766Y-88924500D01*
X136814234Y-88924500D01*
X136667863Y-88963719D01*
X136536635Y-89039485D01*
X136536632Y-89039487D01*
X136429487Y-89146632D01*
X136429485Y-89146635D01*
X136353719Y-89277863D01*
X136314500Y-89424234D01*
X136314500Y-89575765D01*
X136353719Y-89722136D01*
X136375227Y-89759388D01*
X136429485Y-89853365D01*
X136536635Y-89960515D01*
X136639470Y-90019887D01*
X136667861Y-90036279D01*
X136667865Y-90036281D01*
X136814234Y-90075500D01*
X136814236Y-90075500D01*
X136965764Y-90075500D01*
X136965766Y-90075500D01*
X137112135Y-90036281D01*
X137122451Y-90030325D01*
X137133499Y-90023947D01*
X137201398Y-90007473D01*
X137267426Y-90030325D01*
X137310617Y-90085245D01*
X137319500Y-90131333D01*
X137319500Y-90648541D01*
X137319500Y-90648543D01*
X137319499Y-90648543D01*
X137357947Y-90841829D01*
X137357950Y-90841839D01*
X137433364Y-91023907D01*
X137436241Y-91029289D01*
X137434084Y-91030441D01*
X137451741Y-91086864D01*
X137433244Y-91154241D01*
X137381258Y-91200922D01*
X137341647Y-91212276D01*
X137320747Y-91214631D01*
X137320737Y-91214633D01*
X137150482Y-91274208D01*
X137076003Y-91321006D01*
X137008766Y-91340005D01*
X136941931Y-91319636D01*
X136937146Y-91316329D01*
X136927594Y-91309389D01*
X136927593Y-91309388D01*
X136764267Y-91236671D01*
X136764265Y-91236670D01*
X136636594Y-91209533D01*
X136589391Y-91199500D01*
X136410609Y-91199500D01*
X136379954Y-91206015D01*
X136235733Y-91236670D01*
X136235728Y-91236672D01*
X136072408Y-91309387D01*
X135927768Y-91414475D01*
X135808140Y-91547336D01*
X135718750Y-91702164D01*
X135718747Y-91702170D01*
X135663504Y-91872192D01*
X135663503Y-91872194D01*
X135644815Y-92050000D01*
X131549932Y-92050000D01*
X131555565Y-92000003D01*
X131555565Y-91999996D01*
X131535369Y-91820750D01*
X131535368Y-91820745D01*
X131475788Y-91650476D01*
X131416047Y-91555399D01*
X131379816Y-91497738D01*
X131252262Y-91370184D01*
X131215825Y-91347289D01*
X131099523Y-91274211D01*
X130929254Y-91214631D01*
X130929249Y-91214630D01*
X130750004Y-91194435D01*
X130749995Y-91194435D01*
X130692362Y-91200928D01*
X130623540Y-91188873D01*
X130572162Y-91141523D01*
X130554538Y-91073913D01*
X130566190Y-91030325D01*
X130564301Y-91029543D01*
X130635617Y-90857368D01*
X130642051Y-90841835D01*
X130674679Y-90677805D01*
X130680500Y-90648543D01*
X130680500Y-90131333D01*
X130700185Y-90064294D01*
X130752989Y-90018539D01*
X130822147Y-90008595D01*
X130866501Y-90023947D01*
X130887859Y-90036278D01*
X130887860Y-90036278D01*
X130887865Y-90036281D01*
X131034234Y-90075500D01*
X131034236Y-90075500D01*
X131185764Y-90075500D01*
X131185766Y-90075500D01*
X131332135Y-90036281D01*
X131463365Y-89960515D01*
X131570515Y-89853365D01*
X131646281Y-89722135D01*
X131685500Y-89575766D01*
X131685500Y-89424234D01*
X131646281Y-89277865D01*
X131570515Y-89146635D01*
X131463365Y-89039485D01*
X131392838Y-88998766D01*
X131332136Y-88963719D01*
X131258950Y-88944109D01*
X131185766Y-88924500D01*
X131034234Y-88924500D01*
X130887863Y-88963719D01*
X130796428Y-89016510D01*
X130756635Y-89039485D01*
X130756633Y-89039486D01*
X130749597Y-89043549D01*
X130748254Y-89041224D01*
X130695391Y-89061647D01*
X130626949Y-89047592D01*
X130576971Y-88998766D01*
X130570540Y-88985522D01*
X130566632Y-88976087D01*
X130566628Y-88976079D01*
X130457139Y-88812218D01*
X130457136Y-88812214D01*
X130317785Y-88672863D01*
X130317781Y-88672860D01*
X130153920Y-88563371D01*
X130153907Y-88563364D01*
X129971839Y-88487950D01*
X129971829Y-88487947D01*
X129778543Y-88449500D01*
X129778541Y-88449500D01*
X129581459Y-88449500D01*
X129581457Y-88449500D01*
X129388170Y-88487947D01*
X129388160Y-88487950D01*
X129206092Y-88563364D01*
X129206079Y-88563371D01*
X129042218Y-88672860D01*
X129042214Y-88672863D01*
X128902863Y-88812214D01*
X128902860Y-88812218D01*
X128793371Y-88976079D01*
X128793364Y-88976092D01*
X128717950Y-89158160D01*
X128717947Y-89158170D01*
X128679500Y-89351456D01*
X128679500Y-89351459D01*
X128679500Y-90648541D01*
X128679500Y-90648543D01*
X128679499Y-90648543D01*
X124297294Y-90648543D01*
X124305348Y-90500000D01*
X124285972Y-90142629D01*
X124284120Y-90131333D01*
X124228073Y-89789460D01*
X124228072Y-89789459D01*
X124228071Y-89789448D01*
X124189215Y-89649500D01*
X124132327Y-89444607D01*
X124132325Y-89444600D01*
X124124210Y-89424234D01*
X124065891Y-89277863D01*
X123999857Y-89112129D01*
X123999848Y-89112111D01*
X123832215Y-88795922D01*
X123832213Y-88795919D01*
X123832211Y-88795915D01*
X123631365Y-88499689D01*
X123631361Y-88499684D01*
X123631358Y-88499680D01*
X123399668Y-88226914D01*
X123139837Y-87980789D01*
X123139830Y-87980783D01*
X123139827Y-87980781D01*
X123072245Y-87929407D01*
X122854919Y-87764200D01*
X122548253Y-87579685D01*
X122548252Y-87579684D01*
X122548248Y-87579682D01*
X122548244Y-87579680D01*
X122223447Y-87429414D01*
X122223441Y-87429411D01*
X122223435Y-87429409D01*
X122053854Y-87372270D01*
X121884273Y-87315131D01*
X121534744Y-87238194D01*
X121178949Y-87199500D01*
X121178948Y-87199500D01*
X120821052Y-87199500D01*
X120821050Y-87199500D01*
X120465255Y-87238194D01*
X120115726Y-87315131D01*
X119859970Y-87401306D01*
X119776565Y-87429409D01*
X119776563Y-87429410D01*
X119776552Y-87429414D01*
X119451755Y-87579680D01*
X119451751Y-87579682D01*
X119322841Y-87657245D01*
X119145081Y-87764200D01*
X119056768Y-87831333D01*
X118860172Y-87980781D01*
X118860163Y-87980789D01*
X118600331Y-88226914D01*
X118368641Y-88499680D01*
X118368634Y-88499690D01*
X118167790Y-88795913D01*
X118167784Y-88795922D01*
X118000151Y-89112111D01*
X118000142Y-89112129D01*
X117867674Y-89444600D01*
X117867672Y-89444607D01*
X117771932Y-89789434D01*
X117771926Y-89789460D01*
X117714029Y-90142614D01*
X117714028Y-90142627D01*
X117714028Y-90142629D01*
X117712157Y-90177133D01*
X117694652Y-90499997D01*
X115162036Y-90499997D01*
X115470026Y-90467626D01*
X115777652Y-90402238D01*
X116076759Y-90305053D01*
X116364068Y-90177134D01*
X116636432Y-90019885D01*
X116890867Y-89835027D01*
X117124586Y-89624586D01*
X117335027Y-89390867D01*
X117519885Y-89136432D01*
X117677134Y-88864068D01*
X117805053Y-88576759D01*
X117902238Y-88277652D01*
X117967626Y-87970026D01*
X118000500Y-87657250D01*
X118000500Y-87500000D01*
X118000500Y-87434108D01*
X118000500Y-86504066D01*
X118000765Y-86495956D01*
X118004819Y-86434108D01*
X118017075Y-86247102D01*
X118019190Y-86231048D01*
X118067045Y-85990462D01*
X118071243Y-85974797D01*
X118094337Y-85906762D01*
X118150093Y-85742512D01*
X118156291Y-85727547D01*
X118264790Y-85507533D01*
X118272893Y-85493498D01*
X118409182Y-85289527D01*
X118419039Y-85276681D01*
X118580786Y-85092244D01*
X118592244Y-85080786D01*
X118776681Y-84919039D01*
X118789527Y-84909182D01*
X118993498Y-84772893D01*
X119007533Y-84764790D01*
X119227547Y-84656291D01*
X119242512Y-84650093D01*
X119406762Y-84594337D01*
X119474797Y-84571243D01*
X119490464Y-84567045D01*
X119731048Y-84519190D01*
X119747102Y-84517075D01*
X119995957Y-84500765D01*
X120004067Y-84500500D01*
X120065892Y-84500500D01*
X128885216Y-84500500D01*
X128952255Y-84520185D01*
X128998010Y-84572989D01*
X129007954Y-84642147D01*
X128978929Y-84705703D01*
X128972897Y-84712181D01*
X128902863Y-84782214D01*
X128902860Y-84782218D01*
X128793371Y-84946079D01*
X128793364Y-84946092D01*
X128717950Y-85128160D01*
X128717947Y-85128170D01*
X128679500Y-85321456D01*
X128679500Y-85321459D01*
X128679500Y-86318541D01*
X128679500Y-86318543D01*
X128679499Y-86318543D01*
X128717947Y-86511829D01*
X128717950Y-86511839D01*
X128793364Y-86693907D01*
X128793371Y-86693920D01*
X128902860Y-86857781D01*
X128902863Y-86857785D01*
X129042214Y-86997136D01*
X129042218Y-86997139D01*
X129206079Y-87106628D01*
X129206092Y-87106635D01*
X129388160Y-87182049D01*
X129388165Y-87182051D01*
X129388169Y-87182051D01*
X129388170Y-87182052D01*
X129581456Y-87220500D01*
X129581459Y-87220500D01*
X129778543Y-87220500D01*
X129908582Y-87194632D01*
X129971835Y-87182051D01*
X130153914Y-87106632D01*
X130317782Y-86997139D01*
X130457139Y-86857782D01*
X130566632Y-86693914D01*
X130642051Y-86511835D01*
X130657512Y-86434108D01*
X130680500Y-86318543D01*
X130680500Y-85321456D01*
X130642052Y-85128170D01*
X130642051Y-85128169D01*
X130642051Y-85128165D01*
X130622424Y-85080781D01*
X130566635Y-84946092D01*
X130566628Y-84946079D01*
X130457139Y-84782218D01*
X130457136Y-84782214D01*
X130386603Y-84711681D01*
X130353118Y-84650358D01*
X130358102Y-84580666D01*
X130399974Y-84524733D01*
X130465438Y-84500316D01*
X130474284Y-84500000D01*
X137525716Y-84500000D01*
X137592755Y-84519685D01*
G37*
%TD.AperFunction*%
%TD*%
M02*
