%TF.GenerationSoftware,KiCad,Pcbnew,8.0.2*%
%TF.CreationDate,2024-09-15T16:43:51-04:00*%
%TF.ProjectId,StepperMotorDriver,53746570-7065-4724-9d6f-746f72447269,rev?*%
%TF.SameCoordinates,Original*%
%TF.FileFunction,Paste,Top*%
%TF.FilePolarity,Positive*%
%FSLAX46Y46*%
G04 Gerber Fmt 4.6, Leading zero omitted, Abs format (unit mm)*
G04 Created by KiCad (PCBNEW 8.0.2) date 2024-09-15 16:43:51*
%MOMM*%
%LPD*%
G01*
G04 APERTURE LIST*
G04 Aperture macros list*
%AMRoundRect*
0 Rectangle with rounded corners*
0 $1 Rounding radius*
0 $2 $3 $4 $5 $6 $7 $8 $9 X,Y pos of 4 corners*
0 Add a 4 corners polygon primitive as box body*
4,1,4,$2,$3,$4,$5,$6,$7,$8,$9,$2,$3,0*
0 Add four circle primitives for the rounded corners*
1,1,$1+$1,$2,$3*
1,1,$1+$1,$4,$5*
1,1,$1+$1,$6,$7*
1,1,$1+$1,$8,$9*
0 Add four rect primitives between the rounded corners*
20,1,$1+$1,$2,$3,$4,$5,0*
20,1,$1+$1,$4,$5,$6,$7,0*
20,1,$1+$1,$6,$7,$8,$9,0*
20,1,$1+$1,$8,$9,$2,$3,0*%
G04 Aperture macros list end*
%ADD10R,1.200000X1.400000*%
%ADD11RoundRect,0.250000X-0.400000X-0.450000X0.400000X-0.450000X0.400000X0.450000X-0.400000X0.450000X0*%
%ADD12RoundRect,0.250000X-0.625000X0.312500X-0.625000X-0.312500X0.625000X-0.312500X0.625000X0.312500X0*%
%ADD13RoundRect,0.140000X-0.140000X-0.170000X0.140000X-0.170000X0.140000X0.170000X-0.140000X0.170000X0*%
%ADD14RoundRect,0.140000X-0.170000X0.140000X-0.170000X-0.140000X0.170000X-0.140000X0.170000X0.140000X0*%
%ADD15RoundRect,0.135000X-0.185000X0.135000X-0.185000X-0.135000X0.185000X-0.135000X0.185000X0.135000X0*%
%ADD16RoundRect,0.218750X-0.256250X0.218750X-0.256250X-0.218750X0.256250X-0.218750X0.256250X0.218750X0*%
%ADD17RoundRect,0.150000X0.825000X0.150000X-0.825000X0.150000X-0.825000X-0.150000X0.825000X-0.150000X0*%
%ADD18RoundRect,0.140000X0.170000X-0.140000X0.170000X0.140000X-0.170000X0.140000X-0.170000X-0.140000X0*%
%ADD19RoundRect,0.250000X-0.475000X0.250000X-0.475000X-0.250000X0.475000X-0.250000X0.475000X0.250000X0*%
%ADD20RoundRect,0.218750X-0.218750X-0.256250X0.218750X-0.256250X0.218750X0.256250X-0.218750X0.256250X0*%
%ADD21RoundRect,0.140000X0.140000X0.170000X-0.140000X0.170000X-0.140000X-0.170000X0.140000X-0.170000X0*%
%ADD22RoundRect,0.135000X-0.135000X-0.185000X0.135000X-0.185000X0.135000X0.185000X-0.135000X0.185000X0*%
%ADD23RoundRect,0.225000X0.250000X-0.225000X0.250000X0.225000X-0.250000X0.225000X-0.250000X-0.225000X0*%
%ADD24RoundRect,0.135000X0.185000X-0.135000X0.185000X0.135000X-0.185000X0.135000X-0.185000X-0.135000X0*%
%ADD25RoundRect,0.075000X-0.662500X-0.075000X0.662500X-0.075000X0.662500X0.075000X-0.662500X0.075000X0*%
%ADD26RoundRect,0.075000X-0.075000X-0.662500X0.075000X-0.662500X0.075000X0.662500X-0.075000X0.662500X0*%
%ADD27R,1.900000X2.500000*%
%ADD28RoundRect,0.250000X0.625000X-0.312500X0.625000X0.312500X-0.625000X0.312500X-0.625000X-0.312500X0*%
%ADD29RoundRect,0.150000X0.512500X0.150000X-0.512500X0.150000X-0.512500X-0.150000X0.512500X-0.150000X0*%
%ADD30R,0.600000X1.160000*%
%ADD31R,0.300000X1.160000*%
%ADD32RoundRect,0.135000X0.135000X0.185000X-0.135000X0.185000X-0.135000X-0.185000X0.135000X-0.185000X0*%
%ADD33RoundRect,0.225000X-0.225000X-0.250000X0.225000X-0.250000X0.225000X0.250000X-0.225000X0.250000X0*%
%ADD34RoundRect,0.225000X0.225000X0.250000X-0.225000X0.250000X-0.225000X-0.250000X0.225000X-0.250000X0*%
%ADD35RoundRect,0.225000X-0.250000X0.225000X-0.250000X-0.225000X0.250000X-0.225000X0.250000X0.225000X0*%
%ADD36R,0.800000X0.300000*%
%ADD37R,0.300000X0.800000*%
%ADD38R,3.800000X3.800000*%
G04 APERTURE END LIST*
D10*
%TO.C,Y2*%
X60650000Y-61400000D03*
X60650000Y-63600000D03*
X62350000Y-63600000D03*
X62350000Y-61400000D03*
%TD*%
D11*
%TO.C,D1*%
X71451105Y-52993477D03*
X74351105Y-52993477D03*
%TD*%
D12*
%TO.C,R6*%
X75750000Y-70037500D03*
X75750000Y-72962500D03*
%TD*%
D13*
%TO.C,C20*%
X62770000Y-52500000D03*
X63730000Y-52500000D03*
%TD*%
%TO.C,C1*%
X75737001Y-59750000D03*
X76697001Y-59750000D03*
%TD*%
D14*
%TO.C,C19*%
X68250000Y-70230809D03*
X68250000Y-71190809D03*
%TD*%
D15*
%TO.C,R4*%
X75154699Y-61118977D03*
X75154699Y-62138977D03*
%TD*%
D16*
%TO.C,D2*%
X77750000Y-68712500D03*
X77750000Y-70287500D03*
%TD*%
D17*
%TO.C,U2*%
X64904524Y-71322558D03*
X64904524Y-70052558D03*
X64904524Y-68782558D03*
X64904524Y-67512558D03*
X59954524Y-67512558D03*
X59954524Y-68782558D03*
X59954524Y-70052558D03*
X59954524Y-71322558D03*
%TD*%
D18*
%TO.C,C5*%
X76122387Y-62369207D03*
X76122387Y-61409207D03*
%TD*%
D19*
%TO.C,C27*%
X76247443Y-56255287D03*
X76247443Y-58155287D03*
%TD*%
D20*
%TO.C,D4*%
X64212500Y-78000000D03*
X65787500Y-78000000D03*
%TD*%
D13*
%TO.C,C2*%
X63520000Y-72750000D03*
X64480000Y-72750000D03*
%TD*%
D21*
%TO.C,C13*%
X74084445Y-57788002D03*
X73124445Y-57788002D03*
%TD*%
D18*
%TO.C,C12*%
X63750000Y-59230000D03*
X63750000Y-58270000D03*
%TD*%
D22*
%TO.C,R9*%
X64990000Y-75500000D03*
X66010000Y-75500000D03*
%TD*%
D23*
%TO.C,C10*%
X85000000Y-63525000D03*
X85000000Y-61975000D03*
%TD*%
D24*
%TO.C,R2*%
X73250000Y-56760000D03*
X73250000Y-55740000D03*
%TD*%
D16*
%TO.C,FB3*%
X69474550Y-69494869D03*
X69474550Y-71069869D03*
%TD*%
D13*
%TO.C,C7*%
X84025873Y-67613273D03*
X83065873Y-67613273D03*
%TD*%
D25*
%TO.C,U3*%
X65337500Y-59250000D03*
X65337500Y-59750000D03*
X65337500Y-60250000D03*
X65337500Y-60750000D03*
X65337500Y-61250000D03*
X65337500Y-61750000D03*
X65337500Y-62250000D03*
X65337500Y-62750000D03*
X65337500Y-63250000D03*
X65337500Y-63750000D03*
X65337500Y-64250000D03*
X65337500Y-64750000D03*
D26*
X66750000Y-66162500D03*
X67250000Y-66162500D03*
X67750000Y-66162500D03*
X68250000Y-66162500D03*
X68750000Y-66162500D03*
X69250000Y-66162500D03*
X69750000Y-66162500D03*
X70250000Y-66162500D03*
X70750000Y-66162500D03*
X71250000Y-66162500D03*
X71750000Y-66162500D03*
X72250000Y-66162500D03*
D25*
X73662500Y-64750000D03*
X73662500Y-64250000D03*
X73662500Y-63750000D03*
X73662500Y-63250000D03*
X73662500Y-62750000D03*
X73662500Y-62250000D03*
X73662500Y-61750000D03*
X73662500Y-61250000D03*
X73662500Y-60750000D03*
X73662500Y-60250000D03*
X73662500Y-59750000D03*
X73662500Y-59250000D03*
D26*
X72250000Y-57837500D03*
X71750000Y-57837500D03*
X71250000Y-57837500D03*
X70750000Y-57837500D03*
X70250000Y-57837500D03*
X69750000Y-57837500D03*
X69250000Y-57837500D03*
X68750000Y-57837500D03*
X68250000Y-57837500D03*
X67750000Y-57837500D03*
X67250000Y-57837500D03*
X66750000Y-57837500D03*
%TD*%
D27*
%TO.C,L2*%
X82550000Y-55843821D03*
X78450000Y-55843821D03*
%TD*%
D14*
%TO.C,C26*%
X84300000Y-56613821D03*
X84300000Y-57573821D03*
%TD*%
D13*
%TO.C,C21*%
X70770000Y-69323632D03*
X71730000Y-69323632D03*
%TD*%
D18*
%TO.C,C6*%
X83733518Y-64244807D03*
X83733518Y-63284807D03*
%TD*%
D22*
%TO.C,R7*%
X76740000Y-51250000D03*
X77760000Y-51250000D03*
%TD*%
D28*
%TO.C,R5*%
X81096371Y-74369053D03*
X81096371Y-77294053D03*
%TD*%
D18*
%TO.C,C3*%
X63750000Y-61230000D03*
X63750000Y-60270000D03*
%TD*%
%TO.C,C18*%
X68250000Y-69276569D03*
X68250000Y-68316569D03*
%TD*%
D29*
%TO.C,U5*%
X88010002Y-57543821D03*
X88010002Y-56593821D03*
X88010002Y-55643821D03*
X85735002Y-55643821D03*
X85735002Y-56593821D03*
X85735002Y-57543821D03*
%TD*%
D24*
%TO.C,R11*%
X90250000Y-68260000D03*
X90250000Y-67240000D03*
%TD*%
D30*
%TO.C,J10*%
X76450000Y-49391250D03*
X75650000Y-49391250D03*
D31*
X74500000Y-49391250D03*
X73500000Y-49391250D03*
X73000000Y-49391250D03*
X72000000Y-49391250D03*
D30*
X70850000Y-49391250D03*
X70050000Y-49391250D03*
X70050000Y-49391250D03*
X70850000Y-49391250D03*
D31*
X71500000Y-49391250D03*
X72500000Y-49391250D03*
X74000000Y-49391250D03*
X75000000Y-49391250D03*
D30*
X75650000Y-49391250D03*
X76450000Y-49391250D03*
%TD*%
D32*
%TO.C,R8*%
X69510000Y-52000000D03*
X68490000Y-52000000D03*
%TD*%
D22*
%TO.C,R1*%
X77990000Y-52250000D03*
X79010000Y-52250000D03*
%TD*%
D18*
%TO.C,C23*%
X83750000Y-45250000D03*
X83750000Y-44290000D03*
%TD*%
D21*
%TO.C,C17*%
X70488756Y-68296569D03*
X69528756Y-68296569D03*
%TD*%
D33*
%TO.C,C15*%
X66225000Y-55042142D03*
X67775000Y-55042142D03*
%TD*%
D24*
%TO.C,R3*%
X69250000Y-55030562D03*
X69250000Y-54010562D03*
%TD*%
D21*
%TO.C,C9*%
X76480000Y-68750000D03*
X75520000Y-68750000D03*
%TD*%
%TO.C,C14*%
X72738756Y-68296569D03*
X71778756Y-68296569D03*
%TD*%
D20*
%TO.C,D3*%
X64212500Y-74250000D03*
X65787500Y-74250000D03*
%TD*%
D14*
%TO.C,C4*%
X63750000Y-63040000D03*
X63750000Y-64000000D03*
%TD*%
D34*
%TO.C,C11*%
X83489679Y-60068608D03*
X81939679Y-60068608D03*
%TD*%
D13*
%TO.C,C16*%
X66258180Y-56252997D03*
X67218180Y-56252997D03*
%TD*%
D22*
%TO.C,R10*%
X65051852Y-79246079D03*
X66071852Y-79246079D03*
%TD*%
D13*
%TO.C,C22*%
X70688973Y-70287561D03*
X71648973Y-70287561D03*
%TD*%
D35*
%TO.C,C25*%
X89750000Y-55725000D03*
X89750000Y-57275000D03*
%TD*%
D19*
%TO.C,C28*%
X76250000Y-52800000D03*
X76250000Y-54700000D03*
%TD*%
D24*
%TO.C,R12*%
X62500000Y-57260000D03*
X62500000Y-56240000D03*
%TD*%
D36*
%TO.C,IC2*%
X82250000Y-65500000D03*
X82250000Y-65000000D03*
X82250000Y-64500000D03*
X82250000Y-64000000D03*
X82250000Y-63500000D03*
X82250000Y-63000000D03*
X82250000Y-62500000D03*
D37*
X81250000Y-61500000D03*
X80750000Y-61500000D03*
X80250000Y-61500000D03*
X79750000Y-61500000D03*
X79250000Y-61500000D03*
X78750000Y-61500000D03*
X78250000Y-61500000D03*
D36*
X77250000Y-62500000D03*
X77250000Y-63000000D03*
X77250000Y-63500000D03*
X77250000Y-64000000D03*
X77250000Y-64500000D03*
X77250000Y-65000000D03*
X77250000Y-65500000D03*
D37*
X78250000Y-66500000D03*
X78750000Y-66500000D03*
X79250000Y-66500000D03*
X79750000Y-66500000D03*
X80250000Y-66500000D03*
X80750000Y-66500000D03*
X81250000Y-66500000D03*
D38*
X79750000Y-64000000D03*
%TD*%
M02*
