%TF.GenerationSoftware,KiCad,Pcbnew,8.0.2*%
%TF.CreationDate,2024-09-15T16:43:51-04:00*%
%TF.ProjectId,StepperMotorDriver,53746570-7065-4724-9d6f-746f72447269,rev?*%
%TF.SameCoordinates,Original*%
%TF.FileFunction,Copper,L1,Top*%
%TF.FilePolarity,Positive*%
%FSLAX46Y46*%
G04 Gerber Fmt 4.6, Leading zero omitted, Abs format (unit mm)*
G04 Created by KiCad (PCBNEW 8.0.2) date 2024-09-15 16:43:51*
%MOMM*%
%LPD*%
G01*
G04 APERTURE LIST*
G04 Aperture macros list*
%AMRoundRect*
0 Rectangle with rounded corners*
0 $1 Rounding radius*
0 $2 $3 $4 $5 $6 $7 $8 $9 X,Y pos of 4 corners*
0 Add a 4 corners polygon primitive as box body*
4,1,4,$2,$3,$4,$5,$6,$7,$8,$9,$2,$3,0*
0 Add four circle primitives for the rounded corners*
1,1,$1+$1,$2,$3*
1,1,$1+$1,$4,$5*
1,1,$1+$1,$6,$7*
1,1,$1+$1,$8,$9*
0 Add four rect primitives between the rounded corners*
20,1,$1+$1,$2,$3,$4,$5,0*
20,1,$1+$1,$4,$5,$6,$7,0*
20,1,$1+$1,$6,$7,$8,$9,0*
20,1,$1+$1,$8,$9,$2,$3,0*%
%AMHorizOval*
0 Thick line with rounded ends*
0 $1 width*
0 $2 $3 position (X,Y) of the first rounded end (center of the circle)*
0 $4 $5 position (X,Y) of the second rounded end (center of the circle)*
0 Add line between two ends*
20,1,$1,$2,$3,$4,$5,0*
0 Add two circle primitives to create the rounded ends*
1,1,$1,$2,$3*
1,1,$1,$4,$5*%
%AMFreePoly0*
4,1,19,0.500000,-0.750000,0.000000,-0.750000,0.000000,-0.744911,-0.071157,-0.744911,-0.207708,-0.704816,-0.327430,-0.627875,-0.420627,-0.520320,-0.479746,-0.390866,-0.500000,-0.250000,-0.500000,0.250000,-0.479746,0.390866,-0.420627,0.520320,-0.327430,0.627875,-0.207708,0.704816,-0.071157,0.744911,0.000000,0.744911,0.000000,0.750000,0.500000,0.750000,0.500000,-0.750000,0.500000,-0.750000,
$1*%
%AMFreePoly1*
4,1,19,0.000000,0.744911,0.071157,0.744911,0.207708,0.704816,0.327430,0.627875,0.420627,0.520320,0.479746,0.390866,0.500000,0.250000,0.500000,-0.250000,0.479746,-0.390866,0.420627,-0.520320,0.327430,-0.627875,0.207708,-0.704816,0.071157,-0.744911,0.000000,-0.744911,0.000000,-0.750000,-0.500000,-0.750000,-0.500000,0.750000,0.000000,0.750000,0.000000,0.744911,0.000000,0.744911,
$1*%
G04 Aperture macros list end*
%TA.AperFunction,ComponentPad*%
%ADD10R,1.600000X1.600000*%
%TD*%
%TA.AperFunction,ComponentPad*%
%ADD11C,1.600000*%
%TD*%
%TA.AperFunction,SMDPad,CuDef*%
%ADD12R,1.200000X1.400000*%
%TD*%
%TA.AperFunction,SMDPad,CuDef*%
%ADD13RoundRect,0.250000X-0.400000X-0.450000X0.400000X-0.450000X0.400000X0.450000X-0.400000X0.450000X0*%
%TD*%
%TA.AperFunction,SMDPad,CuDef*%
%ADD14RoundRect,0.250000X-0.625000X0.312500X-0.625000X-0.312500X0.625000X-0.312500X0.625000X0.312500X0*%
%TD*%
%TA.AperFunction,SMDPad,CuDef*%
%ADD15RoundRect,0.140000X-0.140000X-0.170000X0.140000X-0.170000X0.140000X0.170000X-0.140000X0.170000X0*%
%TD*%
%TA.AperFunction,SMDPad,CuDef*%
%ADD16FreePoly0,0.000000*%
%TD*%
%TA.AperFunction,SMDPad,CuDef*%
%ADD17FreePoly1,0.000000*%
%TD*%
%TA.AperFunction,ComponentPad*%
%ADD18C,3.000000*%
%TD*%
%TA.AperFunction,SMDPad,CuDef*%
%ADD19FreePoly0,270.000000*%
%TD*%
%TA.AperFunction,SMDPad,CuDef*%
%ADD20FreePoly1,270.000000*%
%TD*%
%TA.AperFunction,SMDPad,CuDef*%
%ADD21RoundRect,0.140000X-0.170000X0.140000X-0.170000X-0.140000X0.170000X-0.140000X0.170000X0.140000X0*%
%TD*%
%TA.AperFunction,SMDPad,CuDef*%
%ADD22RoundRect,0.135000X-0.185000X0.135000X-0.185000X-0.135000X0.185000X-0.135000X0.185000X0.135000X0*%
%TD*%
%TA.AperFunction,ComponentPad*%
%ADD23RoundRect,0.250000X0.750000X-0.600000X0.750000X0.600000X-0.750000X0.600000X-0.750000X-0.600000X0*%
%TD*%
%TA.AperFunction,ComponentPad*%
%ADD24O,2.000000X1.700000*%
%TD*%
%TA.AperFunction,SMDPad,CuDef*%
%ADD25RoundRect,0.218750X-0.256250X0.218750X-0.256250X-0.218750X0.256250X-0.218750X0.256250X0.218750X0*%
%TD*%
%TA.AperFunction,ComponentPad*%
%ADD26HorizOval,5.600000X-1.272792X1.272792X1.272792X-1.272792X0*%
%TD*%
%TA.AperFunction,SMDPad,CuDef*%
%ADD27RoundRect,0.150000X0.825000X0.150000X-0.825000X0.150000X-0.825000X-0.150000X0.825000X-0.150000X0*%
%TD*%
%TA.AperFunction,SMDPad,CuDef*%
%ADD28RoundRect,0.140000X0.170000X-0.140000X0.170000X0.140000X-0.170000X0.140000X-0.170000X-0.140000X0*%
%TD*%
%TA.AperFunction,SMDPad,CuDef*%
%ADD29RoundRect,0.250000X-0.475000X0.250000X-0.475000X-0.250000X0.475000X-0.250000X0.475000X0.250000X0*%
%TD*%
%TA.AperFunction,SMDPad,CuDef*%
%ADD30RoundRect,0.218750X-0.218750X-0.256250X0.218750X-0.256250X0.218750X0.256250X-0.218750X0.256250X0*%
%TD*%
%TA.AperFunction,SMDPad,CuDef*%
%ADD31RoundRect,0.140000X0.140000X0.170000X-0.140000X0.170000X-0.140000X-0.170000X0.140000X-0.170000X0*%
%TD*%
%TA.AperFunction,SMDPad,CuDef*%
%ADD32RoundRect,0.135000X-0.135000X-0.185000X0.135000X-0.185000X0.135000X0.185000X-0.135000X0.185000X0*%
%TD*%
%TA.AperFunction,SMDPad,CuDef*%
%ADD33RoundRect,0.225000X0.250000X-0.225000X0.250000X0.225000X-0.250000X0.225000X-0.250000X-0.225000X0*%
%TD*%
%TA.AperFunction,SMDPad,CuDef*%
%ADD34RoundRect,0.135000X0.185000X-0.135000X0.185000X0.135000X-0.185000X0.135000X-0.185000X-0.135000X0*%
%TD*%
%TA.AperFunction,ComponentPad*%
%ADD35R,2.250000X2.250000*%
%TD*%
%TA.AperFunction,ComponentPad*%
%ADD36C,2.250000*%
%TD*%
%TA.AperFunction,SMDPad,CuDef*%
%ADD37RoundRect,0.075000X-0.662500X-0.075000X0.662500X-0.075000X0.662500X0.075000X-0.662500X0.075000X0*%
%TD*%
%TA.AperFunction,SMDPad,CuDef*%
%ADD38RoundRect,0.075000X-0.075000X-0.662500X0.075000X-0.662500X0.075000X0.662500X-0.075000X0.662500X0*%
%TD*%
%TA.AperFunction,SMDPad,CuDef*%
%ADD39R,1.900000X2.500000*%
%TD*%
%TA.AperFunction,ComponentPad*%
%ADD40HorizOval,5.600000X-1.272792X-1.272792X1.272792X1.272792X0*%
%TD*%
%TA.AperFunction,ComponentPad*%
%ADD41RoundRect,0.250000X-0.750000X0.600000X-0.750000X-0.600000X0.750000X-0.600000X0.750000X0.600000X0*%
%TD*%
%TA.AperFunction,SMDPad,CuDef*%
%ADD42RoundRect,0.250000X0.625000X-0.312500X0.625000X0.312500X-0.625000X0.312500X-0.625000X-0.312500X0*%
%TD*%
%TA.AperFunction,SMDPad,CuDef*%
%ADD43RoundRect,0.150000X0.512500X0.150000X-0.512500X0.150000X-0.512500X-0.150000X0.512500X-0.150000X0*%
%TD*%
%TA.AperFunction,SMDPad,CuDef*%
%ADD44R,0.600000X1.160000*%
%TD*%
%TA.AperFunction,SMDPad,CuDef*%
%ADD45R,0.300000X1.160000*%
%TD*%
%TA.AperFunction,ComponentPad*%
%ADD46O,0.900000X2.000000*%
%TD*%
%TA.AperFunction,ComponentPad*%
%ADD47O,0.900000X1.700000*%
%TD*%
%TA.AperFunction,SMDPad,CuDef*%
%ADD48RoundRect,0.135000X0.135000X0.185000X-0.135000X0.185000X-0.135000X-0.185000X0.135000X-0.185000X0*%
%TD*%
%TA.AperFunction,ComponentPad*%
%ADD49HorizOval,5.600000X1.272792X1.272792X-1.272792X-1.272792X0*%
%TD*%
%TA.AperFunction,SMDPad,CuDef*%
%ADD50RoundRect,0.225000X-0.225000X-0.250000X0.225000X-0.250000X0.225000X0.250000X-0.225000X0.250000X0*%
%TD*%
%TA.AperFunction,ComponentPad*%
%ADD51RoundRect,0.250000X-0.600000X-0.725000X0.600000X-0.725000X0.600000X0.725000X-0.600000X0.725000X0*%
%TD*%
%TA.AperFunction,ComponentPad*%
%ADD52O,1.700000X1.950000*%
%TD*%
%TA.AperFunction,ComponentPad*%
%ADD53R,1.350000X1.350000*%
%TD*%
%TA.AperFunction,ComponentPad*%
%ADD54O,1.350000X1.350000*%
%TD*%
%TA.AperFunction,SMDPad,CuDef*%
%ADD55RoundRect,0.225000X0.225000X0.250000X-0.225000X0.250000X-0.225000X-0.250000X0.225000X-0.250000X0*%
%TD*%
%TA.AperFunction,SMDPad,CuDef*%
%ADD56RoundRect,0.225000X-0.250000X0.225000X-0.250000X-0.225000X0.250000X-0.225000X0.250000X0.225000X0*%
%TD*%
%TA.AperFunction,SMDPad,CuDef*%
%ADD57R,0.800000X0.300000*%
%TD*%
%TA.AperFunction,SMDPad,CuDef*%
%ADD58R,0.300000X0.800000*%
%TD*%
%TA.AperFunction,SMDPad,CuDef*%
%ADD59R,3.800000X3.800000*%
%TD*%
%TA.AperFunction,ViaPad*%
%ADD60C,0.700000*%
%TD*%
%TA.AperFunction,ViaPad*%
%ADD61C,0.600000*%
%TD*%
%TA.AperFunction,Conductor*%
%ADD62C,0.300000*%
%TD*%
%TA.AperFunction,Conductor*%
%ADD63C,0.500000*%
%TD*%
%TA.AperFunction,Conductor*%
%ADD64C,1.000000*%
%TD*%
%TA.AperFunction,Conductor*%
%ADD65C,0.200000*%
%TD*%
G04 APERTURE END LIST*
D10*
%TO.P,C8,1*%
%TO.N,VCC*%
X82250000Y-69544888D03*
D11*
%TO.P,C8,2*%
%TO.N,GND*%
X82250000Y-72044888D03*
%TD*%
D12*
%TO.P,Y2,1,1*%
%TO.N,Net-(U3-PF0)*%
X60650000Y-61400000D03*
%TO.P,Y2,2,2*%
%TO.N,GND*%
X60650000Y-63600000D03*
%TO.P,Y2,3,3*%
%TO.N,Net-(U3-PF1)*%
X62350000Y-63600000D03*
%TO.P,Y2,4,4*%
%TO.N,GND*%
X62350000Y-61400000D03*
%TD*%
D13*
%TO.P,D1,1,A1*%
%TO.N,+3V3*%
X71451105Y-52993477D03*
%TO.P,D1,2,A2*%
%TO.N,GND*%
X74351105Y-52993477D03*
%TD*%
D14*
%TO.P,R6,1*%
%TO.N,GND*%
X75750000Y-70037500D03*
%TO.P,R6,2*%
%TO.N,Net-(IC2-BRA)*%
X75750000Y-72962500D03*
%TD*%
D15*
%TO.P,C20,1*%
%TO.N,GND*%
X62770000Y-52500000D03*
%TO.P,C20,2*%
%TO.N,Net-(SW2-B)*%
X63730000Y-52500000D03*
%TD*%
D16*
%TO.P,JP1,1,A*%
%TO.N,/CANL*%
X87350000Y-68000000D03*
D17*
%TO.P,JP1,2,B*%
%TO.N,Net-(JP1-B)*%
X88650000Y-68000000D03*
%TD*%
D15*
%TO.P,C1,1*%
%TO.N,+3V3*%
X75737001Y-59750000D03*
%TO.P,C1,2*%
%TO.N,GND*%
X76697001Y-59750000D03*
%TD*%
D18*
%TO.P,J9,1,Pin_1*%
%TO.N,GND*%
X90500000Y-53000000D03*
%TD*%
D19*
%TO.P,JP2,1,A*%
%TO.N,+3V3*%
X64250000Y-55350000D03*
D20*
%TO.P,JP2,2,B*%
%TO.N,Net-(JP2-B)*%
X64250000Y-56650000D03*
%TD*%
D21*
%TO.P,C19,1*%
%TO.N,+3V3*%
X68250000Y-70230809D03*
%TO.P,C19,2*%
%TO.N,GND*%
X68250000Y-71190809D03*
%TD*%
D22*
%TO.P,R4,1*%
%TO.N,/MOT_UART_RX*%
X75154699Y-61118977D03*
%TO.P,R4,2*%
%TO.N,/MOT_UART_TX*%
X75154699Y-62138977D03*
%TD*%
D23*
%TO.P,J7,1,Pin_1*%
%TO.N,/CANH*%
X88700000Y-63750000D03*
D24*
%TO.P,J7,2,Pin_2*%
%TO.N,/CANL*%
X88700000Y-61250000D03*
%TD*%
D25*
%TO.P,D2,1,K*%
%TO.N,VCC*%
X77750000Y-68712500D03*
%TO.P,D2,2,A*%
%TO.N,GND*%
X77750000Y-70287500D03*
%TD*%
D26*
%TO.P,H3,1,1*%
%TO.N,GND*%
X58977207Y-48477207D03*
%TD*%
D27*
%TO.P,U2,1,D*%
%TO.N,/CAN_TX*%
X64904524Y-71322558D03*
%TO.P,U2,2,GND*%
%TO.N,GND*%
X64904524Y-70052558D03*
%TO.P,U2,3,VCC*%
%TO.N,+3V3*%
X64904524Y-68782558D03*
%TO.P,U2,4,R*%
%TO.N,/CAN_RX*%
X64904524Y-67512558D03*
%TO.P,U2,5,NC*%
%TO.N,unconnected-(U2-NC-Pad5)*%
X59954524Y-67512558D03*
%TO.P,U2,6,CANL*%
%TO.N,/CANL*%
X59954524Y-68782558D03*
%TO.P,U2,7,CANH*%
%TO.N,/CANH*%
X59954524Y-70052558D03*
%TO.P,U2,8,NC*%
%TO.N,unconnected-(U2-NC-Pad8)*%
X59954524Y-71322558D03*
%TD*%
D28*
%TO.P,C5,1*%
%TO.N,+3V3*%
X76122387Y-62369207D03*
%TO.P,C5,2*%
%TO.N,GND*%
X76122387Y-61409207D03*
%TD*%
D29*
%TO.P,C27,1*%
%TO.N,+3V3*%
X76247443Y-56255287D03*
%TO.P,C27,2*%
%TO.N,GND*%
X76247443Y-58155287D03*
%TD*%
D30*
%TO.P,D4,1,K*%
%TO.N,Net-(D4-K)*%
X64212500Y-78000000D03*
%TO.P,D4,2,A*%
%TO.N,Net-(D4-A)*%
X65787500Y-78000000D03*
%TD*%
D15*
%TO.P,C2,1*%
%TO.N,+3V3*%
X63520000Y-72750000D03*
%TO.P,C2,2*%
%TO.N,GND*%
X64480000Y-72750000D03*
%TD*%
D31*
%TO.P,C13,1*%
%TO.N,+3V3*%
X74084445Y-57788002D03*
%TO.P,C13,2*%
%TO.N,GND*%
X73124445Y-57788002D03*
%TD*%
D28*
%TO.P,C12,1*%
%TO.N,+3V3*%
X63750000Y-59230000D03*
%TO.P,C12,2*%
%TO.N,GND*%
X63750000Y-58270000D03*
%TD*%
D32*
%TO.P,R9,1*%
%TO.N,Net-(D3-K)*%
X64990000Y-75500000D03*
%TO.P,R9,2*%
%TO.N,GND*%
X66010000Y-75500000D03*
%TD*%
D33*
%TO.P,C10,1*%
%TO.N,VCC*%
X85000000Y-63525000D03*
%TO.P,C10,2*%
%TO.N,Net-(IC2-VCP)*%
X85000000Y-61975000D03*
%TD*%
D34*
%TO.P,R2,1*%
%TO.N,/ESCL*%
X73250000Y-56760000D03*
%TO.P,R2,2*%
%TO.N,+3V3*%
X73250000Y-55740000D03*
%TD*%
D25*
%TO.P,FB3,1*%
%TO.N,+3.3VA*%
X69474550Y-69494869D03*
%TO.P,FB3,2*%
%TO.N,+3V3*%
X69474550Y-71069869D03*
%TD*%
D35*
%TO.P,SW1,1,A*%
%TO.N,GND*%
X81000000Y-45000000D03*
D36*
%TO.P,SW1,2,B*%
%TO.N,Net-(SW1-B)*%
X81000000Y-51500000D03*
%TD*%
D15*
%TO.P,C7,2*%
%TO.N,GND*%
X84025873Y-67613273D03*
%TO.P,C7,1*%
%TO.N,VCC*%
X83065873Y-67613273D03*
%TD*%
D37*
%TO.P,U3,1,VBAT*%
%TO.N,+3V3*%
X65337500Y-59250000D03*
%TO.P,U3,2,PC13*%
%TO.N,Net-(SW1-B)*%
X65337500Y-59750000D03*
%TO.P,U3,3,PC14*%
%TO.N,unconnected-(U3-PC14-Pad3)*%
X65337500Y-60250000D03*
%TO.P,U3,4,PC15*%
%TO.N,unconnected-(U3-PC15-Pad4)*%
X65337500Y-60750000D03*
%TO.P,U3,5,PF0*%
%TO.N,Net-(U3-PF0)*%
X65337500Y-61250000D03*
%TO.P,U3,6,PF1*%
%TO.N,Net-(U3-PF1)*%
X65337500Y-61750000D03*
%TO.P,U3,7,PG10*%
%TO.N,Net-(SW2-B)*%
X65337500Y-62250000D03*
%TO.P,U3,8,PA0*%
%TO.N,unconnected-(U3-PA0-Pad8)*%
X65337500Y-62750000D03*
%TO.P,U3,9,PA1*%
%TO.N,unconnected-(U3-PA1-Pad9)*%
X65337500Y-63250000D03*
%TO.P,U3,10,PA2*%
%TO.N,unconnected-(U3-PA2-Pad10)*%
X65337500Y-63750000D03*
%TO.P,U3,11,PA3*%
%TO.N,unconnected-(U3-PA3-Pad11)*%
X65337500Y-64250000D03*
%TO.P,U3,12,PA4*%
%TO.N,unconnected-(U3-PA4-Pad12)*%
X65337500Y-64750000D03*
D38*
%TO.P,U3,13,PA5*%
%TO.N,unconnected-(U3-PA5-Pad13)*%
X66750000Y-66162500D03*
%TO.P,U3,14,PA6*%
%TO.N,Net-(D4-A)*%
X67250000Y-66162500D03*
%TO.P,U3,15,PA7*%
%TO.N,/MOT_SPREAD*%
X67750000Y-66162500D03*
%TO.P,U3,16,PB0*%
%TO.N,unconnected-(U3-PB0-Pad16)*%
X68250000Y-66162500D03*
%TO.P,U3,17,PB1*%
%TO.N,/MOT_ENABLE*%
X68750000Y-66162500D03*
%TO.P,U3,18,PB2*%
%TO.N,unconnected-(U3-PB2-Pad18)*%
X69250000Y-66162500D03*
%TO.P,U3,19,VSSA*%
%TO.N,GND*%
X69750000Y-66162500D03*
%TO.P,U3,20,VREF+*%
%TO.N,+3.3VA*%
X70250000Y-66162500D03*
%TO.P,U3,21,VDDA*%
X70750000Y-66162500D03*
%TO.P,U3,22,PB10*%
%TO.N,unconnected-(U3-PB10-Pad22)*%
X71250000Y-66162500D03*
%TO.P,U3,23,VSS*%
%TO.N,GND*%
X71750000Y-66162500D03*
%TO.P,U3,24,VDD*%
%TO.N,+3V3*%
X72250000Y-66162500D03*
D37*
%TO.P,U3,25,PB11*%
%TO.N,/MOT_STBY*%
X73662500Y-64750000D03*
%TO.P,U3,26,PB12*%
%TO.N,/MOT_DIR*%
X73662500Y-64250000D03*
%TO.P,U3,27,PB13*%
%TO.N,unconnected-(U3-PB13-Pad27)*%
X73662500Y-63750000D03*
%TO.P,U3,28,PB14*%
%TO.N,unconnected-(U3-PB14-Pad28)*%
X73662500Y-63250000D03*
%TO.P,U3,29,PB15*%
%TO.N,/MOT_STEP*%
X73662500Y-62750000D03*
%TO.P,U3,30,PA8*%
%TO.N,/CAN_RX*%
X73662500Y-62250000D03*
%TO.P,U3,31,PA9*%
%TO.N,/MOT_UART_TX*%
X73662500Y-61750000D03*
%TO.P,U3,32,PA10*%
%TO.N,/MOT_UART_RX*%
X73662500Y-61250000D03*
%TO.P,U3,33,PA11*%
%TO.N,/USB_D-*%
X73662500Y-60750000D03*
%TO.P,U3,34,PA12*%
%TO.N,/USB_D+*%
X73662500Y-60250000D03*
%TO.P,U3,35,VSS*%
%TO.N,GND*%
X73662500Y-59750000D03*
%TO.P,U3,36,VDD*%
%TO.N,+3V3*%
X73662500Y-59250000D03*
D38*
%TO.P,U3,37,PA13*%
%TO.N,/SWDIO*%
X72250000Y-57837500D03*
%TO.P,U3,38,PA14*%
%TO.N,/SWCLK*%
X71750000Y-57837500D03*
%TO.P,U3,39,PA15*%
%TO.N,/ESCL*%
X71250000Y-57837500D03*
%TO.P,U3,40,PB3*%
%TO.N,/MOT_INDEX*%
X70750000Y-57837500D03*
%TO.P,U3,41,PB4*%
%TO.N,/CAN_TX*%
X70250000Y-57837500D03*
%TO.P,U3,42,PB5*%
%TO.N,/MOT_DIAG*%
X69750000Y-57837500D03*
%TO.P,U3,43,PB6*%
%TO.N,/MOT_MS2*%
X69250000Y-57837500D03*
%TO.P,U3,44,PB7*%
%TO.N,/ESDA*%
X68750000Y-57837500D03*
%TO.P,U3,45,PB8*%
%TO.N,Net-(JP2-B)*%
X68250000Y-57837500D03*
%TO.P,U3,46,PB9*%
%TO.N,/MOT_MS1*%
X67750000Y-57837500D03*
%TO.P,U3,47,VSS*%
%TO.N,GND*%
X67250000Y-57837500D03*
%TO.P,U3,48,VDD*%
%TO.N,+3V3*%
X66750000Y-57837500D03*
%TD*%
D39*
%TO.P,L2,1,1*%
%TO.N,Net-(U5-SW)*%
X82550000Y-55843821D03*
%TO.P,L2,2,2*%
%TO.N,+3V3*%
X78450000Y-55843821D03*
%TD*%
D21*
%TO.P,C26,1*%
%TO.N,Net-(U5-SW)*%
X84300000Y-56613821D03*
%TO.P,C26,2*%
%TO.N,Net-(U5-BST)*%
X84300000Y-57573821D03*
%TD*%
D40*
%TO.P,H4,1,1*%
%TO.N,GND*%
X58977207Y-77022793D03*
%TD*%
D15*
%TO.P,C21,1*%
%TO.N,+3.3VA*%
X70770000Y-69323632D03*
%TO.P,C21,2*%
%TO.N,GND*%
X71730000Y-69323632D03*
%TD*%
D26*
%TO.P,H2,1,1*%
%TO.N,GND*%
X87522791Y-77022791D03*
%TD*%
D18*
%TO.P,J2,1,Pin_1*%
%TO.N,GND*%
X56000000Y-53000000D03*
%TD*%
%TO.P,J3,1,Pin_1*%
%TO.N,VCC*%
X90500000Y-72500000D03*
%TD*%
D41*
%TO.P,J1,1,Pin_1*%
%TO.N,/CANH*%
X57800000Y-61241432D03*
D24*
%TO.P,J1,2,Pin_2*%
%TO.N,/CANL*%
X57800000Y-63741432D03*
%TD*%
D28*
%TO.P,C6,1*%
%TO.N,Net-(IC2-CPO)*%
X83733518Y-64244807D03*
%TO.P,C6,2*%
%TO.N,Net-(IC2-CPI)*%
X83733518Y-63284807D03*
%TD*%
D32*
%TO.P,R7,1*%
%TO.N,Net-(J10-CC1)*%
X76740000Y-51250000D03*
%TO.P,R7,2*%
%TO.N,GND*%
X77760000Y-51250000D03*
%TD*%
D42*
%TO.P,R5,2*%
%TO.N,Net-(IC2-BRB)*%
X81096371Y-74369053D03*
%TO.P,R5,1*%
%TO.N,GND*%
X81096371Y-77294053D03*
%TD*%
D28*
%TO.P,C3,1*%
%TO.N,Net-(U3-PF0)*%
X63750000Y-61230000D03*
%TO.P,C3,2*%
%TO.N,GND*%
X63750000Y-60270000D03*
%TD*%
D18*
%TO.P,J8,1,Pin_1*%
%TO.N,VCC*%
X56000000Y-72500000D03*
%TD*%
D28*
%TO.P,C18,1*%
%TO.N,+3.3VA*%
X68250000Y-69276569D03*
%TO.P,C18,2*%
%TO.N,GND*%
X68250000Y-68316569D03*
%TD*%
D43*
%TO.P,U5,1,FB*%
%TO.N,+3V3*%
X88010002Y-57543821D03*
%TO.P,U5,2,EN*%
%TO.N,VCC*%
X88010002Y-56593821D03*
%TO.P,U5,3,IN*%
X88010002Y-55643821D03*
%TO.P,U5,4,GND*%
%TO.N,GND*%
X85735002Y-55643821D03*
%TO.P,U5,5,SW*%
%TO.N,Net-(U5-SW)*%
X85735002Y-56593821D03*
%TO.P,U5,6,BST*%
%TO.N,Net-(U5-BST)*%
X85735002Y-57543821D03*
%TD*%
D34*
%TO.P,R11,1*%
%TO.N,Net-(JP1-B)*%
X90250000Y-68260000D03*
%TO.P,R11,2*%
%TO.N,/CANH*%
X90250000Y-67240000D03*
%TD*%
D44*
%TO.P,J10,A1,GND*%
%TO.N,GND*%
X76450000Y-49391250D03*
%TO.P,J10,A4,VBUS*%
%TO.N,unconnected-(J10-VBUS-PadA4)_0*%
X75650000Y-49391250D03*
D45*
%TO.P,J10,A5,CC1*%
%TO.N,Net-(J10-CC1)*%
X74500000Y-49391250D03*
%TO.P,J10,A6,D+*%
%TO.N,/USB_D+*%
X73500000Y-49391250D03*
%TO.P,J10,A7,D-*%
%TO.N,/USB_D-*%
X73000000Y-49391250D03*
%TO.P,J10,A8,SBU1*%
%TO.N,unconnected-(J10-SBU1-PadA8)*%
X72000000Y-49391250D03*
D44*
%TO.P,J10,A9,VBUS*%
%TO.N,unconnected-(J10-VBUS-PadA4)*%
X70850000Y-49391250D03*
%TO.P,J10,A12,GND*%
%TO.N,GND*%
X70050000Y-49391250D03*
%TO.P,J10,B1,GND*%
X70050000Y-49391250D03*
%TO.P,J10,B4,VBUS*%
%TO.N,unconnected-(J10-VBUS-PadA4)_2*%
X70850000Y-49391250D03*
D45*
%TO.P,J10,B5,CC2*%
%TO.N,Net-(J10-CC2)*%
X71500000Y-49391250D03*
%TO.P,J10,B6,D+*%
%TO.N,/USB_D+*%
X72500000Y-49391250D03*
%TO.P,J10,B7,D-*%
%TO.N,/USB_D-*%
X74000000Y-49391250D03*
%TO.P,J10,B8,SBU2*%
%TO.N,unconnected-(J10-SBU2-PadB8)*%
X75000000Y-49391250D03*
D44*
%TO.P,J10,B9,VBUS*%
%TO.N,unconnected-(J10-VBUS-PadA4)_1*%
X75650000Y-49391250D03*
%TO.P,J10,B12,GND*%
%TO.N,GND*%
X76450000Y-49391250D03*
D46*
%TO.P,J10,S1,SHIELD*%
X77570000Y-48811250D03*
D47*
X77570000Y-44641250D03*
D46*
X68930000Y-48811250D03*
D47*
X68930000Y-44641250D03*
%TD*%
D48*
%TO.P,R8,1*%
%TO.N,Net-(J10-CC2)*%
X69510000Y-52000000D03*
%TO.P,R8,2*%
%TO.N,GND*%
X68490000Y-52000000D03*
%TD*%
D32*
%TO.P,R1,1*%
%TO.N,+3V3*%
X77990000Y-52250000D03*
%TO.P,R1,2*%
%TO.N,Net-(SW1-B)*%
X79010000Y-52250000D03*
%TD*%
D49*
%TO.P,H1,1,1*%
%TO.N,GND*%
X87522792Y-48477208D03*
%TD*%
D28*
%TO.P,C23,1*%
%TO.N,Net-(SW1-B)*%
X83750000Y-45250000D03*
%TO.P,C23,2*%
%TO.N,GND*%
X83750000Y-44290000D03*
%TD*%
D31*
%TO.P,C17,1*%
%TO.N,+3.3VA*%
X70488756Y-68296569D03*
%TO.P,C17,2*%
%TO.N,GND*%
X69528756Y-68296569D03*
%TD*%
D50*
%TO.P,C15,1*%
%TO.N,+3V3*%
X66225000Y-55042142D03*
%TO.P,C15,2*%
%TO.N,GND*%
X67775000Y-55042142D03*
%TD*%
D51*
%TO.P,J4,1,Pin_1*%
%TO.N,/OA2*%
X69500000Y-76750000D03*
D52*
%TO.P,J4,2,Pin_2*%
%TO.N,/OA1*%
X72000000Y-76750000D03*
%TO.P,J4,3,Pin_3*%
%TO.N,/OB1*%
X74500000Y-76750000D03*
%TO.P,J4,4,Pin_4*%
%TO.N,/OB2*%
X77000000Y-76750000D03*
%TD*%
D34*
%TO.P,R3,1*%
%TO.N,/ESDA*%
X69250000Y-55030562D03*
%TO.P,R3,2*%
%TO.N,+3V3*%
X69250000Y-54010562D03*
%TD*%
D53*
%TO.P,J5,1,Pin_1*%
%TO.N,/SWCLK*%
X73066028Y-73750000D03*
D54*
%TO.P,J5,2,Pin_2*%
%TO.N,/SWDIO*%
X71066028Y-73750000D03*
%TD*%
D31*
%TO.P,C9,1*%
%TO.N,VCC*%
X76480000Y-68750000D03*
%TO.P,C9,2*%
%TO.N,GND*%
X75520000Y-68750000D03*
%TD*%
%TO.P,C14,1*%
%TO.N,+3V3*%
X72738756Y-68296569D03*
%TO.P,C14,2*%
%TO.N,GND*%
X71778756Y-68296569D03*
%TD*%
D30*
%TO.P,D3,1,K*%
%TO.N,Net-(D3-K)*%
X64212500Y-74250000D03*
%TO.P,D3,2,A*%
%TO.N,+3V3*%
X65787500Y-74250000D03*
%TD*%
D21*
%TO.P,C4,1*%
%TO.N,Net-(U3-PF1)*%
X63750000Y-63040000D03*
%TO.P,C4,2*%
%TO.N,GND*%
X63750000Y-64000000D03*
%TD*%
D55*
%TO.P,C11,1*%
%TO.N,GND*%
X83489679Y-60068608D03*
%TO.P,C11,2*%
%TO.N,Net-(IC2-5VOUT)*%
X81939679Y-60068608D03*
%TD*%
D15*
%TO.P,C16,1*%
%TO.N,+3V3*%
X66258180Y-56252997D03*
%TO.P,C16,2*%
%TO.N,GND*%
X67218180Y-56252997D03*
%TD*%
D35*
%TO.P,SW2,1,A*%
%TO.N,GND*%
X65500000Y-45000000D03*
D36*
%TO.P,SW2,2,B*%
%TO.N,Net-(SW2-B)*%
X65500000Y-51500000D03*
%TD*%
D32*
%TO.P,R10,1*%
%TO.N,Net-(D4-K)*%
X65051852Y-79246079D03*
%TO.P,R10,2*%
%TO.N,GND*%
X66071852Y-79246079D03*
%TD*%
D15*
%TO.P,C22,1*%
%TO.N,+3.3VA*%
X70688973Y-70287561D03*
%TO.P,C22,2*%
%TO.N,GND*%
X71648973Y-70287561D03*
%TD*%
D56*
%TO.P,C25,1*%
%TO.N,GND*%
X89750000Y-55725000D03*
%TO.P,C25,2*%
%TO.N,VCC*%
X89750000Y-57275000D03*
%TD*%
D29*
%TO.P,C28,1*%
%TO.N,GND*%
X76250000Y-52800000D03*
%TO.P,C28,2*%
%TO.N,+3V3*%
X76250000Y-54700000D03*
%TD*%
D34*
%TO.P,R12,1*%
%TO.N,GND*%
X62500000Y-57260000D03*
%TO.P,R12,2*%
%TO.N,Net-(JP2-B)*%
X62500000Y-56240000D03*
%TD*%
D57*
%TO.P,IC2,1,OB2*%
%TO.N,/OB2*%
X82250000Y-65500000D03*
%TO.P,IC2,2,ENN*%
%TO.N,/MOT_ENABLE*%
X82250000Y-65000000D03*
%TO.P,IC2,3,GND_1*%
%TO.N,GND*%
X82250000Y-64500000D03*
%TO.P,IC2,4,CPO*%
%TO.N,Net-(IC2-CPO)*%
X82250000Y-64000000D03*
%TO.P,IC2,5,CPI*%
%TO.N,Net-(IC2-CPI)*%
X82250000Y-63500000D03*
%TO.P,IC2,6,VCP*%
%TO.N,Net-(IC2-VCP)*%
X82250000Y-63000000D03*
%TO.P,IC2,7,SPREAD*%
%TO.N,/MOT_SPREAD*%
X82250000Y-62500000D03*
D58*
%TO.P,IC2,8,5VOUT*%
%TO.N,Net-(IC2-5VOUT)*%
X81250000Y-61500000D03*
%TO.P,IC2,9,MS1_AD0*%
%TO.N,/MOT_MS1*%
X80750000Y-61500000D03*
%TO.P,IC2,10,MS2_AD1*%
%TO.N,/MOT_MS2*%
X80250000Y-61500000D03*
%TO.P,IC2,11,DIAG*%
%TO.N,/MOT_DIAG*%
X79750000Y-61500000D03*
%TO.P,IC2,12,INDEX*%
%TO.N,/MOT_INDEX*%
X79250000Y-61500000D03*
%TO.P,IC2,13,CLK*%
%TO.N,GND*%
X78750000Y-61500000D03*
%TO.P,IC2,14,PDN_UART*%
%TO.N,/MOT_UART_RX*%
X78250000Y-61500000D03*
D57*
%TO.P,IC2,15,VCC_IO*%
%TO.N,+3V3*%
X77250000Y-62500000D03*
%TO.P,IC2,16,STEP*%
%TO.N,/MOT_STEP*%
X77250000Y-63000000D03*
%TO.P,IC2,17,VREF*%
%TO.N,unconnected-(IC2-VREF-Pad17)*%
X77250000Y-63500000D03*
%TO.P,IC2,18,GND_2*%
%TO.N,GND*%
X77250000Y-64000000D03*
%TO.P,IC2,19,DIR*%
%TO.N,/MOT_DIR*%
X77250000Y-64500000D03*
%TO.P,IC2,20,STDBY*%
%TO.N,/MOT_STBY*%
X77250000Y-65000000D03*
%TO.P,IC2,21,OA2*%
%TO.N,/OA2*%
X77250000Y-65500000D03*
D58*
%TO.P,IC2,22,VS_1*%
%TO.N,VCC*%
X78250000Y-66500000D03*
%TO.P,IC2,23,BRA*%
%TO.N,Net-(IC2-BRA)*%
X78750000Y-66500000D03*
%TO.P,IC2,24,OA1*%
%TO.N,/OA1*%
X79250000Y-66500000D03*
%TO.P,IC2,25,-*%
%TO.N,unconnected-(IC2---Pad25)*%
X79750000Y-66500000D03*
%TO.P,IC2,26,OB1*%
%TO.N,/OB1*%
X80250000Y-66500000D03*
%TO.P,IC2,27,BRB*%
%TO.N,Net-(IC2-BRB)*%
X80750000Y-66500000D03*
%TO.P,IC2,28,VS_2*%
%TO.N,VCC*%
X81250000Y-66500000D03*
D59*
%TO.P,IC2,29,EP*%
%TO.N,GND*%
X79750000Y-64000000D03*
%TD*%
D60*
%TO.N,GND*%
X62520258Y-57990546D03*
D61*
X83165380Y-61165380D03*
X77468664Y-59760000D03*
X81250000Y-63500000D03*
X72103667Y-64320414D03*
X76846023Y-59096023D03*
X80250000Y-62500000D03*
X84000000Y-68500000D03*
X84500000Y-55750000D03*
X81250000Y-62500000D03*
D60*
X69250000Y-51000000D03*
D61*
X76000000Y-71500000D03*
X67547536Y-54047537D03*
D60*
X67450000Y-69750000D03*
D61*
X63500000Y-51500000D03*
X75254139Y-52001493D03*
X67250000Y-79250000D03*
X80250000Y-63500000D03*
X81250000Y-64500000D03*
X79250000Y-63500000D03*
X84000000Y-72000000D03*
X67450000Y-70609637D03*
X72500000Y-69106568D03*
X67750000Y-52000000D03*
X61926505Y-60250000D03*
X62750000Y-60250000D03*
X66750000Y-75500000D03*
X72889230Y-58610770D03*
X82608880Y-77108880D03*
X80250000Y-64500000D03*
X74219970Y-70046722D03*
X60000000Y-65000000D03*
D60*
X77125000Y-50125000D03*
D61*
X79250000Y-62500000D03*
X84500000Y-54750000D03*
X63650000Y-70669240D03*
X77499817Y-61060742D03*
X78250000Y-62500000D03*
X77222998Y-51997030D03*
X77750000Y-71250000D03*
X84500000Y-53750000D03*
X78250000Y-64500000D03*
X78000000Y-50500000D03*
X78250000Y-63500000D03*
X79250000Y-64500000D03*
X61000000Y-64973507D03*
%TO.N,+3V3*%
X78530000Y-51250000D03*
X77212816Y-61807491D03*
X69600000Y-60075000D03*
D60*
X69250000Y-53250000D03*
X68875000Y-72125000D03*
D61*
X74097298Y-58595668D03*
X65311747Y-54558347D03*
X80750000Y-56750000D03*
X80000000Y-54250000D03*
D60*
X66250000Y-54000000D03*
D61*
X61500000Y-58000000D03*
X74150000Y-56900000D03*
X73871873Y-67784373D03*
X62850000Y-71000000D03*
X75750000Y-59155287D03*
X65787500Y-73000000D03*
X55250000Y-62500000D03*
X70250000Y-52750000D03*
X80750000Y-55750000D03*
X80750000Y-54750000D03*
D60*
X69750000Y-72000000D03*
D61*
X80000000Y-56250000D03*
X80000000Y-55250000D03*
%TO.N,VCC*%
X83500000Y-70250000D03*
X78100000Y-67650000D03*
X83500000Y-69250000D03*
X84559998Y-64385354D03*
X77250000Y-67650000D03*
X76500000Y-68000000D03*
X82250000Y-67650000D03*
%TO.N,/MOT_ENABLE*%
X68915708Y-67339593D03*
X85152446Y-66347554D03*
%TO.N,/MOT_DIAG*%
X70107698Y-56477902D03*
X79260869Y-59989131D03*
%TO.N,/MOT_SPREAD*%
X67466398Y-67987997D03*
X86000000Y-66250000D03*
%TO.N,/MOT_MS1*%
X68000000Y-56500000D03*
X80989679Y-60000000D03*
%TO.N,/MOT_MS2*%
X69420380Y-55920380D03*
X80155269Y-60151600D03*
%TO.N,/MOT_INDEX*%
X78353553Y-59896448D03*
X71038878Y-56288768D03*
%TO.N,/ESCL*%
X70900000Y-59250000D03*
%TO.N,/ESDA*%
X68625437Y-55830557D03*
%TO.N,/CAN_RX*%
X65588118Y-65500000D03*
X67470056Y-64942944D03*
%TO.N,Net-(SW2-B)*%
X65250000Y-53250000D03*
X66711765Y-60613235D03*
%TO.N,Net-(SW1-B)*%
X77500000Y-53000000D03*
X66758885Y-59741115D03*
%TO.N,/SWDIO*%
X72450000Y-60500000D03*
%TO.N,/SWCLK*%
X71525000Y-59750735D03*
%TD*%
D62*
%TO.N,GND*%
X62770000Y-52230000D02*
X62770000Y-52500000D01*
X63500000Y-51500000D02*
X62770000Y-52230000D01*
D63*
%TO.N,VCC*%
X84559998Y-64385354D02*
X85000000Y-63945352D01*
X85000000Y-63945352D02*
X85000000Y-63525000D01*
%TO.N,/OB2*%
X84755873Y-67136203D02*
X83219670Y-65600000D01*
X83219670Y-65600000D02*
X82250000Y-65600000D01*
X84755873Y-68031539D02*
X84755873Y-67136203D01*
X84750000Y-72653804D02*
X84750000Y-68037412D01*
X81653804Y-75750000D02*
X84750000Y-72653804D01*
X84750000Y-68037412D02*
X84755873Y-68031539D01*
X78000000Y-75750000D02*
X81653804Y-75750000D01*
X77000000Y-76750000D02*
X78000000Y-75750000D01*
%TO.N,GND*%
X84025873Y-68474127D02*
X84025873Y-67613273D01*
X84000000Y-68500000D02*
X84025873Y-68474127D01*
X82294888Y-72000000D02*
X82250000Y-72044888D01*
X84000000Y-72000000D02*
X82294888Y-72000000D01*
%TO.N,VCC*%
X81350000Y-68644888D02*
X81350000Y-66500000D01*
X82250000Y-69544888D02*
X81350000Y-68644888D01*
D62*
%TO.N,GND*%
X71648973Y-69404659D02*
X71648973Y-70287561D01*
X71947064Y-69106568D02*
X71648973Y-69404659D01*
X72500000Y-69106568D02*
X71947064Y-69106568D01*
X66075773Y-79250000D02*
X66071852Y-79246079D01*
X67250000Y-79250000D02*
X66075773Y-79250000D01*
%TO.N,Net-(D4-K)*%
X65051852Y-79246079D02*
X64202500Y-78396727D01*
X64202500Y-78396727D02*
X64202500Y-78027500D01*
%TO.N,Net-(D4-A)*%
X67400000Y-75230761D02*
X67400000Y-76387500D01*
X66750000Y-74580761D02*
X67400000Y-75230761D01*
X66750000Y-67500000D02*
X66750000Y-74580761D01*
X67400000Y-76387500D02*
X65787500Y-78000000D01*
X67003120Y-67250000D02*
X67000000Y-67250000D01*
X67000000Y-67250000D02*
X66750000Y-67500000D01*
X67250000Y-67003120D02*
X67003120Y-67250000D01*
X67250000Y-66162500D02*
X67250000Y-67003120D01*
D63*
%TO.N,GND*%
X66750000Y-75500000D02*
X66010000Y-75500000D01*
D62*
%TO.N,Net-(IC2-BRB)*%
X80750000Y-74022682D02*
X81096371Y-74369053D01*
X80750000Y-66500000D02*
X80750000Y-74022682D01*
%TO.N,/OA1*%
X79250000Y-67400000D02*
X79250000Y-66500000D01*
D63*
X74750000Y-74250000D02*
X72250000Y-76750000D01*
X79350000Y-71498528D02*
X76598528Y-74250000D01*
X72250000Y-76750000D02*
X72000000Y-76750000D01*
X79350000Y-67500000D02*
X79350000Y-71498528D01*
X76598528Y-74250000D02*
X74750000Y-74250000D01*
D62*
X79350000Y-67500000D02*
X79250000Y-67400000D01*
D63*
%TO.N,/OB1*%
X76888478Y-74950000D02*
X76300000Y-74950000D01*
X76300000Y-74950000D02*
X74500000Y-76750000D01*
X80150000Y-71688478D02*
X76888478Y-74950000D01*
X80150000Y-67500000D02*
X80150000Y-71688478D01*
D62*
X80150000Y-67500000D02*
X80250000Y-67400000D01*
X80250000Y-67400000D02*
X80250000Y-66500000D01*
%TO.N,Net-(IC2-BRA)*%
X77037500Y-72962500D02*
X78750000Y-71250000D01*
X75750000Y-72962500D02*
X77037500Y-72962500D01*
X78750000Y-71250000D02*
X78750000Y-66500000D01*
D63*
%TO.N,GND*%
X82608880Y-77108880D02*
X82423707Y-77294053D01*
X82423707Y-77294053D02*
X81096371Y-77294053D01*
D62*
X74219970Y-70046722D02*
X74219970Y-69736258D01*
X76846023Y-59600978D02*
X76697001Y-59750000D01*
D63*
X77222998Y-51997030D02*
X76420028Y-52800000D01*
D62*
X74219970Y-69736258D02*
X75206228Y-68750000D01*
X73124445Y-58375555D02*
X73124445Y-57788002D01*
D63*
X63026493Y-64973507D02*
X63750000Y-64250000D01*
D62*
X77760000Y-50740000D02*
X77760000Y-51250000D01*
D63*
X63750000Y-64250000D02*
X63750000Y-64000000D01*
D62*
X72103667Y-64867958D02*
X71750000Y-65221625D01*
D63*
X75254139Y-52090443D02*
X74351105Y-52993477D01*
D62*
X72889230Y-58610770D02*
X73124445Y-58375555D01*
X69528756Y-67856878D02*
X69528756Y-68296569D01*
X69250000Y-51000000D02*
X70000000Y-50250000D01*
X83750000Y-44290000D02*
X81710000Y-44290000D01*
X78000000Y-50500000D02*
X77760000Y-50740000D01*
X63500000Y-71742314D02*
X63519160Y-71742314D01*
X69750000Y-66162500D02*
X69750000Y-67635634D01*
X78750000Y-61500000D02*
X78750000Y-63000000D01*
D63*
X76420028Y-52800000D02*
X76250000Y-52800000D01*
D62*
X82250000Y-64500000D02*
X80250000Y-64500000D01*
X64480000Y-72703154D02*
X64480000Y-72750000D01*
X68031172Y-71190809D02*
X67450000Y-70609637D01*
X63519160Y-71742314D02*
X64480000Y-72703154D01*
X68198757Y-68316569D02*
X68250000Y-68316569D01*
X80250000Y-64500000D02*
X79750000Y-64000000D01*
X70000000Y-49441250D02*
X70050000Y-49391250D01*
X71778756Y-67129481D02*
X71778756Y-68296569D01*
X67450000Y-69750000D02*
X67450000Y-70609637D01*
D63*
X62520258Y-57990546D02*
X62799712Y-58270000D01*
X67218180Y-55598962D02*
X67775000Y-55042142D01*
D62*
X62500000Y-57970288D02*
X62500000Y-57260000D01*
X81710000Y-44290000D02*
X81000000Y-45000000D01*
X69508756Y-68316569D02*
X68250000Y-68316569D01*
X70000000Y-50250000D02*
X70000000Y-49441250D01*
D63*
X89750000Y-55725000D02*
X88275000Y-54250000D01*
X77468664Y-59760000D02*
X77468664Y-58764946D01*
X61000000Y-64973507D02*
X63026493Y-64973507D01*
D62*
X67450000Y-69065326D02*
X68198757Y-68316569D01*
X71750000Y-65221625D02*
X71750000Y-66162500D01*
X69528756Y-68296569D02*
X69508756Y-68316569D01*
X83165380Y-61165380D02*
X83489679Y-60841081D01*
D63*
X83646803Y-60103197D02*
X83524268Y-60103197D01*
D62*
X72821880Y-59750000D02*
X73662500Y-59750000D01*
X76000000Y-71500000D02*
X76000000Y-70287500D01*
X75206228Y-68750000D02*
X75520000Y-68750000D01*
X77499817Y-61060742D02*
X76470852Y-61060742D01*
X78750000Y-63000000D02*
X79750000Y-64000000D01*
D63*
X67750000Y-52000000D02*
X68490000Y-52000000D01*
D62*
X68328938Y-71190809D02*
X68031172Y-71190809D01*
D63*
X67218180Y-56252997D02*
X67218180Y-55598962D01*
D62*
X67250000Y-56284817D02*
X67218180Y-56252997D01*
X64979348Y-70042627D02*
X64126613Y-70042627D01*
X76470852Y-61060742D02*
X76122387Y-61409207D01*
X64126613Y-70042627D02*
X63500000Y-70669240D01*
D63*
X77468664Y-58764946D02*
X76997539Y-58293821D01*
X83524268Y-60103197D02*
X83489679Y-60068608D01*
D62*
X62520258Y-57990546D02*
X62500000Y-57970288D01*
D63*
X67775000Y-55042142D02*
X67775000Y-54275001D01*
D62*
X83489679Y-60841081D02*
X83489679Y-60068608D01*
X76000000Y-70287500D02*
X75750000Y-70037500D01*
X71750000Y-67100725D02*
X71778756Y-67129481D01*
X76450000Y-49450000D02*
X76450000Y-49391250D01*
X69750000Y-67635634D02*
X69528756Y-67856878D01*
X72575000Y-59503120D02*
X72821880Y-59750000D01*
D63*
X76997539Y-58293821D02*
X76250000Y-58293821D01*
D62*
X72575000Y-58925000D02*
X72575000Y-59503120D01*
X72103667Y-64320414D02*
X72103667Y-64867958D01*
X77250000Y-64000000D02*
X79750000Y-64000000D01*
D63*
X88275000Y-54250000D02*
X86000000Y-54250000D01*
D62*
X77125000Y-50125000D02*
X76450000Y-49450000D01*
D63*
X75254139Y-52001493D02*
X75254139Y-52090443D01*
D62*
X67450000Y-69750000D02*
X67450000Y-69065326D01*
X67250000Y-57837500D02*
X67250000Y-56284817D01*
X63500000Y-70669240D02*
X63500000Y-71742314D01*
D63*
X77750000Y-71250000D02*
X77750000Y-70287500D01*
X67547536Y-54047537D02*
X67775000Y-54275001D01*
D62*
X76846023Y-59096023D02*
X76846023Y-59600978D01*
X71750000Y-66162500D02*
X71750000Y-67100725D01*
D63*
X62799712Y-58270000D02*
X63750000Y-58270000D01*
D62*
X72889230Y-58610770D02*
X72575000Y-58925000D01*
D63*
%TO.N,+3V3*%
X62850000Y-71000000D02*
X62850000Y-70279398D01*
X68875000Y-72125000D02*
X69474550Y-71525450D01*
X72516384Y-67000000D02*
X72500000Y-67000000D01*
D62*
X75750000Y-59155287D02*
X75750000Y-59737001D01*
D63*
X69474550Y-71525450D02*
X69474550Y-71069869D01*
D62*
X74097298Y-57800855D02*
X74084445Y-57788002D01*
X66750000Y-57250000D02*
X66750000Y-57837500D01*
D63*
X69625000Y-72125000D02*
X69750000Y-72000000D01*
D62*
X76253180Y-62500000D02*
X76122387Y-62369207D01*
D63*
X72738756Y-67222372D02*
X72516384Y-67000000D01*
D62*
X64979348Y-68772627D02*
X64477373Y-68772627D01*
X77500000Y-62094675D02*
X77500000Y-62500000D01*
X66258180Y-56758180D02*
X66750000Y-57250000D01*
D63*
X72500000Y-67000000D02*
X72350000Y-66850000D01*
D62*
X62850000Y-72080000D02*
X63520000Y-72750000D01*
D63*
X66225000Y-54025000D02*
X66225000Y-55042142D01*
D62*
X77990000Y-52250000D02*
X78530000Y-51710000D01*
X77212816Y-61807491D02*
X77500000Y-62094675D01*
D63*
X70250000Y-52750000D02*
X71207628Y-52750000D01*
X62370146Y-59230000D02*
X63750000Y-59230000D01*
D62*
X74150000Y-56900000D02*
X74150000Y-56640000D01*
X66258180Y-56252997D02*
X66258180Y-56758180D01*
X74097298Y-58595668D02*
X74097298Y-57800855D01*
X78450000Y-58450000D02*
X78450000Y-55843821D01*
X62850000Y-71000000D02*
X62850000Y-72080000D01*
D63*
X66250000Y-54000000D02*
X66225000Y-54025000D01*
X72350000Y-66850000D02*
X72350000Y-66162500D01*
X66225000Y-55042142D02*
X66225000Y-56219817D01*
D62*
X65311747Y-54558347D02*
X64520094Y-55350000D01*
X64520094Y-55350000D02*
X64250000Y-55350000D01*
D63*
X61500000Y-58359854D02*
X62370146Y-59230000D01*
D62*
X74097298Y-58815202D02*
X73662500Y-59250000D01*
D63*
X66225000Y-56219817D02*
X66258180Y-56252997D01*
X68875000Y-72125000D02*
X69625000Y-72125000D01*
D62*
X77250000Y-62500000D02*
X76253180Y-62500000D01*
D63*
X69750000Y-71345319D02*
X69474550Y-71069869D01*
X72738756Y-68296569D02*
X72738756Y-67222372D01*
D62*
X75750000Y-59737001D02*
X75737001Y-59750000D01*
D63*
X69250000Y-53250000D02*
X69250000Y-54010562D01*
X71207628Y-52750000D02*
X71451105Y-52993477D01*
X62850000Y-70279398D02*
X64346840Y-68782558D01*
D62*
X74150000Y-56640000D02*
X73250000Y-55740000D01*
X77500000Y-62500000D02*
X76253180Y-62500000D01*
D63*
X61500000Y-58000000D02*
X61500000Y-58359854D01*
D62*
X86803823Y-58750000D02*
X78750000Y-58750000D01*
X65317500Y-59230000D02*
X65337500Y-59250000D01*
X74097298Y-58595668D02*
X74097298Y-58815202D01*
X78530000Y-51710000D02*
X78530000Y-51250000D01*
D63*
X68635490Y-70230809D02*
X68328938Y-70230809D01*
D62*
X78750000Y-58750000D02*
X78450000Y-58450000D01*
D63*
X69474550Y-71069869D02*
X68635490Y-70230809D01*
X64346840Y-68782558D02*
X64904524Y-68782558D01*
X65787500Y-73000000D02*
X65787500Y-74000000D01*
D62*
X63750000Y-59230000D02*
X65317500Y-59230000D01*
X88010002Y-57543821D02*
X86803823Y-58750000D01*
D63*
X69750000Y-72000000D02*
X69750000Y-71345319D01*
D62*
%TO.N,Net-(IC2-CPO)*%
X82250000Y-64000000D02*
X83488711Y-64000000D01*
X83488711Y-64000000D02*
X83733518Y-64244807D01*
%TO.N,Net-(IC2-CPI)*%
X82250000Y-63500000D02*
X83213083Y-63500000D01*
X83428276Y-63284807D02*
X83733518Y-63284807D01*
X83213083Y-63500000D02*
X83428276Y-63284807D01*
D64*
%TO.N,VCC*%
X91250000Y-66735390D02*
X91250000Y-58775000D01*
D63*
X78150000Y-67600000D02*
X78150000Y-66500000D01*
D64*
X90500000Y-72500000D02*
X91270000Y-71730000D01*
X91270000Y-66755390D02*
X91250000Y-66735390D01*
X91250000Y-58775000D02*
X89750000Y-57275000D01*
X91270000Y-71730000D02*
X91270000Y-66755390D01*
D63*
X78100000Y-67650000D02*
X78150000Y-67600000D01*
D62*
%TO.N,Net-(IC2-VCP)*%
X84335000Y-62640000D02*
X85000000Y-61975000D01*
X83317106Y-62640000D02*
X84335000Y-62640000D01*
X82957106Y-63000000D02*
X83317106Y-62640000D01*
X82250000Y-63000000D02*
X82957106Y-63000000D01*
%TO.N,Net-(IC2-5VOUT)*%
X81250000Y-60758287D02*
X81939679Y-60068608D01*
X81250000Y-61500000D02*
X81250000Y-60758287D01*
%TO.N,+3.3VA*%
X70750000Y-66162500D02*
X70750000Y-67003120D01*
D63*
X70488756Y-68296569D02*
X70488756Y-68566569D01*
D62*
X70488756Y-68296569D02*
X70488756Y-67363792D01*
D63*
X70267242Y-70287561D02*
X69474550Y-69494869D01*
X70864718Y-69759773D02*
X70770000Y-69665055D01*
X69474550Y-69494869D02*
X69108938Y-69494869D01*
X69108938Y-69494869D02*
X68910638Y-69296569D01*
X70488756Y-68566569D02*
X69560456Y-69494869D01*
D62*
X70250000Y-67125036D02*
X70250000Y-66162500D01*
D63*
X70864718Y-70111816D02*
X70864718Y-69759773D01*
D62*
X70488756Y-67363792D02*
X70250000Y-67125036D01*
X70750000Y-67003120D02*
X71137926Y-67391046D01*
D63*
X70688973Y-70287561D02*
X70267242Y-70287561D01*
X68910638Y-69296569D02*
X68270000Y-69296569D01*
X68270000Y-69296569D02*
X68250000Y-69276569D01*
X70688973Y-70287561D02*
X70864718Y-70111816D01*
X69560456Y-69494869D02*
X69474550Y-69494869D01*
D62*
X71137926Y-67391046D02*
X71137926Y-68955706D01*
D63*
X70770000Y-69665055D02*
X70770000Y-69323632D01*
D62*
X71137926Y-68955706D02*
X70770000Y-69323632D01*
%TO.N,Net-(D3-K)*%
X64212500Y-74000000D02*
X64212500Y-74722500D01*
X64212500Y-74722500D02*
X64990000Y-75500000D01*
D63*
%TO.N,/OA2*%
X69500000Y-76750000D02*
X69500000Y-73584800D01*
X77250000Y-65804407D02*
X77250000Y-65600000D01*
X72378973Y-70705827D02*
X72378973Y-70675434D01*
X72378973Y-70675434D02*
X77250000Y-65804407D01*
X69500000Y-73584800D02*
X72378973Y-70705827D01*
D62*
%TO.N,/MOT_STBY*%
X77250000Y-65000000D02*
X76292894Y-65000000D01*
X76292894Y-65000000D02*
X76042894Y-64750000D01*
X76042894Y-64750000D02*
X73662500Y-64750000D01*
%TO.N,/MOT_DIR*%
X76500000Y-64500000D02*
X77250000Y-64500000D01*
X76250000Y-64250000D02*
X76500000Y-64500000D01*
X73662500Y-64250000D02*
X76250000Y-64250000D01*
%TO.N,/MOT_ENABLE*%
X85097554Y-66347554D02*
X83750000Y-65000000D01*
X68915708Y-67339593D02*
X68750000Y-67173885D01*
X83750000Y-65000000D02*
X82250000Y-65000000D01*
X85152446Y-66347554D02*
X85097554Y-66347554D01*
X68750000Y-67173885D02*
X68750000Y-66162500D01*
X68750000Y-66162500D02*
X68750000Y-67003120D01*
%TO.N,/MOT_DIAG*%
X79750000Y-60690394D02*
X79750000Y-61500000D01*
X79260869Y-59989131D02*
X79260869Y-60201263D01*
X70107698Y-56477902D02*
X69750000Y-56835600D01*
X69750000Y-56835600D02*
X69750000Y-57837500D01*
X79260869Y-60201263D02*
X79750000Y-60690394D01*
%TO.N,/MOT_SPREAD*%
X67750000Y-67704395D02*
X67750000Y-66162500D01*
X84075000Y-61175000D02*
X82750000Y-62500000D01*
X85494408Y-61175000D02*
X84075000Y-61175000D01*
X86000000Y-61680592D02*
X85494408Y-61175000D01*
X82750000Y-62500000D02*
X82250000Y-62500000D01*
X67466398Y-67987997D02*
X67750000Y-67704395D01*
X86000000Y-66250000D02*
X86000000Y-61680592D01*
%TO.N,/MOT_MS1*%
X80989679Y-60000000D02*
X80989679Y-60311501D01*
X67750000Y-56750000D02*
X68000000Y-56500000D01*
X80750000Y-60551180D02*
X80750000Y-61500000D01*
X80989679Y-60311501D02*
X80750000Y-60551180D01*
X67750000Y-57837500D02*
X67750000Y-56750000D01*
%TO.N,/MOT_MS2*%
X80250000Y-60246331D02*
X80250000Y-61500000D01*
X80155269Y-60151600D02*
X80250000Y-60246331D01*
X69420380Y-55920380D02*
X69250000Y-56090760D01*
X69250000Y-56090760D02*
X69250000Y-57837500D01*
%TO.N,/MOT_UART_RX*%
X75154699Y-61118977D02*
X75023676Y-61250000D01*
X75023676Y-61250000D02*
X73662500Y-61250000D01*
X77768873Y-60410559D02*
X75863117Y-60410559D01*
X78250000Y-60891686D02*
X77768873Y-60410559D01*
X75863117Y-60410559D02*
X75154699Y-61118977D01*
X78250000Y-61500000D02*
X78250000Y-60891686D01*
%TO.N,/MOT_INDEX*%
X78353553Y-60028123D02*
X79250000Y-60924570D01*
X78353553Y-59896448D02*
X78353553Y-60028123D01*
X70750000Y-56577646D02*
X70750000Y-57837500D01*
X71038878Y-56288768D02*
X70750000Y-56577646D01*
X79250000Y-60924570D02*
X79250000Y-61500000D01*
%TO.N,/MOT_STEP*%
X73662754Y-62750254D02*
X73662500Y-62750000D01*
X75006088Y-63000000D02*
X74756088Y-62750000D01*
X74756088Y-62750000D02*
X73662500Y-62750000D01*
X77250000Y-63000000D02*
X75006088Y-63000000D01*
%TO.N,/CANH*%
X56250000Y-62791432D02*
X57791432Y-61250000D01*
X90250000Y-65300000D02*
X88700000Y-63750000D01*
X57791432Y-61250000D02*
X58541432Y-61250000D01*
X56250000Y-67750000D02*
X56250000Y-62791432D01*
X87950000Y-63750000D02*
X88750000Y-63750000D01*
X60029348Y-70042627D02*
X58542627Y-70042627D01*
X90250000Y-67240000D02*
X90250000Y-65300000D01*
X58542627Y-70042627D02*
X56250000Y-67750000D01*
%TO.N,/CANL*%
X57800000Y-67951516D02*
X57800000Y-63741432D01*
X59954524Y-68782558D02*
X58631042Y-68782558D01*
X87350000Y-68000000D02*
X87350000Y-62600000D01*
X87350000Y-62600000D02*
X88700000Y-61250000D01*
X57750000Y-63791432D02*
X57800000Y-63741432D01*
X58631042Y-68782558D02*
X57800000Y-67951516D01*
D63*
X87350000Y-68000000D02*
X87250000Y-67900000D01*
D62*
%TO.N,/ESCL*%
X71496880Y-56750000D02*
X73240000Y-56750000D01*
X71250000Y-58900000D02*
X71250000Y-57837500D01*
X73240000Y-56750000D02*
X73250000Y-56760000D01*
X72802133Y-56760000D02*
X73250000Y-56760000D01*
X70900000Y-59250000D02*
X71250000Y-58900000D01*
X71250000Y-57837500D02*
X71250000Y-56996880D01*
X71250000Y-56996880D02*
X71496880Y-56750000D01*
%TO.N,/ESDA*%
X68750000Y-55955120D02*
X68750000Y-57837500D01*
X68770380Y-55685614D02*
X68770380Y-55510182D01*
X68770380Y-55510182D02*
X69250000Y-55030562D01*
X68625437Y-55830557D02*
X68770380Y-55685614D01*
X68625437Y-55830557D02*
X68750000Y-55955120D01*
%TO.N,/MOT_UART_TX*%
X74765722Y-61750000D02*
X75154699Y-62138977D01*
X73662500Y-61750000D02*
X74765722Y-61750000D01*
%TO.N,/CAN_TX*%
X66238118Y-65243912D02*
X66238118Y-70988118D01*
X66238118Y-70988118D02*
X65903678Y-71322558D01*
X70250000Y-61232030D02*
X66238118Y-65243912D01*
X65903678Y-71322558D02*
X64904524Y-71322558D01*
X70250000Y-57837500D02*
X70250000Y-61232030D01*
%TO.N,/CAN_RX*%
X65588118Y-65500000D02*
X65588118Y-66828964D01*
X65588118Y-66828964D02*
X64904524Y-67512558D01*
X67557056Y-64942944D02*
X70250000Y-62250000D01*
X67470056Y-64942944D02*
X67557056Y-64942944D01*
X70250000Y-62250000D02*
X73662500Y-62250000D01*
D65*
%TO.N,/USB_D-*%
X75150000Y-55446624D02*
X75150000Y-60168512D01*
X74568512Y-60750000D02*
X73662500Y-60750000D01*
X73938750Y-48500000D02*
X73061250Y-48500000D01*
X74000000Y-49391250D02*
X74000000Y-48561250D01*
X75150000Y-60168512D02*
X74568512Y-60750000D01*
X73061250Y-48500000D02*
X73000000Y-48561250D01*
X74000000Y-50750000D02*
X73400000Y-51350000D01*
X73000000Y-48561250D02*
X73000000Y-49391250D01*
X74000000Y-48561250D02*
X73938750Y-48500000D01*
X73400000Y-53696624D02*
X75150000Y-55446624D01*
X73400000Y-51350000D02*
X73400000Y-53696624D01*
X74000000Y-49391250D02*
X74000000Y-50750000D01*
%TO.N,/USB_D+*%
X72550000Y-50271250D02*
X72500000Y-50221250D01*
X74500000Y-60250000D02*
X74750000Y-60000000D01*
X73000000Y-53862310D02*
X73000000Y-51184314D01*
X74750000Y-55612310D02*
X73000000Y-53862310D01*
X73500000Y-50221250D02*
X73450000Y-50271250D01*
X73500000Y-49391250D02*
X73500000Y-50221250D01*
X73450000Y-50271250D02*
X72550000Y-50271250D01*
X73662500Y-60250000D02*
X74500000Y-60250000D01*
X73000000Y-51184314D02*
X73500000Y-50684314D01*
X74750000Y-60000000D02*
X74750000Y-55612310D01*
X73500000Y-50684314D02*
X73500000Y-50221250D01*
X72500000Y-50221250D02*
X72500000Y-49391250D01*
D62*
%TO.N,Net-(JP1-B)*%
X88650000Y-68000000D02*
X88910000Y-68260000D01*
X88910000Y-68260000D02*
X90250000Y-68260000D01*
D63*
%TO.N,Net-(U5-SW)*%
X85684261Y-56613821D02*
X83320000Y-56613821D01*
%TO.N,Net-(U5-BST)*%
X84300000Y-57573821D02*
X85674261Y-57573821D01*
D62*
%TO.N,Net-(J10-CC1)*%
X76740000Y-51250000D02*
X75500000Y-51250000D01*
X75500000Y-51250000D02*
X74500000Y-50250000D01*
X74500000Y-50250000D02*
X74500000Y-49391250D01*
%TO.N,Net-(J10-CC2)*%
X69510000Y-52000000D02*
X70000000Y-52000000D01*
X71500000Y-50500000D02*
X71500000Y-49391250D01*
X70000000Y-52000000D02*
X71500000Y-50500000D01*
%TO.N,Net-(U3-PF0)*%
X61000000Y-62500000D02*
X63046913Y-62500000D01*
X63750000Y-61230000D02*
X63770000Y-61250000D01*
X60650000Y-62150000D02*
X61000000Y-62500000D01*
X63750000Y-61796913D02*
X63750000Y-61230000D01*
X63046913Y-62500000D02*
X63750000Y-61796913D01*
X63770000Y-61250000D02*
X65337500Y-61250000D01*
X60650000Y-61400000D02*
X60650000Y-62150000D01*
%TO.N,Net-(U3-PF1)*%
X63750000Y-63040000D02*
X64250000Y-62540000D01*
X62910000Y-63040000D02*
X62350000Y-63600000D01*
X64250000Y-62540000D02*
X64250000Y-61996880D01*
X63750000Y-63040000D02*
X62910000Y-63040000D01*
X64496880Y-61750000D02*
X65337500Y-61750000D01*
X64250000Y-61996880D02*
X64496880Y-61750000D01*
%TO.N,Net-(SW2-B)*%
X66711765Y-60613235D02*
X66711765Y-61716355D01*
X65500000Y-51500000D02*
X64980000Y-51500000D01*
X63730000Y-52500000D02*
X64730000Y-51500000D01*
X65250000Y-53250000D02*
X64480000Y-53250000D01*
X64480000Y-53250000D02*
X63730000Y-52500000D01*
X64730000Y-51500000D02*
X65500000Y-51500000D01*
X66711765Y-61716355D02*
X66178120Y-62250000D01*
X66178120Y-62250000D02*
X65337500Y-62250000D01*
%TO.N,Net-(SW1-B)*%
X81000000Y-50000000D02*
X83750000Y-47250000D01*
X83750000Y-47250000D02*
X83750000Y-45250000D01*
X65337500Y-59750000D02*
X66750000Y-59750000D01*
X80250000Y-52250000D02*
X81000000Y-51500000D01*
X78250000Y-53000000D02*
X78500000Y-52750000D01*
X77500000Y-53000000D02*
X78250000Y-53000000D01*
X81000000Y-51500000D02*
X81000000Y-50000000D01*
X80500000Y-51500000D02*
X81000000Y-51500000D01*
X78500000Y-52750000D02*
X78510000Y-52750000D01*
X78510000Y-52750000D02*
X79010000Y-52250000D01*
X66750000Y-59750000D02*
X66758885Y-59741115D01*
X79010000Y-52250000D02*
X80250000Y-52250000D01*
%TO.N,Net-(JP2-B)*%
X68250000Y-58678120D02*
X67931240Y-58996880D01*
X64250000Y-56650000D02*
X62910000Y-56650000D01*
X68250000Y-57837500D02*
X68250000Y-58678120D01*
X66568760Y-58996880D02*
X64250000Y-56678120D01*
X62910000Y-56650000D02*
X62500000Y-56240000D01*
X64250000Y-56678120D02*
X64250000Y-56650000D01*
X67931240Y-58996880D02*
X66568760Y-58996880D01*
D65*
%TO.N,/SWDIO*%
X72250000Y-58613604D02*
X72250000Y-57837500D01*
X72450000Y-60500000D02*
X72450000Y-60014516D01*
X72125000Y-59689516D02*
X72125000Y-58738604D01*
X72450000Y-60014516D02*
X72125000Y-59689516D01*
X72125000Y-58738604D02*
X72250000Y-58613604D01*
%TO.N,/SWCLK*%
X71725000Y-57862500D02*
X71750000Y-57837500D01*
X71525000Y-59750735D02*
X71725000Y-59550735D01*
X71725000Y-59550735D02*
X71725000Y-57862500D01*
D63*
%TO.N,+3V3*%
X73309872Y-67222372D02*
X72738756Y-67222372D01*
X73871873Y-67784373D02*
X73309872Y-67222372D01*
%TD*%
%TA.AperFunction,Conductor*%
%TO.N,GND*%
G36*
X61844455Y-59769685D02*
G01*
X61865097Y-59786319D01*
X61891726Y-59812948D01*
X61891730Y-59812951D01*
X62014644Y-59895080D01*
X62014657Y-59895087D01*
X62151228Y-59951656D01*
X62151233Y-59951658D01*
X62151237Y-59951658D01*
X62151238Y-59951659D01*
X62296225Y-59980500D01*
X62296228Y-59980500D01*
X62444063Y-59980500D01*
X63367934Y-59980500D01*
X63402528Y-59985423D01*
X63479007Y-60007643D01*
X63515310Y-60010500D01*
X63515318Y-60010500D01*
X63975500Y-60010500D01*
X64042539Y-60030185D01*
X64088294Y-60082989D01*
X64099500Y-60134500D01*
X64099500Y-60325500D01*
X64079815Y-60392539D01*
X64027011Y-60438294D01*
X63975500Y-60449500D01*
X63515302Y-60449500D01*
X63479008Y-60452356D01*
X63479002Y-60452357D01*
X63323609Y-60497504D01*
X63323606Y-60497505D01*
X63184315Y-60579881D01*
X63184307Y-60579887D01*
X63069887Y-60694307D01*
X63065103Y-60700476D01*
X63062750Y-60698651D01*
X63021868Y-60736813D01*
X62966221Y-60750000D01*
X62750000Y-60750000D01*
X62750000Y-61725500D01*
X62730315Y-61792539D01*
X62677511Y-61838294D01*
X62626000Y-61849500D01*
X61874500Y-61849500D01*
X61807461Y-61829815D01*
X61761706Y-61777011D01*
X61750500Y-61725500D01*
X61750499Y-60652129D01*
X61750498Y-60652123D01*
X61744091Y-60592516D01*
X61693797Y-60457671D01*
X61693793Y-60457664D01*
X61607547Y-60342455D01*
X61549688Y-60299141D01*
X61507818Y-60243207D01*
X61500000Y-60199875D01*
X61500000Y-59874000D01*
X61519685Y-59806961D01*
X61572489Y-59761206D01*
X61624000Y-59750000D01*
X61777416Y-59750000D01*
X61844455Y-59769685D01*
G37*
%TD.AperFunction*%
%TD*%
%TA.AperFunction,Conductor*%
%TO.N,VCC*%
G36*
X82026032Y-66319564D02*
G01*
X82031087Y-66321658D01*
X82134914Y-66342311D01*
X82180304Y-66351340D01*
X82232241Y-66375076D01*
X82264926Y-66400498D01*
X83223747Y-67146248D01*
X83264579Y-67202945D01*
X83268277Y-67272716D01*
X83266695Y-67278722D01*
X83248229Y-67342281D01*
X83245373Y-67378575D01*
X83245373Y-67847970D01*
X83248229Y-67884264D01*
X83248230Y-67884267D01*
X83270449Y-67960742D01*
X83275373Y-67995338D01*
X83275373Y-68126088D01*
X83268414Y-68167043D01*
X83214633Y-68320737D01*
X83214630Y-68320750D01*
X83194435Y-68499996D01*
X83194435Y-68500003D01*
X83214630Y-68679249D01*
X83214631Y-68679254D01*
X83274211Y-68849523D01*
X83370184Y-69002262D01*
X83497738Y-69129816D01*
X83650478Y-69225789D01*
X83820745Y-69285368D01*
X83889384Y-69293101D01*
X83953796Y-69320166D01*
X83993352Y-69377760D01*
X83999500Y-69416321D01*
X83999500Y-70626000D01*
X83979815Y-70693039D01*
X83927011Y-70738794D01*
X83875500Y-70750000D01*
X82376342Y-70750000D01*
X82365535Y-70749528D01*
X82250002Y-70739420D01*
X82249998Y-70739420D01*
X82134465Y-70749528D01*
X82123658Y-70750000D01*
X81524500Y-70750000D01*
X81457461Y-70730315D01*
X81411706Y-70677511D01*
X81400500Y-70626000D01*
X81400500Y-66524499D01*
X81420185Y-66457460D01*
X81472989Y-66411705D01*
X81524500Y-66400499D01*
X81697871Y-66400499D01*
X81697872Y-66400499D01*
X81757483Y-66394091D01*
X81892331Y-66343796D01*
X81904266Y-66334860D01*
X81969729Y-66310441D01*
X82026032Y-66319564D01*
G37*
%TD.AperFunction*%
%TD*%
%TA.AperFunction,Conductor*%
%TO.N,VCC*%
G36*
X87979809Y-55020185D02*
G01*
X88000451Y-55036819D01*
X88738181Y-55774549D01*
X88771666Y-55835872D01*
X88774500Y-55862229D01*
X88774500Y-55998336D01*
X88774501Y-55998355D01*
X88784650Y-56097707D01*
X88784651Y-56097710D01*
X88837996Y-56258694D01*
X88838001Y-56258705D01*
X88927029Y-56403040D01*
X88927032Y-56403044D01*
X89046955Y-56522967D01*
X89046959Y-56522970D01*
X89191294Y-56611998D01*
X89191297Y-56611999D01*
X89191303Y-56612003D01*
X89352292Y-56665349D01*
X89451655Y-56675500D01*
X90048344Y-56675499D01*
X90048352Y-56675498D01*
X90048355Y-56675498D01*
X90133924Y-56666757D01*
X90147708Y-56665349D01*
X90308697Y-56612003D01*
X90310897Y-56610645D01*
X90312613Y-56610175D01*
X90315245Y-56608949D01*
X90315454Y-56609398D01*
X90378287Y-56592201D01*
X90444952Y-56613119D01*
X90489725Y-56666757D01*
X90500000Y-56716180D01*
X90500000Y-57876000D01*
X90480315Y-57943039D01*
X90427511Y-57988794D01*
X90376000Y-58000000D01*
X89312000Y-58000000D01*
X89244961Y-57980315D01*
X89212800Y-57950400D01*
X89186922Y-57915896D01*
X89162446Y-57850454D01*
X89167046Y-57806899D01*
X89170100Y-57796390D01*
X89173002Y-57759515D01*
X89173002Y-57328127D01*
X89170100Y-57291252D01*
X89124246Y-57133423D01*
X89040583Y-56991956D01*
X89040581Y-56991954D01*
X89040578Y-56991950D01*
X88924372Y-56875744D01*
X88924364Y-56875738D01*
X88782898Y-56792076D01*
X88782895Y-56792075D01*
X88625075Y-56746223D01*
X88625069Y-56746222D01*
X88588203Y-56743321D01*
X88588196Y-56743321D01*
X87431808Y-56743321D01*
X87431800Y-56743321D01*
X87394934Y-56746222D01*
X87394928Y-56746223D01*
X87237108Y-56792075D01*
X87237107Y-56792075D01*
X87187120Y-56821637D01*
X87119395Y-56838818D01*
X87053133Y-56816658D01*
X87009371Y-56762191D01*
X87000000Y-56714904D01*
X87000000Y-55124500D01*
X87019685Y-55057461D01*
X87072489Y-55011706D01*
X87124000Y-55000500D01*
X87912770Y-55000500D01*
X87979809Y-55020185D01*
G37*
%TD.AperFunction*%
%TD*%
%TA.AperFunction,Conductor*%
%TO.N,GND*%
G36*
X60344518Y-62768819D02*
G01*
X60366117Y-62786063D01*
X60585325Y-63005272D01*
X60585326Y-63005273D01*
X60585329Y-63005275D01*
X60585331Y-63005277D01*
X60691873Y-63076465D01*
X60810256Y-63125501D01*
X60810260Y-63125501D01*
X60810261Y-63125502D01*
X60935928Y-63150500D01*
X60935931Y-63150500D01*
X61064069Y-63150500D01*
X61125500Y-63150500D01*
X61192539Y-63170185D01*
X61238294Y-63222989D01*
X61249500Y-63274500D01*
X61249500Y-64347870D01*
X61249501Y-64347876D01*
X61255908Y-64407483D01*
X61306202Y-64542328D01*
X61306206Y-64542335D01*
X61392451Y-64657543D01*
X61392452Y-64657544D01*
X61392454Y-64657546D01*
X61450207Y-64700780D01*
X61492077Y-64756712D01*
X61499895Y-64800045D01*
X61499895Y-65364562D01*
X61480210Y-65431601D01*
X61427406Y-65477356D01*
X61375895Y-65488562D01*
X59623895Y-65488562D01*
X59556856Y-65468877D01*
X59511101Y-65416073D01*
X59499895Y-65364562D01*
X59499895Y-62879734D01*
X59519580Y-62812695D01*
X59572384Y-62766940D01*
X59622756Y-62755739D01*
X60277304Y-62749749D01*
X60344518Y-62768819D01*
G37*
%TD.AperFunction*%
%TD*%
%TA.AperFunction,Conductor*%
%TO.N,+3V3*%
G36*
X77239553Y-53756957D02*
G01*
X77256281Y-53762811D01*
X77320745Y-53785368D01*
X77320750Y-53785369D01*
X77499996Y-53805565D01*
X77500000Y-53805565D01*
X77500004Y-53805565D01*
X77679249Y-53785369D01*
X77679252Y-53785368D01*
X77679255Y-53785368D01*
X77760446Y-53756957D01*
X77801401Y-53750000D01*
X81126000Y-53750000D01*
X81193039Y-53769685D01*
X81238794Y-53822489D01*
X81250000Y-53874000D01*
X81250000Y-54184923D01*
X81230315Y-54251962D01*
X81225267Y-54259234D01*
X81156203Y-54351490D01*
X81156202Y-54351492D01*
X81105908Y-54486338D01*
X81099501Y-54545937D01*
X81099500Y-54545956D01*
X81099500Y-57141691D01*
X81099501Y-57141697D01*
X81105908Y-57201304D01*
X81154904Y-57332667D01*
X81159888Y-57402359D01*
X81126403Y-57463682D01*
X81065080Y-57497166D01*
X81038722Y-57500000D01*
X77423448Y-57500000D01*
X77356409Y-57480315D01*
X77317909Y-57441096D01*
X77315155Y-57436631D01*
X77191100Y-57312576D01*
X77191099Y-57312575D01*
X77041777Y-57220473D01*
X76875240Y-57165288D01*
X76875238Y-57165287D01*
X76772459Y-57154787D01*
X76772452Y-57154787D01*
X75874500Y-57154787D01*
X75807461Y-57135102D01*
X75761706Y-57082298D01*
X75750500Y-57030787D01*
X75750500Y-55535684D01*
X75750501Y-55535671D01*
X75750501Y-55367568D01*
X75709576Y-55214838D01*
X75709573Y-55214833D01*
X75630524Y-55077914D01*
X75630518Y-55077906D01*
X75286319Y-54733707D01*
X75252834Y-54672384D01*
X75250000Y-54646026D01*
X75250000Y-54057312D01*
X75269685Y-53990273D01*
X75286319Y-53969631D01*
X75314583Y-53941367D01*
X75343817Y-53912133D01*
X75402137Y-53817579D01*
X75454082Y-53770857D01*
X75523044Y-53759634D01*
X75546673Y-53764971D01*
X75622203Y-53789999D01*
X75724991Y-53800500D01*
X76775008Y-53800499D01*
X76775016Y-53800498D01*
X76775019Y-53800498D01*
X76831302Y-53794748D01*
X76877797Y-53789999D01*
X76979512Y-53756294D01*
X77018516Y-53750000D01*
X77198599Y-53750000D01*
X77239553Y-53756957D01*
G37*
%TD.AperFunction*%
%TD*%
%TA.AperFunction,Conductor*%
%TO.N,VCC*%
G36*
X77802127Y-66400500D02*
G01*
X77975500Y-66400499D01*
X78042539Y-66420183D01*
X78088294Y-66472987D01*
X78099500Y-66524499D01*
X78099500Y-69225500D01*
X78079815Y-69292539D01*
X78027011Y-69338294D01*
X77975500Y-69349500D01*
X77445818Y-69349500D01*
X77347316Y-69359563D01*
X77347315Y-69359564D01*
X77198263Y-69408955D01*
X77128436Y-69411357D01*
X77068394Y-69375625D01*
X77048352Y-69346705D01*
X77000000Y-69250000D01*
X76988475Y-69242878D01*
X76945691Y-69230315D01*
X76925049Y-69213681D01*
X76843657Y-69132289D01*
X76843656Y-69132288D01*
X76694334Y-69040186D01*
X76527797Y-68985001D01*
X76527795Y-68985000D01*
X76425016Y-68974500D01*
X76425009Y-68974500D01*
X76424500Y-68974500D01*
X76424394Y-68974468D01*
X76421861Y-68974340D01*
X76421869Y-68974179D01*
X76421868Y-68974179D01*
X76421870Y-68974155D01*
X76421891Y-68973734D01*
X76357461Y-68954815D01*
X76311706Y-68902011D01*
X76300500Y-68850500D01*
X76300500Y-68515317D01*
X76300499Y-68515302D01*
X76297643Y-68479008D01*
X76297642Y-68479002D01*
X76252495Y-68323609D01*
X76252494Y-68323606D01*
X76252494Y-68323605D01*
X76170117Y-68184313D01*
X76170115Y-68184311D01*
X76170112Y-68184307D01*
X76138470Y-68152665D01*
X76104985Y-68091342D01*
X76109969Y-68021650D01*
X76138470Y-67977303D01*
X77681756Y-66434016D01*
X77743077Y-66400533D01*
X77782689Y-66398410D01*
X77802127Y-66400500D01*
G37*
%TD.AperFunction*%
%TD*%
%TA.AperFunction,Conductor*%
%TO.N,GND*%
G36*
X86443039Y-53269685D02*
G01*
X86488794Y-53322489D01*
X86500000Y-53374000D01*
X86500000Y-55674907D01*
X86480315Y-55741946D01*
X86427511Y-55787701D01*
X86358353Y-55797645D01*
X86353724Y-55796890D01*
X86350070Y-55796222D01*
X86313203Y-55793321D01*
X86313196Y-55793321D01*
X85156808Y-55793321D01*
X85156800Y-55793321D01*
X85119934Y-55796222D01*
X85119928Y-55796223D01*
X84962108Y-55842075D01*
X84962107Y-55842075D01*
X84962104Y-55842077D01*
X84955378Y-55846054D01*
X84892260Y-55863321D01*
X84682066Y-55863321D01*
X84647471Y-55858397D01*
X84599500Y-55844460D01*
X84570994Y-55836178D01*
X84570991Y-55836177D01*
X84534697Y-55833321D01*
X84534690Y-55833321D01*
X84124499Y-55833321D01*
X84057460Y-55813636D01*
X84011705Y-55760832D01*
X84000499Y-55709321D01*
X84000499Y-54545950D01*
X84000321Y-54542625D01*
X84000426Y-54542619D01*
X84000000Y-54534657D01*
X84000000Y-53374000D01*
X84019685Y-53306961D01*
X84072489Y-53261206D01*
X84124000Y-53250000D01*
X86376000Y-53250000D01*
X86443039Y-53269685D01*
G37*
%TD.AperFunction*%
%TD*%
M02*
