%TF.GenerationSoftware,KiCad,Pcbnew,8.0.2*%
%TF.CreationDate,2024-09-15T16:43:51-04:00*%
%TF.ProjectId,StepperMotorDriver,53746570-7065-4724-9d6f-746f72447269,rev?*%
%TF.SameCoordinates,Original*%
%TF.FileFunction,Copper,L2,Inr*%
%TF.FilePolarity,Positive*%
%FSLAX46Y46*%
G04 Gerber Fmt 4.6, Leading zero omitted, Abs format (unit mm)*
G04 Created by KiCad (PCBNEW 8.0.2) date 2024-09-15 16:43:51*
%MOMM*%
%LPD*%
G01*
G04 APERTURE LIST*
G04 Aperture macros list*
%AMRoundRect*
0 Rectangle with rounded corners*
0 $1 Rounding radius*
0 $2 $3 $4 $5 $6 $7 $8 $9 X,Y pos of 4 corners*
0 Add a 4 corners polygon primitive as box body*
4,1,4,$2,$3,$4,$5,$6,$7,$8,$9,$2,$3,0*
0 Add four circle primitives for the rounded corners*
1,1,$1+$1,$2,$3*
1,1,$1+$1,$4,$5*
1,1,$1+$1,$6,$7*
1,1,$1+$1,$8,$9*
0 Add four rect primitives between the rounded corners*
20,1,$1+$1,$2,$3,$4,$5,0*
20,1,$1+$1,$4,$5,$6,$7,0*
20,1,$1+$1,$6,$7,$8,$9,0*
20,1,$1+$1,$8,$9,$2,$3,0*%
%AMHorizOval*
0 Thick line with rounded ends*
0 $1 width*
0 $2 $3 position (X,Y) of the first rounded end (center of the circle)*
0 $4 $5 position (X,Y) of the second rounded end (center of the circle)*
0 Add line between two ends*
20,1,$1,$2,$3,$4,$5,0*
0 Add two circle primitives to create the rounded ends*
1,1,$1,$2,$3*
1,1,$1,$4,$5*%
G04 Aperture macros list end*
%TA.AperFunction,ComponentPad*%
%ADD10R,1.600000X1.600000*%
%TD*%
%TA.AperFunction,ComponentPad*%
%ADD11C,1.600000*%
%TD*%
%TA.AperFunction,ComponentPad*%
%ADD12C,3.000000*%
%TD*%
%TA.AperFunction,ComponentPad*%
%ADD13RoundRect,0.250000X0.750000X-0.600000X0.750000X0.600000X-0.750000X0.600000X-0.750000X-0.600000X0*%
%TD*%
%TA.AperFunction,ComponentPad*%
%ADD14O,2.000000X1.700000*%
%TD*%
%TA.AperFunction,ComponentPad*%
%ADD15HorizOval,5.600000X-1.272792X1.272792X1.272792X-1.272792X0*%
%TD*%
%TA.AperFunction,ComponentPad*%
%ADD16R,2.250000X2.250000*%
%TD*%
%TA.AperFunction,ComponentPad*%
%ADD17C,2.250000*%
%TD*%
%TA.AperFunction,ComponentPad*%
%ADD18HorizOval,5.600000X-1.272792X-1.272792X1.272792X1.272792X0*%
%TD*%
%TA.AperFunction,ComponentPad*%
%ADD19RoundRect,0.250000X-0.750000X0.600000X-0.750000X-0.600000X0.750000X-0.600000X0.750000X0.600000X0*%
%TD*%
%TA.AperFunction,ComponentPad*%
%ADD20O,0.900000X2.000000*%
%TD*%
%TA.AperFunction,ComponentPad*%
%ADD21O,0.900000X1.700000*%
%TD*%
%TA.AperFunction,ComponentPad*%
%ADD22HorizOval,5.600000X1.272792X1.272792X-1.272792X-1.272792X0*%
%TD*%
%TA.AperFunction,ComponentPad*%
%ADD23RoundRect,0.250000X-0.600000X-0.725000X0.600000X-0.725000X0.600000X0.725000X-0.600000X0.725000X0*%
%TD*%
%TA.AperFunction,ComponentPad*%
%ADD24O,1.700000X1.950000*%
%TD*%
%TA.AperFunction,ComponentPad*%
%ADD25R,1.350000X1.350000*%
%TD*%
%TA.AperFunction,ComponentPad*%
%ADD26O,1.350000X1.350000*%
%TD*%
%TA.AperFunction,ViaPad*%
%ADD27C,0.700000*%
%TD*%
%TA.AperFunction,ViaPad*%
%ADD28C,0.600000*%
%TD*%
%TA.AperFunction,Conductor*%
%ADD29C,0.200000*%
%TD*%
G04 APERTURE END LIST*
D10*
%TO.N,VCC*%
%TO.C,C8*%
X82250000Y-69544888D03*
D11*
%TO.N,GND*%
X82250000Y-72044888D03*
%TD*%
D12*
%TO.N,GND*%
%TO.C,J9*%
X90500000Y-53000000D03*
%TD*%
D13*
%TO.N,/CANH*%
%TO.C,J7*%
X88700000Y-63750000D03*
D14*
%TO.N,/CANL*%
X88700000Y-61250000D03*
%TD*%
D15*
%TO.N,GND*%
%TO.C,H3*%
X58977207Y-48477207D03*
%TD*%
D16*
%TO.N,GND*%
%TO.C,SW1*%
X81000000Y-45000000D03*
D17*
%TO.N,Net-(SW1-B)*%
X81000000Y-51500000D03*
%TD*%
D18*
%TO.N,GND*%
%TO.C,H4*%
X58977207Y-77022793D03*
%TD*%
D15*
%TO.N,GND*%
%TO.C,H2*%
X87522791Y-77022791D03*
%TD*%
D12*
%TO.N,GND*%
%TO.C,J2*%
X56000000Y-53000000D03*
%TD*%
%TO.N,VCC*%
%TO.C,J3*%
X90500000Y-72500000D03*
%TD*%
D19*
%TO.N,/CANH*%
%TO.C,J1*%
X57800000Y-61241432D03*
D14*
%TO.N,/CANL*%
X57800000Y-63741432D03*
%TD*%
D12*
%TO.N,VCC*%
%TO.C,J8*%
X56000000Y-72500000D03*
%TD*%
D20*
%TO.N,GND*%
%TO.C,J10*%
X77570000Y-48811250D03*
D21*
X77570000Y-44641250D03*
D20*
X68930000Y-48811250D03*
D21*
X68930000Y-44641250D03*
%TD*%
D22*
%TO.N,GND*%
%TO.C,H1*%
X87522792Y-48477208D03*
%TD*%
D23*
%TO.N,/OA2*%
%TO.C,J4*%
X69500000Y-76750000D03*
D24*
%TO.N,/OA1*%
X72000000Y-76750000D03*
%TO.N,/OB1*%
X74500000Y-76750000D03*
%TO.N,/OB2*%
X77000000Y-76750000D03*
%TD*%
D25*
%TO.N,/SWCLK*%
%TO.C,J5*%
X73066028Y-73750000D03*
D26*
%TO.N,/SWDIO*%
X71066028Y-73750000D03*
%TD*%
D16*
%TO.N,GND*%
%TO.C,SW2*%
X65500000Y-45000000D03*
D17*
%TO.N,Net-(SW2-B)*%
X65500000Y-51500000D03*
%TD*%
D27*
%TO.N,GND*%
X62520258Y-57990546D03*
D28*
X83165380Y-61165380D03*
X77468664Y-59760000D03*
X81250000Y-63500000D03*
X72103667Y-64320414D03*
X76846023Y-59096023D03*
X80250000Y-62500000D03*
X84000000Y-68500000D03*
X84500000Y-55750000D03*
X81250000Y-62500000D03*
D27*
X69250000Y-51000000D03*
D28*
X76000000Y-71500000D03*
X67547536Y-54047537D03*
D27*
X67450000Y-69750000D03*
D28*
X63500000Y-51500000D03*
X75254139Y-52001493D03*
X67250000Y-79250000D03*
X80250000Y-63500000D03*
X81250000Y-64500000D03*
X79250000Y-63500000D03*
X84000000Y-72000000D03*
X67450000Y-70609637D03*
X72500000Y-69106568D03*
X67750000Y-52000000D03*
X61926505Y-60250000D03*
X62750000Y-60250000D03*
X66750000Y-75500000D03*
X72889230Y-58610770D03*
X82608880Y-77108880D03*
X80250000Y-64500000D03*
X74219970Y-70046722D03*
X60000000Y-65000000D03*
D27*
X77125000Y-50125000D03*
D28*
X79250000Y-62500000D03*
X84500000Y-54750000D03*
X63650000Y-70669240D03*
X77499817Y-61060742D03*
X78250000Y-62500000D03*
X77222998Y-51997030D03*
X77750000Y-71250000D03*
X84500000Y-53750000D03*
X78250000Y-64500000D03*
X78000000Y-50500000D03*
X78250000Y-63500000D03*
X79250000Y-64500000D03*
X61000000Y-64973507D03*
%TO.N,+3V3*%
X78530000Y-51250000D03*
X77212816Y-61807491D03*
X69600000Y-60075000D03*
D27*
X69250000Y-53250000D03*
X68875000Y-72125000D03*
D28*
X74097298Y-58595668D03*
X65311747Y-54558347D03*
X80750000Y-56750000D03*
X80000000Y-54250000D03*
D27*
X66250000Y-54000000D03*
D28*
X61500000Y-58000000D03*
X74150000Y-56900000D03*
X73871873Y-67784373D03*
X62850000Y-71000000D03*
X75750000Y-59155287D03*
X65787500Y-73000000D03*
X55250000Y-62500000D03*
X70250000Y-52750000D03*
X80750000Y-55750000D03*
X80750000Y-54750000D03*
D27*
X69750000Y-72000000D03*
D28*
X80000000Y-56250000D03*
X80000000Y-55250000D03*
%TO.N,VCC*%
X83500000Y-70250000D03*
X78100000Y-67650000D03*
X83500000Y-69250000D03*
X84559998Y-64385354D03*
X77250000Y-67650000D03*
X76500000Y-68000000D03*
X82250000Y-67650000D03*
%TO.N,/MOT_ENABLE*%
X68915708Y-67339593D03*
X85152446Y-66347554D03*
%TO.N,/MOT_DIAG*%
X70107698Y-56477902D03*
X79260869Y-59989131D03*
%TO.N,/MOT_SPREAD*%
X67466398Y-67987997D03*
X86000000Y-66250000D03*
%TO.N,/MOT_MS1*%
X68000000Y-56500000D03*
X80989679Y-60000000D03*
%TO.N,/MOT_MS2*%
X69420380Y-55920380D03*
X80155269Y-60151600D03*
%TO.N,/MOT_INDEX*%
X78353553Y-59896448D03*
X71038878Y-56288768D03*
%TO.N,/ESCL*%
X70900000Y-59250000D03*
%TO.N,/ESDA*%
X68625437Y-55830557D03*
%TO.N,/CAN_RX*%
X65588118Y-65500000D03*
X67470056Y-64942944D03*
%TO.N,Net-(SW2-B)*%
X65250000Y-53250000D03*
X66711765Y-60613235D03*
%TO.N,Net-(SW1-B)*%
X77500000Y-53000000D03*
X66758885Y-59741115D03*
%TO.N,/SWDIO*%
X72450000Y-60500000D03*
%TO.N,/SWCLK*%
X71525000Y-59750735D03*
%TD*%
D29*
%TO.N,GND*%
X58977207Y-77022793D02*
X61954414Y-80000000D01*
X87477209Y-77022791D02*
X84500000Y-80000000D01*
X87522791Y-77022791D02*
X86727209Y-77022791D01*
X87522791Y-77022791D02*
X87477209Y-77022791D01*
%TD*%
%TA.AperFunction,Conductor*%
%TO.N,GND*%
G36*
X77296778Y-43076673D02*
G01*
X77363725Y-43096673D01*
X77409230Y-43149692D01*
X77418848Y-43218896D01*
X77389525Y-43282315D01*
X77330570Y-43319812D01*
X77320387Y-43322289D01*
X77292900Y-43327756D01*
X77292894Y-43327758D01*
X77120008Y-43399369D01*
X77119999Y-43399374D01*
X76964410Y-43503336D01*
X76964406Y-43503339D01*
X76832089Y-43635656D01*
X76832086Y-43635660D01*
X76728124Y-43791249D01*
X76728119Y-43791258D01*
X76656508Y-43964144D01*
X76656506Y-43964152D01*
X76620000Y-44147678D01*
X76620000Y-44391250D01*
X77270000Y-44391250D01*
X77270000Y-44891250D01*
X76620000Y-44891250D01*
X76620000Y-45134821D01*
X76656506Y-45318347D01*
X76656508Y-45318355D01*
X76728119Y-45491241D01*
X76728124Y-45491250D01*
X76832086Y-45646839D01*
X76832089Y-45646843D01*
X76964406Y-45779160D01*
X76964410Y-45779163D01*
X77119999Y-45883125D01*
X77120012Y-45883132D01*
X77292889Y-45954739D01*
X77292896Y-45954741D01*
X77320000Y-45960132D01*
X77320000Y-45208238D01*
X77329940Y-45225455D01*
X77385795Y-45281310D01*
X77454204Y-45320806D01*
X77530504Y-45341250D01*
X77609496Y-45341250D01*
X77685796Y-45320806D01*
X77754205Y-45281310D01*
X77810060Y-45225455D01*
X77820000Y-45208238D01*
X77820000Y-45960131D01*
X77847103Y-45954741D01*
X77847110Y-45954739D01*
X78019987Y-45883132D01*
X78020000Y-45883125D01*
X78175589Y-45779163D01*
X78175593Y-45779160D01*
X78307910Y-45646843D01*
X78307913Y-45646839D01*
X78411875Y-45491250D01*
X78411880Y-45491241D01*
X78483491Y-45318355D01*
X78483493Y-45318347D01*
X78519999Y-45134821D01*
X78520000Y-45134819D01*
X78520000Y-44891250D01*
X77870000Y-44891250D01*
X77870000Y-44391250D01*
X78520000Y-44391250D01*
X78520000Y-44147680D01*
X78519999Y-44147678D01*
X78483493Y-43964152D01*
X78483491Y-43964144D01*
X78466015Y-43921953D01*
X78458546Y-43852484D01*
X78489821Y-43790005D01*
X78549909Y-43754352D01*
X78580576Y-43750500D01*
X79251000Y-43750500D01*
X79318039Y-43770185D01*
X79363794Y-43822989D01*
X79375000Y-43874500D01*
X79375000Y-44750000D01*
X80399999Y-44750000D01*
X80374979Y-44810402D01*
X80350000Y-44935981D01*
X80350000Y-45064019D01*
X80374979Y-45189598D01*
X80399999Y-45250000D01*
X79375000Y-45250000D01*
X79375000Y-46172844D01*
X79381401Y-46232372D01*
X79381403Y-46232379D01*
X79431645Y-46367086D01*
X79431649Y-46367093D01*
X79517809Y-46482187D01*
X79517812Y-46482190D01*
X79632906Y-46568350D01*
X79632913Y-46568354D01*
X79767620Y-46618596D01*
X79767627Y-46618598D01*
X79827155Y-46624999D01*
X79827172Y-46625000D01*
X80750000Y-46625000D01*
X80750000Y-45600001D01*
X80810402Y-45625021D01*
X80935981Y-45650000D01*
X81064019Y-45650000D01*
X81189598Y-45625021D01*
X81250000Y-45600001D01*
X81250000Y-46625000D01*
X82172828Y-46625000D01*
X82172844Y-46624999D01*
X82232372Y-46618598D01*
X82232379Y-46618596D01*
X82367086Y-46568354D01*
X82367093Y-46568350D01*
X82482187Y-46482190D01*
X82482190Y-46482187D01*
X82568350Y-46367093D01*
X82568354Y-46367086D01*
X82618596Y-46232379D01*
X82618598Y-46232372D01*
X82624999Y-46172844D01*
X82625000Y-46172827D01*
X82625000Y-45250000D01*
X81600001Y-45250000D01*
X81625021Y-45189598D01*
X81650000Y-45064019D01*
X81650000Y-44935981D01*
X81625021Y-44810402D01*
X81600001Y-44750000D01*
X82625000Y-44750000D01*
X82625000Y-43874500D01*
X82644685Y-43807461D01*
X82697489Y-43761706D01*
X82749000Y-43750500D01*
X87985362Y-43750500D01*
X88052401Y-43770185D01*
X88098156Y-43822989D01*
X88108100Y-43892147D01*
X88079075Y-43955703D01*
X88020297Y-43993477D01*
X88009554Y-43996117D01*
X87992785Y-43999452D01*
X87682504Y-44093574D01*
X87382947Y-44217655D01*
X87382942Y-44217657D01*
X87097010Y-44370491D01*
X87096992Y-44370502D01*
X86827400Y-44550638D01*
X86576761Y-44756332D01*
X85366116Y-45966978D01*
X85366116Y-45966979D01*
X86568197Y-47169060D01*
X86214644Y-47522613D01*
X85012563Y-46320532D01*
X83801916Y-47531177D01*
X83596227Y-47781811D01*
X83596212Y-47781830D01*
X83416085Y-48051408D01*
X83416074Y-48051426D01*
X83263242Y-48337358D01*
X83263235Y-48337372D01*
X83139158Y-48636916D01*
X83045034Y-48947203D01*
X82981779Y-49265205D01*
X82950000Y-49587884D01*
X82950000Y-49912115D01*
X82981779Y-50234794D01*
X83045034Y-50552796D01*
X83139158Y-50863083D01*
X83263235Y-51162627D01*
X83263242Y-51162641D01*
X83416074Y-51448573D01*
X83416085Y-51448591D01*
X83596212Y-51718169D01*
X83596222Y-51718183D01*
X83745890Y-51900554D01*
X83745891Y-51900555D01*
X84955748Y-50690698D01*
X85029588Y-50792330D01*
X85207670Y-50970412D01*
X85309299Y-51044250D01*
X84099443Y-52254107D01*
X84099444Y-52254108D01*
X84281816Y-52403777D01*
X84281830Y-52403787D01*
X84551408Y-52583914D01*
X84551426Y-52583925D01*
X84837358Y-52736757D01*
X84837372Y-52736764D01*
X85136916Y-52860841D01*
X85447203Y-52954965D01*
X85765206Y-53018220D01*
X85765205Y-53018220D01*
X86087884Y-53050000D01*
X86412116Y-53050000D01*
X86734794Y-53018220D01*
X87052796Y-52954965D01*
X87363083Y-52860841D01*
X87662627Y-52736764D01*
X87662641Y-52736757D01*
X87948573Y-52583925D01*
X87948591Y-52583914D01*
X88218169Y-52403787D01*
X88218183Y-52403777D01*
X88395224Y-52258483D01*
X88459534Y-52231170D01*
X88528401Y-52242961D01*
X88579962Y-52290113D01*
X88597845Y-52357655D01*
X88590072Y-52397667D01*
X88576109Y-52435103D01*
X88515300Y-52714637D01*
X88494891Y-52999998D01*
X88494891Y-53000001D01*
X88515300Y-53285362D01*
X88576109Y-53564895D01*
X88676091Y-53832958D01*
X88813191Y-54084038D01*
X88813196Y-54084046D01*
X88919882Y-54226561D01*
X88919883Y-54226562D01*
X89637425Y-53509020D01*
X89723249Y-53637463D01*
X89862537Y-53776751D01*
X89990978Y-53862573D01*
X89273436Y-54580115D01*
X89415960Y-54686807D01*
X89415961Y-54686808D01*
X89667042Y-54823908D01*
X89667041Y-54823908D01*
X89935104Y-54923890D01*
X90214637Y-54984699D01*
X90499999Y-55005109D01*
X90500001Y-55005109D01*
X90785362Y-54984699D01*
X91064895Y-54923890D01*
X91332958Y-54823908D01*
X91584047Y-54686803D01*
X91726561Y-54580116D01*
X91726562Y-54580115D01*
X91009021Y-53862573D01*
X91137463Y-53776751D01*
X91276751Y-53637463D01*
X91362573Y-53509020D01*
X92080115Y-54226562D01*
X92080116Y-54226561D01*
X92186803Y-54084047D01*
X92323908Y-53832958D01*
X92423890Y-53564895D01*
X92484699Y-53285362D01*
X92501816Y-53046043D01*
X92519120Y-52999647D01*
X92506523Y-52980045D01*
X92501816Y-52953956D01*
X92484699Y-52714637D01*
X92423890Y-52435104D01*
X92323908Y-52167041D01*
X92186808Y-51915961D01*
X92186807Y-51915960D01*
X92080115Y-51773436D01*
X91362573Y-52490978D01*
X91276751Y-52362537D01*
X91137463Y-52223249D01*
X91009020Y-52137425D01*
X91726562Y-51419883D01*
X91726561Y-51419882D01*
X91584046Y-51313196D01*
X91584038Y-51313191D01*
X91332957Y-51176091D01*
X91332958Y-51176091D01*
X91064895Y-51076109D01*
X90785362Y-51015300D01*
X90500001Y-50994891D01*
X90499999Y-50994891D01*
X90214637Y-51015300D01*
X89935103Y-51076109D01*
X89920061Y-51081720D01*
X89850369Y-51086703D01*
X89789047Y-51053216D01*
X89755563Y-50991892D01*
X89760549Y-50922201D01*
X89789049Y-50877856D01*
X91243667Y-49423238D01*
X91449361Y-49172599D01*
X91629497Y-48903007D01*
X91629508Y-48902989D01*
X91782342Y-48617057D01*
X91782344Y-48617052D01*
X91906425Y-48317495D01*
X92000547Y-48007214D01*
X92063804Y-47689208D01*
X92095584Y-47366531D01*
X92095584Y-47042300D01*
X92063804Y-46719624D01*
X92000547Y-46401618D01*
X91906425Y-46091336D01*
X91782344Y-45791779D01*
X91782342Y-45791774D01*
X91629508Y-45505842D01*
X91629497Y-45505824D01*
X91449361Y-45236232D01*
X91243667Y-44985593D01*
X91014406Y-44756332D01*
X90763767Y-44550638D01*
X90623752Y-44457083D01*
X90578947Y-44403471D01*
X90570240Y-44334146D01*
X90600394Y-44271118D01*
X90659837Y-44234399D01*
X90729696Y-44235646D01*
X90756493Y-44247683D01*
X91018302Y-44404944D01*
X91028400Y-44411705D01*
X91324776Y-44631908D01*
X91334168Y-44639628D01*
X91607572Y-44887810D01*
X91616162Y-44896413D01*
X91863939Y-45170164D01*
X91871640Y-45179559D01*
X92091436Y-45476283D01*
X92098171Y-45486375D01*
X92109816Y-45505824D01*
X92287846Y-45803182D01*
X92293572Y-45813906D01*
X92451311Y-46147762D01*
X92455959Y-46158996D01*
X92580242Y-46506684D01*
X92583768Y-46518319D01*
X92673406Y-46876508D01*
X92675776Y-46888432D01*
X92729909Y-47253679D01*
X92731100Y-47265778D01*
X92749351Y-47637537D01*
X92749500Y-47643617D01*
X92749500Y-52945110D01*
X92732579Y-53002733D01*
X92746666Y-53028531D01*
X92749500Y-53054889D01*
X92749500Y-72438105D01*
X92729904Y-72504839D01*
X92746666Y-72535536D01*
X92749500Y-72561894D01*
X92749500Y-77361838D01*
X92749342Y-77368096D01*
X92730559Y-77739816D01*
X92729351Y-77751914D01*
X92674693Y-78117086D01*
X92672306Y-78129006D01*
X92582152Y-78487070D01*
X92578609Y-78498700D01*
X92453827Y-78846207D01*
X92449163Y-78857434D01*
X92290945Y-79191062D01*
X92285203Y-79201779D01*
X92162421Y-79406188D01*
X92111027Y-79453521D01*
X92042201Y-79465554D01*
X91977795Y-79438467D01*
X91938258Y-79380860D01*
X91936142Y-79311022D01*
X91937462Y-79306343D01*
X92000546Y-79098380D01*
X92063803Y-78780374D01*
X92095583Y-78457698D01*
X92095583Y-78133467D01*
X92063803Y-77810790D01*
X92000546Y-77492784D01*
X91906424Y-77182503D01*
X91782343Y-76882946D01*
X91782341Y-76882941D01*
X91629507Y-76597009D01*
X91629496Y-76596991D01*
X91449360Y-76327399D01*
X91243666Y-76076760D01*
X89789901Y-74622995D01*
X89756416Y-74561672D01*
X89761400Y-74491980D01*
X89803272Y-74436047D01*
X89868736Y-74411630D01*
X89920915Y-74419132D01*
X89934954Y-74424369D01*
X89988637Y-74436047D01*
X90214566Y-74485195D01*
X90214568Y-74485195D01*
X90214572Y-74485196D01*
X90468220Y-74503337D01*
X90499999Y-74505610D01*
X90500000Y-74505610D01*
X90500001Y-74505610D01*
X90528595Y-74503564D01*
X90785428Y-74485196D01*
X90842118Y-74472864D01*
X91065037Y-74424371D01*
X91065037Y-74424370D01*
X91065046Y-74424369D01*
X91333161Y-74324367D01*
X91584315Y-74187226D01*
X91813395Y-74015739D01*
X92015739Y-73813395D01*
X92187226Y-73584315D01*
X92324367Y-73333161D01*
X92424369Y-73065046D01*
X92443284Y-72978095D01*
X92485195Y-72785433D01*
X92485195Y-72785432D01*
X92485196Y-72785428D01*
X92501816Y-72553048D01*
X92522427Y-72497787D01*
X92506523Y-72473040D01*
X92501816Y-72446951D01*
X92499345Y-72412403D01*
X92485196Y-72214572D01*
X92480815Y-72194435D01*
X92424371Y-71934962D01*
X92424370Y-71934960D01*
X92424369Y-71934954D01*
X92324367Y-71666839D01*
X92316354Y-71652165D01*
X92187229Y-71415690D01*
X92187224Y-71415682D01*
X92015745Y-71186612D01*
X92015729Y-71186594D01*
X91813405Y-70984270D01*
X91813387Y-70984254D01*
X91584317Y-70812775D01*
X91584309Y-70812770D01*
X91333166Y-70675635D01*
X91333167Y-70675635D01*
X91225915Y-70635632D01*
X91065046Y-70575631D01*
X91065043Y-70575630D01*
X91065037Y-70575628D01*
X90785433Y-70514804D01*
X90500001Y-70494390D01*
X90499999Y-70494390D01*
X90214566Y-70514804D01*
X89934962Y-70575628D01*
X89666833Y-70675635D01*
X89415690Y-70812770D01*
X89415682Y-70812775D01*
X89186612Y-70984254D01*
X89186594Y-70984270D01*
X88984270Y-71186594D01*
X88984254Y-71186612D01*
X88812775Y-71415682D01*
X88812770Y-71415690D01*
X88675635Y-71666833D01*
X88575628Y-71934962D01*
X88514804Y-72214566D01*
X88494390Y-72499998D01*
X88494390Y-72500001D01*
X88514804Y-72785433D01*
X88575628Y-73065037D01*
X88575630Y-73065043D01*
X88575631Y-73065046D01*
X88589302Y-73101699D01*
X88594286Y-73171389D01*
X88560801Y-73232712D01*
X88499478Y-73266197D01*
X88429786Y-73261213D01*
X88394455Y-73240884D01*
X88218182Y-73096221D01*
X88218168Y-73096211D01*
X87948590Y-72916084D01*
X87948572Y-72916073D01*
X87662640Y-72763241D01*
X87662626Y-72763234D01*
X87363082Y-72639157D01*
X87052795Y-72545033D01*
X86734792Y-72481778D01*
X86734793Y-72481778D01*
X86412115Y-72449999D01*
X86087883Y-72449999D01*
X85765204Y-72481778D01*
X85447202Y-72545033D01*
X85136915Y-72639157D01*
X84837371Y-72763234D01*
X84837357Y-72763241D01*
X84551425Y-72916073D01*
X84551407Y-72916084D01*
X84281815Y-73096220D01*
X84099443Y-73245889D01*
X84099442Y-73245890D01*
X85309299Y-74455747D01*
X85207669Y-74529587D01*
X85029587Y-74707669D01*
X84955747Y-74809299D01*
X83745890Y-73599442D01*
X83745889Y-73599443D01*
X83596220Y-73781815D01*
X83416084Y-74051407D01*
X83416073Y-74051425D01*
X83263241Y-74337357D01*
X83263234Y-74337371D01*
X83139157Y-74636915D01*
X83045033Y-74947202D01*
X82981778Y-75265204D01*
X82949999Y-75587883D01*
X82949999Y-75912114D01*
X82981778Y-76234793D01*
X83045033Y-76552795D01*
X83139157Y-76863082D01*
X83263234Y-77162626D01*
X83263241Y-77162640D01*
X83416073Y-77448572D01*
X83416084Y-77448590D01*
X83596211Y-77718168D01*
X83596221Y-77718182D01*
X83801915Y-77968821D01*
X86576760Y-80743666D01*
X86827399Y-80949360D01*
X86936708Y-81022398D01*
X86981513Y-81076010D01*
X86990220Y-81145335D01*
X86960066Y-81208362D01*
X86900623Y-81245082D01*
X86867817Y-81249500D01*
X59632186Y-81249500D01*
X59565147Y-81229815D01*
X59519392Y-81177011D01*
X59509448Y-81107853D01*
X59538473Y-81044297D01*
X59563295Y-81022398D01*
X59672584Y-80949372D01*
X59672598Y-80949362D01*
X59923237Y-80743668D01*
X62698082Y-77968823D01*
X62903776Y-77718184D01*
X63083912Y-77448592D01*
X63083923Y-77448574D01*
X63236757Y-77162642D01*
X63236759Y-77162637D01*
X63360840Y-76863080D01*
X63454962Y-76552799D01*
X63518219Y-76234793D01*
X63543807Y-75974983D01*
X68149500Y-75974983D01*
X68149500Y-77525001D01*
X68149501Y-77525018D01*
X68160000Y-77627796D01*
X68160001Y-77627799D01*
X68205894Y-77766294D01*
X68215186Y-77794334D01*
X68307288Y-77943656D01*
X68431344Y-78067712D01*
X68580666Y-78159814D01*
X68747203Y-78214999D01*
X68849991Y-78225500D01*
X70150008Y-78225499D01*
X70252797Y-78214999D01*
X70419334Y-78159814D01*
X70568656Y-78067712D01*
X70692712Y-77943656D01*
X70784814Y-77794334D01*
X70784814Y-77794331D01*
X70788178Y-77788879D01*
X70840126Y-77742154D01*
X70909088Y-77730931D01*
X70973170Y-77758774D01*
X70981398Y-77766294D01*
X71120213Y-77905109D01*
X71292179Y-78030048D01*
X71292181Y-78030049D01*
X71292184Y-78030051D01*
X71481588Y-78126557D01*
X71683757Y-78192246D01*
X71893713Y-78225500D01*
X71893714Y-78225500D01*
X72106286Y-78225500D01*
X72106287Y-78225500D01*
X72316243Y-78192246D01*
X72518412Y-78126557D01*
X72707816Y-78030051D01*
X72792090Y-77968823D01*
X72879786Y-77905109D01*
X72879788Y-77905106D01*
X72879792Y-77905104D01*
X73030104Y-77754792D01*
X73149683Y-77590204D01*
X73205011Y-77547540D01*
X73274624Y-77541561D01*
X73336420Y-77574166D01*
X73350313Y-77590199D01*
X73443299Y-77718184D01*
X73469896Y-77754792D01*
X73620213Y-77905109D01*
X73792179Y-78030048D01*
X73792181Y-78030049D01*
X73792184Y-78030051D01*
X73981588Y-78126557D01*
X74183757Y-78192246D01*
X74393713Y-78225500D01*
X74393714Y-78225500D01*
X74606286Y-78225500D01*
X74606287Y-78225500D01*
X74816243Y-78192246D01*
X75018412Y-78126557D01*
X75207816Y-78030051D01*
X75292090Y-77968823D01*
X75379786Y-77905109D01*
X75379788Y-77905106D01*
X75379792Y-77905104D01*
X75530104Y-77754792D01*
X75649683Y-77590204D01*
X75705011Y-77547540D01*
X75774624Y-77541561D01*
X75836420Y-77574166D01*
X75850313Y-77590199D01*
X75943299Y-77718184D01*
X75969896Y-77754792D01*
X76120213Y-77905109D01*
X76292179Y-78030048D01*
X76292181Y-78030049D01*
X76292184Y-78030051D01*
X76481588Y-78126557D01*
X76683757Y-78192246D01*
X76893713Y-78225500D01*
X76893714Y-78225500D01*
X77106286Y-78225500D01*
X77106287Y-78225500D01*
X77316243Y-78192246D01*
X77518412Y-78126557D01*
X77707816Y-78030051D01*
X77792090Y-77968823D01*
X77879786Y-77905109D01*
X77879788Y-77905106D01*
X77879792Y-77905104D01*
X78030104Y-77754792D01*
X78030106Y-77754788D01*
X78030109Y-77754786D01*
X78155048Y-77582820D01*
X78155047Y-77582820D01*
X78155051Y-77582816D01*
X78251557Y-77393412D01*
X78317246Y-77191243D01*
X78350500Y-76981287D01*
X78350500Y-76518713D01*
X78317246Y-76308757D01*
X78251557Y-76106588D01*
X78155051Y-75917184D01*
X78155049Y-75917181D01*
X78155048Y-75917179D01*
X78030109Y-75745213D01*
X77879786Y-75594890D01*
X77707820Y-75469951D01*
X77518414Y-75373444D01*
X77518413Y-75373443D01*
X77518412Y-75373443D01*
X77316243Y-75307754D01*
X77316241Y-75307753D01*
X77316240Y-75307753D01*
X77154957Y-75282208D01*
X77106287Y-75274500D01*
X76893713Y-75274500D01*
X76845042Y-75282208D01*
X76683760Y-75307753D01*
X76481585Y-75373444D01*
X76292179Y-75469951D01*
X76120213Y-75594890D01*
X75969894Y-75745209D01*
X75969890Y-75745214D01*
X75850318Y-75909793D01*
X75794989Y-75952459D01*
X75725375Y-75958438D01*
X75663580Y-75925833D01*
X75649682Y-75909793D01*
X75530109Y-75745214D01*
X75530105Y-75745209D01*
X75379786Y-75594890D01*
X75207820Y-75469951D01*
X75018414Y-75373444D01*
X75018413Y-75373443D01*
X75018412Y-75373443D01*
X74816243Y-75307754D01*
X74816241Y-75307753D01*
X74816240Y-75307753D01*
X74654957Y-75282208D01*
X74606287Y-75274500D01*
X74393713Y-75274500D01*
X74345042Y-75282208D01*
X74183760Y-75307753D01*
X73981585Y-75373444D01*
X73792179Y-75469951D01*
X73620213Y-75594890D01*
X73469894Y-75745209D01*
X73469890Y-75745214D01*
X73350318Y-75909793D01*
X73294989Y-75952459D01*
X73225375Y-75958438D01*
X73163580Y-75925833D01*
X73149682Y-75909793D01*
X73030109Y-75745214D01*
X73030105Y-75745209D01*
X72879786Y-75594890D01*
X72707820Y-75469951D01*
X72518414Y-75373444D01*
X72518413Y-75373443D01*
X72518412Y-75373443D01*
X72316243Y-75307754D01*
X72316241Y-75307753D01*
X72316240Y-75307753D01*
X72154957Y-75282208D01*
X72106287Y-75274500D01*
X71893713Y-75274500D01*
X71845042Y-75282208D01*
X71683760Y-75307753D01*
X71481585Y-75373444D01*
X71292179Y-75469951D01*
X71120215Y-75594889D01*
X70981398Y-75733706D01*
X70920075Y-75767190D01*
X70850383Y-75762206D01*
X70794450Y-75720334D01*
X70788178Y-75711120D01*
X70692712Y-75556344D01*
X70568657Y-75432289D01*
X70568656Y-75432288D01*
X70419334Y-75340186D01*
X70252797Y-75285001D01*
X70252795Y-75285000D01*
X70150010Y-75274500D01*
X68849998Y-75274500D01*
X68849981Y-75274501D01*
X68747203Y-75285000D01*
X68747200Y-75285001D01*
X68580668Y-75340185D01*
X68580663Y-75340187D01*
X68431342Y-75432289D01*
X68307289Y-75556342D01*
X68215187Y-75705663D01*
X68215185Y-75705668D01*
X68210325Y-75720334D01*
X68160001Y-75872203D01*
X68160001Y-75872204D01*
X68160000Y-75872204D01*
X68149500Y-75974983D01*
X63543807Y-75974983D01*
X63549999Y-75912116D01*
X63549999Y-75587885D01*
X63518219Y-75265209D01*
X63454962Y-74947203D01*
X63360840Y-74636921D01*
X63236759Y-74337364D01*
X63236757Y-74337359D01*
X63083923Y-74051427D01*
X63083912Y-74051409D01*
X62903776Y-73781817D01*
X62754107Y-73599445D01*
X62754106Y-73599444D01*
X61544249Y-74809301D01*
X61470411Y-74707671D01*
X61292329Y-74529589D01*
X61190697Y-74455749D01*
X62400554Y-73245892D01*
X62400553Y-73245891D01*
X62218182Y-73096223D01*
X62074168Y-72999996D01*
X64981935Y-72999996D01*
X64981935Y-73000003D01*
X65002130Y-73179249D01*
X65002131Y-73179254D01*
X65061711Y-73349523D01*
X65157684Y-73502262D01*
X65285238Y-73629816D01*
X65437978Y-73725789D01*
X65598091Y-73781815D01*
X65608245Y-73785368D01*
X65608250Y-73785369D01*
X65787496Y-73805565D01*
X65787500Y-73805565D01*
X65787504Y-73805565D01*
X65966749Y-73785369D01*
X65966752Y-73785368D01*
X65966755Y-73785368D01*
X66137022Y-73725789D01*
X66289762Y-73629816D01*
X66417316Y-73502262D01*
X66513289Y-73349522D01*
X66572868Y-73179255D01*
X66573345Y-73175020D01*
X66593065Y-73000003D01*
X66593065Y-72999996D01*
X66572869Y-72820750D01*
X66572868Y-72820745D01*
X66559533Y-72782636D01*
X66513289Y-72650478D01*
X66501178Y-72631204D01*
X66457628Y-72561894D01*
X66417316Y-72497738D01*
X66289762Y-72370184D01*
X66254184Y-72347829D01*
X66137023Y-72274211D01*
X65966754Y-72214631D01*
X65966749Y-72214630D01*
X65787504Y-72194435D01*
X65787496Y-72194435D01*
X65608250Y-72214630D01*
X65608245Y-72214631D01*
X65437976Y-72274211D01*
X65285237Y-72370184D01*
X65157684Y-72497737D01*
X65061711Y-72650476D01*
X65002131Y-72820745D01*
X65002130Y-72820750D01*
X64981935Y-72999996D01*
X62074168Y-72999996D01*
X61948590Y-72916087D01*
X61948572Y-72916076D01*
X61662640Y-72763242D01*
X61662635Y-72763240D01*
X61363078Y-72639159D01*
X61052796Y-72545037D01*
X60734790Y-72481780D01*
X60412115Y-72450001D01*
X60087883Y-72450001D01*
X59765206Y-72481780D01*
X59447200Y-72545037D01*
X59136919Y-72639159D01*
X58837362Y-72763240D01*
X58837357Y-72763242D01*
X58551425Y-72916076D01*
X58551407Y-72916087D01*
X58281816Y-73096222D01*
X58105543Y-73240886D01*
X58041233Y-73268198D01*
X57972366Y-73256407D01*
X57920806Y-73209254D01*
X57902923Y-73141712D01*
X57910697Y-73101701D01*
X57924369Y-73065046D01*
X57985196Y-72785428D01*
X58005610Y-72500000D01*
X57985196Y-72214572D01*
X57980815Y-72194435D01*
X57965711Y-72125000D01*
X68019815Y-72125000D01*
X68038503Y-72302805D01*
X68038504Y-72302807D01*
X68093747Y-72472829D01*
X68093750Y-72472835D01*
X68183141Y-72627665D01*
X68203682Y-72650478D01*
X68302764Y-72760521D01*
X68302767Y-72760523D01*
X68302770Y-72760526D01*
X68447407Y-72865612D01*
X68610733Y-72938329D01*
X68785609Y-72975500D01*
X68785610Y-72975500D01*
X68964389Y-72975500D01*
X68964391Y-72975500D01*
X69139267Y-72938329D01*
X69302593Y-72865612D01*
X69358878Y-72824716D01*
X69424682Y-72801237D01*
X69482199Y-72811755D01*
X69485733Y-72813329D01*
X69660609Y-72850500D01*
X69660610Y-72850500D01*
X69839389Y-72850500D01*
X69839391Y-72850500D01*
X70014267Y-72813329D01*
X70014272Y-72813326D01*
X70018654Y-72811903D01*
X70088495Y-72809904D01*
X70148329Y-72845981D01*
X70179161Y-72908681D01*
X70171200Y-72978095D01*
X70155932Y-73004558D01*
X70062317Y-73128524D01*
X69965212Y-73323537D01*
X69905592Y-73533081D01*
X69885492Y-73749999D01*
X69885492Y-73750000D01*
X69905592Y-73966918D01*
X69905592Y-73966920D01*
X69905593Y-73966923D01*
X69957683Y-74150001D01*
X69965212Y-74176462D01*
X70038859Y-74324364D01*
X70062316Y-74371472D01*
X70193601Y-74545322D01*
X70354596Y-74692088D01*
X70354603Y-74692092D01*
X70354604Y-74692093D01*
X70539814Y-74806770D01*
X70539820Y-74806773D01*
X70562692Y-74815633D01*
X70742959Y-74885470D01*
X70957102Y-74925500D01*
X70957104Y-74925500D01*
X71174952Y-74925500D01*
X71174954Y-74925500D01*
X71389097Y-74885470D01*
X71592238Y-74806772D01*
X71777460Y-74692088D01*
X71788435Y-74682082D01*
X71851235Y-74651463D01*
X71920622Y-74659657D01*
X71971242Y-74699405D01*
X72033480Y-74782544D01*
X72033483Y-74782547D01*
X72148692Y-74868793D01*
X72148699Y-74868797D01*
X72283545Y-74919091D01*
X72283544Y-74919091D01*
X72290472Y-74919835D01*
X72343155Y-74925500D01*
X73788900Y-74925499D01*
X73848511Y-74919091D01*
X73983359Y-74868796D01*
X74098574Y-74782546D01*
X74184824Y-74667331D01*
X74235119Y-74532483D01*
X74241528Y-74472873D01*
X74241527Y-73027128D01*
X74235119Y-72967517D01*
X74230330Y-72954678D01*
X74184825Y-72832671D01*
X74184821Y-72832664D01*
X74098575Y-72717455D01*
X74098572Y-72717452D01*
X73983363Y-72631206D01*
X73983356Y-72631202D01*
X73848510Y-72580908D01*
X73848511Y-72580908D01*
X73788911Y-72574501D01*
X73788909Y-72574500D01*
X73788901Y-72574500D01*
X73788892Y-72574500D01*
X72343157Y-72574500D01*
X72343151Y-72574501D01*
X72283544Y-72580908D01*
X72148699Y-72631202D01*
X72148692Y-72631206D01*
X72033483Y-72717452D01*
X71971242Y-72800594D01*
X71915307Y-72842465D01*
X71845616Y-72847448D01*
X71788439Y-72817920D01*
X71777462Y-72807913D01*
X71777457Y-72807910D01*
X71592241Y-72693229D01*
X71592235Y-72693226D01*
X71507141Y-72660260D01*
X71389097Y-72614530D01*
X71174954Y-72574500D01*
X70957102Y-72574500D01*
X70742959Y-72614530D01*
X70742956Y-72614530D01*
X70742956Y-72614531D01*
X70600040Y-72669897D01*
X70530417Y-72675759D01*
X70468677Y-72643049D01*
X70434422Y-72582152D01*
X70438529Y-72512403D01*
X70447857Y-72492274D01*
X70531250Y-72347835D01*
X70586497Y-72177803D01*
X70600467Y-72044885D01*
X80945034Y-72044885D01*
X80945034Y-72044890D01*
X80964858Y-72271487D01*
X80964860Y-72271498D01*
X81023730Y-72491205D01*
X81023735Y-72491219D01*
X81119863Y-72697366D01*
X81170974Y-72770360D01*
X81850000Y-72091334D01*
X81850000Y-72097549D01*
X81877259Y-72199282D01*
X81929920Y-72290494D01*
X82004394Y-72364968D01*
X82095606Y-72417629D01*
X82197339Y-72444888D01*
X82203553Y-72444888D01*
X81524526Y-73123913D01*
X81597513Y-73175020D01*
X81597521Y-73175024D01*
X81803668Y-73271152D01*
X81803682Y-73271157D01*
X82023389Y-73330027D01*
X82023400Y-73330029D01*
X82249998Y-73349854D01*
X82250002Y-73349854D01*
X82476599Y-73330029D01*
X82476610Y-73330027D01*
X82696317Y-73271157D01*
X82696331Y-73271152D01*
X82902478Y-73175024D01*
X82975471Y-73123912D01*
X82296447Y-72444888D01*
X82302661Y-72444888D01*
X82404394Y-72417629D01*
X82495606Y-72364968D01*
X82570080Y-72290494D01*
X82622741Y-72199282D01*
X82650000Y-72097549D01*
X82650000Y-72091335D01*
X82965664Y-72406999D01*
X83209191Y-72406999D01*
X83276230Y-72426684D01*
X83296872Y-72443318D01*
X83434447Y-72580893D01*
X83476265Y-72491214D01*
X83476269Y-72491205D01*
X83535139Y-72271498D01*
X83535141Y-72271487D01*
X83554966Y-72044890D01*
X83554966Y-72044885D01*
X83535141Y-71818288D01*
X83535139Y-71818277D01*
X83476269Y-71598570D01*
X83476265Y-71598561D01*
X83380133Y-71392404D01*
X83380129Y-71392398D01*
X83271433Y-71237165D01*
X83249105Y-71170959D01*
X83266115Y-71103192D01*
X83317062Y-71055378D01*
X83385772Y-71042700D01*
X83386891Y-71042821D01*
X83499997Y-71055565D01*
X83500000Y-71055565D01*
X83500004Y-71055565D01*
X83679249Y-71035369D01*
X83679252Y-71035368D01*
X83679255Y-71035368D01*
X83849522Y-70975789D01*
X84002262Y-70879816D01*
X84129816Y-70752262D01*
X84225789Y-70599522D01*
X84285368Y-70429255D01*
X84289480Y-70392760D01*
X84305565Y-70250003D01*
X84305565Y-70249996D01*
X84285369Y-70070750D01*
X84285368Y-70070745D01*
X84225788Y-69900475D01*
X84172691Y-69815973D01*
X84153690Y-69748736D01*
X84172691Y-69684027D01*
X84225788Y-69599524D01*
X84285368Y-69429254D01*
X84285369Y-69429249D01*
X84305565Y-69250003D01*
X84305565Y-69249996D01*
X84285369Y-69070750D01*
X84285368Y-69070745D01*
X84225788Y-68900476D01*
X84153461Y-68785369D01*
X84129816Y-68747738D01*
X84002262Y-68620184D01*
X83954126Y-68589938D01*
X83849523Y-68524211D01*
X83679254Y-68464631D01*
X83679249Y-68464630D01*
X83498968Y-68444318D01*
X83434554Y-68417252D01*
X83413588Y-68395413D01*
X83407546Y-68387342D01*
X83292331Y-68301092D01*
X83292329Y-68301091D01*
X83292328Y-68301090D01*
X83157482Y-68250796D01*
X83157483Y-68250796D01*
X83097883Y-68244389D01*
X83097881Y-68244388D01*
X83097873Y-68244388D01*
X83097865Y-68244388D01*
X83046291Y-68244388D01*
X82979252Y-68224703D01*
X82933497Y-68171899D01*
X82923553Y-68102741D01*
X82941297Y-68054416D01*
X82963358Y-68019306D01*
X82975789Y-67999522D01*
X83035368Y-67829255D01*
X83035369Y-67829249D01*
X83055565Y-67650003D01*
X83055565Y-67649996D01*
X83035369Y-67470750D01*
X83035368Y-67470745D01*
X82989476Y-67339593D01*
X82975789Y-67300478D01*
X82879816Y-67147738D01*
X82752262Y-67020184D01*
X82718553Y-66999003D01*
X82599523Y-66924211D01*
X82429254Y-66864631D01*
X82429249Y-66864630D01*
X82250004Y-66844435D01*
X82249996Y-66844435D01*
X82070750Y-66864630D01*
X82070745Y-66864631D01*
X81900476Y-66924211D01*
X81747737Y-67020184D01*
X81620184Y-67147737D01*
X81524211Y-67300476D01*
X81464631Y-67470745D01*
X81464630Y-67470750D01*
X81444435Y-67649996D01*
X81444435Y-67650003D01*
X81464630Y-67829249D01*
X81464631Y-67829254D01*
X81524211Y-67999523D01*
X81558703Y-68054416D01*
X81577703Y-68121653D01*
X81557335Y-68188488D01*
X81504067Y-68233702D01*
X81453711Y-68244388D01*
X81402130Y-68244388D01*
X81402123Y-68244389D01*
X81342516Y-68250796D01*
X81207671Y-68301090D01*
X81207664Y-68301094D01*
X81092455Y-68387340D01*
X81092452Y-68387343D01*
X81006206Y-68502552D01*
X81006202Y-68502559D01*
X80955908Y-68637405D01*
X80949501Y-68697004D01*
X80949500Y-68697023D01*
X80949500Y-70392758D01*
X80949501Y-70392764D01*
X80955908Y-70452371D01*
X81006202Y-70587216D01*
X81006206Y-70587223D01*
X81092452Y-70702432D01*
X81092455Y-70702435D01*
X81207664Y-70788681D01*
X81207671Y-70788685D01*
X81252618Y-70805449D01*
X81342517Y-70838979D01*
X81402127Y-70845388D01*
X81402153Y-70845387D01*
X81405453Y-70845566D01*
X81405372Y-70847071D01*
X81466672Y-70865000D01*
X81512483Y-70917755D01*
X81520016Y-70961352D01*
X82203553Y-71644888D01*
X82197339Y-71644888D01*
X82095606Y-71672147D01*
X82004394Y-71724808D01*
X81929920Y-71799282D01*
X81877259Y-71890494D01*
X81850000Y-71992227D01*
X81850000Y-71998440D01*
X81170974Y-71319414D01*
X81170973Y-71319414D01*
X81119868Y-71392400D01*
X81119866Y-71392404D01*
X81023734Y-71598561D01*
X81023730Y-71598570D01*
X80964860Y-71818277D01*
X80964858Y-71818288D01*
X80945034Y-72044885D01*
X70600467Y-72044885D01*
X70605185Y-72000000D01*
X70586497Y-71822197D01*
X70531250Y-71652165D01*
X70441859Y-71497335D01*
X70395003Y-71445296D01*
X70322235Y-71364478D01*
X70322232Y-71364476D01*
X70322231Y-71364475D01*
X70322230Y-71364474D01*
X70177593Y-71259388D01*
X70014267Y-71186671D01*
X70014265Y-71186670D01*
X69886594Y-71159533D01*
X69839391Y-71149500D01*
X69660609Y-71149500D01*
X69629954Y-71156015D01*
X69485733Y-71186670D01*
X69485728Y-71186672D01*
X69322408Y-71259388D01*
X69322403Y-71259390D01*
X69266121Y-71300282D01*
X69200315Y-71323762D01*
X69142804Y-71313245D01*
X69139271Y-71311672D01*
X69139266Y-71311670D01*
X69001561Y-71282400D01*
X68964391Y-71274500D01*
X68785609Y-71274500D01*
X68754954Y-71281015D01*
X68610733Y-71311670D01*
X68610728Y-71311672D01*
X68447408Y-71384387D01*
X68302768Y-71489475D01*
X68183140Y-71622336D01*
X68093750Y-71777164D01*
X68093747Y-71777170D01*
X68038504Y-71947192D01*
X68038503Y-71947194D01*
X68019815Y-72125000D01*
X57965711Y-72125000D01*
X57924371Y-71934962D01*
X57924370Y-71934960D01*
X57924369Y-71934954D01*
X57824367Y-71666839D01*
X57816354Y-71652165D01*
X57687229Y-71415690D01*
X57687224Y-71415682D01*
X57515745Y-71186612D01*
X57515729Y-71186594D01*
X57329131Y-70999996D01*
X62044435Y-70999996D01*
X62044435Y-71000003D01*
X62064630Y-71179249D01*
X62064631Y-71179254D01*
X62124211Y-71349523D01*
X62165782Y-71415682D01*
X62220184Y-71502262D01*
X62347738Y-71629816D01*
X62406650Y-71666833D01*
X62498916Y-71724808D01*
X62500478Y-71725789D01*
X62670745Y-71785368D01*
X62670750Y-71785369D01*
X62849996Y-71805565D01*
X62850000Y-71805565D01*
X62850004Y-71805565D01*
X63029249Y-71785369D01*
X63029252Y-71785368D01*
X63029255Y-71785368D01*
X63199522Y-71725789D01*
X63352262Y-71629816D01*
X63479816Y-71502262D01*
X63575789Y-71349522D01*
X63635368Y-71179255D01*
X63643938Y-71103192D01*
X63655565Y-71000003D01*
X63655565Y-70999996D01*
X63635369Y-70820750D01*
X63635368Y-70820745D01*
X63611405Y-70752262D01*
X63575789Y-70650478D01*
X63479816Y-70497738D01*
X63352262Y-70370184D01*
X63199523Y-70274211D01*
X63029254Y-70214631D01*
X63029249Y-70214630D01*
X62850004Y-70194435D01*
X62849996Y-70194435D01*
X62670750Y-70214630D01*
X62670745Y-70214631D01*
X62500476Y-70274211D01*
X62347737Y-70370184D01*
X62220184Y-70497737D01*
X62124211Y-70650476D01*
X62064631Y-70820745D01*
X62064630Y-70820750D01*
X62044435Y-70999996D01*
X57329131Y-70999996D01*
X57313405Y-70984270D01*
X57313387Y-70984254D01*
X57084317Y-70812775D01*
X57084309Y-70812770D01*
X56833166Y-70675635D01*
X56833167Y-70675635D01*
X56725915Y-70635632D01*
X56565046Y-70575631D01*
X56565043Y-70575630D01*
X56565037Y-70575628D01*
X56285433Y-70514804D01*
X56000001Y-70494390D01*
X55999999Y-70494390D01*
X55714566Y-70514804D01*
X55434962Y-70575628D01*
X55166833Y-70675635D01*
X54915690Y-70812770D01*
X54915682Y-70812775D01*
X54686612Y-70984254D01*
X54686594Y-70984270D01*
X54484270Y-71186594D01*
X54484254Y-71186612D01*
X54312775Y-71415682D01*
X54312770Y-71415690D01*
X54175635Y-71666833D01*
X54075628Y-71934962D01*
X54014804Y-72214566D01*
X53994390Y-72499998D01*
X53994390Y-72500001D01*
X54014804Y-72785433D01*
X54075628Y-73065037D01*
X54075630Y-73065043D01*
X54075631Y-73065046D01*
X54172045Y-73323541D01*
X54175635Y-73333166D01*
X54312770Y-73584309D01*
X54312775Y-73584317D01*
X54484254Y-73813387D01*
X54484270Y-73813405D01*
X54686594Y-74015729D01*
X54686612Y-74015745D01*
X54915682Y-74187224D01*
X54915690Y-74187229D01*
X55166833Y-74324364D01*
X55166832Y-74324364D01*
X55166836Y-74324365D01*
X55166839Y-74324367D01*
X55434954Y-74424369D01*
X55434960Y-74424370D01*
X55434962Y-74424371D01*
X55714566Y-74485195D01*
X55714568Y-74485195D01*
X55714572Y-74485196D01*
X55968220Y-74503337D01*
X55999999Y-74505610D01*
X56000000Y-74505610D01*
X56000001Y-74505610D01*
X56028595Y-74503564D01*
X56285428Y-74485196D01*
X56565046Y-74424369D01*
X56579085Y-74419132D01*
X56648772Y-74414147D01*
X56710096Y-74447630D01*
X56743582Y-74508952D01*
X56738600Y-74578644D01*
X56710098Y-74622995D01*
X55256331Y-76076762D01*
X55050637Y-76327401D01*
X55050627Y-76327415D01*
X54870500Y-76596993D01*
X54870489Y-76597011D01*
X54717657Y-76882943D01*
X54717650Y-76882957D01*
X54593573Y-77182501D01*
X54499449Y-77492788D01*
X54436194Y-77810790D01*
X54404415Y-78133469D01*
X54404415Y-78457700D01*
X54436194Y-78780379D01*
X54499449Y-79098381D01*
X54593573Y-79408668D01*
X54717650Y-79708212D01*
X54717657Y-79708226D01*
X54870489Y-79994158D01*
X54870500Y-79994176D01*
X54914275Y-80059689D01*
X54935153Y-80126366D01*
X54916669Y-80193746D01*
X54864690Y-80240437D01*
X54795720Y-80251613D01*
X54731656Y-80223728D01*
X54727830Y-80220395D01*
X54608648Y-80112210D01*
X54600057Y-80103607D01*
X54352273Y-79829850D01*
X54344566Y-79820447D01*
X54124777Y-79523736D01*
X54118029Y-79513624D01*
X53996728Y-79311022D01*
X53928358Y-79196828D01*
X53922634Y-79186108D01*
X53898092Y-79134165D01*
X53764891Y-78852243D01*
X53760245Y-78841013D01*
X53699205Y-78670253D01*
X53635961Y-78493325D01*
X53632435Y-78481691D01*
X53568321Y-78225500D01*
X53542790Y-78123480D01*
X53540426Y-78111586D01*
X53486288Y-77746308D01*
X53485100Y-77734237D01*
X53466900Y-77363516D01*
X53466752Y-77357338D01*
X53477407Y-67987993D01*
X66660833Y-67987993D01*
X66660833Y-67988000D01*
X66681028Y-68167246D01*
X66681029Y-68167251D01*
X66740609Y-68337520D01*
X66814782Y-68455565D01*
X66836582Y-68490259D01*
X66964136Y-68617813D01*
X67054478Y-68674579D01*
X67090167Y-68697004D01*
X67116876Y-68713786D01*
X67287143Y-68773365D01*
X67287148Y-68773366D01*
X67466394Y-68793562D01*
X67466398Y-68793562D01*
X67466402Y-68793562D01*
X67645647Y-68773366D01*
X67645650Y-68773365D01*
X67645653Y-68773365D01*
X67815920Y-68713786D01*
X67968660Y-68617813D01*
X68096214Y-68490259D01*
X68192187Y-68337519D01*
X68251766Y-68167252D01*
X68254256Y-68145158D01*
X68261178Y-68083720D01*
X68288244Y-68019306D01*
X68345839Y-67979751D01*
X68415676Y-67977613D01*
X68450368Y-67992608D01*
X68492857Y-68019306D01*
X68566183Y-68065381D01*
X68736453Y-68124961D01*
X68736458Y-68124962D01*
X68915704Y-68145158D01*
X68915708Y-68145158D01*
X68915712Y-68145158D01*
X69094957Y-68124962D01*
X69094960Y-68124961D01*
X69094963Y-68124961D01*
X69265230Y-68065382D01*
X69417970Y-67969409D01*
X69545524Y-67841855D01*
X69581645Y-67784369D01*
X73066308Y-67784369D01*
X73066308Y-67784376D01*
X73086503Y-67963622D01*
X73086504Y-67963627D01*
X73146084Y-68133896D01*
X73208797Y-68233702D01*
X73242057Y-68286635D01*
X73369611Y-68414189D01*
X73459953Y-68470955D01*
X73510247Y-68502557D01*
X73522351Y-68510162D01*
X73562501Y-68524211D01*
X73692618Y-68569741D01*
X73692623Y-68569742D01*
X73871869Y-68589938D01*
X73871873Y-68589938D01*
X73871877Y-68589938D01*
X74051122Y-68569742D01*
X74051125Y-68569741D01*
X74051128Y-68569741D01*
X74221395Y-68510162D01*
X74374135Y-68414189D01*
X74501689Y-68286635D01*
X74597662Y-68133895D01*
X74644515Y-67999996D01*
X75694435Y-67999996D01*
X75694435Y-68000003D01*
X75714630Y-68179249D01*
X75714631Y-68179254D01*
X75774211Y-68349523D01*
X75840842Y-68455565D01*
X75870184Y-68502262D01*
X75997738Y-68629816D01*
X76009816Y-68637405D01*
X76131373Y-68713785D01*
X76150478Y-68725789D01*
X76286445Y-68773366D01*
X76320745Y-68785368D01*
X76320750Y-68785369D01*
X76499996Y-68805565D01*
X76500000Y-68805565D01*
X76500004Y-68805565D01*
X76679249Y-68785369D01*
X76679252Y-68785368D01*
X76679255Y-68785368D01*
X76849522Y-68725789D01*
X77002262Y-68629816D01*
X77129816Y-68502262D01*
X77129818Y-68502259D01*
X77131160Y-68500577D01*
X77132304Y-68499773D01*
X77134741Y-68497337D01*
X77135167Y-68497763D01*
X77188346Y-68460432D01*
X77241996Y-68454663D01*
X77250000Y-68455565D01*
X77250001Y-68455564D01*
X77250002Y-68455565D01*
X77250004Y-68455565D01*
X77429249Y-68435369D01*
X77429251Y-68435368D01*
X77429255Y-68435368D01*
X77429258Y-68435366D01*
X77429262Y-68435366D01*
X77495840Y-68412068D01*
X77599522Y-68375789D01*
X77609028Y-68369815D01*
X77676263Y-68350815D01*
X77740971Y-68369815D01*
X77750478Y-68375789D01*
X77802318Y-68393928D01*
X77920737Y-68435366D01*
X77920743Y-68435367D01*
X77920745Y-68435368D01*
X77920746Y-68435368D01*
X77920750Y-68435369D01*
X78099996Y-68455565D01*
X78100000Y-68455565D01*
X78100004Y-68455565D01*
X78279249Y-68435369D01*
X78279252Y-68435368D01*
X78279255Y-68435368D01*
X78449522Y-68375789D01*
X78602262Y-68279816D01*
X78729816Y-68152262D01*
X78825789Y-67999522D01*
X78885368Y-67829255D01*
X78885369Y-67829249D01*
X78905565Y-67650003D01*
X78905565Y-67649996D01*
X78885369Y-67470750D01*
X78885368Y-67470745D01*
X78839476Y-67339593D01*
X78825789Y-67300478D01*
X78729816Y-67147738D01*
X78602262Y-67020184D01*
X78568553Y-66999003D01*
X78449523Y-66924211D01*
X78279254Y-66864631D01*
X78279249Y-66864630D01*
X78100004Y-66844435D01*
X78099996Y-66844435D01*
X77920750Y-66864630D01*
X77920745Y-66864631D01*
X77750474Y-66924212D01*
X77740968Y-66930185D01*
X77673731Y-66949183D01*
X77609032Y-66930185D01*
X77599525Y-66924212D01*
X77429254Y-66864631D01*
X77429249Y-66864630D01*
X77250004Y-66844435D01*
X77249996Y-66844435D01*
X77070750Y-66864630D01*
X77070745Y-66864631D01*
X76900476Y-66924211D01*
X76747737Y-67020184D01*
X76620179Y-67147742D01*
X76618828Y-67149437D01*
X76617677Y-67150244D01*
X76615260Y-67152662D01*
X76614836Y-67152238D01*
X76561636Y-67189573D01*
X76508010Y-67195337D01*
X76500001Y-67194435D01*
X76499996Y-67194435D01*
X76320750Y-67214630D01*
X76320745Y-67214631D01*
X76150476Y-67274211D01*
X75997737Y-67370184D01*
X75870184Y-67497737D01*
X75774211Y-67650476D01*
X75714631Y-67820745D01*
X75714630Y-67820750D01*
X75694435Y-67999996D01*
X74644515Y-67999996D01*
X74657241Y-67963628D01*
X74657242Y-67963622D01*
X74677438Y-67784376D01*
X74677438Y-67784369D01*
X74657242Y-67605123D01*
X74657241Y-67605118D01*
X74615467Y-67485734D01*
X74597662Y-67434851D01*
X74501689Y-67282111D01*
X74374135Y-67154557D01*
X74339703Y-67132922D01*
X74221396Y-67058584D01*
X74051127Y-66999004D01*
X74051122Y-66999003D01*
X73871877Y-66978808D01*
X73871869Y-66978808D01*
X73692623Y-66999003D01*
X73692618Y-66999004D01*
X73522349Y-67058584D01*
X73369610Y-67154557D01*
X73242057Y-67282110D01*
X73146084Y-67434849D01*
X73086504Y-67605118D01*
X73086503Y-67605123D01*
X73066308Y-67784369D01*
X69581645Y-67784369D01*
X69641497Y-67689115D01*
X69701076Y-67518848D01*
X69704807Y-67485734D01*
X69721273Y-67339596D01*
X69721273Y-67339589D01*
X69701077Y-67160343D01*
X69701076Y-67160338D01*
X69641496Y-66990069D01*
X69562678Y-66864632D01*
X69545524Y-66837331D01*
X69417970Y-66709777D01*
X69397758Y-66697077D01*
X69265231Y-66613804D01*
X69094962Y-66554224D01*
X69094957Y-66554223D01*
X68915712Y-66534028D01*
X68915704Y-66534028D01*
X68736458Y-66554223D01*
X68736453Y-66554224D01*
X68566184Y-66613804D01*
X68413445Y-66709777D01*
X68285892Y-66837330D01*
X68189919Y-66990069D01*
X68130339Y-67160338D01*
X68130338Y-67160342D01*
X68120927Y-67243870D01*
X68093860Y-67308284D01*
X68036265Y-67347839D01*
X67966428Y-67349976D01*
X67931734Y-67334979D01*
X67815922Y-67262208D01*
X67645652Y-67202628D01*
X67645647Y-67202627D01*
X67466402Y-67182432D01*
X67466394Y-67182432D01*
X67287148Y-67202627D01*
X67287143Y-67202628D01*
X67116874Y-67262208D01*
X66964135Y-67358181D01*
X66836582Y-67485734D01*
X66740609Y-67638473D01*
X66681029Y-67808742D01*
X66681028Y-67808747D01*
X66660833Y-67987993D01*
X53477407Y-67987993D01*
X53479272Y-66347550D01*
X84346881Y-66347550D01*
X84346881Y-66347557D01*
X84367076Y-66526803D01*
X84367077Y-66526808D01*
X84426657Y-66697077D01*
X84514785Y-66837331D01*
X84522630Y-66849816D01*
X84650184Y-66977370D01*
X84684616Y-66999005D01*
X84774630Y-67055565D01*
X84802924Y-67073343D01*
X84973191Y-67132922D01*
X84973196Y-67132923D01*
X85152442Y-67153119D01*
X85152446Y-67153119D01*
X85152450Y-67153119D01*
X85331695Y-67132923D01*
X85331698Y-67132922D01*
X85331701Y-67132922D01*
X85501968Y-67073343D01*
X85604249Y-67009075D01*
X85671484Y-66990075D01*
X85711175Y-66997028D01*
X85820737Y-67035366D01*
X85820743Y-67035367D01*
X85820745Y-67035368D01*
X85820746Y-67035368D01*
X85820750Y-67035369D01*
X85999996Y-67055565D01*
X86000000Y-67055565D01*
X86000004Y-67055565D01*
X86179249Y-67035369D01*
X86179252Y-67035368D01*
X86179255Y-67035368D01*
X86349522Y-66975789D01*
X86502262Y-66879816D01*
X86629816Y-66752262D01*
X86725789Y-66599522D01*
X86785368Y-66429255D01*
X86794573Y-66347557D01*
X86805565Y-66250003D01*
X86805565Y-66249996D01*
X86785369Y-66070750D01*
X86785368Y-66070745D01*
X86761405Y-66002262D01*
X86725789Y-65900478D01*
X86629816Y-65747738D01*
X86502262Y-65620184D01*
X86451801Y-65588477D01*
X86349523Y-65524211D01*
X86179254Y-65464631D01*
X86179249Y-65464630D01*
X86000004Y-65444435D01*
X85999996Y-65444435D01*
X85820750Y-65464630D01*
X85820745Y-65464631D01*
X85650474Y-65524212D01*
X85548196Y-65588477D01*
X85480959Y-65607477D01*
X85441271Y-65600525D01*
X85331698Y-65562185D01*
X85152450Y-65541989D01*
X85152442Y-65541989D01*
X84973196Y-65562184D01*
X84973191Y-65562185D01*
X84802922Y-65621765D01*
X84650183Y-65717738D01*
X84522630Y-65845291D01*
X84426657Y-65998030D01*
X84367077Y-66168299D01*
X84367076Y-66168304D01*
X84346881Y-66347550D01*
X53479272Y-66347550D01*
X53480236Y-65499996D01*
X64782553Y-65499996D01*
X64782553Y-65500003D01*
X64802748Y-65679249D01*
X64802749Y-65679254D01*
X64862329Y-65849523D01*
X64955643Y-65998030D01*
X64958302Y-66002262D01*
X65085856Y-66129816D01*
X65238596Y-66225789D01*
X65307796Y-66250003D01*
X65408863Y-66285368D01*
X65408868Y-66285369D01*
X65588114Y-66305565D01*
X65588118Y-66305565D01*
X65588122Y-66305565D01*
X65767367Y-66285369D01*
X65767370Y-66285368D01*
X65767373Y-66285368D01*
X65937640Y-66225789D01*
X66090380Y-66129816D01*
X66217934Y-66002262D01*
X66313907Y-65849522D01*
X66373486Y-65679255D01*
X66379964Y-65621765D01*
X66393683Y-65500003D01*
X66393683Y-65499996D01*
X66373487Y-65320750D01*
X66373486Y-65320745D01*
X66320991Y-65170723D01*
X66313907Y-65150478D01*
X66296137Y-65122198D01*
X66228887Y-65015170D01*
X66217934Y-64997738D01*
X66163136Y-64942940D01*
X66664491Y-64942940D01*
X66664491Y-64942947D01*
X66684686Y-65122193D01*
X66684687Y-65122198D01*
X66744267Y-65292467D01*
X66762039Y-65320750D01*
X66840240Y-65445206D01*
X66967794Y-65572760D01*
X67120534Y-65668733D01*
X67260582Y-65717738D01*
X67290801Y-65728312D01*
X67290806Y-65728313D01*
X67470052Y-65748509D01*
X67470056Y-65748509D01*
X67470060Y-65748509D01*
X67649305Y-65728313D01*
X67649308Y-65728312D01*
X67649311Y-65728312D01*
X67819578Y-65668733D01*
X67972318Y-65572760D01*
X68099872Y-65445206D01*
X68195845Y-65292466D01*
X68255424Y-65122199D01*
X68257869Y-65100498D01*
X68275621Y-64942947D01*
X68275621Y-64942940D01*
X68255425Y-64763694D01*
X68255424Y-64763689D01*
X68238258Y-64714631D01*
X68195845Y-64593422D01*
X68099872Y-64440682D01*
X68044540Y-64385350D01*
X83754433Y-64385350D01*
X83754433Y-64385357D01*
X83774628Y-64564603D01*
X83774629Y-64564608D01*
X83834209Y-64734877D01*
X83886852Y-64818657D01*
X83930182Y-64887616D01*
X84057736Y-65015170D01*
X84126979Y-65058678D01*
X84193537Y-65100500D01*
X84210476Y-65111143D01*
X84322889Y-65150478D01*
X84380743Y-65170722D01*
X84380748Y-65170723D01*
X84559994Y-65190919D01*
X84559998Y-65190919D01*
X84560002Y-65190919D01*
X84739247Y-65170723D01*
X84739250Y-65170722D01*
X84739253Y-65170722D01*
X84909520Y-65111143D01*
X85062260Y-65015170D01*
X85189814Y-64887616D01*
X85285787Y-64734876D01*
X85345366Y-64564609D01*
X85345367Y-64564603D01*
X85365563Y-64385357D01*
X85365563Y-64385350D01*
X85345367Y-64206104D01*
X85345366Y-64206099D01*
X85285786Y-64035830D01*
X85189813Y-63883091D01*
X85062260Y-63755538D01*
X84909521Y-63659565D01*
X84739252Y-63599985D01*
X84739247Y-63599984D01*
X84560002Y-63579789D01*
X84559994Y-63579789D01*
X84380748Y-63599984D01*
X84380743Y-63599985D01*
X84210474Y-63659565D01*
X84057735Y-63755538D01*
X83930182Y-63883091D01*
X83834209Y-64035830D01*
X83774629Y-64206099D01*
X83774628Y-64206104D01*
X83754433Y-64385350D01*
X68044540Y-64385350D01*
X67972318Y-64313128D01*
X67819579Y-64217155D01*
X67649310Y-64157575D01*
X67649305Y-64157574D01*
X67470060Y-64137379D01*
X67470052Y-64137379D01*
X67290806Y-64157574D01*
X67290801Y-64157575D01*
X67120532Y-64217155D01*
X66967793Y-64313128D01*
X66840240Y-64440681D01*
X66744267Y-64593420D01*
X66684687Y-64763689D01*
X66684686Y-64763694D01*
X66664491Y-64942940D01*
X66163136Y-64942940D01*
X66090380Y-64870184D01*
X65937641Y-64774211D01*
X65767372Y-64714631D01*
X65767367Y-64714630D01*
X65588122Y-64694435D01*
X65588114Y-64694435D01*
X65408868Y-64714630D01*
X65408863Y-64714631D01*
X65238594Y-64774211D01*
X65085855Y-64870184D01*
X64958302Y-64997737D01*
X64862329Y-65150476D01*
X64802749Y-65320745D01*
X64802748Y-65320750D01*
X64782553Y-65499996D01*
X53480236Y-65499996D01*
X53483647Y-62499996D01*
X54444435Y-62499996D01*
X54444435Y-62500003D01*
X54464630Y-62679249D01*
X54464631Y-62679254D01*
X54524211Y-62849523D01*
X54617003Y-62997200D01*
X54620184Y-63002262D01*
X54747738Y-63129816D01*
X54900478Y-63225789D01*
X55070745Y-63285368D01*
X55070750Y-63285369D01*
X55249996Y-63305565D01*
X55250000Y-63305565D01*
X55250004Y-63305565D01*
X55429249Y-63285369D01*
X55429252Y-63285368D01*
X55429255Y-63285368D01*
X55599522Y-63225789D01*
X55752262Y-63129816D01*
X55879816Y-63002262D01*
X55975789Y-62849522D01*
X56035368Y-62679255D01*
X56042827Y-62613056D01*
X56055565Y-62500003D01*
X56055565Y-62499996D01*
X56035369Y-62320750D01*
X56035368Y-62320745D01*
X56017122Y-62268600D01*
X55975789Y-62150478D01*
X55962787Y-62129786D01*
X55879815Y-61997737D01*
X55752262Y-61870184D01*
X55599523Y-61774211D01*
X55429254Y-61714631D01*
X55429249Y-61714630D01*
X55250004Y-61694435D01*
X55249996Y-61694435D01*
X55070750Y-61714630D01*
X55070745Y-61714631D01*
X54900476Y-61774211D01*
X54747737Y-61870184D01*
X54620184Y-61997737D01*
X54524211Y-62150476D01*
X54464631Y-62320745D01*
X54464630Y-62320750D01*
X54444435Y-62499996D01*
X53483647Y-62499996D01*
X53485817Y-60591415D01*
X56299500Y-60591415D01*
X56299500Y-61891433D01*
X56299501Y-61891450D01*
X56310000Y-61994228D01*
X56310001Y-61994231D01*
X56354920Y-62129786D01*
X56365186Y-62160766D01*
X56457081Y-62309753D01*
X56457289Y-62310089D01*
X56581344Y-62434144D01*
X56736120Y-62529610D01*
X56782845Y-62581558D01*
X56794068Y-62650520D01*
X56766224Y-62714603D01*
X56758706Y-62722830D01*
X56619889Y-62861647D01*
X56494951Y-63033611D01*
X56398444Y-63223017D01*
X56332753Y-63425192D01*
X56305069Y-63599984D01*
X56299500Y-63635145D01*
X56299500Y-63847719D01*
X56332754Y-64057675D01*
X56384572Y-64217155D01*
X56398444Y-64259846D01*
X56494951Y-64449252D01*
X56619890Y-64621218D01*
X56770213Y-64771541D01*
X56942179Y-64896480D01*
X56942181Y-64896481D01*
X56942184Y-64896483D01*
X57131588Y-64992989D01*
X57333757Y-65058678D01*
X57543713Y-65091932D01*
X57543714Y-65091932D01*
X58056286Y-65091932D01*
X58056287Y-65091932D01*
X58266243Y-65058678D01*
X58468412Y-64992989D01*
X58657816Y-64896483D01*
X58694014Y-64870184D01*
X58829786Y-64771541D01*
X58829788Y-64771538D01*
X58829792Y-64771536D01*
X58980104Y-64621224D01*
X58980106Y-64621220D01*
X58980109Y-64621218D01*
X59105048Y-64449252D01*
X59105047Y-64449252D01*
X59105051Y-64449248D01*
X59201557Y-64259844D01*
X59267246Y-64057675D01*
X59300500Y-63847719D01*
X59300500Y-63635145D01*
X59267246Y-63425189D01*
X59201557Y-63223020D01*
X59105051Y-63033616D01*
X59105049Y-63033613D01*
X59105048Y-63033611D01*
X58980109Y-62861645D01*
X58841294Y-62722830D01*
X58807809Y-62661507D01*
X58812793Y-62591815D01*
X58854665Y-62535882D01*
X58863879Y-62529610D01*
X58869331Y-62526246D01*
X58869334Y-62526246D01*
X59018656Y-62434144D01*
X59142712Y-62310088D01*
X59234814Y-62160766D01*
X59289999Y-61994229D01*
X59300500Y-61891441D01*
X59300500Y-61807487D01*
X76407251Y-61807487D01*
X76407251Y-61807494D01*
X76427446Y-61986740D01*
X76427447Y-61986745D01*
X76487027Y-62157014D01*
X76489383Y-62160763D01*
X76583000Y-62309753D01*
X76710554Y-62437307D01*
X76863294Y-62533280D01*
X76931905Y-62557288D01*
X77033561Y-62592859D01*
X77033566Y-62592860D01*
X77212812Y-62613056D01*
X77212816Y-62613056D01*
X77212820Y-62613056D01*
X77392065Y-62592860D01*
X77392068Y-62592859D01*
X77392071Y-62592859D01*
X77562338Y-62533280D01*
X77715078Y-62437307D01*
X77842632Y-62309753D01*
X77938605Y-62157013D01*
X77998184Y-61986746D01*
X78001444Y-61957816D01*
X78018381Y-61807494D01*
X78018381Y-61807487D01*
X77998185Y-61628241D01*
X77998184Y-61628236D01*
X77938604Y-61457967D01*
X77842631Y-61305228D01*
X77715078Y-61177675D01*
X77661028Y-61143713D01*
X87199500Y-61143713D01*
X87199500Y-61356287D01*
X87232754Y-61566243D01*
X87280968Y-61714631D01*
X87298444Y-61768414D01*
X87394951Y-61957820D01*
X87519890Y-62129786D01*
X87658705Y-62268601D01*
X87692190Y-62329924D01*
X87687206Y-62399616D01*
X87645334Y-62455549D01*
X87636121Y-62461821D01*
X87481342Y-62557289D01*
X87357289Y-62681342D01*
X87265187Y-62830663D01*
X87265185Y-62830668D01*
X87254920Y-62861647D01*
X87210001Y-62997203D01*
X87210001Y-62997204D01*
X87210000Y-62997204D01*
X87199500Y-63099983D01*
X87199500Y-64400001D01*
X87199501Y-64400018D01*
X87210000Y-64502796D01*
X87210001Y-64502799D01*
X87240031Y-64593422D01*
X87265186Y-64669334D01*
X87357288Y-64818656D01*
X87481344Y-64942712D01*
X87630666Y-65034814D01*
X87797203Y-65089999D01*
X87899991Y-65100500D01*
X89500008Y-65100499D01*
X89602797Y-65089999D01*
X89769334Y-65034814D01*
X89918656Y-64942712D01*
X90042712Y-64818656D01*
X90134814Y-64669334D01*
X90189999Y-64502797D01*
X90200500Y-64400009D01*
X90200499Y-63099992D01*
X90189999Y-62997203D01*
X90134814Y-62830666D01*
X90042712Y-62681344D01*
X89918656Y-62557288D01*
X89769334Y-62465186D01*
X89769333Y-62465185D01*
X89763878Y-62461821D01*
X89717154Y-62409873D01*
X89705931Y-62340910D01*
X89733775Y-62276828D01*
X89741272Y-62268623D01*
X89880104Y-62129792D01*
X90005051Y-61957816D01*
X90101557Y-61768412D01*
X90167246Y-61566243D01*
X90200500Y-61356287D01*
X90200500Y-61143713D01*
X90167246Y-60933757D01*
X90101557Y-60731588D01*
X90005051Y-60542184D01*
X90005049Y-60542181D01*
X90005048Y-60542179D01*
X89880109Y-60370213D01*
X89729786Y-60219890D01*
X89557820Y-60094951D01*
X89368414Y-59998444D01*
X89368413Y-59998443D01*
X89368412Y-59998443D01*
X89166243Y-59932754D01*
X89166241Y-59932753D01*
X89166240Y-59932753D01*
X88968491Y-59901433D01*
X88956287Y-59899500D01*
X88443713Y-59899500D01*
X88431509Y-59901433D01*
X88233760Y-59932753D01*
X88160308Y-59956619D01*
X88081813Y-59982124D01*
X88031585Y-59998444D01*
X87842179Y-60094951D01*
X87670213Y-60219890D01*
X87519890Y-60370213D01*
X87394951Y-60542179D01*
X87298444Y-60731585D01*
X87232753Y-60933760D01*
X87203969Y-61115497D01*
X87199500Y-61143713D01*
X77661028Y-61143713D01*
X77562339Y-61081702D01*
X77392070Y-61022122D01*
X77392065Y-61022121D01*
X77212820Y-61001926D01*
X77212812Y-61001926D01*
X77033566Y-61022121D01*
X77033561Y-61022122D01*
X76863292Y-61081702D01*
X76710553Y-61177675D01*
X76583000Y-61305228D01*
X76487027Y-61457967D01*
X76427447Y-61628236D01*
X76427446Y-61628241D01*
X76407251Y-61807487D01*
X59300500Y-61807487D01*
X59300499Y-60613231D01*
X65906200Y-60613231D01*
X65906200Y-60613238D01*
X65926395Y-60792484D01*
X65926396Y-60792489D01*
X65985976Y-60962758D01*
X66023278Y-61022123D01*
X66081949Y-61115497D01*
X66209503Y-61243051D01*
X66362243Y-61339024D01*
X66411578Y-61356287D01*
X66532510Y-61398603D01*
X66532515Y-61398604D01*
X66711761Y-61418800D01*
X66711765Y-61418800D01*
X66711769Y-61418800D01*
X66891014Y-61398604D01*
X66891017Y-61398603D01*
X66891020Y-61398603D01*
X67061287Y-61339024D01*
X67214027Y-61243051D01*
X67341581Y-61115497D01*
X67437554Y-60962757D01*
X67497133Y-60792490D01*
X67497134Y-60792484D01*
X67517330Y-60613238D01*
X67517330Y-60613231D01*
X67497134Y-60433985D01*
X67497133Y-60433980D01*
X67435254Y-60257140D01*
X67438420Y-60256031D01*
X67429081Y-60201950D01*
X67447273Y-60150158D01*
X67484674Y-60090637D01*
X67490147Y-60074996D01*
X68794435Y-60074996D01*
X68794435Y-60075003D01*
X68814630Y-60254249D01*
X68814631Y-60254254D01*
X68874211Y-60424523D01*
X68957012Y-60556299D01*
X68970184Y-60577262D01*
X69097738Y-60704816D01*
X69164624Y-60746843D01*
X69237268Y-60792489D01*
X69250478Y-60800789D01*
X69389746Y-60849521D01*
X69420745Y-60860368D01*
X69420750Y-60860369D01*
X69599996Y-60880565D01*
X69600000Y-60880565D01*
X69600004Y-60880565D01*
X69779249Y-60860369D01*
X69779252Y-60860368D01*
X69779255Y-60860368D01*
X69949522Y-60800789D01*
X70102262Y-60704816D01*
X70229816Y-60577262D01*
X70325789Y-60424522D01*
X70385368Y-60254255D01*
X70386302Y-60245971D01*
X70402943Y-60098267D01*
X70404406Y-60085280D01*
X70431472Y-60020868D01*
X70489066Y-59981313D01*
X70558903Y-59979174D01*
X70568581Y-59982124D01*
X70727319Y-60037669D01*
X70726413Y-60040255D01*
X70776538Y-60068281D01*
X70795050Y-60094647D01*
X70795507Y-60094361D01*
X70799210Y-60100254D01*
X70799211Y-60100257D01*
X70895184Y-60252997D01*
X71022738Y-60380551D01*
X71175478Y-60476524D01*
X71249033Y-60502262D01*
X71345745Y-60536103D01*
X71345750Y-60536104D01*
X71448648Y-60547697D01*
X71525000Y-60556300D01*
X71525970Y-60556190D01*
X71526595Y-60556300D01*
X71531964Y-60556300D01*
X71531964Y-60557239D01*
X71594790Y-60568237D01*
X71646175Y-60615581D01*
X71663084Y-60665524D01*
X71664630Y-60679249D01*
X71664631Y-60679254D01*
X71664632Y-60679255D01*
X71672538Y-60701849D01*
X71724210Y-60849521D01*
X71791848Y-60957165D01*
X71820184Y-61002262D01*
X71947738Y-61129816D01*
X72100478Y-61225789D01*
X72270745Y-61285368D01*
X72270750Y-61285369D01*
X72449996Y-61305565D01*
X72450000Y-61305565D01*
X72450004Y-61305565D01*
X72629249Y-61285369D01*
X72629252Y-61285368D01*
X72629255Y-61285368D01*
X72799522Y-61225789D01*
X72952262Y-61129816D01*
X73079816Y-61002262D01*
X73175789Y-60849522D01*
X73235368Y-60679255D01*
X73239752Y-60640349D01*
X73255565Y-60500003D01*
X73255565Y-60499996D01*
X73235369Y-60320750D01*
X73235368Y-60320745D01*
X73213112Y-60257140D01*
X73175789Y-60150478D01*
X73079816Y-59997738D01*
X72952262Y-59870184D01*
X72799523Y-59774211D01*
X72629254Y-59714631D01*
X72629249Y-59714630D01*
X72450004Y-59694435D01*
X72450000Y-59694435D01*
X72449015Y-59694546D01*
X72448381Y-59694435D01*
X72443036Y-59694435D01*
X72443036Y-59693498D01*
X72380194Y-59682489D01*
X72328815Y-59635138D01*
X72311914Y-59585208D01*
X72310368Y-59571480D01*
X72250789Y-59401213D01*
X72248423Y-59397448D01*
X72180677Y-59289631D01*
X72154816Y-59248473D01*
X72027262Y-59120919D01*
X71982839Y-59093006D01*
X71874521Y-59024945D01*
X71785566Y-58993819D01*
X71704255Y-58965367D01*
X71704252Y-58965366D01*
X71697683Y-58963068D01*
X71698584Y-58960490D01*
X71648423Y-58932414D01*
X71629950Y-58906087D01*
X71629494Y-58906374D01*
X71566277Y-58805765D01*
X71529816Y-58747738D01*
X71402262Y-58620184D01*
X71363239Y-58595664D01*
X73291733Y-58595664D01*
X73291733Y-58595671D01*
X73311928Y-58774917D01*
X73311929Y-58774922D01*
X73371509Y-58945191D01*
X73450404Y-59070750D01*
X73467482Y-59097930D01*
X73595036Y-59225484D01*
X73747776Y-59321457D01*
X73855968Y-59359315D01*
X73918043Y-59381036D01*
X73918048Y-59381037D01*
X74097294Y-59401233D01*
X74097298Y-59401233D01*
X74097302Y-59401233D01*
X74276547Y-59381037D01*
X74276550Y-59381036D01*
X74276553Y-59381036D01*
X74446820Y-59321457D01*
X74599560Y-59225484D01*
X74727114Y-59097930D01*
X74727114Y-59097929D01*
X74732038Y-59093006D01*
X74733516Y-59094484D01*
X74782397Y-59060168D01*
X74852208Y-59057312D01*
X74912481Y-59092652D01*
X74944080Y-59154969D01*
X74945386Y-59163734D01*
X74964630Y-59334537D01*
X74964631Y-59334541D01*
X75024211Y-59504810D01*
X75074728Y-59585206D01*
X75120184Y-59657549D01*
X75247738Y-59785103D01*
X75304462Y-59820745D01*
X75398472Y-59879816D01*
X75400478Y-59881076D01*
X75512757Y-59920364D01*
X75570745Y-59940655D01*
X75570750Y-59940656D01*
X75749996Y-59960852D01*
X75750000Y-59960852D01*
X75750004Y-59960852D01*
X75929249Y-59940656D01*
X75929252Y-59940655D01*
X75929255Y-59940655D01*
X76055603Y-59896444D01*
X77547988Y-59896444D01*
X77547988Y-59896451D01*
X77568183Y-60075697D01*
X77568184Y-60075702D01*
X77627764Y-60245971D01*
X77692830Y-60349522D01*
X77723737Y-60398710D01*
X77851291Y-60526264D01*
X78004031Y-60622237D01*
X78127738Y-60665524D01*
X78174298Y-60681816D01*
X78174303Y-60681817D01*
X78353549Y-60702013D01*
X78353553Y-60702013D01*
X78353557Y-60702013D01*
X78532802Y-60681817D01*
X78532805Y-60681816D01*
X78532808Y-60681816D01*
X78532809Y-60681815D01*
X78532812Y-60681815D01*
X78584674Y-60663667D01*
X78685742Y-60628301D01*
X78755519Y-60624739D01*
X78792668Y-60640349D01*
X78895266Y-60704816D01*
X78911347Y-60714920D01*
X78996485Y-60744711D01*
X79081614Y-60774499D01*
X79081619Y-60774500D01*
X79260865Y-60794696D01*
X79260869Y-60794696D01*
X79260873Y-60794696D01*
X79440118Y-60774500D01*
X79440119Y-60774499D01*
X79440124Y-60774499D01*
X79519158Y-60746842D01*
X79588936Y-60743280D01*
X79647794Y-60776203D01*
X79653007Y-60781416D01*
X79683839Y-60800789D01*
X79761398Y-60849523D01*
X79805747Y-60877389D01*
X79966846Y-60933760D01*
X79976014Y-60936968D01*
X79976019Y-60936969D01*
X80155265Y-60957165D01*
X80155269Y-60957165D01*
X80155273Y-60957165D01*
X80334518Y-60936969D01*
X80334521Y-60936968D01*
X80334524Y-60936968D01*
X80504791Y-60877389D01*
X80657531Y-60781416D01*
X80657531Y-60781415D01*
X80657618Y-60781361D01*
X80724854Y-60762361D01*
X80764545Y-60769314D01*
X80810427Y-60785369D01*
X80989675Y-60805565D01*
X80989679Y-60805565D01*
X80989683Y-60805565D01*
X81168928Y-60785369D01*
X81168931Y-60785368D01*
X81168934Y-60785368D01*
X81339201Y-60725789D01*
X81491941Y-60629816D01*
X81619495Y-60502262D01*
X81715468Y-60349522D01*
X81775047Y-60179255D01*
X81775777Y-60172776D01*
X81795244Y-60000003D01*
X81795244Y-59999996D01*
X81775048Y-59820750D01*
X81775047Y-59820745D01*
X81747182Y-59741111D01*
X81715468Y-59650478D01*
X81619495Y-59497738D01*
X81491941Y-59370184D01*
X81453508Y-59346035D01*
X81339202Y-59274211D01*
X81168933Y-59214631D01*
X81168928Y-59214630D01*
X80989683Y-59194435D01*
X80989675Y-59194435D01*
X80810429Y-59214630D01*
X80810424Y-59214631D01*
X80640155Y-59274211D01*
X80487330Y-59370238D01*
X80420093Y-59389238D01*
X80380405Y-59382286D01*
X80334524Y-59366232D01*
X80334515Y-59366230D01*
X80155273Y-59346035D01*
X80155265Y-59346035D01*
X79976019Y-59366230D01*
X79976011Y-59366232D01*
X79896977Y-59393887D01*
X79827198Y-59397448D01*
X79768342Y-59364526D01*
X79763131Y-59359315D01*
X79610392Y-59263342D01*
X79440123Y-59203762D01*
X79440118Y-59203761D01*
X79260873Y-59183566D01*
X79260865Y-59183566D01*
X79081619Y-59203761D01*
X79081611Y-59203763D01*
X78928678Y-59257277D01*
X78858900Y-59260838D01*
X78821752Y-59245229D01*
X78773057Y-59214632D01*
X78703075Y-59170659D01*
X78532807Y-59111079D01*
X78532802Y-59111078D01*
X78353557Y-59090883D01*
X78353549Y-59090883D01*
X78174303Y-59111078D01*
X78174298Y-59111079D01*
X78004029Y-59170659D01*
X77851290Y-59266632D01*
X77723737Y-59394185D01*
X77627764Y-59546924D01*
X77568184Y-59717193D01*
X77568183Y-59717198D01*
X77547988Y-59896444D01*
X76055603Y-59896444D01*
X76099522Y-59881076D01*
X76252262Y-59785103D01*
X76379816Y-59657549D01*
X76475789Y-59504809D01*
X76535368Y-59334542D01*
X76535369Y-59334536D01*
X76555565Y-59155290D01*
X76555565Y-59155283D01*
X76535369Y-58976037D01*
X76535368Y-58976032D01*
X76520105Y-58932414D01*
X76475789Y-58805765D01*
X76475663Y-58805565D01*
X76405330Y-58693631D01*
X76379816Y-58653025D01*
X76252262Y-58525471D01*
X76215325Y-58502262D01*
X76099523Y-58429498D01*
X75929254Y-58369918D01*
X75929249Y-58369917D01*
X75750004Y-58349722D01*
X75749996Y-58349722D01*
X75570750Y-58369917D01*
X75570745Y-58369918D01*
X75400476Y-58429498D01*
X75247737Y-58525471D01*
X75115260Y-58657949D01*
X75113787Y-58656476D01*
X75064858Y-58690800D01*
X74995046Y-58693631D01*
X74934785Y-58658269D01*
X74903209Y-58595942D01*
X74901911Y-58587219D01*
X74882667Y-58416418D01*
X74882666Y-58416413D01*
X74823086Y-58246144D01*
X74727113Y-58093405D01*
X74599560Y-57965852D01*
X74446817Y-57869877D01*
X74445156Y-57869077D01*
X74444267Y-57868275D01*
X74440924Y-57866174D01*
X74441292Y-57865588D01*
X74393297Y-57822253D01*
X74374986Y-57754826D01*
X74396035Y-57688202D01*
X74449763Y-57643535D01*
X74458006Y-57640316D01*
X74499522Y-57625789D01*
X74652262Y-57529816D01*
X74779816Y-57402262D01*
X74875789Y-57249522D01*
X74935368Y-57079255D01*
X74936048Y-57073220D01*
X74955565Y-56900003D01*
X74955565Y-56899996D01*
X74935369Y-56720750D01*
X74935368Y-56720745D01*
X74898690Y-56615925D01*
X74875789Y-56550478D01*
X74779816Y-56397738D01*
X74652262Y-56270184D01*
X74620144Y-56250003D01*
X74499523Y-56174211D01*
X74329254Y-56114631D01*
X74329249Y-56114630D01*
X74150004Y-56094435D01*
X74149996Y-56094435D01*
X73970750Y-56114630D01*
X73970745Y-56114631D01*
X73800476Y-56174211D01*
X73647737Y-56270184D01*
X73520184Y-56397737D01*
X73424211Y-56550476D01*
X73364631Y-56720745D01*
X73364630Y-56720750D01*
X73344435Y-56899996D01*
X73344435Y-56900003D01*
X73364630Y-57079249D01*
X73364631Y-57079254D01*
X73424211Y-57249523D01*
X73446735Y-57285369D01*
X73520184Y-57402262D01*
X73647738Y-57529816D01*
X73738080Y-57586582D01*
X73800476Y-57625788D01*
X73802135Y-57626587D01*
X73803021Y-57627387D01*
X73806374Y-57629494D01*
X73806005Y-57630081D01*
X73853996Y-57673408D01*
X73872311Y-57740835D01*
X73851265Y-57807459D01*
X73797540Y-57852129D01*
X73789294Y-57855350D01*
X73747776Y-57869878D01*
X73595035Y-57965852D01*
X73467482Y-58093405D01*
X73371509Y-58246144D01*
X73311929Y-58416413D01*
X73311928Y-58416418D01*
X73291733Y-58595664D01*
X71363239Y-58595664D01*
X71349799Y-58587219D01*
X71249523Y-58524211D01*
X71079254Y-58464631D01*
X71079249Y-58464630D01*
X70900004Y-58444435D01*
X70899996Y-58444435D01*
X70720750Y-58464630D01*
X70720745Y-58464631D01*
X70550476Y-58524211D01*
X70397737Y-58620184D01*
X70270184Y-58747737D01*
X70174211Y-58900476D01*
X70114631Y-59070745D01*
X70114630Y-59070750D01*
X70095593Y-59239717D01*
X70068527Y-59304131D01*
X70010932Y-59343687D01*
X69941095Y-59345824D01*
X69931418Y-59342876D01*
X69779254Y-59289631D01*
X69779249Y-59289630D01*
X69600004Y-59269435D01*
X69599996Y-59269435D01*
X69420750Y-59289630D01*
X69420745Y-59289631D01*
X69250476Y-59349211D01*
X69097737Y-59445184D01*
X68970184Y-59572737D01*
X68874211Y-59725476D01*
X68814631Y-59895745D01*
X68814630Y-59895750D01*
X68794435Y-60074996D01*
X67490147Y-60074996D01*
X67544253Y-59920370D01*
X67546387Y-59901432D01*
X67564450Y-59741118D01*
X67564450Y-59741111D01*
X67544254Y-59561865D01*
X67544253Y-59561860D01*
X67503426Y-59445184D01*
X67484674Y-59391593D01*
X67483194Y-59389238D01*
X67429718Y-59304131D01*
X67388701Y-59238853D01*
X67261147Y-59111299D01*
X67260795Y-59111078D01*
X67108408Y-59015326D01*
X66938139Y-58955746D01*
X66938134Y-58955745D01*
X66758889Y-58935550D01*
X66758881Y-58935550D01*
X66579635Y-58955745D01*
X66579630Y-58955746D01*
X66409361Y-59015326D01*
X66256622Y-59111299D01*
X66129069Y-59238852D01*
X66033096Y-59391591D01*
X65973516Y-59561860D01*
X65973515Y-59561865D01*
X65953320Y-59741111D01*
X65953320Y-59741118D01*
X65973515Y-59920364D01*
X65973518Y-59920377D01*
X66035395Y-60097209D01*
X66032371Y-60098267D01*
X66041460Y-60153303D01*
X66023375Y-60204191D01*
X65985974Y-60263714D01*
X65926398Y-60433972D01*
X65926395Y-60433985D01*
X65906200Y-60613231D01*
X59300499Y-60613231D01*
X59300499Y-60591424D01*
X59298130Y-60568237D01*
X59289999Y-60488635D01*
X59289998Y-60488632D01*
X59268754Y-60424522D01*
X59234814Y-60322098D01*
X59142712Y-60172776D01*
X59018656Y-60048720D01*
X58900415Y-59975789D01*
X58869336Y-59956619D01*
X58869331Y-59956617D01*
X58867862Y-59956130D01*
X58702797Y-59901433D01*
X58702795Y-59901432D01*
X58600010Y-59890932D01*
X56999998Y-59890932D01*
X56999981Y-59890933D01*
X56897203Y-59901432D01*
X56897200Y-59901433D01*
X56730668Y-59956617D01*
X56730663Y-59956619D01*
X56581342Y-60048721D01*
X56457289Y-60172774D01*
X56365187Y-60322095D01*
X56365185Y-60322100D01*
X56339799Y-60398710D01*
X56310001Y-60488635D01*
X56310001Y-60488636D01*
X56310000Y-60488636D01*
X56299500Y-60591415D01*
X53485817Y-60591415D01*
X53488764Y-57999996D01*
X60694435Y-57999996D01*
X60694435Y-58000003D01*
X60714630Y-58179249D01*
X60714631Y-58179254D01*
X60774211Y-58349523D01*
X60824463Y-58429498D01*
X60870184Y-58502262D01*
X60997738Y-58629816D01*
X61150478Y-58725789D01*
X61213202Y-58747737D01*
X61320745Y-58785368D01*
X61320750Y-58785369D01*
X61499996Y-58805565D01*
X61500000Y-58805565D01*
X61500004Y-58805565D01*
X61679249Y-58785369D01*
X61679252Y-58785368D01*
X61679255Y-58785368D01*
X61849522Y-58725789D01*
X62002262Y-58629816D01*
X62129816Y-58502262D01*
X62225789Y-58349522D01*
X62285368Y-58179255D01*
X62305565Y-58000000D01*
X62301717Y-57965852D01*
X62285369Y-57820750D01*
X62285368Y-57820745D01*
X62238989Y-57688202D01*
X62225789Y-57650478D01*
X62221426Y-57643535D01*
X62153461Y-57535369D01*
X62129816Y-57497738D01*
X62002262Y-57370184D01*
X61899422Y-57305565D01*
X61849523Y-57274211D01*
X61679254Y-57214631D01*
X61679249Y-57214630D01*
X61500004Y-57194435D01*
X61499996Y-57194435D01*
X61320750Y-57214630D01*
X61320745Y-57214631D01*
X61150476Y-57274211D01*
X60997737Y-57370184D01*
X60870184Y-57497737D01*
X60774211Y-57650476D01*
X60714631Y-57820745D01*
X60714630Y-57820750D01*
X60694435Y-57999996D01*
X53488764Y-57999996D01*
X53490470Y-56499996D01*
X67194435Y-56499996D01*
X67194435Y-56500003D01*
X67214630Y-56679249D01*
X67214631Y-56679254D01*
X67274211Y-56849523D01*
X67353549Y-56975788D01*
X67370184Y-57002262D01*
X67497738Y-57129816D01*
X67588080Y-57186582D01*
X67632721Y-57214632D01*
X67650478Y-57225789D01*
X67788860Y-57274211D01*
X67820745Y-57285368D01*
X67820750Y-57285369D01*
X67999996Y-57305565D01*
X68000000Y-57305565D01*
X68000004Y-57305565D01*
X68179249Y-57285369D01*
X68179252Y-57285368D01*
X68179255Y-57285368D01*
X68349522Y-57225789D01*
X68502262Y-57129816D01*
X68629816Y-57002262D01*
X68725789Y-56849522D01*
X68785368Y-56679255D01*
X68785368Y-56679254D01*
X68787668Y-56672682D01*
X68790308Y-56673605D01*
X68818209Y-56623660D01*
X68864083Y-56595142D01*
X68888374Y-56586642D01*
X68958151Y-56583082D01*
X68995297Y-56598691D01*
X69058320Y-56638291D01*
X69070858Y-56646169D01*
X69241125Y-56705748D01*
X69265938Y-56708543D01*
X69330351Y-56735609D01*
X69369096Y-56790807D01*
X69381910Y-56827427D01*
X69475132Y-56975788D01*
X69477882Y-56980164D01*
X69605436Y-57107718D01*
X69758176Y-57203691D01*
X69896984Y-57252262D01*
X69928443Y-57263270D01*
X69928448Y-57263271D01*
X70107694Y-57283467D01*
X70107698Y-57283467D01*
X70107702Y-57283467D01*
X70286947Y-57263271D01*
X70286950Y-57263270D01*
X70286953Y-57263270D01*
X70457220Y-57203691D01*
X70609960Y-57107718D01*
X70644458Y-57073220D01*
X70705780Y-57039734D01*
X70773095Y-57043859D01*
X70859615Y-57074134D01*
X70859621Y-57074135D01*
X70859623Y-57074136D01*
X70859624Y-57074136D01*
X70859628Y-57074137D01*
X71038874Y-57094333D01*
X71038878Y-57094333D01*
X71038882Y-57094333D01*
X71218127Y-57074137D01*
X71218130Y-57074136D01*
X71218133Y-57074136D01*
X71388400Y-57014557D01*
X71541140Y-56918584D01*
X71668694Y-56791030D01*
X71764667Y-56638290D01*
X71824246Y-56468023D01*
X71828614Y-56429255D01*
X71844443Y-56288771D01*
X71844443Y-56288764D01*
X71824247Y-56109518D01*
X71824246Y-56109513D01*
X71764666Y-55939244D01*
X71668693Y-55786505D01*
X71541140Y-55658952D01*
X71388401Y-55562979D01*
X71218132Y-55503399D01*
X71218127Y-55503398D01*
X71038882Y-55483203D01*
X71038874Y-55483203D01*
X70859628Y-55503398D01*
X70859623Y-55503399D01*
X70689354Y-55562979D01*
X70536612Y-55658954D01*
X70536611Y-55658954D01*
X70502115Y-55693451D01*
X70440792Y-55726936D01*
X70373481Y-55722811D01*
X70286952Y-55692533D01*
X70286948Y-55692532D01*
X70262137Y-55689737D01*
X70197723Y-55662670D01*
X70158980Y-55607471D01*
X70146168Y-55570856D01*
X70050195Y-55418117D01*
X69922642Y-55290564D01*
X69769903Y-55194591D01*
X69599634Y-55135011D01*
X69599629Y-55135010D01*
X69420384Y-55114815D01*
X69420376Y-55114815D01*
X69241126Y-55135011D01*
X69241125Y-55135011D01*
X69157443Y-55164292D01*
X69087664Y-55167853D01*
X69050519Y-55152244D01*
X68974962Y-55104769D01*
X68804691Y-55045188D01*
X68804686Y-55045187D01*
X68625441Y-55024992D01*
X68625433Y-55024992D01*
X68446187Y-55045187D01*
X68446182Y-55045188D01*
X68275913Y-55104768D01*
X68123174Y-55200741D01*
X67995621Y-55328294D01*
X67899647Y-55481035D01*
X67861968Y-55588715D01*
X67840069Y-55651302D01*
X67840068Y-55651304D01*
X67837770Y-55657874D01*
X67835145Y-55656955D01*
X67807157Y-55706965D01*
X67761350Y-55735415D01*
X67650478Y-55774210D01*
X67497737Y-55870184D01*
X67370184Y-55997737D01*
X67274211Y-56150476D01*
X67214631Y-56320745D01*
X67214630Y-56320750D01*
X67194435Y-56499996D01*
X53490470Y-56499996D01*
X53500415Y-47754243D01*
X53500500Y-47752979D01*
X53500500Y-47682535D01*
X53500632Y-47676808D01*
X53507365Y-47531176D01*
X53516996Y-47322859D01*
X53518053Y-47311462D01*
X53525273Y-47259703D01*
X53566612Y-46963354D01*
X53568711Y-46952125D01*
X53649185Y-46609973D01*
X53652308Y-46598994D01*
X53764015Y-46265705D01*
X53768138Y-46255066D01*
X53910114Y-45933519D01*
X53915197Y-45923310D01*
X54086235Y-45616239D01*
X54092261Y-45606507D01*
X54290900Y-45316530D01*
X54297782Y-45307417D01*
X54522329Y-45037006D01*
X54530023Y-45028566D01*
X54778566Y-44780023D01*
X54787006Y-44772329D01*
X55057417Y-44547782D01*
X55066530Y-44540900D01*
X55356512Y-44342257D01*
X55366239Y-44336235D01*
X55673310Y-44165197D01*
X55683519Y-44160114D01*
X56005066Y-44018138D01*
X56015705Y-44014015D01*
X56348994Y-43902308D01*
X56359973Y-43899185D01*
X56491463Y-43868259D01*
X56561226Y-43872072D01*
X56617855Y-43912997D01*
X56643368Y-43978042D01*
X56629665Y-44046555D01*
X56581097Y-44096784D01*
X56567304Y-44103526D01*
X56291781Y-44217653D01*
X56291773Y-44217657D01*
X56005841Y-44370489D01*
X56005823Y-44370500D01*
X55736245Y-44550627D01*
X55736231Y-44550637D01*
X55485592Y-44756331D01*
X55256331Y-44985592D01*
X55050637Y-45236231D01*
X55050627Y-45236245D01*
X54870500Y-45505823D01*
X54870489Y-45505841D01*
X54717657Y-45791773D01*
X54717650Y-45791787D01*
X54593573Y-46091331D01*
X54499449Y-46401618D01*
X54436194Y-46719620D01*
X54404415Y-47042299D01*
X54404415Y-47366530D01*
X54436194Y-47689209D01*
X54499449Y-48007211D01*
X54593573Y-48317498D01*
X54717650Y-48617042D01*
X54717657Y-48617056D01*
X54870489Y-48902988D01*
X54870500Y-48903006D01*
X55050627Y-49172584D01*
X55050637Y-49172598D01*
X55256331Y-49423237D01*
X56710950Y-50877856D01*
X56744435Y-50939179D01*
X56739451Y-51008871D01*
X56697579Y-51064804D01*
X56632115Y-51089221D01*
X56579936Y-51081719D01*
X56564897Y-51076110D01*
X56285362Y-51015300D01*
X56000001Y-50994891D01*
X55999999Y-50994891D01*
X55714637Y-51015300D01*
X55435104Y-51076109D01*
X55167041Y-51176091D01*
X54915961Y-51313191D01*
X54915953Y-51313196D01*
X54773436Y-51419882D01*
X55490979Y-52137426D01*
X55362537Y-52223249D01*
X55223249Y-52362537D01*
X55137426Y-52490979D01*
X54419883Y-51773436D01*
X54419882Y-51773437D01*
X54313196Y-51915953D01*
X54313191Y-51915961D01*
X54176091Y-52167041D01*
X54076109Y-52435104D01*
X54015300Y-52714637D01*
X53994891Y-52999998D01*
X53994891Y-53000001D01*
X54015300Y-53285362D01*
X54076109Y-53564895D01*
X54176091Y-53832958D01*
X54313191Y-54084038D01*
X54313196Y-54084046D01*
X54419882Y-54226561D01*
X54419883Y-54226562D01*
X55137425Y-53509019D01*
X55223249Y-53637463D01*
X55362537Y-53776751D01*
X55490978Y-53862573D01*
X54773436Y-54580115D01*
X54915960Y-54686807D01*
X54915961Y-54686808D01*
X55167042Y-54823908D01*
X55167041Y-54823908D01*
X55435104Y-54923890D01*
X55714637Y-54984699D01*
X55999999Y-55005109D01*
X56000001Y-55005109D01*
X56285362Y-54984699D01*
X56564895Y-54923890D01*
X56832958Y-54823908D01*
X57084047Y-54686803D01*
X57226561Y-54580116D01*
X57226562Y-54580115D01*
X56509021Y-53862573D01*
X56637463Y-53776751D01*
X56776751Y-53637463D01*
X56862573Y-53509020D01*
X57580115Y-54226562D01*
X57580116Y-54226561D01*
X57686803Y-54084047D01*
X57823908Y-53832958D01*
X57923890Y-53564895D01*
X57984699Y-53285362D01*
X58005109Y-53000001D01*
X58005109Y-52999998D01*
X57984699Y-52714637D01*
X57923889Y-52435102D01*
X57909928Y-52397669D01*
X57904944Y-52327978D01*
X57938429Y-52266655D01*
X57999752Y-52233170D01*
X58069444Y-52238154D01*
X58104775Y-52258483D01*
X58281815Y-52403776D01*
X58551407Y-52583912D01*
X58551425Y-52583923D01*
X58837357Y-52736757D01*
X58837362Y-52736759D01*
X59136919Y-52860840D01*
X59447200Y-52954962D01*
X59765206Y-53018219D01*
X60087883Y-53049999D01*
X60412115Y-53049999D01*
X60734790Y-53018219D01*
X61052796Y-52954962D01*
X61363078Y-52860840D01*
X61662635Y-52736759D01*
X61662640Y-52736757D01*
X61948572Y-52583923D01*
X61948590Y-52583912D01*
X62218168Y-52403785D01*
X62218182Y-52403775D01*
X62400553Y-52254107D01*
X62400554Y-52254106D01*
X61190697Y-51044249D01*
X61292329Y-50970411D01*
X61470411Y-50792329D01*
X61544250Y-50690697D01*
X62754106Y-51900554D01*
X62754107Y-51900553D01*
X62903775Y-51718182D01*
X62903785Y-51718168D01*
X63049561Y-51500000D01*
X63869474Y-51500000D01*
X63889547Y-51755064D01*
X63889547Y-51755067D01*
X63889548Y-51755070D01*
X63942539Y-51975789D01*
X63949279Y-52003864D01*
X64047188Y-52240239D01*
X64047190Y-52240242D01*
X64180875Y-52458396D01*
X64180878Y-52458401D01*
X64347043Y-52652955D01*
X64347044Y-52652956D01*
X64485585Y-52771281D01*
X64523778Y-52829786D01*
X64524277Y-52899654D01*
X64522095Y-52906525D01*
X64464631Y-53070745D01*
X64464631Y-53070748D01*
X64444435Y-53249996D01*
X64444435Y-53250003D01*
X64464630Y-53429249D01*
X64464631Y-53429254D01*
X64524211Y-53599523D01*
X64620184Y-53752262D01*
X64715287Y-53847365D01*
X64748772Y-53908688D01*
X64743788Y-53978380D01*
X64715290Y-54022725D01*
X64681930Y-54056086D01*
X64585958Y-54208823D01*
X64526378Y-54379092D01*
X64526377Y-54379097D01*
X64506182Y-54558343D01*
X64506182Y-54558350D01*
X64526377Y-54737596D01*
X64526378Y-54737601D01*
X64585958Y-54907870D01*
X64647058Y-55005109D01*
X64681931Y-55060609D01*
X64809485Y-55188163D01*
X64962225Y-55284136D01*
X65088424Y-55328295D01*
X65132492Y-55343715D01*
X65132497Y-55343716D01*
X65311743Y-55363912D01*
X65311747Y-55363912D01*
X65311751Y-55363912D01*
X65490996Y-55343716D01*
X65490999Y-55343715D01*
X65491002Y-55343715D01*
X65661269Y-55284136D01*
X65814009Y-55188163D01*
X65941563Y-55060609D01*
X66037536Y-54907869D01*
X66037537Y-54907864D01*
X66037864Y-54907345D01*
X66090198Y-54861054D01*
X66155824Y-54849997D01*
X66160608Y-54850500D01*
X66160609Y-54850500D01*
X66339389Y-54850500D01*
X66339391Y-54850500D01*
X66514267Y-54813329D01*
X66677593Y-54740612D01*
X66822230Y-54635526D01*
X66941859Y-54502665D01*
X67031250Y-54347835D01*
X67063040Y-54249996D01*
X79194435Y-54249996D01*
X79194435Y-54250003D01*
X79214630Y-54429249D01*
X79214633Y-54429262D01*
X79274209Y-54599520D01*
X79327309Y-54684029D01*
X79346309Y-54751266D01*
X79327309Y-54815971D01*
X79274209Y-54900479D01*
X79214633Y-55070737D01*
X79214630Y-55070750D01*
X79194435Y-55249996D01*
X79194435Y-55250003D01*
X79214630Y-55429249D01*
X79214633Y-55429262D01*
X79274209Y-55599520D01*
X79327309Y-55684029D01*
X79346309Y-55751266D01*
X79327309Y-55815971D01*
X79274209Y-55900479D01*
X79214633Y-56070737D01*
X79214630Y-56070750D01*
X79194435Y-56249996D01*
X79194435Y-56250003D01*
X79214630Y-56429249D01*
X79214631Y-56429254D01*
X79274211Y-56599523D01*
X79350384Y-56720750D01*
X79370184Y-56752262D01*
X79497738Y-56879816D01*
X79650478Y-56975789D01*
X79820745Y-57035368D01*
X79820750Y-57035369D01*
X79879219Y-57041956D01*
X79936990Y-57048465D01*
X80001404Y-57075531D01*
X80028101Y-57105713D01*
X80120184Y-57252262D01*
X80247738Y-57379816D01*
X80400478Y-57475789D01*
X80554878Y-57529816D01*
X80570745Y-57535368D01*
X80570750Y-57535369D01*
X80749996Y-57555565D01*
X80750000Y-57555565D01*
X80750004Y-57555565D01*
X80929249Y-57535369D01*
X80929252Y-57535368D01*
X80929255Y-57535368D01*
X81099522Y-57475789D01*
X81252262Y-57379816D01*
X81379816Y-57252262D01*
X81475789Y-57099522D01*
X81535368Y-56929255D01*
X81535369Y-56929249D01*
X81555565Y-56750003D01*
X81555565Y-56749996D01*
X81535369Y-56570750D01*
X81535368Y-56570745D01*
X81475788Y-56400475D01*
X81422691Y-56315973D01*
X81403690Y-56248736D01*
X81422691Y-56184027D01*
X81475788Y-56099524D01*
X81477569Y-56094435D01*
X81535368Y-55929255D01*
X81535369Y-55929249D01*
X81555565Y-55750003D01*
X81555565Y-55749996D01*
X81535369Y-55570750D01*
X81535368Y-55570745D01*
X81475788Y-55400475D01*
X81422691Y-55315973D01*
X81403690Y-55248736D01*
X81422691Y-55184027D01*
X81475788Y-55099524D01*
X81485859Y-55070745D01*
X81535368Y-54929255D01*
X81535368Y-54929254D01*
X81535369Y-54929252D01*
X81535369Y-54929249D01*
X81555565Y-54750003D01*
X81555565Y-54749996D01*
X81535369Y-54570750D01*
X81535368Y-54570745D01*
X81485861Y-54429262D01*
X81475789Y-54400478D01*
X81462354Y-54379097D01*
X81381237Y-54250000D01*
X81379816Y-54247738D01*
X81252262Y-54120184D01*
X81220935Y-54100500D01*
X81099523Y-54024211D01*
X80929254Y-53964631D01*
X80929250Y-53964630D01*
X80813008Y-53951533D01*
X80748594Y-53924466D01*
X80721898Y-53894285D01*
X80653461Y-53785369D01*
X80629816Y-53747738D01*
X80502262Y-53620184D01*
X80466684Y-53597829D01*
X80349523Y-53524211D01*
X80179254Y-53464631D01*
X80179249Y-53464630D01*
X80000004Y-53444435D01*
X79999996Y-53444435D01*
X79820750Y-53464630D01*
X79820745Y-53464631D01*
X79650476Y-53524211D01*
X79497737Y-53620184D01*
X79370184Y-53747737D01*
X79274211Y-53900476D01*
X79214631Y-54070745D01*
X79214630Y-54070750D01*
X79194435Y-54249996D01*
X67063040Y-54249996D01*
X67086497Y-54177803D01*
X67105185Y-54000000D01*
X67086497Y-53822197D01*
X67031250Y-53652165D01*
X66941859Y-53497335D01*
X66894227Y-53444435D01*
X66822235Y-53364478D01*
X66822232Y-53364476D01*
X66822231Y-53364475D01*
X66822230Y-53364474D01*
X66677593Y-53259388D01*
X66656507Y-53250000D01*
X68394815Y-53250000D01*
X68413503Y-53427805D01*
X68413504Y-53427807D01*
X68468747Y-53597829D01*
X68468750Y-53597835D01*
X68558139Y-53752662D01*
X68558139Y-53752663D01*
X68677764Y-53885521D01*
X68677767Y-53885523D01*
X68677770Y-53885526D01*
X68822407Y-53990612D01*
X68985733Y-54063329D01*
X69160609Y-54100500D01*
X69160610Y-54100500D01*
X69339389Y-54100500D01*
X69339391Y-54100500D01*
X69514267Y-54063329D01*
X69677593Y-53990612D01*
X69822230Y-53885526D01*
X69827372Y-53879816D01*
X69879252Y-53822197D01*
X69941859Y-53752665D01*
X69957377Y-53725788D01*
X69999880Y-53652170D01*
X70026931Y-53605314D01*
X70077497Y-53557100D01*
X70146104Y-53543876D01*
X70148174Y-53544092D01*
X70199257Y-53549847D01*
X70249998Y-53555565D01*
X70250000Y-53555565D01*
X70250004Y-53555565D01*
X70429249Y-53535369D01*
X70429252Y-53535368D01*
X70429255Y-53535368D01*
X70599522Y-53475789D01*
X70752262Y-53379816D01*
X70879816Y-53252262D01*
X70975789Y-53099522D01*
X71010615Y-52999996D01*
X76694435Y-52999996D01*
X76694435Y-53000003D01*
X76714630Y-53179249D01*
X76714631Y-53179254D01*
X76774211Y-53349523D01*
X76833849Y-53444435D01*
X76870184Y-53502262D01*
X76997738Y-53629816D01*
X77150478Y-53725789D01*
X77296119Y-53776751D01*
X77320745Y-53785368D01*
X77320750Y-53785369D01*
X77499996Y-53805565D01*
X77500000Y-53805565D01*
X77500004Y-53805565D01*
X77679249Y-53785369D01*
X77679252Y-53785368D01*
X77679255Y-53785368D01*
X77849522Y-53725789D01*
X78002262Y-53629816D01*
X78129816Y-53502262D01*
X78225789Y-53349522D01*
X78285368Y-53179255D01*
X78289152Y-53145674D01*
X78305565Y-53000003D01*
X78305565Y-52999996D01*
X78285369Y-52820750D01*
X78285368Y-52820745D01*
X78248239Y-52714637D01*
X78225789Y-52650478D01*
X78129816Y-52497738D01*
X78002262Y-52370184D01*
X77935092Y-52327978D01*
X77849523Y-52274211D01*
X77679254Y-52214631D01*
X77679249Y-52214630D01*
X77500004Y-52194435D01*
X77499996Y-52194435D01*
X77320750Y-52214630D01*
X77320745Y-52214631D01*
X77150476Y-52274211D01*
X76997737Y-52370184D01*
X76870184Y-52497737D01*
X76774211Y-52650476D01*
X76714631Y-52820745D01*
X76714630Y-52820750D01*
X76694435Y-52999996D01*
X71010615Y-52999996D01*
X71035368Y-52929255D01*
X71038420Y-52902170D01*
X71055565Y-52750003D01*
X71055565Y-52749996D01*
X71035369Y-52570750D01*
X71035368Y-52570745D01*
X70987904Y-52435102D01*
X70975789Y-52400478D01*
X70975174Y-52399500D01*
X70891702Y-52266655D01*
X70879816Y-52247738D01*
X70752262Y-52120184D01*
X70599523Y-52024211D01*
X70429254Y-51964631D01*
X70429249Y-51964630D01*
X70250004Y-51944435D01*
X70249996Y-51944435D01*
X70070750Y-51964630D01*
X70070745Y-51964631D01*
X69900476Y-52024211D01*
X69747737Y-52120184D01*
X69620184Y-52247737D01*
X69549049Y-52360948D01*
X69496714Y-52407239D01*
X69427660Y-52417887D01*
X69418276Y-52416267D01*
X69397132Y-52411773D01*
X69339391Y-52399500D01*
X69160609Y-52399500D01*
X69129954Y-52406015D01*
X68985733Y-52436670D01*
X68985728Y-52436672D01*
X68822408Y-52509387D01*
X68677768Y-52614475D01*
X68558140Y-52747336D01*
X68468750Y-52902164D01*
X68468747Y-52902170D01*
X68413504Y-53072192D01*
X68413503Y-53072194D01*
X68394815Y-53250000D01*
X66656507Y-53250000D01*
X66514267Y-53186671D01*
X66514265Y-53186670D01*
X66383285Y-53158830D01*
X66339391Y-53149500D01*
X66339390Y-53149500D01*
X66333034Y-53148149D01*
X66333559Y-53145674D01*
X66279428Y-53123386D01*
X66239459Y-53066078D01*
X66236818Y-52996258D01*
X66272344Y-52936094D01*
X66292235Y-52920948D01*
X66458399Y-52819123D01*
X66652956Y-52652956D01*
X66819123Y-52458399D01*
X66952809Y-52240243D01*
X66953675Y-52238154D01*
X67036403Y-52038429D01*
X67050722Y-52003860D01*
X67110452Y-51755070D01*
X67130526Y-51500000D01*
X67110851Y-51249996D01*
X77724435Y-51249996D01*
X77724435Y-51250003D01*
X77744630Y-51429249D01*
X77744631Y-51429254D01*
X77804211Y-51599523D01*
X77862141Y-51691717D01*
X77900184Y-51752262D01*
X78027738Y-51879816D01*
X78118080Y-51936582D01*
X78162721Y-51964632D01*
X78180478Y-51975789D01*
X78260712Y-52003864D01*
X78350745Y-52035368D01*
X78350750Y-52035369D01*
X78529996Y-52055565D01*
X78530000Y-52055565D01*
X78530004Y-52055565D01*
X78709249Y-52035369D01*
X78709252Y-52035368D01*
X78709255Y-52035368D01*
X78879522Y-51975789D01*
X79032262Y-51879816D01*
X79159816Y-51752262D01*
X79168772Y-51738008D01*
X79221101Y-51691717D01*
X79290154Y-51681066D01*
X79354004Y-51709438D01*
X79392379Y-51767826D01*
X79394340Y-51775030D01*
X79449279Y-52003864D01*
X79547188Y-52240239D01*
X79547190Y-52240242D01*
X79680875Y-52458396D01*
X79680878Y-52458401D01*
X79756200Y-52546591D01*
X79847044Y-52652956D01*
X79960668Y-52750000D01*
X80041598Y-52819121D01*
X80041600Y-52819122D01*
X80041601Y-52819123D01*
X80177122Y-52902170D01*
X80259757Y-52952809D01*
X80259760Y-52952811D01*
X80494397Y-53050000D01*
X80496140Y-53050722D01*
X80744930Y-53110452D01*
X81000000Y-53130526D01*
X81255070Y-53110452D01*
X81503860Y-53050722D01*
X81635348Y-52996258D01*
X81740239Y-52952811D01*
X81740240Y-52952810D01*
X81740243Y-52952809D01*
X81958399Y-52819123D01*
X82152956Y-52652956D01*
X82319123Y-52458399D01*
X82452809Y-52240243D01*
X82453675Y-52238154D01*
X82536403Y-52038429D01*
X82550722Y-52003860D01*
X82610452Y-51755070D01*
X82630526Y-51500000D01*
X82610452Y-51244930D01*
X82550722Y-50996140D01*
X82550205Y-50994891D01*
X82452811Y-50759760D01*
X82452809Y-50759757D01*
X82367279Y-50620184D01*
X82319123Y-50541601D01*
X82319122Y-50541600D01*
X82319121Y-50541598D01*
X82253384Y-50464630D01*
X82152956Y-50347044D01*
X82021523Y-50234790D01*
X81958401Y-50180878D01*
X81958396Y-50180875D01*
X81740242Y-50047190D01*
X81740239Y-50047188D01*
X81503864Y-49949279D01*
X81503860Y-49949278D01*
X81255070Y-49889548D01*
X81255067Y-49889547D01*
X81255064Y-49889547D01*
X81000000Y-49869474D01*
X80744935Y-49889547D01*
X80744931Y-49889547D01*
X80744930Y-49889548D01*
X80650937Y-49912114D01*
X80496135Y-49949279D01*
X80259760Y-50047188D01*
X80259757Y-50047190D01*
X80041603Y-50180875D01*
X80041598Y-50180878D01*
X79847044Y-50347044D01*
X79680878Y-50541598D01*
X79680875Y-50541603D01*
X79547190Y-50759756D01*
X79486851Y-50905430D01*
X79443010Y-50959833D01*
X79376716Y-50981898D01*
X79309017Y-50964619D01*
X79261406Y-50913482D01*
X79256719Y-50902407D01*
X79255792Y-50900483D01*
X79255788Y-50900476D01*
X79159816Y-50747738D01*
X79032262Y-50620184D01*
X78879523Y-50524211D01*
X78709254Y-50464631D01*
X78709249Y-50464630D01*
X78530004Y-50444435D01*
X78529996Y-50444435D01*
X78350750Y-50464630D01*
X78350745Y-50464631D01*
X78180476Y-50524211D01*
X78027737Y-50620184D01*
X77900184Y-50747737D01*
X77804211Y-50900476D01*
X77744631Y-51070745D01*
X77744630Y-51070750D01*
X77724435Y-51249996D01*
X67110851Y-51249996D01*
X67110452Y-51244930D01*
X67050722Y-50996140D01*
X67050205Y-50994891D01*
X66952811Y-50759760D01*
X66952809Y-50759757D01*
X66867279Y-50620184D01*
X66819123Y-50541601D01*
X66819122Y-50541600D01*
X66819121Y-50541598D01*
X66753384Y-50464630D01*
X66652956Y-50347044D01*
X66521523Y-50234790D01*
X66458401Y-50180878D01*
X66458396Y-50180875D01*
X66240242Y-50047190D01*
X66240239Y-50047188D01*
X66003864Y-49949279D01*
X66003860Y-49949278D01*
X65755070Y-49889548D01*
X65755067Y-49889547D01*
X65755064Y-49889547D01*
X65500000Y-49869474D01*
X65244935Y-49889547D01*
X65244931Y-49889547D01*
X65244930Y-49889548D01*
X65150937Y-49912114D01*
X64996135Y-49949279D01*
X64759760Y-50047188D01*
X64759757Y-50047190D01*
X64541603Y-50180875D01*
X64541598Y-50180878D01*
X64347044Y-50347044D01*
X64180878Y-50541598D01*
X64180875Y-50541603D01*
X64047190Y-50759757D01*
X64047188Y-50759760D01*
X63949279Y-50996135D01*
X63944678Y-51015300D01*
X63892466Y-51232778D01*
X63889547Y-51244935D01*
X63869474Y-51500000D01*
X63049561Y-51500000D01*
X63083912Y-51448590D01*
X63083923Y-51448572D01*
X63236757Y-51162640D01*
X63236759Y-51162635D01*
X63360840Y-50863078D01*
X63454962Y-50552796D01*
X63518219Y-50234790D01*
X63549999Y-49912114D01*
X63549999Y-49587883D01*
X63518219Y-49265206D01*
X63454962Y-48947200D01*
X63360840Y-48636919D01*
X63236759Y-48337362D01*
X63236757Y-48337357D01*
X63146062Y-48167678D01*
X67980000Y-48167678D01*
X67980000Y-48561250D01*
X68630000Y-48561250D01*
X68630000Y-49061250D01*
X67980000Y-49061250D01*
X67980000Y-49454821D01*
X68016506Y-49638347D01*
X68016508Y-49638355D01*
X68088119Y-49811241D01*
X68088124Y-49811250D01*
X68192086Y-49966839D01*
X68192089Y-49966843D01*
X68324406Y-50099160D01*
X68324410Y-50099163D01*
X68479999Y-50203125D01*
X68480012Y-50203132D01*
X68652889Y-50274739D01*
X68652896Y-50274741D01*
X68680000Y-50280132D01*
X68680000Y-49528238D01*
X68689940Y-49545455D01*
X68745795Y-49601310D01*
X68814204Y-49640806D01*
X68890504Y-49661250D01*
X68969496Y-49661250D01*
X69045796Y-49640806D01*
X69114205Y-49601310D01*
X69170060Y-49545455D01*
X69180000Y-49528238D01*
X69180000Y-50280131D01*
X69207103Y-50274741D01*
X69207110Y-50274739D01*
X69379987Y-50203132D01*
X69380000Y-50203125D01*
X69535589Y-50099163D01*
X69535593Y-50099160D01*
X69667910Y-49966843D01*
X69667913Y-49966839D01*
X69771875Y-49811250D01*
X69771880Y-49811241D01*
X69843491Y-49638355D01*
X69843493Y-49638347D01*
X69879999Y-49454821D01*
X69880000Y-49454819D01*
X69880000Y-49061250D01*
X69230000Y-49061250D01*
X69230000Y-48561250D01*
X69785537Y-48561250D01*
X69852576Y-48580935D01*
X69892924Y-48623250D01*
X69919491Y-48669265D01*
X70021985Y-48771759D01*
X70021986Y-48771760D01*
X70021988Y-48771761D01*
X70147511Y-48844232D01*
X70147512Y-48844232D01*
X70147515Y-48844234D01*
X70287525Y-48881750D01*
X70287528Y-48881750D01*
X70432472Y-48881750D01*
X70432475Y-48881750D01*
X70572485Y-48844234D01*
X70698015Y-48771759D01*
X70800509Y-48669265D01*
X70872984Y-48543735D01*
X70910500Y-48403725D01*
X70910500Y-48258775D01*
X75589500Y-48258775D01*
X75589500Y-48403725D01*
X75609190Y-48477207D01*
X75627017Y-48543738D01*
X75699488Y-48669261D01*
X75699490Y-48669263D01*
X75699491Y-48669265D01*
X75801985Y-48771759D01*
X75801986Y-48771760D01*
X75801988Y-48771761D01*
X75927511Y-48844232D01*
X75927512Y-48844232D01*
X75927515Y-48844234D01*
X76067525Y-48881750D01*
X76067528Y-48881750D01*
X76212472Y-48881750D01*
X76212475Y-48881750D01*
X76352485Y-48844234D01*
X76478015Y-48771759D01*
X76580509Y-48669265D01*
X76607076Y-48623250D01*
X76657643Y-48575034D01*
X76714463Y-48561250D01*
X77270000Y-48561250D01*
X77270000Y-49061250D01*
X76620000Y-49061250D01*
X76620000Y-49454821D01*
X76656506Y-49638347D01*
X76656508Y-49638355D01*
X76728119Y-49811241D01*
X76728124Y-49811250D01*
X76832086Y-49966839D01*
X76832089Y-49966843D01*
X76964406Y-50099160D01*
X76964410Y-50099163D01*
X77119999Y-50203125D01*
X77120012Y-50203132D01*
X77292889Y-50274739D01*
X77292896Y-50274741D01*
X77320000Y-50280132D01*
X77320000Y-49528238D01*
X77329940Y-49545455D01*
X77385795Y-49601310D01*
X77454204Y-49640806D01*
X77530504Y-49661250D01*
X77609496Y-49661250D01*
X77685796Y-49640806D01*
X77754205Y-49601310D01*
X77810060Y-49545455D01*
X77820000Y-49528238D01*
X77820000Y-50280131D01*
X77847103Y-50274741D01*
X77847110Y-50274739D01*
X78019987Y-50203132D01*
X78020000Y-50203125D01*
X78175589Y-50099163D01*
X78175593Y-50099160D01*
X78307910Y-49966843D01*
X78307913Y-49966839D01*
X78411875Y-49811250D01*
X78411880Y-49811241D01*
X78483491Y-49638355D01*
X78483493Y-49638347D01*
X78519999Y-49454821D01*
X78520000Y-49454819D01*
X78520000Y-49061250D01*
X77870000Y-49061250D01*
X77870000Y-48561250D01*
X78520000Y-48561250D01*
X78520000Y-48167680D01*
X78519999Y-48167678D01*
X78483493Y-47984152D01*
X78483491Y-47984144D01*
X78411880Y-47811258D01*
X78411875Y-47811249D01*
X78307913Y-47655660D01*
X78307910Y-47655656D01*
X78175593Y-47523339D01*
X78175589Y-47523336D01*
X78020000Y-47419374D01*
X78019991Y-47419369D01*
X77847103Y-47347757D01*
X77847100Y-47347756D01*
X77820000Y-47342365D01*
X77820000Y-48094261D01*
X77810060Y-48077045D01*
X77754205Y-48021190D01*
X77685796Y-47981694D01*
X77609496Y-47961250D01*
X77530504Y-47961250D01*
X77454204Y-47981694D01*
X77385795Y-48021190D01*
X77329940Y-48077045D01*
X77320000Y-48094261D01*
X77320000Y-47342366D01*
X77319999Y-47342365D01*
X77292899Y-47347756D01*
X77292896Y-47347757D01*
X77120008Y-47419369D01*
X77119999Y-47419374D01*
X76964410Y-47523336D01*
X76964406Y-47523339D01*
X76832089Y-47655656D01*
X76832086Y-47655660D01*
X76728124Y-47811249D01*
X76728116Y-47811264D01*
X76702602Y-47872860D01*
X76658761Y-47927263D01*
X76592466Y-47949327D01*
X76524767Y-47932047D01*
X76500361Y-47913087D01*
X76478017Y-47890743D01*
X76478011Y-47890738D01*
X76352488Y-47818267D01*
X76352489Y-47818267D01*
X76326331Y-47811258D01*
X76212475Y-47780750D01*
X76067525Y-47780750D01*
X75953669Y-47811258D01*
X75927511Y-47818267D01*
X75801988Y-47890738D01*
X75801982Y-47890743D01*
X75699493Y-47993232D01*
X75699488Y-47993238D01*
X75627017Y-48118761D01*
X75627016Y-48118765D01*
X75589500Y-48258775D01*
X70910500Y-48258775D01*
X70872984Y-48118765D01*
X70834095Y-48051408D01*
X70800511Y-47993238D01*
X70800506Y-47993232D01*
X70698017Y-47890743D01*
X70698011Y-47890738D01*
X70572488Y-47818267D01*
X70572489Y-47818267D01*
X70546331Y-47811258D01*
X70432475Y-47780750D01*
X70287525Y-47780750D01*
X70173669Y-47811258D01*
X70147511Y-47818267D01*
X70021988Y-47890738D01*
X69999637Y-47913089D01*
X69938313Y-47946573D01*
X69868621Y-47941587D01*
X69812689Y-47899715D01*
X69797396Y-47872859D01*
X69771880Y-47811258D01*
X69771875Y-47811249D01*
X69667913Y-47655660D01*
X69667910Y-47655656D01*
X69535593Y-47523339D01*
X69535589Y-47523336D01*
X69380000Y-47419374D01*
X69379991Y-47419369D01*
X69207103Y-47347757D01*
X69207100Y-47347756D01*
X69180000Y-47342365D01*
X69180000Y-48094261D01*
X69170060Y-48077045D01*
X69114205Y-48021190D01*
X69045796Y-47981694D01*
X68969496Y-47961250D01*
X68890504Y-47961250D01*
X68814204Y-47981694D01*
X68745795Y-48021190D01*
X68689940Y-48077045D01*
X68680000Y-48094261D01*
X68680000Y-47342366D01*
X68679999Y-47342365D01*
X68652899Y-47347756D01*
X68652896Y-47347757D01*
X68480008Y-47419369D01*
X68479999Y-47419374D01*
X68324410Y-47523336D01*
X68324406Y-47523339D01*
X68192089Y-47655656D01*
X68192086Y-47655660D01*
X68088124Y-47811249D01*
X68088119Y-47811258D01*
X68016508Y-47984144D01*
X68016506Y-47984152D01*
X67980000Y-48167678D01*
X63146062Y-48167678D01*
X63083923Y-48051425D01*
X63083912Y-48051407D01*
X62903773Y-47781811D01*
X62698082Y-47531176D01*
X61487436Y-46320531D01*
X60285354Y-47522612D01*
X59931801Y-47169059D01*
X61133883Y-45966978D01*
X61133883Y-45966977D01*
X59923237Y-44756331D01*
X59672598Y-44550637D01*
X59672584Y-44550627D01*
X59403006Y-44370500D01*
X59402988Y-44370489D01*
X59117056Y-44217657D01*
X59117042Y-44217650D01*
X58817498Y-44093573D01*
X58507213Y-43999450D01*
X58490455Y-43996117D01*
X58428544Y-43963732D01*
X58393970Y-43903016D01*
X58397710Y-43833247D01*
X58438577Y-43776575D01*
X58503595Y-43750993D01*
X58514647Y-43750500D01*
X63751000Y-43750500D01*
X63818039Y-43770185D01*
X63863794Y-43822989D01*
X63875000Y-43874500D01*
X63875000Y-44750000D01*
X64899999Y-44750000D01*
X64874979Y-44810402D01*
X64850000Y-44935981D01*
X64850000Y-45064019D01*
X64874979Y-45189598D01*
X64899999Y-45250000D01*
X63875000Y-45250000D01*
X63875000Y-46172844D01*
X63881401Y-46232372D01*
X63881403Y-46232379D01*
X63931645Y-46367086D01*
X63931649Y-46367093D01*
X64017809Y-46482187D01*
X64017812Y-46482190D01*
X64132906Y-46568350D01*
X64132913Y-46568354D01*
X64267620Y-46618596D01*
X64267627Y-46618598D01*
X64327155Y-46624999D01*
X64327172Y-46625000D01*
X65250000Y-46625000D01*
X65250000Y-45600001D01*
X65310402Y-45625021D01*
X65435981Y-45650000D01*
X65564019Y-45650000D01*
X65689598Y-45625021D01*
X65750000Y-45600001D01*
X65750000Y-46625000D01*
X66672828Y-46625000D01*
X66672844Y-46624999D01*
X66732372Y-46618598D01*
X66732379Y-46618596D01*
X66867086Y-46568354D01*
X66867093Y-46568350D01*
X66982187Y-46482190D01*
X66982190Y-46482187D01*
X67068350Y-46367093D01*
X67068354Y-46367086D01*
X67118596Y-46232379D01*
X67118598Y-46232372D01*
X67124999Y-46172844D01*
X67125000Y-46172827D01*
X67125000Y-45250000D01*
X66100001Y-45250000D01*
X66125021Y-45189598D01*
X66150000Y-45064019D01*
X66150000Y-44935981D01*
X66125021Y-44810402D01*
X66100001Y-44750000D01*
X67125000Y-44750000D01*
X67125000Y-43874500D01*
X67144685Y-43807461D01*
X67197489Y-43761706D01*
X67249000Y-43750500D01*
X67919424Y-43750500D01*
X67986463Y-43770185D01*
X68032218Y-43822989D01*
X68042162Y-43892147D01*
X68033985Y-43921953D01*
X68016508Y-43964144D01*
X68016506Y-43964152D01*
X67980000Y-44147678D01*
X67980000Y-44391250D01*
X68630000Y-44391250D01*
X68630000Y-44891250D01*
X67980000Y-44891250D01*
X67980000Y-45134821D01*
X68016506Y-45318347D01*
X68016508Y-45318355D01*
X68088119Y-45491241D01*
X68088124Y-45491250D01*
X68192086Y-45646839D01*
X68192089Y-45646843D01*
X68324406Y-45779160D01*
X68324410Y-45779163D01*
X68479999Y-45883125D01*
X68480012Y-45883132D01*
X68652889Y-45954739D01*
X68652896Y-45954741D01*
X68680000Y-45960132D01*
X68680000Y-45208238D01*
X68689940Y-45225455D01*
X68745795Y-45281310D01*
X68814204Y-45320806D01*
X68890504Y-45341250D01*
X68969496Y-45341250D01*
X69045796Y-45320806D01*
X69114205Y-45281310D01*
X69170060Y-45225455D01*
X69180000Y-45208238D01*
X69180000Y-45960131D01*
X69207103Y-45954741D01*
X69207110Y-45954739D01*
X69379987Y-45883132D01*
X69380000Y-45883125D01*
X69535589Y-45779163D01*
X69535593Y-45779160D01*
X69667910Y-45646843D01*
X69667913Y-45646839D01*
X69771875Y-45491250D01*
X69771880Y-45491241D01*
X69843491Y-45318355D01*
X69843493Y-45318347D01*
X69879999Y-45134821D01*
X69880000Y-45134819D01*
X69880000Y-44891250D01*
X69230000Y-44891250D01*
X69230000Y-44391250D01*
X69880000Y-44391250D01*
X69880000Y-44147680D01*
X69879999Y-44147678D01*
X69843493Y-43964152D01*
X69843491Y-43964144D01*
X69771880Y-43791258D01*
X69771875Y-43791249D01*
X69667913Y-43635660D01*
X69667910Y-43635656D01*
X69535593Y-43503339D01*
X69535589Y-43503336D01*
X69380000Y-43399374D01*
X69379991Y-43399369D01*
X69207103Y-43327757D01*
X69207100Y-43327756D01*
X69180000Y-43322365D01*
X69180000Y-44074261D01*
X69170060Y-44057045D01*
X69114205Y-44001190D01*
X69045796Y-43961694D01*
X68969496Y-43941250D01*
X68890504Y-43941250D01*
X68814204Y-43961694D01*
X68745795Y-44001190D01*
X68689940Y-44057045D01*
X68680000Y-44074261D01*
X68680000Y-43543409D01*
X68699685Y-43476370D01*
X68699821Y-43476157D01*
X68705932Y-43466721D01*
X68705933Y-43466718D01*
X68706244Y-43466063D01*
X68716119Y-43443844D01*
X68716390Y-43443189D01*
X68716389Y-43443189D01*
X68716392Y-43443186D01*
X68729335Y-43394878D01*
X68731110Y-43388875D01*
X68746488Y-43341332D01*
X68746620Y-43340616D01*
X68750407Y-43316598D01*
X68750500Y-43315893D01*
X68750500Y-43284992D01*
X68753046Y-43259993D01*
X68761310Y-43219843D01*
X68774357Y-43184643D01*
X68792743Y-43151537D01*
X68815721Y-43121864D01*
X68843179Y-43095772D01*
X68873985Y-43074338D01*
X68907984Y-43057665D01*
X68943801Y-43046430D01*
X68990670Y-43039252D01*
X69009443Y-43037823D01*
X69039350Y-43037823D01*
X69039932Y-43037823D01*
X77296778Y-43076673D01*
G37*
%TD.AperFunction*%
%TD*%
M02*
