%TF.GenerationSoftware,KiCad,Pcbnew,8.0.2*%
%TF.CreationDate,2024-09-15T16:43:51-04:00*%
%TF.ProjectId,StepperMotorDriver,53746570-7065-4724-9d6f-746f72447269,rev?*%
%TF.SameCoordinates,Original*%
%TF.FileFunction,Copper,L3,Inr*%
%TF.FilePolarity,Positive*%
%FSLAX46Y46*%
G04 Gerber Fmt 4.6, Leading zero omitted, Abs format (unit mm)*
G04 Created by KiCad (PCBNEW 8.0.2) date 2024-09-15 16:43:51*
%MOMM*%
%LPD*%
G01*
G04 APERTURE LIST*
G04 Aperture macros list*
%AMRoundRect*
0 Rectangle with rounded corners*
0 $1 Rounding radius*
0 $2 $3 $4 $5 $6 $7 $8 $9 X,Y pos of 4 corners*
0 Add a 4 corners polygon primitive as box body*
4,1,4,$2,$3,$4,$5,$6,$7,$8,$9,$2,$3,0*
0 Add four circle primitives for the rounded corners*
1,1,$1+$1,$2,$3*
1,1,$1+$1,$4,$5*
1,1,$1+$1,$6,$7*
1,1,$1+$1,$8,$9*
0 Add four rect primitives between the rounded corners*
20,1,$1+$1,$2,$3,$4,$5,0*
20,1,$1+$1,$4,$5,$6,$7,0*
20,1,$1+$1,$6,$7,$8,$9,0*
20,1,$1+$1,$8,$9,$2,$3,0*%
%AMHorizOval*
0 Thick line with rounded ends*
0 $1 width*
0 $2 $3 position (X,Y) of the first rounded end (center of the circle)*
0 $4 $5 position (X,Y) of the second rounded end (center of the circle)*
0 Add line between two ends*
20,1,$1,$2,$3,$4,$5,0*
0 Add two circle primitives to create the rounded ends*
1,1,$1,$2,$3*
1,1,$1,$4,$5*%
G04 Aperture macros list end*
%TA.AperFunction,ComponentPad*%
%ADD10R,1.600000X1.600000*%
%TD*%
%TA.AperFunction,ComponentPad*%
%ADD11C,1.600000*%
%TD*%
%TA.AperFunction,ComponentPad*%
%ADD12C,3.000000*%
%TD*%
%TA.AperFunction,ComponentPad*%
%ADD13RoundRect,0.250000X0.750000X-0.600000X0.750000X0.600000X-0.750000X0.600000X-0.750000X-0.600000X0*%
%TD*%
%TA.AperFunction,ComponentPad*%
%ADD14O,2.000000X1.700000*%
%TD*%
%TA.AperFunction,ComponentPad*%
%ADD15HorizOval,5.600000X-1.272792X1.272792X1.272792X-1.272792X0*%
%TD*%
%TA.AperFunction,ComponentPad*%
%ADD16R,2.250000X2.250000*%
%TD*%
%TA.AperFunction,ComponentPad*%
%ADD17C,2.250000*%
%TD*%
%TA.AperFunction,ComponentPad*%
%ADD18HorizOval,5.600000X-1.272792X-1.272792X1.272792X1.272792X0*%
%TD*%
%TA.AperFunction,ComponentPad*%
%ADD19RoundRect,0.250000X-0.750000X0.600000X-0.750000X-0.600000X0.750000X-0.600000X0.750000X0.600000X0*%
%TD*%
%TA.AperFunction,ComponentPad*%
%ADD20O,0.900000X2.000000*%
%TD*%
%TA.AperFunction,ComponentPad*%
%ADD21O,0.900000X1.700000*%
%TD*%
%TA.AperFunction,ComponentPad*%
%ADD22HorizOval,5.600000X1.272792X1.272792X-1.272792X-1.272792X0*%
%TD*%
%TA.AperFunction,ComponentPad*%
%ADD23RoundRect,0.250000X-0.600000X-0.725000X0.600000X-0.725000X0.600000X0.725000X-0.600000X0.725000X0*%
%TD*%
%TA.AperFunction,ComponentPad*%
%ADD24O,1.700000X1.950000*%
%TD*%
%TA.AperFunction,ComponentPad*%
%ADD25R,1.350000X1.350000*%
%TD*%
%TA.AperFunction,ComponentPad*%
%ADD26O,1.350000X1.350000*%
%TD*%
%TA.AperFunction,ViaPad*%
%ADD27C,0.700000*%
%TD*%
%TA.AperFunction,ViaPad*%
%ADD28C,0.600000*%
%TD*%
G04 APERTURE END LIST*
D10*
%TO.N,VCC*%
%TO.C,C8*%
X82250000Y-69544888D03*
D11*
%TO.N,GND*%
X82250000Y-72044888D03*
%TD*%
D12*
%TO.N,GND*%
%TO.C,J9*%
X90500000Y-53000000D03*
%TD*%
D13*
%TO.N,/CANH*%
%TO.C,J7*%
X88700000Y-63750000D03*
D14*
%TO.N,/CANL*%
X88700000Y-61250000D03*
%TD*%
D15*
%TO.N,GND*%
%TO.C,H3*%
X58977207Y-48477207D03*
%TD*%
D16*
%TO.N,GND*%
%TO.C,SW1*%
X81000000Y-45000000D03*
D17*
%TO.N,Net-(SW1-B)*%
X81000000Y-51500000D03*
%TD*%
D18*
%TO.N,GND*%
%TO.C,H4*%
X58977207Y-77022793D03*
%TD*%
D15*
%TO.N,GND*%
%TO.C,H2*%
X87522791Y-77022791D03*
%TD*%
D12*
%TO.N,GND*%
%TO.C,J2*%
X56000000Y-53000000D03*
%TD*%
%TO.N,VCC*%
%TO.C,J3*%
X90500000Y-72500000D03*
%TD*%
D19*
%TO.N,/CANH*%
%TO.C,J1*%
X57800000Y-61241432D03*
D14*
%TO.N,/CANL*%
X57800000Y-63741432D03*
%TD*%
D12*
%TO.N,VCC*%
%TO.C,J8*%
X56000000Y-72500000D03*
%TD*%
D20*
%TO.N,GND*%
%TO.C,J10*%
X77570000Y-48811250D03*
D21*
X77570000Y-44641250D03*
D20*
X68930000Y-48811250D03*
D21*
X68930000Y-44641250D03*
%TD*%
D22*
%TO.N,GND*%
%TO.C,H1*%
X87522792Y-48477208D03*
%TD*%
D23*
%TO.N,/OA2*%
%TO.C,J4*%
X69500000Y-76750000D03*
D24*
%TO.N,/OA1*%
X72000000Y-76750000D03*
%TO.N,/OB1*%
X74500000Y-76750000D03*
%TO.N,/OB2*%
X77000000Y-76750000D03*
%TD*%
D25*
%TO.N,/SWCLK*%
%TO.C,J5*%
X73066028Y-73750000D03*
D26*
%TO.N,/SWDIO*%
X71066028Y-73750000D03*
%TD*%
D16*
%TO.N,GND*%
%TO.C,SW2*%
X65500000Y-45000000D03*
D17*
%TO.N,Net-(SW2-B)*%
X65500000Y-51500000D03*
%TD*%
D27*
%TO.N,GND*%
X62520258Y-57990546D03*
D28*
X83165380Y-61165380D03*
X77468664Y-59760000D03*
X81250000Y-63500000D03*
X72103667Y-64320414D03*
X76846023Y-59096023D03*
X80250000Y-62500000D03*
X84000000Y-68500000D03*
X84500000Y-55750000D03*
X81250000Y-62500000D03*
D27*
X69250000Y-51000000D03*
D28*
X76000000Y-71500000D03*
X67547536Y-54047537D03*
D27*
X67450000Y-69750000D03*
D28*
X63500000Y-51500000D03*
X75254139Y-52001493D03*
X67250000Y-79250000D03*
X80250000Y-63500000D03*
X81250000Y-64500000D03*
X79250000Y-63500000D03*
X84000000Y-72000000D03*
X67450000Y-70609637D03*
X72500000Y-69106568D03*
X67750000Y-52000000D03*
X61926505Y-60250000D03*
X62750000Y-60250000D03*
X66750000Y-75500000D03*
X72889230Y-58610770D03*
X82608880Y-77108880D03*
X80250000Y-64500000D03*
X74219970Y-70046722D03*
X60000000Y-65000000D03*
D27*
X77125000Y-50125000D03*
D28*
X79250000Y-62500000D03*
X84500000Y-54750000D03*
X63650000Y-70669240D03*
X77499817Y-61060742D03*
X78250000Y-62500000D03*
X77222998Y-51997030D03*
X77750000Y-71250000D03*
X84500000Y-53750000D03*
X78250000Y-64500000D03*
X78000000Y-50500000D03*
X78250000Y-63500000D03*
X79250000Y-64500000D03*
X61000000Y-64973507D03*
%TO.N,+3V3*%
X78530000Y-51250000D03*
X77212816Y-61807491D03*
X69600000Y-60075000D03*
D27*
X69250000Y-53250000D03*
X68875000Y-72125000D03*
D28*
X74097298Y-58595668D03*
X65311747Y-54558347D03*
X80750000Y-56750000D03*
X80000000Y-54250000D03*
D27*
X66250000Y-54000000D03*
D28*
X61500000Y-58000000D03*
X74150000Y-56900000D03*
X73871873Y-67784373D03*
X62850000Y-71000000D03*
X75750000Y-59155287D03*
X65787500Y-73000000D03*
X55250000Y-62500000D03*
X70250000Y-52750000D03*
X80750000Y-55750000D03*
X80750000Y-54750000D03*
D27*
X69750000Y-72000000D03*
D28*
X80000000Y-56250000D03*
X80000000Y-55250000D03*
%TO.N,VCC*%
X83500000Y-70250000D03*
X78100000Y-67650000D03*
X83500000Y-69250000D03*
X84559998Y-64385354D03*
X77250000Y-67650000D03*
X76500000Y-68000000D03*
X82250000Y-67650000D03*
%TO.N,/MOT_ENABLE*%
X68915708Y-67339593D03*
X85152446Y-66347554D03*
%TO.N,/MOT_DIAG*%
X70107698Y-56477902D03*
X79260869Y-59989131D03*
%TO.N,/MOT_SPREAD*%
X67466398Y-67987997D03*
X86000000Y-66250000D03*
%TO.N,/MOT_MS1*%
X68000000Y-56500000D03*
X80989679Y-60000000D03*
%TO.N,/MOT_MS2*%
X69420380Y-55920380D03*
X80155269Y-60151600D03*
%TO.N,/MOT_INDEX*%
X78353553Y-59896448D03*
X71038878Y-56288768D03*
%TO.N,/ESCL*%
X70900000Y-59250000D03*
%TO.N,/ESDA*%
X68625437Y-55830557D03*
%TO.N,/CAN_RX*%
X65588118Y-65500000D03*
X67470056Y-64942944D03*
%TO.N,Net-(SW2-B)*%
X65250000Y-53250000D03*
X66711765Y-60613235D03*
%TO.N,Net-(SW1-B)*%
X77500000Y-53000000D03*
X66758885Y-59741115D03*
%TO.N,/SWDIO*%
X72450000Y-60500000D03*
%TO.N,/SWCLK*%
X71525000Y-59750735D03*
%TD*%
%TA.AperFunction,Conductor*%
%TO.N,+3V3*%
G36*
X77294274Y-43076661D02*
G01*
X77361220Y-43096661D01*
X77406725Y-43149680D01*
X77416343Y-43218884D01*
X77387020Y-43282303D01*
X77328065Y-43319800D01*
X77317883Y-43322277D01*
X77292753Y-43327275D01*
X77292748Y-43327277D01*
X77119771Y-43398926D01*
X77119762Y-43398931D01*
X76964092Y-43502947D01*
X76964088Y-43502950D01*
X76831700Y-43635338D01*
X76831697Y-43635342D01*
X76727681Y-43791012D01*
X76727676Y-43791021D01*
X76656027Y-43963998D01*
X76656025Y-43964006D01*
X76619500Y-44147629D01*
X76619500Y-45134870D01*
X76656025Y-45318493D01*
X76656027Y-45318501D01*
X76727676Y-45491478D01*
X76727681Y-45491487D01*
X76831697Y-45647157D01*
X76831700Y-45647161D01*
X76964088Y-45779549D01*
X76964092Y-45779552D01*
X77119762Y-45883568D01*
X77119768Y-45883571D01*
X77119769Y-45883572D01*
X77292749Y-45955223D01*
X77476379Y-45991749D01*
X77476383Y-45991750D01*
X77476384Y-45991750D01*
X77663617Y-45991750D01*
X77663618Y-45991749D01*
X77847251Y-45955223D01*
X78020231Y-45883572D01*
X78175908Y-45779552D01*
X78308302Y-45647158D01*
X78412322Y-45491481D01*
X78483973Y-45318501D01*
X78520500Y-45134866D01*
X78520500Y-44147634D01*
X78483973Y-43963999D01*
X78480537Y-43955703D01*
X78466557Y-43921952D01*
X78459088Y-43852483D01*
X78490363Y-43790004D01*
X78550452Y-43754352D01*
X78581118Y-43750500D01*
X79250500Y-43750500D01*
X79317539Y-43770185D01*
X79363294Y-43822989D01*
X79374500Y-43874500D01*
X79374500Y-46172870D01*
X79374501Y-46172876D01*
X79380908Y-46232483D01*
X79431202Y-46367328D01*
X79431206Y-46367335D01*
X79517452Y-46482544D01*
X79517455Y-46482547D01*
X79632664Y-46568793D01*
X79632671Y-46568797D01*
X79767517Y-46619091D01*
X79767516Y-46619091D01*
X79774444Y-46619835D01*
X79827127Y-46625500D01*
X82172872Y-46625499D01*
X82232483Y-46619091D01*
X82367331Y-46568796D01*
X82482546Y-46482546D01*
X82568796Y-46367331D01*
X82619091Y-46232483D01*
X82625500Y-46172873D01*
X82625499Y-43874499D01*
X82645184Y-43807461D01*
X82697987Y-43761706D01*
X82749499Y-43750500D01*
X87982797Y-43750500D01*
X88049836Y-43770185D01*
X88095591Y-43822989D01*
X88105535Y-43892147D01*
X88076510Y-43955703D01*
X88017732Y-43993477D01*
X88006988Y-43996117D01*
X87992681Y-43998962D01*
X87992669Y-43998965D01*
X87682335Y-44093103D01*
X87382733Y-44217202D01*
X87382728Y-44217204D01*
X87096752Y-44370062D01*
X87096734Y-44370073D01*
X86827115Y-44550227D01*
X86827101Y-44550237D01*
X86576424Y-44755962D01*
X83801546Y-47530840D01*
X83595820Y-47781518D01*
X83415657Y-48051151D01*
X83415646Y-48051169D01*
X83262788Y-48337145D01*
X83262786Y-48337150D01*
X83138686Y-48636752D01*
X83044548Y-48947086D01*
X83044545Y-48947097D01*
X82981285Y-49265132D01*
X82962599Y-49454866D01*
X82949501Y-49587857D01*
X82949501Y-49912143D01*
X82954920Y-49967161D01*
X82981285Y-50234867D01*
X83044545Y-50552902D01*
X83044548Y-50552913D01*
X83138686Y-50863247D01*
X83262786Y-51162849D01*
X83262788Y-51162854D01*
X83415646Y-51448830D01*
X83415657Y-51448848D01*
X83595820Y-51718481D01*
X83801546Y-51969159D01*
X84030840Y-52198453D01*
X84281518Y-52404179D01*
X84281524Y-52404183D01*
X84551158Y-52584347D01*
X84551167Y-52584352D01*
X84551169Y-52584353D01*
X84837145Y-52737211D01*
X84837147Y-52737211D01*
X84837153Y-52737215D01*
X85136754Y-52861314D01*
X85447077Y-52955449D01*
X85447083Y-52955450D01*
X85447086Y-52955451D01*
X85447097Y-52955454D01*
X85765112Y-53018710D01*
X85765132Y-53018714D01*
X86087857Y-53050499D01*
X86087860Y-53050499D01*
X86412140Y-53050499D01*
X86412143Y-53050499D01*
X86734868Y-53018714D01*
X86796780Y-53006398D01*
X87052902Y-52955454D01*
X87052913Y-52955451D01*
X87052913Y-52955450D01*
X87052923Y-52955449D01*
X87363246Y-52861314D01*
X87662847Y-52737215D01*
X87948842Y-52584347D01*
X88218476Y-52404183D01*
X88394109Y-52260044D01*
X88458417Y-52232733D01*
X88527284Y-52244524D01*
X88578845Y-52291676D01*
X88596728Y-52359218D01*
X88588955Y-52399230D01*
X88575628Y-52434961D01*
X88514804Y-52714566D01*
X88494390Y-52999998D01*
X88494390Y-53000001D01*
X88514804Y-53285433D01*
X88575628Y-53565037D01*
X88575630Y-53565043D01*
X88575631Y-53565046D01*
X88665340Y-53805565D01*
X88675635Y-53833166D01*
X88812770Y-54084309D01*
X88812775Y-54084317D01*
X88984254Y-54313387D01*
X88984270Y-54313405D01*
X89186594Y-54515729D01*
X89186612Y-54515745D01*
X89415682Y-54687224D01*
X89415690Y-54687229D01*
X89666833Y-54824364D01*
X89666832Y-54824364D01*
X89666836Y-54824365D01*
X89666839Y-54824367D01*
X89934954Y-54924369D01*
X89934960Y-54924370D01*
X89934962Y-54924371D01*
X90214566Y-54985195D01*
X90214568Y-54985195D01*
X90214572Y-54985196D01*
X90468220Y-55003337D01*
X90499999Y-55005610D01*
X90500000Y-55005610D01*
X90500001Y-55005610D01*
X90528595Y-55003564D01*
X90785428Y-54985196D01*
X91042586Y-54929255D01*
X91065037Y-54924371D01*
X91065037Y-54924370D01*
X91065046Y-54924369D01*
X91333161Y-54824367D01*
X91584315Y-54687226D01*
X91813395Y-54515739D01*
X92015739Y-54313395D01*
X92187226Y-54084315D01*
X92324367Y-53833161D01*
X92424369Y-53565046D01*
X92438027Y-53502262D01*
X92485195Y-53285433D01*
X92485195Y-53285432D01*
X92485196Y-53285428D01*
X92501816Y-53053048D01*
X92522427Y-52997787D01*
X92506523Y-52973040D01*
X92501816Y-52946951D01*
X92492790Y-52820750D01*
X92485196Y-52714572D01*
X92471792Y-52652956D01*
X92424371Y-52434962D01*
X92424370Y-52434960D01*
X92424369Y-52434954D01*
X92324367Y-52166839D01*
X92304371Y-52130220D01*
X92187229Y-51915690D01*
X92187224Y-51915682D01*
X92015745Y-51686612D01*
X92015729Y-51686594D01*
X91813405Y-51484270D01*
X91813387Y-51484254D01*
X91584317Y-51312775D01*
X91584309Y-51312770D01*
X91333166Y-51175635D01*
X91333167Y-51175635D01*
X91210321Y-51129816D01*
X91065046Y-51075631D01*
X91065043Y-51075630D01*
X91065037Y-51075628D01*
X90785433Y-51014804D01*
X90500001Y-50994390D01*
X90499999Y-50994390D01*
X90214566Y-51014804D01*
X89934961Y-51075628D01*
X89927807Y-51078296D01*
X89922038Y-51080448D01*
X89852348Y-51085431D01*
X89791026Y-51051944D01*
X89757542Y-50990620D01*
X89762528Y-50920929D01*
X89791028Y-50876584D01*
X91244037Y-49423575D01*
X91244038Y-49423574D01*
X91244042Y-49423570D01*
X91449767Y-49172893D01*
X91629931Y-48903259D01*
X91782799Y-48617264D01*
X91906897Y-48317663D01*
X92001032Y-48007340D01*
X92001034Y-48007330D01*
X92001037Y-48007319D01*
X92040082Y-47811021D01*
X92064297Y-47689284D01*
X92096083Y-47366559D01*
X92096083Y-47042273D01*
X92064297Y-46719548D01*
X92034310Y-46568793D01*
X92001037Y-46401513D01*
X92001034Y-46401502D01*
X92001033Y-46401499D01*
X92001032Y-46401493D01*
X91906897Y-46091170D01*
X91782799Y-45791569D01*
X91705609Y-45647158D01*
X91629937Y-45505585D01*
X91629936Y-45505583D01*
X91629931Y-45505574D01*
X91449767Y-45235940D01*
X91244042Y-44985263D01*
X91244040Y-44985261D01*
X91244037Y-44985257D01*
X91014742Y-44755962D01*
X90764065Y-44550237D01*
X90764062Y-44550235D01*
X90764060Y-44550233D01*
X90750077Y-44540890D01*
X90632653Y-44462429D01*
X90587848Y-44408817D01*
X90579141Y-44339492D01*
X90609296Y-44276464D01*
X90668739Y-44239745D01*
X90738597Y-44240992D01*
X90765390Y-44253027D01*
X91018302Y-44404944D01*
X91028397Y-44411703D01*
X91176588Y-44521806D01*
X91324776Y-44631908D01*
X91334168Y-44639628D01*
X91607572Y-44887810D01*
X91616162Y-44896413D01*
X91863939Y-45170164D01*
X91871640Y-45179559D01*
X92091436Y-45476283D01*
X92098171Y-45486375D01*
X92109673Y-45505585D01*
X92287846Y-45803182D01*
X92293572Y-45813906D01*
X92451311Y-46147762D01*
X92455959Y-46158996D01*
X92580242Y-46506684D01*
X92583768Y-46518319D01*
X92673406Y-46876508D01*
X92675776Y-46888432D01*
X92729909Y-47253679D01*
X92731100Y-47265778D01*
X92749351Y-47637537D01*
X92749500Y-47643617D01*
X92749500Y-52938105D01*
X92729904Y-53004839D01*
X92746666Y-53035536D01*
X92749500Y-53061894D01*
X92749500Y-62414733D01*
X92729815Y-62481772D01*
X92677011Y-62527527D01*
X92618720Y-62538548D01*
X92615009Y-62538344D01*
X90314000Y-62576694D01*
X90210850Y-62589092D01*
X90161404Y-62600282D01*
X90161403Y-62600283D01*
X90084967Y-62626078D01*
X90015153Y-62628863D01*
X89957637Y-62596269D01*
X89918657Y-62557289D01*
X89918656Y-62557288D01*
X89769334Y-62465186D01*
X89769333Y-62465185D01*
X89763878Y-62461821D01*
X89717154Y-62409873D01*
X89705931Y-62340910D01*
X89733775Y-62276828D01*
X89741272Y-62268623D01*
X89880104Y-62129792D01*
X89959826Y-62020064D01*
X90005048Y-61957820D01*
X90005047Y-61957820D01*
X90005051Y-61957816D01*
X90101557Y-61768412D01*
X90167246Y-61566243D01*
X90200500Y-61356287D01*
X90200500Y-61143713D01*
X90167246Y-60933757D01*
X90101557Y-60731588D01*
X90005051Y-60542184D01*
X90005049Y-60542181D01*
X90005048Y-60542179D01*
X89880109Y-60370213D01*
X89729786Y-60219890D01*
X89557820Y-60094951D01*
X89368414Y-59998444D01*
X89368413Y-59998443D01*
X89368412Y-59998443D01*
X89166243Y-59932754D01*
X89166241Y-59932753D01*
X89166240Y-59932753D01*
X88968491Y-59901433D01*
X88956287Y-59899500D01*
X88443713Y-59899500D01*
X88431509Y-59901433D01*
X88233760Y-59932753D01*
X88031585Y-59998444D01*
X87842179Y-60094951D01*
X87670213Y-60219890D01*
X87519890Y-60370213D01*
X87394951Y-60542179D01*
X87298444Y-60731585D01*
X87232753Y-60933760D01*
X87216660Y-61035368D01*
X87199500Y-61143713D01*
X87199500Y-61356287D01*
X87209401Y-61418800D01*
X87228704Y-61540677D01*
X87232754Y-61566243D01*
X87280968Y-61714631D01*
X87298444Y-61768414D01*
X87394951Y-61957820D01*
X87519890Y-62129786D01*
X87658705Y-62268601D01*
X87692190Y-62329924D01*
X87687206Y-62399616D01*
X87645334Y-62455549D01*
X87636121Y-62461821D01*
X87481345Y-62557287D01*
X87401336Y-62637296D01*
X87340012Y-62670780D01*
X87279847Y-62666997D01*
X87279382Y-62668688D01*
X87208332Y-62649105D01*
X87207799Y-62648955D01*
X87207746Y-62648944D01*
X87065008Y-62630844D01*
X82172454Y-62712388D01*
X82105096Y-62693823D01*
X82058468Y-62641789D01*
X82047168Y-62574522D01*
X82055565Y-62500000D01*
X82053511Y-62481772D01*
X82035369Y-62320750D01*
X82035368Y-62320745D01*
X82017122Y-62268600D01*
X81975789Y-62150478D01*
X81962787Y-62129786D01*
X81879815Y-61997737D01*
X81752262Y-61870184D01*
X81599523Y-61774211D01*
X81429254Y-61714631D01*
X81429249Y-61714630D01*
X81250004Y-61694435D01*
X81249996Y-61694435D01*
X81070750Y-61714630D01*
X81070737Y-61714633D01*
X80900479Y-61774209D01*
X80815971Y-61827309D01*
X80748734Y-61846309D01*
X80684029Y-61827309D01*
X80599520Y-61774209D01*
X80429262Y-61714633D01*
X80429249Y-61714630D01*
X80250004Y-61694435D01*
X80249996Y-61694435D01*
X80070750Y-61714630D01*
X80070737Y-61714633D01*
X79900479Y-61774209D01*
X79815971Y-61827309D01*
X79748734Y-61846309D01*
X79684029Y-61827309D01*
X79599520Y-61774209D01*
X79429262Y-61714633D01*
X79429249Y-61714630D01*
X79250004Y-61694435D01*
X79249996Y-61694435D01*
X79070750Y-61714630D01*
X79070737Y-61714633D01*
X78900479Y-61774209D01*
X78815971Y-61827309D01*
X78748734Y-61846309D01*
X78684029Y-61827309D01*
X78599520Y-61774209D01*
X78429262Y-61714633D01*
X78429249Y-61714630D01*
X78256572Y-61695175D01*
X78192158Y-61668109D01*
X78152602Y-61610514D01*
X78150465Y-61540677D01*
X78165462Y-61505982D01*
X78225605Y-61410266D01*
X78244493Y-61356287D01*
X78285185Y-61239997D01*
X78293592Y-61165383D01*
X78293593Y-61165376D01*
X82359815Y-61165376D01*
X82359815Y-61165383D01*
X82380010Y-61344629D01*
X82380011Y-61344634D01*
X82439591Y-61514903D01*
X82499668Y-61610514D01*
X82535564Y-61667642D01*
X82663118Y-61795196D01*
X82744147Y-61846110D01*
X82782460Y-61870184D01*
X82815858Y-61891169D01*
X82984636Y-61950227D01*
X82986125Y-61950748D01*
X82986130Y-61950749D01*
X83165376Y-61970945D01*
X83165380Y-61970945D01*
X83165384Y-61970945D01*
X83344629Y-61950749D01*
X83344632Y-61950748D01*
X83344635Y-61950748D01*
X83514902Y-61891169D01*
X83667642Y-61795196D01*
X83795196Y-61667642D01*
X83891169Y-61514902D01*
X83950748Y-61344635D01*
X83950749Y-61344629D01*
X83970945Y-61165383D01*
X83970945Y-61165376D01*
X83950749Y-60986130D01*
X83950748Y-60986125D01*
X83946075Y-60972769D01*
X83891169Y-60815858D01*
X83884701Y-60805565D01*
X83827745Y-60714919D01*
X83795196Y-60663118D01*
X83667642Y-60535564D01*
X83514903Y-60439591D01*
X83344634Y-60380011D01*
X83344629Y-60380010D01*
X83165384Y-60359815D01*
X83165376Y-60359815D01*
X82986130Y-60380010D01*
X82986125Y-60380011D01*
X82815856Y-60439591D01*
X82663117Y-60535564D01*
X82535564Y-60663117D01*
X82439591Y-60815856D01*
X82380011Y-60986125D01*
X82380010Y-60986130D01*
X82359815Y-61165376D01*
X78293593Y-61165376D01*
X78305382Y-61060745D01*
X78305382Y-61060738D01*
X78285186Y-60881492D01*
X78285183Y-60881479D01*
X78278716Y-60862997D01*
X78275154Y-60793218D01*
X78309882Y-60732591D01*
X78371876Y-60700363D01*
X78381874Y-60698822D01*
X78532802Y-60681817D01*
X78532805Y-60681816D01*
X78532808Y-60681816D01*
X78532809Y-60681815D01*
X78532812Y-60681815D01*
X78586247Y-60663117D01*
X78685742Y-60628301D01*
X78755519Y-60624739D01*
X78792668Y-60640349D01*
X78890805Y-60702013D01*
X78911347Y-60714920D01*
X79046926Y-60762361D01*
X79081614Y-60774499D01*
X79081619Y-60774500D01*
X79260865Y-60794696D01*
X79260869Y-60794696D01*
X79260873Y-60794696D01*
X79440118Y-60774500D01*
X79440119Y-60774499D01*
X79440124Y-60774499D01*
X79519158Y-60746842D01*
X79588936Y-60743280D01*
X79647794Y-60776203D01*
X79653007Y-60781416D01*
X79671790Y-60793218D01*
X79761398Y-60849523D01*
X79805747Y-60877389D01*
X79966846Y-60933760D01*
X79976014Y-60936968D01*
X79976019Y-60936969D01*
X80155265Y-60957165D01*
X80155269Y-60957165D01*
X80155273Y-60957165D01*
X80334518Y-60936969D01*
X80334521Y-60936968D01*
X80334524Y-60936968D01*
X80504791Y-60877389D01*
X80657531Y-60781416D01*
X80657531Y-60781415D01*
X80657618Y-60781361D01*
X80724854Y-60762361D01*
X80764545Y-60769314D01*
X80810427Y-60785369D01*
X80989675Y-60805565D01*
X80989679Y-60805565D01*
X80989683Y-60805565D01*
X81168928Y-60785369D01*
X81168931Y-60785368D01*
X81168934Y-60785368D01*
X81339201Y-60725789D01*
X81491941Y-60629816D01*
X81619495Y-60502262D01*
X81715468Y-60349522D01*
X81775047Y-60179255D01*
X81775777Y-60172776D01*
X81795244Y-60000003D01*
X81795244Y-59999996D01*
X81775048Y-59820750D01*
X81775047Y-59820745D01*
X81741838Y-59725839D01*
X81715468Y-59650478D01*
X81619495Y-59497738D01*
X81491941Y-59370184D01*
X81453508Y-59346035D01*
X81339202Y-59274211D01*
X81168933Y-59214631D01*
X81168928Y-59214630D01*
X80989683Y-59194435D01*
X80989675Y-59194435D01*
X80810429Y-59214630D01*
X80810424Y-59214631D01*
X80640155Y-59274211D01*
X80487330Y-59370238D01*
X80420093Y-59389238D01*
X80380405Y-59382286D01*
X80334524Y-59366232D01*
X80334515Y-59366230D01*
X80155273Y-59346035D01*
X80155265Y-59346035D01*
X79976019Y-59366230D01*
X79976011Y-59366232D01*
X79896977Y-59393887D01*
X79827198Y-59397448D01*
X79768342Y-59364526D01*
X79763131Y-59359315D01*
X79610392Y-59263342D01*
X79440123Y-59203762D01*
X79440118Y-59203761D01*
X79260873Y-59183566D01*
X79260865Y-59183566D01*
X79081619Y-59203761D01*
X79081611Y-59203763D01*
X78928678Y-59257277D01*
X78858900Y-59260838D01*
X78821752Y-59245229D01*
X78773057Y-59214632D01*
X78703075Y-59170659D01*
X78697614Y-59168748D01*
X78532807Y-59111079D01*
X78532802Y-59111078D01*
X78353557Y-59090883D01*
X78353549Y-59090883D01*
X78174300Y-59111079D01*
X78080504Y-59143899D01*
X78010725Y-59147460D01*
X77973578Y-59131850D01*
X77818187Y-59034210D01*
X77818185Y-59034209D01*
X77708521Y-58995836D01*
X77651745Y-58955114D01*
X77632434Y-58919749D01*
X77627653Y-58906087D01*
X77571812Y-58746501D01*
X77475839Y-58593761D01*
X77348285Y-58466207D01*
X77293073Y-58431515D01*
X77195546Y-58370234D01*
X77025277Y-58310654D01*
X77025272Y-58310653D01*
X76846027Y-58290458D01*
X76846019Y-58290458D01*
X76666773Y-58310653D01*
X76666768Y-58310654D01*
X76496499Y-58370234D01*
X76343760Y-58466207D01*
X76216207Y-58593760D01*
X76120234Y-58746499D01*
X76060654Y-58916768D01*
X76060653Y-58916773D01*
X76040458Y-59096019D01*
X76040458Y-59096026D01*
X76060653Y-59275272D01*
X76060654Y-59275277D01*
X76120234Y-59445546D01*
X76193323Y-59561865D01*
X76216207Y-59598285D01*
X76343761Y-59725839D01*
X76496501Y-59821812D01*
X76606166Y-59860185D01*
X76662940Y-59900905D01*
X76682252Y-59936271D01*
X76742875Y-60109523D01*
X76838848Y-60262262D01*
X76914852Y-60338266D01*
X76948337Y-60399589D01*
X76943353Y-60469281D01*
X76914853Y-60513627D01*
X76870001Y-60558479D01*
X76774028Y-60711218D01*
X76714448Y-60881487D01*
X76714447Y-60881492D01*
X76694252Y-61060738D01*
X76694252Y-61060745D01*
X76714447Y-61239991D01*
X76714448Y-61239996D01*
X76774028Y-61410265D01*
X76839776Y-61514902D01*
X76870001Y-61563004D01*
X76997555Y-61690558D01*
X77035867Y-61714631D01*
X77130684Y-61774209D01*
X77150295Y-61786531D01*
X77266832Y-61827309D01*
X77320562Y-61846110D01*
X77320566Y-61846111D01*
X77419685Y-61857278D01*
X77493245Y-61865566D01*
X77557658Y-61892632D01*
X77597213Y-61950227D01*
X77599351Y-62020064D01*
X77584355Y-62054758D01*
X77524211Y-62150476D01*
X77464631Y-62320745D01*
X77464630Y-62320750D01*
X77444435Y-62499996D01*
X77444435Y-62500003D01*
X77462134Y-62657090D01*
X77450079Y-62725912D01*
X77402730Y-62777291D01*
X77335120Y-62794915D01*
X77323320Y-62793989D01*
X77317865Y-62793297D01*
X72529174Y-62873108D01*
X72458939Y-62879196D01*
X72424861Y-62884565D01*
X72424860Y-62884565D01*
X72356180Y-62900358D01*
X72356169Y-62900362D01*
X72225915Y-62961460D01*
X72167528Y-62999830D01*
X72167511Y-62999843D01*
X72164190Y-63002781D01*
X72100932Y-63032448D01*
X72031676Y-63023205D01*
X72002414Y-63004949D01*
X71975359Y-62982284D01*
X71975357Y-62982283D01*
X71843512Y-62924707D01*
X71843506Y-62924705D01*
X71843504Y-62924704D01*
X71843500Y-62924703D01*
X71843489Y-62924699D01*
X71777706Y-62906568D01*
X71776281Y-62906155D01*
X71633406Y-62888038D01*
X59414006Y-63091694D01*
X59310855Y-63104092D01*
X59261395Y-63115285D01*
X59258912Y-63115984D01*
X59258340Y-63115977D01*
X59258298Y-63115987D01*
X59258295Y-63115976D01*
X59189048Y-63115172D01*
X59130712Y-63076717D01*
X59114879Y-63052906D01*
X59105051Y-63033616D01*
X59105049Y-63033613D01*
X59105048Y-63033611D01*
X58980109Y-62861645D01*
X58841294Y-62722830D01*
X58807809Y-62661507D01*
X58812793Y-62591815D01*
X58854665Y-62535882D01*
X58863879Y-62529610D01*
X58869331Y-62526246D01*
X58869334Y-62526246D01*
X59018656Y-62434144D01*
X59142712Y-62310088D01*
X59234814Y-62160766D01*
X59289999Y-61994229D01*
X59300500Y-61891441D01*
X59300499Y-60591424D01*
X59298130Y-60568237D01*
X59289999Y-60488635D01*
X59289998Y-60488632D01*
X59260492Y-60399589D01*
X59234814Y-60322098D01*
X59190341Y-60249996D01*
X61120940Y-60249996D01*
X61120940Y-60250003D01*
X61141135Y-60429249D01*
X61141136Y-60429254D01*
X61200716Y-60599523D01*
X61273225Y-60714919D01*
X61296689Y-60752262D01*
X61424243Y-60879816D01*
X61510090Y-60933757D01*
X61575574Y-60974904D01*
X61576983Y-60975789D01*
X61747244Y-61035366D01*
X61747250Y-61035368D01*
X61747255Y-61035369D01*
X61926501Y-61055565D01*
X61926505Y-61055565D01*
X61926509Y-61055565D01*
X62105754Y-61035369D01*
X62105757Y-61035368D01*
X62105760Y-61035368D01*
X62276027Y-60975789D01*
X62276030Y-60975786D01*
X62282293Y-60972771D01*
X62283372Y-60975012D01*
X62339488Y-60959142D01*
X62393177Y-60974904D01*
X62394206Y-60972769D01*
X62400478Y-60975789D01*
X62570737Y-61035366D01*
X62570743Y-61035367D01*
X62570745Y-61035368D01*
X62570746Y-61035368D01*
X62570750Y-61035369D01*
X62749996Y-61055565D01*
X62750000Y-61055565D01*
X62750004Y-61055565D01*
X62929249Y-61035369D01*
X62929252Y-61035368D01*
X62929255Y-61035368D01*
X63099522Y-60975789D01*
X63252262Y-60879816D01*
X63379816Y-60752262D01*
X63467175Y-60613231D01*
X65906200Y-60613231D01*
X65906200Y-60613238D01*
X65926395Y-60792484D01*
X65926396Y-60792489D01*
X65985976Y-60962758D01*
X66047544Y-61060742D01*
X66081949Y-61115497D01*
X66209503Y-61243051D01*
X66362243Y-61339024D01*
X66411578Y-61356287D01*
X66532510Y-61398603D01*
X66532515Y-61398604D01*
X66711761Y-61418800D01*
X66711765Y-61418800D01*
X66711769Y-61418800D01*
X66891014Y-61398604D01*
X66891017Y-61398603D01*
X66891020Y-61398603D01*
X67061287Y-61339024D01*
X67214027Y-61243051D01*
X67341581Y-61115497D01*
X67437554Y-60962757D01*
X67497133Y-60792490D01*
X67497134Y-60792484D01*
X67517330Y-60613238D01*
X67517330Y-60613231D01*
X67497134Y-60433985D01*
X67497133Y-60433980D01*
X67435254Y-60257140D01*
X67438420Y-60256031D01*
X67429081Y-60201950D01*
X67447273Y-60150158D01*
X67484674Y-60090637D01*
X67544253Y-59920370D01*
X67546446Y-59900905D01*
X67564450Y-59741118D01*
X67564450Y-59741111D01*
X67544254Y-59561865D01*
X67544253Y-59561860D01*
X67503553Y-59445546D01*
X67484674Y-59391593D01*
X67483194Y-59389238D01*
X67420659Y-59289714D01*
X67395703Y-59249996D01*
X70094435Y-59249996D01*
X70094435Y-59250003D01*
X70114630Y-59429249D01*
X70114631Y-59429254D01*
X70174211Y-59599523D01*
X70242642Y-59708429D01*
X70270184Y-59752262D01*
X70397738Y-59879816D01*
X70487586Y-59936271D01*
X70550478Y-59975789D01*
X70727318Y-60037668D01*
X70726412Y-60040254D01*
X70776538Y-60068281D01*
X70795050Y-60094647D01*
X70795507Y-60094361D01*
X70799210Y-60100254D01*
X70799211Y-60100257D01*
X70895184Y-60252997D01*
X71022738Y-60380551D01*
X71175478Y-60476524D01*
X71344205Y-60535564D01*
X71345745Y-60536103D01*
X71345750Y-60536104D01*
X71448648Y-60547697D01*
X71525000Y-60556300D01*
X71525970Y-60556190D01*
X71526595Y-60556300D01*
X71531964Y-60556300D01*
X71531964Y-60557239D01*
X71594790Y-60568237D01*
X71646175Y-60615581D01*
X71663084Y-60665524D01*
X71664630Y-60679249D01*
X71664631Y-60679254D01*
X71664632Y-60679255D01*
X71666921Y-60685797D01*
X71724210Y-60849521D01*
X71802994Y-60974904D01*
X71820184Y-61002262D01*
X71947738Y-61129816D01*
X72100478Y-61225789D01*
X72270745Y-61285368D01*
X72270750Y-61285369D01*
X72449996Y-61305565D01*
X72450000Y-61305565D01*
X72450004Y-61305565D01*
X72629249Y-61285369D01*
X72629252Y-61285368D01*
X72629255Y-61285368D01*
X72799522Y-61225789D01*
X72952262Y-61129816D01*
X73079816Y-61002262D01*
X73175789Y-60849522D01*
X73235368Y-60679255D01*
X73236915Y-60665524D01*
X73255565Y-60500003D01*
X73255565Y-60499996D01*
X73235369Y-60320750D01*
X73235368Y-60320745D01*
X73213112Y-60257140D01*
X73175789Y-60150478D01*
X73079816Y-59997738D01*
X72952262Y-59870184D01*
X72936347Y-59860184D01*
X72799523Y-59774211D01*
X72629254Y-59714631D01*
X72629249Y-59714630D01*
X72450004Y-59694435D01*
X72450000Y-59694435D01*
X72449015Y-59694546D01*
X72448381Y-59694435D01*
X72443036Y-59694435D01*
X72443036Y-59693498D01*
X72380194Y-59682489D01*
X72328815Y-59635138D01*
X72311914Y-59585208D01*
X72310368Y-59571480D01*
X72310367Y-59571477D01*
X72310366Y-59571472D01*
X72257405Y-59420120D01*
X72253843Y-59350341D01*
X72288571Y-59289714D01*
X72350564Y-59257486D01*
X72420140Y-59263891D01*
X72440418Y-59274171D01*
X72465154Y-59289714D01*
X72539708Y-59336559D01*
X72624503Y-59366230D01*
X72709975Y-59396138D01*
X72709980Y-59396139D01*
X72889226Y-59416335D01*
X72889230Y-59416335D01*
X72889234Y-59416335D01*
X73068479Y-59396139D01*
X73068482Y-59396138D01*
X73068485Y-59396138D01*
X73238752Y-59336559D01*
X73391492Y-59240586D01*
X73519046Y-59113032D01*
X73615019Y-58960292D01*
X73674598Y-58790025D01*
X73693071Y-58626072D01*
X73694795Y-58610773D01*
X73694795Y-58610766D01*
X73674599Y-58431520D01*
X73674598Y-58431515D01*
X73632307Y-58310654D01*
X73615019Y-58261248D01*
X73519046Y-58108508D01*
X73391492Y-57980954D01*
X73238753Y-57884981D01*
X73068484Y-57825401D01*
X73068479Y-57825400D01*
X72889234Y-57805205D01*
X72889226Y-57805205D01*
X72709980Y-57825400D01*
X72709975Y-57825401D01*
X72539706Y-57884981D01*
X72386967Y-57980954D01*
X72259414Y-58108507D01*
X72163441Y-58261246D01*
X72103861Y-58431515D01*
X72103860Y-58431520D01*
X72083665Y-58610766D01*
X72083665Y-58610773D01*
X72103860Y-58790019D01*
X72103863Y-58790032D01*
X72156824Y-58941384D01*
X72160386Y-59011163D01*
X72125658Y-59071790D01*
X72063664Y-59104018D01*
X71994089Y-59097613D01*
X71973811Y-59087333D01*
X71874521Y-59024945D01*
X71785566Y-58993819D01*
X71704255Y-58965367D01*
X71704252Y-58965366D01*
X71697683Y-58963068D01*
X71698584Y-58960490D01*
X71648423Y-58932414D01*
X71629950Y-58906087D01*
X71629494Y-58906374D01*
X71529815Y-58747737D01*
X71402262Y-58620184D01*
X71249523Y-58524211D01*
X71079254Y-58464631D01*
X71079249Y-58464630D01*
X70900004Y-58444435D01*
X70899996Y-58444435D01*
X70720750Y-58464630D01*
X70720745Y-58464631D01*
X70550476Y-58524211D01*
X70397737Y-58620184D01*
X70270184Y-58747737D01*
X70174211Y-58900476D01*
X70114631Y-59070745D01*
X70114630Y-59070750D01*
X70094435Y-59249996D01*
X67395703Y-59249996D01*
X67388701Y-59238853D01*
X67261147Y-59111299D01*
X67236840Y-59096026D01*
X67108408Y-59015326D01*
X66938139Y-58955746D01*
X66938134Y-58955745D01*
X66758889Y-58935550D01*
X66758881Y-58935550D01*
X66579635Y-58955745D01*
X66579630Y-58955746D01*
X66409361Y-59015326D01*
X66256622Y-59111299D01*
X66129069Y-59238852D01*
X66033096Y-59391591D01*
X65973516Y-59561860D01*
X65973515Y-59561865D01*
X65953320Y-59741111D01*
X65953320Y-59741118D01*
X65973515Y-59920364D01*
X65973518Y-59920377D01*
X66035395Y-60097209D01*
X66032371Y-60098267D01*
X66041460Y-60153303D01*
X66023375Y-60204191D01*
X65985974Y-60263714D01*
X65926398Y-60433972D01*
X65926395Y-60433985D01*
X65906200Y-60613231D01*
X63467175Y-60613231D01*
X63475789Y-60599522D01*
X63535368Y-60429255D01*
X63540856Y-60380550D01*
X63555565Y-60250003D01*
X63555565Y-60249996D01*
X63535369Y-60070750D01*
X63535368Y-60070745D01*
X63502141Y-59975789D01*
X63475789Y-59900478D01*
X63475174Y-59899500D01*
X63426360Y-59821812D01*
X63379816Y-59747738D01*
X63252262Y-59620184D01*
X63196595Y-59585206D01*
X63099523Y-59524211D01*
X62929254Y-59464631D01*
X62929249Y-59464630D01*
X62750004Y-59444435D01*
X62749996Y-59444435D01*
X62570750Y-59464630D01*
X62570737Y-59464633D01*
X62400478Y-59524210D01*
X62394206Y-59527231D01*
X62393129Y-59524996D01*
X62336964Y-59540856D01*
X62283325Y-59525100D01*
X62282299Y-59527231D01*
X62276026Y-59524210D01*
X62105767Y-59464633D01*
X62105754Y-59464630D01*
X61926509Y-59444435D01*
X61926501Y-59444435D01*
X61747255Y-59464630D01*
X61747250Y-59464631D01*
X61576981Y-59524211D01*
X61424242Y-59620184D01*
X61296689Y-59747737D01*
X61200716Y-59900476D01*
X61141136Y-60070745D01*
X61141135Y-60070750D01*
X61120940Y-60249996D01*
X59190341Y-60249996D01*
X59142712Y-60172776D01*
X59018656Y-60048720D01*
X58869334Y-59956618D01*
X58702797Y-59901433D01*
X58702795Y-59901432D01*
X58600010Y-59890932D01*
X56999998Y-59890932D01*
X56999981Y-59890933D01*
X56897203Y-59901432D01*
X56897200Y-59901433D01*
X56730668Y-59956617D01*
X56730663Y-59956619D01*
X56581342Y-60048721D01*
X56457289Y-60172774D01*
X56365187Y-60322095D01*
X56365185Y-60322100D01*
X56342746Y-60389816D01*
X56310001Y-60488635D01*
X56310001Y-60488636D01*
X56310000Y-60488636D01*
X56299500Y-60591415D01*
X56299500Y-61891433D01*
X56299501Y-61891450D01*
X56310000Y-61994228D01*
X56310001Y-61994231D01*
X56365185Y-62160763D01*
X56365187Y-62160768D01*
X56457289Y-62310089D01*
X56581344Y-62434144D01*
X56736120Y-62529610D01*
X56782845Y-62581558D01*
X56794068Y-62650520D01*
X56766224Y-62714603D01*
X56758706Y-62722830D01*
X56619889Y-62861647D01*
X56494949Y-63033614D01*
X56459587Y-63103015D01*
X56411612Y-63153811D01*
X56343791Y-63170605D01*
X56316153Y-63166261D01*
X56308331Y-63164105D01*
X56307797Y-63163955D01*
X56307746Y-63163944D01*
X56165008Y-63145844D01*
X53609071Y-63188444D01*
X53541713Y-63169879D01*
X53495085Y-63117845D01*
X53483005Y-63064324D01*
X53488775Y-57990546D01*
X61665073Y-57990546D01*
X61683761Y-58168351D01*
X61683762Y-58168353D01*
X61739005Y-58338375D01*
X61739008Y-58338381D01*
X61828399Y-58493211D01*
X61856312Y-58524211D01*
X61948022Y-58626067D01*
X61948025Y-58626069D01*
X61948028Y-58626072D01*
X62092665Y-58731158D01*
X62255991Y-58803875D01*
X62430867Y-58841046D01*
X62430868Y-58841046D01*
X62609647Y-58841046D01*
X62609649Y-58841046D01*
X62784525Y-58803875D01*
X62947851Y-58731158D01*
X63092488Y-58626072D01*
X63106264Y-58610773D01*
X63121582Y-58593760D01*
X63212117Y-58493211D01*
X63301508Y-58338381D01*
X63356755Y-58168349D01*
X63375443Y-57990546D01*
X63356755Y-57812743D01*
X63301508Y-57642711D01*
X63212117Y-57487881D01*
X63165261Y-57435842D01*
X63092493Y-57355024D01*
X63092490Y-57355022D01*
X63092489Y-57355021D01*
X63092488Y-57355020D01*
X62947851Y-57249934D01*
X62784525Y-57177217D01*
X62784523Y-57177216D01*
X62656852Y-57150079D01*
X62609649Y-57140046D01*
X62430867Y-57140046D01*
X62400212Y-57146561D01*
X62255991Y-57177216D01*
X62255986Y-57177218D01*
X62092666Y-57249933D01*
X61948026Y-57355021D01*
X61828398Y-57487882D01*
X61739008Y-57642710D01*
X61739005Y-57642716D01*
X61683762Y-57812738D01*
X61683761Y-57812740D01*
X61665073Y-57990546D01*
X53488775Y-57990546D01*
X53490470Y-56499996D01*
X67194435Y-56499996D01*
X67194435Y-56500003D01*
X67214630Y-56679249D01*
X67214631Y-56679254D01*
X67274211Y-56849523D01*
X67356299Y-56980164D01*
X67370184Y-57002262D01*
X67497738Y-57129816D01*
X67650478Y-57225789D01*
X67815312Y-57283467D01*
X67820745Y-57285368D01*
X67820750Y-57285369D01*
X67999996Y-57305565D01*
X68000000Y-57305565D01*
X68000004Y-57305565D01*
X68179249Y-57285369D01*
X68179252Y-57285368D01*
X68179255Y-57285368D01*
X68349522Y-57225789D01*
X68502262Y-57129816D01*
X68629816Y-57002262D01*
X68725789Y-56849522D01*
X68785368Y-56679255D01*
X68785368Y-56679254D01*
X68787668Y-56672682D01*
X68790308Y-56673605D01*
X68818209Y-56623660D01*
X68864083Y-56595142D01*
X68888374Y-56586642D01*
X68958151Y-56583082D01*
X68995297Y-56598691D01*
X69058320Y-56638291D01*
X69070858Y-56646169D01*
X69241125Y-56705748D01*
X69265938Y-56708543D01*
X69330351Y-56735609D01*
X69369096Y-56790807D01*
X69381910Y-56827427D01*
X69477882Y-56980164D01*
X69605436Y-57107718D01*
X69640603Y-57129815D01*
X69716044Y-57177218D01*
X69758176Y-57203691D01*
X69890328Y-57249933D01*
X69928443Y-57263270D01*
X69928448Y-57263271D01*
X70107694Y-57283467D01*
X70107698Y-57283467D01*
X70107702Y-57283467D01*
X70286947Y-57263271D01*
X70286950Y-57263270D01*
X70286953Y-57263270D01*
X70457220Y-57203691D01*
X70609960Y-57107718D01*
X70644458Y-57073220D01*
X70705780Y-57039734D01*
X70773095Y-57043859D01*
X70859615Y-57074134D01*
X70859621Y-57074135D01*
X70859623Y-57074136D01*
X70859624Y-57074136D01*
X70859628Y-57074137D01*
X71038874Y-57094333D01*
X71038878Y-57094333D01*
X71038882Y-57094333D01*
X71218127Y-57074137D01*
X71218130Y-57074136D01*
X71218133Y-57074136D01*
X71388400Y-57014557D01*
X71541140Y-56918584D01*
X71668694Y-56791030D01*
X71764667Y-56638290D01*
X71824246Y-56468023D01*
X71824247Y-56468017D01*
X71844443Y-56288771D01*
X71844443Y-56288764D01*
X71824247Y-56109518D01*
X71824246Y-56109513D01*
X71764666Y-55939244D01*
X71668693Y-55786505D01*
X71541140Y-55658952D01*
X71388401Y-55562979D01*
X71218132Y-55503399D01*
X71218127Y-55503398D01*
X71038882Y-55483203D01*
X71038874Y-55483203D01*
X70859628Y-55503398D01*
X70859623Y-55503399D01*
X70689354Y-55562979D01*
X70536612Y-55658954D01*
X70536611Y-55658954D01*
X70502115Y-55693451D01*
X70440792Y-55726936D01*
X70373481Y-55722811D01*
X70286952Y-55692533D01*
X70286948Y-55692532D01*
X70262137Y-55689737D01*
X70197723Y-55662670D01*
X70158980Y-55607471D01*
X70146168Y-55570856D01*
X70050195Y-55418117D01*
X69922642Y-55290564D01*
X69769903Y-55194591D01*
X69599634Y-55135011D01*
X69599629Y-55135010D01*
X69420384Y-55114815D01*
X69420376Y-55114815D01*
X69241126Y-55135011D01*
X69241125Y-55135011D01*
X69157443Y-55164292D01*
X69087664Y-55167853D01*
X69050519Y-55152244D01*
X68974962Y-55104769D01*
X68804691Y-55045188D01*
X68804686Y-55045187D01*
X68625441Y-55024992D01*
X68625433Y-55024992D01*
X68446187Y-55045187D01*
X68446182Y-55045188D01*
X68275913Y-55104768D01*
X68123174Y-55200741D01*
X67995621Y-55328294D01*
X67899647Y-55481035D01*
X67861968Y-55588715D01*
X67840069Y-55651302D01*
X67840068Y-55651304D01*
X67837770Y-55657874D01*
X67835145Y-55656955D01*
X67807157Y-55706965D01*
X67761350Y-55735415D01*
X67650478Y-55774210D01*
X67497737Y-55870184D01*
X67370184Y-55997737D01*
X67274211Y-56150476D01*
X67214631Y-56320745D01*
X67214630Y-56320750D01*
X67194435Y-56499996D01*
X53490470Y-56499996D01*
X53500415Y-47754243D01*
X53500500Y-47752979D01*
X53500500Y-47682535D01*
X53500632Y-47676808D01*
X53516996Y-47322859D01*
X53518053Y-47311462D01*
X53566612Y-46963354D01*
X53568711Y-46952125D01*
X53649185Y-46609973D01*
X53652308Y-46598994D01*
X53764015Y-46265705D01*
X53768138Y-46255066D01*
X53910114Y-45933519D01*
X53915197Y-45923310D01*
X54086235Y-45616239D01*
X54092261Y-45606507D01*
X54290900Y-45316530D01*
X54297782Y-45307417D01*
X54522329Y-45037006D01*
X54530023Y-45028566D01*
X54778566Y-44780023D01*
X54787006Y-44772329D01*
X55057417Y-44547782D01*
X55066530Y-44540900D01*
X55356512Y-44342257D01*
X55366239Y-44336235D01*
X55673310Y-44165197D01*
X55683519Y-44160114D01*
X56005066Y-44018138D01*
X56015705Y-44014015D01*
X56348994Y-43902308D01*
X56359973Y-43899185D01*
X56488444Y-43868969D01*
X56558208Y-43872782D01*
X56614837Y-43913708D01*
X56640350Y-43978753D01*
X56626647Y-44047265D01*
X56578079Y-44097494D01*
X56564285Y-44104236D01*
X56291565Y-44217201D01*
X56291560Y-44217203D01*
X56005584Y-44370061D01*
X56005566Y-44370072D01*
X55735933Y-44550235D01*
X55485255Y-44755961D01*
X55255961Y-44985255D01*
X55050235Y-45235933D01*
X54870072Y-45505566D01*
X54870061Y-45505584D01*
X54717203Y-45791560D01*
X54717201Y-45791565D01*
X54593101Y-46091167D01*
X54498963Y-46401501D01*
X54498960Y-46401512D01*
X54435700Y-46719547D01*
X54403916Y-47042275D01*
X54403916Y-47366554D01*
X54435700Y-47689282D01*
X54498960Y-48007317D01*
X54498963Y-48007328D01*
X54593101Y-48317662D01*
X54628750Y-48403725D01*
X54710766Y-48601730D01*
X54717201Y-48617264D01*
X54717203Y-48617269D01*
X54870061Y-48903245D01*
X54870065Y-48903252D01*
X54870068Y-48903257D01*
X54870071Y-48903262D01*
X54870072Y-48903263D01*
X55050235Y-49172896D01*
X55255961Y-49423574D01*
X56708971Y-50876584D01*
X56742456Y-50937907D01*
X56737472Y-51007599D01*
X56695600Y-51063532D01*
X56630136Y-51087949D01*
X56577958Y-51080447D01*
X56565046Y-51075631D01*
X56565042Y-51075630D01*
X56565039Y-51075629D01*
X56285433Y-51014804D01*
X56000001Y-50994390D01*
X55999999Y-50994390D01*
X55714566Y-51014804D01*
X55434962Y-51075628D01*
X55166833Y-51175635D01*
X54915690Y-51312770D01*
X54915682Y-51312775D01*
X54686612Y-51484254D01*
X54686594Y-51484270D01*
X54484270Y-51686594D01*
X54484254Y-51686612D01*
X54312775Y-51915682D01*
X54312770Y-51915690D01*
X54175635Y-52166833D01*
X54075628Y-52434962D01*
X54014804Y-52714566D01*
X53994390Y-52999998D01*
X53994390Y-53000001D01*
X54014804Y-53285433D01*
X54075628Y-53565037D01*
X54075630Y-53565043D01*
X54075631Y-53565046D01*
X54165340Y-53805565D01*
X54175635Y-53833166D01*
X54312770Y-54084309D01*
X54312775Y-54084317D01*
X54484254Y-54313387D01*
X54484270Y-54313405D01*
X54686594Y-54515729D01*
X54686612Y-54515745D01*
X54915682Y-54687224D01*
X54915690Y-54687229D01*
X55166833Y-54824364D01*
X55166832Y-54824364D01*
X55166836Y-54824365D01*
X55166839Y-54824367D01*
X55434954Y-54924369D01*
X55434960Y-54924370D01*
X55434962Y-54924371D01*
X55714566Y-54985195D01*
X55714568Y-54985195D01*
X55714572Y-54985196D01*
X55968220Y-55003337D01*
X55999999Y-55005610D01*
X56000000Y-55005610D01*
X56000001Y-55005610D01*
X56028595Y-55003564D01*
X56285428Y-54985196D01*
X56542586Y-54929255D01*
X56565037Y-54924371D01*
X56565037Y-54924370D01*
X56565046Y-54924369D01*
X56833161Y-54824367D01*
X57084315Y-54687226D01*
X57313395Y-54515739D01*
X57515739Y-54313395D01*
X57687226Y-54084315D01*
X57824367Y-53833161D01*
X57924369Y-53565046D01*
X57938027Y-53502262D01*
X57985195Y-53285433D01*
X57985195Y-53285432D01*
X57985196Y-53285428D01*
X58005610Y-53000000D01*
X58003080Y-52964632D01*
X57992790Y-52820750D01*
X57985196Y-52714572D01*
X57966112Y-52626846D01*
X57938027Y-52497738D01*
X57924369Y-52434954D01*
X57911044Y-52399230D01*
X57906061Y-52329541D01*
X57939546Y-52268218D01*
X58000869Y-52234733D01*
X58070561Y-52239717D01*
X58105890Y-52260045D01*
X58281522Y-52404182D01*
X58551156Y-52584346D01*
X58551165Y-52584351D01*
X58551167Y-52584352D01*
X58837143Y-52737210D01*
X58837145Y-52737210D01*
X58837151Y-52737214D01*
X59136752Y-52861312D01*
X59447075Y-52955447D01*
X59447081Y-52955448D01*
X59447084Y-52955449D01*
X59447095Y-52955452D01*
X59646527Y-52995120D01*
X59765131Y-53018712D01*
X60087856Y-53050498D01*
X60087859Y-53050498D01*
X60412139Y-53050498D01*
X60412142Y-53050498D01*
X60734867Y-53018712D01*
X60892294Y-52987397D01*
X61052901Y-52955452D01*
X61052912Y-52955449D01*
X61052912Y-52955448D01*
X61052922Y-52955447D01*
X61363245Y-52861312D01*
X61662846Y-52737214D01*
X61948841Y-52584346D01*
X62218475Y-52404182D01*
X62469152Y-52198457D01*
X62681193Y-51986416D01*
X62742516Y-51952931D01*
X62812207Y-51957915D01*
X62865029Y-51997456D01*
X62865837Y-51996812D01*
X62870182Y-52002260D01*
X62870184Y-52002262D01*
X62997738Y-52129816D01*
X63150478Y-52225789D01*
X63222247Y-52250902D01*
X63320745Y-52285368D01*
X63320750Y-52285369D01*
X63499996Y-52305565D01*
X63500000Y-52305565D01*
X63500004Y-52305565D01*
X63679249Y-52285369D01*
X63679252Y-52285368D01*
X63679255Y-52285368D01*
X63849522Y-52225789D01*
X63879663Y-52206849D01*
X63946899Y-52187849D01*
X64013734Y-52208216D01*
X64051363Y-52247053D01*
X64180874Y-52458396D01*
X64180878Y-52458401D01*
X64347043Y-52652955D01*
X64347044Y-52652956D01*
X64485585Y-52771281D01*
X64523778Y-52829786D01*
X64524277Y-52899654D01*
X64522095Y-52906525D01*
X64464631Y-53070745D01*
X64464630Y-53070750D01*
X64444435Y-53249996D01*
X64444435Y-53250003D01*
X64464630Y-53429249D01*
X64464631Y-53429254D01*
X64524211Y-53599523D01*
X64586097Y-53698013D01*
X64620184Y-53752262D01*
X64747738Y-53879816D01*
X64900478Y-53975789D01*
X65070745Y-54035368D01*
X65070750Y-54035369D01*
X65249996Y-54055565D01*
X65250000Y-54055565D01*
X65250004Y-54055565D01*
X65321290Y-54047533D01*
X66741971Y-54047533D01*
X66741971Y-54047540D01*
X66762166Y-54226786D01*
X66762167Y-54226791D01*
X66821747Y-54397060D01*
X66896312Y-54515729D01*
X66917720Y-54549799D01*
X67045274Y-54677353D01*
X67060984Y-54687224D01*
X67160884Y-54749996D01*
X67198014Y-54773326D01*
X67343872Y-54824364D01*
X67368281Y-54832905D01*
X67368286Y-54832906D01*
X67547532Y-54853102D01*
X67547536Y-54853102D01*
X67547540Y-54853102D01*
X67726785Y-54832906D01*
X67726788Y-54832905D01*
X67726791Y-54832905D01*
X67897058Y-54773326D01*
X68049798Y-54677353D01*
X68177352Y-54549799D01*
X68273325Y-54397059D01*
X68332904Y-54226792D01*
X68332905Y-54226786D01*
X68353101Y-54047540D01*
X68353101Y-54047533D01*
X68332905Y-53868287D01*
X68332904Y-53868282D01*
X68291514Y-53749996D01*
X68273325Y-53698015D01*
X68177352Y-53545275D01*
X68049798Y-53417721D01*
X67941262Y-53349523D01*
X67897059Y-53321748D01*
X67726790Y-53262168D01*
X67726785Y-53262167D01*
X67547540Y-53241972D01*
X67547532Y-53241972D01*
X67368286Y-53262167D01*
X67368281Y-53262168D01*
X67198012Y-53321748D01*
X67045273Y-53417721D01*
X66917720Y-53545274D01*
X66821747Y-53698013D01*
X66762167Y-53868282D01*
X66762166Y-53868287D01*
X66741971Y-54047533D01*
X65321290Y-54047533D01*
X65429249Y-54035369D01*
X65429252Y-54035368D01*
X65429255Y-54035368D01*
X65599522Y-53975789D01*
X65752262Y-53879816D01*
X65879816Y-53752262D01*
X65975789Y-53599522D01*
X66035368Y-53429255D01*
X66036668Y-53417721D01*
X66055565Y-53250003D01*
X66055565Y-53249997D01*
X66042256Y-53131877D01*
X66054310Y-53063055D01*
X66101659Y-53011675D01*
X66118006Y-53003440D01*
X66240243Y-52952809D01*
X66458399Y-52819123D01*
X66652956Y-52652956D01*
X66819123Y-52458399D01*
X66849751Y-52408417D01*
X66901562Y-52361542D01*
X66970491Y-52350118D01*
X67034654Y-52377774D01*
X67060472Y-52407233D01*
X67092624Y-52458401D01*
X67120184Y-52502262D01*
X67247738Y-52629816D01*
X67325716Y-52678813D01*
X67382616Y-52714566D01*
X67400478Y-52725789D01*
X67530481Y-52771279D01*
X67570745Y-52785368D01*
X67570750Y-52785369D01*
X67749996Y-52805565D01*
X67750000Y-52805565D01*
X67750004Y-52805565D01*
X67929249Y-52785369D01*
X67929252Y-52785368D01*
X67929255Y-52785368D01*
X68099522Y-52725789D01*
X68252262Y-52629816D01*
X68379816Y-52502262D01*
X68475789Y-52349522D01*
X68535368Y-52179255D01*
X68535703Y-52176284D01*
X68555398Y-52001489D01*
X74448574Y-52001489D01*
X74448574Y-52001496D01*
X74468769Y-52180742D01*
X74468770Y-52180747D01*
X74528350Y-52351016D01*
X74581092Y-52434954D01*
X74624323Y-52503755D01*
X74751877Y-52631309D01*
X74827479Y-52678813D01*
X74884379Y-52714566D01*
X74904617Y-52727282D01*
X75030353Y-52771279D01*
X75074884Y-52786861D01*
X75074889Y-52786862D01*
X75254135Y-52807058D01*
X75254139Y-52807058D01*
X75254143Y-52807058D01*
X75433388Y-52786862D01*
X75433391Y-52786861D01*
X75433394Y-52786861D01*
X75603661Y-52727282D01*
X75756401Y-52631309D01*
X75883955Y-52503755D01*
X75979928Y-52351015D01*
X76039507Y-52180748D01*
X76039508Y-52180742D01*
X76059704Y-52001496D01*
X76059704Y-52001489D01*
X76039508Y-51822243D01*
X76039507Y-51822238D01*
X76010944Y-51740610D01*
X75979928Y-51651971D01*
X75977122Y-51647506D01*
X75940721Y-51589573D01*
X75883955Y-51499231D01*
X75756401Y-51371677D01*
X75732174Y-51356454D01*
X75603662Y-51275704D01*
X75433393Y-51216124D01*
X75433388Y-51216123D01*
X75254143Y-51195928D01*
X75254135Y-51195928D01*
X75074889Y-51216123D01*
X75074884Y-51216124D01*
X74904615Y-51275704D01*
X74751876Y-51371677D01*
X74624323Y-51499230D01*
X74528350Y-51651969D01*
X74468770Y-51822238D01*
X74468769Y-51822243D01*
X74448574Y-52001489D01*
X68555398Y-52001489D01*
X68555565Y-52000003D01*
X68555565Y-51999996D01*
X68535369Y-51820750D01*
X68535366Y-51820739D01*
X68530951Y-51808121D01*
X68527387Y-51738342D01*
X68562114Y-51677714D01*
X68624106Y-51645485D01*
X68693682Y-51651888D01*
X68720874Y-51666843D01*
X68822407Y-51740612D01*
X68985733Y-51813329D01*
X69160609Y-51850500D01*
X69160610Y-51850500D01*
X69339389Y-51850500D01*
X69339391Y-51850500D01*
X69514267Y-51813329D01*
X69677593Y-51740612D01*
X69822230Y-51635526D01*
X69941859Y-51502665D01*
X70031250Y-51347835D01*
X70086497Y-51177803D01*
X70105185Y-51000000D01*
X70086497Y-50822197D01*
X70048300Y-50704640D01*
X70031252Y-50652170D01*
X70031249Y-50652164D01*
X69941859Y-50497335D01*
X69887897Y-50437404D01*
X69822235Y-50364478D01*
X69822232Y-50364476D01*
X69822231Y-50364475D01*
X69822230Y-50364474D01*
X69677593Y-50259388D01*
X69633782Y-50239882D01*
X69580546Y-50194631D01*
X69560225Y-50127782D01*
X69579271Y-50060558D01*
X69596534Y-50038925D01*
X69668302Y-49967158D01*
X69772322Y-49811481D01*
X69843973Y-49638501D01*
X69880500Y-49454866D01*
X69880500Y-48904847D01*
X69900185Y-48837808D01*
X69952989Y-48792053D01*
X70022147Y-48782109D01*
X70066499Y-48797459D01*
X70147515Y-48844234D01*
X70287525Y-48881750D01*
X70287528Y-48881750D01*
X70432472Y-48881750D01*
X70432475Y-48881750D01*
X70572485Y-48844234D01*
X70698015Y-48771759D01*
X70800509Y-48669265D01*
X70872984Y-48543735D01*
X70910500Y-48403725D01*
X70910500Y-48258775D01*
X75589500Y-48258775D01*
X75589500Y-48403725D01*
X75627016Y-48543735D01*
X75627017Y-48543738D01*
X75699488Y-48669261D01*
X75699490Y-48669263D01*
X75699491Y-48669265D01*
X75801985Y-48771759D01*
X75801986Y-48771760D01*
X75801988Y-48771761D01*
X75927511Y-48844232D01*
X75927512Y-48844232D01*
X75927515Y-48844234D01*
X76067525Y-48881750D01*
X76067528Y-48881750D01*
X76212472Y-48881750D01*
X76212475Y-48881750D01*
X76352485Y-48844234D01*
X76433500Y-48797459D01*
X76501400Y-48780987D01*
X76567427Y-48803839D01*
X76610617Y-48858760D01*
X76619500Y-48904847D01*
X76619500Y-49377810D01*
X76599815Y-49444849D01*
X76568388Y-49478126D01*
X76552771Y-49489472D01*
X76552769Y-49489474D01*
X76433140Y-49622336D01*
X76343750Y-49777164D01*
X76343747Y-49777170D01*
X76288504Y-49947192D01*
X76288503Y-49947194D01*
X76269815Y-50125000D01*
X76288503Y-50302805D01*
X76288504Y-50302807D01*
X76343747Y-50472829D01*
X76343750Y-50472835D01*
X76433141Y-50627665D01*
X76474812Y-50673946D01*
X76552764Y-50760521D01*
X76552767Y-50760523D01*
X76552770Y-50760526D01*
X76697407Y-50865612D01*
X76860733Y-50938329D01*
X76860735Y-50938329D01*
X76860736Y-50938330D01*
X76913006Y-50949440D01*
X77027372Y-50973749D01*
X77088852Y-51006940D01*
X77122629Y-51068103D01*
X77117977Y-51137817D01*
X77076373Y-51193950D01*
X77042545Y-51212079D01*
X76873478Y-51271239D01*
X76720735Y-51367214D01*
X76593182Y-51494767D01*
X76497209Y-51647506D01*
X76437629Y-51817775D01*
X76437628Y-51817780D01*
X76417433Y-51997026D01*
X76417433Y-51997033D01*
X76437628Y-52176279D01*
X76437629Y-52176284D01*
X76497209Y-52346553D01*
X76593182Y-52499292D01*
X76711380Y-52617490D01*
X76744865Y-52678813D01*
X76740741Y-52746123D01*
X76714632Y-52820742D01*
X76714631Y-52820746D01*
X76694435Y-52999996D01*
X76694435Y-53000003D01*
X76714630Y-53179249D01*
X76714631Y-53179254D01*
X76774211Y-53349523D01*
X76870184Y-53502262D01*
X76997738Y-53629816D01*
X77150478Y-53725789D01*
X77320745Y-53785368D01*
X77320750Y-53785369D01*
X77499996Y-53805565D01*
X77500000Y-53805565D01*
X77500004Y-53805565D01*
X77679249Y-53785369D01*
X77679252Y-53785368D01*
X77679255Y-53785368D01*
X77780342Y-53749996D01*
X83694435Y-53749996D01*
X83694435Y-53750003D01*
X83714630Y-53929249D01*
X83714633Y-53929262D01*
X83774209Y-54099520D01*
X83827309Y-54184029D01*
X83846309Y-54251266D01*
X83827309Y-54315971D01*
X83774209Y-54400479D01*
X83714633Y-54570737D01*
X83714630Y-54570750D01*
X83694435Y-54749996D01*
X83694435Y-54750003D01*
X83714630Y-54929249D01*
X83714633Y-54929262D01*
X83774209Y-55099520D01*
X83827309Y-55184029D01*
X83846309Y-55251266D01*
X83827309Y-55315971D01*
X83774209Y-55400479D01*
X83714633Y-55570737D01*
X83714630Y-55570750D01*
X83694435Y-55749996D01*
X83694435Y-55750003D01*
X83714630Y-55929249D01*
X83714631Y-55929254D01*
X83774211Y-56099523D01*
X83870184Y-56252262D01*
X83997738Y-56379816D01*
X84150478Y-56475789D01*
X84219678Y-56500003D01*
X84320745Y-56535368D01*
X84320750Y-56535369D01*
X84499996Y-56555565D01*
X84500000Y-56555565D01*
X84500004Y-56555565D01*
X84679249Y-56535369D01*
X84679252Y-56535368D01*
X84679255Y-56535368D01*
X84849522Y-56475789D01*
X85002262Y-56379816D01*
X85129816Y-56252262D01*
X85225789Y-56099522D01*
X85285368Y-55929255D01*
X85302837Y-55774211D01*
X85305565Y-55750003D01*
X85305565Y-55749996D01*
X85285369Y-55570750D01*
X85285368Y-55570745D01*
X85225788Y-55400475D01*
X85172691Y-55315973D01*
X85153690Y-55248736D01*
X85172691Y-55184027D01*
X85225788Y-55099524D01*
X85225789Y-55099522D01*
X85285368Y-54929255D01*
X85285369Y-54929249D01*
X85305565Y-54750003D01*
X85305565Y-54749996D01*
X85285369Y-54570750D01*
X85285368Y-54570745D01*
X85225788Y-54400475D01*
X85172691Y-54315973D01*
X85153690Y-54248736D01*
X85172691Y-54184027D01*
X85225788Y-54099524D01*
X85225789Y-54099522D01*
X85285368Y-53929255D01*
X85285369Y-53929249D01*
X85305565Y-53750003D01*
X85305565Y-53749996D01*
X85285369Y-53570750D01*
X85285368Y-53570745D01*
X85261405Y-53502262D01*
X85225789Y-53400478D01*
X85129816Y-53247738D01*
X85002262Y-53120184D01*
X84986774Y-53110452D01*
X84849523Y-53024211D01*
X84679254Y-52964631D01*
X84679249Y-52964630D01*
X84500004Y-52944435D01*
X84499996Y-52944435D01*
X84320750Y-52964630D01*
X84320745Y-52964631D01*
X84150476Y-53024211D01*
X83997737Y-53120184D01*
X83870184Y-53247737D01*
X83774211Y-53400476D01*
X83714631Y-53570745D01*
X83714630Y-53570750D01*
X83694435Y-53749996D01*
X77780342Y-53749996D01*
X77849522Y-53725789D01*
X78002262Y-53629816D01*
X78129816Y-53502262D01*
X78225789Y-53349522D01*
X78285368Y-53179255D01*
X78290706Y-53131877D01*
X78305565Y-53000003D01*
X78305565Y-52999996D01*
X78285369Y-52820750D01*
X78285368Y-52820745D01*
X78259257Y-52746123D01*
X78225789Y-52650478D01*
X78129816Y-52497738D01*
X78011616Y-52379538D01*
X77978131Y-52318215D01*
X77982256Y-52250902D01*
X77988614Y-52232733D01*
X78008366Y-52176285D01*
X78027793Y-52003864D01*
X78028563Y-51997033D01*
X78028563Y-51997026D01*
X78008367Y-51817780D01*
X78008366Y-51817775D01*
X78004988Y-51808121D01*
X77948787Y-51647508D01*
X77856101Y-51500000D01*
X79369474Y-51500000D01*
X79389547Y-51755064D01*
X79389547Y-51755067D01*
X79389548Y-51755070D01*
X79440945Y-51969152D01*
X79449279Y-52003864D01*
X79547188Y-52240239D01*
X79547190Y-52240242D01*
X79680875Y-52458396D01*
X79680878Y-52458401D01*
X79756200Y-52546591D01*
X79847044Y-52652956D01*
X79945698Y-52737214D01*
X80041598Y-52819121D01*
X80041600Y-52819122D01*
X80041601Y-52819123D01*
X80184228Y-52906525D01*
X80259757Y-52952809D01*
X80259760Y-52952811D01*
X80496135Y-53050720D01*
X80496140Y-53050722D01*
X80744930Y-53110452D01*
X81000000Y-53130526D01*
X81255070Y-53110452D01*
X81503860Y-53050722D01*
X81626323Y-52999996D01*
X81740239Y-52952811D01*
X81740240Y-52952810D01*
X81740243Y-52952809D01*
X81958399Y-52819123D01*
X82152956Y-52652956D01*
X82319123Y-52458399D01*
X82452809Y-52240243D01*
X82455092Y-52234733D01*
X82550720Y-52003864D01*
X82550722Y-52003860D01*
X82610452Y-51755070D01*
X82630526Y-51500000D01*
X82610452Y-51244930D01*
X82550722Y-50996140D01*
X82531378Y-50949440D01*
X82452811Y-50759760D01*
X82452809Y-50759757D01*
X82326061Y-50552923D01*
X82319123Y-50541601D01*
X82319122Y-50541600D01*
X82319121Y-50541598D01*
X82259319Y-50471579D01*
X82152956Y-50347044D01*
X82027485Y-50239882D01*
X81958401Y-50180878D01*
X81958396Y-50180875D01*
X81740242Y-50047190D01*
X81740239Y-50047188D01*
X81503864Y-49949279D01*
X81495192Y-49947197D01*
X81255070Y-49889548D01*
X81255067Y-49889547D01*
X81255064Y-49889547D01*
X81000000Y-49869474D01*
X80744935Y-49889547D01*
X80744931Y-49889547D01*
X80744930Y-49889548D01*
X80620535Y-49919413D01*
X80496135Y-49949279D01*
X80259760Y-50047188D01*
X80259757Y-50047190D01*
X80041603Y-50180875D01*
X80041598Y-50180878D01*
X79847044Y-50347044D01*
X79680878Y-50541598D01*
X79680875Y-50541603D01*
X79547190Y-50759757D01*
X79547188Y-50759760D01*
X79449279Y-50996135D01*
X79449278Y-50996140D01*
X79394144Y-51225789D01*
X79389547Y-51244935D01*
X79369474Y-51500000D01*
X77856101Y-51500000D01*
X77852814Y-51494768D01*
X77852813Y-51494767D01*
X77850649Y-51491323D01*
X77831649Y-51424087D01*
X77852017Y-51357251D01*
X77905284Y-51312037D01*
X77969526Y-51302131D01*
X78000000Y-51305565D01*
X78000000Y-51305564D01*
X78000001Y-51305565D01*
X78000004Y-51305565D01*
X78179249Y-51285369D01*
X78179252Y-51285368D01*
X78179255Y-51285368D01*
X78349522Y-51225789D01*
X78502262Y-51129816D01*
X78629816Y-51002262D01*
X78725789Y-50849522D01*
X78785368Y-50679255D01*
X78785369Y-50679249D01*
X78805565Y-50500003D01*
X78805565Y-50499996D01*
X78785369Y-50320750D01*
X78785368Y-50320745D01*
X78779091Y-50302807D01*
X78725789Y-50150478D01*
X78629816Y-49997738D01*
X78502262Y-49870184D01*
X78500260Y-49868926D01*
X78499244Y-49867777D01*
X78496816Y-49865841D01*
X78497155Y-49865415D01*
X78453970Y-49816592D01*
X78443322Y-49747539D01*
X78451669Y-49716487D01*
X78483973Y-49638501D01*
X78520500Y-49454866D01*
X78520500Y-48167634D01*
X78483973Y-47983999D01*
X78412322Y-47811019D01*
X78412321Y-47811018D01*
X78412318Y-47811012D01*
X78308302Y-47655342D01*
X78308299Y-47655338D01*
X78175911Y-47522950D01*
X78175907Y-47522947D01*
X78020237Y-47418931D01*
X78020228Y-47418926D01*
X77847251Y-47347277D01*
X77847243Y-47347275D01*
X77663620Y-47310750D01*
X77663616Y-47310750D01*
X77476384Y-47310750D01*
X77476379Y-47310750D01*
X77292756Y-47347275D01*
X77292748Y-47347277D01*
X77119771Y-47418926D01*
X77119762Y-47418931D01*
X76964092Y-47522947D01*
X76964088Y-47522950D01*
X76831700Y-47655338D01*
X76831697Y-47655342D01*
X76727681Y-47811012D01*
X76727676Y-47811022D01*
X76702221Y-47872477D01*
X76658380Y-47926880D01*
X76592086Y-47948945D01*
X76524386Y-47931666D01*
X76499979Y-47912705D01*
X76478017Y-47890743D01*
X76478011Y-47890738D01*
X76352488Y-47818267D01*
X76352489Y-47818267D01*
X76325450Y-47811022D01*
X76212475Y-47780750D01*
X76067525Y-47780750D01*
X75954550Y-47811022D01*
X75927511Y-47818267D01*
X75801988Y-47890738D01*
X75801982Y-47890743D01*
X75699493Y-47993232D01*
X75699488Y-47993238D01*
X75627017Y-48118761D01*
X75627016Y-48118765D01*
X75589500Y-48258775D01*
X70910500Y-48258775D01*
X70872984Y-48118765D01*
X70833957Y-48051169D01*
X70800511Y-47993238D01*
X70800506Y-47993232D01*
X70698017Y-47890743D01*
X70698011Y-47890738D01*
X70572488Y-47818267D01*
X70572489Y-47818267D01*
X70545450Y-47811022D01*
X70432475Y-47780750D01*
X70287525Y-47780750D01*
X70174550Y-47811022D01*
X70147511Y-47818267D01*
X70021988Y-47890738D01*
X70000019Y-47912707D01*
X69938695Y-47946191D01*
X69869003Y-47941205D01*
X69813071Y-47899333D01*
X69797780Y-47872481D01*
X69772322Y-47811019D01*
X69772318Y-47811012D01*
X69668302Y-47655342D01*
X69668299Y-47655338D01*
X69535911Y-47522950D01*
X69535907Y-47522947D01*
X69380237Y-47418931D01*
X69380228Y-47418926D01*
X69207251Y-47347277D01*
X69207243Y-47347275D01*
X69023620Y-47310750D01*
X69023616Y-47310750D01*
X68836384Y-47310750D01*
X68836379Y-47310750D01*
X68652756Y-47347275D01*
X68652748Y-47347277D01*
X68479771Y-47418926D01*
X68479762Y-47418931D01*
X68324092Y-47522947D01*
X68324088Y-47522950D01*
X68191700Y-47655338D01*
X68191697Y-47655342D01*
X68087681Y-47811012D01*
X68087676Y-47811021D01*
X68016027Y-47983998D01*
X68016025Y-47984006D01*
X67979500Y-48167629D01*
X67979500Y-49454870D01*
X68016025Y-49638493D01*
X68016027Y-49638501D01*
X68087676Y-49811478D01*
X68087681Y-49811487D01*
X68191697Y-49967157D01*
X68191700Y-49967161D01*
X68324088Y-50099549D01*
X68324092Y-50099552D01*
X68479762Y-50203568D01*
X68479766Y-50203570D01*
X68479769Y-50203572D01*
X68525413Y-50222478D01*
X68567404Y-50239872D01*
X68621807Y-50283713D01*
X68643872Y-50350007D01*
X68626593Y-50417707D01*
X68612102Y-50437404D01*
X68558140Y-50497336D01*
X68468750Y-50652164D01*
X68468747Y-50652170D01*
X68413504Y-50822192D01*
X68413503Y-50822194D01*
X68394815Y-51000000D01*
X68413503Y-51177804D01*
X68418907Y-51194435D01*
X68425954Y-51216124D01*
X68427723Y-51221566D01*
X68429718Y-51291408D01*
X68393638Y-51351241D01*
X68330937Y-51382069D01*
X68261523Y-51374105D01*
X68243820Y-51364879D01*
X68099523Y-51274211D01*
X67929254Y-51214631D01*
X67929249Y-51214630D01*
X67750004Y-51194435D01*
X67749996Y-51194435D01*
X67570750Y-51214630D01*
X67570745Y-51214631D01*
X67400476Y-51274211D01*
X67299826Y-51337454D01*
X67232589Y-51356454D01*
X67165754Y-51336086D01*
X67120540Y-51282818D01*
X67112122Y-51249607D01*
X67111216Y-51249751D01*
X67110453Y-51244937D01*
X67110452Y-51244934D01*
X67110452Y-51244930D01*
X67050722Y-50996140D01*
X67031378Y-50949440D01*
X66952811Y-50759760D01*
X66952809Y-50759757D01*
X66826061Y-50552923D01*
X66819123Y-50541601D01*
X66819122Y-50541600D01*
X66819121Y-50541598D01*
X66759319Y-50471579D01*
X66652956Y-50347044D01*
X66527485Y-50239882D01*
X66458401Y-50180878D01*
X66458396Y-50180875D01*
X66240242Y-50047190D01*
X66240239Y-50047188D01*
X66003864Y-49949279D01*
X65995192Y-49947197D01*
X65755070Y-49889548D01*
X65755067Y-49889547D01*
X65755064Y-49889547D01*
X65500000Y-49869474D01*
X65244935Y-49889547D01*
X65244931Y-49889547D01*
X65244930Y-49889548D01*
X65120535Y-49919413D01*
X64996135Y-49949279D01*
X64759760Y-50047188D01*
X64759757Y-50047190D01*
X64541603Y-50180875D01*
X64541598Y-50180878D01*
X64347044Y-50347044D01*
X64180878Y-50541598D01*
X64180874Y-50541603D01*
X64051363Y-50752946D01*
X63999551Y-50799821D01*
X63930621Y-50811244D01*
X63879664Y-50793150D01*
X63849522Y-50774211D01*
X63849518Y-50774209D01*
X63679262Y-50714633D01*
X63679250Y-50714630D01*
X63562942Y-50701526D01*
X63498528Y-50674459D01*
X63458973Y-50616865D01*
X63455209Y-50554114D01*
X63455444Y-50552930D01*
X63455447Y-50552922D01*
X63518712Y-50234867D01*
X63550498Y-49912142D01*
X63550498Y-49587856D01*
X63518712Y-49265131D01*
X63495120Y-49146527D01*
X63455452Y-48947095D01*
X63455449Y-48947084D01*
X63455447Y-48947077D01*
X63455447Y-48947075D01*
X63361312Y-48636752D01*
X63237214Y-48337151D01*
X63226797Y-48317663D01*
X63084352Y-48051167D01*
X63084351Y-48051165D01*
X63084346Y-48051156D01*
X62904182Y-47781522D01*
X62698457Y-47530845D01*
X62698456Y-47530844D01*
X62698452Y-47530839D01*
X59923574Y-44755961D01*
X59672896Y-44550235D01*
X59403263Y-44370072D01*
X59403258Y-44370069D01*
X59403257Y-44370068D01*
X59403252Y-44370065D01*
X59403245Y-44370061D01*
X59117269Y-44217203D01*
X59117264Y-44217201D01*
X58817662Y-44093101D01*
X58538151Y-44008313D01*
X58507338Y-43998966D01*
X58507337Y-43998965D01*
X58507328Y-43998963D01*
X58507316Y-43998960D01*
X58493020Y-43996117D01*
X58431109Y-43963732D01*
X58396535Y-43903016D01*
X58400274Y-43833247D01*
X58441141Y-43776575D01*
X58506159Y-43750994D01*
X58517211Y-43750500D01*
X63750500Y-43750500D01*
X63817539Y-43770185D01*
X63863294Y-43822989D01*
X63874500Y-43874500D01*
X63874500Y-46172870D01*
X63874501Y-46172876D01*
X63880908Y-46232483D01*
X63931202Y-46367328D01*
X63931206Y-46367335D01*
X64017452Y-46482544D01*
X64017455Y-46482547D01*
X64132664Y-46568793D01*
X64132671Y-46568797D01*
X64267517Y-46619091D01*
X64267516Y-46619091D01*
X64274444Y-46619835D01*
X64327127Y-46625500D01*
X66672872Y-46625499D01*
X66732483Y-46619091D01*
X66867331Y-46568796D01*
X66982546Y-46482546D01*
X67068796Y-46367331D01*
X67119091Y-46232483D01*
X67125500Y-46172873D01*
X67125499Y-43874499D01*
X67145184Y-43807461D01*
X67197987Y-43761706D01*
X67249499Y-43750500D01*
X67918882Y-43750500D01*
X67985921Y-43770185D01*
X68031676Y-43822989D01*
X68041620Y-43892147D01*
X68033443Y-43921952D01*
X68016028Y-43963994D01*
X68016025Y-43964006D01*
X67979500Y-44147629D01*
X67979500Y-45134870D01*
X68016025Y-45318493D01*
X68016027Y-45318501D01*
X68087676Y-45491478D01*
X68087681Y-45491487D01*
X68191697Y-45647157D01*
X68191700Y-45647161D01*
X68324088Y-45779549D01*
X68324092Y-45779552D01*
X68479762Y-45883568D01*
X68479768Y-45883571D01*
X68479769Y-45883572D01*
X68652749Y-45955223D01*
X68836379Y-45991749D01*
X68836383Y-45991750D01*
X68836384Y-45991750D01*
X69023617Y-45991750D01*
X69023618Y-45991749D01*
X69207251Y-45955223D01*
X69380231Y-45883572D01*
X69535908Y-45779552D01*
X69668302Y-45647158D01*
X69772322Y-45491481D01*
X69843973Y-45318501D01*
X69880500Y-45134866D01*
X69880500Y-44147634D01*
X69843973Y-43963999D01*
X69787279Y-43827128D01*
X69772323Y-43791021D01*
X69772318Y-43791012D01*
X69668302Y-43635342D01*
X69668299Y-43635338D01*
X69535911Y-43502950D01*
X69535907Y-43502947D01*
X69380237Y-43398931D01*
X69380228Y-43398926D01*
X69207251Y-43327277D01*
X69207243Y-43327275D01*
X69023620Y-43290750D01*
X69023616Y-43290750D01*
X68977274Y-43290750D01*
X68910235Y-43271065D01*
X68864480Y-43218261D01*
X68854536Y-43149103D01*
X68883561Y-43085547D01*
X68942339Y-43047773D01*
X68958501Y-43044179D01*
X68990670Y-43039252D01*
X69009443Y-43037823D01*
X69039350Y-43037823D01*
X69039932Y-43037823D01*
X77294274Y-43076661D01*
G37*
%TD.AperFunction*%
%TD*%
%TA.AperFunction,Conductor*%
%TO.N,VCC*%
G36*
X92690792Y-63062340D02*
G01*
X92737420Y-63114374D01*
X92749500Y-63167758D01*
X92749500Y-72445110D01*
X92732579Y-72502733D01*
X92746666Y-72528531D01*
X92749500Y-72554889D01*
X92749500Y-77361838D01*
X92749342Y-77368096D01*
X92730559Y-77739816D01*
X92729351Y-77751914D01*
X92674693Y-78117086D01*
X92672306Y-78129006D01*
X92582152Y-78487070D01*
X92578609Y-78498700D01*
X92453827Y-78846207D01*
X92449163Y-78857434D01*
X92290945Y-79191062D01*
X92285203Y-79201779D01*
X92163475Y-79404432D01*
X92112080Y-79451765D01*
X92043255Y-79463798D01*
X91978849Y-79436711D01*
X91939312Y-79379104D01*
X91937197Y-79309266D01*
X91938498Y-79304648D01*
X92001031Y-79098506D01*
X92001035Y-79098487D01*
X92001036Y-79098485D01*
X92040421Y-78900478D01*
X92064296Y-78780451D01*
X92096082Y-78457726D01*
X92096082Y-78133440D01*
X92064296Y-77810715D01*
X92027912Y-77627797D01*
X92001036Y-77492679D01*
X92001033Y-77492668D01*
X92001032Y-77492665D01*
X92001031Y-77492659D01*
X91906896Y-77182336D01*
X91782798Y-76882735D01*
X91772382Y-76863249D01*
X91629936Y-76596751D01*
X91629935Y-76596749D01*
X91629930Y-76596740D01*
X91449766Y-76327106D01*
X91244041Y-76076429D01*
X91244040Y-76076428D01*
X91244036Y-76076423D01*
X89790177Y-74622564D01*
X89756692Y-74561241D01*
X89761676Y-74491549D01*
X89803548Y-74435616D01*
X89869012Y-74411199D01*
X89921193Y-74418702D01*
X89935101Y-74423889D01*
X90214637Y-74484699D01*
X90499999Y-74505109D01*
X90500001Y-74505109D01*
X90785362Y-74484699D01*
X91064895Y-74423890D01*
X91332958Y-74323908D01*
X91584047Y-74186803D01*
X91726561Y-74080116D01*
X91726562Y-74080115D01*
X91009020Y-73362573D01*
X91137463Y-73276751D01*
X91276751Y-73137463D01*
X91362573Y-73009020D01*
X92080115Y-73726562D01*
X92080116Y-73726561D01*
X92186803Y-73584047D01*
X92323908Y-73332958D01*
X92423890Y-73064895D01*
X92484699Y-72785362D01*
X92501816Y-72546043D01*
X92519120Y-72499647D01*
X92506523Y-72480045D01*
X92501816Y-72453956D01*
X92484699Y-72214637D01*
X92423890Y-71935104D01*
X92323908Y-71667041D01*
X92186808Y-71415961D01*
X92186807Y-71415960D01*
X92080115Y-71273436D01*
X91362573Y-71990978D01*
X91276751Y-71862537D01*
X91137463Y-71723249D01*
X91009020Y-71637425D01*
X91726562Y-70919883D01*
X91726561Y-70919882D01*
X91584046Y-70813196D01*
X91584038Y-70813191D01*
X91332957Y-70676091D01*
X91332958Y-70676091D01*
X91064895Y-70576109D01*
X90785362Y-70515300D01*
X90500001Y-70494891D01*
X90499999Y-70494891D01*
X90214637Y-70515300D01*
X89935104Y-70576109D01*
X89667041Y-70676091D01*
X89415961Y-70813191D01*
X89415953Y-70813196D01*
X89273437Y-70919882D01*
X89273436Y-70919883D01*
X89990979Y-71637426D01*
X89862537Y-71723249D01*
X89723249Y-71862537D01*
X89637426Y-71990979D01*
X88919882Y-71273436D01*
X88813196Y-71415953D01*
X88813191Y-71415961D01*
X88676091Y-71667041D01*
X88576109Y-71935104D01*
X88515300Y-72214637D01*
X88494891Y-72499998D01*
X88494891Y-72500001D01*
X88515300Y-72785362D01*
X88576110Y-73064897D01*
X88589724Y-73101398D01*
X88594708Y-73171089D01*
X88561223Y-73232412D01*
X88499900Y-73265897D01*
X88430208Y-73260913D01*
X88394877Y-73240584D01*
X88218480Y-73095819D01*
X87948847Y-72915656D01*
X87948844Y-72915654D01*
X87948841Y-72915652D01*
X87948832Y-72915647D01*
X87948829Y-72915645D01*
X87662853Y-72762787D01*
X87662848Y-72762785D01*
X87657394Y-72760526D01*
X87553405Y-72717452D01*
X87363246Y-72638685D01*
X87052912Y-72544547D01*
X87052901Y-72544544D01*
X86734866Y-72481284D01*
X86491802Y-72457345D01*
X86412142Y-72449500D01*
X86087856Y-72449500D01*
X86014251Y-72456749D01*
X85765131Y-72481284D01*
X85447096Y-72544544D01*
X85447085Y-72544547D01*
X85136751Y-72638685D01*
X84837149Y-72762785D01*
X84837144Y-72762787D01*
X84551168Y-72915645D01*
X84551150Y-72915656D01*
X84281517Y-73095819D01*
X84030839Y-73301545D01*
X83801545Y-73530839D01*
X83595819Y-73781517D01*
X83415656Y-74051150D01*
X83415645Y-74051168D01*
X83262787Y-74337144D01*
X83262785Y-74337149D01*
X83138685Y-74636751D01*
X83044547Y-74947085D01*
X83044544Y-74947096D01*
X82981284Y-75265131D01*
X82961112Y-75469951D01*
X82949500Y-75587856D01*
X82949500Y-75912142D01*
X82953471Y-75952459D01*
X82978176Y-76203302D01*
X82965157Y-76271948D01*
X82917092Y-76322658D01*
X82849241Y-76339333D01*
X82813821Y-76332499D01*
X82788136Y-76323512D01*
X82788129Y-76323510D01*
X82608884Y-76303315D01*
X82608876Y-76303315D01*
X82429630Y-76323510D01*
X82429625Y-76323511D01*
X82259356Y-76383091D01*
X82106617Y-76479064D01*
X81979064Y-76606617D01*
X81883091Y-76759356D01*
X81823511Y-76929625D01*
X81823510Y-76929630D01*
X81803315Y-77108876D01*
X81803315Y-77108883D01*
X81823510Y-77288129D01*
X81823511Y-77288134D01*
X81883091Y-77458403D01*
X81961268Y-77582820D01*
X81979064Y-77611142D01*
X82106618Y-77738696D01*
X82132225Y-77754786D01*
X82221238Y-77810717D01*
X82259358Y-77834669D01*
X82429625Y-77894248D01*
X82429630Y-77894249D01*
X82608876Y-77914445D01*
X82608880Y-77914445D01*
X82608884Y-77914445D01*
X82788129Y-77894249D01*
X82788132Y-77894248D01*
X82788135Y-77894248D01*
X82958402Y-77834669D01*
X83111142Y-77738696D01*
X83238696Y-77611142D01*
X83275217Y-77553018D01*
X83327551Y-77506729D01*
X83396604Y-77496080D01*
X83460452Y-77524456D01*
X83483312Y-77550101D01*
X83595819Y-77718480D01*
X83801545Y-77969158D01*
X86576423Y-80744036D01*
X86576428Y-80744040D01*
X86576429Y-80744041D01*
X86827106Y-80949766D01*
X86897976Y-80997120D01*
X86935807Y-81022398D01*
X86980612Y-81076010D01*
X86989319Y-81145335D01*
X86959165Y-81208363D01*
X86899722Y-81245082D01*
X86866916Y-81249500D01*
X59633084Y-81249500D01*
X59566045Y-81229815D01*
X59520290Y-81177011D01*
X59510346Y-81107853D01*
X59539371Y-81044297D01*
X59564193Y-81022398D01*
X59588412Y-81006214D01*
X59672891Y-80949768D01*
X59923569Y-80744043D01*
X61417616Y-79249996D01*
X66444435Y-79249996D01*
X66444435Y-79250003D01*
X66464630Y-79429249D01*
X66464631Y-79429254D01*
X66524211Y-79599523D01*
X66592644Y-79708432D01*
X66620184Y-79752262D01*
X66747738Y-79879816D01*
X66900478Y-79975789D01*
X67070745Y-80035368D01*
X67070750Y-80035369D01*
X67249996Y-80055565D01*
X67250000Y-80055565D01*
X67250004Y-80055565D01*
X67429249Y-80035369D01*
X67429252Y-80035368D01*
X67429255Y-80035368D01*
X67599522Y-79975789D01*
X67752262Y-79879816D01*
X67879816Y-79752262D01*
X67975789Y-79599522D01*
X68035368Y-79429255D01*
X68037669Y-79408832D01*
X68055565Y-79250003D01*
X68055565Y-79249996D01*
X68035369Y-79070750D01*
X68035368Y-79070745D01*
X67975788Y-78900476D01*
X67931660Y-78830247D01*
X67879816Y-78747738D01*
X67752262Y-78620184D01*
X67599523Y-78524211D01*
X67429254Y-78464631D01*
X67429249Y-78464630D01*
X67250004Y-78444435D01*
X67249996Y-78444435D01*
X67070750Y-78464630D01*
X67070745Y-78464631D01*
X66900476Y-78524211D01*
X66747737Y-78620184D01*
X66620184Y-78747737D01*
X66524211Y-78900476D01*
X66464631Y-79070745D01*
X66464630Y-79070750D01*
X66444435Y-79249996D01*
X61417616Y-79249996D01*
X62698457Y-77969155D01*
X62904182Y-77718478D01*
X63084346Y-77448844D01*
X63237214Y-77162849D01*
X63361312Y-76863248D01*
X63455447Y-76552925D01*
X63455449Y-76552915D01*
X63455452Y-76552904D01*
X63500365Y-76327106D01*
X63518712Y-76234869D01*
X63550498Y-75912144D01*
X63550498Y-75587858D01*
X63541844Y-75499996D01*
X65944435Y-75499996D01*
X65944435Y-75500003D01*
X65964630Y-75679249D01*
X65964631Y-75679254D01*
X66024211Y-75849523D01*
X66103043Y-75974983D01*
X66120184Y-76002262D01*
X66247738Y-76129816D01*
X66400478Y-76225789D01*
X66532393Y-76271948D01*
X66570745Y-76285368D01*
X66570750Y-76285369D01*
X66749996Y-76305565D01*
X66750000Y-76305565D01*
X66750004Y-76305565D01*
X66929249Y-76285369D01*
X66929252Y-76285368D01*
X66929255Y-76285368D01*
X67099522Y-76225789D01*
X67252262Y-76129816D01*
X67379816Y-76002262D01*
X67396957Y-75974983D01*
X68149500Y-75974983D01*
X68149500Y-77525001D01*
X68149501Y-77525018D01*
X68160000Y-77627796D01*
X68160001Y-77627799D01*
X68215185Y-77794331D01*
X68215187Y-77794336D01*
X68225290Y-77810715D01*
X68307288Y-77943656D01*
X68431344Y-78067712D01*
X68580666Y-78159814D01*
X68747203Y-78214999D01*
X68849991Y-78225500D01*
X70150008Y-78225499D01*
X70252797Y-78214999D01*
X70419334Y-78159814D01*
X70568656Y-78067712D01*
X70692712Y-77943656D01*
X70784814Y-77794334D01*
X70784814Y-77794331D01*
X70788178Y-77788879D01*
X70840126Y-77742154D01*
X70909088Y-77730931D01*
X70973170Y-77758774D01*
X70981398Y-77766294D01*
X71120213Y-77905109D01*
X71292179Y-78030048D01*
X71292181Y-78030049D01*
X71292184Y-78030051D01*
X71481588Y-78126557D01*
X71683757Y-78192246D01*
X71893713Y-78225500D01*
X71893714Y-78225500D01*
X72106286Y-78225500D01*
X72106287Y-78225500D01*
X72316243Y-78192246D01*
X72518412Y-78126557D01*
X72707816Y-78030051D01*
X72791633Y-77969155D01*
X72879786Y-77905109D01*
X72879788Y-77905106D01*
X72879792Y-77905104D01*
X73030104Y-77754792D01*
X73149683Y-77590204D01*
X73205011Y-77547540D01*
X73274624Y-77541561D01*
X73336420Y-77574166D01*
X73350313Y-77590199D01*
X73443513Y-77718478D01*
X73469896Y-77754792D01*
X73620213Y-77905109D01*
X73792179Y-78030048D01*
X73792181Y-78030049D01*
X73792184Y-78030051D01*
X73981588Y-78126557D01*
X74183757Y-78192246D01*
X74393713Y-78225500D01*
X74393714Y-78225500D01*
X74606286Y-78225500D01*
X74606287Y-78225500D01*
X74816243Y-78192246D01*
X75018412Y-78126557D01*
X75207816Y-78030051D01*
X75291633Y-77969155D01*
X75379786Y-77905109D01*
X75379788Y-77905106D01*
X75379792Y-77905104D01*
X75530104Y-77754792D01*
X75649683Y-77590204D01*
X75705011Y-77547540D01*
X75774624Y-77541561D01*
X75836420Y-77574166D01*
X75850313Y-77590199D01*
X75943513Y-77718478D01*
X75969896Y-77754792D01*
X76120213Y-77905109D01*
X76292179Y-78030048D01*
X76292181Y-78030049D01*
X76292184Y-78030051D01*
X76481588Y-78126557D01*
X76683757Y-78192246D01*
X76893713Y-78225500D01*
X76893714Y-78225500D01*
X77106286Y-78225500D01*
X77106287Y-78225500D01*
X77316243Y-78192246D01*
X77518412Y-78126557D01*
X77707816Y-78030051D01*
X77791633Y-77969155D01*
X77879786Y-77905109D01*
X77879788Y-77905106D01*
X77879792Y-77905104D01*
X78030104Y-77754792D01*
X78030106Y-77754788D01*
X78030109Y-77754786D01*
X78155048Y-77582820D01*
X78155047Y-77582820D01*
X78155051Y-77582816D01*
X78251557Y-77393412D01*
X78317246Y-77191243D01*
X78350500Y-76981287D01*
X78350500Y-76518713D01*
X78317246Y-76308757D01*
X78251557Y-76106588D01*
X78155051Y-75917184D01*
X78155049Y-75917181D01*
X78155048Y-75917179D01*
X78030109Y-75745213D01*
X77879786Y-75594890D01*
X77707820Y-75469951D01*
X77518414Y-75373444D01*
X77518413Y-75373443D01*
X77518412Y-75373443D01*
X77316243Y-75307754D01*
X77316241Y-75307753D01*
X77316240Y-75307753D01*
X77154957Y-75282208D01*
X77106287Y-75274500D01*
X76893713Y-75274500D01*
X76845042Y-75282208D01*
X76683760Y-75307753D01*
X76481585Y-75373444D01*
X76292179Y-75469951D01*
X76120213Y-75594890D01*
X75969894Y-75745209D01*
X75969890Y-75745214D01*
X75850318Y-75909793D01*
X75794989Y-75952459D01*
X75725375Y-75958438D01*
X75663580Y-75925833D01*
X75649682Y-75909793D01*
X75530109Y-75745214D01*
X75530105Y-75745209D01*
X75379786Y-75594890D01*
X75207820Y-75469951D01*
X75018414Y-75373444D01*
X75018413Y-75373443D01*
X75018412Y-75373443D01*
X74816243Y-75307754D01*
X74816241Y-75307753D01*
X74816240Y-75307753D01*
X74654957Y-75282208D01*
X74606287Y-75274500D01*
X74393713Y-75274500D01*
X74345042Y-75282208D01*
X74183760Y-75307753D01*
X73981585Y-75373444D01*
X73792179Y-75469951D01*
X73620213Y-75594890D01*
X73469894Y-75745209D01*
X73469890Y-75745214D01*
X73350318Y-75909793D01*
X73294989Y-75952459D01*
X73225375Y-75958438D01*
X73163580Y-75925833D01*
X73149682Y-75909793D01*
X73030109Y-75745214D01*
X73030105Y-75745209D01*
X72879786Y-75594890D01*
X72707820Y-75469951D01*
X72518414Y-75373444D01*
X72518413Y-75373443D01*
X72518412Y-75373443D01*
X72316243Y-75307754D01*
X72316241Y-75307753D01*
X72316240Y-75307753D01*
X72154957Y-75282208D01*
X72106287Y-75274500D01*
X71893713Y-75274500D01*
X71845042Y-75282208D01*
X71683760Y-75307753D01*
X71481585Y-75373444D01*
X71292179Y-75469951D01*
X71120215Y-75594889D01*
X70981398Y-75733706D01*
X70920075Y-75767190D01*
X70850383Y-75762206D01*
X70794450Y-75720334D01*
X70788178Y-75711120D01*
X70692712Y-75556344D01*
X70568657Y-75432289D01*
X70568656Y-75432288D01*
X70419334Y-75340186D01*
X70252797Y-75285001D01*
X70252795Y-75285000D01*
X70150010Y-75274500D01*
X68849998Y-75274500D01*
X68849981Y-75274501D01*
X68747203Y-75285000D01*
X68747200Y-75285001D01*
X68580668Y-75340185D01*
X68580663Y-75340187D01*
X68431342Y-75432289D01*
X68307289Y-75556342D01*
X68215187Y-75705663D01*
X68215185Y-75705668D01*
X68210325Y-75720334D01*
X68160001Y-75872203D01*
X68160001Y-75872204D01*
X68160000Y-75872204D01*
X68149500Y-75974983D01*
X67396957Y-75974983D01*
X67475789Y-75849522D01*
X67535368Y-75679255D01*
X67555565Y-75500000D01*
X67552179Y-75469951D01*
X67535369Y-75320750D01*
X67535368Y-75320745D01*
X67522860Y-75285000D01*
X67475789Y-75150478D01*
X67379816Y-74997738D01*
X67252262Y-74870184D01*
X67250048Y-74868793D01*
X67099523Y-74774211D01*
X66929254Y-74714631D01*
X66929249Y-74714630D01*
X66750004Y-74694435D01*
X66749996Y-74694435D01*
X66570750Y-74714630D01*
X66570745Y-74714631D01*
X66400476Y-74774211D01*
X66247737Y-74870184D01*
X66120184Y-74997737D01*
X66024211Y-75150476D01*
X65964631Y-75320745D01*
X65964630Y-75320750D01*
X65944435Y-75499996D01*
X63541844Y-75499996D01*
X63518712Y-75265133D01*
X63495120Y-75146529D01*
X63455452Y-74947098D01*
X63455449Y-74947087D01*
X63455448Y-74947084D01*
X63455447Y-74947078D01*
X63361312Y-74636755D01*
X63237214Y-74337154D01*
X63156849Y-74186803D01*
X63084352Y-74051170D01*
X63084351Y-74051168D01*
X63084346Y-74051159D01*
X62904182Y-73781525D01*
X62698457Y-73530848D01*
X62698454Y-73530845D01*
X62698452Y-73530842D01*
X62469157Y-73301547D01*
X62218480Y-73095822D01*
X62218476Y-73095819D01*
X62218475Y-73095818D01*
X62075067Y-72999996D01*
X64981935Y-72999996D01*
X64981935Y-73000003D01*
X65002130Y-73179249D01*
X65002131Y-73179254D01*
X65061711Y-73349523D01*
X65084750Y-73386189D01*
X65157684Y-73502262D01*
X65285238Y-73629816D01*
X65437978Y-73725789D01*
X65597245Y-73781519D01*
X65608245Y-73785368D01*
X65608250Y-73785369D01*
X65787496Y-73805565D01*
X65787500Y-73805565D01*
X65787504Y-73805565D01*
X65966749Y-73785369D01*
X65966752Y-73785368D01*
X65966755Y-73785368D01*
X66137022Y-73725789D01*
X66289762Y-73629816D01*
X66417316Y-73502262D01*
X66513289Y-73349522D01*
X66572868Y-73179255D01*
X66578584Y-73128524D01*
X66593065Y-73000003D01*
X66593065Y-72999996D01*
X66572869Y-72820750D01*
X66572868Y-72820745D01*
X66552587Y-72762785D01*
X66513289Y-72650478D01*
X66501178Y-72631204D01*
X66465549Y-72574500D01*
X66417316Y-72497738D01*
X66289762Y-72370184D01*
X66186922Y-72305565D01*
X66137023Y-72274211D01*
X65966754Y-72214631D01*
X65966749Y-72214630D01*
X65787504Y-72194435D01*
X65787496Y-72194435D01*
X65608250Y-72214630D01*
X65608245Y-72214631D01*
X65437976Y-72274211D01*
X65285237Y-72370184D01*
X65157684Y-72497737D01*
X65061711Y-72650476D01*
X65002131Y-72820745D01*
X65002130Y-72820750D01*
X64981935Y-72999996D01*
X62075067Y-72999996D01*
X61948841Y-72915654D01*
X61948836Y-72915651D01*
X61948829Y-72915647D01*
X61662853Y-72762789D01*
X61662848Y-72762787D01*
X61662843Y-72762785D01*
X61553399Y-72717452D01*
X61363246Y-72638688D01*
X61052912Y-72544550D01*
X61052901Y-72544547D01*
X60734873Y-72481289D01*
X60734856Y-72481286D01*
X60490811Y-72457250D01*
X60412142Y-72449502D01*
X60087856Y-72449502D01*
X60015098Y-72456668D01*
X59765141Y-72481286D01*
X59765124Y-72481289D01*
X59447095Y-72544547D01*
X59447084Y-72544550D01*
X59136750Y-72638688D01*
X58837148Y-72762787D01*
X58837143Y-72762789D01*
X58551167Y-72915647D01*
X58551149Y-72915658D01*
X58281530Y-73095812D01*
X58281528Y-73095813D01*
X58281522Y-73095818D01*
X58105120Y-73240586D01*
X58040811Y-73267898D01*
X57971944Y-73256107D01*
X57920384Y-73208954D01*
X57902501Y-73141412D01*
X57910276Y-73101397D01*
X57923889Y-73064899D01*
X57923889Y-73064898D01*
X57984699Y-72785362D01*
X58005109Y-72500001D01*
X58005109Y-72499998D01*
X57984699Y-72214637D01*
X57965200Y-72125000D01*
X68019815Y-72125000D01*
X68038503Y-72302805D01*
X68038504Y-72302807D01*
X68093747Y-72472829D01*
X68093750Y-72472835D01*
X68183141Y-72627665D01*
X68214206Y-72662166D01*
X68302764Y-72760521D01*
X68302767Y-72760523D01*
X68302770Y-72760526D01*
X68447407Y-72865612D01*
X68610733Y-72938329D01*
X68785609Y-72975500D01*
X68785610Y-72975500D01*
X68964389Y-72975500D01*
X68964391Y-72975500D01*
X69139267Y-72938329D01*
X69302593Y-72865612D01*
X69358878Y-72824716D01*
X69424682Y-72801237D01*
X69482199Y-72811755D01*
X69485733Y-72813329D01*
X69660609Y-72850500D01*
X69660610Y-72850500D01*
X69839389Y-72850500D01*
X69839391Y-72850500D01*
X70014267Y-72813329D01*
X70014272Y-72813326D01*
X70018654Y-72811903D01*
X70088495Y-72809904D01*
X70148329Y-72845981D01*
X70179161Y-72908681D01*
X70171200Y-72978095D01*
X70155932Y-73004558D01*
X70062317Y-73128524D01*
X69965212Y-73323537D01*
X69905592Y-73533081D01*
X69885492Y-73749999D01*
X69885492Y-73750000D01*
X69905592Y-73966918D01*
X69905592Y-73966920D01*
X69905593Y-73966923D01*
X69937799Y-74080115D01*
X69965212Y-74176462D01*
X69970364Y-74186808D01*
X70062316Y-74371472D01*
X70193601Y-74545322D01*
X70354596Y-74692088D01*
X70354603Y-74692092D01*
X70354604Y-74692093D01*
X70539814Y-74806770D01*
X70539820Y-74806773D01*
X70562692Y-74815633D01*
X70742959Y-74885470D01*
X70957102Y-74925500D01*
X70957104Y-74925500D01*
X71174952Y-74925500D01*
X71174954Y-74925500D01*
X71389097Y-74885470D01*
X71592238Y-74806772D01*
X71777460Y-74692088D01*
X71788435Y-74682082D01*
X71851235Y-74651463D01*
X71920622Y-74659657D01*
X71971242Y-74699405D01*
X72033480Y-74782544D01*
X72033483Y-74782547D01*
X72148692Y-74868793D01*
X72148699Y-74868797D01*
X72283545Y-74919091D01*
X72283544Y-74919091D01*
X72290472Y-74919835D01*
X72343155Y-74925500D01*
X73788900Y-74925499D01*
X73848511Y-74919091D01*
X73983359Y-74868796D01*
X74098574Y-74782546D01*
X74184824Y-74667331D01*
X74235119Y-74532483D01*
X74241528Y-74472873D01*
X74241527Y-73027128D01*
X74235119Y-72967517D01*
X74230330Y-72954678D01*
X74184825Y-72832671D01*
X74184821Y-72832664D01*
X74098575Y-72717455D01*
X74098572Y-72717452D01*
X73983363Y-72631206D01*
X73983356Y-72631202D01*
X73848510Y-72580908D01*
X73848511Y-72580908D01*
X73788911Y-72574501D01*
X73788909Y-72574500D01*
X73788901Y-72574500D01*
X73788892Y-72574500D01*
X72343157Y-72574500D01*
X72343151Y-72574501D01*
X72283544Y-72580908D01*
X72148699Y-72631202D01*
X72148692Y-72631206D01*
X72033483Y-72717452D01*
X71971242Y-72800594D01*
X71915307Y-72842465D01*
X71845616Y-72847448D01*
X71788439Y-72817920D01*
X71777462Y-72807913D01*
X71777457Y-72807910D01*
X71592241Y-72693229D01*
X71592235Y-72693226D01*
X71507141Y-72660260D01*
X71389097Y-72614530D01*
X71174954Y-72574500D01*
X70957102Y-72574500D01*
X70742959Y-72614530D01*
X70742956Y-72614530D01*
X70742956Y-72614531D01*
X70600040Y-72669897D01*
X70530417Y-72675759D01*
X70468677Y-72643049D01*
X70434422Y-72582152D01*
X70438529Y-72512403D01*
X70447857Y-72492274D01*
X70531250Y-72347835D01*
X70586497Y-72177803D01*
X70605185Y-72000000D01*
X70586497Y-71822197D01*
X70554347Y-71723249D01*
X70531252Y-71652170D01*
X70531249Y-71652164D01*
X70530276Y-71650478D01*
X70443395Y-71499996D01*
X75194435Y-71499996D01*
X75194435Y-71500003D01*
X75214630Y-71679249D01*
X75214631Y-71679254D01*
X75274211Y-71849523D01*
X75327986Y-71935104D01*
X75370184Y-72002262D01*
X75497738Y-72129816D01*
X75574109Y-72177803D01*
X75632729Y-72214637D01*
X75650478Y-72225789D01*
X75788860Y-72274211D01*
X75820745Y-72285368D01*
X75820750Y-72285369D01*
X75999996Y-72305565D01*
X76000000Y-72305565D01*
X76000004Y-72305565D01*
X76179249Y-72285369D01*
X76179252Y-72285368D01*
X76179255Y-72285368D01*
X76349522Y-72225789D01*
X76502262Y-72129816D01*
X76629816Y-72002262D01*
X76725789Y-71849522D01*
X76785368Y-71679255D01*
X76789743Y-71640421D01*
X76816808Y-71576011D01*
X76874402Y-71536454D01*
X76944239Y-71534315D01*
X77004146Y-71570272D01*
X77020159Y-71593843D01*
X77020506Y-71593626D01*
X77074311Y-71679256D01*
X77120184Y-71752262D01*
X77247738Y-71879816D01*
X77400478Y-71975789D01*
X77544893Y-72026322D01*
X77570745Y-72035368D01*
X77570750Y-72035369D01*
X77749996Y-72055565D01*
X77750000Y-72055565D01*
X77750004Y-72055565D01*
X77844783Y-72044886D01*
X80944532Y-72044886D01*
X80944532Y-72044889D01*
X80964364Y-72271574D01*
X80964366Y-72271585D01*
X81023258Y-72491376D01*
X81023261Y-72491385D01*
X81119431Y-72697620D01*
X81119432Y-72697622D01*
X81249954Y-72884029D01*
X81410858Y-73044933D01*
X81410861Y-73044935D01*
X81597266Y-73175456D01*
X81803504Y-73271627D01*
X82023308Y-73330523D01*
X82185230Y-73344689D01*
X82249998Y-73350356D01*
X82250000Y-73350356D01*
X82250002Y-73350356D01*
X82306673Y-73345397D01*
X82476692Y-73330523D01*
X82696496Y-73271627D01*
X82902734Y-73175456D01*
X83089139Y-73044935D01*
X83250047Y-72884027D01*
X83380568Y-72697622D01*
X83380572Y-72697612D01*
X83381675Y-72696038D01*
X83436252Y-72652412D01*
X83505750Y-72645218D01*
X83549222Y-72662165D01*
X83650478Y-72725789D01*
X83812937Y-72782636D01*
X83820745Y-72785368D01*
X83820750Y-72785369D01*
X83999996Y-72805565D01*
X84000000Y-72805565D01*
X84000004Y-72805565D01*
X84179249Y-72785369D01*
X84179252Y-72785368D01*
X84179255Y-72785368D01*
X84349522Y-72725789D01*
X84502262Y-72629816D01*
X84629816Y-72502262D01*
X84725789Y-72349522D01*
X84785368Y-72179255D01*
X84785531Y-72177807D01*
X84805565Y-72000003D01*
X84805565Y-71999996D01*
X84785369Y-71820750D01*
X84785368Y-71820745D01*
X84735859Y-71679256D01*
X84725789Y-71650478D01*
X84690066Y-71593626D01*
X84652799Y-71534315D01*
X84629816Y-71497738D01*
X84502262Y-71370184D01*
X84446945Y-71335426D01*
X84349523Y-71274211D01*
X84179254Y-71214631D01*
X84179249Y-71214630D01*
X84000004Y-71194435D01*
X83999996Y-71194435D01*
X83820750Y-71214630D01*
X83820745Y-71214631D01*
X83650476Y-71274211D01*
X83505569Y-71365263D01*
X83438332Y-71384263D01*
X83371497Y-71363895D01*
X83338022Y-71331392D01*
X83332679Y-71323762D01*
X83256266Y-71214631D01*
X83250045Y-71205746D01*
X83092493Y-71048194D01*
X83059008Y-70986871D01*
X83063992Y-70917179D01*
X83105864Y-70861246D01*
X83151667Y-70839834D01*
X83157381Y-70838483D01*
X83292086Y-70788242D01*
X83292093Y-70788238D01*
X83407187Y-70702078D01*
X83407190Y-70702075D01*
X83493350Y-70586981D01*
X83493354Y-70586974D01*
X83543596Y-70452267D01*
X83543598Y-70452260D01*
X83549999Y-70392732D01*
X83550000Y-70392715D01*
X83550000Y-69794888D01*
X82565686Y-69794888D01*
X82570080Y-69790494D01*
X82622741Y-69699282D01*
X82650000Y-69597549D01*
X82650000Y-69492227D01*
X82622741Y-69390494D01*
X82570080Y-69299282D01*
X82565686Y-69294888D01*
X83549999Y-69294888D01*
X83572137Y-69272750D01*
X83633460Y-69239264D01*
X83700774Y-69243389D01*
X83820737Y-69285366D01*
X83820743Y-69285367D01*
X83820745Y-69285368D01*
X83820746Y-69285368D01*
X83820750Y-69285369D01*
X83999996Y-69305565D01*
X84000000Y-69305565D01*
X84000004Y-69305565D01*
X84179249Y-69285369D01*
X84179252Y-69285368D01*
X84179255Y-69285368D01*
X84349522Y-69225789D01*
X84502262Y-69129816D01*
X84629816Y-69002262D01*
X84725789Y-68849522D01*
X84785368Y-68679255D01*
X84804420Y-68510161D01*
X84805565Y-68500003D01*
X84805565Y-68499996D01*
X84785369Y-68320750D01*
X84785368Y-68320745D01*
X84758824Y-68244888D01*
X84725789Y-68150478D01*
X84629816Y-67997738D01*
X84502262Y-67870184D01*
X84404478Y-67808742D01*
X84349523Y-67774211D01*
X84179254Y-67714631D01*
X84179249Y-67714630D01*
X84000004Y-67694435D01*
X83999996Y-67694435D01*
X83820750Y-67714630D01*
X83820745Y-67714631D01*
X83650476Y-67774211D01*
X83497737Y-67870184D01*
X83370184Y-67997737D01*
X83274212Y-68150475D01*
X83268466Y-68166895D01*
X83227741Y-68223669D01*
X83162787Y-68249413D01*
X83138172Y-68249225D01*
X83097830Y-68244888D01*
X82500000Y-68244888D01*
X82500000Y-69229202D01*
X82495606Y-69224808D01*
X82404394Y-69172147D01*
X82302661Y-69144888D01*
X82197339Y-69144888D01*
X82095606Y-69172147D01*
X82004394Y-69224808D01*
X82000000Y-69229202D01*
X82000000Y-68244888D01*
X81402155Y-68244888D01*
X81342627Y-68251289D01*
X81342620Y-68251291D01*
X81207913Y-68301533D01*
X81207906Y-68301537D01*
X81092812Y-68387697D01*
X81092809Y-68387700D01*
X81006649Y-68502794D01*
X81006645Y-68502801D01*
X80956403Y-68637508D01*
X80956401Y-68637515D01*
X80950000Y-68697043D01*
X80950000Y-69294888D01*
X81934314Y-69294888D01*
X81929920Y-69299282D01*
X81877259Y-69390494D01*
X81850000Y-69492227D01*
X81850000Y-69597549D01*
X81877259Y-69699282D01*
X81929920Y-69790494D01*
X81934314Y-69794888D01*
X80950000Y-69794888D01*
X80950000Y-70392732D01*
X80956401Y-70452260D01*
X80956403Y-70452267D01*
X81006645Y-70586974D01*
X81006649Y-70586981D01*
X81092809Y-70702075D01*
X81092812Y-70702078D01*
X81207906Y-70788238D01*
X81207913Y-70788242D01*
X81342622Y-70838485D01*
X81348334Y-70839835D01*
X81409052Y-70874405D01*
X81441441Y-70936315D01*
X81435218Y-71005906D01*
X81407507Y-71048194D01*
X81249951Y-71205750D01*
X81119432Y-71392153D01*
X81119431Y-71392155D01*
X81023261Y-71598390D01*
X81023258Y-71598399D01*
X80964366Y-71818190D01*
X80964364Y-71818201D01*
X80944532Y-72044886D01*
X77844783Y-72044886D01*
X77929249Y-72035369D01*
X77929252Y-72035368D01*
X77929255Y-72035368D01*
X78099522Y-71975789D01*
X78252262Y-71879816D01*
X78379816Y-71752262D01*
X78475789Y-71599522D01*
X78535368Y-71429255D01*
X78536867Y-71415953D01*
X78555565Y-71250003D01*
X78555565Y-71249996D01*
X78535369Y-71070748D01*
X78535368Y-71070745D01*
X78482579Y-70919883D01*
X78475789Y-70900478D01*
X78379816Y-70747738D01*
X78252262Y-70620184D01*
X78199409Y-70586974D01*
X78099523Y-70524211D01*
X77929254Y-70464631D01*
X77929249Y-70464630D01*
X77750004Y-70444435D01*
X77749996Y-70444435D01*
X77570750Y-70464630D01*
X77570745Y-70464631D01*
X77400476Y-70524211D01*
X77247737Y-70620184D01*
X77120184Y-70747737D01*
X77024211Y-70900476D01*
X76964631Y-71070745D01*
X76964631Y-71070748D01*
X76960256Y-71109577D01*
X76933189Y-71173991D01*
X76875594Y-71213546D01*
X76805757Y-71215683D01*
X76745851Y-71179725D01*
X76729841Y-71156155D01*
X76729494Y-71156374D01*
X76675689Y-71070745D01*
X76629816Y-70997738D01*
X76502262Y-70870184D01*
X76453962Y-70839835D01*
X76349523Y-70774211D01*
X76179254Y-70714631D01*
X76179249Y-70714630D01*
X76000004Y-70694435D01*
X75999996Y-70694435D01*
X75820750Y-70714630D01*
X75820745Y-70714631D01*
X75650476Y-70774211D01*
X75497737Y-70870184D01*
X75370184Y-70997737D01*
X75274211Y-71150476D01*
X75214631Y-71320745D01*
X75214630Y-71320750D01*
X75194435Y-71499996D01*
X70443395Y-71499996D01*
X70441859Y-71497335D01*
X70395003Y-71445296D01*
X70322235Y-71364478D01*
X70322232Y-71364476D01*
X70322231Y-71364475D01*
X70322230Y-71364474D01*
X70177593Y-71259388D01*
X70014267Y-71186671D01*
X70014265Y-71186670D01*
X69886594Y-71159533D01*
X69839391Y-71149500D01*
X69660609Y-71149500D01*
X69629954Y-71156015D01*
X69485733Y-71186670D01*
X69485728Y-71186672D01*
X69322408Y-71259388D01*
X69322403Y-71259390D01*
X69266121Y-71300282D01*
X69200315Y-71323762D01*
X69142804Y-71313245D01*
X69139271Y-71311672D01*
X69139266Y-71311670D01*
X69001561Y-71282400D01*
X68964391Y-71274500D01*
X68785609Y-71274500D01*
X68754954Y-71281015D01*
X68610733Y-71311670D01*
X68610728Y-71311672D01*
X68447408Y-71384387D01*
X68302768Y-71489475D01*
X68183140Y-71622336D01*
X68093750Y-71777164D01*
X68093747Y-71777170D01*
X68038504Y-71947192D01*
X68038503Y-71947194D01*
X68019815Y-72125000D01*
X57965200Y-72125000D01*
X57923890Y-71935104D01*
X57823908Y-71667041D01*
X57686808Y-71415961D01*
X57686807Y-71415960D01*
X57580115Y-71273436D01*
X56862573Y-71990978D01*
X56776751Y-71862537D01*
X56637463Y-71723249D01*
X56509020Y-71637425D01*
X57146449Y-70999996D01*
X62044435Y-70999996D01*
X62044435Y-71000003D01*
X62064630Y-71179249D01*
X62064631Y-71179254D01*
X62124211Y-71349523D01*
X62212149Y-71489474D01*
X62220184Y-71502262D01*
X62347738Y-71629816D01*
X62406981Y-71667041D01*
X62496435Y-71723249D01*
X62500478Y-71725789D01*
X62670745Y-71785368D01*
X62670750Y-71785369D01*
X62849996Y-71805565D01*
X62850000Y-71805565D01*
X62850004Y-71805565D01*
X63029249Y-71785369D01*
X63029252Y-71785368D01*
X63029255Y-71785368D01*
X63199522Y-71725789D01*
X63352262Y-71629816D01*
X63479501Y-71502577D01*
X63540824Y-71469092D01*
X63581066Y-71467038D01*
X63649998Y-71474805D01*
X63650000Y-71474805D01*
X63650004Y-71474805D01*
X63829249Y-71454609D01*
X63829252Y-71454608D01*
X63829255Y-71454608D01*
X63999522Y-71395029D01*
X64152262Y-71299056D01*
X64279816Y-71171502D01*
X64375789Y-71018762D01*
X64435368Y-70848495D01*
X64436496Y-70838483D01*
X64455565Y-70669243D01*
X64455565Y-70669236D01*
X64435369Y-70489990D01*
X64435368Y-70489985D01*
X64402567Y-70396245D01*
X64375789Y-70319718D01*
X64279816Y-70166978D01*
X64152262Y-70039424D01*
X64152260Y-70039423D01*
X63999523Y-69943451D01*
X63829254Y-69883871D01*
X63829249Y-69883870D01*
X63650004Y-69863675D01*
X63649996Y-69863675D01*
X63470750Y-69883870D01*
X63470745Y-69883871D01*
X63300476Y-69943451D01*
X63147739Y-70039423D01*
X63020498Y-70166663D01*
X62959174Y-70200147D01*
X62918935Y-70202201D01*
X62850004Y-70194435D01*
X62849996Y-70194435D01*
X62670750Y-70214630D01*
X62670745Y-70214631D01*
X62500476Y-70274211D01*
X62347737Y-70370184D01*
X62220184Y-70497737D01*
X62124211Y-70650476D01*
X62064631Y-70820745D01*
X62064630Y-70820750D01*
X62044435Y-70999996D01*
X57146449Y-70999996D01*
X57226562Y-70919883D01*
X57226561Y-70919882D01*
X57084046Y-70813196D01*
X57084038Y-70813191D01*
X56832957Y-70676091D01*
X56832958Y-70676091D01*
X56564895Y-70576109D01*
X56285362Y-70515300D01*
X56000001Y-70494891D01*
X55999999Y-70494891D01*
X55714637Y-70515300D01*
X55435104Y-70576109D01*
X55167041Y-70676091D01*
X54915961Y-70813191D01*
X54915953Y-70813196D01*
X54773437Y-70919882D01*
X54773436Y-70919883D01*
X55490979Y-71637426D01*
X55362537Y-71723249D01*
X55223249Y-71862537D01*
X55137426Y-71990979D01*
X54419883Y-71273436D01*
X54419882Y-71273437D01*
X54313196Y-71415953D01*
X54313191Y-71415961D01*
X54176091Y-71667041D01*
X54076109Y-71935104D01*
X54015300Y-72214637D01*
X53994891Y-72499998D01*
X53994891Y-72500001D01*
X54015300Y-72785362D01*
X54076109Y-73064895D01*
X54176091Y-73332958D01*
X54313191Y-73584038D01*
X54313196Y-73584046D01*
X54419882Y-73726561D01*
X54419883Y-73726562D01*
X55137425Y-73009019D01*
X55223249Y-73137463D01*
X55362537Y-73276751D01*
X55490978Y-73362573D01*
X54773436Y-74080115D01*
X54915960Y-74186807D01*
X54915961Y-74186808D01*
X55167042Y-74323908D01*
X55167041Y-74323908D01*
X55435104Y-74423890D01*
X55714637Y-74484699D01*
X55999999Y-74505109D01*
X56000001Y-74505109D01*
X56285362Y-74484699D01*
X56564893Y-74423890D01*
X56578804Y-74418702D01*
X56648496Y-74413716D01*
X56709820Y-74447199D01*
X56743306Y-74508521D01*
X56738324Y-74578213D01*
X56709822Y-74622564D01*
X55255961Y-76076425D01*
X55050235Y-76327103D01*
X54870072Y-76596736D01*
X54870061Y-76596754D01*
X54717203Y-76882730D01*
X54717201Y-76882735D01*
X54593101Y-77182337D01*
X54498963Y-77492671D01*
X54498960Y-77492682D01*
X54435700Y-77810717D01*
X54416585Y-78004809D01*
X54403916Y-78133442D01*
X54403916Y-78457728D01*
X54410464Y-78524211D01*
X54435700Y-78780452D01*
X54498960Y-79098487D01*
X54498963Y-79098498D01*
X54593101Y-79408832D01*
X54717201Y-79708434D01*
X54717203Y-79708439D01*
X54870061Y-79994415D01*
X54870069Y-79994428D01*
X54912751Y-80058307D01*
X54933628Y-80124985D01*
X54915143Y-80192365D01*
X54863164Y-80239054D01*
X54794194Y-80250230D01*
X54730130Y-80222344D01*
X54726318Y-80219023D01*
X54635697Y-80136763D01*
X54608647Y-80112209D01*
X54600057Y-80103607D01*
X54352273Y-79829850D01*
X54344566Y-79820447D01*
X54124777Y-79523736D01*
X54118029Y-79513624D01*
X54037490Y-79379104D01*
X53928358Y-79196828D01*
X53922634Y-79186108D01*
X53881245Y-79098508D01*
X53764891Y-78852243D01*
X53760245Y-78841013D01*
X53738597Y-78780453D01*
X53635961Y-78493325D01*
X53632435Y-78481691D01*
X53568321Y-78225500D01*
X53542790Y-78123480D01*
X53540426Y-78111586D01*
X53486288Y-77746308D01*
X53485100Y-77734237D01*
X53466900Y-77363516D01*
X53466752Y-77357338D01*
X53475402Y-69750000D01*
X66594815Y-69750000D01*
X66613503Y-69927805D01*
X66613504Y-69927807D01*
X66668747Y-70097829D01*
X66668748Y-70097830D01*
X66668750Y-70097835D01*
X66703835Y-70158604D01*
X66710196Y-70169622D01*
X66726667Y-70237522D01*
X66719850Y-70272575D01*
X66664632Y-70430379D01*
X66664630Y-70430387D01*
X66644435Y-70609633D01*
X66644435Y-70609640D01*
X66664630Y-70788886D01*
X66664631Y-70788891D01*
X66724211Y-70959160D01*
X66780155Y-71048194D01*
X66820184Y-71111899D01*
X66947738Y-71239453D01*
X66979466Y-71259389D01*
X67062670Y-71311670D01*
X67100478Y-71335426D01*
X67262594Y-71392153D01*
X67270745Y-71395005D01*
X67270750Y-71395006D01*
X67449996Y-71415202D01*
X67450000Y-71415202D01*
X67450004Y-71415202D01*
X67629249Y-71395006D01*
X67629252Y-71395005D01*
X67629255Y-71395005D01*
X67799522Y-71335426D01*
X67952262Y-71239453D01*
X68079816Y-71111899D01*
X68175789Y-70959159D01*
X68235368Y-70788892D01*
X68235369Y-70788886D01*
X68255565Y-70609640D01*
X68255565Y-70609633D01*
X68235369Y-70430387D01*
X68235366Y-70430374D01*
X68180149Y-70272576D01*
X68176586Y-70202798D01*
X68189799Y-70169628D01*
X68231250Y-70097835D01*
X68247859Y-70046718D01*
X73414405Y-70046718D01*
X73414405Y-70046725D01*
X73434600Y-70225971D01*
X73434601Y-70225976D01*
X73494181Y-70396245D01*
X73556165Y-70494891D01*
X73590154Y-70548984D01*
X73717708Y-70676538D01*
X73870448Y-70772511D01*
X73986705Y-70813191D01*
X74040715Y-70832090D01*
X74040720Y-70832091D01*
X74219966Y-70852287D01*
X74219970Y-70852287D01*
X74219974Y-70852287D01*
X74399219Y-70832091D01*
X74399222Y-70832090D01*
X74399225Y-70832090D01*
X74569492Y-70772511D01*
X74722232Y-70676538D01*
X74849786Y-70548984D01*
X74945759Y-70396244D01*
X75005338Y-70225977D01*
X75005339Y-70225971D01*
X75025535Y-70046725D01*
X75025535Y-70046718D01*
X75005339Y-69867472D01*
X75005338Y-69867467D01*
X74993052Y-69832356D01*
X74945759Y-69697200D01*
X74849786Y-69544460D01*
X74722232Y-69416906D01*
X74680198Y-69390494D01*
X74569493Y-69320933D01*
X74399224Y-69261353D01*
X74399219Y-69261352D01*
X74219974Y-69241157D01*
X74219966Y-69241157D01*
X74040720Y-69261352D01*
X74040715Y-69261353D01*
X73870446Y-69320933D01*
X73717707Y-69416906D01*
X73590154Y-69544459D01*
X73494181Y-69697198D01*
X73434601Y-69867467D01*
X73434600Y-69867472D01*
X73414405Y-70046718D01*
X68247859Y-70046718D01*
X68286497Y-69927803D01*
X68305185Y-69750000D01*
X68286497Y-69572197D01*
X68248772Y-69456091D01*
X68231252Y-69402170D01*
X68231249Y-69402164D01*
X68141859Y-69247335D01*
X68095003Y-69195296D01*
X68022235Y-69114478D01*
X68022232Y-69114476D01*
X68022231Y-69114475D01*
X68022230Y-69114474D01*
X68011343Y-69106564D01*
X71694435Y-69106564D01*
X71694435Y-69106571D01*
X71714630Y-69285817D01*
X71714631Y-69285822D01*
X71774211Y-69456091D01*
X71847163Y-69572192D01*
X71870184Y-69608830D01*
X71997738Y-69736384D01*
X72150478Y-69832357D01*
X72320745Y-69891936D01*
X72320750Y-69891937D01*
X72499996Y-69912133D01*
X72500000Y-69912133D01*
X72500004Y-69912133D01*
X72679249Y-69891937D01*
X72679252Y-69891936D01*
X72679255Y-69891936D01*
X72849522Y-69832357D01*
X73002262Y-69736384D01*
X73129816Y-69608830D01*
X73225789Y-69456090D01*
X73285368Y-69285823D01*
X73285419Y-69285369D01*
X73305565Y-69106571D01*
X73305565Y-69106564D01*
X73285369Y-68927318D01*
X73285368Y-68927313D01*
X73250553Y-68827818D01*
X73225789Y-68757046D01*
X73129816Y-68604306D01*
X73002262Y-68476752D01*
X72902694Y-68414189D01*
X72849523Y-68380779D01*
X72679254Y-68321199D01*
X72679249Y-68321198D01*
X72500004Y-68301003D01*
X72499996Y-68301003D01*
X72320750Y-68321198D01*
X72320745Y-68321199D01*
X72150476Y-68380779D01*
X71997737Y-68476752D01*
X71870184Y-68604305D01*
X71774211Y-68757044D01*
X71714631Y-68927313D01*
X71714630Y-68927318D01*
X71694435Y-69106564D01*
X68011343Y-69106564D01*
X67877593Y-69009388D01*
X67877592Y-69009387D01*
X67764180Y-68958893D01*
X67710943Y-68913643D01*
X67690622Y-68846794D01*
X67709667Y-68779570D01*
X67762033Y-68733315D01*
X67773664Y-68728572D01*
X67815917Y-68713787D01*
X67815916Y-68713787D01*
X67815920Y-68713786D01*
X67968660Y-68617813D01*
X68096214Y-68490259D01*
X68192187Y-68337519D01*
X68251766Y-68167252D01*
X68251807Y-68166895D01*
X68261178Y-68083720D01*
X68288244Y-68019306D01*
X68345839Y-67979751D01*
X68415676Y-67977613D01*
X68450368Y-67992608D01*
X68492857Y-68019306D01*
X68566183Y-68065381D01*
X68736453Y-68124961D01*
X68736458Y-68124962D01*
X68915704Y-68145158D01*
X68915708Y-68145158D01*
X68915712Y-68145158D01*
X69094957Y-68124962D01*
X69094960Y-68124961D01*
X69094963Y-68124961D01*
X69265230Y-68065382D01*
X69417970Y-67969409D01*
X69545524Y-67841855D01*
X69581645Y-67784369D01*
X73066308Y-67784369D01*
X73066308Y-67784376D01*
X73086503Y-67963622D01*
X73086504Y-67963627D01*
X73146084Y-68133896D01*
X73219849Y-68251291D01*
X73242057Y-68286635D01*
X73369611Y-68414189D01*
X73459953Y-68470955D01*
X73490675Y-68490259D01*
X73522351Y-68510162D01*
X73692618Y-68569741D01*
X73692623Y-68569742D01*
X73871869Y-68589938D01*
X73871873Y-68589938D01*
X73871877Y-68589938D01*
X74051122Y-68569742D01*
X74051125Y-68569741D01*
X74051128Y-68569741D01*
X74221395Y-68510162D01*
X74374135Y-68414189D01*
X74501689Y-68286635D01*
X74597662Y-68133895D01*
X74657241Y-67963628D01*
X74667770Y-67870184D01*
X74677438Y-67784376D01*
X74677438Y-67784369D01*
X74657242Y-67605123D01*
X74657241Y-67605118D01*
X74597661Y-67434849D01*
X74534908Y-67334979D01*
X74501689Y-67282111D01*
X74374135Y-67154557D01*
X74339703Y-67132922D01*
X74221396Y-67058584D01*
X74051127Y-66999004D01*
X74051122Y-66999003D01*
X73871877Y-66978808D01*
X73871869Y-66978808D01*
X73692623Y-66999003D01*
X73692618Y-66999004D01*
X73522349Y-67058584D01*
X73369610Y-67154557D01*
X73242057Y-67282110D01*
X73146084Y-67434849D01*
X73086504Y-67605118D01*
X73086503Y-67605123D01*
X73066308Y-67784369D01*
X69581645Y-67784369D01*
X69641497Y-67689115D01*
X69701076Y-67518848D01*
X69710540Y-67434851D01*
X69721273Y-67339596D01*
X69721273Y-67339589D01*
X69701077Y-67160343D01*
X69701076Y-67160338D01*
X69641496Y-66990069D01*
X69545523Y-66837330D01*
X69417970Y-66709777D01*
X69265231Y-66613804D01*
X69094962Y-66554224D01*
X69094957Y-66554223D01*
X68915712Y-66534028D01*
X68915704Y-66534028D01*
X68736458Y-66554223D01*
X68736453Y-66554224D01*
X68566184Y-66613804D01*
X68413445Y-66709777D01*
X68285892Y-66837330D01*
X68189919Y-66990069D01*
X68130339Y-67160338D01*
X68130338Y-67160342D01*
X68120927Y-67243870D01*
X68093860Y-67308284D01*
X68036265Y-67347839D01*
X67966428Y-67349976D01*
X67931734Y-67334979D01*
X67815922Y-67262208D01*
X67645652Y-67202628D01*
X67645647Y-67202627D01*
X67466402Y-67182432D01*
X67466394Y-67182432D01*
X67287148Y-67202627D01*
X67287143Y-67202628D01*
X67116874Y-67262208D01*
X66964135Y-67358181D01*
X66836582Y-67485734D01*
X66740609Y-67638473D01*
X66681029Y-67808742D01*
X66681028Y-67808747D01*
X66660833Y-67987993D01*
X66660833Y-67988000D01*
X66681028Y-68167246D01*
X66681029Y-68167251D01*
X66740609Y-68337520D01*
X66788783Y-68414188D01*
X66836582Y-68490259D01*
X66964136Y-68617813D01*
X66995492Y-68637515D01*
X67090229Y-68697043D01*
X67116876Y-68713786D01*
X67140769Y-68722146D01*
X67197544Y-68762866D01*
X67223293Y-68827818D01*
X67209838Y-68896380D01*
X67161452Y-68946784D01*
X67150252Y-68952467D01*
X67022406Y-69009388D01*
X66877768Y-69114475D01*
X66758140Y-69247336D01*
X66668750Y-69402164D01*
X66668747Y-69402170D01*
X66613504Y-69572192D01*
X66613503Y-69572194D01*
X66594815Y-69750000D01*
X53475402Y-69750000D01*
X53479271Y-66347550D01*
X84346881Y-66347550D01*
X84346881Y-66347557D01*
X84367076Y-66526803D01*
X84367077Y-66526808D01*
X84426657Y-66697077D01*
X84514785Y-66837331D01*
X84522630Y-66849816D01*
X84650184Y-66977370D01*
X84684616Y-66999005D01*
X84774630Y-67055565D01*
X84802924Y-67073343D01*
X84973191Y-67132922D01*
X84973196Y-67132923D01*
X85152442Y-67153119D01*
X85152446Y-67153119D01*
X85152450Y-67153119D01*
X85331695Y-67132923D01*
X85331698Y-67132922D01*
X85331701Y-67132922D01*
X85501968Y-67073343D01*
X85604249Y-67009075D01*
X85671484Y-66990075D01*
X85711175Y-66997028D01*
X85820737Y-67035366D01*
X85820743Y-67035367D01*
X85820745Y-67035368D01*
X85820746Y-67035368D01*
X85820750Y-67035369D01*
X85999996Y-67055565D01*
X86000000Y-67055565D01*
X86000004Y-67055565D01*
X86179249Y-67035369D01*
X86179252Y-67035368D01*
X86179255Y-67035368D01*
X86349522Y-66975789D01*
X86502262Y-66879816D01*
X86629816Y-66752262D01*
X86725789Y-66599522D01*
X86785368Y-66429255D01*
X86794573Y-66347557D01*
X86805565Y-66250003D01*
X86805565Y-66249996D01*
X86785369Y-66070750D01*
X86785368Y-66070745D01*
X86761405Y-66002262D01*
X86725789Y-65900478D01*
X86629816Y-65747738D01*
X86502262Y-65620184D01*
X86451801Y-65588477D01*
X86349523Y-65524211D01*
X86179254Y-65464631D01*
X86179249Y-65464630D01*
X86000004Y-65444435D01*
X85999996Y-65444435D01*
X85820750Y-65464630D01*
X85820745Y-65464631D01*
X85650474Y-65524212D01*
X85548196Y-65588477D01*
X85480959Y-65607477D01*
X85441271Y-65600525D01*
X85331698Y-65562185D01*
X85152450Y-65541989D01*
X85152442Y-65541989D01*
X84973196Y-65562184D01*
X84973191Y-65562185D01*
X84802922Y-65621765D01*
X84650183Y-65717738D01*
X84522630Y-65845291D01*
X84426657Y-65998030D01*
X84367077Y-66168299D01*
X84367076Y-66168304D01*
X84346881Y-66347550D01*
X53479271Y-66347550D01*
X53482148Y-63817936D01*
X53501909Y-63750923D01*
X53554765Y-63705228D01*
X53604080Y-63694098D01*
X56173436Y-63651275D01*
X56240792Y-63669840D01*
X56287420Y-63721874D01*
X56299500Y-63775258D01*
X56299500Y-63847718D01*
X56323819Y-64001266D01*
X56332754Y-64057675D01*
X56384572Y-64217155D01*
X56398444Y-64259846D01*
X56494951Y-64449252D01*
X56619890Y-64621218D01*
X56770213Y-64771541D01*
X56942179Y-64896480D01*
X56942181Y-64896481D01*
X56942184Y-64896483D01*
X57131588Y-64992989D01*
X57333757Y-65058678D01*
X57543713Y-65091932D01*
X57543714Y-65091932D01*
X58056286Y-65091932D01*
X58056287Y-65091932D01*
X58266243Y-65058678D01*
X58446847Y-64999996D01*
X59194435Y-64999996D01*
X59194435Y-65000003D01*
X59214630Y-65179249D01*
X59214631Y-65179254D01*
X59274211Y-65349523D01*
X59333849Y-65444435D01*
X59370184Y-65502262D01*
X59497738Y-65629816D01*
X59650478Y-65725789D01*
X59802752Y-65779072D01*
X59820745Y-65785368D01*
X59820750Y-65785369D01*
X59999996Y-65805565D01*
X60000000Y-65805565D01*
X60000004Y-65805565D01*
X60179249Y-65785369D01*
X60179252Y-65785368D01*
X60179255Y-65785368D01*
X60349522Y-65725789D01*
X60455110Y-65659443D01*
X60522345Y-65640443D01*
X60587054Y-65659444D01*
X60650475Y-65699295D01*
X60820745Y-65758875D01*
X60820750Y-65758876D01*
X60999996Y-65779072D01*
X61000000Y-65779072D01*
X61000004Y-65779072D01*
X61179249Y-65758876D01*
X61179252Y-65758875D01*
X61179255Y-65758875D01*
X61349522Y-65699296D01*
X61502262Y-65603323D01*
X61605589Y-65499996D01*
X64782553Y-65499996D01*
X64782553Y-65500003D01*
X64802748Y-65679249D01*
X64802749Y-65679254D01*
X64862329Y-65849523D01*
X64955643Y-65998030D01*
X64958302Y-66002262D01*
X65085856Y-66129816D01*
X65238596Y-66225789D01*
X65307796Y-66250003D01*
X65408863Y-66285368D01*
X65408868Y-66285369D01*
X65588114Y-66305565D01*
X65588118Y-66305565D01*
X65588122Y-66305565D01*
X65767367Y-66285369D01*
X65767370Y-66285368D01*
X65767373Y-66285368D01*
X65937640Y-66225789D01*
X66090380Y-66129816D01*
X66217934Y-66002262D01*
X66313907Y-65849522D01*
X66373486Y-65679255D01*
X66377859Y-65640443D01*
X66393683Y-65500003D01*
X66393683Y-65499996D01*
X66373487Y-65320750D01*
X66373486Y-65320745D01*
X66340259Y-65225788D01*
X66313907Y-65150478D01*
X66296137Y-65122198D01*
X66256225Y-65058678D01*
X66217934Y-64997738D01*
X66163136Y-64942940D01*
X66664491Y-64942940D01*
X66664491Y-64942947D01*
X66684686Y-65122193D01*
X66684687Y-65122198D01*
X66744267Y-65292467D01*
X66780118Y-65349523D01*
X66840240Y-65445206D01*
X66967794Y-65572760D01*
X67011982Y-65600525D01*
X67105750Y-65659444D01*
X67120534Y-65668733D01*
X67207878Y-65699296D01*
X67290801Y-65728312D01*
X67290806Y-65728313D01*
X67470052Y-65748509D01*
X67470056Y-65748509D01*
X67470060Y-65748509D01*
X67649305Y-65728313D01*
X67649308Y-65728312D01*
X67649311Y-65728312D01*
X67819578Y-65668733D01*
X67972318Y-65572760D01*
X68099872Y-65445206D01*
X68195845Y-65292466D01*
X68255424Y-65122199D01*
X68257869Y-65100498D01*
X68275621Y-64942947D01*
X68275621Y-64942940D01*
X68255425Y-64763694D01*
X68255424Y-64763689D01*
X68238258Y-64714631D01*
X68195845Y-64593422D01*
X68099872Y-64440682D01*
X67972318Y-64313128D01*
X67910382Y-64274211D01*
X67819579Y-64217155D01*
X67649310Y-64157575D01*
X67649305Y-64157574D01*
X67470060Y-64137379D01*
X67470052Y-64137379D01*
X67290806Y-64157574D01*
X67290801Y-64157575D01*
X67120532Y-64217155D01*
X66967793Y-64313128D01*
X66840240Y-64440681D01*
X66744267Y-64593420D01*
X66684687Y-64763689D01*
X66684686Y-64763694D01*
X66664491Y-64942940D01*
X66163136Y-64942940D01*
X66090380Y-64870184D01*
X66014772Y-64822676D01*
X65937641Y-64774211D01*
X65767372Y-64714631D01*
X65767367Y-64714630D01*
X65588122Y-64694435D01*
X65588114Y-64694435D01*
X65408868Y-64714630D01*
X65408863Y-64714631D01*
X65238594Y-64774211D01*
X65085855Y-64870184D01*
X64958302Y-64997737D01*
X64862329Y-65150476D01*
X64802749Y-65320745D01*
X64802748Y-65320750D01*
X64782553Y-65499996D01*
X61605589Y-65499996D01*
X61629816Y-65475769D01*
X61725789Y-65323029D01*
X61785368Y-65152762D01*
X61785369Y-65152756D01*
X61805565Y-64973510D01*
X61805565Y-64973503D01*
X61785369Y-64794257D01*
X61785368Y-64794252D01*
X61774675Y-64763694D01*
X61725789Y-64623985D01*
X61724050Y-64621218D01*
X61686582Y-64561587D01*
X61629816Y-64471245D01*
X61502262Y-64343691D01*
X61465211Y-64320410D01*
X61349523Y-64247718D01*
X61179254Y-64188138D01*
X61179249Y-64188137D01*
X61000004Y-64167942D01*
X60999996Y-64167942D01*
X60820750Y-64188137D01*
X60820745Y-64188138D01*
X60650476Y-64247718D01*
X60544890Y-64314063D01*
X60477653Y-64333063D01*
X60412946Y-64314063D01*
X60349522Y-64274211D01*
X60179254Y-64214631D01*
X60179249Y-64214630D01*
X60000004Y-64194435D01*
X59999996Y-64194435D01*
X59820750Y-64214630D01*
X59820745Y-64214631D01*
X59650476Y-64274211D01*
X59497737Y-64370184D01*
X59370184Y-64497737D01*
X59274211Y-64650476D01*
X59214631Y-64820745D01*
X59214630Y-64820750D01*
X59194435Y-64999996D01*
X58446847Y-64999996D01*
X58468412Y-64992989D01*
X58657816Y-64896483D01*
X58694014Y-64870184D01*
X58829786Y-64771541D01*
X58829788Y-64771538D01*
X58829792Y-64771536D01*
X58980104Y-64621224D01*
X58980106Y-64621220D01*
X58980109Y-64621218D01*
X59105048Y-64449252D01*
X59105047Y-64449252D01*
X59105051Y-64449248D01*
X59201557Y-64259844D01*
X59267246Y-64057675D01*
X59300500Y-63847719D01*
X59300500Y-63721108D01*
X59320185Y-63654069D01*
X59372989Y-63608314D01*
X59422430Y-63597125D01*
X71641834Y-63393469D01*
X71709189Y-63412033D01*
X71755817Y-63464067D01*
X71766912Y-63533050D01*
X71738950Y-63597081D01*
X71709870Y-63622444D01*
X71601406Y-63690596D01*
X71473851Y-63818151D01*
X71377878Y-63970890D01*
X71318298Y-64141159D01*
X71318297Y-64141164D01*
X71298102Y-64320410D01*
X71298102Y-64320417D01*
X71318297Y-64499663D01*
X71318298Y-64499668D01*
X71377878Y-64669937D01*
X71441721Y-64771541D01*
X71473851Y-64822676D01*
X71601405Y-64950230D01*
X71680607Y-64999996D01*
X71736019Y-65034814D01*
X71754145Y-65046203D01*
X71789797Y-65058678D01*
X71924412Y-65105782D01*
X71924417Y-65105783D01*
X72103663Y-65125979D01*
X72103667Y-65125979D01*
X72103671Y-65125979D01*
X72282916Y-65105783D01*
X72282919Y-65105782D01*
X72282922Y-65105782D01*
X72453189Y-65046203D01*
X72605929Y-64950230D01*
X72733483Y-64822676D01*
X72829456Y-64669936D01*
X72889035Y-64499669D01*
X72894716Y-64449248D01*
X72909232Y-64320417D01*
X72909232Y-64320410D01*
X72889036Y-64141164D01*
X72889035Y-64141159D01*
X72862726Y-64065973D01*
X72829456Y-63970892D01*
X72806293Y-63934029D01*
X72752061Y-63847719D01*
X72733483Y-63818152D01*
X72605929Y-63690598D01*
X72572893Y-63669840D01*
X72473704Y-63607515D01*
X72427413Y-63555180D01*
X72416765Y-63486126D01*
X72445140Y-63422278D01*
X72503530Y-63383906D01*
X72537599Y-63378539D01*
X77326295Y-63298728D01*
X77393650Y-63317292D01*
X77440278Y-63369326D01*
X77451578Y-63436592D01*
X77444435Y-63499994D01*
X77444435Y-63500003D01*
X77464630Y-63679249D01*
X77464633Y-63679262D01*
X77524209Y-63849520D01*
X77577309Y-63934029D01*
X77596309Y-64001266D01*
X77577309Y-64065971D01*
X77524209Y-64150479D01*
X77464633Y-64320737D01*
X77464630Y-64320750D01*
X77444435Y-64499996D01*
X77444435Y-64500003D01*
X77464630Y-64679249D01*
X77464631Y-64679254D01*
X77524211Y-64849523D01*
X77602116Y-64973507D01*
X77620184Y-65002262D01*
X77747738Y-65129816D01*
X77900478Y-65225789D01*
X78070745Y-65285368D01*
X78070750Y-65285369D01*
X78249996Y-65305565D01*
X78250000Y-65305565D01*
X78250004Y-65305565D01*
X78429249Y-65285369D01*
X78429252Y-65285368D01*
X78429255Y-65285368D01*
X78599522Y-65225789D01*
X78673581Y-65179255D01*
X78684027Y-65172691D01*
X78751264Y-65153690D01*
X78815973Y-65172691D01*
X78900475Y-65225788D01*
X79070745Y-65285368D01*
X79070750Y-65285369D01*
X79249996Y-65305565D01*
X79250000Y-65305565D01*
X79250004Y-65305565D01*
X79429249Y-65285369D01*
X79429252Y-65285368D01*
X79429255Y-65285368D01*
X79599522Y-65225789D01*
X79673581Y-65179255D01*
X79684027Y-65172691D01*
X79751264Y-65153690D01*
X79815973Y-65172691D01*
X79900475Y-65225788D01*
X80070745Y-65285368D01*
X80070750Y-65285369D01*
X80249996Y-65305565D01*
X80250000Y-65305565D01*
X80250004Y-65305565D01*
X80429249Y-65285369D01*
X80429252Y-65285368D01*
X80429255Y-65285368D01*
X80599522Y-65225789D01*
X80673581Y-65179255D01*
X80684027Y-65172691D01*
X80751264Y-65153690D01*
X80815973Y-65172691D01*
X80900475Y-65225788D01*
X81070745Y-65285368D01*
X81070750Y-65285369D01*
X81249996Y-65305565D01*
X81250000Y-65305565D01*
X81250004Y-65305565D01*
X81429249Y-65285369D01*
X81429252Y-65285368D01*
X81429255Y-65285368D01*
X81599522Y-65225789D01*
X81752262Y-65129816D01*
X81879816Y-65002262D01*
X81975789Y-64849522D01*
X82035368Y-64679255D01*
X82036486Y-64669331D01*
X82055565Y-64500003D01*
X82055565Y-64499996D01*
X82035369Y-64320750D01*
X82035368Y-64320745D01*
X81975788Y-64150475D01*
X81922691Y-64065973D01*
X81903690Y-63998736D01*
X81922691Y-63934027D01*
X81975788Y-63849524D01*
X81975789Y-63849522D01*
X82035368Y-63679255D01*
X82044627Y-63597081D01*
X82055565Y-63500003D01*
X82055565Y-63499997D01*
X82039343Y-63356024D01*
X82051397Y-63287202D01*
X82098746Y-63235822D01*
X82160493Y-63218158D01*
X87073436Y-63136275D01*
X87140792Y-63154840D01*
X87187420Y-63206874D01*
X87199500Y-63260258D01*
X87199500Y-64400001D01*
X87199501Y-64400018D01*
X87210000Y-64502796D01*
X87210001Y-64502799D01*
X87265185Y-64669331D01*
X87265187Y-64669336D01*
X87271305Y-64679255D01*
X87357288Y-64818656D01*
X87481344Y-64942712D01*
X87630666Y-65034814D01*
X87797203Y-65089999D01*
X87899991Y-65100500D01*
X89500008Y-65100499D01*
X89602797Y-65089999D01*
X89769334Y-65034814D01*
X89918656Y-64942712D01*
X90042712Y-64818656D01*
X90134814Y-64669334D01*
X90189999Y-64502797D01*
X90200500Y-64400009D01*
X90200499Y-63206106D01*
X90220184Y-63139068D01*
X90272987Y-63093313D01*
X90322424Y-63082125D01*
X92623436Y-63043775D01*
X92690792Y-63062340D01*
G37*
%TD.AperFunction*%
%TD*%
M02*
