%TF.GenerationSoftware,KiCad,Pcbnew,8.0.2*%
%TF.CreationDate,2024-09-15T16:43:51-04:00*%
%TF.ProjectId,StepperMotorDriver,53746570-7065-4724-9d6f-746f72447269,rev?*%
%TF.SameCoordinates,Original*%
%TF.FileFunction,Legend,Top*%
%TF.FilePolarity,Positive*%
%FSLAX46Y46*%
G04 Gerber Fmt 4.6, Leading zero omitted, Abs format (unit mm)*
G04 Created by KiCad (PCBNEW 8.0.2) date 2024-09-15 16:43:51*
%MOMM*%
%LPD*%
G01*
G04 APERTURE LIST*
%ADD10C,0.150000*%
%ADD11C,0.120000*%
%ADD12C,0.100000*%
%ADD13C,0.250000*%
%ADD14C,0.000000*%
G04 APERTURE END LIST*
D10*
X70366010Y-72065378D02*
X70508867Y-72112997D01*
X70508867Y-72112997D02*
X70746962Y-72112997D01*
X70746962Y-72112997D02*
X70842200Y-72065378D01*
X70842200Y-72065378D02*
X70889819Y-72017758D01*
X70889819Y-72017758D02*
X70937438Y-71922520D01*
X70937438Y-71922520D02*
X70937438Y-71827282D01*
X70937438Y-71827282D02*
X70889819Y-71732044D01*
X70889819Y-71732044D02*
X70842200Y-71684425D01*
X70842200Y-71684425D02*
X70746962Y-71636806D01*
X70746962Y-71636806D02*
X70556486Y-71589187D01*
X70556486Y-71589187D02*
X70461248Y-71541568D01*
X70461248Y-71541568D02*
X70413629Y-71493949D01*
X70413629Y-71493949D02*
X70366010Y-71398711D01*
X70366010Y-71398711D02*
X70366010Y-71303473D01*
X70366010Y-71303473D02*
X70413629Y-71208235D01*
X70413629Y-71208235D02*
X70461248Y-71160616D01*
X70461248Y-71160616D02*
X70556486Y-71112997D01*
X70556486Y-71112997D02*
X70794581Y-71112997D01*
X70794581Y-71112997D02*
X70937438Y-71160616D01*
X71270772Y-71112997D02*
X71508867Y-72112997D01*
X71508867Y-72112997D02*
X71699343Y-71398711D01*
X71699343Y-71398711D02*
X71889819Y-72112997D01*
X71889819Y-72112997D02*
X72127915Y-71112997D01*
X72508867Y-72112997D02*
X72508867Y-71112997D01*
X72508867Y-71112997D02*
X72746962Y-71112997D01*
X72746962Y-71112997D02*
X72889819Y-71160616D01*
X72889819Y-71160616D02*
X72985057Y-71255854D01*
X72985057Y-71255854D02*
X73032676Y-71351092D01*
X73032676Y-71351092D02*
X73080295Y-71541568D01*
X73080295Y-71541568D02*
X73080295Y-71684425D01*
X73080295Y-71684425D02*
X73032676Y-71874901D01*
X73032676Y-71874901D02*
X72985057Y-71970139D01*
X72985057Y-71970139D02*
X72889819Y-72065378D01*
X72889819Y-72065378D02*
X72746962Y-72112997D01*
X72746962Y-72112997D02*
X72508867Y-72112997D01*
X86024580Y-68841792D02*
X86072200Y-68889411D01*
X86072200Y-68889411D02*
X86119819Y-69032268D01*
X86119819Y-69032268D02*
X86119819Y-69127506D01*
X86119819Y-69127506D02*
X86072200Y-69270363D01*
X86072200Y-69270363D02*
X85976961Y-69365601D01*
X85976961Y-69365601D02*
X85881723Y-69413220D01*
X85881723Y-69413220D02*
X85691247Y-69460839D01*
X85691247Y-69460839D02*
X85548390Y-69460839D01*
X85548390Y-69460839D02*
X85357914Y-69413220D01*
X85357914Y-69413220D02*
X85262676Y-69365601D01*
X85262676Y-69365601D02*
X85167438Y-69270363D01*
X85167438Y-69270363D02*
X85119819Y-69127506D01*
X85119819Y-69127506D02*
X85119819Y-69032268D01*
X85119819Y-69032268D02*
X85167438Y-68889411D01*
X85167438Y-68889411D02*
X85215057Y-68841792D01*
X85834104Y-68460839D02*
X85834104Y-67984649D01*
X86119819Y-68556077D02*
X85119819Y-68222744D01*
X85119819Y-68222744D02*
X86119819Y-67889411D01*
X86119819Y-67556077D02*
X85119819Y-67556077D01*
X85119819Y-67556077D02*
X86119819Y-66984649D01*
X86119819Y-66984649D02*
X85119819Y-66984649D01*
X63289160Y-80822200D02*
X63432017Y-80869819D01*
X63432017Y-80869819D02*
X63670112Y-80869819D01*
X63670112Y-80869819D02*
X63765350Y-80822200D01*
X63765350Y-80822200D02*
X63812969Y-80774580D01*
X63812969Y-80774580D02*
X63860588Y-80679342D01*
X63860588Y-80679342D02*
X63860588Y-80584104D01*
X63860588Y-80584104D02*
X63812969Y-80488866D01*
X63812969Y-80488866D02*
X63765350Y-80441247D01*
X63765350Y-80441247D02*
X63670112Y-80393628D01*
X63670112Y-80393628D02*
X63479636Y-80346009D01*
X63479636Y-80346009D02*
X63384398Y-80298390D01*
X63384398Y-80298390D02*
X63336779Y-80250771D01*
X63336779Y-80250771D02*
X63289160Y-80155533D01*
X63289160Y-80155533D02*
X63289160Y-80060295D01*
X63289160Y-80060295D02*
X63336779Y-79965057D01*
X63336779Y-79965057D02*
X63384398Y-79917438D01*
X63384398Y-79917438D02*
X63479636Y-79869819D01*
X63479636Y-79869819D02*
X63717731Y-79869819D01*
X63717731Y-79869819D02*
X63860588Y-79917438D01*
X64146303Y-79869819D02*
X64717731Y-79869819D01*
X64432017Y-80869819D02*
X64432017Y-79869819D01*
X65003446Y-80584104D02*
X65479636Y-80584104D01*
X64908208Y-80869819D02*
X65241541Y-79869819D01*
X65241541Y-79869819D02*
X65574874Y-80869819D01*
X65765351Y-79869819D02*
X66336779Y-79869819D01*
X66051065Y-80869819D02*
X66051065Y-79869819D01*
X91812969Y-58119819D02*
X91336779Y-58119819D01*
X91336779Y-58119819D02*
X91336779Y-57119819D01*
X53836779Y-58119819D02*
X53836779Y-57119819D01*
X53836779Y-57596009D02*
X54408207Y-57596009D01*
X54408207Y-58119819D02*
X54408207Y-57119819D01*
X70336779Y-50619819D02*
X70336779Y-51429342D01*
X70336779Y-51429342D02*
X70384398Y-51524580D01*
X70384398Y-51524580D02*
X70432017Y-51572200D01*
X70432017Y-51572200D02*
X70527255Y-51619819D01*
X70527255Y-51619819D02*
X70717731Y-51619819D01*
X70717731Y-51619819D02*
X70812969Y-51572200D01*
X70812969Y-51572200D02*
X70860588Y-51524580D01*
X70860588Y-51524580D02*
X70908207Y-51429342D01*
X70908207Y-51429342D02*
X70908207Y-50619819D01*
X71336779Y-51572200D02*
X71479636Y-51619819D01*
X71479636Y-51619819D02*
X71717731Y-51619819D01*
X71717731Y-51619819D02*
X71812969Y-51572200D01*
X71812969Y-51572200D02*
X71860588Y-51524580D01*
X71860588Y-51524580D02*
X71908207Y-51429342D01*
X71908207Y-51429342D02*
X71908207Y-51334104D01*
X71908207Y-51334104D02*
X71860588Y-51238866D01*
X71860588Y-51238866D02*
X71812969Y-51191247D01*
X71812969Y-51191247D02*
X71717731Y-51143628D01*
X71717731Y-51143628D02*
X71527255Y-51096009D01*
X71527255Y-51096009D02*
X71432017Y-51048390D01*
X71432017Y-51048390D02*
X71384398Y-51000771D01*
X71384398Y-51000771D02*
X71336779Y-50905533D01*
X71336779Y-50905533D02*
X71336779Y-50810295D01*
X71336779Y-50810295D02*
X71384398Y-50715057D01*
X71384398Y-50715057D02*
X71432017Y-50667438D01*
X71432017Y-50667438D02*
X71527255Y-50619819D01*
X71527255Y-50619819D02*
X71765350Y-50619819D01*
X71765350Y-50619819D02*
X71908207Y-50667438D01*
X72670112Y-51096009D02*
X72812969Y-51143628D01*
X72812969Y-51143628D02*
X72860588Y-51191247D01*
X72860588Y-51191247D02*
X72908207Y-51286485D01*
X72908207Y-51286485D02*
X72908207Y-51429342D01*
X72908207Y-51429342D02*
X72860588Y-51524580D01*
X72860588Y-51524580D02*
X72812969Y-51572200D01*
X72812969Y-51572200D02*
X72717731Y-51619819D01*
X72717731Y-51619819D02*
X72336779Y-51619819D01*
X72336779Y-51619819D02*
X72336779Y-50619819D01*
X72336779Y-50619819D02*
X72670112Y-50619819D01*
X72670112Y-50619819D02*
X72765350Y-50667438D01*
X72765350Y-50667438D02*
X72812969Y-50715057D01*
X72812969Y-50715057D02*
X72860588Y-50810295D01*
X72860588Y-50810295D02*
X72860588Y-50905533D01*
X72860588Y-50905533D02*
X72812969Y-51000771D01*
X72812969Y-51000771D02*
X72765350Y-51048390D01*
X72765350Y-51048390D02*
X72670112Y-51096009D01*
X72670112Y-51096009D02*
X72336779Y-51096009D01*
X74051065Y-50715057D02*
X74098684Y-50667438D01*
X74098684Y-50667438D02*
X74193922Y-50619819D01*
X74193922Y-50619819D02*
X74432017Y-50619819D01*
X74432017Y-50619819D02*
X74527255Y-50667438D01*
X74527255Y-50667438D02*
X74574874Y-50715057D01*
X74574874Y-50715057D02*
X74622493Y-50810295D01*
X74622493Y-50810295D02*
X74622493Y-50905533D01*
X74622493Y-50905533D02*
X74574874Y-51048390D01*
X74574874Y-51048390D02*
X74003446Y-51619819D01*
X74003446Y-51619819D02*
X74622493Y-51619819D01*
X75051065Y-51524580D02*
X75098684Y-51572200D01*
X75098684Y-51572200D02*
X75051065Y-51619819D01*
X75051065Y-51619819D02*
X75003446Y-51572200D01*
X75003446Y-51572200D02*
X75051065Y-51524580D01*
X75051065Y-51524580D02*
X75051065Y-51619819D01*
X75717731Y-50619819D02*
X75812969Y-50619819D01*
X75812969Y-50619819D02*
X75908207Y-50667438D01*
X75908207Y-50667438D02*
X75955826Y-50715057D01*
X75955826Y-50715057D02*
X76003445Y-50810295D01*
X76003445Y-50810295D02*
X76051064Y-51000771D01*
X76051064Y-51000771D02*
X76051064Y-51238866D01*
X76051064Y-51238866D02*
X76003445Y-51429342D01*
X76003445Y-51429342D02*
X75955826Y-51524580D01*
X75955826Y-51524580D02*
X75908207Y-51572200D01*
X75908207Y-51572200D02*
X75812969Y-51619819D01*
X75812969Y-51619819D02*
X75717731Y-51619819D01*
X75717731Y-51619819D02*
X75622493Y-51572200D01*
X75622493Y-51572200D02*
X75574874Y-51524580D01*
X75574874Y-51524580D02*
X75527255Y-51429342D01*
X75527255Y-51429342D02*
X75479636Y-51238866D01*
X75479636Y-51238866D02*
X75479636Y-51000771D01*
X75479636Y-51000771D02*
X75527255Y-50810295D01*
X75527255Y-50810295D02*
X75574874Y-50715057D01*
X75574874Y-50715057D02*
X75622493Y-50667438D01*
X75622493Y-50667438D02*
X75717731Y-50619819D01*
X63586779Y-77119819D02*
X63586779Y-76119819D01*
X63586779Y-76119819D02*
X63967731Y-76119819D01*
X63967731Y-76119819D02*
X64062969Y-76167438D01*
X64062969Y-76167438D02*
X64110588Y-76215057D01*
X64110588Y-76215057D02*
X64158207Y-76310295D01*
X64158207Y-76310295D02*
X64158207Y-76453152D01*
X64158207Y-76453152D02*
X64110588Y-76548390D01*
X64110588Y-76548390D02*
X64062969Y-76596009D01*
X64062969Y-76596009D02*
X63967731Y-76643628D01*
X63967731Y-76643628D02*
X63586779Y-76643628D01*
X64491541Y-76119819D02*
X64729636Y-77119819D01*
X64729636Y-77119819D02*
X64920112Y-76405533D01*
X64920112Y-76405533D02*
X65110588Y-77119819D01*
X65110588Y-77119819D02*
X65348684Y-76119819D01*
X66301064Y-77119819D02*
X65967731Y-76643628D01*
X65729636Y-77119819D02*
X65729636Y-76119819D01*
X65729636Y-76119819D02*
X66110588Y-76119819D01*
X66110588Y-76119819D02*
X66205826Y-76167438D01*
X66205826Y-76167438D02*
X66253445Y-76215057D01*
X66253445Y-76215057D02*
X66301064Y-76310295D01*
X66301064Y-76310295D02*
X66301064Y-76453152D01*
X66301064Y-76453152D02*
X66253445Y-76548390D01*
X66253445Y-76548390D02*
X66205826Y-76596009D01*
X66205826Y-76596009D02*
X66110588Y-76643628D01*
X66110588Y-76643628D02*
X65729636Y-76643628D01*
X54110588Y-55197550D02*
X54015350Y-55149931D01*
X54015350Y-55149931D02*
X53872493Y-55149931D01*
X53872493Y-55149931D02*
X53729636Y-55197550D01*
X53729636Y-55197550D02*
X53634398Y-55292788D01*
X53634398Y-55292788D02*
X53586779Y-55388026D01*
X53586779Y-55388026D02*
X53539160Y-55578502D01*
X53539160Y-55578502D02*
X53539160Y-55721359D01*
X53539160Y-55721359D02*
X53586779Y-55911835D01*
X53586779Y-55911835D02*
X53634398Y-56007073D01*
X53634398Y-56007073D02*
X53729636Y-56102312D01*
X53729636Y-56102312D02*
X53872493Y-56149931D01*
X53872493Y-56149931D02*
X53967731Y-56149931D01*
X53967731Y-56149931D02*
X54110588Y-56102312D01*
X54110588Y-56102312D02*
X54158207Y-56054692D01*
X54158207Y-56054692D02*
X54158207Y-55721359D01*
X54158207Y-55721359D02*
X53967731Y-55721359D01*
X54586779Y-56149931D02*
X54586779Y-55149931D01*
X54586779Y-55149931D02*
X55158207Y-56149931D01*
X55158207Y-56149931D02*
X55158207Y-55149931D01*
X55634398Y-56149931D02*
X55634398Y-55149931D01*
X55634398Y-55149931D02*
X55872493Y-55149931D01*
X55872493Y-55149931D02*
X56015350Y-55197550D01*
X56015350Y-55197550D02*
X56110588Y-55292788D01*
X56110588Y-55292788D02*
X56158207Y-55388026D01*
X56158207Y-55388026D02*
X56205826Y-55578502D01*
X56205826Y-55578502D02*
X56205826Y-55721359D01*
X56205826Y-55721359D02*
X56158207Y-55911835D01*
X56158207Y-55911835D02*
X56110588Y-56007073D01*
X56110588Y-56007073D02*
X56015350Y-56102312D01*
X56015350Y-56102312D02*
X55872493Y-56149931D01*
X55872493Y-56149931D02*
X55634398Y-56149931D01*
X56396303Y-56245169D02*
X57158207Y-56245169D01*
X57586779Y-55149931D02*
X57777255Y-55149931D01*
X57777255Y-55149931D02*
X57872493Y-55197550D01*
X57872493Y-55197550D02*
X57967731Y-55292788D01*
X57967731Y-55292788D02*
X58015350Y-55483264D01*
X58015350Y-55483264D02*
X58015350Y-55816597D01*
X58015350Y-55816597D02*
X57967731Y-56007073D01*
X57967731Y-56007073D02*
X57872493Y-56102312D01*
X57872493Y-56102312D02*
X57777255Y-56149931D01*
X57777255Y-56149931D02*
X57586779Y-56149931D01*
X57586779Y-56149931D02*
X57491541Y-56102312D01*
X57491541Y-56102312D02*
X57396303Y-56007073D01*
X57396303Y-56007073D02*
X57348684Y-55816597D01*
X57348684Y-55816597D02*
X57348684Y-55483264D01*
X57348684Y-55483264D02*
X57396303Y-55292788D01*
X57396303Y-55292788D02*
X57491541Y-55197550D01*
X57491541Y-55197550D02*
X57586779Y-55149931D01*
X85424003Y-53698484D02*
X85328765Y-53650865D01*
X85328765Y-53650865D02*
X85185908Y-53650865D01*
X85185908Y-53650865D02*
X85043051Y-53698484D01*
X85043051Y-53698484D02*
X84947813Y-53793722D01*
X84947813Y-53793722D02*
X84900194Y-53888960D01*
X84900194Y-53888960D02*
X84852575Y-54079436D01*
X84852575Y-54079436D02*
X84852575Y-54222293D01*
X84852575Y-54222293D02*
X84900194Y-54412769D01*
X84900194Y-54412769D02*
X84947813Y-54508007D01*
X84947813Y-54508007D02*
X85043051Y-54603246D01*
X85043051Y-54603246D02*
X85185908Y-54650865D01*
X85185908Y-54650865D02*
X85281146Y-54650865D01*
X85281146Y-54650865D02*
X85424003Y-54603246D01*
X85424003Y-54603246D02*
X85471622Y-54555626D01*
X85471622Y-54555626D02*
X85471622Y-54222293D01*
X85471622Y-54222293D02*
X85281146Y-54222293D01*
X85900194Y-54650865D02*
X85900194Y-53650865D01*
X85900194Y-53650865D02*
X86471622Y-54650865D01*
X86471622Y-54650865D02*
X86471622Y-53650865D01*
X86947813Y-54650865D02*
X86947813Y-53650865D01*
X86947813Y-53650865D02*
X87185908Y-53650865D01*
X87185908Y-53650865D02*
X87328765Y-53698484D01*
X87328765Y-53698484D02*
X87424003Y-53793722D01*
X87424003Y-53793722D02*
X87471622Y-53888960D01*
X87471622Y-53888960D02*
X87519241Y-54079436D01*
X87519241Y-54079436D02*
X87519241Y-54222293D01*
X87519241Y-54222293D02*
X87471622Y-54412769D01*
X87471622Y-54412769D02*
X87424003Y-54508007D01*
X87424003Y-54508007D02*
X87328765Y-54603246D01*
X87328765Y-54603246D02*
X87185908Y-54650865D01*
X87185908Y-54650865D02*
X86947813Y-54650865D01*
X87709718Y-54746103D02*
X88471622Y-54746103D01*
X88709718Y-54650865D02*
X88709718Y-53650865D01*
X80443922Y-78783107D02*
X80777255Y-79683107D01*
X80777255Y-79683107D02*
X81110588Y-78783107D01*
X81967731Y-79683107D02*
X81396303Y-79683107D01*
X81682017Y-79683107D02*
X81682017Y-78783107D01*
X81682017Y-78783107D02*
X81586779Y-78911678D01*
X81586779Y-78911678D02*
X81491541Y-78997392D01*
X81491541Y-78997392D02*
X81396303Y-79040250D01*
X82396303Y-79597392D02*
X82443922Y-79640250D01*
X82443922Y-79640250D02*
X82396303Y-79683107D01*
X82396303Y-79683107D02*
X82348684Y-79640250D01*
X82348684Y-79640250D02*
X82396303Y-79597392D01*
X82396303Y-79597392D02*
X82396303Y-79683107D01*
X83396302Y-79683107D02*
X82824874Y-79683107D01*
X83110588Y-79683107D02*
X83110588Y-78783107D01*
X83110588Y-78783107D02*
X83015350Y-78911678D01*
X83015350Y-78911678D02*
X82920112Y-78997392D01*
X82920112Y-78997392D02*
X82824874Y-79040250D01*
X80539160Y-81089200D02*
X80682017Y-81132057D01*
X80682017Y-81132057D02*
X80920112Y-81132057D01*
X80920112Y-81132057D02*
X81015350Y-81089200D01*
X81015350Y-81089200D02*
X81062969Y-81046342D01*
X81062969Y-81046342D02*
X81110588Y-80960628D01*
X81110588Y-80960628D02*
X81110588Y-80874914D01*
X81110588Y-80874914D02*
X81062969Y-80789200D01*
X81062969Y-80789200D02*
X81015350Y-80746342D01*
X81015350Y-80746342D02*
X80920112Y-80703485D01*
X80920112Y-80703485D02*
X80729636Y-80660628D01*
X80729636Y-80660628D02*
X80634398Y-80617771D01*
X80634398Y-80617771D02*
X80586779Y-80574914D01*
X80586779Y-80574914D02*
X80539160Y-80489200D01*
X80539160Y-80489200D02*
X80539160Y-80403485D01*
X80539160Y-80403485D02*
X80586779Y-80317771D01*
X80586779Y-80317771D02*
X80634398Y-80274914D01*
X80634398Y-80274914D02*
X80729636Y-80232057D01*
X80729636Y-80232057D02*
X80967731Y-80232057D01*
X80967731Y-80232057D02*
X81110588Y-80274914D01*
X81396303Y-80532057D02*
X81777255Y-80532057D01*
X81539160Y-80232057D02*
X81539160Y-81003485D01*
X81539160Y-81003485D02*
X81586779Y-81089200D01*
X81586779Y-81089200D02*
X81682017Y-81132057D01*
X81682017Y-81132057D02*
X81777255Y-81132057D01*
X82253446Y-81132057D02*
X82158208Y-81089200D01*
X82158208Y-81089200D02*
X82110589Y-81046342D01*
X82110589Y-81046342D02*
X82062970Y-80960628D01*
X82062970Y-80960628D02*
X82062970Y-80703485D01*
X82062970Y-80703485D02*
X82110589Y-80617771D01*
X82110589Y-80617771D02*
X82158208Y-80574914D01*
X82158208Y-80574914D02*
X82253446Y-80532057D01*
X82253446Y-80532057D02*
X82396303Y-80532057D01*
X82396303Y-80532057D02*
X82491541Y-80574914D01*
X82491541Y-80574914D02*
X82539160Y-80617771D01*
X82539160Y-80617771D02*
X82586779Y-80703485D01*
X82586779Y-80703485D02*
X82586779Y-80960628D01*
X82586779Y-80960628D02*
X82539160Y-81046342D01*
X82539160Y-81046342D02*
X82491541Y-81089200D01*
X82491541Y-81089200D02*
X82396303Y-81132057D01*
X82396303Y-81132057D02*
X82253446Y-81132057D01*
X83015351Y-81132057D02*
X83015351Y-80532057D01*
X83015351Y-80617771D02*
X83062970Y-80574914D01*
X83062970Y-80574914D02*
X83158208Y-80532057D01*
X83158208Y-80532057D02*
X83301065Y-80532057D01*
X83301065Y-80532057D02*
X83396303Y-80574914D01*
X83396303Y-80574914D02*
X83443922Y-80660628D01*
X83443922Y-80660628D02*
X83443922Y-81132057D01*
X83443922Y-80660628D02*
X83491541Y-80574914D01*
X83491541Y-80574914D02*
X83586779Y-80532057D01*
X83586779Y-80532057D02*
X83729636Y-80532057D01*
X83729636Y-80532057D02*
X83824875Y-80574914D01*
X83824875Y-80574914D02*
X83872494Y-80660628D01*
X83872494Y-80660628D02*
X83872494Y-81132057D01*
X84348684Y-80532057D02*
X84348684Y-81432057D01*
X84348684Y-80574914D02*
X84443922Y-80532057D01*
X84443922Y-80532057D02*
X84634398Y-80532057D01*
X84634398Y-80532057D02*
X84729636Y-80574914D01*
X84729636Y-80574914D02*
X84777255Y-80617771D01*
X84777255Y-80617771D02*
X84824874Y-80703485D01*
X84824874Y-80703485D02*
X84824874Y-80960628D01*
X84824874Y-80960628D02*
X84777255Y-81046342D01*
X84777255Y-81046342D02*
X84729636Y-81089200D01*
X84729636Y-81089200D02*
X84634398Y-81132057D01*
X84634398Y-81132057D02*
X84443922Y-81132057D01*
X84443922Y-81132057D02*
X84348684Y-81089200D01*
X85634398Y-81089200D02*
X85539160Y-81132057D01*
X85539160Y-81132057D02*
X85348684Y-81132057D01*
X85348684Y-81132057D02*
X85253446Y-81089200D01*
X85253446Y-81089200D02*
X85205827Y-81003485D01*
X85205827Y-81003485D02*
X85205827Y-80660628D01*
X85205827Y-80660628D02*
X85253446Y-80574914D01*
X85253446Y-80574914D02*
X85348684Y-80532057D01*
X85348684Y-80532057D02*
X85539160Y-80532057D01*
X85539160Y-80532057D02*
X85634398Y-80574914D01*
X85634398Y-80574914D02*
X85682017Y-80660628D01*
X85682017Y-80660628D02*
X85682017Y-80746342D01*
X85682017Y-80746342D02*
X85205827Y-80832057D01*
X86110589Y-81132057D02*
X86110589Y-80532057D01*
X86110589Y-80703485D02*
X86158208Y-80617771D01*
X86158208Y-80617771D02*
X86205827Y-80574914D01*
X86205827Y-80574914D02*
X86301065Y-80532057D01*
X86301065Y-80532057D02*
X86396303Y-80532057D01*
X53943922Y-69369819D02*
X54277255Y-70369819D01*
X54277255Y-70369819D02*
X54610588Y-69369819D01*
X55515350Y-70274580D02*
X55467731Y-70322200D01*
X55467731Y-70322200D02*
X55324874Y-70369819D01*
X55324874Y-70369819D02*
X55229636Y-70369819D01*
X55229636Y-70369819D02*
X55086779Y-70322200D01*
X55086779Y-70322200D02*
X54991541Y-70226961D01*
X54991541Y-70226961D02*
X54943922Y-70131723D01*
X54943922Y-70131723D02*
X54896303Y-69941247D01*
X54896303Y-69941247D02*
X54896303Y-69798390D01*
X54896303Y-69798390D02*
X54943922Y-69607914D01*
X54943922Y-69607914D02*
X54991541Y-69512676D01*
X54991541Y-69512676D02*
X55086779Y-69417438D01*
X55086779Y-69417438D02*
X55229636Y-69369819D01*
X55229636Y-69369819D02*
X55324874Y-69369819D01*
X55324874Y-69369819D02*
X55467731Y-69417438D01*
X55467731Y-69417438D02*
X55515350Y-69465057D01*
X56515350Y-70274580D02*
X56467731Y-70322200D01*
X56467731Y-70322200D02*
X56324874Y-70369819D01*
X56324874Y-70369819D02*
X56229636Y-70369819D01*
X56229636Y-70369819D02*
X56086779Y-70322200D01*
X56086779Y-70322200D02*
X55991541Y-70226961D01*
X55991541Y-70226961D02*
X55943922Y-70131723D01*
X55943922Y-70131723D02*
X55896303Y-69941247D01*
X55896303Y-69941247D02*
X55896303Y-69798390D01*
X55896303Y-69798390D02*
X55943922Y-69607914D01*
X55943922Y-69607914D02*
X55991541Y-69512676D01*
X55991541Y-69512676D02*
X56086779Y-69417438D01*
X56086779Y-69417438D02*
X56229636Y-69369819D01*
X56229636Y-69369819D02*
X56324874Y-69369819D01*
X56324874Y-69369819D02*
X56467731Y-69417438D01*
X56467731Y-69417438D02*
X56515350Y-69465057D01*
X56705827Y-70465057D02*
X57467731Y-70465057D01*
X57896303Y-69369819D02*
X58086779Y-69369819D01*
X58086779Y-69369819D02*
X58182017Y-69417438D01*
X58182017Y-69417438D02*
X58277255Y-69512676D01*
X58277255Y-69512676D02*
X58324874Y-69703152D01*
X58324874Y-69703152D02*
X58324874Y-70036485D01*
X58324874Y-70036485D02*
X58277255Y-70226961D01*
X58277255Y-70226961D02*
X58182017Y-70322200D01*
X58182017Y-70322200D02*
X58086779Y-70369819D01*
X58086779Y-70369819D02*
X57896303Y-70369819D01*
X57896303Y-70369819D02*
X57801065Y-70322200D01*
X57801065Y-70322200D02*
X57705827Y-70226961D01*
X57705827Y-70226961D02*
X57658208Y-70036485D01*
X57658208Y-70036485D02*
X57658208Y-69703152D01*
X57658208Y-69703152D02*
X57705827Y-69512676D01*
X57705827Y-69512676D02*
X57801065Y-69417438D01*
X57801065Y-69417438D02*
X57896303Y-69369819D01*
X91336779Y-68119819D02*
X91336779Y-67119819D01*
X91336779Y-67596009D02*
X91908207Y-67596009D01*
X91908207Y-68119819D02*
X91908207Y-67119819D01*
X61658207Y-45369819D02*
X61324874Y-44893628D01*
X61086779Y-45369819D02*
X61086779Y-44369819D01*
X61086779Y-44369819D02*
X61467731Y-44369819D01*
X61467731Y-44369819D02*
X61562969Y-44417438D01*
X61562969Y-44417438D02*
X61610588Y-44465057D01*
X61610588Y-44465057D02*
X61658207Y-44560295D01*
X61658207Y-44560295D02*
X61658207Y-44703152D01*
X61658207Y-44703152D02*
X61610588Y-44798390D01*
X61610588Y-44798390D02*
X61562969Y-44846009D01*
X61562969Y-44846009D02*
X61467731Y-44893628D01*
X61467731Y-44893628D02*
X61086779Y-44893628D01*
X62039160Y-45322200D02*
X62182017Y-45369819D01*
X62182017Y-45369819D02*
X62420112Y-45369819D01*
X62420112Y-45369819D02*
X62515350Y-45322200D01*
X62515350Y-45322200D02*
X62562969Y-45274580D01*
X62562969Y-45274580D02*
X62610588Y-45179342D01*
X62610588Y-45179342D02*
X62610588Y-45084104D01*
X62610588Y-45084104D02*
X62562969Y-44988866D01*
X62562969Y-44988866D02*
X62515350Y-44941247D01*
X62515350Y-44941247D02*
X62420112Y-44893628D01*
X62420112Y-44893628D02*
X62229636Y-44846009D01*
X62229636Y-44846009D02*
X62134398Y-44798390D01*
X62134398Y-44798390D02*
X62086779Y-44750771D01*
X62086779Y-44750771D02*
X62039160Y-44655533D01*
X62039160Y-44655533D02*
X62039160Y-44560295D01*
X62039160Y-44560295D02*
X62086779Y-44465057D01*
X62086779Y-44465057D02*
X62134398Y-44417438D01*
X62134398Y-44417438D02*
X62229636Y-44369819D01*
X62229636Y-44369819D02*
X62467731Y-44369819D01*
X62467731Y-44369819D02*
X62610588Y-44417438D01*
X62896303Y-44369819D02*
X63467731Y-44369819D01*
X63182017Y-45369819D02*
X63182017Y-44369819D01*
X88693922Y-69369819D02*
X89027255Y-70369819D01*
X89027255Y-70369819D02*
X89360588Y-69369819D01*
X90265350Y-70274580D02*
X90217731Y-70322200D01*
X90217731Y-70322200D02*
X90074874Y-70369819D01*
X90074874Y-70369819D02*
X89979636Y-70369819D01*
X89979636Y-70369819D02*
X89836779Y-70322200D01*
X89836779Y-70322200D02*
X89741541Y-70226961D01*
X89741541Y-70226961D02*
X89693922Y-70131723D01*
X89693922Y-70131723D02*
X89646303Y-69941247D01*
X89646303Y-69941247D02*
X89646303Y-69798390D01*
X89646303Y-69798390D02*
X89693922Y-69607914D01*
X89693922Y-69607914D02*
X89741541Y-69512676D01*
X89741541Y-69512676D02*
X89836779Y-69417438D01*
X89836779Y-69417438D02*
X89979636Y-69369819D01*
X89979636Y-69369819D02*
X90074874Y-69369819D01*
X90074874Y-69369819D02*
X90217731Y-69417438D01*
X90217731Y-69417438D02*
X90265350Y-69465057D01*
X91265350Y-70274580D02*
X91217731Y-70322200D01*
X91217731Y-70322200D02*
X91074874Y-70369819D01*
X91074874Y-70369819D02*
X90979636Y-70369819D01*
X90979636Y-70369819D02*
X90836779Y-70322200D01*
X90836779Y-70322200D02*
X90741541Y-70226961D01*
X90741541Y-70226961D02*
X90693922Y-70131723D01*
X90693922Y-70131723D02*
X90646303Y-69941247D01*
X90646303Y-69941247D02*
X90646303Y-69798390D01*
X90646303Y-69798390D02*
X90693922Y-69607914D01*
X90693922Y-69607914D02*
X90741541Y-69512676D01*
X90741541Y-69512676D02*
X90836779Y-69417438D01*
X90836779Y-69417438D02*
X90979636Y-69369819D01*
X90979636Y-69369819D02*
X91074874Y-69369819D01*
X91074874Y-69369819D02*
X91217731Y-69417438D01*
X91217731Y-69417438D02*
X91265350Y-69465057D01*
X91455827Y-70465057D02*
X92217731Y-70465057D01*
X92455827Y-70369819D02*
X92455827Y-69369819D01*
X63670112Y-53596009D02*
X63812969Y-53643628D01*
X63812969Y-53643628D02*
X63860588Y-53691247D01*
X63860588Y-53691247D02*
X63908207Y-53786485D01*
X63908207Y-53786485D02*
X63908207Y-53929342D01*
X63908207Y-53929342D02*
X63860588Y-54024580D01*
X63860588Y-54024580D02*
X63812969Y-54072200D01*
X63812969Y-54072200D02*
X63717731Y-54119819D01*
X63717731Y-54119819D02*
X63336779Y-54119819D01*
X63336779Y-54119819D02*
X63336779Y-53119819D01*
X63336779Y-53119819D02*
X63670112Y-53119819D01*
X63670112Y-53119819D02*
X63765350Y-53167438D01*
X63765350Y-53167438D02*
X63812969Y-53215057D01*
X63812969Y-53215057D02*
X63860588Y-53310295D01*
X63860588Y-53310295D02*
X63860588Y-53405533D01*
X63860588Y-53405533D02*
X63812969Y-53500771D01*
X63812969Y-53500771D02*
X63765350Y-53548390D01*
X63765350Y-53548390D02*
X63670112Y-53596009D01*
X63670112Y-53596009D02*
X63336779Y-53596009D01*
X64527255Y-53119819D02*
X64622493Y-53119819D01*
X64622493Y-53119819D02*
X64717731Y-53167438D01*
X64717731Y-53167438D02*
X64765350Y-53215057D01*
X64765350Y-53215057D02*
X64812969Y-53310295D01*
X64812969Y-53310295D02*
X64860588Y-53500771D01*
X64860588Y-53500771D02*
X64860588Y-53738866D01*
X64860588Y-53738866D02*
X64812969Y-53929342D01*
X64812969Y-53929342D02*
X64765350Y-54024580D01*
X64765350Y-54024580D02*
X64717731Y-54072200D01*
X64717731Y-54072200D02*
X64622493Y-54119819D01*
X64622493Y-54119819D02*
X64527255Y-54119819D01*
X64527255Y-54119819D02*
X64432017Y-54072200D01*
X64432017Y-54072200D02*
X64384398Y-54024580D01*
X64384398Y-54024580D02*
X64336779Y-53929342D01*
X64336779Y-53929342D02*
X64289160Y-53738866D01*
X64289160Y-53738866D02*
X64289160Y-53500771D01*
X64289160Y-53500771D02*
X64336779Y-53310295D01*
X64336779Y-53310295D02*
X64384398Y-53215057D01*
X64384398Y-53215057D02*
X64432017Y-53167438D01*
X64432017Y-53167438D02*
X64527255Y-53119819D01*
X54562969Y-67869819D02*
X54086779Y-67869819D01*
X54086779Y-67869819D02*
X54086779Y-66869819D01*
X84539160Y-44822200D02*
X84682017Y-44869819D01*
X84682017Y-44869819D02*
X84920112Y-44869819D01*
X84920112Y-44869819D02*
X85015350Y-44822200D01*
X85015350Y-44822200D02*
X85062969Y-44774580D01*
X85062969Y-44774580D02*
X85110588Y-44679342D01*
X85110588Y-44679342D02*
X85110588Y-44584104D01*
X85110588Y-44584104D02*
X85062969Y-44488866D01*
X85062969Y-44488866D02*
X85015350Y-44441247D01*
X85015350Y-44441247D02*
X84920112Y-44393628D01*
X84920112Y-44393628D02*
X84729636Y-44346009D01*
X84729636Y-44346009D02*
X84634398Y-44298390D01*
X84634398Y-44298390D02*
X84586779Y-44250771D01*
X84586779Y-44250771D02*
X84539160Y-44155533D01*
X84539160Y-44155533D02*
X84539160Y-44060295D01*
X84539160Y-44060295D02*
X84586779Y-43965057D01*
X84586779Y-43965057D02*
X84634398Y-43917438D01*
X84634398Y-43917438D02*
X84729636Y-43869819D01*
X84729636Y-43869819D02*
X84967731Y-43869819D01*
X84967731Y-43869819D02*
X85110588Y-43917438D01*
X85539160Y-44346009D02*
X85872493Y-44346009D01*
X86015350Y-44869819D02*
X85539160Y-44869819D01*
X85539160Y-44869819D02*
X85539160Y-43869819D01*
X85539160Y-43869819D02*
X86015350Y-43869819D01*
X86301065Y-43869819D02*
X86872493Y-43869819D01*
X86586779Y-44869819D02*
X86586779Y-43869819D01*
X86359580Y-70961554D02*
X86407200Y-71009173D01*
X86407200Y-71009173D02*
X86454819Y-71152030D01*
X86454819Y-71152030D02*
X86454819Y-71247268D01*
X86454819Y-71247268D02*
X86407200Y-71390125D01*
X86407200Y-71390125D02*
X86311961Y-71485363D01*
X86311961Y-71485363D02*
X86216723Y-71532982D01*
X86216723Y-71532982D02*
X86026247Y-71580601D01*
X86026247Y-71580601D02*
X85883390Y-71580601D01*
X85883390Y-71580601D02*
X85692914Y-71532982D01*
X85692914Y-71532982D02*
X85597676Y-71485363D01*
X85597676Y-71485363D02*
X85502438Y-71390125D01*
X85502438Y-71390125D02*
X85454819Y-71247268D01*
X85454819Y-71247268D02*
X85454819Y-71152030D01*
X85454819Y-71152030D02*
X85502438Y-71009173D01*
X85502438Y-71009173D02*
X85550057Y-70961554D01*
X85883390Y-70390125D02*
X85835771Y-70485363D01*
X85835771Y-70485363D02*
X85788152Y-70532982D01*
X85788152Y-70532982D02*
X85692914Y-70580601D01*
X85692914Y-70580601D02*
X85645295Y-70580601D01*
X85645295Y-70580601D02*
X85550057Y-70532982D01*
X85550057Y-70532982D02*
X85502438Y-70485363D01*
X85502438Y-70485363D02*
X85454819Y-70390125D01*
X85454819Y-70390125D02*
X85454819Y-70199649D01*
X85454819Y-70199649D02*
X85502438Y-70104411D01*
X85502438Y-70104411D02*
X85550057Y-70056792D01*
X85550057Y-70056792D02*
X85645295Y-70009173D01*
X85645295Y-70009173D02*
X85692914Y-70009173D01*
X85692914Y-70009173D02*
X85788152Y-70056792D01*
X85788152Y-70056792D02*
X85835771Y-70104411D01*
X85835771Y-70104411D02*
X85883390Y-70199649D01*
X85883390Y-70199649D02*
X85883390Y-70390125D01*
X85883390Y-70390125D02*
X85931009Y-70485363D01*
X85931009Y-70485363D02*
X85978628Y-70532982D01*
X85978628Y-70532982D02*
X86073866Y-70580601D01*
X86073866Y-70580601D02*
X86264342Y-70580601D01*
X86264342Y-70580601D02*
X86359580Y-70532982D01*
X86359580Y-70532982D02*
X86407200Y-70485363D01*
X86407200Y-70485363D02*
X86454819Y-70390125D01*
X86454819Y-70390125D02*
X86454819Y-70199649D01*
X86454819Y-70199649D02*
X86407200Y-70104411D01*
X86407200Y-70104411D02*
X86359580Y-70056792D01*
X86359580Y-70056792D02*
X86264342Y-70009173D01*
X86264342Y-70009173D02*
X86073866Y-70009173D01*
X86073866Y-70009173D02*
X85978628Y-70056792D01*
X85978628Y-70056792D02*
X85931009Y-70104411D01*
X85931009Y-70104411D02*
X85883390Y-70199649D01*
D11*
%TO.C,C8*%
X83725000Y-67990113D02*
X83725000Y-68490113D01*
X83975000Y-68240113D02*
X83475000Y-68240113D01*
X84830000Y-70794888D02*
X79670000Y-70794888D01*
X84830000Y-70834888D02*
X79670000Y-70834888D01*
X84829000Y-70874888D02*
X79671000Y-70874888D01*
X84828000Y-70914888D02*
X79672000Y-70914888D01*
X84826000Y-70954888D02*
X79674000Y-70954888D01*
X84823000Y-70994888D02*
X79677000Y-70994888D01*
X84819000Y-71034888D02*
X83290000Y-71034888D01*
X81210000Y-71034888D02*
X79681000Y-71034888D01*
X84815000Y-71074888D02*
X83290000Y-71074888D01*
X81210000Y-71074888D02*
X79685000Y-71074888D01*
X84811000Y-71114888D02*
X83290000Y-71114888D01*
X81210000Y-71114888D02*
X79689000Y-71114888D01*
X84806000Y-71154888D02*
X83290000Y-71154888D01*
X81210000Y-71154888D02*
X79694000Y-71154888D01*
X84800000Y-71194888D02*
X83290000Y-71194888D01*
X81210000Y-71194888D02*
X79700000Y-71194888D01*
X84793000Y-71234888D02*
X83290000Y-71234888D01*
X81210000Y-71234888D02*
X79707000Y-71234888D01*
X84786000Y-71274888D02*
X83290000Y-71274888D01*
X81210000Y-71274888D02*
X79714000Y-71274888D01*
X84778000Y-71314888D02*
X83290000Y-71314888D01*
X81210000Y-71314888D02*
X79722000Y-71314888D01*
X84770000Y-71354888D02*
X83290000Y-71354888D01*
X81210000Y-71354888D02*
X79730000Y-71354888D01*
X84761000Y-71394888D02*
X83290000Y-71394888D01*
X81210000Y-71394888D02*
X79739000Y-71394888D01*
X84751000Y-71434888D02*
X83290000Y-71434888D01*
X81210000Y-71434888D02*
X79749000Y-71434888D01*
X84741000Y-71474888D02*
X83290000Y-71474888D01*
X81210000Y-71474888D02*
X79759000Y-71474888D01*
X84730000Y-71515888D02*
X83290000Y-71515888D01*
X81210000Y-71515888D02*
X79770000Y-71515888D01*
X84718000Y-71555888D02*
X83290000Y-71555888D01*
X81210000Y-71555888D02*
X79782000Y-71555888D01*
X84705000Y-71595888D02*
X83290000Y-71595888D01*
X81210000Y-71595888D02*
X79795000Y-71595888D01*
X84692000Y-71635888D02*
X83290000Y-71635888D01*
X81210000Y-71635888D02*
X79808000Y-71635888D01*
X84678000Y-71675888D02*
X83290000Y-71675888D01*
X81210000Y-71675888D02*
X79822000Y-71675888D01*
X84664000Y-71715888D02*
X83290000Y-71715888D01*
X81210000Y-71715888D02*
X79836000Y-71715888D01*
X84648000Y-71755888D02*
X83290000Y-71755888D01*
X81210000Y-71755888D02*
X79852000Y-71755888D01*
X84632000Y-71795888D02*
X83290000Y-71795888D01*
X81210000Y-71795888D02*
X79868000Y-71795888D01*
X84615000Y-71835888D02*
X83290000Y-71835888D01*
X81210000Y-71835888D02*
X79885000Y-71835888D01*
X84598000Y-71875888D02*
X83290000Y-71875888D01*
X81210000Y-71875888D02*
X79902000Y-71875888D01*
X84579000Y-71915888D02*
X83290000Y-71915888D01*
X81210000Y-71915888D02*
X79921000Y-71915888D01*
X84560000Y-71955888D02*
X83290000Y-71955888D01*
X81210000Y-71955888D02*
X79940000Y-71955888D01*
X84540000Y-71995888D02*
X83290000Y-71995888D01*
X81210000Y-71995888D02*
X79960000Y-71995888D01*
X84518000Y-72035888D02*
X83290000Y-72035888D01*
X81210000Y-72035888D02*
X79982000Y-72035888D01*
X84497000Y-72075888D02*
X83290000Y-72075888D01*
X81210000Y-72075888D02*
X80003000Y-72075888D01*
X84474000Y-72115888D02*
X83290000Y-72115888D01*
X81210000Y-72115888D02*
X80026000Y-72115888D01*
X84450000Y-72155888D02*
X83290000Y-72155888D01*
X81210000Y-72155888D02*
X80050000Y-72155888D01*
X84425000Y-72195888D02*
X83290000Y-72195888D01*
X81210000Y-72195888D02*
X80075000Y-72195888D01*
X84399000Y-72235888D02*
X83290000Y-72235888D01*
X81210000Y-72235888D02*
X80101000Y-72235888D01*
X84372000Y-72275888D02*
X83290000Y-72275888D01*
X81210000Y-72275888D02*
X80128000Y-72275888D01*
X84345000Y-72315888D02*
X83290000Y-72315888D01*
X81210000Y-72315888D02*
X80155000Y-72315888D01*
X84315000Y-72355888D02*
X83290000Y-72355888D01*
X81210000Y-72355888D02*
X80185000Y-72355888D01*
X84285000Y-72395888D02*
X83290000Y-72395888D01*
X81210000Y-72395888D02*
X80215000Y-72395888D01*
X84254000Y-72435888D02*
X83290000Y-72435888D01*
X81210000Y-72435888D02*
X80246000Y-72435888D01*
X84221000Y-72475888D02*
X83290000Y-72475888D01*
X81210000Y-72475888D02*
X80279000Y-72475888D01*
X84187000Y-72515888D02*
X83290000Y-72515888D01*
X81210000Y-72515888D02*
X80313000Y-72515888D01*
X84151000Y-72555888D02*
X83290000Y-72555888D01*
X81210000Y-72555888D02*
X80349000Y-72555888D01*
X84114000Y-72595888D02*
X83290000Y-72595888D01*
X81210000Y-72595888D02*
X80386000Y-72595888D01*
X84076000Y-72635888D02*
X83290000Y-72635888D01*
X81210000Y-72635888D02*
X80424000Y-72635888D01*
X84035000Y-72675888D02*
X83290000Y-72675888D01*
X81210000Y-72675888D02*
X80465000Y-72675888D01*
X83993000Y-72715888D02*
X83290000Y-72715888D01*
X81210000Y-72715888D02*
X80507000Y-72715888D01*
X83949000Y-72755888D02*
X83290000Y-72755888D01*
X81210000Y-72755888D02*
X80551000Y-72755888D01*
X83903000Y-72795888D02*
X83290000Y-72795888D01*
X81210000Y-72795888D02*
X80597000Y-72795888D01*
X83855000Y-72835888D02*
X83290000Y-72835888D01*
X81210000Y-72835888D02*
X80645000Y-72835888D01*
X83804000Y-72875888D02*
X83290000Y-72875888D01*
X81210000Y-72875888D02*
X80696000Y-72875888D01*
X83750000Y-72915888D02*
X83290000Y-72915888D01*
X81210000Y-72915888D02*
X80750000Y-72915888D01*
X83693000Y-72955888D02*
X83290000Y-72955888D01*
X81210000Y-72955888D02*
X80807000Y-72955888D01*
X83633000Y-72995888D02*
X83290000Y-72995888D01*
X81210000Y-72995888D02*
X80867000Y-72995888D01*
X83569000Y-73035888D02*
X83290000Y-73035888D01*
X81210000Y-73035888D02*
X80931000Y-73035888D01*
X83501000Y-73075888D02*
X83290000Y-73075888D01*
X81210000Y-73075888D02*
X80999000Y-73075888D01*
X83428000Y-73115888D02*
X81072000Y-73115888D01*
X83348000Y-73155888D02*
X81152000Y-73155888D01*
X83261000Y-73195888D02*
X81239000Y-73195888D01*
X83165000Y-73235888D02*
X81335000Y-73235888D01*
X83055000Y-73275888D02*
X81445000Y-73275888D01*
X82927000Y-73315888D02*
X81573000Y-73315888D01*
X82768000Y-73355888D02*
X81732000Y-73355888D01*
X82534000Y-73395888D02*
X81966000Y-73395888D01*
X84870000Y-70794888D02*
G75*
G02*
X79630000Y-70794888I-2620000J0D01*
G01*
X79630000Y-70794888D02*
G75*
G02*
X84870000Y-70794888I2620000J0D01*
G01*
%TO.C,Y2*%
X59850000Y-60500000D02*
X59850000Y-64500000D01*
X63150000Y-60500000D02*
X59850000Y-60500000D01*
%TO.C,D1*%
X70541105Y-51983477D02*
X70541105Y-54003477D01*
X70541105Y-51983477D02*
X74301105Y-51983477D01*
X70541105Y-54003477D02*
X74301105Y-54003477D01*
%TO.C,R6*%
X74840000Y-70772936D02*
X74840000Y-72227064D01*
X76660000Y-70772936D02*
X76660000Y-72227064D01*
%TO.C,C20*%
X63142164Y-52140000D02*
X63357836Y-52140000D01*
X63142164Y-52860000D02*
X63357836Y-52860000D01*
%TO.C,JP1*%
X86600000Y-68300000D02*
X86600000Y-67700000D01*
X87300000Y-67000000D02*
X88700000Y-67000000D01*
X88700000Y-69000000D02*
X87300000Y-69000000D01*
X89400000Y-67700000D02*
X89400000Y-68300000D01*
X86600000Y-67700000D02*
G75*
G02*
X87300000Y-67000000I699999J1D01*
G01*
X87300000Y-69000000D02*
G75*
G02*
X86600000Y-68300000I-1J699999D01*
G01*
X88700000Y-67000000D02*
G75*
G02*
X89400000Y-67700000I0J-700000D01*
G01*
X89400000Y-68300000D02*
G75*
G02*
X88700000Y-69000000I-700000J0D01*
G01*
%TO.C,C1*%
X76109165Y-59390000D02*
X76324837Y-59390000D01*
X76109165Y-60110000D02*
X76324837Y-60110000D01*
%TO.C,J9*%
X92200000Y-53000000D02*
G75*
G02*
X88800000Y-53000000I-1700000J0D01*
G01*
X88800000Y-53000000D02*
G75*
G02*
X92200000Y-53000000I1700000J0D01*
G01*
%TO.C,JP2*%
X63250000Y-56700000D02*
X63250000Y-55300000D01*
X63950000Y-54600000D02*
X64550000Y-54600000D01*
X64550000Y-57400000D02*
X63950000Y-57400000D01*
X65250000Y-55300000D02*
X65250000Y-56700000D01*
X63250000Y-55300000D02*
G75*
G02*
X63950000Y-54600000I699999J1D01*
G01*
X63950000Y-57400000D02*
G75*
G02*
X63250000Y-56700000I0J700000D01*
G01*
X64550000Y-54600000D02*
G75*
G02*
X65250000Y-55300000I1J-699999D01*
G01*
X65250000Y-56700000D02*
G75*
G02*
X64550000Y-57400000I-700000J0D01*
G01*
%TO.C,C19*%
X67890000Y-70602973D02*
X67890000Y-70818645D01*
X68610000Y-70602973D02*
X68610000Y-70818645D01*
%TO.C,R4*%
X74774699Y-61475336D02*
X74774699Y-61782618D01*
X75534699Y-61475336D02*
X75534699Y-61782618D01*
%TO.C,J7*%
X84690000Y-58690000D02*
X84690000Y-60110000D01*
X84690000Y-60110000D02*
X89190000Y-60110000D01*
X84690000Y-64890000D02*
X89190000Y-64890000D01*
X84690000Y-66310000D02*
X84690000Y-64890000D01*
X86600000Y-63450000D02*
X87200000Y-63750000D01*
X86600000Y-64050000D02*
X86600000Y-63450000D01*
X87200000Y-63750000D02*
X86600000Y-64050000D01*
X90300000Y-61000000D02*
X90300000Y-61500000D01*
X90300000Y-61500000D02*
X95800000Y-61500000D01*
X90300000Y-63500000D02*
X90300000Y-64000000D01*
X90300000Y-64000000D02*
X95800000Y-64000000D01*
X95800000Y-61000000D02*
X90300000Y-61000000D01*
X95800000Y-61500000D02*
X95800000Y-61000000D01*
X95800000Y-63500000D02*
X90300000Y-63500000D01*
X95800000Y-64000000D02*
X95800000Y-63500000D01*
X96410000Y-58690000D02*
X84690000Y-58690000D01*
X96410000Y-62500000D02*
X96410000Y-58690000D01*
X96410000Y-62500000D02*
X96410000Y-66310000D01*
X96410000Y-66310000D02*
X84690000Y-66310000D01*
%TO.C,D2*%
X77015000Y-68015000D02*
X77015000Y-70300000D01*
X78485000Y-68015000D02*
X77015000Y-68015000D01*
X78485000Y-70300000D02*
X78485000Y-68015000D01*
D12*
%TO.C,H3*%
X61850000Y-49750000D02*
G75*
G02*
X58650000Y-49750000I-1600000J0D01*
G01*
X58650000Y-49750000D02*
G75*
G02*
X61850000Y-49750000I1600000J0D01*
G01*
D11*
%TO.C,U2*%
X62429524Y-66857558D02*
X60479524Y-66857558D01*
X62429524Y-66857558D02*
X64379524Y-66857558D01*
X62429524Y-71977558D02*
X60479524Y-71977558D01*
X62429524Y-71977558D02*
X64379524Y-71977558D01*
X65369524Y-72212558D02*
X64889524Y-72212558D01*
X65129524Y-71882558D01*
X65369524Y-72212558D01*
G36*
X65369524Y-72212558D02*
G01*
X64889524Y-72212558D01*
X65129524Y-71882558D01*
X65369524Y-72212558D01*
G37*
%TO.C,C5*%
X75762387Y-61997043D02*
X75762387Y-61781371D01*
X76482387Y-61997043D02*
X76482387Y-61781371D01*
%TO.C,C27*%
X75512443Y-56944035D02*
X75512443Y-57466539D01*
X76982443Y-56944035D02*
X76982443Y-57466539D01*
%TO.C,D4*%
X63515000Y-77265000D02*
X63515000Y-78735000D01*
X63515000Y-78735000D02*
X65800000Y-78735000D01*
X65800000Y-77265000D02*
X63515000Y-77265000D01*
%TO.C,C2*%
X63892164Y-72390000D02*
X64107836Y-72390000D01*
X63892164Y-73110000D02*
X64107836Y-73110000D01*
%TO.C,C13*%
X73712281Y-57428002D02*
X73496609Y-57428002D01*
X73712281Y-58148002D02*
X73496609Y-58148002D01*
%TO.C,C12*%
X63390000Y-58857836D02*
X63390000Y-58642164D01*
X64110000Y-58857836D02*
X64110000Y-58642164D01*
%TO.C,R9*%
X65346359Y-75120000D02*
X65653641Y-75120000D01*
X65346359Y-75880000D02*
X65653641Y-75880000D01*
%TO.C,C10*%
X84490000Y-62890580D02*
X84490000Y-62609420D01*
X85510000Y-62890580D02*
X85510000Y-62609420D01*
%TO.C,R2*%
X72870000Y-56403641D02*
X72870000Y-56096359D01*
X73630000Y-56403641D02*
X73630000Y-56096359D01*
%TO.C,FB3*%
X68964550Y-70119590D02*
X68964550Y-70445148D01*
X69984550Y-70119590D02*
X69984550Y-70445148D01*
%TO.C,SW1*%
X79150000Y-45150000D02*
X79150000Y-51350000D01*
X79610000Y-45150000D02*
X79150000Y-45150000D01*
X79610000Y-51350000D02*
X79150000Y-51350000D01*
X82390000Y-45150000D02*
X82390000Y-44150000D01*
X82850000Y-45150000D02*
X82390000Y-45150000D01*
X82850000Y-51350000D02*
X82390000Y-51350000D01*
X82850000Y-51350000D02*
X82850000Y-45150000D01*
X81550000Y-46750000D02*
X80500000Y-46750000D01*
X80500000Y-49600000D01*
X81550000Y-49600000D01*
X81550000Y-46750000D01*
%TO.C,C7*%
X83438037Y-67973273D02*
X83653709Y-67973273D01*
X83438037Y-67253273D02*
X83653709Y-67253273D01*
%TO.C,U3*%
X65890000Y-58390000D02*
X65890000Y-58840000D01*
X65890000Y-65610000D02*
X65890000Y-65160000D01*
X66340000Y-58390000D02*
X65890000Y-58390000D01*
X66340000Y-65610000D02*
X65890000Y-65610000D01*
X72660000Y-58390000D02*
X73110000Y-58390000D01*
X72660000Y-65610000D02*
X73110000Y-65610000D01*
X73110000Y-58390000D02*
X73110000Y-58840000D01*
X73110000Y-65610000D02*
X73110000Y-65160000D01*
X65300000Y-58840000D02*
X64960000Y-58370000D01*
X65640000Y-58370000D01*
X65300000Y-58840000D01*
G36*
X65300000Y-58840000D02*
G01*
X64960000Y-58370000D01*
X65640000Y-58370000D01*
X65300000Y-58840000D01*
G37*
%TO.C,L2*%
X77390000Y-52883821D02*
X77390000Y-54333821D01*
X77390000Y-58803821D02*
X77390000Y-57353821D01*
X83610000Y-52883821D02*
X77390000Y-52883821D01*
X83610000Y-52883821D02*
X83610000Y-54333821D01*
X83610000Y-58803821D02*
X77390000Y-58803821D01*
X83610000Y-58803821D02*
X83610000Y-57353821D01*
%TO.C,C26*%
X83940000Y-56985985D02*
X83940000Y-57201657D01*
X84660000Y-56985985D02*
X84660000Y-57201657D01*
D12*
%TO.C,H4*%
X61850000Y-75750000D02*
G75*
G02*
X58650000Y-75750000I-1600000J0D01*
G01*
X58650000Y-75750000D02*
G75*
G02*
X61850000Y-75750000I1600000J0D01*
G01*
D11*
%TO.C,C21*%
X71142164Y-68963632D02*
X71357836Y-68963632D01*
X71142164Y-69683632D02*
X71357836Y-69683632D01*
D12*
%TO.C,H2*%
X87850000Y-75750000D02*
G75*
G02*
X84650000Y-75750000I-1600000J0D01*
G01*
X84650000Y-75750000D02*
G75*
G02*
X87850000Y-75750000I1600000J0D01*
G01*
D11*
%TO.C,J2*%
X57700000Y-53000000D02*
G75*
G02*
X54300000Y-53000000I-1700000J0D01*
G01*
X54300000Y-53000000D02*
G75*
G02*
X57700000Y-53000000I1700000J0D01*
G01*
%TO.C,J3*%
X92200000Y-72500000D02*
G75*
G02*
X88800000Y-72500000I-1700000J0D01*
G01*
X88800000Y-72500000D02*
G75*
G02*
X92200000Y-72500000I1700000J0D01*
G01*
%TO.C,J1*%
X50090000Y-58681432D02*
X61810000Y-58681432D01*
X50090000Y-62491432D02*
X50090000Y-58681432D01*
X50090000Y-62491432D02*
X50090000Y-66301432D01*
X50090000Y-66301432D02*
X61810000Y-66301432D01*
X50700000Y-60991432D02*
X50700000Y-61491432D01*
X50700000Y-61491432D02*
X56200000Y-61491432D01*
X50700000Y-63491432D02*
X50700000Y-63991432D01*
X50700000Y-63991432D02*
X56200000Y-63991432D01*
X56200000Y-60991432D02*
X50700000Y-60991432D01*
X56200000Y-61491432D02*
X56200000Y-60991432D01*
X56200000Y-63491432D02*
X50700000Y-63491432D01*
X56200000Y-63991432D02*
X56200000Y-63491432D01*
X59300000Y-61241432D02*
X59900000Y-60941432D01*
X59900000Y-60941432D02*
X59900000Y-61541432D01*
X59900000Y-61541432D02*
X59300000Y-61241432D01*
X61810000Y-58681432D02*
X61810000Y-60101432D01*
X61810000Y-60101432D02*
X57310000Y-60101432D01*
X61810000Y-64881432D02*
X57310000Y-64881432D01*
X61810000Y-66301432D02*
X61810000Y-64881432D01*
%TO.C,C6*%
X83373518Y-63872643D02*
X83373518Y-63656971D01*
X84093518Y-63872643D02*
X84093518Y-63656971D01*
%TO.C,R7*%
X77096359Y-50870000D02*
X77403641Y-50870000D01*
X77096359Y-51630000D02*
X77403641Y-51630000D01*
%TO.C,R5*%
X82006371Y-76558617D02*
X82006371Y-75104489D01*
X80186371Y-76558617D02*
X80186371Y-75104489D01*
%TO.C,C3*%
X63390000Y-60857836D02*
X63390000Y-60642164D01*
X64110000Y-60857836D02*
X64110000Y-60642164D01*
%TO.C,J8*%
X57700000Y-72500000D02*
G75*
G02*
X54300000Y-72500000I-1700000J0D01*
G01*
X54300000Y-72500000D02*
G75*
G02*
X57700000Y-72500000I1700000J0D01*
G01*
%TO.C,C18*%
X67890000Y-68904405D02*
X67890000Y-68688733D01*
X68610000Y-68904405D02*
X68610000Y-68688733D01*
%TO.C,U5*%
X86872502Y-55033821D02*
X86072502Y-55033821D01*
X86872502Y-55033821D02*
X87672502Y-55033821D01*
X86872502Y-58153821D02*
X86072502Y-58153821D01*
X86872502Y-58153821D02*
X87672502Y-58153821D01*
X88412502Y-58433821D02*
X87932502Y-58433821D01*
X88172502Y-58103821D01*
X88412502Y-58433821D01*
G36*
X88412502Y-58433821D02*
G01*
X87932502Y-58433821D01*
X88172502Y-58103821D01*
X88412502Y-58433821D01*
G37*
%TO.C,R11*%
X89870000Y-67903641D02*
X89870000Y-67596359D01*
X90630000Y-67903641D02*
X90630000Y-67596359D01*
%TO.C,J10*%
X68780000Y-42041250D02*
X68780000Y-43501250D01*
X68780000Y-42041250D02*
X77720000Y-42041250D01*
X68780000Y-47551250D02*
X68780000Y-45751250D01*
X77720000Y-42041250D02*
X77720000Y-43501250D01*
X77720000Y-47551250D02*
X77720000Y-45751250D01*
%TO.C,R8*%
X69153641Y-51620000D02*
X68846359Y-51620000D01*
X69153641Y-52380000D02*
X68846359Y-52380000D01*
%TO.C,R1*%
X78346359Y-51870000D02*
X78653641Y-51870000D01*
X78346359Y-52630000D02*
X78653641Y-52630000D01*
D12*
%TO.C,H1*%
X87850000Y-49750000D02*
G75*
G02*
X84650000Y-49750000I-1600000J0D01*
G01*
X84650000Y-49750000D02*
G75*
G02*
X87850000Y-49750000I1600000J0D01*
G01*
D11*
%TO.C,C23*%
X83390000Y-44877836D02*
X83390000Y-44662164D01*
X84110000Y-44877836D02*
X84110000Y-44662164D01*
%TO.C,C17*%
X70116592Y-67936569D02*
X69900920Y-67936569D01*
X70116592Y-68656569D02*
X69900920Y-68656569D01*
%TO.C,C15*%
X66859420Y-54532142D02*
X67140580Y-54532142D01*
X66859420Y-55552142D02*
X67140580Y-55552142D01*
%TO.C,J4*%
X66940000Y-72740000D02*
X68360000Y-72740000D01*
X66940000Y-84460000D02*
X66940000Y-72740000D01*
X68360000Y-72740000D02*
X68360000Y-77240000D01*
X69200000Y-74650000D02*
X69800000Y-74650000D01*
X69250000Y-78350000D02*
X69250000Y-83850000D01*
X69250000Y-83850000D02*
X69750000Y-83850000D01*
X69500000Y-75250000D02*
X69200000Y-74650000D01*
X69750000Y-78350000D02*
X69250000Y-78350000D01*
X69750000Y-83850000D02*
X69750000Y-78350000D01*
X69800000Y-74650000D02*
X69500000Y-75250000D01*
X71750000Y-78350000D02*
X71750000Y-83850000D01*
X71750000Y-83850000D02*
X72250000Y-83850000D01*
X72250000Y-78350000D02*
X71750000Y-78350000D01*
X72250000Y-83850000D02*
X72250000Y-78350000D01*
X73250000Y-84460000D02*
X66940000Y-84460000D01*
X73250000Y-84460000D02*
X79560000Y-84460000D01*
X74250000Y-78350000D02*
X74250000Y-83850000D01*
X74250000Y-83850000D02*
X74750000Y-83850000D01*
X74750000Y-78350000D02*
X74250000Y-78350000D01*
X74750000Y-83850000D02*
X74750000Y-78350000D01*
X76750000Y-78350000D02*
X76750000Y-83850000D01*
X76750000Y-83850000D02*
X77250000Y-83850000D01*
X77250000Y-78350000D02*
X76750000Y-78350000D01*
X77250000Y-83850000D02*
X77250000Y-78350000D01*
X78140000Y-72740000D02*
X78140000Y-77240000D01*
X79560000Y-72740000D02*
X78140000Y-72740000D01*
X79560000Y-84460000D02*
X79560000Y-72740000D01*
%TO.C,R3*%
X68870000Y-54674203D02*
X68870000Y-54366921D01*
X69630000Y-54674203D02*
X69630000Y-54366921D01*
%TO.C,J5*%
X70006028Y-72690000D02*
X70006028Y-74810000D01*
X72066028Y-72690000D02*
X70006028Y-72690000D01*
X72066028Y-72690000D02*
X72066028Y-74810000D01*
X72066028Y-74810000D02*
X70006028Y-74810000D01*
X73066028Y-72690000D02*
X74126028Y-72690000D01*
X74126028Y-72690000D02*
X74126028Y-73750000D01*
%TO.C,C9*%
X76107836Y-68390000D02*
X75892164Y-68390000D01*
X76107836Y-69110000D02*
X75892164Y-69110000D01*
%TO.C,C14*%
X72366592Y-67936569D02*
X72150920Y-67936569D01*
X72366592Y-68656569D02*
X72150920Y-68656569D01*
%TO.C,D3*%
X63515000Y-73515000D02*
X63515000Y-74985000D01*
X63515000Y-74985000D02*
X65800000Y-74985000D01*
X65800000Y-73515000D02*
X63515000Y-73515000D01*
%TO.C,C4*%
X63390000Y-63412164D02*
X63390000Y-63627836D01*
X64110000Y-63412164D02*
X64110000Y-63627836D01*
%TO.C,C11*%
X82855259Y-59558608D02*
X82574099Y-59558608D01*
X82855259Y-60578608D02*
X82574099Y-60578608D01*
%TO.C,C16*%
X66630344Y-55892997D02*
X66846016Y-55892997D01*
X66630344Y-56612997D02*
X66846016Y-56612997D01*
%TO.C,SW2*%
X63650000Y-45150000D02*
X63650000Y-51350000D01*
X64110000Y-45150000D02*
X63650000Y-45150000D01*
X64110000Y-51350000D02*
X63650000Y-51350000D01*
X66890000Y-45150000D02*
X66890000Y-44150000D01*
X67350000Y-45150000D02*
X66890000Y-45150000D01*
X67350000Y-51350000D02*
X66890000Y-51350000D01*
X67350000Y-51350000D02*
X67350000Y-45150000D01*
X66050000Y-46750000D02*
X65000000Y-46750000D01*
X65000000Y-49600000D01*
X66050000Y-49600000D01*
X66050000Y-46750000D01*
%TO.C,R10*%
X65408211Y-78866079D02*
X65715493Y-78866079D01*
X65408211Y-79626079D02*
X65715493Y-79626079D01*
%TO.C,C22*%
X71061137Y-69927561D02*
X71276809Y-69927561D01*
X71061137Y-70647561D02*
X71276809Y-70647561D01*
%TO.C,C25*%
X89240000Y-56359420D02*
X89240000Y-56640580D01*
X90260000Y-56359420D02*
X90260000Y-56640580D01*
%TO.C,C28*%
X75515000Y-53488748D02*
X75515000Y-54011252D01*
X76985000Y-53488748D02*
X76985000Y-54011252D01*
%TO.C,R12*%
X62120000Y-56903641D02*
X62120000Y-56596359D01*
X62880000Y-56903641D02*
X62880000Y-56596359D01*
D13*
%TO.C,IC2*%
X82775000Y-66250000D02*
G75*
G02*
X82525000Y-66250000I-125000J0D01*
G01*
X82525000Y-66250000D02*
G75*
G02*
X82775000Y-66250000I125000J0D01*
G01*
D14*
%TO.C,G\u002A\u002A\u002A*%
G36*
X59611616Y-55334445D02*
G01*
X59632578Y-55354884D01*
X59659474Y-55385512D01*
X59688110Y-55421135D01*
X59714289Y-55456558D01*
X59733816Y-55486585D01*
X59742185Y-55504491D01*
X59744508Y-55530452D01*
X59734210Y-55535831D01*
X59712731Y-55520808D01*
X59691783Y-55498213D01*
X59670493Y-55469235D01*
X59647309Y-55432168D01*
X59625635Y-55393329D01*
X59608878Y-55359035D01*
X59600441Y-55335602D01*
X59600783Y-55329391D01*
X59611616Y-55334445D01*
G37*
G36*
X61321177Y-56301585D02*
G01*
X61324297Y-56333711D01*
X61326478Y-56381512D01*
X61327426Y-56440290D01*
X61327443Y-56449797D01*
X61327135Y-56516293D01*
X61325785Y-56562168D01*
X61322758Y-56591871D01*
X61317421Y-56609853D01*
X61309136Y-56620563D01*
X61302369Y-56625422D01*
X61292093Y-56630913D01*
X61285095Y-56629818D01*
X61280745Y-56618499D01*
X61278415Y-56593318D01*
X61277475Y-56550639D01*
X61277296Y-56486823D01*
X61277295Y-56480501D01*
X61278268Y-56405200D01*
X61281636Y-56351712D01*
X61288073Y-56316836D01*
X61298251Y-56297370D01*
X61312846Y-56290114D01*
X61317414Y-56289832D01*
X61321177Y-56301585D01*
G37*
G36*
X59726494Y-54776569D02*
G01*
X59758578Y-54789208D01*
X59772088Y-54799905D01*
X59798051Y-54832340D01*
X59823386Y-54877285D01*
X59844232Y-54926043D01*
X59856730Y-54969916D01*
X59858326Y-54994181D01*
X59854344Y-55027765D01*
X59833900Y-54984934D01*
X59810431Y-54945383D01*
X59778344Y-54903412D01*
X59742973Y-54864788D01*
X59709652Y-54835283D01*
X59683715Y-54820665D01*
X59681623Y-54820226D01*
X59653948Y-54820468D01*
X59613037Y-54825871D01*
X59584798Y-54831488D01*
X59538396Y-54841758D01*
X59511969Y-54846332D01*
X59501109Y-54845360D01*
X59501407Y-54838992D01*
X59504114Y-54834232D01*
X59526835Y-54814977D01*
X59566378Y-54796602D01*
X59614565Y-54781954D01*
X59663222Y-54773879D01*
X59679596Y-54773128D01*
X59726494Y-54776569D01*
G37*
G36*
X61311294Y-54912884D02*
G01*
X61314212Y-54939148D01*
X61315012Y-54985772D01*
X61315015Y-54987775D01*
X61316180Y-55044830D01*
X61319109Y-55102214D01*
X61322716Y-55143178D01*
X61330308Y-55206347D01*
X61154242Y-55340636D01*
X61097083Y-55384009D01*
X61047050Y-55421549D01*
X61007437Y-55450820D01*
X60981540Y-55469383D01*
X60972727Y-55474926D01*
X60965398Y-55464370D01*
X60949803Y-55435810D01*
X60928406Y-55393902D01*
X60909158Y-55354707D01*
X60885304Y-55304559D01*
X60866193Y-55262848D01*
X60854112Y-55234658D01*
X60851037Y-55225380D01*
X60860704Y-55215769D01*
X60887307Y-55194383D01*
X60927246Y-55163835D01*
X60976920Y-55126740D01*
X61032730Y-55085709D01*
X61091076Y-55043357D01*
X61148358Y-55002297D01*
X61200977Y-54965141D01*
X61245331Y-54934504D01*
X61277823Y-54912998D01*
X61294747Y-54903276D01*
X61305168Y-54902440D01*
X61311294Y-54912884D01*
G37*
G36*
X59627255Y-54867075D02*
G01*
X59663286Y-54882352D01*
X59680883Y-54891346D01*
X59749817Y-54936317D01*
X59797028Y-54988818D01*
X59824676Y-55049313D01*
X59833765Y-55086777D01*
X59830639Y-55104542D01*
X59813208Y-55105848D01*
X59792527Y-55099145D01*
X59748313Y-55092049D01*
X59707054Y-55101613D01*
X59684073Y-55118851D01*
X59664062Y-55134299D01*
X59643451Y-55129367D01*
X59618665Y-55102696D01*
X59610256Y-55090806D01*
X59584101Y-55048016D01*
X59559727Y-55001428D01*
X59556339Y-54994077D01*
X59546372Y-54974766D01*
X59635069Y-54974766D01*
X59638235Y-54992406D01*
X59654462Y-55020803D01*
X59678226Y-55040388D01*
X59708095Y-55048608D01*
X59733761Y-55043647D01*
X59741511Y-55036130D01*
X59737592Y-55026336D01*
X59722846Y-55023593D01*
X59696821Y-55014793D01*
X59668475Y-54993317D01*
X59665690Y-54990420D01*
X59644661Y-54972911D01*
X59635069Y-54974766D01*
X59546372Y-54974766D01*
X59539101Y-54960679D01*
X59536261Y-54956601D01*
X59687237Y-54956601D01*
X59687559Y-54970164D01*
X59693452Y-54977624D01*
X59710747Y-54985701D01*
X59722189Y-54978450D01*
X59722705Y-54974786D01*
X59712728Y-54961081D01*
X59703900Y-54956374D01*
X59687237Y-54956601D01*
X59536261Y-54956601D01*
X59523018Y-54937585D01*
X59518344Y-54933404D01*
X59510063Y-54917566D01*
X59520752Y-54897487D01*
X59546153Y-54878359D01*
X59572172Y-54867797D01*
X59599871Y-54862870D01*
X59627255Y-54867075D01*
G37*
G36*
X61908278Y-53689799D02*
G01*
X61945006Y-53711819D01*
X61997110Y-53746725D01*
X62062555Y-53793047D01*
X62139304Y-53849315D01*
X62225318Y-53914062D01*
X62318563Y-53985817D01*
X62415030Y-54061549D01*
X62556071Y-54173343D01*
X62555704Y-54507575D01*
X62555337Y-54841806D01*
X62446005Y-54963012D01*
X62404154Y-55008418D01*
X62367595Y-55046241D01*
X62339889Y-55072928D01*
X62324594Y-55084926D01*
X62323510Y-55085248D01*
X62303972Y-55078212D01*
X62295301Y-55071234D01*
X62282071Y-55052145D01*
X62280257Y-55045040D01*
X62288360Y-55032104D01*
X62310468Y-55004907D01*
X62343279Y-54967332D01*
X62383493Y-54923262D01*
X62386822Y-54919690D01*
X62493386Y-54805488D01*
X62493386Y-54508579D01*
X62493386Y-54211671D01*
X62308465Y-54068067D01*
X62230772Y-54008178D01*
X62154745Y-53950393D01*
X62083064Y-53896675D01*
X62018408Y-53848986D01*
X61963459Y-53809289D01*
X61920895Y-53779547D01*
X61893398Y-53761723D01*
X61884196Y-53757354D01*
X61871625Y-53763276D01*
X61840308Y-53779924D01*
X61793292Y-53805622D01*
X61733623Y-53838696D01*
X61664349Y-53877470D01*
X61607383Y-53909588D01*
X61523530Y-53956846D01*
X61458696Y-53992826D01*
X61410167Y-54018758D01*
X61375233Y-54035876D01*
X61351181Y-54045410D01*
X61335300Y-54048593D01*
X61324878Y-54046657D01*
X61317591Y-54041226D01*
X61304019Y-54023332D01*
X61309798Y-54008799D01*
X61315354Y-54003199D01*
X61332466Y-53991101D01*
X61367265Y-53969568D01*
X61416122Y-53940632D01*
X61475406Y-53906323D01*
X61541487Y-53868675D01*
X61610735Y-53829718D01*
X61679521Y-53791485D01*
X61744215Y-53756007D01*
X61801186Y-53725316D01*
X61846805Y-53701445D01*
X61877441Y-53686424D01*
X61888965Y-53682132D01*
X61908278Y-53689799D01*
G37*
G36*
X62076041Y-54084507D02*
G01*
X62136095Y-54130300D01*
X62192153Y-54173534D01*
X62239860Y-54210813D01*
X62274863Y-54238745D01*
X62289260Y-54250731D01*
X62330405Y-54286506D01*
X62330405Y-54534223D01*
X62330405Y-54781939D01*
X62234024Y-54887095D01*
X62152344Y-54975803D01*
X62076080Y-55057835D01*
X62006915Y-55131436D01*
X61946532Y-55194850D01*
X61896615Y-55246319D01*
X61858845Y-55284088D01*
X61834907Y-55306401D01*
X61826911Y-55311944D01*
X61824695Y-55299834D01*
X61822637Y-55265210D01*
X61820788Y-55210631D01*
X61819198Y-55138656D01*
X61817916Y-55051847D01*
X61816993Y-54952762D01*
X61816479Y-54843960D01*
X61816387Y-54772853D01*
X61816598Y-54659337D01*
X61817202Y-54553967D01*
X61818154Y-54459302D01*
X61819409Y-54377897D01*
X61820923Y-54312311D01*
X61822651Y-54265099D01*
X61824549Y-54238819D01*
X61825790Y-54234160D01*
X61842352Y-54241302D01*
X61857133Y-54251213D01*
X61864672Y-54259177D01*
X61870276Y-54272288D01*
X61874224Y-54293957D01*
X61876797Y-54327598D01*
X61878276Y-54376621D01*
X61878939Y-54444441D01*
X61879072Y-54518367D01*
X61879581Y-54628070D01*
X61881029Y-54734060D01*
X61883295Y-54833571D01*
X61886260Y-54923839D01*
X61889803Y-55002098D01*
X61893806Y-55065584D01*
X61898147Y-55111531D01*
X61902708Y-55137173D01*
X61906084Y-55141497D01*
X61908627Y-55127834D01*
X61910951Y-55092085D01*
X61912980Y-55037234D01*
X61914640Y-54966270D01*
X61915854Y-54882178D01*
X61916548Y-54787945D01*
X61916683Y-54721965D01*
X61916968Y-54623056D01*
X61917775Y-54532643D01*
X61919036Y-54453651D01*
X61920682Y-54389004D01*
X61922643Y-54341626D01*
X61924851Y-54314442D01*
X61926431Y-54308983D01*
X61943011Y-54315511D01*
X61964042Y-54328499D01*
X61972278Y-54334830D01*
X61978707Y-54342863D01*
X61983552Y-54355518D01*
X61987038Y-54375718D01*
X61989387Y-54406386D01*
X61990825Y-54450442D01*
X61991575Y-54510808D01*
X61991860Y-54590407D01*
X61991905Y-54692073D01*
X61992233Y-54781950D01*
X61993158Y-54862988D01*
X61994593Y-54931997D01*
X61996450Y-54985787D01*
X61998643Y-55021167D01*
X62001082Y-55034948D01*
X62001308Y-55035020D01*
X62012612Y-55025789D01*
X62037360Y-55001148D01*
X62072340Y-54964428D01*
X62114341Y-54918963D01*
X62133234Y-54898136D01*
X62255756Y-54762363D01*
X62252335Y-54532538D01*
X62248914Y-54302714D01*
X62079665Y-54174381D01*
X62022719Y-54131909D01*
X61971923Y-54095351D01*
X61930924Y-54067225D01*
X61903367Y-54050053D01*
X61893720Y-54045877D01*
X61876429Y-54051630D01*
X61842692Y-54067322D01*
X61797794Y-54090381D01*
X61758961Y-54111525D01*
X61640897Y-54177344D01*
X61640883Y-54248692D01*
X61639136Y-54288620D01*
X61634637Y-54317311D01*
X61630154Y-54326662D01*
X61615194Y-54323126D01*
X61593415Y-54305554D01*
X61591834Y-54303899D01*
X61574975Y-54280587D01*
X61567834Y-54252147D01*
X61568018Y-54208930D01*
X61568071Y-54208004D01*
X61571915Y-54141494D01*
X61678480Y-54080229D01*
X61732762Y-54049208D01*
X61786553Y-54018779D01*
X61831048Y-53993915D01*
X61844506Y-53986511D01*
X61903967Y-53954059D01*
X62076041Y-54084507D01*
G37*
G36*
X60550148Y-53730502D02*
G01*
X60551804Y-53763612D01*
X60559393Y-53778615D01*
X60576852Y-53782401D01*
X60579816Y-53782428D01*
X60603348Y-53784788D01*
X60645830Y-53791181D01*
X60701653Y-53800575D01*
X60765208Y-53811941D01*
X60830889Y-53824248D01*
X60893086Y-53836464D01*
X60946192Y-53847560D01*
X60984598Y-53856504D01*
X60988588Y-53857555D01*
X61029754Y-53875604D01*
X61085247Y-53910641D01*
X61152801Y-53960856D01*
X61230149Y-54024441D01*
X61315025Y-54099585D01*
X61405161Y-54184479D01*
X61436265Y-54214909D01*
X61614040Y-54390474D01*
X61635639Y-54841806D01*
X61657239Y-55293139D01*
X61617413Y-55418509D01*
X61600214Y-55472696D01*
X61585450Y-55519294D01*
X61575035Y-55552255D01*
X61571368Y-55563942D01*
X61577773Y-55585362D01*
X61607901Y-55613394D01*
X61617549Y-55620317D01*
X61669950Y-55656631D01*
X61954505Y-55364063D01*
X62239060Y-55071496D01*
X62265927Y-55105652D01*
X62278157Y-55124029D01*
X62286037Y-55145575D01*
X62290488Y-55176022D01*
X62292429Y-55221100D01*
X62292794Y-55272984D01*
X62292794Y-55406160D01*
X61982503Y-55715604D01*
X61672211Y-56025048D01*
X61510470Y-55912176D01*
X61448533Y-55869380D01*
X61403623Y-55839687D01*
X61372525Y-55821406D01*
X61352024Y-55812843D01*
X61338905Y-55812305D01*
X61330580Y-55817453D01*
X61319333Y-55833662D01*
X61323749Y-55851929D01*
X61332074Y-55865582D01*
X61341659Y-55887305D01*
X61355897Y-55928691D01*
X61373335Y-55985084D01*
X61392519Y-56051826D01*
X61407837Y-56108368D01*
X61428564Y-56186856D01*
X61449347Y-56265360D01*
X61468399Y-56337152D01*
X61483937Y-56395502D01*
X61490887Y-56421471D01*
X61517816Y-56521767D01*
X61424421Y-56694781D01*
X61331025Y-56867794D01*
X61181924Y-56954541D01*
X61126680Y-56986177D01*
X61078802Y-57012650D01*
X61042621Y-57031633D01*
X61022467Y-57040805D01*
X61020287Y-57041298D01*
X61009608Y-57031001D01*
X60989768Y-57002950D01*
X60963589Y-56961413D01*
X60933891Y-56910662D01*
X60933541Y-56910042D01*
X60904117Y-56859265D01*
X60878621Y-56817625D01*
X60859755Y-56789378D01*
X60850224Y-56778779D01*
X60850161Y-56778776D01*
X60841681Y-56789671D01*
X60832011Y-56816742D01*
X60829659Y-56825789D01*
X60818327Y-56872803D01*
X60684238Y-56869826D01*
X60550148Y-56866849D01*
X60549931Y-56932511D01*
X60539755Y-57050197D01*
X60511227Y-57161118D01*
X60466155Y-57261748D01*
X60406346Y-57348556D01*
X60333608Y-57418016D01*
X60285058Y-57449595D01*
X60251756Y-57466602D01*
X60221557Y-57477674D01*
X60187187Y-57484282D01*
X60141374Y-57487895D01*
X60086279Y-57489752D01*
X59984305Y-57488476D01*
X59905752Y-57478928D01*
X59885686Y-57474168D01*
X59801361Y-57441427D01*
X59735933Y-57395422D01*
X59690748Y-57337798D01*
X59667155Y-57270200D01*
X59665194Y-57205034D01*
X59670337Y-57159883D01*
X59675782Y-57120417D01*
X59678480Y-57104738D01*
X59678560Y-57082920D01*
X59665842Y-57062983D01*
X59635913Y-57038384D01*
X59631651Y-57035306D01*
X59575748Y-56980300D01*
X59530328Y-56903635D01*
X59495807Y-56806618D01*
X59472602Y-56690555D01*
X59461130Y-56556751D01*
X59459913Y-56496693D01*
X59459943Y-56495381D01*
X59515687Y-56495381D01*
X59519438Y-56608833D01*
X59532023Y-56714792D01*
X59553155Y-56808970D01*
X59582550Y-56887079D01*
X59612406Y-56935862D01*
X59645478Y-56970203D01*
X59682002Y-56996436D01*
X59716341Y-57011763D01*
X59742858Y-57013385D01*
X59753224Y-57005774D01*
X59753346Y-56987851D01*
X59744763Y-56958040D01*
X59742220Y-56951656D01*
X59732044Y-56918929D01*
X59721075Y-56870466D01*
X59711330Y-56815448D01*
X59709336Y-56801851D01*
X59706945Y-56761690D01*
X59763809Y-56761690D01*
X59768344Y-56843618D01*
X59778082Y-56904377D01*
X59792830Y-56942886D01*
X59812400Y-56958063D01*
X59817335Y-56958163D01*
X59844480Y-56960663D01*
X59881630Y-56969852D01*
X59891955Y-56973236D01*
X59951308Y-56988935D01*
X59994302Y-56988212D01*
X60023685Y-56970884D01*
X60029151Y-56964041D01*
X60044898Y-56921811D01*
X60047982Y-56858811D01*
X60038519Y-56775845D01*
X60016625Y-56673714D01*
X59982418Y-56553223D01*
X59958857Y-56480772D01*
X59936235Y-56415678D01*
X59918799Y-56370837D01*
X59904643Y-56342449D01*
X59891866Y-56326717D01*
X59878565Y-56319842D01*
X59878187Y-56319745D01*
X59854227Y-56316514D01*
X59836519Y-56323673D01*
X59821558Y-56345222D01*
X59805837Y-56385164D01*
X59796814Y-56412598D01*
X59783019Y-56464842D01*
X59773479Y-56524495D01*
X59767340Y-56598117D01*
X59764667Y-56659674D01*
X59763809Y-56761690D01*
X59706945Y-56761690D01*
X59701400Y-56668576D01*
X59714440Y-56529017D01*
X59748777Y-56380714D01*
X59774083Y-56302369D01*
X59799425Y-56229990D01*
X59817107Y-56177284D01*
X59827611Y-56140205D01*
X59831418Y-56114713D01*
X59829010Y-56096761D01*
X59820867Y-56082308D01*
X59807472Y-56067310D01*
X59802670Y-56062277D01*
X59744931Y-56014435D01*
X59686302Y-55991256D01*
X59660965Y-55988943D01*
X59636990Y-55992863D01*
X59617302Y-56006978D01*
X59599731Y-56034823D01*
X59582108Y-56079931D01*
X59562263Y-56145837D01*
X59560286Y-56152938D01*
X59535825Y-56263146D01*
X59521054Y-56378723D01*
X59515687Y-56495381D01*
X59459943Y-56495381D01*
X59461452Y-56430490D01*
X59465975Y-56359179D01*
X59472813Y-56288300D01*
X59481296Y-56223394D01*
X59490759Y-56170002D01*
X59500531Y-56133664D01*
X59504814Y-56124413D01*
X59510080Y-56104503D01*
X59514496Y-56067473D01*
X59517119Y-56021279D01*
X59517141Y-56020520D01*
X59519601Y-55971150D01*
X59523596Y-55927842D01*
X59528022Y-55901114D01*
X59529920Y-55879345D01*
X59519238Y-55860046D01*
X59491714Y-55836118D01*
X59486726Y-55832335D01*
X59449912Y-55800336D01*
X59417199Y-55764932D01*
X59408805Y-55753746D01*
X59380558Y-55712523D01*
X59359043Y-55776076D01*
X59320720Y-55857050D01*
X59268341Y-55920003D01*
X59204859Y-55963579D01*
X59133229Y-55986423D01*
X59056404Y-55987181D01*
X58977338Y-55964496D01*
X58962982Y-55957762D01*
X58872621Y-55901385D01*
X58780251Y-55822062D01*
X58687381Y-55721672D01*
X58595523Y-55602094D01*
X58506186Y-55465208D01*
X58420880Y-55312892D01*
X58381517Y-55234247D01*
X58320725Y-55101818D01*
X58274172Y-54984734D01*
X58240738Y-54878519D01*
X58219306Y-54778698D01*
X58208755Y-54680794D01*
X58207966Y-54580332D01*
X58208423Y-54570960D01*
X58275359Y-54570960D01*
X58278366Y-54688826D01*
X58280635Y-54708155D01*
X58305755Y-54835586D01*
X58347784Y-54973922D01*
X58404206Y-55118213D01*
X58472507Y-55263510D01*
X58550168Y-55404863D01*
X58634675Y-55537323D01*
X58723512Y-55655941D01*
X58812188Y-55753828D01*
X58896369Y-55829477D01*
X58972388Y-55882202D01*
X59041374Y-55912368D01*
X59104455Y-55920342D01*
X59162759Y-55906489D01*
X59205074Y-55881204D01*
X59238729Y-55851171D01*
X59264087Y-55816680D01*
X59282342Y-55773729D01*
X59294693Y-55718313D01*
X59302334Y-55646429D01*
X59306461Y-55554075D01*
X59306793Y-55540745D01*
X59307708Y-55470519D01*
X59307036Y-55413175D01*
X59304907Y-55372298D01*
X59301455Y-55351470D01*
X59299757Y-55349556D01*
X59282481Y-55358998D01*
X59258736Y-55382456D01*
X59235251Y-55412622D01*
X59223055Y-55432862D01*
X59214035Y-55460018D01*
X59205467Y-55501458D01*
X59201009Y-55533158D01*
X59193447Y-55588631D01*
X59185118Y-55619913D01*
X59174793Y-55627886D01*
X59161242Y-55613430D01*
X59143236Y-55577424D01*
X59142261Y-55575222D01*
X59121859Y-55523039D01*
X59101969Y-55462787D01*
X59091744Y-55426238D01*
X59080690Y-55384601D01*
X59071408Y-55353734D01*
X59066120Y-55340716D01*
X59062269Y-55341920D01*
X59057678Y-55355080D01*
X59051669Y-55383398D01*
X59043565Y-55430078D01*
X59032688Y-55498321D01*
X59032427Y-55500000D01*
X59021857Y-55561422D01*
X59012453Y-55599886D01*
X59003271Y-55617418D01*
X58993373Y-55616044D01*
X58984548Y-55603149D01*
X58966665Y-55557948D01*
X58950049Y-55494619D01*
X58935948Y-55420106D01*
X58925609Y-55341356D01*
X58920281Y-55265313D01*
X58919840Y-55242991D01*
X58919168Y-55117621D01*
X58889999Y-55174037D01*
X58872510Y-55212533D01*
X58851580Y-55265437D01*
X58830952Y-55323134D01*
X58825128Y-55340724D01*
X58806766Y-55393432D01*
X58792857Y-55422995D01*
X58782852Y-55429035D01*
X58776201Y-55411180D01*
X58772354Y-55369052D01*
X58770773Y-55303645D01*
X58775514Y-55204067D01*
X58790079Y-55099762D01*
X58812574Y-55002544D01*
X58825552Y-54962087D01*
X58836186Y-54928439D01*
X58840609Y-54905902D01*
X58839894Y-54901361D01*
X58828468Y-54906021D01*
X58806006Y-54925827D01*
X58776783Y-54956070D01*
X58745072Y-54992036D01*
X58715147Y-55029017D01*
X58691283Y-55062299D01*
X58685602Y-55071437D01*
X58663914Y-55103240D01*
X58647798Y-55114345D01*
X58636682Y-55103820D01*
X58629992Y-55070735D01*
X58627155Y-55014158D01*
X58627005Y-54976232D01*
X58629488Y-54902425D01*
X58630800Y-54891986D01*
X59386708Y-54891986D01*
X59392326Y-54949545D01*
X59408122Y-55010372D01*
X59434871Y-55079316D01*
X59473346Y-55161229D01*
X59509693Y-55232800D01*
X59548515Y-55311598D01*
X59579661Y-55382372D01*
X59601086Y-55440235D01*
X59609317Y-55471004D01*
X59620074Y-55525097D01*
X59632779Y-55587064D01*
X59640963Y-55625985D01*
X59649751Y-55672846D01*
X59651965Y-55709108D01*
X59647224Y-55746302D01*
X59635336Y-55795234D01*
X59621903Y-55843767D01*
X59609083Y-55886672D01*
X59599804Y-55914232D01*
X59587413Y-55946086D01*
X59664462Y-55941686D01*
X59719168Y-55942186D01*
X59765627Y-55952037D01*
X59805943Y-55973567D01*
X59842219Y-56009104D01*
X59876558Y-56060975D01*
X59911064Y-56131509D01*
X59947840Y-56223033D01*
X59967701Y-56277295D01*
X60015061Y-56413565D01*
X60052384Y-56530276D01*
X60080434Y-56630493D01*
X60099976Y-56717286D01*
X60111777Y-56793721D01*
X60116601Y-56862866D01*
X60116788Y-56874861D01*
X60116606Y-56930424D01*
X60114249Y-56967230D01*
X60108459Y-56991581D01*
X60097977Y-57009778D01*
X60087408Y-57021979D01*
X60048668Y-57050320D01*
X59999451Y-57061543D01*
X59935900Y-57056263D01*
X59908841Y-57050458D01*
X59837968Y-57033373D01*
X59794305Y-57073373D01*
X59762422Y-57112852D01*
X59743033Y-57157994D01*
X59735457Y-57204274D01*
X59739011Y-57247169D01*
X59753013Y-57282156D01*
X59776782Y-57304710D01*
X59809637Y-57310308D01*
X59829265Y-57305332D01*
X59859500Y-57295002D01*
X59869713Y-57296736D01*
X59862867Y-57312588D01*
X59855786Y-57323695D01*
X59840029Y-57350226D01*
X59839919Y-57365937D01*
X59858382Y-57378493D01*
X59880338Y-57388014D01*
X59926183Y-57400360D01*
X59959281Y-57392286D01*
X59982679Y-57362847D01*
X59986089Y-57355221D01*
X60001273Y-57329539D01*
X60013912Y-57327813D01*
X60021897Y-57348930D01*
X60023594Y-57375024D01*
X60024880Y-57401682D01*
X60033325Y-57414201D01*
X60055805Y-57417927D01*
X60079115Y-57418164D01*
X60121110Y-57413691D01*
X60150360Y-57401988D01*
X60153457Y-57399342D01*
X60165423Y-57378421D01*
X60162862Y-57348229D01*
X60160621Y-57339874D01*
X60151786Y-57298894D01*
X60154674Y-57279877D01*
X60168698Y-57282942D01*
X60193273Y-57308206D01*
X60209865Y-57329932D01*
X60245850Y-57379608D01*
X60297703Y-57335224D01*
X60333657Y-57298450D01*
X60347879Y-57265026D01*
X60340423Y-57230023D01*
X60311340Y-57188516D01*
X60299408Y-57175144D01*
X60272552Y-57144730D01*
X60254353Y-57121673D01*
X60249260Y-57112571D01*
X60258916Y-57111171D01*
X60282795Y-57118757D01*
X60313266Y-57132027D01*
X60342697Y-57147677D01*
X60362621Y-57161633D01*
X60385159Y-57176560D01*
X60397207Y-57179960D01*
X60408142Y-57168924D01*
X60420961Y-57141080D01*
X60433255Y-57104324D01*
X60442612Y-57066550D01*
X60446624Y-57035653D01*
X60445167Y-57022853D01*
X60431014Y-57007323D01*
X60401723Y-56986052D01*
X60375310Y-56970240D01*
X60341162Y-56949735D01*
X60318207Y-56932759D01*
X60312126Y-56924984D01*
X60322953Y-56920503D01*
X60350459Y-56921501D01*
X60365227Y-56923623D01*
X60411872Y-56931282D01*
X60439177Y-56931714D01*
X60452653Y-56921045D01*
X60457809Y-56895396D01*
X60459855Y-56857050D01*
X60461256Y-56813964D01*
X60458722Y-56789095D01*
X60449932Y-56775641D01*
X60432563Y-56766797D01*
X60428513Y-56765233D01*
X60394043Y-56755444D01*
X60349610Y-56746919D01*
X60333885Y-56744763D01*
X60293298Y-56737893D01*
X60276480Y-56730569D01*
X60282169Y-56723822D01*
X60309104Y-56718682D01*
X60356024Y-56716184D01*
X60368934Y-56716091D01*
X60463535Y-56716091D01*
X60459828Y-56631595D01*
X60456200Y-56583388D01*
X60449852Y-56555973D01*
X60445667Y-56551503D01*
X60439691Y-56545119D01*
X60437315Y-56544590D01*
X60415850Y-56542184D01*
X60377702Y-56538296D01*
X60331428Y-56533796D01*
X60285467Y-56527662D01*
X60264113Y-56520635D01*
X60266931Y-56513116D01*
X60293488Y-56505501D01*
X60343350Y-56498191D01*
X60373602Y-56495076D01*
X60463377Y-56486732D01*
X60459749Y-56391416D01*
X60456785Y-56313532D01*
X60550148Y-56313532D01*
X60550148Y-56551503D01*
X60550171Y-56637006D01*
X60550932Y-56700604D01*
X60553473Y-56745468D01*
X60558835Y-56774766D01*
X60568059Y-56791666D01*
X60582187Y-56799336D01*
X60602258Y-56800947D01*
X60629314Y-56799665D01*
X60631639Y-56799542D01*
X60669250Y-56797581D01*
X60669250Y-56584786D01*
X60669250Y-56559378D01*
X60669250Y-56363633D01*
X60738204Y-56363633D01*
X60738204Y-56584786D01*
X60738926Y-56675062D01*
X60741336Y-56740549D01*
X60745800Y-56781493D01*
X60752686Y-56798145D01*
X60762360Y-56790754D01*
X60775187Y-56759567D01*
X60791466Y-56705064D01*
X61039092Y-56705064D01*
X61039358Y-56781031D01*
X61040099Y-56847661D01*
X61041232Y-56901190D01*
X61042672Y-56937855D01*
X61044336Y-56953889D01*
X61044654Y-56954294D01*
X61057076Y-56948344D01*
X61086412Y-56932234D01*
X61127996Y-56908569D01*
X61167382Y-56885698D01*
X61284548Y-56817102D01*
X61364158Y-56664697D01*
X61395958Y-56603288D01*
X61417490Y-56559306D01*
X61430288Y-56528053D01*
X61435888Y-56504835D01*
X61435825Y-56484956D01*
X61431632Y-56463718D01*
X61430864Y-56460613D01*
X61413033Y-56390669D01*
X61395880Y-56326030D01*
X61380622Y-56271037D01*
X61368476Y-56230032D01*
X61360658Y-56207359D01*
X61359063Y-56204439D01*
X61347429Y-56209039D01*
X61322219Y-56226666D01*
X61288583Y-56253673D01*
X61283869Y-56257675D01*
X61214610Y-56316845D01*
X61214610Y-56558812D01*
X61214317Y-56645013D01*
X61213272Y-56709447D01*
X61211232Y-56755417D01*
X61207952Y-56786226D01*
X61203186Y-56805176D01*
X61196691Y-56815571D01*
X61195502Y-56816638D01*
X61175993Y-56825730D01*
X61167294Y-56823399D01*
X61164203Y-56808477D01*
X61161252Y-56772696D01*
X61158657Y-56720270D01*
X61156632Y-56655416D01*
X61155510Y-56592812D01*
X61154619Y-56521085D01*
X61153802Y-56458590D01*
X61153115Y-56409414D01*
X61152615Y-56377648D01*
X61152376Y-56367349D01*
X61143391Y-56372396D01*
X61120546Y-56389541D01*
X61095509Y-56409604D01*
X61039092Y-56455834D01*
X61039092Y-56705064D01*
X60791466Y-56705064D01*
X60791534Y-56704835D01*
X60810073Y-56633598D01*
X60824967Y-56571609D01*
X60836938Y-56517027D01*
X60844906Y-56475148D01*
X60847239Y-56455834D01*
X60847790Y-56451268D01*
X60847685Y-56449283D01*
X60835822Y-56430172D01*
X60808964Y-56406798D01*
X60791486Y-56395290D01*
X60738204Y-56363633D01*
X60669250Y-56363633D01*
X60669250Y-56321174D01*
X60609699Y-56317353D01*
X60550148Y-56313532D01*
X60456785Y-56313532D01*
X60456121Y-56296100D01*
X60355825Y-56298435D01*
X60298365Y-56302012D01*
X60241867Y-56309216D01*
X60198020Y-56318533D01*
X60195978Y-56319148D01*
X60162072Y-56327786D01*
X60140503Y-56329773D01*
X60136427Y-56327334D01*
X60147877Y-56312845D01*
X60178601Y-56296066D01*
X60223163Y-56278954D01*
X60276124Y-56263465D01*
X60328915Y-56252221D01*
X60550148Y-56252221D01*
X60623382Y-56252221D01*
X60666369Y-56254059D01*
X60700315Y-56261870D01*
X60735533Y-56279095D01*
X60770692Y-56301394D01*
X60809646Y-56325995D01*
X60841671Y-56343947D01*
X60860069Y-56351508D01*
X60860440Y-56351542D01*
X60869809Y-56342743D01*
X60871821Y-56331047D01*
X61039305Y-56331047D01*
X61040697Y-56347650D01*
X61046483Y-56354909D01*
X61059367Y-56351681D01*
X61082051Y-56336821D01*
X61117241Y-56309186D01*
X61167638Y-56267632D01*
X61205853Y-56235915D01*
X61259406Y-56191214D01*
X61296319Y-56159012D01*
X61319393Y-56135969D01*
X61331428Y-56118743D01*
X61335221Y-56103997D01*
X61333574Y-56088388D01*
X61332760Y-56084509D01*
X61319754Y-56035236D01*
X61306197Y-56001939D01*
X61293879Y-55988951D01*
X61293277Y-55988912D01*
X61281612Y-55997532D01*
X61256228Y-56021229D01*
X61220483Y-56056718D01*
X61177735Y-56100717D01*
X61161838Y-56117416D01*
X61113763Y-56168507D01*
X61080354Y-56205640D01*
X61058928Y-56232957D01*
X61046801Y-56254605D01*
X61041292Y-56274728D01*
X61039716Y-56297469D01*
X61039602Y-56306243D01*
X61039305Y-56331047D01*
X60871821Y-56331047D01*
X60874865Y-56313348D01*
X60876111Y-56271590D01*
X60876111Y-56190663D01*
X60776555Y-56114877D01*
X60729344Y-56079739D01*
X60695348Y-56057499D01*
X60668318Y-56045250D01*
X60642004Y-56040085D01*
X60613574Y-56039092D01*
X60550148Y-56039092D01*
X60550148Y-56145656D01*
X60550148Y-56252221D01*
X60328915Y-56252221D01*
X60332047Y-56251554D01*
X60357663Y-56247766D01*
X60462389Y-56234791D01*
X60462389Y-56145656D01*
X60462389Y-56143210D01*
X60462389Y-56051629D01*
X60358959Y-56052351D01*
X60295726Y-56055699D01*
X60228583Y-56063793D01*
X60171858Y-56074898D01*
X60170903Y-56075145D01*
X60129239Y-56084794D01*
X60099024Y-56089469D01*
X60086352Y-56088252D01*
X60086279Y-56087882D01*
X60096647Y-56077948D01*
X60123663Y-56061354D01*
X60156681Y-56044102D01*
X60216503Y-56020693D01*
X60288084Y-56004502D01*
X60344736Y-55996902D01*
X60462389Y-55984146D01*
X60462389Y-55963869D01*
X60550148Y-55963869D01*
X60617579Y-55963869D01*
X60650113Y-55964918D01*
X60676478Y-55970003D01*
X60703060Y-55982034D01*
X60736242Y-56003919D01*
X60782409Y-56038567D01*
X60783694Y-56039552D01*
X60882379Y-56115235D01*
X60882688Y-56095508D01*
X60963949Y-56095508D01*
X61232970Y-55824834D01*
X61310285Y-55747044D01*
X61400423Y-55747044D01*
X61511243Y-55829621D01*
X61556803Y-55863035D01*
X61595082Y-55890108D01*
X61621595Y-55907733D01*
X61631466Y-55912960D01*
X61635853Y-55901809D01*
X61639058Y-55871555D01*
X61640517Y-55828162D01*
X61640546Y-55816559D01*
X61640508Y-55805067D01*
X61704217Y-55805067D01*
X61705133Y-55846985D01*
X61708170Y-55876179D01*
X61712681Y-55886644D01*
X61712957Y-55886558D01*
X61723865Y-55876864D01*
X61749993Y-55851569D01*
X61789017Y-55812984D01*
X61838613Y-55763423D01*
X61896458Y-55705199D01*
X61960228Y-55640625D01*
X61969966Y-55630733D01*
X62217572Y-55379087D01*
X62217567Y-55285965D01*
X62217562Y-55192843D01*
X61961221Y-55456120D01*
X61704879Y-55719398D01*
X61704217Y-55805067D01*
X61640508Y-55805067D01*
X61640222Y-55719398D01*
X61577025Y-55676519D01*
X61513827Y-55633640D01*
X61457125Y-55690342D01*
X61400423Y-55747044D01*
X61310285Y-55747044D01*
X61501991Y-55554160D01*
X61533659Y-55454992D01*
X61548353Y-55407237D01*
X61559467Y-55367813D01*
X61565130Y-55343464D01*
X61565487Y-55340153D01*
X61553976Y-55329021D01*
X61521459Y-55324523D01*
X61517033Y-55324481D01*
X61501081Y-55325755D01*
X61482950Y-55330466D01*
X61460525Y-55339947D01*
X61431693Y-55355534D01*
X61394339Y-55378561D01*
X61346350Y-55410363D01*
X61285613Y-55452273D01*
X61210012Y-55505626D01*
X61117434Y-55571756D01*
X61060218Y-55612833D01*
X60964280Y-55681787D01*
X60964114Y-55888647D01*
X60963949Y-56095508D01*
X60882688Y-56095508D01*
X60885795Y-55897229D01*
X60889211Y-55679224D01*
X60832602Y-55578560D01*
X60802405Y-55526905D01*
X60777128Y-55493463D01*
X60750005Y-55474267D01*
X60714266Y-55465346D01*
X60663143Y-55462733D01*
X60634773Y-55462560D01*
X60550148Y-55462389D01*
X60550148Y-55713129D01*
X60550148Y-55963869D01*
X60462389Y-55963869D01*
X60462389Y-55884573D01*
X60462389Y-55784999D01*
X60340153Y-55792752D01*
X60281763Y-55796830D01*
X60227908Y-55801250D01*
X60186844Y-55805307D01*
X60174038Y-55806927D01*
X60151138Y-55809742D01*
X60146113Y-55807696D01*
X60160577Y-55798803D01*
X60194304Y-55781975D01*
X60239948Y-55764362D01*
X60298620Y-55748096D01*
X60358352Y-55736477D01*
X60360419Y-55736180D01*
X60462389Y-55721760D01*
X60462389Y-55713129D01*
X60462389Y-55621696D01*
X60462389Y-55521632D01*
X60315079Y-55529204D01*
X60252950Y-55532803D01*
X60196641Y-55536797D01*
X60152854Y-55540667D01*
X60130158Y-55543530D01*
X60109609Y-55546542D01*
X60108565Y-55543578D01*
X60128366Y-55532721D01*
X60142695Y-55525606D01*
X60179009Y-55510271D01*
X60223285Y-55496938D01*
X60280615Y-55484378D01*
X60356089Y-55471361D01*
X60387167Y-55466556D01*
X60456121Y-55456120D01*
X60459817Y-55357040D01*
X60463513Y-55257960D01*
X60303104Y-55265208D01*
X60240111Y-55268654D01*
X60184546Y-55272803D01*
X60142125Y-55277151D01*
X60118565Y-55281196D01*
X60117621Y-55281508D01*
X60101071Y-55285677D01*
X60104783Y-55277376D01*
X60107190Y-55274699D01*
X60127691Y-55263278D01*
X60166223Y-55250065D01*
X60214771Y-55237013D01*
X60739901Y-55237013D01*
X60779830Y-55321493D01*
X60813451Y-55390908D01*
X60846860Y-55456840D01*
X60878045Y-55515614D01*
X60904993Y-55563560D01*
X60925691Y-55597005D01*
X60938124Y-55612277D01*
X60939565Y-55612833D01*
X60952322Y-55605833D01*
X60982442Y-55586186D01*
X61026962Y-55555925D01*
X61082914Y-55517079D01*
X61147335Y-55471681D01*
X61190247Y-55441120D01*
X61258369Y-55391959D01*
X61319490Y-55346980D01*
X61370680Y-55308410D01*
X61409013Y-55278473D01*
X61431561Y-55259396D01*
X61436311Y-55254046D01*
X61437689Y-55236844D01*
X61437703Y-55199187D01*
X61436446Y-55145656D01*
X61434011Y-55080829D01*
X61431839Y-55034761D01*
X61421471Y-54830836D01*
X61361348Y-54815534D01*
X61301226Y-54800233D01*
X61020563Y-55018623D01*
X60739901Y-55237013D01*
X60214771Y-55237013D01*
X60215976Y-55236689D01*
X60270143Y-55224776D01*
X60321914Y-55215956D01*
X60364480Y-55211857D01*
X60370470Y-55211746D01*
X60413551Y-55210516D01*
X60440507Y-55203847D01*
X60455114Y-55186975D01*
X60461148Y-55155137D01*
X60462384Y-55103570D01*
X60462389Y-55095781D01*
X60462389Y-54995134D01*
X60308811Y-55001626D01*
X60247099Y-55004844D01*
X60192813Y-55008799D01*
X60151845Y-55012986D01*
X60130158Y-55016879D01*
X60112978Y-55022121D01*
X60116517Y-55016459D01*
X60127850Y-55006959D01*
X60154868Y-54993126D01*
X60200713Y-54978185D01*
X60259276Y-54963652D01*
X60324448Y-54951043D01*
X60390120Y-54941873D01*
X60390301Y-54941853D01*
X60462389Y-54934030D01*
X60462389Y-54809562D01*
X60462389Y-54778202D01*
X60550148Y-54778202D01*
X60550223Y-54893944D01*
X60550529Y-54987092D01*
X60551191Y-55060124D01*
X60552334Y-55115519D01*
X60554082Y-55155756D01*
X60556559Y-55183314D01*
X60559889Y-55200672D01*
X60564197Y-55210309D01*
X60569608Y-55214703D01*
X60572088Y-55215543D01*
X60591463Y-55219589D01*
X60610396Y-55220083D01*
X60631330Y-55215558D01*
X60656705Y-55204547D01*
X60688961Y-55185583D01*
X60730539Y-55157200D01*
X60783880Y-55117932D01*
X60851424Y-55066310D01*
X60935613Y-55000870D01*
X60956650Y-54984441D01*
X61043033Y-54916787D01*
X61111528Y-54862612D01*
X61164127Y-54820113D01*
X61202822Y-54787487D01*
X61229606Y-54762932D01*
X61246469Y-54744644D01*
X61255404Y-54730821D01*
X61258402Y-54719661D01*
X61257921Y-54711761D01*
X61255116Y-54690889D01*
X61250236Y-54650104D01*
X61243748Y-54593676D01*
X61236118Y-54525872D01*
X61227812Y-54450962D01*
X61219296Y-54373213D01*
X61211036Y-54296894D01*
X61203498Y-54226273D01*
X61197149Y-54165619D01*
X61195627Y-54150568D01*
X61269027Y-54150568D01*
X61269673Y-54162881D01*
X61272669Y-54195747D01*
X61277549Y-54244805D01*
X61283846Y-54305693D01*
X61291095Y-54374049D01*
X61298829Y-54445511D01*
X61306582Y-54515717D01*
X61313888Y-54580306D01*
X61320281Y-54634915D01*
X61324137Y-54666241D01*
X61333712Y-54741417D01*
X61408934Y-54760319D01*
X61484156Y-54779222D01*
X61493962Y-54967227D01*
X61498922Y-55060401D01*
X61503235Y-55131513D01*
X61507513Y-55183544D01*
X61512367Y-55219472D01*
X61518409Y-55242278D01*
X61526250Y-55254943D01*
X61536502Y-55260447D01*
X61549776Y-55261769D01*
X61554401Y-55261796D01*
X61591766Y-55261796D01*
X61584873Y-55170903D01*
X61582261Y-55133538D01*
X61578493Y-55075622D01*
X61573846Y-55001639D01*
X61568600Y-54916071D01*
X61563033Y-54823401D01*
X61558205Y-54741510D01*
X61538429Y-54403011D01*
X61404728Y-54275939D01*
X61357641Y-54231417D01*
X61317543Y-54193942D01*
X61287655Y-54166490D01*
X61271197Y-54152036D01*
X61269027Y-54150568D01*
X61195627Y-54150568D01*
X61192455Y-54119200D01*
X61189882Y-54091285D01*
X61189536Y-54085589D01*
X61180192Y-54070657D01*
X61156578Y-54049285D01*
X61125319Y-54026036D01*
X61093041Y-54005475D01*
X61066370Y-53992166D01*
X61051932Y-53990675D01*
X61051861Y-53990746D01*
X61044682Y-54006031D01*
X61031839Y-54040952D01*
X61014843Y-54091119D01*
X60995200Y-54152141D01*
X60983463Y-54189881D01*
X60963327Y-54255317D01*
X60945601Y-54312680D01*
X60931668Y-54357507D01*
X60922913Y-54385337D01*
X60920782Y-54391855D01*
X60908995Y-54396399D01*
X60877651Y-54395631D01*
X60825178Y-54389414D01*
X60750003Y-54377612D01*
X60742404Y-54376328D01*
X60679153Y-54365689D01*
X60624844Y-54356740D01*
X60584219Y-54350247D01*
X60562016Y-54346979D01*
X60559551Y-54346739D01*
X60557346Y-54358764D01*
X60555326Y-54393004D01*
X60553551Y-54446599D01*
X60552084Y-54516689D01*
X60550988Y-54600416D01*
X60550325Y-54694920D01*
X60550148Y-54778202D01*
X60462389Y-54778202D01*
X60462389Y-54685094D01*
X60352690Y-54685777D01*
X60283946Y-54688300D01*
X60207354Y-54694280D01*
X60139012Y-54702448D01*
X60136427Y-54702840D01*
X60087902Y-54709849D01*
X60049887Y-54714492D01*
X60028327Y-54716077D01*
X60025654Y-54715710D01*
X60028838Y-54706797D01*
X60052380Y-54694934D01*
X60091903Y-54681269D01*
X60143029Y-54666951D01*
X60201379Y-54653129D01*
X60262577Y-54640953D01*
X60322244Y-54631573D01*
X60363367Y-54627062D01*
X60462389Y-54618803D01*
X60462389Y-54520549D01*
X60461984Y-54471268D01*
X60459604Y-54441440D01*
X60453504Y-54425443D01*
X60441939Y-54417655D01*
X60429297Y-54413988D01*
X60393760Y-54410069D01*
X60339314Y-54410131D01*
X60271729Y-54413716D01*
X60196775Y-54420364D01*
X60120221Y-54429616D01*
X60047835Y-54441013D01*
X60018146Y-54446721D01*
X59965757Y-54456966D01*
X59923335Y-54464252D01*
X59896311Y-54467706D01*
X59889504Y-54467424D01*
X59895571Y-54459064D01*
X59920453Y-54445513D01*
X59958974Y-54428869D01*
X60005956Y-54411226D01*
X60056223Y-54394682D01*
X60098165Y-54382924D01*
X60154021Y-54371329D01*
X60223382Y-54360515D01*
X60294696Y-54352179D01*
X60324482Y-54349679D01*
X60456121Y-54340326D01*
X60458374Y-54276247D01*
X60556417Y-54276247D01*
X60675518Y-54297653D01*
X60747548Y-54309933D01*
X60799148Y-54316312D01*
X60834399Y-54316174D01*
X60857381Y-54308907D01*
X60872175Y-54293895D01*
X60882861Y-54270523D01*
X60884383Y-54266198D01*
X60893902Y-54234768D01*
X60897383Y-54215141D01*
X60896803Y-54212663D01*
X60881106Y-54207046D01*
X60846809Y-54199480D01*
X60800204Y-54191000D01*
X60747587Y-54182641D01*
X60695253Y-54175435D01*
X60649495Y-54170419D01*
X60631639Y-54169088D01*
X60556417Y-54164807D01*
X60556417Y-54220527D01*
X60556417Y-54276247D01*
X60458374Y-54276247D01*
X60459765Y-54236697D01*
X60460084Y-54220527D01*
X60460806Y-54184007D01*
X60458904Y-54151249D01*
X60453313Y-54133378D01*
X60443290Y-54125349D01*
X60423603Y-54123446D01*
X60384478Y-54123856D01*
X60331428Y-54126393D01*
X60269964Y-54130874D01*
X60264682Y-54131325D01*
X60204505Y-54136119D01*
X60154006Y-54139372D01*
X60118076Y-54140825D01*
X60101605Y-54140220D01*
X60101157Y-54139985D01*
X60107953Y-54133353D01*
X60134629Y-54123777D01*
X60176335Y-54112459D01*
X60228223Y-54100599D01*
X60285442Y-54089398D01*
X60343143Y-54080056D01*
X60343287Y-54080036D01*
X60450612Y-54064781D01*
X60550148Y-54064781D01*
X60684921Y-54106346D01*
X60742688Y-54124840D01*
X60794299Y-54142594D01*
X60833336Y-54157327D01*
X60851037Y-54165318D01*
X60879097Y-54178329D01*
X60897292Y-54183169D01*
X60907191Y-54172164D01*
X60921264Y-54142302D01*
X60937169Y-54098939D01*
X60945062Y-54073914D01*
X60960338Y-54022831D01*
X60973291Y-53979360D01*
X60981918Y-53950230D01*
X60983822Y-53943708D01*
X60982745Y-53934045D01*
X60970910Y-53925562D01*
X60944633Y-53916992D01*
X60900227Y-53907071D01*
X60848293Y-53897147D01*
X60756891Y-53880414D01*
X60687140Y-53867942D01*
X60636066Y-53859281D01*
X60600693Y-53853977D01*
X60578045Y-53851578D01*
X60565148Y-53851633D01*
X60559620Y-53853276D01*
X60555246Y-53867679D01*
X60551941Y-53900840D01*
X60550256Y-53946444D01*
X60550148Y-53961955D01*
X60550148Y-54064781D01*
X60450612Y-54064781D01*
X60456121Y-54063998D01*
X60456121Y-53961955D01*
X60456121Y-53913810D01*
X60456121Y-53763623D01*
X60315892Y-53765328D01*
X60165965Y-53773675D01*
X60025885Y-53794374D01*
X59898097Y-53826537D01*
X59785047Y-53869274D01*
X59689183Y-53921697D01*
X59612950Y-53982916D01*
X59568091Y-54037103D01*
X59535052Y-54094656D01*
X59510170Y-54157581D01*
X59492066Y-54231107D01*
X59479362Y-54320461D01*
X59472680Y-54399080D01*
X59460168Y-54519974D01*
X59438756Y-54631213D01*
X59423190Y-54690402D01*
X59402914Y-54767265D01*
X59390495Y-54832843D01*
X59386708Y-54891986D01*
X58630800Y-54891986D01*
X58636739Y-54844718D01*
X58649984Y-54794390D01*
X58654259Y-54782255D01*
X58666540Y-54744748D01*
X58672175Y-54718677D01*
X58670451Y-54710168D01*
X58653181Y-54714639D01*
X58623008Y-54725760D01*
X58613543Y-54729629D01*
X58580895Y-54741022D01*
X58557445Y-54745232D01*
X58553978Y-54744761D01*
X58554677Y-54733937D01*
X58570300Y-54708923D01*
X58597962Y-54673177D01*
X58634777Y-54630158D01*
X58677859Y-54583327D01*
X58724323Y-54536141D01*
X58743053Y-54518090D01*
X58778013Y-54484491D01*
X58804679Y-54457988D01*
X58818825Y-54442817D01*
X58820040Y-54440924D01*
X58809302Y-54439981D01*
X58780856Y-54446368D01*
X58740347Y-54458297D01*
X58693425Y-54473979D01*
X58645737Y-54491627D01*
X58602931Y-54509451D01*
X58601346Y-54510167D01*
X58559596Y-54527845D01*
X58527220Y-54539216D01*
X58510355Y-54542170D01*
X58509522Y-54541736D01*
X58508603Y-54526626D01*
X58514377Y-54496616D01*
X58518555Y-54481448D01*
X58561892Y-54375941D01*
X58623597Y-54284783D01*
X58701499Y-54210629D01*
X58778561Y-54163083D01*
X58853265Y-54136077D01*
X58931575Y-54127812D01*
X59017681Y-54138369D01*
X59115769Y-54167830D01*
X59120928Y-54169750D01*
X59212170Y-54198257D01*
X59287665Y-54209650D01*
X59346719Y-54204020D01*
X59388639Y-54181460D01*
X59412731Y-54142060D01*
X59415651Y-54130755D01*
X59426638Y-54096613D01*
X59445748Y-54052823D01*
X59460727Y-54023766D01*
X59497253Y-53957946D01*
X59453174Y-53957946D01*
X59424862Y-53955122D01*
X59378146Y-53947382D01*
X59318965Y-53935830D01*
X59253255Y-53921568D01*
X59236803Y-53917778D01*
X59158678Y-53900385D01*
X59094991Y-53888749D01*
X59036075Y-53881736D01*
X58972260Y-53878214D01*
X58893876Y-53877051D01*
X58888993Y-53877033D01*
X58818354Y-53877067D01*
X58767014Y-53878251D01*
X58729200Y-53881400D01*
X58699140Y-53887325D01*
X58671061Y-53896842D01*
X58639191Y-53910763D01*
X58634599Y-53912878D01*
X58554084Y-53963047D01*
X58480551Y-54034009D01*
X58415649Y-54122058D01*
X58361029Y-54223484D01*
X58318341Y-54334582D01*
X58289234Y-54451643D01*
X58275359Y-54570960D01*
X58208423Y-54570960D01*
X58209603Y-54546747D01*
X58225152Y-54425695D01*
X58255765Y-54306055D01*
X58299392Y-54191864D01*
X58353986Y-54087159D01*
X58417501Y-53995975D01*
X58487887Y-53922351D01*
X58548690Y-53878266D01*
X58652523Y-53831243D01*
X58770165Y-53803649D01*
X58902228Y-53795433D01*
X59049322Y-53806543D01*
X59164529Y-53826407D01*
X59277156Y-53846310D01*
X59377911Y-53855392D01*
X59473723Y-53853157D01*
X59571522Y-53839111D01*
X59678238Y-53812758D01*
X59773421Y-53782908D01*
X59942996Y-53735452D01*
X60123093Y-53703716D01*
X60318461Y-53686900D01*
X60352690Y-53685497D01*
X60550148Y-53678575D01*
X60550148Y-53730502D01*
G37*
%TD*%
M02*
