M48
; DRILL file {KiCad 8.0.2} date 2024-09-15T16:43:49-0400
; FORMAT={-:-/ absolute / metric / decimal}
; #@! TF.CreationDate,2024-09-15T16:43:49-04:00
; #@! TF.GenerationSoftware,Kicad,Pcbnew,8.0.2
; #@! TF.FileFunction,MixedPlating,1,4
FMAT,2
METRIC
; #@! TA.AperFunction,Plated,PTH,ViaDrill
T1C0.300
; #@! TA.AperFunction,Plated,PTH,ComponentDrill
T2C0.600
; #@! TA.AperFunction,Plated,PTH,ComponentDrill
T3C0.800
; #@! TA.AperFunction,Plated,PTH,ComponentDrill
T4C0.950
; #@! TA.AperFunction,Plated,PTH,ComponentDrill
T5C1.000
; #@! TA.AperFunction,Plated,PTH,ComponentDrill
T6C1.300
; #@! TA.AperFunction,Plated,PTH,ComponentDrill
T7C2.000
; #@! TA.AperFunction,Plated,PTH,ComponentDrill
T8C3.200
; #@! TA.AperFunction,NonPlated,NPTH,ComponentDrill
T9C0.600
%
G90
G05
T1
X55.25Y-62.5
X60.0Y-65.0
X61.0Y-64.974
X61.5Y-58.0
X61.927Y-60.25
X62.52Y-57.991
X62.75Y-60.25
X62.85Y-71.0
X63.5Y-51.5
X63.65Y-70.669
X65.25Y-53.25
X65.312Y-54.558
X65.588Y-65.5
X65.787Y-73.0
X66.25Y-54.0
X66.712Y-60.613
X66.75Y-75.5
X66.759Y-59.741
X67.25Y-79.25
X67.45Y-69.75
X67.45Y-70.61
X67.466Y-67.988
X67.47Y-64.943
X67.548Y-54.048
X67.75Y-52.0
X68.0Y-56.5
X68.625Y-55.831
X68.875Y-72.125
X68.916Y-67.34
X69.25Y-51.0
X69.25Y-53.25
X69.42Y-55.92
X69.6Y-60.075
X69.75Y-72.0
X70.108Y-56.478
X70.25Y-52.75
X70.9Y-59.25
X71.039Y-56.289
X71.525Y-59.751
X72.104Y-64.32
X72.45Y-60.5
X72.5Y-69.107
X72.889Y-58.611
X73.872Y-67.784
X74.097Y-58.596
X74.15Y-56.9
X74.22Y-70.047
X75.254Y-52.001
X75.75Y-59.155
X76.0Y-71.5
X76.5Y-68.0
X76.846Y-59.096
X77.125Y-50.125
X77.213Y-61.807
X77.223Y-51.997
X77.25Y-67.65
X77.469Y-59.76
X77.5Y-61.061
X77.5Y-53.0
X77.75Y-71.25
X78.0Y-50.5
X78.1Y-67.65
X78.25Y-62.5
X78.25Y-63.5
X78.25Y-64.5
X78.354Y-59.896
X78.53Y-51.25
X79.25Y-62.5
X79.25Y-63.5
X79.25Y-64.5
X79.261Y-59.989
X80.0Y-54.25
X80.0Y-55.25
X80.0Y-56.25
X80.155Y-60.152
X80.25Y-62.5
X80.25Y-63.5
X80.25Y-64.5
X80.75Y-54.75
X80.75Y-55.75
X80.75Y-56.75
X80.99Y-60.0
X81.25Y-62.5
X81.25Y-63.5
X81.25Y-64.5
X82.25Y-67.65
X82.609Y-77.109
X83.165Y-61.165
X83.5Y-69.25
X83.5Y-70.25
X84.0Y-68.5
X84.0Y-72.0
X84.5Y-53.75
X84.5Y-54.75
X84.5Y-55.75
X84.56Y-64.385
X85.152Y-66.348
X86.0Y-66.25
T3
X71.066Y-73.75
X73.066Y-73.75
X82.25Y-69.545
X82.25Y-72.045
T4
X69.5Y-76.75
X72.0Y-76.75
X74.5Y-76.75
X77.0Y-76.75
T5
X57.8Y-61.241
X57.8Y-63.741
X88.7Y-61.25
X88.7Y-63.75
T6
X65.5Y-45.0
X65.5Y-51.5
X81.0Y-45.0
X81.0Y-51.5
T7
X56.0Y-53.0
X56.0Y-72.5
X90.5Y-53.0
X90.5Y-72.5
T9
X70.36Y-48.331
X76.14Y-48.331
T2
G00X68.93Y-44.241
M15
G01X68.93Y-45.041
M16
G05
G00X68.93Y-48.261
M15
G01X68.93Y-49.361
M16
G05
G00X77.57Y-44.241
M15
G01X77.57Y-45.041
M16
G05
G00X77.57Y-48.261
M15
G01X77.57Y-49.361
M16
G05
T8
G00X60.25Y-49.75
M15
G01X57.704Y-47.204
M16
G05
G00X60.25Y-75.75
M15
G01X57.704Y-78.296
M16
G05
G00X86.25Y-75.75
M15
G01X88.796Y-78.296
M16
G05
G00X86.25Y-49.75
M15
G01X88.796Y-47.204
M16
G05
M30
